<?xml version="1.0" encoding="utf-8" ?>
<svg baseProfile="tiny" height="500" version="1.2" width="500" xmlns="http://www.w3.org/2000/svg" xmlns:ev="http://www.w3.org/2001/xml-events" xmlns:xlink="http://www.w3.org/1999/xlink"><defs /><circle cx="50" cy="50" r="10" /><circle cx="50" cy="100" r="10" /><circle cx="50" cy="150" r="10" /><circle cx="50" cy="200" r="10" /><circle cx="50" cy="250" r="10" /><circle cx="50" cy="300" r="10" /><circle cx="50" cy="350" r="10" /><circle cx="50" cy="400" r="10" /><circle cx="100" cy="50" r="10" /><circle cx="100" cy="100" r="10" /><circle cx="100" cy="150" r="10" /><circle cx="100" cy="200" r="10" /><circle cx="100" cy="250" r="10" /><circle cx="100" cy="300" r="10" /><circle cx="100" cy="350" r="10" /><circle cx="100" cy="400" r="10" /><circle cx="150" cy="50" r="10" /><circle cx="150" cy="100" r="10" /><circle cx="150" cy="150" r="10" /><circle cx="150" cy="200" r="10" /><circle cx="150" cy="250" r="10" /><circle cx="150" cy="300" r="10" /><circle cx="150" cy="350" r="10" /><circle cx="150" cy="400" r="10" /><circle cx="200" cy="50" r="10" /><circle cx="200" cy="100" r="10" /><circle cx="200" cy="150" r="10" /><circle cx="200" cy="200" r="10" /><circle cx="200" cy="250" r="10" /><circle cx="200" cy="300" r="10" /><circle cx="200" cy="350" r="10" /><circle cx="200" cy="400" r="10" /><circle cx="250" cy="50" r="10" /><circle cx="250" cy="100" r="10" /><circle cx="250" cy="150" r="10" /><circle cx="250" cy="200" r="10" /><circle cx="250" cy="250" r="10" /><circle cx="250" cy="300" r="10" /><circle cx="250" cy="350" r="10" /><circle cx="250" cy="400" r="10" /><circle cx="300" cy="50" r="10" /><circle cx="300" cy="100" r="10" /><circle cx="300" cy="150" r="10" /><circle cx="300" cy="200" r="10" /><circle cx="300" cy="250" r="10" /><circle cx="300" cy="300" r="10" /><circle cx="300" cy="350" r="10" /><circle cx="300" cy="400" r="10" /><circle cx="350" cy="50" r="10" /><circle cx="350" cy="100" r="10" /><circle cx="350" cy="150" r="10" /><circle cx="350" cy="200" r="10" /><circle cx="350" cy="250" r="10" /><circle cx="350" cy="300" r="10" /><circle cx="350" cy="350" r="10" /><circle cx="350" cy="400" r="10" /><circle cx="400" cy="50" r="10" /><circle cx="400" cy="100" r="10" /><circle cx="400" cy="150" r="10" /><circle cx="400" cy="200" r="10" /><circle cx="400" cy="250" r="10" /><circle cx="400" cy="300" r="10" /><circle cx="400" cy="350" r="10" /><circle cx="400" cy="400" r="10" /></svg>