<?xml version="1.0" encoding="utf-8" ?>
<svg baseProfile="tiny" height="3019" version="1.2" width="3012" xmlns="http://www.w3.org/2000/svg" xmlns:ev="http://www.w3.org/2001/xml-events" xmlns:xlink="http://www.w3.org/1999/xlink"><defs /><circle cx="19" cy="17" r="20.2795" /><circle cx="2425" cy="14" r="8.4628" /><circle cx="178" cy="17" r="3.6564" /><circle cx="2597" cy="19" r="4.7539" /><circle cx="2273" cy="22" r="7.5272" /><circle cx="2461" cy="20" r="3.7847" /><circle cx="1710" cy="24" r="6.8868" /><circle cx="1596" cy="26" r="4.2595" /><circle cx="407" cy="31" r="6.7703" /><circle cx="438" cy="33" r="6.0503" /><circle cx="1396" cy="32" r="4.8204" /><circle cx="2662" cy="32" r="3.5682" /><circle cx="1352" cy="36" r="6.482" /><circle cx="2147" cy="39" r="6.1287" /><circle cx="1475" cy="39" r="4.9507" /><circle cx="2178" cy="39" r="4.7539" /><circle cx="2227" cy="41" r="3.9493" /><circle cx="147" cy="41" r="4.0684" /><circle cx="1065" cy="45" r="4.6524" /><circle cx="2768" cy="44" r="3.1915" /><circle cx="1877" cy="46" r="4.5486" /><circle cx="2347" cy="49" r="5.9173" /><circle cx="357" cy="51" r="4.4781" /><circle cx="1251" cy="52" r="4.5486" /><circle cx="903" cy="60" r="4.6524" /><circle cx="1034" cy="59" r="2.3262" /><circle cx="1356" cy="60" r="3.4779" /><circle cx="1141" cy="62" r="4.3336" /><circle cx="1810" cy="67" r="9.7394" /><circle cx="2463" cy="59" r="2.5231" /><circle cx="2677" cy="64" r="6.5553" /><circle cx="2659" cy="66" r="7.0014" /><circle cx="1640" cy="66" r="4.9828" /><circle cx="1988" cy="65" r="3.9894" /><circle cx="292" cy="69" r="6.1804" /><circle cx="1629" cy="67" r="2.4592" /><circle cx="2801" cy="67" r="3.3851" /><circle cx="1194" cy="74" r="8.5935" /><circle cx="1756" cy="69" r="3.5234" /><circle cx="2551" cy="71" r="3.4318" /><circle cx="2762" cy="71" r="3.8265" /><circle cx="1459" cy="78" r="8.3302" /><circle cx="1525" cy="78" r="6.1546" /><circle cx="2479" cy="79" r="4.8204" /><circle cx="2741" cy="77" r="3.3851" /><circle cx="199" cy="81" r="5.0463" /><circle cx="1508" cy="85" r="7.6322" /><circle cx="1781" cy="84" r="5.836" /><circle cx="1207" cy="84" r="5.6136" /><circle cx="839" cy="84" r="5.0463" /><circle cx="1584" cy="86" r="6.0239" /><circle cx="1675" cy="91" r="4.5486" /><circle cx="1634" cy="90" r="3.7424" /><circle cx="1105" cy="92" r="4.9828" /><circle cx="2437" cy="92" r="3.0383" /><circle cx="2648" cy="92" r="2.9854" /><circle cx="2850" cy="93" r="2.5854" /><circle cx="2340" cy="94" r="3.3378" /><circle cx="2768" cy="96" r="4.886" /><circle cx="1532" cy="102" r="5.2321" /><circle cx="1166" cy="99" r="2.8768" /><circle cx="2529" cy="104" r="5.2016" /><circle cx="2156" cy="106" r="3.0383" /><circle cx="1713" cy="108" r="3.6126" /><circle cx="1288" cy="113" r="7.5904" /><circle cx="2090" cy="112" r="6.9099" /><circle cx="1118" cy="113" r="3.6126" /><circle cx="75" cy="114" r="3.7847" /><circle cx="1488" cy="117" r="4.8204" /><circle cx="1209" cy="118" r="5.382" /><circle cx="1353" cy="118" r="5.5852" /><circle cx="286" cy="118" r="4.886" /><circle cx="2853" cy="119" r="4.2595" /><circle cx="972" cy="121" r="4.1459" /><circle cx="2299" cy="120" r="2.6463" /><circle cx="2505" cy="120" r="2.2568" /><circle cx="1952" cy="126" r="6.4328" /><circle cx="1470" cy="128" r="7.2252" /><circle cx="2161" cy="128" r="5.8087" /><circle cx="1485" cy="127" r="3.241" /><circle cx="1793" cy="129" r="6.5795" /><circle cx="1080" cy="129" r="4.4424" /><circle cx="1095" cy="129" r="4.2967" /><circle cx="1668" cy="132" r="4.2967" /><circle cx="2553" cy="132" r="2.8768" /><circle cx="197" cy="134" r="4.6865" /><circle cx="1244" cy="136" r="4.3336" /><circle cx="1522" cy="139" r="4.5835" /><circle cx="883" cy="139" r="3.7424" /><circle cx="1383" cy="147" r="10.2179" /><circle cx="1559" cy="142" r="7.0918" /><circle cx="2101" cy="143" r="6.2317" /><circle cx="2223" cy="142" r="7.0918" /><circle cx="1105" cy="145" r="7.8176" /><circle cx="1855" cy="144" r="7.9788" /><circle cx="1365" cy="144" r="4.7539" /><circle cx="2064" cy="146" r="4.1459" /><circle cx="1615" cy="148" r="4.8533" /><circle cx="1413" cy="147" r="3.1915" /><circle cx="2195" cy="148" r="3.9088" /><circle cx="2684" cy="148" r="3.7847" /><circle cx="1140" cy="149" r="3.3851" /><circle cx="1951" cy="151" r="3.5234" /><circle cx="1058" cy="154" r="4.7203" /><circle cx="240" cy="158" r="6.7703" /><circle cx="1817" cy="157" r="4.8533" /><circle cx="2628" cy="159" r="2.764" /><circle cx="989" cy="162" r="4.4424" /><circle cx="1337" cy="164" r="6.2825" /><circle cx="2843" cy="164" r="4.8533" /><circle cx="1890" cy="164" r="2.111" /><circle cx="1178" cy="169" r="4.4065" /><circle cx="956" cy="170" r="4.4781" /><circle cx="1850" cy="171" r="5.5566" /><circle cx="898" cy="175" r="8.078" /><circle cx="2000" cy="175" r="7.3993" /><circle cx="2749" cy="175" r="4.2967" /><circle cx="1583" cy="175" r="4.1074" /><circle cx="1913" cy="177" r="7.3993" /><circle cx="1775" cy="179" r="4.5486" /><circle cx="1878" cy="178" r="4.4781" /><circle cx="1751" cy="181" r="7.0693" /><circle cx="1148" cy="195" r="17.6078" /><circle cx="1357" cy="184" r="6.1026" /><circle cx="395" cy="186" r="4.9507" /><circle cx="1712" cy="185" r="3.5234" /><circle cx="2408" cy="186" r="3.9894" /><circle cx="2655" cy="192" r="8.444" /><circle cx="1443" cy="189" r="5.382" /><circle cx="1510" cy="193" r="6.0503" /><circle cx="2557" cy="200" r="5.7536" /><circle cx="1422" cy="199" r="2.9854" /><circle cx="992" cy="204" r="4.4065" /><circle cx="1492" cy="209" r="7.0014" /><circle cx="1353" cy="208" r="4.1459" /><circle cx="1020" cy="207" r="2.5231" /><circle cx="2638" cy="208" r="3.241" /><circle cx="2181" cy="212" r="6.4574" /><circle cx="1676" cy="213" r="6.2317" /><circle cx="2508" cy="214" r="3.2898" /><circle cx="2388" cy="218" r="4.0684" /><circle cx="2053" cy="220" r="5.0146" /><circle cx="627" cy="218" r="2.2568" /><circle cx="884" cy="219" r="3.6564" /><circle cx="2220" cy="220" r="4.0684" /><circle cx="2820" cy="227" r="8.5749" /><circle cx="2006" cy="229" r="6.7703" /><circle cx="2665" cy="231" r="9.3049" /><circle cx="1316" cy="227" r="3.1915" /><circle cx="1976" cy="229" r="3.9493" /><circle cx="2635" cy="232" r="5.14" /><circle cx="1529" cy="232" r="4.1459" /><circle cx="1728" cy="233" r="6.482" /><circle cx="281" cy="236" r="7.0014" /><circle cx="1925" cy="236" r="3.9088" /><circle cx="1116" cy="238" r="3.4318" /><circle cx="1149" cy="241" r="4.4781" /><circle cx="1401" cy="243" r="3.241" /><circle cx="1957" cy="246" r="3.4779" /><circle cx="1695" cy="247" r="2.5854" /><circle cx="2004" cy="249" r="4.2967" /><circle cx="2548" cy="251" r="4.3702" /><circle cx="1102" cy="254" r="4.3336" /><circle cx="2190" cy="255" r="4.4065" /><circle cx="2226" cy="257" r="5.9173" /><circle cx="2313" cy="257" r="5.7259" /><circle cx="2587" cy="256" r="4.222" /><circle cx="1244" cy="256" r="4.4781" /><circle cx="1753" cy="256" r="3.4779" /><circle cx="1598" cy="258" r="4.5135" /><circle cx="1407" cy="259" r="3.9493" /><circle cx="1551" cy="259" r="5.3524" /><circle cx="1664" cy="262" r="5.1709" /><circle cx="169" cy="265" r="5.2624" /><circle cx="585" cy="266" r="4.4065" /><circle cx="1531" cy="268" r="3.4779" /><circle cx="1921" cy="272" r="6.1287" /><circle cx="2156" cy="271" r="4.1841" /><circle cx="759" cy="274" r="6.1804" /><circle cx="1839" cy="272" r="5.4115" /><circle cx="2090" cy="275" r="6.8404" /><circle cx="1875" cy="277" r="4.5135" /><circle cx="1994" cy="279" r="4.5835" /><circle cx="2828" cy="279" r="5.836" /><circle cx="1355" cy="279" r="4.4424" /><circle cx="2416" cy="280" r="3.8679" /><circle cx="870" cy="280" r="3.9894" /><circle cx="1273" cy="280" r="2.9854" /><circle cx="2133" cy="280" r="3.7424" /><circle cx="2296" cy="285" r="7.6322" /><circle cx="1252" cy="284" r="4.4781" /><circle cx="2242" cy="282" r="3.5234" /><circle cx="1015" cy="284" r="5.2016" /><circle cx="408" cy="286" r="3.9088" /><circle cx="1477" cy="287" r="4.3336" /><circle cx="2097" cy="292" r="5.9441" /><circle cx="2176" cy="290" r="4.0684" /><circle cx="1366" cy="292" r="3.9894" /><circle cx="907" cy="294" r="3.8265" /><circle cx="15" cy="295" r="3.1413" /><circle cx="1259" cy="295" r="2.3937" /><circle cx="2696" cy="301" r="8.5191" /><circle cx="1099" cy="298" r="4.4781" /><circle cx="1609" cy="297" r="3.7424" /><circle cx="2456" cy="304" r="2.5854" /><circle cx="1881" cy="307" r="4.7539" /><circle cx="2359" cy="308" r="3.6126" /><circle cx="1507" cy="311" r="3.9493" /><circle cx="1971" cy="311" r="4.7539" /><circle cx="1139" cy="311" r="3.5682" /><circle cx="1058" cy="315" r="4.3336" /><circle cx="1813" cy="315" r="4.6865" /><circle cx="1711" cy="319" r="7.5272" /><circle cx="723" cy="318" r="4.0291" /><circle cx="2052" cy="317" r="3.4318" /><circle cx="1622" cy="318" r="3.241" /><circle cx="1486" cy="320" r="3.3851" /><circle cx="1940" cy="321" r="2.8209" /><circle cx="2467" cy="322" r="3.3851" /><circle cx="1393" cy="325" r="5.47" /><circle cx="2155" cy="326" r="3.9894" /><circle cx="2765" cy="327" r="3.8265" /><circle cx="2371" cy="328" r="3.9493" /><circle cx="1583" cy="330" r="4.5486" /><circle cx="1560" cy="332" r="4.1074" /><circle cx="1756" cy="332" r="4.5835" /><circle cx="1841" cy="332" r="4.7203" /><circle cx="1411" cy="335" r="3.8265" /><circle cx="2271" cy="337" r="2.5854" /><circle cx="1302" cy="340" r="4.4424" /><circle cx="109" cy="342" r="4.5486" /><circle cx="921" cy="344" r="3.3851" /><circle cx="2337" cy="348" r="4.7873" /><circle cx="1928" cy="349" r="3.6564" /><circle cx="401" cy="356" r="5.4115" /><circle cx="1224" cy="357" r="4.9507" /><circle cx="1124" cy="358" r="4.2595" /><circle cx="1255" cy="358" r="3.5234" /><circle cx="1639" cy="360" r="7.2031" /><circle cx="347" cy="359" r="4.222" /><circle cx="1574" cy="361" r="5.9974" /><circle cx="940" cy="360" r="4.0291" /><circle cx="1866" cy="361" r="4.1459" /><circle cx="1438" cy="364" r="2.9854" /><circle cx="1911" cy="365" r="4.1841" /><circle cx="1981" cy="365" r="4.3336" /><circle cx="1393" cy="368" r="4.8533" /><circle cx="1676" cy="367" r="4.0684" /><circle cx="2143" cy="367" r="2.4592" /><circle cx="1941" cy="370" r="3.1413" /><circle cx="1316" cy="373" r="4.4065" /><circle cx="1809" cy="372" r="2.9316" /><circle cx="2985" cy="374" r="4.0684" /><circle cx="1361" cy="376" r="4.886" /><circle cx="245" cy="379" r="3.2898" /><circle cx="2019" cy="379" r="4.1841" /><circle cx="1596" cy="383" r="4.0291" /><circle cx="1918" cy="387" r="5.0463" /><circle cx="1619" cy="388" r="2.2568" /><circle cx="1874" cy="392" r="6.6994" /><circle cx="1642" cy="391" r="4.5135" /><circle cx="2377" cy="390" r="3.6996" /><circle cx="2851" cy="394" r="5.8903" /><circle cx="1060" cy="393" r="2.4592" /><circle cx="1529" cy="397" r="4.0684" /><circle cx="1272" cy="404" r="4.4424" /><circle cx="1806" cy="408" r="4.0684" /><circle cx="1842" cy="416" r="5.0463" /><circle cx="507" cy="415" r="2.1851" /><circle cx="1157" cy="417" r="5.6419" /><circle cx="1714" cy="416" r="3.9088" /><circle cx="1961" cy="418" r="5.109" /><circle cx="2128" cy="420" r="6.1546" /><circle cx="1060" cy="419" r="4.7203" /><circle cx="1997" cy="425" r="8.3873" /><circle cx="1597" cy="423" r="4.3702" /><circle cx="1662" cy="428" r="5.2624" /><circle cx="2958" cy="427" r="5.0146" /><circle cx="1413" cy="428" r="4.5486" /><circle cx="2988" cy="428" r="4.3336" /><circle cx="2245" cy="428" r="3.0383" /><circle cx="56" cy="429" r="3.9493" /><circle cx="288" cy="430" r="4.8533" /><circle cx="1696" cy="429" r="3.9493" /><circle cx="2370" cy="431" r="4.0291" /><circle cx="476" cy="431" r="3.5234" /><circle cx="1252" cy="432" r="3.5682" /><circle cx="1739" cy="436" r="6.6994" /><circle cx="1482" cy="435" r="4.1841" /><circle cx="1454" cy="437" r="4.886" /><circle cx="1836" cy="439" r="4.8204" /><circle cx="1922" cy="440" r="5.5279" /><circle cx="2099" cy="439" r="5.2926" /><circle cx="1786" cy="441" r="5.47" /><circle cx="40" cy="444" r="4.7873" /><circle cx="161" cy="443" r="3.9894" /><circle cx="1869" cy="444" r="3.6126" /><circle cx="2320" cy="447" r="7.5694" /><circle cx="64" cy="445" r="4.3336" /><circle cx="311" cy="446" r="4.1074" /><circle cx="2290" cy="446" r="4.3336" /><circle cx="1812" cy="448" r="3.6564" /><circle cx="193" cy="454" r="4.886" /><circle cx="165" cy="456" r="3.8265" /><circle cx="1064" cy="457" r="3.6564" /><circle cx="2125" cy="459" r="3.5682" /><circle cx="1359" cy="460" r="2.4592" /><circle cx="2394" cy="462" r="4.5835" /><circle cx="2785" cy="462" r="5.0146" /><circle cx="2209" cy="466" r="3.5234" /><circle cx="2156" cy="467" r="4.3702" /><circle cx="240" cy="467" r="3.6996" /><circle cx="284" cy="472" r="3.8679" /><circle cx="1987" cy="474" r="4.3702" /><circle cx="2314" cy="475" r="4.6181" /><circle cx="201" cy="477" r="4.7203" /><circle cx="1392" cy="476" r="2.764" /><circle cx="2974" cy="483" r="9.6078" /><circle cx="51" cy="480" r="4.7539" /><circle cx="179" cy="480" r="5.109" /><circle cx="1769" cy="480" r="6.408" /><circle cx="2276" cy="479" r="3.7847" /><circle cx="104" cy="481" r="4.6865" /><circle cx="1113" cy="481" r="3.9894" /><circle cx="724" cy="482" r="4.1459" /><circle cx="1558" cy="483" r="4.4424" /><circle cx="2057" cy="487" r="7.0693" /><circle cx="1151" cy="488" r="4.7873" /><circle cx="1914" cy="487" r="2.7058" /><circle cx="649" cy="486" r="2.3937" /><circle cx="2839" cy="490" r="3.5682" /><circle cx="2079" cy="490" r="2.4592" /><circle cx="1482" cy="494" r="4.6865" /><circle cx="2688" cy="496" r="8.2534" /><circle cx="1802" cy="498" r="6.0503" /><circle cx="1846" cy="498" r="5.2016" /><circle cx="376" cy="498" r="3.4779" /><circle cx="761" cy="500" r="2.7058" /><circle cx="2794" cy="506" r="7.8785" /><circle cx="2298" cy="505" r="4.0684" /><circle cx="1273" cy="509" r="6.9099" /><circle cx="2006" cy="509" r="5.2016" /><circle cx="1027" cy="508" r="3.1413" /><circle cx="1323" cy="508" r="3.9493" /><circle cx="2136" cy="506" r="2.3937" /><circle cx="921" cy="514" r="2.6463" /><circle cx="1535" cy="516" r="5.2016" /><circle cx="2590" cy="518" r="3.7847" /><circle cx="2492" cy="523" r="6.408" /><circle cx="2802" cy="525" r="5.2624" /><circle cx="16" cy="526" r="3.6564" /><circle cx="2242" cy="528" r="4.6865" /><circle cx="2416" cy="529" r="3.1915" /><circle cx="2048" cy="534" r="5.6419" /><circle cx="2385" cy="532" r="3.7847" /><circle cx="2228" cy="534" r="4.0291" /><circle cx="1292" cy="538" r="4.6181" /><circle cx="2983" cy="543" r="9.0798" /><circle cx="2614" cy="551" r="11.6174" /><circle cx="2785" cy="541" r="3.0902" /><circle cx="1876" cy="542" r="2.5231" /><circle cx="2207" cy="544" r="3.8679" /><circle cx="2913" cy="543" r="2.9854" /><circle cx="1563" cy="547" r="4.1841" /><circle cx="1786" cy="546" r="2.3937" /><circle cx="1842" cy="549" r="4.9828" /><circle cx="1675" cy="548" r="2.5231" /><circle cx="2041" cy="550" r="4.1841" /><circle cx="2509" cy="551" r="3.3378" /><circle cx="1808" cy="553" r="3.241" /><circle cx="1241" cy="555" r="2.9316" /><circle cx="660" cy="555" r="2.9854" /><circle cx="2069" cy="559" r="2.764" /><circle cx="1199" cy="561" r="3.7847" /><circle cx="1737" cy="560" r="2.8209" /><circle cx="1832" cy="567" r="2.111" /><circle cx="360" cy="571" r="2.8768" /><circle cx="815" cy="573" r="2.5854" /><circle cx="2668" cy="580" r="4.6181" /><circle cx="247" cy="582" r="4.7539" /><circle cx="1966" cy="582" r="4.1841" /><circle cx="533" cy="585" r="7.1588" /><circle cx="1042" cy="585" r="5.9441" /><circle cx="2866" cy="584" r="4.7539" /><circle cx="2975" cy="587" r="8.6304" /><circle cx="274" cy="583" r="2.4592" /><circle cx="1485" cy="586" r="5.7812" /><circle cx="2598" cy="583" r="2.111" /><circle cx="458" cy="586" r="4.222" /><circle cx="1551" cy="586" r="3.1413" /><circle cx="2083" cy="588" r="5.0146" /><circle cx="2172" cy="585" r="2.4592" /><circle cx="1447" cy="589" r="4.9828" /><circle cx="1357" cy="590" r="4.4424" /><circle cx="2139" cy="594" r="7.838" /><circle cx="2364" cy="591" r="3.9088" /><circle cx="2727" cy="592" r="4.1074" /><circle cx="628" cy="591" r="2.5231" /><circle cx="1931" cy="592" r="3.4318" /><circle cx="796" cy="594" r="4.6524" /><circle cx="1794" cy="594" r="4.8204" /><circle cx="1329" cy="596" r="4.3702" /><circle cx="895" cy="600" r="4.5835" /><circle cx="1421" cy="599" r="4.8533" /><circle cx="1174" cy="604" r="5.14" /><circle cx="1641" cy="606" r="4.7203" /><circle cx="2315" cy="606" r="3.9493" /><circle cx="2908" cy="605" r="3.6564" /><circle cx="2171" cy="607" r="4.222" /><circle cx="305" cy="609" r="4.5135" /><circle cx="839" cy="613" r="7.0467" /><circle cx="1531" cy="611" r="5.109" /><circle cx="1576" cy="608" r="3.0902" /><circle cx="550" cy="613" r="5.4115" /><circle cx="1724" cy="612" r="3.4779" /><circle cx="934" cy="616" r="5.9173" /><circle cx="96" cy="615" r="3.4318" /><circle cx="709" cy="617" r="4.4424" /><circle cx="1248" cy="616" r="3.3378" /><circle cx="1665" cy="616" r="3.3851" /><circle cx="2080" cy="616" r="3.5234" /><circle cx="2674" cy="618" r="2.6463" /><circle cx="591" cy="624" r="7.2691" /><circle cx="852" cy="623" r="4.8204" /><circle cx="1068" cy="623" r="5.9173" /><circle cx="1306" cy="620" r="2.111" /><circle cx="1186" cy="623" r="4.5135" /><circle cx="1231" cy="621" r="2.1851" /><circle cx="321" cy="627" r="5.14" /><circle cx="256" cy="630" r="4.5835" /><circle cx="652" cy="633" r="6.5066" /><circle cx="1049" cy="632" r="4.1841" /><circle cx="289" cy="638" r="5.5279" /><circle cx="969" cy="638" r="5.0777" /><circle cx="2222" cy="639" r="4.1459" /><circle cx="999" cy="641" r="5.2926" /><circle cx="732" cy="641" r="4.4065" /><circle cx="2806" cy="639" r="2.5854" /><circle cx="2610" cy="641" r="4.1841" /><circle cx="1696" cy="647" r="4.5835" /><circle cx="1255" cy="647" r="4.3336" /><circle cx="1403" cy="646" r="2.9854" /><circle cx="1480" cy="647" r="3.4779" /><circle cx="2196" cy="650" r="7.3127" /><circle cx="2680" cy="651" r="6.482" /><circle cx="709" cy="650" r="4.6865" /><circle cx="1428" cy="650" r="3.9894" /><circle cx="2459" cy="653" r="4.4781" /><circle cx="2257" cy="653" r="3.0902" /><circle cx="2980" cy="655" r="5.8087" /><circle cx="2852" cy="658" r="7.9188" /><circle cx="2393" cy="656" r="4.8533" /><circle cx="2305" cy="659" r="3.5682" /><circle cx="1992" cy="659" r="3.1413" /><circle cx="1562" cy="662" r="5.2321" /><circle cx="326" cy="662" r="3.9493" /><circle cx="1941" cy="662" r="5.0146" /><circle cx="2369" cy="664" r="4.3702" /><circle cx="897" cy="664" r="5.2926" /><circle cx="463" cy="667" r="3.3851" /><circle cx="1502" cy="667" r="4.0291" /><circle cx="2622" cy="671" r="3.7847" /><circle cx="341" cy="673" r="5.499" /><circle cx="826" cy="676" r="6.3831" /><circle cx="937" cy="674" r="4.6524" /><circle cx="973" cy="675" r="4.9507" /><circle cx="1614" cy="672" r="2.4592" /><circle cx="1171" cy="677" r="6.0239" /><circle cx="1012" cy="674" r="3.3378" /><circle cx="2593" cy="676" r="3.9493" /><circle cx="675" cy="679" r="5.382" /><circle cx="2671" cy="679" r="5.109" /><circle cx="1296" cy="678" r="3.4318" /><circle cx="449" cy="679" r="3.4779" /><circle cx="1039" cy="683" r="4.3702" /><circle cx="1912" cy="685" r="7.0241" /><circle cx="2013" cy="683" r="4.3702" /><circle cx="1453" cy="686" r="4.4424" /><circle cx="2078" cy="684" r="2.6463" /><circle cx="2188" cy="688" r="6.6277" /><circle cx="324" cy="686" r="2.6463" /><circle cx="2930" cy="690" r="6.3078" /><circle cx="1351" cy="691" r="4.3702" /><circle cx="1619" cy="691" r="4.5486" /><circle cx="2710" cy="688" r="2.9316" /><circle cx="781" cy="692" r="4.3336" /><circle cx="33" cy="695" r="5.109" /><circle cx="2257" cy="693" r="4.222" /><circle cx="2762" cy="698" r="3.9088" /><circle cx="2077" cy="701" r="4.3702" /><circle cx="51" cy="705" r="3.8265" /><circle cx="323" cy="706" r="4.2595" /><circle cx="856" cy="713" r="6.1287" /><circle cx="2590" cy="714" r="4.4424" /><circle cx="364" cy="716" r="5.5566" /><circle cx="674" cy="717" r="5.0463" /><circle cx="1797" cy="715" r="3.2898" /><circle cx="738" cy="718" r="2.4592" /><circle cx="263" cy="719" r="4.1459" /><circle cx="1509" cy="722" r="4.3702" /><circle cx="1387" cy="726" r="7.7358" /><circle cx="916" cy="722" r="2.8209" /><circle cx="2455" cy="724" r="4.3336" /><circle cx="793" cy="729" r="5.5852" /><circle cx="2494" cy="729" r="4.1074" /><circle cx="2188" cy="731" r="4.2595" /><circle cx="2064" cy="737" r="7.0014" /><circle cx="1248" cy="735" r="4.0684" /><circle cx="2122" cy="738" r="5.0777" /><circle cx="2600" cy="743" r="3.6996" /><circle cx="789" cy="747" r="4.0684" /><circle cx="2112" cy="747" r="3.1413" /><circle cx="2418" cy="747" r="3.9088" /><circle cx="1819" cy="755" r="4.5835" /><circle cx="2146" cy="756" r="4.9507" /><circle cx="2211" cy="755" r="4.6524" /><circle cx="18" cy="754" r="2.3262" /><circle cx="487" cy="756" r="4.1841" /><circle cx="824" cy="755" r="3.3378" /><circle cx="2024" cy="761" r="8.1759" /><circle cx="598" cy="758" r="3.6564" /><circle cx="2528" cy="759" r="2.6463" /><circle cx="813" cy="762" r="3.9493" /><circle cx="1642" cy="763" r="3.4318" /><circle cx="2471" cy="763" r="3.4779" /><circle cx="1615" cy="765" r="4.8204" /><circle cx="2116" cy="768" r="3.4779" /><circle cx="513" cy="771" r="3.4318" /><circle cx="1152" cy="774" r="6.7937" /><circle cx="1177" cy="773" r="5.0463" /><circle cx="2990" cy="775" r="6.0765" /><circle cx="1336" cy="773" r="3.5234" /><circle cx="1761" cy="775" r="2.9316" /><circle cx="864" cy="781" r="8.5004" /><circle cx="456" cy="777" r="3.3851" /><circle cx="2133" cy="779" r="3.7847" /><circle cx="2213" cy="780" r="2.6463" /><circle cx="2787" cy="782" r="4.4424" /><circle cx="2717" cy="784" r="4.3336" /><circle cx="2000" cy="787" r="7.6945" /><circle cx="2488" cy="786" r="4.1074" /><circle cx="2631" cy="790" r="4.3702" /><circle cx="679" cy="794" r="4.9185" /><circle cx="2300" cy="794" r="3.5234" /><circle cx="1284" cy="799" r="6.7937" /><circle cx="2167" cy="802" r="8.6672" /><circle cx="2254" cy="800" r="6.0503" /><circle cx="2541" cy="801" r="3.7847" /><circle cx="2807" cy="804" r="5.8087" /><circle cx="2737" cy="805" r="6.3078" /><circle cx="1838" cy="805" r="4.7539" /><circle cx="2066" cy="806" r="4.6181" /><circle cx="117" cy="809" r="3.4779" /><circle cx="1150" cy="814" r="5.499" /><circle cx="2677" cy="813" r="3.5234" /><circle cx="1390" cy="817" r="4.1074" /><circle cx="1691" cy="820" r="4.1074" /><circle cx="899" cy="820" r="3.8265" /><circle cx="2809" cy="821" r="2.7058" /><circle cx="2419" cy="824" r="4.3702" /><circle cx="1995" cy="829" r="4.886" /><circle cx="991" cy="837" r="7.3777" /><circle cx="2740" cy="838" r="3.8679" /><circle cx="585" cy="837" r="2.8209" /><circle cx="2315" cy="846" r="11.1988" /><circle cx="1844" cy="839" r="3.7847" /><circle cx="227" cy="843" r="4.3702" /><circle cx="196" cy="846" r="5.2321" /><circle cx="1911" cy="843" r="2.5854" /><circle cx="1699" cy="846" r="4.4065" /><circle cx="2072" cy="848" r="3.9088" /><circle cx="3008" cy="848" r="5.0146" /><circle cx="147" cy="848" r="4.1459" /><circle cx="2701" cy="855" r="5.2624" /><circle cx="1427" cy="856" r="5.5852" /><circle cx="261" cy="859" r="6.3831" /><circle cx="2466" cy="862" r="4.8533" /><circle cx="2048" cy="860" r="2.4592" /><circle cx="2748" cy="862" r="3.6564" /><circle cx="1673" cy="865" r="5.3524" /><circle cx="30" cy="878" r="9.1322" /><circle cx="1660" cy="886" r="4.7539" /><circle cx="2239" cy="884" r="2.5231" /><circle cx="2272" cy="886" r="3.9088" /><circle cx="1538" cy="890" r="8.4816" /><circle cx="143" cy="891" r="9.4911" /><circle cx="1874" cy="888" r="4.0291" /><circle cx="2623" cy="885" r="2.111" /><circle cx="2690" cy="887" r="3.7847" /><circle cx="1836" cy="891" r="4.1841" /><circle cx="986" cy="892" r="5.4115" /><circle cx="1766" cy="890" r="3.1915" /><circle cx="2181" cy="891" r="3.7847" /><circle cx="2022" cy="896" r="6.531" /><circle cx="267" cy="898" r="5.9974" /><circle cx="769" cy="900" r="7.4848" /><circle cx="2330" cy="898" r="3.9894" /><circle cx="230" cy="899" r="4.6181" /><circle cx="42" cy="908" r="6.2317" /><circle cx="2987" cy="904" r="3.2898" /><circle cx="1655" cy="907" r="4.0684" /><circle cx="15" cy="909" r="2.1851" /><circle cx="2931" cy="911" r="4.1459" /><circle cx="405" cy="910" r="2.4592" /><circle cx="476" cy="912" r="3.2898" /><circle cx="2293" cy="914" r="2.8768" /><circle cx="2568" cy="916" r="3.9088" /><circle cx="1254" cy="923" r="6.3581" /><circle cx="222" cy="922" r="5.0146" /><circle cx="1826" cy="923" r="4.9828" /><circle cx="668" cy="924" r="3.5234" /><circle cx="2199" cy="925" r="3.4779" /><circle cx="715" cy="927" r="4.6181" /><circle cx="2377" cy="928" r="3.6996" /><circle cx="2872" cy="936" r="7.3777" /><circle cx="320" cy="941" r="7.3561" /><circle cx="1779" cy="941" r="4.5486" /><circle cx="2307" cy="941" r="5.2016" /><circle cx="1688" cy="941" r="3.8679" /><circle cx="1950" cy="940" r="3.4318" /><circle cx="2168" cy="945" r="3.3378" /><circle cx="1884" cy="947" r="3.3378" /><circle cx="2752" cy="947" r="3.3851" /><circle cx="942" cy="950" r="3.9894" /><circle cx="295" cy="956" r="6.1546" /><circle cx="2582" cy="954" r="2.7058" /><circle cx="2692" cy="961" r="7.3127" /><circle cx="77" cy="956" r="4.0291" /><circle cx="1715" cy="969" r="9.4407" /><circle cx="98" cy="961" r="4.4424" /><circle cx="2368" cy="959" r="2.8209" /><circle cx="1370" cy="964" r="4.5835" /><circle cx="150" cy="968" r="5.14" /><circle cx="1799" cy="974" r="7.6113" /><circle cx="2349" cy="969" r="3.5234" /><circle cx="546" cy="972" r="3.5234" /><circle cx="1031" cy="974" r="5.382" /><circle cx="1553" cy="973" r="3.7847" /><circle cx="1745" cy="973" r="4.4424" /><circle cx="1076" cy="974" r="3.5682" /><circle cx="2911" cy="973" r="3.6996" /><circle cx="1937" cy="977" r="3.7847" /><circle cx="2371" cy="979" r="3.0902" /><circle cx="2650" cy="982" r="4.9185" /><circle cx="1666" cy="983" r="4.4781" /><circle cx="2456" cy="985" r="4.7203" /><circle cx="514" cy="990" r="3.6126" /><circle cx="65" cy="992" r="5.698" /><circle cx="2864" cy="993" r="5.9173" /><circle cx="781" cy="994" r="5.8903" /><circle cx="1012" cy="995" r="5.8903" /><circle cx="2617" cy="994" r="4.3336" /><circle cx="2577" cy="995" r="3.7847" /><circle cx="172" cy="999" r="4.9507" /><circle cx="2104" cy="1001" r="4.9507" /><circle cx="2740" cy="999" r="3.2898" /><circle cx="326" cy="1001" r="5.0146" /><circle cx="36" cy="1001" r="3.6126" /><circle cx="2218" cy="1005" r="3.7847" /><circle cx="301" cy="1007" r="4.5486" /><circle cx="1478" cy="1007" r="4.5486" /><circle cx="885" cy="1010" r="4.6865" /><circle cx="255" cy="1016" r="8.9562" /><circle cx="2164" cy="1013" r="4.222" /><circle cx="2271" cy="1016" r="5.67" /><circle cx="1655" cy="1017" r="4.5486" /><circle cx="2512" cy="1016" r="4.0291" /><circle cx="2754" cy="1018" r="4.886" /><circle cx="2657" cy="1016" r="2.764" /><circle cx="461" cy="1020" r="5.9173" /><circle cx="774" cy="1018" r="3.4318" /><circle cx="914" cy="1020" r="5.8903" /><circle cx="1883" cy="1020" r="4.2967" /><circle cx="742" cy="1023" r="4.6181" /><circle cx="2110" cy="1023" r="4.8533" /><circle cx="347" cy="1030" r="7.3993" /><circle cx="1010" cy="1027" r="2.7058" /><circle cx="2494" cy="1031" r="4.1841" /><circle cx="2778" cy="1031" r="3.5234" /><circle cx="1717" cy="1037" r="8.0385" /><circle cx="1229" cy="1038" r="4.4065" /><circle cx="2720" cy="1036" r="3.241" /><circle cx="269" cy="1040" r="6.7467" /><circle cx="982" cy="1040" r="5.5566" /><circle cx="1756" cy="1043" r="5.109" /><circle cx="2342" cy="1042" r="4.1459" /><circle cx="2240" cy="1045" r="3.6996" /><circle cx="715" cy="1050" r="5.698" /><circle cx="1734" cy="1050" r="5.14" /><circle cx="2886" cy="1048" r="2.8768" /><circle cx="1860" cy="1051" r="3.9493" /><circle cx="365" cy="1053" r="5.382" /><circle cx="498" cy="1053" r="4.8204" /><circle cx="1608" cy="1053" r="5.1709" /><circle cx="864" cy="1055" r="5.9708" /><circle cx="1958" cy="1054" r="4.4065" /><circle cx="1912" cy="1055" r="4.0684" /><circle cx="2531" cy="1056" r="4.886" /><circle cx="2147" cy="1060" r="7.181" /><circle cx="1641" cy="1060" r="3.8265" /><circle cx="2633" cy="1063" r="6.2061" /><circle cx="2016" cy="1062" r="3.7424" /><circle cx="2062" cy="1062" r="4.5135" /><circle cx="194" cy="1070" r="9.7883" /><circle cx="2728" cy="1071" r="5.1709" /><circle cx="1708" cy="1072" r="4.8204" /><circle cx="338" cy="1077" r="7.8176" /><circle cx="748" cy="1077" r="5.9974" /><circle cx="267" cy="1086" r="10.2955" /><circle cx="1892" cy="1077" r="4.8533" /><circle cx="843" cy="1078" r="4.5835" /><circle cx="2282" cy="1083" r="4.0684" /><circle cx="2113" cy="1085" r="4.7539" /><circle cx="2435" cy="1095" r="10.3878" /><circle cx="540" cy="1088" r="3.7424" /><circle cx="1747" cy="1089" r="2.5854" /><circle cx="2465" cy="1090" r="4.4065" /><circle cx="2382" cy="1092" r="4.2595" /><circle cx="740" cy="1096" r="4.0684" /><circle cx="2653" cy="1099" r="4.2595" /><circle cx="285" cy="1103" r="6.7703" /><circle cx="2284" cy="1101" r="3.0902" /><circle cx="2715" cy="1103" r="4.1841" /><circle cx="129" cy="1106" r="3.4318" /><circle cx="213" cy="1108" r="5.9708" /><circle cx="1380" cy="1107" r="3.2898" /><circle cx="795" cy="1107" r="4.2967" /><circle cx="1824" cy="1108" r="4.0291" /><circle cx="737" cy="1110" r="3.6126" /><circle cx="160" cy="1111" r="2.8209" /><circle cx="2725" cy="1116" r="7.5904" /><circle cx="63" cy="1116" r="3.3851" /><circle cx="861" cy="1117" r="4.2967" /><circle cx="2567" cy="1117" r="2.7058" /><circle cx="2026" cy="1128" r="3.9493" /><circle cx="1997" cy="1128" r="3.241" /><circle cx="2230" cy="1130" r="5.67" /><circle cx="236" cy="1131" r="5.9441" /><circle cx="2368" cy="1129" r="4.1074" /><circle cx="272" cy="1134" r="5.2926" /><circle cx="1669" cy="1131" r="2.3262" /><circle cx="1605" cy="1135" r="5.8903" /><circle cx="605" cy="1136" r="4.7873" /><circle cx="446" cy="1138" r="3.6996" /><circle cx="2508" cy="1146" r="6.6994" /><circle cx="1619" cy="1144" r="2.111" /><circle cx="291" cy="1147" r="4.2595" /><circle cx="1772" cy="1147" r="2.3937" /><circle cx="2175" cy="1147" r="2.5231" /><circle cx="329" cy="1156" r="8.2919" /><circle cx="1976" cy="1153" r="3.9088" /><circle cx="830" cy="1153" r="3.2898" /><circle cx="1789" cy="1154" r="3.3378" /><circle cx="2728" cy="1155" r="4.1074" /><circle cx="2199" cy="1158" r="3.1915" /><circle cx="2418" cy="1162" r="6.7703" /><circle cx="70" cy="1161" r="4.0291" /><circle cx="446" cy="1163" r="4.5835" /><circle cx="1777" cy="1165" r="3.6996" /><circle cx="2285" cy="1170" r="4.1074" /><circle cx="2671" cy="1169" r="3.9894" /><circle cx="2807" cy="1168" r="3.0383" /><circle cx="1843" cy="1171" r="4.1074" /><circle cx="1882" cy="1174" r="4.5835" /><circle cx="2345" cy="1176" r="5.2926" /><circle cx="363" cy="1177" r="6.1026" /><circle cx="1522" cy="1182" r="7.6738" /><circle cx="149" cy="1180" r="4.6865" /><circle cx="2915" cy="1180" r="3.6564" /><circle cx="1597" cy="1185" r="6.7703" /><circle cx="297" cy="1188" r="4.6865" /><circle cx="1727" cy="1193" r="7.7563" /><circle cx="2876" cy="1196" r="8.2726" /><circle cx="2585" cy="1194" r="5.7536" /><circle cx="127" cy="1196" r="6.1287" /><circle cx="282" cy="1192" r="2.5854" /><circle cx="94" cy="1197" r="4.4781" /><circle cx="527" cy="1195" r="3.2898" /><circle cx="658" cy="1198" r="6.0765" /><circle cx="1844" cy="1200" r="3.7847" /><circle cx="2127" cy="1202" r="5.6419" /><circle cx="2556" cy="1201" r="3.3378" /><circle cx="1745" cy="1205" r="5.382" /><circle cx="545" cy="1206" r="5.8087" /><circle cx="2060" cy="1204" r="3.6996" /><circle cx="668" cy="1207" r="3.8679" /><circle cx="379" cy="1211" r="7.3561" /><circle cx="2629" cy="1210" r="4.9828" /><circle cx="347" cy="1217" r="6.5795" /><circle cx="1802" cy="1219" r="5.9708" /><circle cx="2365" cy="1219" r="5.9974" /><circle cx="2612" cy="1224" r="8.2919" /><circle cx="692" cy="1219" r="3.1915" /><circle cx="2320" cy="1221" r="4.1074" /><circle cx="2137" cy="1224" r="5.0463" /><circle cx="1319" cy="1225" r="3.7847" /><circle cx="2066" cy="1223" r="2.5231" /><circle cx="2241" cy="1225" r="4.8533" /><circle cx="2567" cy="1231" r="9.8046" /><circle cx="2826" cy="1226" r="4.1074" /><circle cx="830" cy="1229" r="5.14" /><circle cx="1494" cy="1228" r="4.7203" /><circle cx="1554" cy="1229" r="6.3581" /><circle cx="496" cy="1232" r="5.8087" /><circle cx="2670" cy="1234" r="3.7424" /><circle cx="53" cy="1236" r="3.8265" /><circle cx="1175" cy="1241" r="3.8265" /><circle cx="208" cy="1247" r="8.2726" /><circle cx="97" cy="1247" r="5.2321" /><circle cx="242" cy="1248" r="5.2926" /><circle cx="1881" cy="1248" r="4.886" /><circle cx="1993" cy="1253" r="8.9562" /><circle cx="451" cy="1253" r="7.6113" /><circle cx="1312" cy="1249" r="3.6996" /><circle cx="1509" cy="1254" r="5.7259" /><circle cx="2167" cy="1262" r="7.0693" /><circle cx="907" cy="1258" r="4.7203" /><circle cx="1920" cy="1256" r="2.3262" /><circle cx="2916" cy="1260" r="4.9507" /><circle cx="2474" cy="1264" r="5.499" /><circle cx="301" cy="1269" r="7.5904" /><circle cx="2209" cy="1269" r="5.8087" /><circle cx="2614" cy="1267" r="3.9493" /><circle cx="2702" cy="1269" r="5.2926" /><circle cx="2342" cy="1270" r="4.3336" /><circle cx="213" cy="1275" r="7.4208" /><circle cx="2190" cy="1272" r="5.4115" /><circle cx="521" cy="1283" r="11.41" /><circle cx="2053" cy="1278" r="5.7259" /><circle cx="2468" cy="1276" r="3.6126" /><circle cx="1927" cy="1278" r="4.4781" /><circle cx="2376" cy="1278" r="4.222" /><circle cx="1651" cy="1280" r="3.9088" /><circle cx="1840" cy="1281" r="3.3378" /><circle cx="657" cy="1283" r="4.1074" /><circle cx="2716" cy="1287" r="4.4424" /><circle cx="607" cy="1289" r="6.9558" /><circle cx="2649" cy="1287" r="4.5835" /><circle cx="58" cy="1290" r="5.836" /><circle cx="90" cy="1291" r="7.3345" /><circle cx="2801" cy="1289" r="4.6181" /><circle cx="1966" cy="1291" r="4.9507" /><circle cx="1732" cy="1294" r="6.3831" /><circle cx="2840" cy="1291" r="3.0902" /><circle cx="448" cy="1305" r="16.2835" /><circle cx="503" cy="1302" r="12.9641" /><circle cx="1321" cy="1293" r="5.5279" /><circle cx="336" cy="1298" r="7.0241" /><circle cx="884" cy="1293" r="3.6996" /><circle cx="620" cy="1297" r="4.4424" /><circle cx="2231" cy="1296" r="3.3851" /><circle cx="2180" cy="1299" r="3.9493" /><circle cx="1880" cy="1302" r="4.1074" /><circle cx="2745" cy="1303" r="4.8204" /><circle cx="383" cy="1305" r="3.9894" /><circle cx="114" cy="1308" r="7.0918" /><circle cx="295" cy="1308" r="5.7812" /><circle cx="670" cy="1307" r="4.8533" /><circle cx="2297" cy="1305" r="3.9493" /><circle cx="190" cy="1308" r="5.9441" /><circle cx="2789" cy="1309" r="7.1142" /><circle cx="2390" cy="1312" r="4.7873" /><circle cx="2455" cy="1315" r="4.3336" /><circle cx="1297" cy="1318" r="5.109" /><circle cx="2213" cy="1320" r="6.9786" /><circle cx="1856" cy="1322" r="3.1915" /><circle cx="409" cy="1324" r="4.6524" /><circle cx="929" cy="1326" r="5.5566" /><circle cx="2335" cy="1327" r="4.886" /><circle cx="1613" cy="1326" r="3.0902" /><circle cx="1938" cy="1331" r="9.6409" /><circle cx="532" cy="1326" r="2.8209" /><circle cx="2052" cy="1327" r="4.2967" /><circle cx="317" cy="1338" r="10.4794" /><circle cx="2270" cy="1332" r="5.67" /><circle cx="2909" cy="1328" r="2.3262" /><circle cx="1912" cy="1339" r="7.8583" /><circle cx="578" cy="1337" r="3.8679" /><circle cx="2487" cy="1341" r="6.7937" /><circle cx="2170" cy="1344" r="6.8868" /><circle cx="349" cy="1348" r="6.6037" /><circle cx="2433" cy="1348" r="6.2061" /><circle cx="33" cy="1346" r="2.0342" /><circle cx="96" cy="1346" r="2.0342" /><circle cx="1519" cy="1352" r="7.4422" /><circle cx="175" cy="1350" r="3.6564" /><circle cx="372" cy="1351" r="2.764" /><circle cx="878" cy="1352" r="3.4318" /><circle cx="1464" cy="1353" r="4.3702" /><circle cx="2241" cy="1355" r="5.7536" /><circle cx="1632" cy="1353" r="3.9894" /><circle cx="2115" cy="1355" r="5.1709" /><circle cx="2868" cy="1353" r="3.3851" /><circle cx="1596" cy="1355" r="4.1841" /><circle cx="1848" cy="1354" r="3.5234" /><circle cx="918" cy="1358" r="4.7539" /><circle cx="2460" cy="1358" r="4.2595" /><circle cx="2598" cy="1360" r="5.2016" /><circle cx="2789" cy="1363" r="6.7937" /><circle cx="1362" cy="1364" r="5.836" /><circle cx="1958" cy="1363" r="2.3262" /><circle cx="2568" cy="1365" r="6.4328" /><circle cx="2747" cy="1367" r="5.2926" /><circle cx="552" cy="1367" r="4.4065" /><circle cx="636" cy="1368" r="4.1459" /><circle cx="2046" cy="1367" r="2.9854" /><circle cx="2704" cy="1367" r="2.1851" /><circle cx="434" cy="1373" r="5.382" /><circle cx="2613" cy="1372" r="4.0684" /><circle cx="2977" cy="1371" r="2.2568" /><circle cx="1496" cy="1372" r="2.3262" /><circle cx="1851" cy="1377" r="3.4779" /><circle cx="2671" cy="1379" r="5.836" /><circle cx="1601" cy="1379" r="2.5231" /><circle cx="2554" cy="1383" r="6.9099" /><circle cx="218" cy="1385" r="8.5004" /><circle cx="413" cy="1385" r="5.9708" /><circle cx="2824" cy="1381" r="3.5682" /><circle cx="2411" cy="1381" r="2.9316" /><circle cx="2635" cy="1384" r="5.47" /><circle cx="1936" cy="1391" r="9.7394" /><circle cx="918" cy="1389" r="4.9828" /><circle cx="1509" cy="1391" r="4.6524" /><circle cx="2459" cy="1393" r="3.8265" /><circle cx="2388" cy="1393" r="2.7058" /><circle cx="2582" cy="1398" r="7.2471" /><circle cx="692" cy="1395" r="3.5682" /><circle cx="129" cy="1398" r="4.6181" /><circle cx="1211" cy="1396" r="4.2595" /><circle cx="2172" cy="1395" r="3.0383" /><circle cx="2426" cy="1400" r="6.5795" /><circle cx="1032" cy="1399" r="4.5135" /><circle cx="2744" cy="1402" r="5.2321" /><circle cx="1454" cy="1409" r="9.2706" /><circle cx="1169" cy="1406" r="4.2595" /><circle cx="232" cy="1412" r="7.6738" /><circle cx="1006" cy="1413" r="5.2926" /><circle cx="1093" cy="1414" r="5.2624" /><circle cx="2829" cy="1416" r="6.2825" /><circle cx="364" cy="1416" r="3.9493" /><circle cx="2179" cy="1416" r="2.3937" /><circle cx="2975" cy="1423" r="8.6304" /><circle cx="198" cy="1422" r="5.1709" /><circle cx="313" cy="1426" r="4.4781" /><circle cx="2658" cy="1426" r="4.2595" /><circle cx="2029" cy="1431" r="8.1564" /><circle cx="1513" cy="1429" r="4.886" /><circle cx="2688" cy="1427" r="3.6126" /><circle cx="719" cy="1431" r="4.9185" /><circle cx="2742" cy="1431" r="2.764" /><circle cx="342" cy="1436" r="5.109" /><circle cx="1027" cy="1438" r="5.7536" /><circle cx="1683" cy="1437" r="4.9828" /><circle cx="1048" cy="1438" r="4.0684" /><circle cx="1316" cy="1439" r="4.7539" /><circle cx="2460" cy="1439" r="3.4318" /><circle cx="527" cy="1443" r="4.1459" /><circle cx="603" cy="1443" r="4.9185" /><circle cx="2835" cy="1443" r="4.4781" /><circle cx="923" cy="1443" r="3.9088" /><circle cx="1732" cy="1445" r="6.2317" /><circle cx="1784" cy="1446" r="7.2909" /><circle cx="471" cy="1447" r="6.2317" /><circle cx="1068" cy="1445" r="4.222" /><circle cx="1114" cy="1445" r="3.3378" /><circle cx="1137" cy="1448" r="4.3702" /><circle cx="2515" cy="1450" r="3.4779" /><circle cx="2568" cy="1451" r="4.222" /><circle cx="1152" cy="1452" r="2.7058" /><circle cx="1429" cy="1454" r="5.1709" /><circle cx="1584" cy="1452" r="2.3262" /><circle cx="1398" cy="1460" r="4.6181" /><circle cx="2896" cy="1463" r="5.382" /><circle cx="2765" cy="1462" r="3.8679" /><circle cx="1868" cy="1464" r="4.1074" /><circle cx="2594" cy="1468" r="7.3993" /><circle cx="146" cy="1467" r="4.4424" /><circle cx="956" cy="1467" r="5.2016" /><circle cx="1522" cy="1471" r="8.0976" /><circle cx="2984" cy="1468" r="4.6181" /><circle cx="2073" cy="1468" r="3.9493" /><circle cx="638" cy="1471" r="5.4115" /><circle cx="1243" cy="1474" r="8.5564" /><circle cx="1490" cy="1468" r="3.3851" /><circle cx="2628" cy="1469" r="4.0684" /><circle cx="100" cy="1470" r="3.9493" /><circle cx="563" cy="1473" r="7.0918" /><circle cx="803" cy="1470" r="2.9316" /><circle cx="2008" cy="1473" r="5.7259" /><circle cx="915" cy="1474" r="3.9894" /><circle cx="2563" cy="1478" r="8.3492" /><circle cx="1826" cy="1475" r="4.3336" /><circle cx="1798" cy="1479" r="7.5904" /><circle cx="2514" cy="1476" r="2.7058" /><circle cx="2678" cy="1480" r="7.0241" /><circle cx="422" cy="1480" r="5.67" /><circle cx="2854" cy="1481" r="4.4424" /><circle cx="952" cy="1481" r="4.7873" /><circle cx="2030" cy="1482" r="4.4781" /><circle cx="650" cy="1485" r="3.5234" /><circle cx="1390" cy="1483" r="2.111" /><circle cx="1137" cy="1489" r="7.5694" /><circle cx="1437" cy="1488" r="5.14" /><circle cx="915" cy="1486" r="3.3851" /><circle cx="2611" cy="1490" r="5.4408" /><circle cx="1732" cy="1496" r="7.6322" /><circle cx="1945" cy="1493" r="4.6524" /><circle cx="2471" cy="1494" r="4.2595" /><circle cx="2500" cy="1497" r="2.8768" /><circle cx="202" cy="1500" r="3.4779" /><circle cx="1516" cy="1501" r="4.4781" /><circle cx="408" cy="1501" r="3.4779" /><circle cx="906" cy="1501" r="3.6126" /><circle cx="1645" cy="1505" r="4.7873" /><circle cx="551" cy="1507" r="3.4318" /><circle cx="2607" cy="1510" r="3.4779" /><circle cx="2866" cy="1511" r="3.6126" /><circle cx="1128" cy="1515" r="5.6419" /><circle cx="1902" cy="1515" r="4.9185" /><circle cx="1048" cy="1517" r="4.5486" /><circle cx="1483" cy="1520" r="6.1026" /><circle cx="408" cy="1524" r="3.9088" /><circle cx="2548" cy="1526" r="6.9558" /><circle cx="744" cy="1522" r="2.2568" /><circle cx="1798" cy="1525" r="4.3336" /><circle cx="1926" cy="1531" r="9.9175" /><circle cx="1074" cy="1531" r="6.4328" /><circle cx="2709" cy="1529" r="4.1459" /><circle cx="876" cy="1531" r="4.2595" /><circle cx="1584" cy="1531" r="3.7847" /><circle cx="2100" cy="1535" r="5.0463" /><circle cx="73" cy="1538" r="4.6865" /><circle cx="1536" cy="1539" r="4.9507" /><circle cx="252" cy="1539" r="3.9493" /><circle cx="136" cy="1541" r="5.3524" /><circle cx="1667" cy="1543" r="5.7812" /><circle cx="33" cy="1543" r="3.8265" /><circle cx="559" cy="1545" r="3.4318" /><circle cx="1590" cy="1547" r="7.0693" /><circle cx="1720" cy="1550" r="7.3777" /><circle cx="1766" cy="1548" r="5.67" /><circle cx="2320" cy="1546" r="3.3851" /><circle cx="2385" cy="1549" r="4.4424" /><circle cx="1806" cy="1553" r="6.408" /><circle cx="2613" cy="1552" r="4.222" /><circle cx="824" cy="1552" r="3.4779" /><circle cx="1643" cy="1553" r="5.0777" /><circle cx="2430" cy="1553" r="3.8679" /><circle cx="2554" cy="1553" r="3.6564" /><circle cx="48" cy="1557" r="3.3378" /><circle cx="324" cy="1560" r="4.9507" /><circle cx="2803" cy="1562" r="7.0014" /><circle cx="200" cy="1563" r="4.4424" /><circle cx="948" cy="1562" r="3.7424" /><circle cx="2238" cy="1564" r="5.14" /><circle cx="160" cy="1565" r="3.9493" /><circle cx="471" cy="1566" r="5.2016" /><circle cx="799" cy="1567" r="4.3336" /><circle cx="1305" cy="1565" r="3.3851" /><circle cx="1859" cy="1566" r="3.9493" /><circle cx="1127" cy="1568" r="6.8868" /><circle cx="2326" cy="1567" r="3.2898" /><circle cx="2055" cy="1569" r="4.4065" /><circle cx="422" cy="1574" r="8.4062" /><circle cx="2217" cy="1568" r="3.3378" /><circle cx="2281" cy="1570" r="4.4065" /><circle cx="1886" cy="1574" r="6.1026" /><circle cx="1680" cy="1573" r="4.3336" /><circle cx="1968" cy="1583" r="11.6037" /><circle cx="1919" cy="1579" r="4.7203" /><circle cx="2348" cy="1582" r="5.3524" /><circle cx="2185" cy="1584" r="5.109" /><circle cx="1110" cy="1587" r="4.2967" /><circle cx="476" cy="1589" r="4.7873" /><circle cx="2103" cy="1589" r="4.3336" /><circle cx="1669" cy="1591" r="5.5852" /><circle cx="333" cy="1589" r="2.1851" /><circle cx="1698" cy="1596" r="4.9828" /><circle cx="2562" cy="1595" r="4.6524" /><circle cx="1174" cy="1599" r="6.1026" /><circle cx="1639" cy="1598" r="4.6524" /><circle cx="2076" cy="1598" r="4.2967" /><circle cx="136" cy="1599" r="4.1459" /><circle cx="410" cy="1603" r="8.1369" /><circle cx="2869" cy="1600" r="3.1915" /><circle cx="225" cy="1605" r="5.382" /><circle cx="1667" cy="1610" r="6.2825" /><circle cx="380" cy="1608" r="2.111" /><circle cx="670" cy="1611" r="4.8204" /><circle cx="170" cy="1614" r="4.1074" /><circle cx="1694" cy="1617" r="4.9185" /><circle cx="2679" cy="1619" r="7.7973" /><circle cx="1802" cy="1614" r="2.5854" /><circle cx="2731" cy="1617" r="2.5854" /><circle cx="438" cy="1621" r="6.5066" /><circle cx="1187" cy="1622" r="5.14" /><circle cx="998" cy="1623" r="5.0463" /><circle cx="2149" cy="1623" r="5.0146" /><circle cx="486" cy="1623" r="2.5231" /><circle cx="1857" cy="1624" r="2.111" /><circle cx="1163" cy="1627" r="3.2898" /><circle cx="2771" cy="1629" r="5.47" /><circle cx="420" cy="1628" r="3.9493" /><circle cx="1066" cy="1632" r="6.4574" /><circle cx="659" cy="1631" r="4.1459" /><circle cx="2994" cy="1637" r="7.7358" /><circle cx="255" cy="1639" r="5.4408" /><circle cx="1028" cy="1641" r="4.6865" /><circle cx="2056" cy="1640" r="3.8265" /><circle cx="934" cy="1644" r="4.0684" /><circle cx="2627" cy="1643" r="3.4779" /><circle cx="2942" cy="1644" r="3.7424" /><circle cx="1432" cy="1644" r="2.111" /><circle cx="1834" cy="1649" r="6.0765" /><circle cx="2344" cy="1653" r="8.7767" /><circle cx="2287" cy="1654" r="4.5135" /><circle cx="1509" cy="1656" r="3.4318" /><circle cx="387" cy="1658" r="4.886" /><circle cx="1524" cy="1663" r="4.1459" /><circle cx="835" cy="1664" r="4.5835" /><circle cx="598" cy="1666" r="5.7536" /><circle cx="2634" cy="1667" r="9.5246" /><circle cx="799" cy="1666" r="3.3851" /><circle cx="641" cy="1670" r="4.5486" /><circle cx="757" cy="1667" r="2.111" /><circle cx="415" cy="1673" r="5.7812" /><circle cx="2692" cy="1671" r="3.4318" /><circle cx="2836" cy="1673" r="2.9316" /><circle cx="1717" cy="1676" r="4.1074" /><circle cx="1445" cy="1677" r="3.6126" /><circle cx="2672" cy="1689" r="15.9277" /><circle cx="359" cy="1678" r="4.7873" /><circle cx="1069" cy="1677" r="4.3702" /><circle cx="255" cy="1682" r="6.7467" /><circle cx="517" cy="1680" r="2.8209" /><circle cx="1102" cy="1681" r="4.5835" /><circle cx="1640" cy="1686" r="4.3336" /><circle cx="2445" cy="1686" r="3.0902" /><circle cx="2315" cy="1688" r="3.6996" /><circle cx="2716" cy="1686" r="3.0902" /><circle cx="1897" cy="1692" r="6.1804" /><circle cx="1386" cy="1693" r="4.8204" /><circle cx="43" cy="1692" r="2.4592" /><circle cx="1700" cy="1697" r="6.8637" /><circle cx="467" cy="1694" r="3.1413" /><circle cx="688" cy="1696" r="3.7847" /><circle cx="140" cy="1700" r="6.7937" /><circle cx="28" cy="1705" r="7.5272" /><circle cx="1653" cy="1698" r="3.0902" /><circle cx="2325" cy="1700" r="3.3851" /><circle cx="1605" cy="1702" r="4.4424" /><circle cx="954" cy="1703" r="4.6181" /><circle cx="648" cy="1706" r="4.3702" /><circle cx="1576" cy="1709" r="5.2321" /><circle cx="1392" cy="1710" r="6.0239" /><circle cx="2179" cy="1712" r="3.9088" /><circle cx="1786" cy="1716" r="7.1365" /><circle cx="2833" cy="1713" r="2.111" /><circle cx="203" cy="1716" r="4.5135" /><circle cx="579" cy="1717" r="4.5486" /><circle cx="1731" cy="1718" r="4.6865" /><circle cx="509" cy="1719" r="3.1413" /><circle cx="970" cy="1722" r="4.6181" /><circle cx="2986" cy="1720" r="3.7847" /><circle cx="2142" cy="1729" r="7.653" /><circle cx="136" cy="1728" r="5.7536" /><circle cx="2397" cy="1730" r="6.7703" /><circle cx="216" cy="1739" r="13.8543" /><circle cx="1931" cy="1729" r="2.3937" /><circle cx="1467" cy="1737" r="7.0014" /><circle cx="1774" cy="1734" r="2.3262" /><circle cx="466" cy="1740" r="7.0918" /><circle cx="572" cy="1738" r="3.9894" /><circle cx="1177" cy="1742" r="5.8903" /><circle cx="2550" cy="1739" r="3.5682" /><circle cx="1378" cy="1742" r="4.7203" /><circle cx="2472" cy="1742" r="4.8204" /><circle cx="2599" cy="1746" r="3.7847" /><circle cx="613" cy="1753" r="8.0976" /><circle cx="2369" cy="1748" r="2.2568" /><circle cx="2532" cy="1749" r="3.241" /><circle cx="1417" cy="1752" r="4.7539" /><circle cx="549" cy="1753" r="4.1459" /><circle cx="379" cy="1755" r="4.6524" /><circle cx="1760" cy="1755" r="4.8533" /><circle cx="1111" cy="1758" r="7.1365" /><circle cx="2414" cy="1756" r="4.8533" /><circle cx="1793" cy="1759" r="4.4781" /><circle cx="245" cy="1759" r="3.4318" /><circle cx="2678" cy="1760" r="4.6524" /><circle cx="424" cy="1764" r="6.4328" /><circle cx="2965" cy="1765" r="6.8637" /><circle cx="528" cy="1768" r="4.5486" /><circle cx="90" cy="1771" r="6.6517" /><circle cx="2341" cy="1768" r="3.241" /><circle cx="1068" cy="1774" r="7.2252" /><circle cx="710" cy="1771" r="2.111" /><circle cx="956" cy="1772" r="3.5234" /><circle cx="2753" cy="1774" r="4.1459" /><circle cx="1180" cy="1772" r="2.3937" /><circle cx="1338" cy="1779" r="5.0777" /><circle cx="882" cy="1781" r="5.4408" /><circle cx="1456" cy="1781" r="5.499" /><circle cx="2396" cy="1779" r="3.1915" /><circle cx="1697" cy="1784" r="4.2967" /><circle cx="2555" cy="1785" r="3.1915" /><circle cx="1873" cy="1785" r="2.4592" /><circle cx="1136" cy="1789" r="4.8204" /><circle cx="545" cy="1793" r="8.5004" /><circle cx="2327" cy="1792" r="4.4781" /><circle cx="2674" cy="1792" r="4.8533" /><circle cx="643" cy="1795" r="4.6865" /><circle cx="1691" cy="1795" r="3.9493" /><circle cx="2658" cy="1795" r="3.8679" /><circle cx="2701" cy="1796" r="3.6996" /><circle cx="261" cy="1801" r="7.7152" /><circle cx="482" cy="1798" r="4.2967" /><circle cx="2600" cy="1800" r="4.5135" /><circle cx="1751" cy="1799" r="2.7058" /><circle cx="1797" cy="1802" r="5.109" /><circle cx="2496" cy="1800" r="3.6564" /><circle cx="784" cy="1801" r="2.8209" /><circle cx="1665" cy="1802" r="2.7058" /><circle cx="171" cy="1807" r="3.8265" /><circle cx="1124" cy="1807" r="3.6564" /><circle cx="2913" cy="1812" r="5.4115" /><circle cx="1834" cy="1813" r="5.4408" /><circle cx="2385" cy="1812" r="3.9088" /><circle cx="572" cy="1815" r="4.886" /><circle cx="2432" cy="1815" r="3.9493" /><circle cx="2718" cy="1818" r="6.0503" /><circle cx="1202" cy="1818" r="4.4065" /><circle cx="820" cy="1822" r="7.0014" /><circle cx="270" cy="1825" r="7.8176" /><circle cx="655" cy="1822" r="5.2624" /><circle cx="1781" cy="1831" r="8.5749" /><circle cx="427" cy="1831" r="7.5272" /><circle cx="2673" cy="1828" r="2.9316" /><circle cx="2449" cy="1832" r="3.8679" /><circle cx="1878" cy="1835" r="5.0146" /><circle cx="1523" cy="1837" r="4.4781" /><circle cx="2512" cy="1838" r="4.2967" /><circle cx="2790" cy="1840" r="4.3702" /><circle cx="662" cy="1844" r="6.9099" /><circle cx="550" cy="1844" r="5.9708" /><circle cx="2770" cy="1845" r="5.8903" /><circle cx="2962" cy="1843" r="4.886" /><circle cx="2816" cy="1847" r="8.2147" /><circle cx="1990" cy="1846" r="3.1915" /><circle cx="618" cy="1848" r="4.3336" /><circle cx="1860" cy="1849" r="4.0291" /><circle cx="1703" cy="1850" r="3.7424" /><circle cx="318" cy="1852" r="3.5234" /><circle cx="1452" cy="1855" r="4.2595" /><circle cx="545" cy="1858" r="3.9088" /><circle cx="391" cy="1858" r="3.4318" /><circle cx="2181" cy="1857" r="2.3262" /><circle cx="2655" cy="1861" r="3.8679" /><circle cx="247" cy="1869" r="8.5377" /><circle cx="2719" cy="1864" r="2.7058" /><circle cx="1505" cy="1866" r="4.5835" /><circle cx="2803" cy="1869" r="8.1173" /><circle cx="1748" cy="1874" r="5.8632" /><circle cx="2441" cy="1878" r="6.482" /><circle cx="448" cy="1879" r="4.222" /><circle cx="2578" cy="1879" r="4.4424" /><circle cx="116" cy="1889" r="10.9981" /><circle cx="1777" cy="1884" r="5.836" /><circle cx="2537" cy="1890" r="6.8637" /><circle cx="184" cy="1890" r="3.9894" /><circle cx="1446" cy="1894" r="5.0146" /><circle cx="1052" cy="1895" r="3.9493" /><circle cx="887" cy="1896" r="4.6181" /><circle cx="775" cy="1899" r="4.1074" /><circle cx="2564" cy="1903" r="6.0765" /><circle cx="968" cy="1902" r="4.0291" /><circle cx="1869" cy="1901" r="3.4318" /><circle cx="289" cy="1903" r="3.7424" /><circle cx="518" cy="1903" r="4.6865" /><circle cx="2703" cy="1908" r="6.1026" /><circle cx="477" cy="1903" r="2.4592" /><circle cx="239" cy="1906" r="3.4779" /><circle cx="2023" cy="1906" r="3.7424" /><circle cx="385" cy="1909" r="6.0239" /><circle cx="625" cy="1913" r="5.9441" /><circle cx="2619" cy="1912" r="3.7847" /><circle cx="1887" cy="1915" r="2.9854" /><circle cx="429" cy="1922" r="5.0146" /><circle cx="1651" cy="1923" r="5.0777" /><circle cx="2251" cy="1922" r="4.7203" /><circle cx="2458" cy="1923" r="4.7203" /><circle cx="1627" cy="1923" r="2.9854" /><circle cx="1381" cy="1930" r="8.612" /><circle cx="494" cy="1929" r="5.0463" /><circle cx="2170" cy="1931" r="5.2624" /><circle cx="2718" cy="1929" r="3.9088" /><circle cx="2823" cy="1934" r="3.5234" /><circle cx="458" cy="1937" r="4.7203" /><circle cx="3012" cy="1938" r="2.1851" /><circle cx="2264" cy="1946" r="5.0463" /><circle cx="1793" cy="1948" r="4.8204" /><circle cx="2289" cy="1952" r="4.222" /><circle cx="1518" cy="1952" r="4.0684" /><circle cx="2124" cy="1952" r="4.3336" /><circle cx="1282" cy="1960" r="6.8171" /><circle cx="122" cy="1962" r="6.9786" /><circle cx="908" cy="1958" r="3.3378" /><circle cx="1807" cy="1963" r="5.3226" /><circle cx="2657" cy="1963" r="4.7203" /><circle cx="456" cy="1967" r="3.7424" /><circle cx="2624" cy="1970" r="5.698" /><circle cx="2541" cy="1971" r="4.8533" /><circle cx="824" cy="1971" r="3.0383" /><circle cx="801" cy="1978" r="8.9206" /><circle cx="1550" cy="1975" r="6.408" /><circle cx="154" cy="1976" r="4.3336" /><circle cx="1383" cy="1976" r="5.0777" /><circle cx="1943" cy="1974" r="2.9854" /><circle cx="2237" cy="1975" r="3.8265" /><circle cx="1710" cy="1978" r="5.8632" /><circle cx="1401" cy="1982" r="9.5912" /><circle cx="1765" cy="1980" r="7.2252" /><circle cx="2480" cy="1977" r="3.5682" /><circle cx="1466" cy="1987" r="6.5066" /><circle cx="2978" cy="1986" r="3.9088" /><circle cx="228" cy="1987" r="3.5682" /><circle cx="632" cy="1988" r="4.1459" /><circle cx="1977" cy="1989" r="5.3226" /><circle cx="2918" cy="1988" r="4.2595" /><circle cx="2320" cy="1987" r="2.7058" /><circle cx="2456" cy="1990" r="3.5234" /><circle cx="1589" cy="1992" r="4.8533" /><circle cx="2268" cy="1992" r="2.764" /><circle cx="2711" cy="1992" r="4.4065" /><circle cx="756" cy="1998" r="5.698" /><circle cx="2605" cy="1996" r="4.3336" /><circle cx="474" cy="2003" r="5.14" /><circle cx="840" cy="2001" r="3.4779" /><circle cx="2246" cy="2005" r="4.5486" /><circle cx="2904" cy="2004" r="3.1915" /><circle cx="553" cy="2007" r="3.5234" /><circle cx="2350" cy="2009" r="5.8087" /><circle cx="935" cy="2010" r="3.0902" /><circle cx="2888" cy="2012" r="3.1915" /><circle cx="1216" cy="2016" r="5.0463" /><circle cx="1945" cy="2017" r="5.0777" /><circle cx="2941" cy="2018" r="4.9828" /><circle cx="822" cy="2018" r="3.6126" /><circle cx="2100" cy="2019" r="3.3851" /><circle cx="1860" cy="2022" r="6.7937" /><circle cx="2666" cy="2022" r="3.1413" /><circle cx="1358" cy="2024" r="4.6865" /><circle cx="2472" cy="2025" r="3.8265" /><circle cx="318" cy="2029" r="4.9507" /><circle cx="2148" cy="2028" r="4.2967" /><circle cx="2778" cy="2029" r="3.4318" /><circle cx="2905" cy="2033" r="7.2691" /><circle cx="1424" cy="2035" r="7.1365" /><circle cx="1786" cy="2043" r="5.5279" /><circle cx="2313" cy="2042" r="4.6524" /><circle cx="2632" cy="2040" r="2.3937" /><circle cx="334" cy="2043" r="4.4781" /><circle cx="2621" cy="2043" r="4.3336" /><circle cx="2388" cy="2046" r="4.0291" /><circle cx="1608" cy="2046" r="4.0684" /><circle cx="873" cy="2047" r="3.9088" /><circle cx="578" cy="2051" r="4.5135" /><circle cx="711" cy="2054" r="3.9894" /><circle cx="245" cy="2055" r="4.2595" /><circle cx="2513" cy="2055" r="3.9493" /><circle cx="2828" cy="2057" r="3.2898" /><circle cx="1884" cy="2058" r="3.6564" /><circle cx="2718" cy="2061" r="3.8679" /><circle cx="1457" cy="2063" r="3.5234" /><circle cx="1945" cy="2063" r="3.3378" /><circle cx="563" cy="2073" r="8.1564" /><circle cx="1711" cy="2071" r="4.7539" /><circle cx="2271" cy="2071" r="5.382" /><circle cx="2778" cy="2068" r="2.7058" /><circle cx="2496" cy="2072" r="4.222" /><circle cx="2665" cy="2073" r="4.3702" /><circle cx="2548" cy="2073" r="3.8265" /><circle cx="293" cy="2079" r="2.5854" /><circle cx="2040" cy="2082" r="4.6865" /><circle cx="1454" cy="2088" r="7.7358" /><circle cx="2976" cy="2087" r="4.1841" /><circle cx="781" cy="2086" r="3.7847" /><circle cx="1816" cy="2091" r="6.1804" /><circle cx="1853" cy="2087" r="3.1915" /><circle cx="2921" cy="2088" r="3.3851" /><circle cx="2639" cy="2090" r="4.2595" /><circle cx="231" cy="2089" r="2.764" /><circle cx="1525" cy="2093" r="6.9786" /><circle cx="980" cy="2092" r="4.7539" /><circle cx="2133" cy="2093" r="4.6181" /><circle cx="1703" cy="2096" r="3.3851" /><circle cx="1940" cy="2101" r="6.2317" /><circle cx="1800" cy="2099" r="3.3378" /><circle cx="2382" cy="2101" r="4.6181" /><circle cx="958" cy="2102" r="4.4781" /><circle cx="2604" cy="2099" r="2.3937" /><circle cx="480" cy="2106" r="4.9828" /><circle cx="2848" cy="2111" r="5.382" /><circle cx="2561" cy="2112" r="4.6524" /><circle cx="1064" cy="2114" r="4.5486" /><circle cx="1342" cy="2117" r="5.8632" /><circle cx="2879" cy="2119" r="7.0467" /><circle cx="2438" cy="2119" r="4.9507" /><circle cx="889" cy="2121" r="5.109" /><circle cx="1674" cy="2119" r="2.9316" /><circle cx="250" cy="2123" r="4.9507" /><circle cx="2660" cy="2122" r="5.0777" /><circle cx="1913" cy="2130" r="4.6524" /><circle cx="2021" cy="2135" r="4.9507" /><circle cx="2726" cy="2135" r="5.3226" /><circle cx="2804" cy="2137" r="4.8533" /><circle cx="373" cy="2136" r="2.3262" /><circle cx="1361" cy="2139" r="5.109" /><circle cx="1412" cy="2137" r="3.7424" /><circle cx="1595" cy="2139" r="4.0291" /><circle cx="1198" cy="2144" r="8.7404" /><circle cx="2862" cy="2142" r="5.8087" /><circle cx="2415" cy="2142" r="4.222" /><circle cx="2675" cy="2143" r="3.8679" /><circle cx="1385" cy="2145" r="5.6419" /><circle cx="1784" cy="2143" r="3.0383" /><circle cx="700" cy="2145" r="4.4065" /><circle cx="1471" cy="2145" r="3.5682" /><circle cx="2690" cy="2146" r="4.0684" /><circle cx="1966" cy="2147" r="3.2898" /><circle cx="61" cy="2148" r="3.1915" /><circle cx="283" cy="2149" r="5.5566" /><circle cx="1225" cy="2149" r="3.3851" /><circle cx="2209" cy="2147" r="2.3262" /><circle cx="440" cy="2150" r="3.9493" /><circle cx="1868" cy="2154" r="5.0777" /><circle cx="2590" cy="2154" r="4.6181" /><circle cx="1171" cy="2155" r="4.4424" /><circle cx="2882" cy="2166" r="15.0967" /><circle cx="357" cy="2160" r="7.1142" /><circle cx="1927" cy="2157" r="3.4318" /><circle cx="2501" cy="2161" r="3.1915" /><circle cx="2638" cy="2164" r="4.0684" /><circle cx="1216" cy="2168" r="3.4318" /><circle cx="249" cy="2172" r="4.6181" /><circle cx="2692" cy="2170" r="2.2568" /><circle cx="1688" cy="2180" r="10.8963" /><circle cx="941" cy="2177" r="4.1459" /><circle cx="1549" cy="2180" r="3.2898" /><circle cx="2591" cy="2180" r="2.764" /><circle cx="335" cy="2183" r="4.2967" /><circle cx="540" cy="2184" r="3.0383" /><circle cx="92" cy="2191" r="7.6113" /><circle cx="1227" cy="2190" r="4.5135" /><circle cx="262" cy="2192" r="4.4424" /><circle cx="2507" cy="2191" r="4.2595" /><circle cx="2736" cy="2191" r="2.6463" /><circle cx="2588" cy="2194" r="4.2595" /><circle cx="1433" cy="2195" r="4.0291" /><circle cx="1617" cy="2195" r="5.47" /><circle cx="2301" cy="2196" r="3.3851" /><circle cx="2217" cy="2197" r="3.9894" /><circle cx="836" cy="2209" r="10.6899" /><circle cx="1455" cy="2206" r="4.6865" /><circle cx="1065" cy="2208" r="5.0146" /><circle cx="2474" cy="2207" r="2.7058" /><circle cx="776" cy="2207" r="3.0902" /><circle cx="2164" cy="2211" r="3.0383" /><circle cx="1248" cy="2213" r="3.4779" /><circle cx="226" cy="2213" r="2.5854" /><circle cx="1806" cy="2215" r="4.8204" /><circle cx="192" cy="2217" r="3.9894" /><circle cx="1126" cy="2219" r="2.3937" /><circle cx="2835" cy="2220" r="3.9493" /><circle cx="1382" cy="2223" r="7.8785" /><circle cx="2432" cy="2220" r="2.3937" /><circle cx="330" cy="2227" r="3.8265" /><circle cx="2903" cy="2230" r="6.3078" /><circle cx="1554" cy="2230" r="4.7203" /><circle cx="1907" cy="2238" r="6.2061" /><circle cx="2338" cy="2236" r="3.3378" /><circle cx="1789" cy="2238" r="5.14" /><circle cx="2491" cy="2236" r="2.5231" /><circle cx="2811" cy="2237" r="3.7424" /><circle cx="2779" cy="2245" r="9.7231" /><circle cx="1767" cy="2239" r="2.3262" /><circle cx="2024" cy="2246" r="3.8679" /><circle cx="1720" cy="2247" r="3.9894" /><circle cx="1952" cy="2249" r="6.2825" /><circle cx="1501" cy="2249" r="8.5377" /><circle cx="157" cy="2250" r="5.0146" /><circle cx="983" cy="2250" r="6.2825" /><circle cx="2909" cy="2250" r="3.9088" /><circle cx="530" cy="2250" r="3.2898" /><circle cx="947" cy="2256" r="4.1074" /><circle cx="2595" cy="2254" r="2.9854" /><circle cx="2220" cy="2264" r="7.0241" /><circle cx="2464" cy="2265" r="6.1546" /><circle cx="295" cy="2267" r="7.1588" /><circle cx="1917" cy="2265" r="3.6126" /><circle cx="2675" cy="2264" r="2.2568" /><circle cx="2960" cy="2269" r="7.5272" /><circle cx="1690" cy="2268" r="4.6524" /><circle cx="2872" cy="2267" r="3.2898" /><circle cx="971" cy="2270" r="5.2321" /><circle cx="1183" cy="2271" r="6.5066" /><circle cx="1131" cy="2272" r="6.4574" /><circle cx="562" cy="2275" r="3.7847" /><circle cx="2384" cy="2276" r="4.2967" /><circle cx="2500" cy="2282" r="3.7424" /><circle cx="1344" cy="2283" r="4.1074" /><circle cx="2637" cy="2283" r="2.9316" /><circle cx="1753" cy="2286" r="5.5279" /><circle cx="640" cy="2285" r="3.7847" /><circle cx="1013" cy="2291" r="6.2825" /><circle cx="2238" cy="2292" r="2.1851" /><circle cx="1882" cy="2295" r="4.6181" /><circle cx="2842" cy="2299" r="6.3831" /><circle cx="1714" cy="2305" r="4.1074" /><circle cx="1748" cy="2306" r="3.7424" /><circle cx="1321" cy="2310" r="4.5135" /><circle cx="882" cy="2310" r="3.1915" /><circle cx="1585" cy="2312" r="4.5486" /><circle cx="2371" cy="2312" r="3.3378" /><circle cx="1428" cy="2316" r="4.886" /><circle cx="993" cy="2320" r="5.4408" /><circle cx="1526" cy="2319" r="4.9185" /><circle cx="1056" cy="2322" r="4.6865" /><circle cx="146" cy="2322" r="4.7203" /><circle cx="1615" cy="2321" r="3.6564" /><circle cx="2448" cy="2324" r="3.6564" /><circle cx="2949" cy="2326" r="4.5135" /><circle cx="806" cy="2329" r="5.6419" /><circle cx="1702" cy="2330" r="4.6181" /><circle cx="2540" cy="2330" r="4.2595" /><circle cx="1894" cy="2330" r="2.9316" /><circle cx="2924" cy="2331" r="4.5135" /><circle cx="2630" cy="2333" r="5.6419" /><circle cx="1121" cy="2334" r="4.4781" /><circle cx="2100" cy="2341" r="4.8533" /><circle cx="2996" cy="2349" r="5.4115" /><circle cx="2185" cy="2349" r="4.6865" /><circle cx="1925" cy="2356" r="7.2909" /><circle cx="1006" cy="2356" r="5.0146" /><circle cx="2969" cy="2355" r="4.1459" /><circle cx="986" cy="2358" r="4.3702" /><circle cx="1420" cy="2360" r="5.698" /><circle cx="549" cy="2359" r="2.3262" /><circle cx="1220" cy="2363" r="2.8768" /><circle cx="1334" cy="2364" r="3.7847" /><circle cx="2671" cy="2363" r="2.3262" /><circle cx="959" cy="2367" r="4.9185" /><circle cx="2943" cy="2367" r="4.4424" /><circle cx="2296" cy="2370" r="4.3336" /><circle cx="921" cy="2372" r="4.7539" /><circle cx="1323" cy="2373" r="3.241" /><circle cx="1381" cy="2374" r="4.5835" /><circle cx="2024" cy="2373" r="3.4318" /><circle cx="2540" cy="2375" r="3.9088" /><circle cx="2860" cy="2376" r="2.8768" /><circle cx="1824" cy="2379" r="3.7424" /><circle cx="2088" cy="2380" r="3.0383" /><circle cx="1001" cy="2385" r="4.886" /><circle cx="2043" cy="2385" r="3.7847" /><circle cx="2350" cy="2385" r="3.6564" /><circle cx="718" cy="2388" r="5.0463" /><circle cx="2696" cy="2395" r="7.0014" /><circle cx="1787" cy="2391" r="2.7058" /><circle cx="1816" cy="2395" r="4.8204" /><circle cx="1992" cy="2391" r="2.0342" /><circle cx="1364" cy="2398" r="4.2967" /><circle cx="2095" cy="2396" r="2.764" /><circle cx="1748" cy="2399" r="4.2967" /><circle cx="1171" cy="2402" r="5.2016" /><circle cx="1344" cy="2402" r="5.2321" /><circle cx="1222" cy="2404" r="3.5234" /><circle cx="1298" cy="2405" r="5.0463" /><circle cx="2895" cy="2405" r="3.8679" /><circle cx="444" cy="2408" r="3.7847" /><circle cx="2959" cy="2410" r="4.0684" /><circle cx="1667" cy="2412" r="4.4424" /><circle cx="2223" cy="2416" r="4.8204" /><circle cx="2300" cy="2415" r="2.764" /><circle cx="1722" cy="2417" r="4.4424" /><circle cx="2676" cy="2419" r="3.7847" /><circle cx="1355" cy="2421" r="4.4424" /><circle cx="2937" cy="2420" r="2.9854" /><circle cx="179" cy="2429" r="4.6524" /><circle cx="1654" cy="2428" r="3.241" /><circle cx="2262" cy="2428" r="4.1074" /><circle cx="2648" cy="2429" r="3.9894" /><circle cx="73" cy="2429" r="3.8679" /><circle cx="1373" cy="2433" r="3.3851" /><circle cx="2015" cy="2436" r="5.0463" /><circle cx="997" cy="2439" r="5.6419" /><circle cx="1022" cy="2442" r="5.0146" /><circle cx="1220" cy="2441" r="3.3378" /><circle cx="1764" cy="2442" r="3.6126" /><circle cx="2372" cy="2442" r="2.8209" /><circle cx="733" cy="2443" r="2.5854" /><circle cx="2656" cy="2445" r="4.4424" /><circle cx="2425" cy="2445" r="3.3851" /><circle cx="1134" cy="2448" r="4.1459" /><circle cx="1512" cy="2457" r="5.9708" /><circle cx="1810" cy="2456" r="4.9507" /><circle cx="2814" cy="2457" r="3.6126" /><circle cx="1961" cy="2464" r="6.5553" /><circle cx="2995" cy="2464" r="6.7467" /><circle cx="719" cy="2467" r="4.4781" /><circle cx="1373" cy="2471" r="6.3831" /><circle cx="1312" cy="2470" r="3.7847" /><circle cx="1623" cy="2473" r="5.0777" /><circle cx="1900" cy="2475" r="4.8533" /><circle cx="2375" cy="2473" r="3.5234" /><circle cx="1661" cy="2479" r="7.3777" /><circle cx="2416" cy="2476" r="3.6996" /><circle cx="2467" cy="2477" r="3.9493" /><circle cx="2665" cy="2479" r="5.2016" /><circle cx="391" cy="2481" r="6.6994" /><circle cx="1352" cy="2485" r="7.9788" /><circle cx="1393" cy="2484" r="4.8533" /><circle cx="1196" cy="2490" r="3.9493" /><circle cx="2926" cy="2490" r="4.222" /><circle cx="1821" cy="2492" r="3.5234" /><circle cx="990" cy="2497" r="7.7152" /><circle cx="1237" cy="2496" r="6.1804" /><circle cx="1877" cy="2497" r="4.6181" /><circle cx="2474" cy="2496" r="3.5682" /><circle cx="2759" cy="2499" r="4.2967" /><circle cx="2001" cy="2499" r="2.764" /><circle cx="1377" cy="2502" r="5.2926" /><circle cx="1004" cy="2510" r="5.698" /><circle cx="2102" cy="2508" r="3.1413" /><circle cx="1509" cy="2512" r="4.2595" /><circle cx="2177" cy="2517" r="4.0291" /><circle cx="2237" cy="2519" r="5.1709" /><circle cx="2768" cy="2524" r="5.499" /><circle cx="740" cy="2528" r="10.8524" /><circle cx="1561" cy="2523" r="3.1915" /><circle cx="1494" cy="2527" r="3.241" /><circle cx="2729" cy="2527" r="3.8265" /><circle cx="1937" cy="2531" r="4.3336" /><circle cx="1647" cy="2533" r="4.4424" /><circle cx="2039" cy="2533" r="5.698" /><circle cx="195" cy="2533" r="2.0342" /><circle cx="1407" cy="2535" r="4.1459" /><circle cx="2455" cy="2537" r="4.9828" /><circle cx="2632" cy="2536" r="4.1459" /><circle cx="464" cy="2539" r="3.6564" /><circle cx="1524" cy="2538" r="2.3262" /><circle cx="1450" cy="2542" r="5.9708" /><circle cx="1475" cy="2544" r="5.5852" /><circle cx="1908" cy="2546" r="5.2926" /><circle cx="2365" cy="2544" r="3.5682" /><circle cx="1091" cy="2547" r="5.0463" /><circle cx="2724" cy="2545" r="2.3937" /><circle cx="939" cy="2548" r="4.7203" /><circle cx="1774" cy="2549" r="5.9173" /><circle cx="2990" cy="2549" r="5.67" /><circle cx="1363" cy="2556" r="4.7873" /><circle cx="1636" cy="2553" r="2.4592" /><circle cx="1595" cy="2559" r="5.67" /><circle cx="1531" cy="2558" r="3.9493" /><circle cx="2508" cy="2560" r="4.1074" /><circle cx="1455" cy="2568" r="4.2595" /><circle cx="1915" cy="2573" r="7.2909" /><circle cx="1285" cy="2574" r="4.4781" /><circle cx="941" cy="2576" r="5.698" /><circle cx="1771" cy="2576" r="3.9493" /><circle cx="1832" cy="2580" r="5.382" /><circle cx="96" cy="2579" r="3.4779" /><circle cx="2449" cy="2583" r="3.4318" /><circle cx="1750" cy="2583" r="2.764" /><circle cx="1226" cy="2587" r="4.5135" /><circle cx="1021" cy="2591" r="4.7203" /><circle cx="1484" cy="2593" r="6.4574" /><circle cx="1386" cy="2595" r="6.7231" /><circle cx="2313" cy="2595" r="4.9185" /><circle cx="2767" cy="2595" r="4.9185" /><circle cx="2721" cy="2595" r="4.2967" /><circle cx="1317" cy="2596" r="4.6524" /><circle cx="2062" cy="2600" r="3.4318" /><circle cx="1432" cy="2609" r="4.9507" /><circle cx="1632" cy="2609" r="3.7424" /><circle cx="52" cy="2611" r="3.1413" /><circle cx="726" cy="2613" r="4.0291" /><circle cx="1157" cy="2615" r="5.2926" /><circle cx="1820" cy="2619" r="4.2967" /><circle cx="1461" cy="2619" r="4.7539" /><circle cx="1938" cy="2621" r="3.9493" /><circle cx="1079" cy="2622" r="3.7847" /><circle cx="1746" cy="2625" r="2.5854" /><circle cx="2317" cy="2629" r="5.0777" /><circle cx="2732" cy="2633" r="4.6524" /><circle cx="964" cy="2634" r="4.2967" /><circle cx="2817" cy="2635" r="4.9828" /><circle cx="2351" cy="2639" r="4.7539" /><circle cx="1269" cy="2639" r="2.3262" /><circle cx="1302" cy="2642" r="5.7536" /><circle cx="1920" cy="2641" r="4.4065" /><circle cx="2933" cy="2645" r="7.3777" /><circle cx="2188" cy="2644" r="4.7203" /><circle cx="1979" cy="2648" r="4.222" /><circle cx="2761" cy="2650" r="5.7536" /><circle cx="223" cy="2651" r="2.9316" /><circle cx="2127" cy="2655" r="4.2967" /><circle cx="1025" cy="2655" r="3.7847" /><circle cx="1257" cy="2663" r="4.7539" /><circle cx="2860" cy="2662" r="4.1074" /><circle cx="979" cy="2663" r="4.5135" /><circle cx="1993" cy="2665" r="4.222" /><circle cx="2185" cy="2671" r="11.3961" /><circle cx="2392" cy="2664" r="3.2898" /><circle cx="1139" cy="2668" r="6.5553" /><circle cx="1745" cy="2665" r="2.0342" /><circle cx="2230" cy="2668" r="4.7873" /><circle cx="33" cy="2668" r="3.0383" /><circle cx="673" cy="2669" r="3.6564" /><circle cx="1382" cy="2671" r="4.6181" /><circle cx="2377" cy="2674" r="4.7203" /><circle cx="941" cy="2675" r="6.1026" /><circle cx="1298" cy="2675" r="4.9185" /><circle cx="2483" cy="2675" r="3.241" /><circle cx="2964" cy="2676" r="4.5486" /><circle cx="1881" cy="2678" r="4.886" /><circle cx="2053" cy="2679" r="3.9493" /><circle cx="1425" cy="2682" r="3.7424" /><circle cx="2301" cy="2685" r="4.7203" /><circle cx="77" cy="2686" r="4.0684" /><circle cx="1606" cy="2687" r="4.222" /><circle cx="1756" cy="2688" r="4.3336" /><circle cx="2397" cy="2691" r="7.1142" /><circle cx="2515" cy="2691" r="5.4115" /><circle cx="2184" cy="2693" r="4.8533" /><circle cx="2331" cy="2693" r="2.111" /><circle cx="1440" cy="2698" r="5.382" /><circle cx="2276" cy="2705" r="7.5483" /><circle cx="2933" cy="2704" r="4.6865" /><circle cx="361" cy="2704" r="3.3851" /><circle cx="3002" cy="2706" r="5.5279" /><circle cx="2570" cy="2708" r="3.5682" /><circle cx="1806" cy="2709" r="2.5854" /><circle cx="2256" cy="2715" r="6.333" /><circle cx="267" cy="2715" r="4.2595" /><circle cx="742" cy="2717" r="6.2572" /><circle cx="2961" cy="2715" r="4.2595" /><circle cx="1551" cy="2716" r="5.0463" /><circle cx="1930" cy="2714" r="3.0383" /><circle cx="1989" cy="2717" r="4.5135" /><circle cx="900" cy="2723" r="9.3219" /><circle cx="1953" cy="2725" r="4.6865" /><circle cx="1223" cy="2727" r="4.7539" /><circle cx="1104" cy="2729" r="4.4065" /><circle cx="1299" cy="2733" r="3.9894" /><circle cx="2060" cy="2733" r="3.8679" /><circle cx="1320" cy="2737" r="5.7259" /><circle cx="569" cy="2740" r="7.0918" /><circle cx="1878" cy="2735" r="2.8209" /><circle cx="2144" cy="2736" r="3.9088" /><circle cx="1135" cy="2738" r="4.6524" /><circle cx="2813" cy="2738" r="4.9828" /><circle cx="2192" cy="2740" r="2.7058" /><circle cx="1259" cy="2742" r="3.6996" /><circle cx="111" cy="2745" r="3.4318" /><circle cx="2094" cy="2745" r="4.0291" /><circle cx="2530" cy="2746" r="4.2967" /><circle cx="883" cy="2750" r="4.4065" /><circle cx="1776" cy="2751" r="4.5486" /><circle cx="1052" cy="2755" r="6.6756" /><circle cx="1647" cy="2754" r="3.9493" /><circle cx="1293" cy="2757" r="5.1709" /><circle cx="1965" cy="2760" r="9.4911" /><circle cx="2912" cy="2761" r="7.9988" /><circle cx="269" cy="2758" r="2.4592" /><circle cx="575" cy="2762" r="4.222" /><circle cx="2279" cy="2765" r="6.7937" /><circle cx="2585" cy="2772" r="4.5486" /><circle cx="2961" cy="2772" r="3.4318" /><circle cx="2981" cy="2778" r="4.6524" /><circle cx="476" cy="2778" r="3.0383" /><circle cx="1326" cy="2780" r="4.7203" /><circle cx="1019" cy="2784" r="5.109" /><circle cx="1896" cy="2786" r="4.2967" /><circle cx="671" cy="2791" r="7.4208" /><circle cx="2691" cy="2788" r="4.2595" /><circle cx="2172" cy="2790" r="3.6126" /><circle cx="2504" cy="2792" r="4.3702" /><circle cx="2545" cy="2793" r="3.3378" /><circle cx="2967" cy="2794" r="4.4781" /><circle cx="1519" cy="2796" r="3.6996" /><circle cx="2123" cy="2799" r="5.0146" /><circle cx="2297" cy="2798" r="3.1915" /><circle cx="2192" cy="2804" r="3.9088" /><circle cx="2818" cy="2805" r="5.3524" /><circle cx="2040" cy="2805" r="4.7873" /><circle cx="2906" cy="2811" r="8.8669" /><circle cx="2878" cy="2807" r="5.5566" /><circle cx="2258" cy="2811" r="4.5486" /><circle cx="2952" cy="2810" r="4.3336" /><circle cx="1344" cy="2812" r="4.1459" /><circle cx="2991" cy="2812" r="4.0684" /><circle cx="2092" cy="2812" r="2.4592" /><circle cx="2331" cy="2815" r="5.5279" /><circle cx="2443" cy="2815" r="4.1459" /><circle cx="772" cy="2823" r="6.2317" /><circle cx="2023" cy="2824" r="6.0239" /><circle cx="1845" cy="2826" r="3.8679" /><circle cx="2391" cy="2829" r="3.3378" /><circle cx="2962" cy="2831" r="5.67" /><circle cx="2823" cy="2834" r="6.4328" /><circle cx="2274" cy="2835" r="4.886" /><circle cx="1924" cy="2835" r="3.0902" /><circle cx="2306" cy="2837" r="4.4781" /><circle cx="1449" cy="2840" r="5.499" /><circle cx="2751" cy="2845" r="9.9656" /><circle cx="2364" cy="2840" r="3.3378" /><circle cx="2793" cy="2845" r="4.2967" /><circle cx="2142" cy="2846" r="4.8533" /><circle cx="763" cy="2848" r="4.6181" /><circle cx="2853" cy="2849" r="3.6996" /><circle cx="1768" cy="2850" r="3.4318" /><circle cx="2955" cy="2851" r="3.8265" /><circle cx="2073" cy="2854" r="4.6524" /><circle cx="2902" cy="2858" r="4.7539" /><circle cx="1384" cy="2859" r="5.47" /><circle cx="2454" cy="2860" r="4.7873" /><circle cx="1694" cy="2860" r="4.4424" /><circle cx="1482" cy="2864" r="5.0463" /><circle cx="2185" cy="2864" r="4.2967" /><circle cx="2343" cy="2866" r="6.5795" /><circle cx="2917" cy="2866" r="3.0383" /><circle cx="2552" cy="2866" r="2.3937" /><circle cx="2513" cy="2874" r="5.2016" /><circle cx="1292" cy="2875" r="5.4115" /><circle cx="2213" cy="2876" r="4.3336" /><circle cx="1722" cy="2877" r="4.222" /><circle cx="2317" cy="2880" r="7.0241" /><circle cx="2794" cy="2883" r="8.311" /><circle cx="2562" cy="2881" r="2.4592" /><circle cx="2946" cy="2884" r="5.4115" /><circle cx="1881" cy="2887" r="6.4328" /><circle cx="1684" cy="2884" r="3.0902" /><circle cx="1800" cy="2887" r="3.6126" /><circle cx="1909" cy="2888" r="4.4424" /><circle cx="2992" cy="2886" r="2.4592" /><circle cx="201" cy="2887" r="2.9854" /><circle cx="1772" cy="2891" r="4.6524" /><circle cx="2089" cy="2891" r="4.886" /><circle cx="1107" cy="2894" r="4.1841" /><circle cx="1146" cy="2895" r="3.6126" /><circle cx="1432" cy="2900" r="6.8171" /><circle cx="2637" cy="2897" r="3.5682" /><circle cx="2710" cy="2902" r="5.499" /><circle cx="1984" cy="2902" r="3.6126" /><circle cx="2931" cy="2906" r="4.3702" /><circle cx="2342" cy="2911" r="4.886" /><circle cx="2462" cy="2915" r="9.7557" /><circle cx="2657" cy="2912" r="3.0902" /><circle cx="1528" cy="2916" r="5.5566" /><circle cx="2066" cy="2919" r="3.3851" /><circle cx="2410" cy="2923" r="4.6865" /><circle cx="2173" cy="2924" r="3.0902" /><circle cx="2760" cy="2932" r="5.9708" /><circle cx="2120" cy="2931" r="4.0291" /><circle cx="2829" cy="2931" r="3.9088" /><circle cx="1161" cy="2934" r="4.8533" /><circle cx="2103" cy="2938" r="5.7536" /><circle cx="2934" cy="2939" r="5.9173" /><circle cx="1360" cy="2939" r="4.222" /><circle cx="2022" cy="2939" r="4.0684" /><circle cx="2248" cy="2941" r="4.9828" /><circle cx="2220" cy="2943" r="4.4424" /><circle cx="2977" cy="2946" r="5.499" /><circle cx="1721" cy="2950" r="3.7847" /><circle cx="1960" cy="2950" r="3.8679" /><circle cx="1704" cy="2951" r="3.6564" /><circle cx="2143" cy="2953" r="4.4065" /><circle cx="1580" cy="2955" r="4.3702" /><circle cx="2898" cy="2956" r="6.1026" /><circle cx="2591" cy="2956" r="4.4065" /><circle cx="2072" cy="2959" r="3.5682" /><circle cx="2096" cy="2962" r="3.7847" /><circle cx="2186" cy="2962" r="4.3336" /><circle cx="2541" cy="2965" r="3.6126" /><circle cx="1630" cy="2967" r="3.5682" /><circle cx="2688" cy="2967" r="3.241" /><circle cx="2734" cy="2967" r="2.6463" /><circle cx="1420" cy="2970" r="4.9828" /><circle cx="2364" cy="2969" r="4.8533" /><circle cx="2161" cy="2972" r="4.886" /><circle cx="2846" cy="2974" r="4.1074" /><circle cx="1079" cy="2976" r="3.6126" /><circle cx="1936" cy="2980" r="3.9493" /><circle cx="1745" cy="2982" r="4.1459" /><circle cx="2189" cy="2986" r="4.3336" /><circle cx="2894" cy="2987" r="5.382" /><circle cx="2044" cy="2991" r="4.2595" /><circle cx="1075" cy="2992" r="3.4779" /><circle cx="3006" cy="3008" r="17.3345" /><circle cx="2074" cy="2998" r="3.241" /><circle cx="1711" cy="3002" r="4.5835" /><circle cx="1609" cy="3018" r="5.4115" /><circle cx="1736" cy="3019" r="4.222" /></svg>