<?xml version="1.0" encoding="utf-8" ?>
<svg baseProfile="tiny" height="500" version="1.2" width="500" xmlns="http://www.w3.org/2000/svg" xmlns:ev="http://www.w3.org/2001/xml-events" xmlns:xlink="http://www.w3.org/1999/xlink"><defs /><line stroke="black" stroke-opacity="1.0" stroke-width="0.5" x1="250.0" x2="0.0" y1="250.0" y2="100.0" /><line stroke="black" stroke-opacity="1.0" stroke-width="0.5" x1="0.0" x2="43.1483" y1="100.0" y2="78.9824" /><line stroke="black" stroke-opacity="1.0" stroke-width="0.5" x1="43.1483" x2="68.1591" y1="78.9824" y2="43.7645" /><line stroke="black" stroke-opacity="1.0" stroke-width="0.5" x1="68.1591" x2="72.7174" y1="43.7645" y2="5.1567" /><line stroke="black" stroke-opacity="1.0" stroke-width="0.5" x1="72.7174" x2="59.659" y1="5.1567" y2="-27.3034" /><line stroke="black" stroke-opacity="1.0" stroke-width="0.5" x1="59.659" x2="35.3392" y1="-27.3034" y2="-47.3067" /><line stroke="black" stroke-opacity="1.0" stroke-width="0.5" x1="35.3392" x2="7.4997" y1="-47.3067" y2="-52.6123" /><line stroke="black" stroke-opacity="1.0" stroke-width="0.5" x1="7.4997" x2="-16.7779" y1="-52.6123" y2="-44.7904" /><line stroke="black" stroke-opacity="1.0" stroke-width="0.5" x1="-16.7779" x2="-32.5779" y1="-44.7904" y2="-28.1372" /><line stroke="black" stroke-opacity="1.0" stroke-width="0.5" x1="-32.5779" x2="-37.8715" y1="-28.1372" y2="-8.1667" /><line stroke="black" stroke-opacity="1.0" stroke-width="0.5" x1="-37.8715" x2="-33.4356" y1="-8.1667" y2="9.8907" /><line stroke="black" stroke-opacity="1.0" stroke-width="0.5" x1="-33.4356" x2="-22.1406" y1="9.8907" y2="22.2388" /><line stroke="black" stroke-opacity="1.0" stroke-width="0.5" x1="-22.1406" x2="-7.8915" y1="22.2388" y2="27.118" /><line stroke="black" stroke-opacity="1.0" stroke-width="0.5" x1="-7.8915" x2="5.4681" y1="27.118" y2="24.8235" /><line stroke="black" stroke-opacity="1.0" stroke-width="0.5" x1="5.4681" x2="15.0297" y1="24.8235" y2="17.2469" /><line stroke="black" stroke-opacity="1.0" stroke-width="0.5" x1="15.0297" x2="19.3126" y1="17.2469" y2="7.1369" /><line stroke="black" stroke-opacity="1.0" stroke-width="0.5" x1="19.3126" x2="18.333" y1="7.1369" y2="-2.6961" /><line stroke="black" stroke-opacity="1.0" stroke-width="0.5" x1="18.333" x2="13.3165" y1="-2.6961" y2="-10.0399" /><line stroke="black" stroke-opacity="1.0" stroke-width="0.5" x1="13.3165" x2="6.1857" y1="-10.0399" y2="-13.6756" /><line stroke="black" stroke-opacity="1.0" stroke-width="0.5" x1="6.1857" x2="-1.0152" y1="-13.6756" y2="-13.4703" /><line stroke="black" stroke-opacity="1.0" stroke-width="0.5" x1="-1.0152" x2="-6.614" y1="-13.4703" y2="-10.2012" /><line stroke="black" stroke-opacity="1.0" stroke-width="0.5" x1="-6.614" x2="-9.6255" y1="-10.2012" y2="-5.2033" /><line stroke="black" stroke-opacity="1.0" stroke-width="0.5" x1="-9.6255" x2="-9.8476" y1="-5.2033" y2="0.0436" /><line stroke="black" stroke-opacity="1.0" stroke-width="0.5" x1="-9.8476" x2="-7.7591" y1="0.0436" y2="4.2835" /><line stroke="black" stroke-opacity="1.0" stroke-width="0.5" x1="-7.7591" x2="-4.2801" y1="4.2835" y2="6.7311" /><line stroke="black" stroke-opacity="1.0" stroke-width="0.5" x1="-4.2801" x2="-0.4761" y1="6.7311" y2="7.1632" /><line stroke="black" stroke-opacity="1.0" stroke-width="0.5" x1="-0.4761" x2="2.7147" y1="7.1632" y2="5.8631" /><line stroke="black" stroke-opacity="1.0" stroke-width="0.5" x1="2.7147" x2="4.674" y1="5.8631" y2="3.4594" /><line stroke="black" stroke-opacity="1.0" stroke-width="0.5" x1="4.674" x2="5.1843" y1="3.4594" y2="0.7156" /><line stroke="black" stroke-opacity="1.0" stroke-width="0.5" x1="5.1843" x2="4.4035" y1="0.7156" y2="-1.6717" /><line stroke="black" stroke-opacity="1.0" stroke-width="0.5" x1="4.4035" x2="2.7566" y1="-1.6717" y2="-3.2204" /><line stroke="black" stroke-opacity="1.0" stroke-width="0.5" x1="2.7566" x2="0.7877" y1="-3.2204" y2="-3.733" /><line stroke="black" stroke-opacity="1.0" stroke-width="0.5" x1="0.7877" x2="-0.9886" y1="-3.733" y2="-3.2883" /><line stroke="black" stroke-opacity="1.0" stroke-width="0.5" x1="-0.9886" x2="-2.1996" y1="-3.2883" y2="-2.1706" /><line stroke="black" stroke-opacity="1.0" stroke-width="0.5" x1="-2.1996" x2="-2.6739" y1="-2.1706" y2="-0.7653" /><line stroke="black" stroke-opacity="1.0" stroke-width="0.5" x1="-2.6739" x2="-2.4421" y1="-0.7653" y2="0.5493" /><line stroke="black" stroke-opacity="1.0" stroke-width="0.5" x1="-2.4421" x2="-1.6919" y1="0.5493" y2="1.4876" /><line stroke="black" stroke-opacity="1.0" stroke-width="0.5" x1="-1.6919" x2="-0.6944" y1="1.4876" y2="1.9049" /><line stroke="black" stroke-opacity="1.0" stroke-width="0.5" x1="-0.6944" x2="0.2735" y1="1.9049" y2="1.8042" /><line stroke="black" stroke-opacity="1.0" stroke-width="0.5" x1="0.2735" x2="0.9945" y1="1.8042" y2="1.307" /><line stroke="black" stroke-opacity="1.0" stroke-width="0.5" x1="0.9945" x2="1.3494" y1="1.307" y2="0.6032" /><line stroke="black" stroke-opacity="1.0" stroke-width="0.5" x1="1.3494" x2="1.3261" y1="0.6032" y2="-0.1058" /><line stroke="black" stroke-opacity="1.0" stroke-width="0.5" x1="1.3261" x2="1.0017" y1="-0.1058" y2="-0.6558" /><line stroke="black" stroke-opacity="1.0" stroke-width="0.5" x1="1.0017" x2="0.5082" y1="-0.6558" y2="-0.9502" /><line stroke="black" stroke-opacity="1.0" stroke-width="0.5" x1="0.5082" x2="-0.0086" y1="-0.9502" y2="-0.9697" /><line stroke="black" stroke-opacity="1.0" stroke-width="0.5" x1="-0.0086" x2="-0.4252" y1="-0.9697" y2="-0.7622" /><line stroke="black" stroke-opacity="1.0" stroke-width="0.5" x1="-0.4252" x2="-0.6647" y1="-0.7622" y2="-0.4185" /><line stroke="black" stroke-opacity="1.0" stroke-width="0.5" x1="-0.6647" x2="-0.7056" y1="-0.4185" y2="-0.0438" /><line stroke="black" stroke-opacity="1.0" stroke-width="0.5" x1="-0.7056" x2="-0.5762" y1="-0.0438" y2="0.2699" /><line stroke="black" stroke-opacity="1.0" stroke-width="0.5" x1="-0.5762" x2="-0.3386" y1="0.2699" y2="0.4618" /><line stroke="black" stroke-opacity="1.0" stroke-width="0.5" x1="-0.3386" x2="-0.0682" y1="0.4618" y2="0.5108" /><line stroke="black" stroke-opacity="1.0" stroke-width="0.5" x1="-0.0682" x2="0.1665" y1="0.5108" y2="0.4329" /><line stroke="black" stroke-opacity="1.0" stroke-width="0.5" x1="0.1665" x2="0.3183" y1="0.4329" y2="0.2701" /><line stroke="black" stroke-opacity="1.0" stroke-width="0.5" x1="0.3183" x2="0.368" y1="0.2701" y2="0.0759" /><line stroke="black" stroke-opacity="1.0" stroke-width="0.5" x1="0.368" x2="0.3234" y1="0.0759" y2="-0.0988" /><line stroke="black" stroke-opacity="1.0" stroke-width="0.5" x1="0.3234" x2="0.2128" y1="-0.0988" y2="-0.2176" /><line stroke="black" stroke-opacity="1.0" stroke-width="0.5" x1="0.2128" x2="0.0742" y1="-0.2176" y2="-0.2637" /><line stroke="black" stroke-opacity="1.0" stroke-width="0.5" x1="0.0742" x2="-0.0552" y1="-0.2637" y2="-0.2403" /><line stroke="black" stroke-opacity="1.0" stroke-width="0.5" x1="-0.0552" x2="-0.1472" y1="-0.2403" y2="-0.166" /><line stroke="black" stroke-opacity="1.0" stroke-width="0.5" x1="-0.1472" x2="-0.1879" y1="-0.166" y2="-0.0676" /><line stroke="black" stroke-opacity="1.0" stroke-width="0.5" x1="-0.1879" x2="-0.1776" y1="-0.0676" y2="0.0277" /><line stroke="black" stroke-opacity="1.0" stroke-width="0.5" x1="-0.1776" x2="-0.1283" y1="0.0277" y2="0.0985" /><line stroke="black" stroke-opacity="1.0" stroke-width="0.5" x1="-0.1283" x2="-0.0588" y1="0.0985" y2="0.1331" /><line stroke="black" stroke-opacity="1.0" stroke-width="0.5" x1="-0.0588" x2="0.011" y1="0.1331" y2="0.1305" /><line stroke="black" stroke-opacity="1.0" stroke-width="0.5" x1="0.011" x2="0.065" y1="0.1305" y2="0.0984" /><line stroke="black" stroke-opacity="1.0" stroke-width="0.5" x1="0.065" x2="0.0938" y1="0.0984" y2="0.0496" /><line stroke="black" stroke-opacity="1.0" stroke-width="0.5" x1="0.0938" x2="0.0955" y1="0.0496" y2="-0.0013" /><line stroke="black" stroke-opacity="1.0" stroke-width="0.5" x1="0.0955" x2="0.0749" y1="-0.0013" y2="-0.0422" /><line stroke="black" stroke-opacity="1.0" stroke-width="0.5" x1="0.0749" x2="0.0409" y1="-0.0422" y2="-0.0656" /><line stroke="black" stroke-opacity="1.0" stroke-width="0.5" x1="0.0409" x2="0.004" y1="-0.0656" y2="-0.0695" /><line stroke="black" stroke-opacity="1.0" stroke-width="0.5" x1="0.004" x2="-0.0268" y1="-0.0695" y2="-0.0566" /><line stroke="black" stroke-opacity="1.0" stroke-width="0.5" x1="-0.0268" x2="-0.0456" y1="-0.0566" y2="-0.0331" /><line stroke="black" stroke-opacity="1.0" stroke-width="0.5" x1="-0.0456" x2="-0.0503" y1="-0.0331" y2="-0.0065" /><line stroke="black" stroke-opacity="1.0" stroke-width="0.5" x1="-0.0503" x2="-0.0426" y1="-0.0065" y2="0.0166" /><line stroke="black" stroke-opacity="1.0" stroke-width="0.5" x1="-0.0426" x2="-0.0265" y1="0.0166" y2="0.0315" /><line stroke="black" stroke-opacity="1.0" stroke-width="0.5" x1="-0.0265" x2="-0.0073" y1="0.0315" y2="0.0363" /><line stroke="black" stroke-opacity="1.0" stroke-width="0.5" x1="-0.0073" x2="0.0099" y1="0.0363" y2="0.0318" /><line stroke="black" stroke-opacity="1.0" stroke-width="0.5" x1="0.0099" x2="0.0215" y1="0.0318" y2="0.0209" /><line stroke="black" stroke-opacity="1.0" stroke-width="0.5" x1="0.0215" x2="0.026" y1="0.0209" y2="0.0072" /><line stroke="black" stroke-opacity="1.0" stroke-width="0.5" x1="0.026" x2="0.0236" y1="0.0072" y2="-0.0055" /><line stroke="black" stroke-opacity="1.0" stroke-width="0.5" x1="0.0236" x2="0.0163" y1="-0.0055" y2="-0.0146" /><line stroke="black" stroke-opacity="1.0" stroke-width="0.5" x1="0.0163" x2="0.0066" y1="-0.0146" y2="-0.0185" /><line stroke="black" stroke-opacity="1.0" stroke-width="0.5" x1="0.0066" x2="-0.0028" y1="-0.0185" y2="-0.0175" /><line stroke="black" stroke-opacity="1.0" stroke-width="0.5" x1="-0.0028" x2="-0.0098" y1="-0.0175" y2="-0.0126" /><line stroke="black" stroke-opacity="1.0" stroke-width="0.5" x1="-0.0098" x2="-0.0131" y1="-0.0126" y2="-0.0057" /><line stroke="black" stroke-opacity="1.0" stroke-width="0.5" x1="-0.0131" x2="-0.0129" y1="-0.0057" y2="0.0011" /><line stroke="black" stroke-opacity="1.0" stroke-width="0.5" x1="-0.0129" x2="-0.0097" y1="0.0011" y2="0.0064" /><line stroke="black" stroke-opacity="1.0" stroke-width="0.5" x1="-0.0097" x2="-0.0048" y1="0.0064" y2="0.0093" /><line stroke="black" stroke-opacity="1.0" stroke-width="0.5" x1="-0.0048" x2="0.0002" y1="0.0093" y2="0.0094" /><line stroke="black" stroke-opacity="1.0" stroke-width="0.5" x1="0.0002" x2="0.0042" y1="0.0094" y2="0.0074" /><line stroke="black" stroke-opacity="1.0" stroke-width="0.5" x1="0.0042" x2="0.0065" y1="0.0074" y2="0.004" /><line stroke="black" stroke-opacity="1.0" stroke-width="0.5" x1="0.0065" x2="0.0068" y1="0.004" y2="0.0004" /><line stroke="black" stroke-opacity="1.0" stroke-width="0.5" x1="0.0068" x2="0.0056" y1="0.0004" y2="-0.0027" /><line stroke="black" stroke-opacity="1.0" stroke-width="0.5" x1="0.0056" x2="0.0032" y1="-0.0027" y2="-0.0045" /><line stroke="black" stroke-opacity="1.0" stroke-width="0.5" x1="0.0032" x2="0.0006" y1="-0.0045" y2="-0.005" /><line stroke="black" stroke-opacity="1.0" stroke-width="0.5" x1="0.0006" x2="-0.0017" y1="-0.005" y2="-0.0042" /><line stroke="black" stroke-opacity="1.0" stroke-width="0.5" x1="-0.0017" x2="-0.0031" y1="-0.0042" y2="-0.0026" /><line stroke="black" stroke-opacity="1.0" stroke-width="0.5" x1="-0.0031" x2="-0.0036" y1="-0.0026" y2="-0.0007" /><line stroke="black" stroke-opacity="1.0" stroke-width="0.5" x1="-0.0036" x2="-0.0031" y1="-0.0007" y2="0.001" /><line stroke="black" stroke-opacity="1.0" stroke-width="0.5" x1="-0.0031" x2="-0.002" y1="0.001" y2="0.0021" /><line stroke="black" stroke-opacity="1.0" stroke-width="0.5" x1="-0.002" x2="-0.0007" y1="0.0021" y2="0.0026" /></svg>