<?xml version="1.0" encoding="utf-8" ?>
<svg baseProfile="tiny" height="500" version="1.2" width="500" xmlns="http://www.w3.org/2000/svg" xmlns:ev="http://www.w3.org/2001/xml-events" xmlns:xlink="http://www.w3.org/1999/xlink"><defs /><line stroke="black" stroke-opacity="1.0" stroke-width="0.5" x1="250.0" x2="250.0" y1="250.0" y2="350.0" /><line stroke="black" stroke-opacity="1.0" stroke-width="0.5" x1="250.0" x2="293.1483" y1="350.0" y2="428.9824" /><line stroke="black" stroke-opacity="1.0" stroke-width="0.5" x1="293.1483" x2="361.3074" y1="428.9824" y2="472.7469" /><line stroke="black" stroke-opacity="1.0" stroke-width="0.5" x1="361.3074" x2="434.0248" y1="472.7469" y2="477.9037" /><line stroke="black" stroke-opacity="1.0" stroke-width="0.5" x1="434.0248" x2="493.6838" y1="477.9037" y2="450.6003" /><line stroke="black" stroke-opacity="1.0" stroke-width="0.5" x1="493.6838" x2="529.023" y1="450.6003" y2="403.2935" /><line stroke="black" stroke-opacity="1.0" stroke-width="0.5" x1="529.023" x2="536.5227" y1="403.2935" y2="350.6813" /><line stroke="black" stroke-opacity="1.0" stroke-width="0.5" x1="536.5227" x2="519.7449" y1="350.6813" y2="305.8908" /><line stroke="black" stroke-opacity="1.0" stroke-width="0.5" x1="519.7449" x2="487.167" y1="305.8908" y2="277.7536" /><line stroke="black" stroke-opacity="1.0" stroke-width="0.5" x1="487.167" x2="449.2955" y1="277.7536" y2="269.587" /><line stroke="black" stroke-opacity="1.0" stroke-width="0.5" x1="449.2955" x2="415.8599" y1="269.587" y2="279.4777" /><line stroke="black" stroke-opacity="1.0" stroke-width="0.5" x1="415.8599" x2="393.7193" y1="279.4777" y2="301.7165" /><line stroke="black" stroke-opacity="1.0" stroke-width="0.5" x1="393.7193" x2="385.8277" y1="301.7165" y2="328.8345" /><line stroke="black" stroke-opacity="1.0" stroke-width="0.5" x1="385.8277" x2="391.2958" y1="328.8345" y2="353.6581" /><line stroke="black" stroke-opacity="1.0" stroke-width="0.5" x1="391.2958" x2="406.3255" y1="353.6581" y2="370.9049" /><line stroke="black" stroke-opacity="1.0" stroke-width="0.5" x1="406.3255" x2="425.6381" y1="370.9049" y2="378.0418" /><line stroke="black" stroke-opacity="1.0" stroke-width="0.5" x1="425.6381" x2="443.9711" y1="378.0418" y2="375.3457" /><line stroke="black" stroke-opacity="1.0" stroke-width="0.5" x1="443.9711" x2="457.2876" y1="375.3457" y2="365.3058" /><line stroke="black" stroke-opacity="1.0" stroke-width="0.5" x1="457.2876" x2="463.4733" y1="365.3058" y2="351.6303" /><line stroke="black" stroke-opacity="1.0" stroke-width="0.5" x1="463.4733" x2="462.4581" y1="351.6303" y2="338.1599" /><line stroke="black" stroke-opacity="1.0" stroke-width="0.5" x1="462.4581" x2="455.8441" y1="338.1599" y2="327.9588" /><line stroke="black" stroke-opacity="1.0" stroke-width="0.5" x1="455.8441" x2="446.2186" y1="327.9588" y2="322.7555" /><line stroke="black" stroke-opacity="1.0" stroke-width="0.5" x1="446.2186" x2="436.371" y1="322.7555" y2="322.7991" /><line stroke="black" stroke-opacity="1.0" stroke-width="0.5" x1="436.371" x2="428.6119" y1="322.7991" y2="327.0826" /><line stroke="black" stroke-opacity="1.0" stroke-width="0.5" x1="428.6119" x2="424.3318" y1="327.0826" y2="333.8137" /><line stroke="black" stroke-opacity="1.0" stroke-width="0.5" x1="424.3318" x2="423.8557" y1="333.8137" y2="340.9769" /><line stroke="black" stroke-opacity="1.0" stroke-width="0.5" x1="423.8557" x2="426.5704" y1="340.9769" y2="346.84" /><line stroke="black" stroke-opacity="1.0" stroke-width="0.5" x1="426.5704" x2="431.2444" y1="346.84" y2="350.2994" /><line stroke="black" stroke-opacity="1.0" stroke-width="0.5" x1="431.2444" x2="436.4288" y1="350.2994" y2="351.015" /><line stroke="black" stroke-opacity="1.0" stroke-width="0.5" x1="436.4288" x2="440.8322" y1="351.015" y2="349.3433" /><line stroke="black" stroke-opacity="1.0" stroke-width="0.5" x1="440.8322" x2="443.5889" y1="349.3433" y2="346.1229" /><line stroke="black" stroke-opacity="1.0" stroke-width="0.5" x1="443.5889" x2="444.3766" y1="346.1229" y2="342.3899" /><line stroke="black" stroke-opacity="1.0" stroke-width="0.5" x1="444.3766" x2="443.388" y1="342.3899" y2="339.1016" /><line stroke="black" stroke-opacity="1.0" stroke-width="0.5" x1="443.388" x2="441.1884" y1="339.1016" y2="336.931" /><line stroke="black" stroke-opacity="1.0" stroke-width="0.5" x1="441.1884" x2="438.5145" y1="336.931" y2="336.1657" /><line stroke="black" stroke-opacity="1.0" stroke-width="0.5" x1="438.5145" x2="436.0723" y1="336.1657" y2="336.7149" /><line stroke="black" stroke-opacity="1.0" stroke-width="0.5" x1="436.0723" x2="434.3805" y1="336.7149" y2="338.2025" /><line stroke="black" stroke-opacity="1.0" stroke-width="0.5" x1="434.3805" x2="433.6861" y1="338.2025" y2="340.1075" /><line stroke="black" stroke-opacity="1.0" stroke-width="0.5" x1="433.6861" x2="433.9596" y1="340.1075" y2="341.9117" /><line stroke="black" stroke-opacity="1.0" stroke-width="0.5" x1="433.9596" x2="434.954" y1="341.9117" y2="343.2186" /><line stroke="black" stroke-opacity="1.0" stroke-width="0.5" x1="434.954" x2="436.3035" y1="343.2186" y2="343.8218" /><line stroke="black" stroke-opacity="1.0" stroke-width="0.5" x1="436.3035" x2="437.6295" y1="343.8218" y2="343.716" /><line stroke="black" stroke-opacity="1.0" stroke-width="0.5" x1="437.6295" x2="438.6312" y1="343.716" y2="343.0602" /><line stroke="black" stroke-opacity="1.0" stroke-width="0.5" x1="438.6312" x2="439.1394" y1="343.0602" y2="342.1101" /><line stroke="black" stroke-opacity="1.0" stroke-width="0.5" x1="439.1394" x2="439.1308" y1="342.1101" y2="341.1403" /><line stroke="black" stroke-opacity="1.0" stroke-width="0.5" x1="439.1308" x2="438.7056" y1="341.1403" y2="340.3781" /><line stroke="black" stroke-opacity="1.0" stroke-width="0.5" x1="438.7056" x2="438.0409" y1="340.3781" y2="339.9596" /><line stroke="black" stroke-opacity="1.0" stroke-width="0.5" x1="438.0409" x2="437.3353" y1="339.9596" y2="339.9158" /><line stroke="black" stroke-opacity="1.0" stroke-width="0.5" x1="437.3353" x2="436.7591" y1="339.9158" y2="340.1857" /><line stroke="black" stroke-opacity="1.0" stroke-width="0.5" x1="436.7591" x2="436.4205" y1="340.1857" y2="340.6475" /><line stroke="black" stroke-opacity="1.0" stroke-width="0.5" x1="436.4205" x2="436.3523" y1="340.6475" y2="341.1583" /><line stroke="black" stroke-opacity="1.0" stroke-width="0.5" x1="436.3523" x2="436.5188" y1="341.1583" y2="341.5912" /><line stroke="black" stroke-opacity="1.0" stroke-width="0.5" x1="436.5188" x2="436.8371" y1="341.5912" y2="341.8613" /><line stroke="black" stroke-opacity="1.0" stroke-width="0.5" x1="436.8371" x2="437.2051" y1="341.8613" y2="341.9372" /><line stroke="black" stroke-opacity="1.0" stroke-width="0.5" x1="437.2051" x2="437.5285" y1="341.9372" y2="341.8384" /><line stroke="black" stroke-opacity="1.0" stroke-width="0.5" x1="437.5285" x2="437.7413" y1="341.8384" y2="341.6209" /><line stroke="black" stroke-opacity="1.0" stroke-width="0.5" x1="437.7413" x2="437.8155" y1="341.6209" y2="341.3572" /><line stroke="black" stroke-opacity="1.0" stroke-width="0.5" x1="437.8155" x2="437.7603" y1="341.3572" y2="341.117" /><line stroke="black" stroke-opacity="1.0" stroke-width="0.5" x1="437.7603" x2="437.6131" y1="341.117" y2="340.951" /><line stroke="black" stroke-opacity="1.0" stroke-width="0.5" x1="437.6131" x2="437.4252" y1="340.951" y2="340.8835" /><line stroke="black" stroke-opacity="1.0" stroke-width="0.5" x1="437.4252" x2="437.2476" y1="340.8835" y2="340.9112" /><line stroke="black" stroke-opacity="1.0" stroke-width="0.5" x1="437.2476" x2="437.1194" y1="340.9112" y2="341.0097" /><line stroke="black" stroke-opacity="1.0" stroke-width="0.5" x1="437.1194" x2="437.0606" y1="341.0097" y2="341.1428" /><line stroke="black" stroke-opacity="1.0" stroke-width="0.5" x1="437.0606" x2="437.0716" y1="341.1428" y2="341.2734" /><line stroke="black" stroke-opacity="1.0" stroke-width="0.5" x1="437.0716" x2="437.1366" y1="341.2734" y2="341.3717" /><line stroke="black" stroke-opacity="1.0" stroke-width="0.5" x1="437.1366" x2="437.2304" y1="341.3717" y2="341.4214" /><line stroke="black" stroke-opacity="1.0" stroke-width="0.5" x1="437.2304" x2="437.3259" y1="341.4214" y2="341.4201" /><line stroke="black" stroke-opacity="1.0" stroke-width="0.5" x1="437.3259" x2="437.4007" y1="341.4201" y2="341.3779" /><line stroke="black" stroke-opacity="1.0" stroke-width="0.5" x1="437.4007" x2="437.4417" y1="341.3779" y2="341.3123" /><line stroke="black" stroke-opacity="1.0" stroke-width="0.5" x1="437.4417" x2="437.4457" y1="341.3123" y2="341.2427" /><line stroke="black" stroke-opacity="1.0" stroke-width="0.5" x1="437.4457" x2="437.4188" y1="341.2427" y2="341.1861" /><line stroke="black" stroke-opacity="1.0" stroke-width="0.5" x1="437.4188" x2="437.3732" y1="341.1861" y2="341.153" /><line stroke="black" stroke-opacity="1.0" stroke-width="0.5" x1="437.3732" x2="437.3229" y1="341.153" y2="341.1465" /><line stroke="black" stroke-opacity="1.0" stroke-width="0.5" x1="437.3229" x2="437.2803" y1="341.1465" y2="341.1631" /><line stroke="black" stroke-opacity="1.0" stroke-width="0.5" x1="437.2803" x2="437.2539" y1="341.1631" y2="341.1945" /><line stroke="black" stroke-opacity="1.0" stroke-width="0.5" x1="437.2539" x2="437.2465" y1="341.1945" y2="341.2308" /><line stroke="black" stroke-opacity="1.0" stroke-width="0.5" x1="437.2465" x2="437.2564" y1="341.2308" y2="341.2626" /><line stroke="black" stroke-opacity="1.0" stroke-width="0.5" x1="437.2564" x2="437.2779" y1="341.2626" y2="341.2835" /><line stroke="black" stroke-opacity="1.0" stroke-width="0.5" x1="437.2779" x2="437.3039" y1="341.2835" y2="341.2907" /><line stroke="black" stroke-opacity="1.0" stroke-width="0.5" x1="437.3039" x2="437.3276" y1="341.2907" y2="341.2851" /><line stroke="black" stroke-opacity="1.0" stroke-width="0.5" x1="437.3276" x2="437.3438" y1="341.2851" y2="341.2706" /><line stroke="black" stroke-opacity="1.0" stroke-width="0.5" x1="437.3438" x2="437.3504" y1="341.2706" y2="341.252" /><line stroke="black" stroke-opacity="1.0" stroke-width="0.5" x1="437.3504" x2="437.3476" y1="341.252" y2="341.2346" /><line stroke="black" stroke-opacity="1.0" stroke-width="0.5" x1="437.3476" x2="437.3378" y1="341.2346" y2="341.222" /><line stroke="black" stroke-opacity="1.0" stroke-width="0.5" x1="437.3378" x2="437.3247" y1="341.222" y2="341.2162" /><line stroke="black" stroke-opacity="1.0" stroke-width="0.5" x1="437.3247" x2="437.3119" y1="341.2162" y2="341.2174" /><line stroke="black" stroke-opacity="1.0" stroke-width="0.5" x1="437.3119" x2="437.3022" y1="341.2174" y2="341.2238" /><line stroke="black" stroke-opacity="1.0" stroke-width="0.5" x1="437.3022" x2="437.2974" y1="341.2238" y2="341.2331" /><line stroke="black" stroke-opacity="1.0" stroke-width="0.5" x1="437.2974" x2="437.2975" y1="341.2331" y2="341.2425" /><line stroke="black" stroke-opacity="1.0" stroke-width="0.5" x1="437.2975" x2="437.3017" y1="341.2425" y2="341.2498" /><line stroke="black" stroke-opacity="1.0" stroke-width="0.5" x1="437.3017" x2="437.3082" y1="341.2498" y2="341.2538" /><line stroke="black" stroke-opacity="1.0" stroke-width="0.5" x1="437.3082" x2="437.315" y1="341.2538" y2="341.2542" /><line stroke="black" stroke-opacity="1.0" stroke-width="0.5" x1="437.315" x2="437.3206" y1="341.2542" y2="341.2515" /><line stroke="black" stroke-opacity="1.0" stroke-width="0.5" x1="437.3206" x2="437.3238" y1="341.2515" y2="341.247" /><line stroke="black" stroke-opacity="1.0" stroke-width="0.5" x1="437.3238" x2="437.3245" y1="341.247" y2="341.2421" /><line stroke="black" stroke-opacity="1.0" stroke-width="0.5" x1="437.3245" x2="437.3228" y1="341.2421" y2="341.2379" /><line stroke="black" stroke-opacity="1.0" stroke-width="0.5" x1="437.3228" x2="437.3197" y1="341.2379" y2="341.2353" /><line stroke="black" stroke-opacity="1.0" stroke-width="0.5" x1="437.3197" x2="437.3161" y1="341.2353" y2="341.2346" /><line stroke="black" stroke-opacity="1.0" stroke-width="0.5" x1="437.3161" x2="437.313" y1="341.2346" y2="341.2356" /><line stroke="black" stroke-opacity="1.0" stroke-width="0.5" x1="437.313" x2="437.311" y1="341.2356" y2="341.2377" /><line stroke="black" stroke-opacity="1.0" stroke-width="0.5" x1="437.311" x2="437.3103" y1="341.2377" y2="341.2403" /></svg>