<?xml version="1.0" encoding="utf-8" ?>
<svg baseProfile="tiny" height="500" version="1.2" width="500" xmlns="http://www.w3.org/2000/svg" xmlns:ev="http://www.w3.org/2001/xml-events" xmlns:xlink="http://www.w3.org/1999/xlink"><defs /><line stroke="black" stroke-opacity="1.0" stroke-width="0.5" x1="250.0" x2="250.0" y1="250.0" y2="350.0" /><line stroke="black" stroke-opacity="1.0" stroke-width="0.5" x1="250.0" x2="267.8802" y1="300.0" y2="388.206" /><line stroke="black" stroke-opacity="1.0" stroke-width="0.5" x1="258.9401" x2="290.483" y1="344.103" y2="418.7089" /><line stroke="black" stroke-opacity="1.0" stroke-width="0.5" x1="274.7116" x2="315.874" y1="381.406" y2="441.5729" /><line stroke="black" stroke-opacity="1.0" stroke-width="0.5" x1="295.2928" x2="342.3585" y1="411.4894" y2="457.2004" /><line stroke="black" stroke-opacity="1.0" stroke-width="0.5" x1="318.8256" x2="368.5137" y1="434.3449" y2="466.2492" /><line stroke="black" stroke-opacity="1.0" stroke-width="0.5" x1="343.6697" x2="393.202" y1="450.2971" y2="469.5542" /><line stroke="black" stroke-opacity="1.0" stroke-width="0.5" x1="368.4358" x2="415.5696" y1="459.9257" y2="468.0551" /><line stroke="black" stroke-opacity="1.0" stroke-width="0.5" x1="392.0027" x2="435.0311" y1="463.9904" y2="462.7335" /><line stroke="black" stroke-opacity="1.0" stroke-width="0.5" x1="413.5169" x2="451.2458" y1="463.3619" y2="454.5596" /><line stroke="black" stroke-opacity="1.0" stroke-width="0.5" x1="432.3813" x2="464.0866" y1="458.9608" y2="444.4506" /><line stroke="black" stroke-opacity="1.0" stroke-width="0.5" x1="448.234" x2="473.6054" y1="451.7057" y2="433.2379" /><line stroke="black" stroke-opacity="1.0" stroke-width="0.5" x1="460.9197" x2="479.9968" y1="442.4718" y2="421.6456" /><line stroke="black" stroke-opacity="1.0" stroke-width="0.5" x1="470.4582" x2="483.5616" y1="432.0587" y2="410.2778" /><line stroke="black" stroke-opacity="1.0" stroke-width="0.5" x1="477.0099" x2="484.6734" y1="421.1683" y2="399.6132" /><line stroke="black" stroke-opacity="1.0" stroke-width="0.5" x1="480.8416" x2="483.7472" y1="410.3907" y2="390.0077" /><line stroke="black" stroke-opacity="1.0" stroke-width="0.5" x1="482.2944" x2="481.2127" y1="400.1992" y2="381.7006" /><line stroke="black" stroke-opacity="1.0" stroke-width="0.5" x1="481.7536" x2="477.4919" y1="390.9499" y2="374.8264" /><line stroke="black" stroke-opacity="1.0" stroke-width="0.5" x1="479.6227" x2="472.9807" y1="382.8882" y2="369.4283" /><line stroke="black" stroke-opacity="1.0" stroke-width="0.5" x1="476.3017" x2="468.0364" y1="376.1582" y2="365.4734" /><line stroke="black" stroke-opacity="1.0" stroke-width="0.5" x1="472.1691" x2="462.9681" y1="370.8158" y2="362.8691" /><line stroke="black" stroke-opacity="1.0" stroke-width="0.5" x1="467.5686" x2="458.0319" y1="366.8424" y2="361.4781" /><line stroke="black" stroke-opacity="1.0" stroke-width="0.5" x1="462.8002" x2="453.4291" y1="364.1603" y2="361.1337" /><line stroke="black" stroke-opacity="1.0" stroke-width="0.5" x1="458.1147" x2="449.3077" y1="362.647" y2="361.653" /><line stroke="black" stroke-opacity="1.0" stroke-width="0.5" x1="453.7112" x2="445.7651" y1="362.15" y2="362.8479" /><line stroke="black" stroke-opacity="1.0" stroke-width="0.5" x1="449.7382" x2="442.8541" y1="362.499" y2="364.5354" /><line stroke="black" stroke-opacity="1.0" stroke-width="0.5" x1="446.2961" x2="440.588" y1="363.5172" y2="366.5443" /><line stroke="black" stroke-opacity="1.0" stroke-width="0.5" x1="443.4421" x2="438.9485" y1="365.0307" y2="368.7215" /><line stroke="black" stroke-opacity="1.0" stroke-width="0.5" x1="441.1953" x2="437.8915" y1="366.8761" y2="370.935" /><line stroke="black" stroke-opacity="1.0" stroke-width="0.5" x1="439.5434" x2="437.3551" y1="368.9055" y2="373.0765" /><line stroke="black" stroke-opacity="1.0" stroke-width="0.5" x1="438.4492" x2="437.2648" y1="370.991" y2="375.0613" /><line stroke="black" stroke-opacity="1.0" stroke-width="0.5" x1="437.857" x2="437.54" y1="373.0261" y2="376.8281" /><line stroke="black" stroke-opacity="1.0" stroke-width="0.5" x1="437.6985" x2="438.0987" y1="374.9271" y2="378.3374" /><line stroke="black" stroke-opacity="1.0" stroke-width="0.5" x1="437.8986" x2="438.8614" y1="376.6323" y2="379.5688" /><line stroke="black" stroke-opacity="1.0" stroke-width="0.5" x1="438.38" x2="439.7542" y1="378.1005" y2="380.5186" /><line stroke="black" stroke-opacity="1.0" stroke-width="0.5" x1="439.0671" x2="440.7116" y1="379.3096" y2="381.1967" /><line stroke="black" stroke-opacity="1.0" stroke-width="0.5" x1="439.8894" x2="441.6774" y1="380.2531" y2="381.6236" /><line stroke="black" stroke-opacity="1.0" stroke-width="0.5" x1="440.7834" x2="442.6056" y1="380.9384" y2="381.8276" /><line stroke="black" stroke-opacity="1.0" stroke-width="0.5" x1="441.6945" x2="443.4607" y1="381.383" y2="381.8415" /><line stroke="black" stroke-opacity="1.0" stroke-width="0.5" x1="442.5776" x2="444.2175" y1="381.6122" y2="381.7008" /><line stroke="black" stroke-opacity="1.0" stroke-width="0.5" x1="443.3976" x2="444.8599" y1="381.6565" y2="381.4415" /><line stroke="black" stroke-opacity="1.0" stroke-width="0.5" x1="444.1287" x2="445.3802" y1="381.549" y2="381.0978" /><line stroke="black" stroke-opacity="1.0" stroke-width="0.5" x1="444.7545" x2="445.7776" y1="381.3234" y2="380.7017" /><line stroke="black" stroke-opacity="1.0" stroke-width="0.5" x1="445.266" x2="446.0574" y1="381.0126" y2="380.2812" /><line stroke="black" stroke-opacity="1.0" stroke-width="0.5" x1="445.6617" x2="446.229" y1="380.6469" y2="379.8603" /><line stroke="black" stroke-opacity="1.0" stroke-width="0.5" x1="445.9453" x2="446.305" y1="380.2536" y2="379.4584" /><line stroke="black" stroke-opacity="1.0" stroke-width="0.5" x1="446.1252" x2="446.3003" y1="379.856" y2="379.0902" /><line stroke="black" stroke-opacity="1.0" stroke-width="0.5" x1="446.2127" x2="446.2302" y1="379.4731" y2="378.7664" /><line stroke="black" stroke-opacity="1.0" stroke-width="0.5" x1="446.2215" x2="446.1106" y1="379.1197" y2="378.4932" /><line stroke="black" stroke-opacity="1.0" stroke-width="0.5" x1="446.166" x2="445.9562" y1="378.8065" y2="378.2737" /><line stroke="black" stroke-opacity="1.0" stroke-width="0.5" x1="446.0611" x2="445.7807" y1="378.5401" y2="378.1076" /><line stroke="black" stroke-opacity="1.0" stroke-width="0.5" x1="445.9209" x2="445.5963" y1="378.3239" y2="377.9925" /><line stroke="black" stroke-opacity="1.0" stroke-width="0.5" x1="445.7586" x2="445.413" y1="378.1582" y2="377.924" /><line stroke="black" stroke-opacity="1.0" stroke-width="0.5" x1="445.5858" x2="445.2391" y1="378.0411" y2="377.8963" /><line stroke="black" stroke-opacity="1.0" stroke-width="0.5" x1="445.4124" x2="445.0808" y1="377.9687" y2="377.903" /><line stroke="black" stroke-opacity="1.0" stroke-width="0.5" x1="445.2466" x2="444.9423" y1="377.9359" y2="377.9372" /><line stroke="black" stroke-opacity="1.0" stroke-width="0.5" x1="445.0944" x2="444.8263" y1="377.9365" y2="377.9921" /><line stroke="black" stroke-opacity="1.0" stroke-width="0.5" x1="444.9603" x2="444.7337" y1="377.9643" y2="378.0613" /><line stroke="black" stroke-opacity="1.0" stroke-width="0.5" x1="444.847" x2="444.6645" y1="378.0128" y2="378.1389" /><line stroke="black" stroke-opacity="1.0" stroke-width="0.5" x1="444.7558" x2="444.6173" y1="378.0759" y2="378.2197" /><line stroke="black" stroke-opacity="1.0" stroke-width="0.5" x1="444.6865" x2="444.5901" y1="378.1478" y2="378.2994" /><line stroke="black" stroke-opacity="1.0" stroke-width="0.5" x1="444.6383" x2="444.5804" y1="378.2236" y2="378.3746" /><line stroke="black" stroke-opacity="1.0" stroke-width="0.5" x1="444.6093" x2="444.5852" y1="378.2991" y2="378.4427" /><line stroke="black" stroke-opacity="1.0" stroke-width="0.5" x1="444.5973" x2="444.6017" y1="378.3709" y2="378.5018" /><line stroke="black" stroke-opacity="1.0" stroke-width="0.5" x1="444.5995" x2="444.6268" y1="378.4364" y2="378.5511" /><line stroke="black" stroke-opacity="1.0" stroke-width="0.5" x1="444.6131" x2="444.6577" y1="378.4937" y2="378.59" /><line stroke="black" stroke-opacity="1.0" stroke-width="0.5" x1="444.6354" x2="444.692" y1="378.5418" y2="378.6188" /><line stroke="black" stroke-opacity="1.0" stroke-width="0.5" x1="444.6637" x2="444.7273" y1="378.5803" y2="378.6381" /><line stroke="black" stroke-opacity="1.0" stroke-width="0.5" x1="444.6955" x2="444.762" y1="378.6092" y2="378.6488" /><line stroke="black" stroke-opacity="1.0" stroke-width="0.5" x1="444.7288" x2="444.7945" y1="378.629" y2="378.652" /><line stroke="black" stroke-opacity="1.0" stroke-width="0.5" x1="444.7616" x2="444.8237" y1="378.6405" y2="378.6491" /><line stroke="black" stroke-opacity="1.0" stroke-width="0.5" x1="444.7926" x2="444.8489" y1="378.6448" y2="378.6413" /><line stroke="black" stroke-opacity="1.0" stroke-width="0.5" x1="444.8208" x2="444.8698" y1="378.643" y2="378.6299" /><line stroke="black" stroke-opacity="1.0" stroke-width="0.5" x1="444.8453" x2="444.8862" y1="378.6364" y2="378.6161" /><line stroke="black" stroke-opacity="1.0" stroke-width="0.5" x1="444.8657" x2="444.8981" y1="378.6262" y2="378.601" /><line stroke="black" stroke-opacity="1.0" stroke-width="0.5" x1="444.8819" x2="444.906" y1="378.6136" y2="378.5855" /><line stroke="black" stroke-opacity="1.0" stroke-width="0.5" x1="444.894" x2="444.9102" y1="378.5995" y2="378.5705" /><line stroke="black" stroke-opacity="1.0" stroke-width="0.5" x1="444.9021" x2="444.9111" y1="378.585" y2="378.5564" /><line stroke="black" stroke-opacity="1.0" stroke-width="0.5" x1="444.9066" x2="444.9095" y1="378.5707" y2="378.5439" /><line stroke="black" stroke-opacity="1.0" stroke-width="0.5" x1="444.908" x2="444.9058" y1="378.5573" y2="378.5331" /><line stroke="black" stroke-opacity="1.0" stroke-width="0.5" x1="444.9069" x2="444.9006" y1="378.5452" y2="378.5243" /><line stroke="black" stroke-opacity="1.0" stroke-width="0.5" x1="444.9038" x2="444.8945" y1="378.5348" y2="378.5174" /><line stroke="black" stroke-opacity="1.0" stroke-width="0.5" x1="444.8991" x2="444.8879" y1="378.5261" y2="378.5125" /><line stroke="black" stroke-opacity="1.0" stroke-width="0.5" x1="444.8935" x2="444.8811" y1="378.5193" y2="378.5093" /><line stroke="black" stroke-opacity="1.0" stroke-width="0.5" x1="444.8873" x2="444.8746" y1="378.5143" y2="378.5077" /><line stroke="black" stroke-opacity="1.0" stroke-width="0.5" x1="444.8809" x2="444.8685" y1="378.511" y2="378.5074" /><line stroke="black" stroke-opacity="1.0" stroke-width="0.5" x1="444.8747" x2="444.8632" y1="378.5092" y2="378.5083" /><line stroke="black" stroke-opacity="1.0" stroke-width="0.5" x1="444.869" x2="444.8586" y1="378.5088" y2="378.51" /><line stroke="black" stroke-opacity="1.0" stroke-width="0.5" x1="444.8638" x2="444.8548" y1="378.5094" y2="378.5124" /><line stroke="black" stroke-opacity="1.0" stroke-width="0.5" x1="444.8593" x2="444.852" y1="378.5109" y2="378.5151" /><line stroke="black" stroke-opacity="1.0" stroke-width="0.5" x1="444.8556" x2="444.8499" y1="378.513" y2="378.518" /><line stroke="black" stroke-opacity="1.0" stroke-width="0.5" x1="444.8528" x2="444.8486" y1="378.5155" y2="378.521" /><line stroke="black" stroke-opacity="1.0" stroke-width="0.5" x1="444.8507" x2="444.848" y1="378.5182" y2="378.5238" /><line stroke="black" stroke-opacity="1.0" stroke-width="0.5" x1="444.8494" x2="444.848" y1="378.521" y2="378.5264" /><line stroke="black" stroke-opacity="1.0" stroke-width="0.5" x1="444.8487" x2="444.8484" y1="378.5237" y2="378.5287" /><line stroke="black" stroke-opacity="1.0" stroke-width="0.5" x1="444.8485" x2="444.8492" y1="378.5262" y2="378.5306" /><line stroke="black" stroke-opacity="1.0" stroke-width="0.5" x1="444.8489" x2="444.8503" y1="378.5284" y2="378.5322" /><line stroke="black" stroke-opacity="1.0" stroke-width="0.5" x1="444.8496" x2="444.8515" y1="378.5303" y2="378.5334" /><line stroke="black" stroke-opacity="1.0" stroke-width="0.5" x1="444.8505" x2="444.8528" y1="378.5319" y2="378.5343" /><line stroke="black" stroke-opacity="1.0" stroke-width="0.5" x1="444.8517" x2="444.8541" y1="378.5331" y2="378.5348" /><line stroke="black" stroke-opacity="1.0" stroke-width="0.5" x1="444.8529" x2="444.8553" y1="378.5339" y2="378.535" /><line stroke="black" stroke-opacity="1.0" stroke-width="0.5" x1="444.8541" x2="444.8564" y1="378.5345" y2="378.535" /><line stroke="black" stroke-opacity="1.0" stroke-width="0.5" x1="444.8552" x2="444.8574" y1="378.5347" y2="378.5348" /><line stroke="black" stroke-opacity="1.0" stroke-width="0.5" x1="444.8563" x2="444.8582" y1="378.5347" y2="378.5344" /><line stroke="black" stroke-opacity="1.0" stroke-width="0.5" x1="444.8573" x2="444.8589" y1="378.5346" y2="378.5339" /><line stroke="black" stroke-opacity="1.0" stroke-width="0.5" x1="444.8581" x2="444.8594" y1="378.5343" y2="378.5334" /><line stroke="black" stroke-opacity="1.0" stroke-width="0.5" x1="444.8587" x2="444.8597" y1="378.5338" y2="378.5328" /><line stroke="black" stroke-opacity="1.0" stroke-width="0.5" x1="444.8592" x2="444.8599" y1="378.5333" y2="378.5323" /><line stroke="black" stroke-opacity="1.0" stroke-width="0.5" x1="444.8596" x2="444.86" y1="378.5328" y2="378.5317" /><line stroke="black" stroke-opacity="1.0" stroke-width="0.5" x1="444.8598" x2="444.86" y1="378.5323" y2="378.5313" /><line stroke="black" stroke-opacity="1.0" stroke-width="0.5" x1="444.8599" x2="444.8599" y1="378.5318" y2="378.5308" /><line stroke="black" stroke-opacity="1.0" stroke-width="0.5" x1="444.8599" x2="444.8597" y1="378.5313" y2="378.5305" /><line stroke="black" stroke-opacity="1.0" stroke-width="0.5" x1="444.8598" x2="444.8595" y1="378.5309" y2="378.5302" /><line stroke="black" stroke-opacity="1.0" stroke-width="0.5" x1="444.8597" x2="444.8593" y1="378.5305" y2="378.53" /><line stroke="black" stroke-opacity="1.0" stroke-width="0.5" x1="444.8595" x2="444.859" y1="378.5303" y2="378.5299" /><line stroke="black" stroke-opacity="1.0" stroke-width="0.5" x1="444.8592" x2="444.8588" y1="378.5301" y2="378.5298" /><line stroke="black" stroke-opacity="1.0" stroke-width="0.5" x1="444.859" x2="444.8586" y1="378.5299" y2="378.5297" /><line stroke="black" stroke-opacity="1.0" stroke-width="0.5" x1="444.8588" x2="444.8583" y1="378.5298" y2="378.5298" /><line stroke="black" stroke-opacity="1.0" stroke-width="0.5" x1="444.8586" x2="444.8582" y1="378.5298" y2="378.5298" /><line stroke="black" stroke-opacity="1.0" stroke-width="0.5" x1="444.8584" x2="444.858" y1="378.5298" y2="378.5299" /><line stroke="black" stroke-opacity="1.0" stroke-width="0.5" x1="444.8582" x2="444.8579" y1="378.5298" y2="378.53" /><line stroke="black" stroke-opacity="1.0" stroke-width="0.5" x1="444.858" x2="444.8578" y1="378.5299" y2="378.5301" /><line stroke="black" stroke-opacity="1.0" stroke-width="0.5" x1="444.8579" x2="444.8578" y1="378.53" y2="378.5302" /><line stroke="black" stroke-opacity="1.0" stroke-width="0.5" x1="444.8578" x2="444.8577" y1="378.5301" y2="378.5303" /><line stroke="black" stroke-opacity="1.0" stroke-width="0.5" x1="444.8578" x2="444.8577" y1="378.5302" y2="378.5304" /><line stroke="black" stroke-opacity="1.0" stroke-width="0.5" x1="444.8577" x2="444.8577" y1="378.5303" y2="378.5305" /><line stroke="black" stroke-opacity="1.0" stroke-width="0.5" x1="444.8577" x2="444.8577" y1="378.5304" y2="378.5306" /><line stroke="black" stroke-opacity="1.0" stroke-width="0.5" x1="444.8577" x2="444.8578" y1="378.5305" y2="378.5306" /><line stroke="black" stroke-opacity="1.0" stroke-width="0.5" x1="444.8578" x2="444.8578" y1="378.5306" y2="378.5307" /><line stroke="black" stroke-opacity="1.0" stroke-width="0.5" x1="444.8578" x2="444.8579" y1="378.5306" y2="378.5307" /><line stroke="black" stroke-opacity="1.0" stroke-width="0.5" x1="444.8578" x2="444.8579" y1="378.5307" y2="378.5307" /><line stroke="black" stroke-opacity="1.0" stroke-width="0.5" x1="444.8579" x2="444.858" y1="378.5307" y2="378.5307" /><line stroke="black" stroke-opacity="1.0" stroke-width="0.5" x1="444.8579" x2="444.858" y1="378.5307" y2="378.5308" /><line stroke="black" stroke-opacity="1.0" stroke-width="0.5" x1="444.858" x2="444.858" y1="378.5307" y2="378.5307" /><line stroke="black" stroke-opacity="1.0" stroke-width="0.5" x1="444.858" x2="444.8581" y1="378.5307" y2="378.5307" /><line stroke="black" stroke-opacity="1.0" stroke-width="0.5" x1="444.858" x2="444.8581" y1="378.5307" y2="378.5307" /><line stroke="black" stroke-opacity="1.0" stroke-width="0.5" x1="444.8581" x2="444.8581" y1="378.5307" y2="378.5307" /><line stroke="black" stroke-opacity="1.0" stroke-width="0.5" x1="444.8581" x2="444.8581" y1="378.5307" y2="378.5307" /><line stroke="black" stroke-opacity="1.0" stroke-width="0.5" x1="444.8581" x2="444.8581" y1="378.5307" y2="378.5307" /><line stroke="black" stroke-opacity="1.0" stroke-width="0.5" x1="444.8581" x2="444.8582" y1="378.5307" y2="378.5306" /><line stroke="black" stroke-opacity="1.0" stroke-width="0.5" x1="444.8581" x2="444.8582" y1="378.5307" y2="378.5306" /><line stroke="black" stroke-opacity="1.0" stroke-width="0.5" x1="444.8581" x2="444.8581" y1="378.5306" y2="378.5306" /><line stroke="black" stroke-opacity="1.0" stroke-width="0.5" x1="444.8581" x2="444.8581" y1="378.5306" y2="378.5306" /><line stroke="black" stroke-opacity="1.0" stroke-width="0.5" x1="444.8581" x2="444.8581" y1="378.5306" y2="378.5306" /><line stroke="black" stroke-opacity="1.0" stroke-width="0.5" x1="444.8581" x2="444.8581" y1="378.5306" y2="378.5306" /><line stroke="black" stroke-opacity="1.0" stroke-width="0.5" x1="444.8581" x2="444.8581" y1="378.5306" y2="378.5306" /><line stroke="black" stroke-opacity="1.0" stroke-width="0.5" x1="444.8581" x2="444.8581" y1="378.5306" y2="378.5306" /><line stroke="black" stroke-opacity="1.0" stroke-width="0.5" x1="444.8581" x2="444.8581" y1="378.5306" y2="378.5306" /><line stroke="black" stroke-opacity="1.0" stroke-width="0.5" x1="444.8581" x2="444.8581" y1="378.5306" y2="378.5306" /><line stroke="black" stroke-opacity="1.0" stroke-width="0.5" x1="444.8581" x2="444.8581" y1="378.5306" y2="378.5306" /><line stroke="black" stroke-opacity="1.0" stroke-width="0.5" x1="444.8581" x2="444.8581" y1="378.5306" y2="378.5306" /><line stroke="black" stroke-opacity="1.0" stroke-width="0.5" x1="444.8581" x2="444.8581" y1="378.5306" y2="378.5306" /><line stroke="black" stroke-opacity="1.0" stroke-width="0.5" x1="444.8581" x2="444.8581" y1="378.5306" y2="378.5306" /><line stroke="black" stroke-opacity="1.0" stroke-width="0.5" x1="444.8581" x2="444.8581" y1="378.5306" y2="378.5306" /><line stroke="black" stroke-opacity="1.0" stroke-width="0.5" x1="444.8581" x2="444.8581" y1="378.5306" y2="378.5306" /><line stroke="black" stroke-opacity="1.0" stroke-width="0.5" x1="444.8581" x2="444.8581" y1="378.5306" y2="378.5306" /><line stroke="black" stroke-opacity="1.0" stroke-width="0.5" x1="444.8581" x2="444.8581" y1="378.5306" y2="378.5306" /><line stroke="black" stroke-opacity="1.0" stroke-width="0.5" x1="444.8581" x2="444.8581" y1="378.5306" y2="378.5306" /><line stroke="black" stroke-opacity="1.0" stroke-width="0.5" x1="444.8581" x2="444.8581" y1="378.5306" y2="378.5306" /><line stroke="black" stroke-opacity="1.0" stroke-width="0.5" x1="444.8581" x2="444.8581" y1="378.5306" y2="378.5306" /><line stroke="black" stroke-opacity="1.0" stroke-width="0.5" x1="444.8581" x2="444.8581" y1="378.5306" y2="378.5306" /><line stroke="black" stroke-opacity="1.0" stroke-width="0.5" x1="444.8581" x2="444.8581" y1="378.5306" y2="378.5306" /><line stroke="black" stroke-opacity="1.0" stroke-width="0.5" x1="444.8581" x2="444.8581" y1="378.5306" y2="378.5306" /><line stroke="black" stroke-opacity="1.0" stroke-width="0.5" x1="444.8581" x2="444.8581" y1="378.5306" y2="378.5306" /><line stroke="black" stroke-opacity="1.0" stroke-width="0.5" x1="444.8581" x2="444.8581" y1="378.5306" y2="378.5306" /><line stroke="black" stroke-opacity="1.0" stroke-width="0.5" x1="444.8581" x2="444.8581" y1="378.5306" y2="378.5306" /><line stroke="black" stroke-opacity="1.0" stroke-width="0.5" x1="444.8581" x2="444.8581" y1="378.5306" y2="378.5306" /><line stroke="black" stroke-opacity="1.0" stroke-width="0.5" x1="444.8581" x2="444.8581" y1="378.5306" y2="378.5306" /><line stroke="black" stroke-opacity="1.0" stroke-width="0.5" x1="444.8581" x2="444.8581" y1="378.5306" y2="378.5306" /><line stroke="black" stroke-opacity="1.0" stroke-width="0.5" x1="444.8581" x2="444.8581" y1="378.5306" y2="378.5306" /><line stroke="black" stroke-opacity="1.0" stroke-width="0.5" x1="444.8581" x2="444.8581" y1="378.5306" y2="378.5306" /><line stroke="black" stroke-opacity="1.0" stroke-width="0.5" x1="444.8581" x2="444.8581" y1="378.5306" y2="378.5306" /><line stroke="black" stroke-opacity="1.0" stroke-width="0.5" x1="444.8581" x2="444.8581" y1="378.5306" y2="378.5306" /><line stroke="black" stroke-opacity="1.0" stroke-width="0.5" x1="444.8581" x2="444.8581" y1="378.5306" y2="378.5306" /><line stroke="black" stroke-opacity="1.0" stroke-width="0.5" x1="444.8581" x2="444.8581" y1="378.5306" y2="378.5306" /><line stroke="black" stroke-opacity="1.0" stroke-width="0.5" x1="444.8581" x2="444.8581" y1="378.5306" y2="378.5306" /><line stroke="black" stroke-opacity="1.0" stroke-width="0.5" x1="444.8581" x2="444.8581" y1="378.5306" y2="378.5306" /><line stroke="black" stroke-opacity="1.0" stroke-width="0.5" x1="444.8581" x2="444.8581" y1="378.5306" y2="378.5306" /><line stroke="black" stroke-opacity="1.0" stroke-width="0.5" x1="444.8581" x2="444.8581" y1="378.5306" y2="378.5306" /><line stroke="black" stroke-opacity="1.0" stroke-width="0.5" x1="444.8581" x2="444.8581" y1="378.5306" y2="378.5306" /><line stroke="black" stroke-opacity="1.0" stroke-width="0.5" x1="444.8581" x2="444.8581" y1="378.5306" y2="378.5306" /><line stroke="black" stroke-opacity="1.0" stroke-width="0.5" x1="444.8581" x2="444.8581" y1="378.5306" y2="378.5306" /><line stroke="black" stroke-opacity="1.0" stroke-width="0.5" x1="444.8581" x2="444.8581" y1="378.5306" y2="378.5306" /><line stroke="black" stroke-opacity="1.0" stroke-width="0.5" x1="444.8581" x2="444.8581" y1="378.5306" y2="378.5306" /><line stroke="black" stroke-opacity="1.0" stroke-width="0.5" x1="444.8581" x2="444.8581" y1="378.5306" y2="378.5306" /><line stroke="black" stroke-opacity="1.0" stroke-width="0.5" x1="444.8581" x2="444.8581" y1="378.5306" y2="378.5306" /><line stroke="black" stroke-opacity="1.0" stroke-width="0.5" x1="444.8581" x2="444.8581" y1="378.5306" y2="378.5306" /><line stroke="black" stroke-opacity="1.0" stroke-width="0.5" x1="444.8581" x2="444.8581" y1="378.5306" y2="378.5306" /><line stroke="black" stroke-opacity="1.0" stroke-width="0.5" x1="444.8581" x2="444.8581" y1="378.5306" y2="378.5306" /><line stroke="black" stroke-opacity="1.0" stroke-width="0.5" x1="444.8581" x2="444.8581" y1="378.5306" y2="378.5306" /><line stroke="black" stroke-opacity="1.0" stroke-width="0.5" x1="444.8581" x2="444.8581" y1="378.5306" y2="378.5306" /><line stroke="black" stroke-opacity="1.0" stroke-width="0.5" x1="444.8581" x2="444.8581" y1="378.5306" y2="378.5306" /><line stroke="black" stroke-opacity="1.0" stroke-width="0.5" x1="444.8581" x2="444.8581" y1="378.5306" y2="378.5306" /><line stroke="black" stroke-opacity="1.0" stroke-width="0.5" x1="444.8581" x2="444.8581" y1="378.5306" y2="378.5306" /><line stroke="black" stroke-opacity="1.0" stroke-width="0.5" x1="444.8581" x2="444.8581" y1="378.5306" y2="378.5306" /><line stroke="black" stroke-opacity="1.0" stroke-width="0.5" x1="444.8581" x2="444.8581" y1="378.5306" y2="378.5306" /><line stroke="black" stroke-opacity="1.0" stroke-width="0.5" x1="444.8581" x2="444.8581" y1="378.5306" y2="378.5306" /><line stroke="black" stroke-opacity="1.0" stroke-width="0.5" x1="444.8581" x2="444.8581" y1="378.5306" y2="378.5306" /><line stroke="black" stroke-opacity="1.0" stroke-width="0.5" x1="444.8581" x2="444.8581" y1="378.5306" y2="378.5306" /><line stroke="black" stroke-opacity="1.0" stroke-width="0.5" x1="444.8581" x2="444.8581" y1="378.5306" y2="378.5306" /><line stroke="black" stroke-opacity="1.0" stroke-width="0.5" x1="444.8581" x2="444.8581" y1="378.5306" y2="378.5306" /></svg>