<?xml version="1.0" encoding="utf-8" ?>
<svg baseProfile="tiny" height="500" version="1.2" width="500" xmlns="http://www.w3.org/2000/svg" xmlns:ev="http://www.w3.org/2001/xml-events" xmlns:xlink="http://www.w3.org/1999/xlink"><defs /><line stroke="black" stroke-opacity="1.0" stroke-width="0.5" x1="250.0" x2="250.0" y1="250.0" y2="350.0" /><line stroke="black" stroke-opacity="1.0" stroke-width="0.5" x1="250.0" x2="297.4631" y1="300.0" y2="386.8807" /><line stroke="black" stroke-opacity="1.0" stroke-width="0.5" x1="273.7316" x2="356.2041" y1="343.4403" y2="396.3954" /><line stroke="black" stroke-opacity="1.0" stroke-width="0.5" x1="314.9678" x2="411.7547" y1="369.9179" y2="376.7815" /><line stroke="black" stroke-opacity="1.0" stroke-width="0.5" x1="363.3613" x2="450.708" y1="373.3497" y2="333.3748" /><line stroke="black" stroke-opacity="1.0" stroke-width="0.5" x1="407.0346" x2="463.9487" y1="353.3622" y2="277.1743" /><line stroke="black" stroke-opacity="1.0" stroke-width="0.5" x1="435.4917" x2="448.7779" y1="315.2682" y2="222.0624" /><line stroke="black" stroke-opacity="1.0" stroke-width="0.5" x1="442.1348" x2="409.4395" y1="268.6653" y2="181.3814" /><line stroke="black" stroke-opacity="1.0" stroke-width="0.5" x1="425.7871" x2="355.9536" y1="225.0234" y2="164.7088" /><line stroke="black" stroke-opacity="1.0" stroke-width="0.5" x1="390.8704" x2="301.5713" y1="194.8661" y2="175.6095" /><line stroke="black" stroke-opacity="1.0" stroke-width="0.5" x1="346.2208" x2="259.4974" y1="185.2378" y2="210.8917" /><line stroke="black" stroke-opacity="1.0" stroke-width="0.5" x1="302.8591" x2="239.6894" y1="198.0647" y2="261.5147" /><line stroke="black" stroke-opacity="1.0" stroke-width="0.5" x1="271.2743" x2="246.5073" y1="229.7897" y2="314.8977" /><line stroke="black" stroke-opacity="1.0" stroke-width="0.5" x1="258.8908" x2="277.768" y1="272.3437" y2="358.0413" /><line stroke="black" stroke-opacity="1.0" stroke-width="0.5" x1="268.3294" x2="325.4048" y1="315.1925" y2="380.6875" /><line stroke="black" stroke-opacity="1.0" stroke-width="0.5" x1="296.8671" x2="377.5406" y1="347.94" y2="377.7527" /><line stroke="black" stroke-opacity="1.0" stroke-width="0.5" x1="337.2039" x2="421.4435" y1="362.8463" y2="350.4576" /><line stroke="black" stroke-opacity="1.0" stroke-width="0.5" x1="379.3237" x2="446.6316" y1="356.652" y2="305.9058" /><line stroke="black" stroke-opacity="1.0" stroke-width="0.5" x1="412.9777" x2="447.3695" y1="331.2789" y2="255.2438" /><line stroke="black" stroke-opacity="1.0" stroke-width="0.5" x1="430.1736" x2="423.9648" y1="293.2613" y2="210.8781" /><line stroke="black" stroke-opacity="1.0" stroke-width="0.5" x1="427.0692" x2="382.5733" y1="252.0697" y2="183.4415" /><line stroke="black" stroke-opacity="1.0" stroke-width="0.5" x1="404.8213" x2="333.5899" y1="217.7556" y2="179.2501" /><line stroke="black" stroke-opacity="1.0" stroke-width="0.5" x1="369.2056" x2="289.0433" y1="198.5028" y2="198.8576" /><line stroke="black" stroke-opacity="1.0" stroke-width="0.5" x1="329.1244" x2="259.6473" y1="198.6802" y2="237.036" /><line stroke="black" stroke-opacity="1.0" stroke-width="0.5" x1="294.3859" x2="252.2285" y1="217.8581" y2="284.1579" /><line stroke="black" stroke-opacity="1.0" stroke-width="0.5" x1="273.3072" x2="268.1485" y1="251.008" y2="328.6189" /><line stroke="black" stroke-opacity="1.0" stroke-width="0.5" x1="270.7279" x2="303.0825" y1="289.8134" y2="359.6907" /><line stroke="black" stroke-opacity="1.0" stroke-width="0.5" x1="286.9052" x2="348.1811" y1="324.7521" y2="370.1054" /><line stroke="black" stroke-opacity="1.0" stroke-width="0.5" x1="317.5432" x2="392.3062" y1="347.4287" y2="357.7486" /><line stroke="black" stroke-opacity="1.0" stroke-width="0.5" x1="354.9247" x2="424.7774" y1="352.5887" y2="326.0697" /><line stroke="black" stroke-opacity="1.0" stroke-width="0.5" x1="389.8511" x2="437.9529" y1="339.3292" y2="283.135" /><line stroke="black" stroke-opacity="1.0" stroke-width="0.5" x1="413.902" x2="429.0216" y1="311.2321" y2="239.5796" /><line stroke="black" stroke-opacity="1.0" stroke-width="0.5" x1="421.4618" x2="400.5894" y1="275.4059" y2="205.9774" /><line stroke="black" stroke-opacity="1.0" stroke-width="0.5" x1="411.0256" x2="359.9386" y1="240.6917" y2="190.2785" /><line stroke="black" stroke-opacity="1.0" stroke-width="0.5" x1="385.4821" x2="317.1697" y1="215.4851" y2="195.9332" /><line stroke="black" stroke-opacity="1.0" stroke-width="0.5" x1="351.3259" x2="282.6957" y1="205.7092" y2="221.1456" /><line stroke="black" stroke-opacity="1.0" stroke-width="0.5" x1="317.0108" x2="264.711" y1="213.4274" y2="259.4127" /><line stroke="black" stroke-opacity="1.0" stroke-width="0.5" x1="290.8609" x2="267.2486" y1="236.42" y2="301.1955" /><line stroke="black" stroke-opacity="1.0" stroke-width="0.5" x1="279.0548" x2="289.2847" y1="268.8078" y2="336.2923" /><line stroke="black" stroke-opacity="1.0" stroke-width="0.5" x1="284.1697" x2="325.0878" y1="302.55" y2="356.3255" /><line stroke="black" stroke-opacity="1.0" stroke-width="0.5" x1="304.6288" x2="365.7022" y1="329.4378" y2="356.7373" /><line stroke="black" stroke-opacity="1.0" stroke-width="0.5" x1="335.1655" x2="401.1838" y1="343.0876" y2="337.8182" /><line stroke="black" stroke-opacity="1.0" stroke-width="0.5" x1="368.1746" x2="423.0307" y1="340.4529" y2="304.5405" /><line stroke="black" stroke-opacity="1.0" stroke-width="0.5" x1="395.6027" x2="426.2169" y1="322.4967" y2="265.2594" /><line stroke="black" stroke-opacity="1.0" stroke-width="0.5" x1="410.9098" x2="410.341" y1="293.878" y2="229.6194" /><line stroke="black" stroke-opacity="1.0" stroke-width="0.5" x1="410.6254" x2="379.6321" y1="261.7487" y2="206.1903" /><line stroke="black" stroke-opacity="1.0" stroke-width="0.5" x1="395.1287" x2="341.8318" y1="233.9695" y2="200.4104" /><line stroke="black" stroke-opacity="1.0" stroke-width="0.5" x1="368.4802" x2="306.2473" y1="217.19" y2="213.33" /><line stroke="black" stroke-opacity="1.0" stroke-width="0.5" x1="337.3638" x2="281.4633" y1="215.26" y2="241.4442" /><line stroke="black" stroke-opacity="1.0" stroke-width="0.5" x1="309.4135" x2="273.2747" y1="228.3521" y2="277.6331" /><line stroke="black" stroke-opacity="1.0" stroke-width="0.5" x1="291.3441" x2="283.3367" y1="252.9926" y2="312.961" /><line stroke="black" stroke-opacity="1.0" stroke-width="0.5" x1="287.3404" x2="308.8464" y1="282.9768" y2="338.8783" /><line stroke="black" stroke-opacity="1.0" stroke-width="0.5" x1="298.0934" x2="343.3106" y1="310.9275" y2="349.2877" /><line stroke="black" stroke-opacity="1.0" stroke-width="0.5" x1="320.702" x2="378.1939" y1="330.1076" y2="341.9737" /><line stroke="black" stroke-opacity="1.0" stroke-width="0.5" x1="349.448" x2="405.0293" y1="336.0406" y2="319.0625" /><line stroke="black" stroke-opacity="1.0" stroke-width="0.5" x1="377.2386" x2="417.4697" y1="327.5516" y2="286.4202" /><line stroke="black" stroke-opacity="1.0" stroke-width="0.5" x1="397.3542" x2="412.785" y1="306.9859" y2="252.1558" /><line stroke="black" stroke-opacity="1.0" stroke-width="0.5" x1="405.0696" x2="392.4519" y1="279.5708" y2="224.6101" /><line stroke="black" stroke-opacity="1.0" stroke-width="0.5" x1="398.7608" x2="361.7123" y1="252.0904" y2="210.3289" /><line stroke="black" stroke-opacity="1.0" stroke-width="0.5" x1="380.2365" x2="328.2273" y1="231.2097" y2="212.5113" /><line stroke="black" stroke-opacity="1.0" stroke-width="0.5" x1="354.2319" x2="300.1711" y1="221.8605" y2="230.3005" /><line stroke="black" stroke-opacity="1.0" stroke-width="0.5" x1="327.2015" x2="284.239" y1="226.0805" y2="259.0722" /><line stroke="black" stroke-opacity="1.0" stroke-width="0.5" x1="305.7202" x2="284.053" y1="242.5763" y2="291.6311" /><line stroke="black" stroke-opacity="1.0" stroke-width="0.5" x1="294.8866" x2="299.3449" y1="267.1037" y2="320.0067" /><line stroke="black" stroke-opacity="1.0" stroke-width="0.5" x1="297.1157" x2="326.0985" y1="293.5552" y2="337.4017" /><line stroke="black" stroke-opacity="1.0" stroke-width="0.5" x1="311.6071" x2="357.5985" y1="315.4785" y2="339.8164" /><line stroke="black" stroke-opacity="1.0" stroke-width="0.5" x1="334.6028" x2="386.112" y1="327.6474" y2="326.9635" /><line stroke="black" stroke-opacity="1.0" stroke-width="0.5" x1="360.3574" x2="404.7843" y1="327.3055" y2="302.2634" /><line stroke="black" stroke-opacity="1.0" stroke-width="0.5" x1="382.5709" x2="409.2835" y1="314.7844" y2="271.9413" /><line stroke="black" stroke-opacity="1.0" stroke-width="0.5" x1="395.9272" x2="398.8006" y1="293.3629" y2="243.4618" /><line stroke="black" stroke-opacity="1.0" stroke-width="0.5" x1="397.3639" x2="376.1758" y1="268.4124" y2="223.6942" /><line stroke="black" stroke-opacity="1.0" stroke-width="0.5" x1="386.7698" x2="347.1368" y1="246.0533" y2="217.2584" /><line stroke="black" stroke-opacity="1.0" stroke-width="0.5" x1="366.9533" x2="318.8529" y1="231.6558" y2="225.4497" /><line stroke="black" stroke-opacity="1.0" stroke-width="0.5" x1="342.9031" x2="298.1675" y1="228.5528" y2="245.9908" /><line stroke="black" stroke-opacity="1.0" stroke-width="0.5" x1="320.5353" x2="289.9454" y1="237.2718" y2="273.655" /><line stroke="black" stroke-opacity="1.0" stroke-width="0.5" x1="305.2403" x2="295.9322" y1="255.4634" y2="301.5923" /><line stroke="black" stroke-opacity="1.0" stroke-width="0.5" x1="300.5863" x2="314.3935" y1="278.5278" y2="323.0229" /><line stroke="black" stroke-opacity="1.0" stroke-width="0.5" x1="307.4899" x2="340.6044" y1="300.7753" y2="332.8796" /><line stroke="black" stroke-opacity="1.0" stroke-width="0.5" x1="324.0472" x2="368.055" y1="316.8275" y2="329.0026" /><line stroke="black" stroke-opacity="1.0" stroke-width="0.5" x1="346.0511" x2="390.0641" y1="322.9151" y2="312.6054" /><line stroke="black" stroke-opacity="1.0" stroke-width="0.5" x1="368.0576" x2="401.4031" y1="317.7602" y2="287.9132" /><line stroke="black" stroke-opacity="1.0" stroke-width="0.5" x1="384.7304" x2="399.5349" y1="302.8367" y2="261.0786" /><line stroke="black" stroke-opacity="1.0" stroke-width="0.5" x1="392.1326" x2="385.1751" y1="281.9577" y2="238.6512" /><line stroke="black" stroke-opacity="1.0" stroke-width="0.5" x1="388.6539" x2="362.0546" y1="260.3045" y2="225.9818" /><line stroke="black" stroke-opacity="1.0" stroke-width="0.5" x1="375.3542" x2="335.954" y1="243.1431" y2="225.9482" /><line stroke="black" stroke-opacity="1.0" stroke-width="0.5" x1="355.6541" x2="313.2617" y1="234.5456" y2="238.3072" /><line stroke="black" stroke-opacity="1.0" stroke-width="0.5" x1="334.4579" x2="299.4124" y1="236.4264" y2="259.8152" /><line stroke="black" stroke-opacity="1.0" stroke-width="0.5" x1="316.9351" x2="297.5884" y1="248.1208" y2="285.0749" /><line stroke="black" stroke-opacity="1.0" stroke-width="0.5" x1="307.2618" x2="307.9928" y1="266.5978" y2="307.8863" /><line stroke="black" stroke-opacity="1.0" stroke-width="0.5" x1="307.6273" x2="327.8592" y1="287.2421" y2="322.7669" /><line stroke="black" stroke-opacity="1.0" stroke-width="0.5" x1="317.7432" x2="352.182" y1="305.0045" y2="326.2659" /><line stroke="black" stroke-opacity="1.0" stroke-width="0.5" x1="334.9626" x2="374.9746" y1="315.6352" y2="317.7616" /><line stroke="black" stroke-opacity="1.0" stroke-width="0.5" x1="354.9686" x2="390.7406" y1="316.6984" y2="299.5549" /><line stroke="black" stroke-opacity="1.0" stroke-width="0.5" x1="372.8546" x2="395.7966" y1="308.1266" y2="276.2537" /><line stroke="black" stroke-opacity="1.0" stroke-width="0.5" x1="384.3256" x2="389.1299" y1="292.1902" y2="253.6098" /><line stroke="black" stroke-opacity="1.0" stroke-width="0.5" x1="386.7278" x2="372.5903" y1="272.9" y2="237.1008" /><line stroke="black" stroke-opacity="1.0" stroke-width="0.5" x1="379.6591" x2="350.3849" y1="255.0004" y2="230.6079" /><line stroke="black" stroke-opacity="1.0" stroke-width="0.5" x1="365.022" x2="328.011" y1="242.8041" y2="235.5061" /><line stroke="black" stroke-opacity="1.0" stroke-width="0.5" x1="346.5165" x2="310.8972" y1="239.1551" y2="250.3812" /><line stroke="black" stroke-opacity="1.0" stroke-width="0.5" x1="328.7069" x2="303.0889" y1="244.7682" y2="271.4274" /><line stroke="black" stroke-opacity="1.0" stroke-width="0.5" x1="315.8979" x2="306.2941" y1="258.0978" y2="293.4187" /><line stroke="black" stroke-opacity="1.0" stroke-width="0.5" x1="311.096" x2="319.5165" y1="275.7582" y2="311.0035" /><line stroke="black" stroke-opacity="1.0" stroke-width="0.5" x1="315.3063" x2="339.3506" y1="293.3809" y2="320.0055" /><line stroke="black" stroke-opacity="1.0" stroke-width="0.5" x1="327.3284" x2="360.8552" y1="306.6932" y2="318.4127" /><line stroke="black" stroke-opacity="1.0" stroke-width="0.5" x1="344.0918" x2="378.7826" y1="312.5529" y2="306.822" /><line stroke="black" stroke-opacity="1.0" stroke-width="0.5" x1="361.4372" x2="388.8567" y1="309.6875" y2="288.2431" /><line stroke="black" stroke-opacity="1.0" stroke-width="0.5" x1="375.1469" x2="388.791" y1="298.9653" y2="267.3202" /><line stroke="black" stroke-opacity="1.0" stroke-width="0.5" x1="381.969" x2="378.8033" y1="283.1427" y2="249.1733" /><line stroke="black" stroke-opacity="1.0" stroke-width="0.5" x1="380.3861" x2="361.5128" y1="266.158" y2="238.1477" /><line stroke="black" stroke-opacity="1.0" stroke-width="0.5" x1="370.9494" x2="341.2576" y1="252.1529" y2="236.7752" /><line stroke="black" stroke-opacity="1.0" stroke-width="0.5" x1="356.1035" x2="323.0083" y1="244.464" y2="245.1965" /><line stroke="black" stroke-opacity="1.0" stroke-width="0.5" x1="339.5559" x2="311.1502" y1="244.8303" y2="261.1747" /><line stroke="black" stroke-opacity="1.0" stroke-width="0.5" x1="325.3531" x2="308.4316" y1="253.0025" y2="280.6848" /><line stroke="black" stroke-opacity="1.0" stroke-width="0.5" x1="316.8923" x2="315.3297" y1="266.8437" y2="298.9257" /><line stroke="black" stroke-opacity="1.0" stroke-width="0.5" x1="316.111" x2="329.9806" y1="282.8847" y2="311.4995" /><line stroke="black" stroke-opacity="1.0" stroke-width="0.5" x1="323.0458" x2="348.6772" y1="297.1921" y2="315.4699" /><line stroke="black" stroke-opacity="1.0" stroke-width="0.5" x1="335.8615" x2="366.8055" y1="306.331" y2="310.0454" /><line stroke="black" stroke-opacity="1.0" stroke-width="0.5" x1="351.3335" x2="379.9808" y1="308.1882" y2="296.7283" /><line stroke="black" stroke-opacity="1.0" stroke-width="0.5" x1="365.6572" x2="385.1069" y1="302.4582" y2="278.9049" /><line stroke="black" stroke-opacity="1.0" stroke-width="0.5" x1="375.382" x2="381.1009" y1="290.6815" y2="260.9868" /><line stroke="black" stroke-opacity="1.0" stroke-width="0.5" x1="378.2415" x2="369.1161" y1="275.8342" y2="247.3208" /><line stroke="black" stroke-opacity="1.0" stroke-width="0.5" x1="373.6788" x2="352.2172" y1="261.5775" y2="241.1361" /><line stroke="black" stroke-opacity="1.0" stroke-width="0.5" x1="362.948" x2="334.5999" y1="251.3568" y2="243.7835" /><line stroke="black" stroke-opacity="1.0" stroke-width="0.5" x1="348.7739" x2="320.5504" y1="247.5701" y2="254.4453" /><line stroke="black" stroke-opacity="1.0" stroke-width="0.5" x1="334.6622" x2="313.4045" y1="251.0077" y2="270.3767" /><line stroke="black" stroke-opacity="1.0" stroke-width="0.5" x1="324.0334" x2="314.7577" y1="260.6922" y2="287.6096" /><line stroke="black" stroke-opacity="1.0" stroke-width="0.5" x1="319.3955" x2="324.1126" y1="274.1509" y2="301.9395" /><line stroke="black" stroke-opacity="1.0" stroke-width="0.5" x1="321.7541" x2="339.0416" y1="288.0452" y2="309.9492" /><line stroke="black" stroke-opacity="1.0" stroke-width="0.5" x1="330.3979" x2="355.8137" y1="298.9972" y2="309.8223" /><line stroke="black" stroke-opacity="1.0" stroke-width="0.5" x1="343.1058" x2="370.3252" y1="304.4097" y2="301.7515" /><line stroke="black" stroke-opacity="1.0" stroke-width="0.5" x1="356.7155" x2="379.1022" y1="303.0806" y2="287.8519" /><line stroke="black" stroke-opacity="1.0" stroke-width="0.5" x1="367.9089" x2="380.1306" y1="295.4663" y2="271.6101" /><line stroke="black" stroke-opacity="1.0" stroke-width="0.5" x1="374.0197" x2="373.3152" y1="283.5382" y2="257.0109" /><line stroke="black" stroke-opacity="1.0" stroke-width="0.5" x1="373.6675" x2="360.4646" y1="270.2745" y2="247.5619" /><line stroke="black" stroke-opacity="1.0" stroke-width="0.5" x1="367.0661" x2="344.8152" y1="258.9182" y2="245.4518" /><line stroke="black" stroke-opacity="1.0" stroke-width="0.5" x1="355.9406" x2="330.2174" y1="252.185" y2="251.0462" /><line stroke="black" stroke-opacity="1.0" stroke-width="0.5" x1="343.079" x2="320.19" y1="251.6156" y2="262.8353" /><line stroke="black" stroke-opacity="1.0" stroke-width="0.5" x1="331.6345" x2="317.0735" y1="257.2254" y2="277.837" /><line stroke="black" stroke-opacity="1.0" stroke-width="0.5" x1="324.354" x2="321.4863" y1="267.5312" y2="292.3498" /><line stroke="black" stroke-opacity="1.0" stroke-width="0.5" x1="322.9201" x2="332.2083" y1="279.9405" y2="302.8642" /><line stroke="black" stroke-opacity="1.0" stroke-width="0.5" x1="327.5642" x2="346.5141" y1="291.4023" y2="306.9101" /><line stroke="black" stroke-opacity="1.0" stroke-width="0.5" x1="337.0391" x2="360.8634" y1="299.1562" y2="303.6353" /><line stroke="black" stroke-opacity="1.0" stroke-width="0.5" x1="348.9513" x2="371.7759" y1="301.3958" y2="293.9795" /><line stroke="black" stroke-opacity="1.0" stroke-width="0.5" x1="360.3636" x2="376.6737" y1="297.6876" y2="280.411" /><line stroke="black" stroke-opacity="1.0" stroke-width="0.5" x1="368.5187" x2="374.489" y1="289.0493" y2="266.298" /><line stroke="black" stroke-opacity="1.0" stroke-width="0.5" x1="371.5038" x2="365.8924" y1="277.6736" y2="255.0734" /><line stroke="black" stroke-opacity="1.0" stroke-width="0.5" x1="368.6981" x2="353.0961" y1="266.3735" y2="249.4016" /><line stroke="black" stroke-opacity="1.0" stroke-width="0.5" x1="360.8971" x2="339.2866" y1="257.8876" y2="250.5475" /><line stroke="black" stroke-opacity="1.0" stroke-width="0.5" x1="350.0919" x2="327.8327" y1="254.2175" y2="258.0975" /><line stroke="black" stroke-opacity="1.0" stroke-width="0.5" x1="338.9623" x2="321.4648" y1="256.1575" y2="270.0933" /><line stroke="black" stroke-opacity="1.0" stroke-width="0.5" x1="330.2136" x2="321.6261" y1="263.1254" y2="283.5378" /><line stroke="black" stroke-opacity="1.0" stroke-width="0.5" x1="325.9198" x2="328.1473" y1="273.3316" y2="295.1419" /><line stroke="black" stroke-opacity="1.0" stroke-width="0.5" x1="327.0335" x2="339.3206" y1="284.2367" y2="302.1284" /><line stroke="black" stroke-opacity="1.0" stroke-width="0.5" x1="333.1771" x2="352.3441" y1="293.1826" y2="302.8952" /><line stroke="black" stroke-opacity="1.0" stroke-width="0.5" x1="342.7606" x2="364.023" y1="298.0389" y2="297.3799" /><line stroke="black" stroke-opacity="1.0" stroke-width="0.5" x1="353.3918" x2="371.5519" y1="297.7094" y2="287.0451" /><line stroke="black" stroke-opacity="1.0" stroke-width="0.5" x1="362.4719" x2="373.1879" y1="292.3773" y2="274.4927" /><line stroke="black" stroke-opacity="1.0" stroke-width="0.5" x1="367.8299" x2="368.6515" y1="283.435" y2="262.8106" /><line stroke="black" stroke-opacity="1.0" stroke-width="0.5" x1="368.2407" x2="359.1655" y1="273.1228" y2="254.8142" /><line stroke="black" stroke-opacity="1.0" stroke-width="0.5" x1="363.7031" x2="347.1287" y1="263.9685" y2="252.3692" /><line stroke="black" stroke-opacity="1.0" stroke-width="0.5" x1="355.4159" x2="335.5106" y1="258.1689" y2="255.9581" /><line stroke="black" stroke-opacity="1.0" stroke-width="0.5" x1="345.4633" x2="327.1201" y1="257.0635" y2="264.5904" /><line stroke="black" stroke-opacity="1.0" stroke-width="0.5" x1="336.2917" x2="323.9275" y1="260.8269" y2="276.0726" /><line stroke="black" stroke-opacity="1.0" stroke-width="0.5" x1="330.1096" x2="326.6036" y1="268.4498" y2="287.5638" /><line stroke="black" stroke-opacity="1.0" stroke-width="0.5" x1="328.3566" x2="334.3827" y1="278.0068" y2="296.2772" /><line stroke="black" stroke-opacity="1.0" stroke-width="0.5" x1="331.3696" x2="345.2768" y1="287.142" y2="300.1553" /><line stroke="black" stroke-opacity="1.0" stroke-width="0.5" x1="338.3232" x2="356.5824" y1="293.6486" y2="298.3539" /><line stroke="black" stroke-opacity="1.0" stroke-width="0.5" x1="347.4528" x2="365.5498" y1="296.0012" y2="291.4228" /><line stroke="black" stroke-opacity="1.0" stroke-width="0.5" x1="356.5013" x2="370.051" y1="293.712" y2="281.1449" /><line stroke="black" stroke-opacity="1.0" stroke-width="0.5" x1="363.2761" x2="369.0834" y1="287.4285" y2="270.0789" /><line stroke="black" stroke-opacity="1.0" stroke-width="0.5" x1="366.1798" x2="362.9906" y1="278.7537" y2="260.924" /><line stroke="black" stroke-opacity="1.0" stroke-width="0.5" x1="364.5852" x2="353.3519" y1="269.8388" y2="255.862" /><line stroke="black" stroke-opacity="1.0" stroke-width="0.5" x1="358.9685" x2="342.5751" y1="262.8504" y2="256.0389" /><line stroke="black" stroke-opacity="1.0" stroke-width="0.5" x1="350.7718" x2="333.2961" y1="259.4446" y2="261.3076" /><line stroke="black" stroke-opacity="1.0" stroke-width="0.5" x1="342.0339" x2="327.7351" y1="260.3761" y2="270.2892" /><line stroke="black" stroke-opacity="1.0" stroke-width="0.5" x1="334.8845" x2="327.1667" y1="265.3327" y2="280.7319" /><line stroke="black" stroke-opacity="1.0" stroke-width="0.5" x1="331.0256" x2="331.6293" y1="273.0323" y2="290.0743" /><line stroke="black" stroke-opacity="1.0" stroke-width="0.5" x1="331.3274" x2="339.9406" y1="281.5533" y2="296.073" /><line stroke="black" stroke-opacity="1.0" stroke-width="0.5" x1="335.634" x2="350.0087" y1="288.8132" y2="297.34" /><line stroke="black" stroke-opacity="1.0" stroke-width="0.5" x1="342.8213" x2="359.3572" y1="293.0766" y2="293.662" /><line stroke="black" stroke-opacity="1.0" stroke-width="0.5" x1="351.0893" x2="365.7337" y1="293.3693" y2="286.0295" /><line stroke="black" stroke-opacity="1.0" stroke-width="0.5" x1="358.4115" x2="367.6509" y1="289.6994" y2="276.3718" /><line stroke="black" stroke-opacity="1.0" stroke-width="0.5" x1="363.0312" x2="364.7328" y1="283.0356" y2="267.0712" /><line stroke="black" stroke-opacity="1.0" stroke-width="0.5" x1="363.882" x2="357.7832" y1="275.0534" y2="260.3758" /><line stroke="black" stroke-opacity="1.0" stroke-width="0.5" x1="360.8326" x2="348.5674" y1="267.7146" y2="257.8573" /><line stroke="black" stroke-opacity="1.0" stroke-width="0.5" x1="354.7" x2="339.3654" y1="262.786" y2="260.0433" /><line stroke="black" stroke-opacity="1.0" stroke-width="0.5" x1="347.0327" x2="332.4081" y1="261.4146" y2="266.3101" /><line stroke="black" stroke-opacity="1.0" stroke-width="0.5" x1="339.7204" x2="329.338" y1="263.8624" y2="275.0568" /><line stroke="black" stroke-opacity="1.0" stroke-width="0.5" x1="334.5292" x2="330.8221" y1="269.4596" y2="284.1133" /><line stroke="black" stroke-opacity="1.0" stroke-width="0.5" x1="332.6757" x2="336.41" y1="276.7864" y2="291.2771" /><line stroke="black" stroke-opacity="1.0" stroke-width="0.5" x1="334.5429" x2="344.665" y1="284.0318" y2="294.8489" /><line stroke="black" stroke-opacity="1.0" stroke-width="0.5" x1="339.6039" x2="353.5323" y1="289.4403" y2="294.0341" /><line stroke="black" stroke-opacity="1.0" stroke-width="0.5" x1="346.5681" x2="360.8495" y1="291.7372" y2="289.1174" /><line stroke="black" stroke-opacity="1.0" stroke-width="0.5" x1="353.7088" x2="364.8732" y1="290.4273" y2="281.3728" /><line stroke="black" stroke-opacity="1.0" stroke-width="0.5" x1="359.291" x2="364.6931" y1="285.9001" y2="272.7345" /><line stroke="black" stroke-opacity="1.0" stroke-width="0.5" x1="361.992" x2="360.4366" y1="279.3173" y2="265.315" /><line stroke="black" stroke-opacity="1.0" stroke-width="0.5" x1="361.2143" x2="353.2171" y1="272.3161" y2="260.8891" /><line stroke="black" stroke-opacity="1.0" stroke-width="0.5" x1="357.2157" x2="344.844" y1="266.6026" y2="260.4704" /><line stroke="black" stroke-opacity="1.0" stroke-width="0.5" x1="351.0298" x2="337.3707" y1="263.5365" y2="264.0809" /><line stroke="black" stroke-opacity="1.0" stroke-width="0.5" x1="344.2003" x2="332.5915" y1="263.8087" y2="270.7647" /><line stroke="black" stroke-opacity="1.0" stroke-width="0.5" x1="338.3959" x2="331.6116" y1="267.2867" y2="278.84" /><line stroke="black" stroke-opacity="1.0" stroke-width="0.5" x1="335.0037" x2="334.5931" y1="273.0634" y2="286.321" /><line stroke="black" stroke-opacity="1.0" stroke-width="0.5" x1="334.7984" x2="340.7341" y1="279.6922" y2="291.4054" /><line stroke="black" stroke-opacity="1.0" stroke-width="0.5" x1="337.7663" x2="348.4827" y1="285.5488" y2="292.908" /><line stroke="black" stroke-opacity="1.0" stroke-width="0.5" x1="343.1245" x2="355.9279" y1="289.2284" y2="290.5358" /><line stroke="black" stroke-opacity="1.0" stroke-width="0.5" x1="349.5262" x2="361.2705" y1="289.8821" y2="284.9411" /><line stroke="black" stroke-opacity="1.0" stroke-width="0.5" x1="355.3983" x2="363.2567" y1="287.4116" y2="277.5446" /><line stroke="black" stroke-opacity="1.0" stroke-width="0.5" x1="359.3275" x2="361.4717" y1="282.4781" y2="270.1758" /><line stroke="black" stroke-opacity="1.0" stroke-width="0.5" x1="360.3996" x2="356.4234" y1="276.3269" y2="264.6209" /><line stroke="black" stroke-opacity="1.0" stroke-width="0.5" x1="358.4115" x2="349.4009" y1="270.4739" y2="262.1909" /><line stroke="black" stroke-opacity="1.0" stroke-width="0.5" x1="353.9062" x2="342.1463" y1="266.3324" y2="263.4127" /><line stroke="black" stroke-opacity="1.0" stroke-width="0.5" x1="348.0263" x2="336.4235" y1="264.8726" y2="267.9175" /><line stroke="black" stroke-opacity="1.0" stroke-width="0.5" x1="342.2249" x2="333.5895" y1="266.395" y2="274.5476" /><line stroke="black" stroke-opacity="1.0" stroke-width="0.5" x1="337.9072" x2="334.2742" y1="270.4713" y2="281.6529" /><line stroke="black" stroke-opacity="1.0" stroke-width="0.5" x1="336.0907" x2="338.2414" y1="276.0621" y2="287.5011" /><line stroke="black" stroke-opacity="1.0" stroke-width="0.5" x1="337.1661" x2="344.464" y1="281.7816" y2="290.6991" /><line stroke="black" stroke-opacity="1.0" stroke-width="0.5" x1="340.815" x2="351.388" y1="286.2403" y2="290.5241" /><line stroke="black" stroke-opacity="1.0" stroke-width="0.5" x1="346.1015" x2="357.3205" y1="288.3822" y2="287.0857" /><line stroke="black" stroke-opacity="1.0" stroke-width="0.5" x1="351.711" x2="360.8428" y1="287.7339" y2="281.2826" /><line stroke="black" stroke-opacity="1.0" stroke-width="0.5" x1="356.2769" x2="361.1487" y1="284.5083" y2="274.5691" /><line stroke="black" stroke-opacity="1.0" stroke-width="0.5" x1="358.7128" x2="358.228" y1="279.5387" y2="268.5911" /><line stroke="black" stroke-opacity="1.0" stroke-width="0.5" x1="358.4704" x2="352.8531" y1="274.0649" y2="264.7837" /><line stroke="black" stroke-opacity="1.0" stroke-width="0.5" x1="355.6618" x2="346.3763" y1="269.4243" y2="264.0269" /><line stroke="black" stroke-opacity="1.0" stroke-width="0.5" x1="351.019" x2="340.39" y1="266.7256" y2="266.4434" /><line stroke="black" stroke-opacity="1.0" stroke-width="0.5" x1="345.7045" x2="336.336" y1="266.5845" y2="271.3842" /><line stroke="black" stroke-opacity="1.0" stroke-width="0.5" x1="341.0202" x2="335.1589" y1="268.9844" y2="277.601" /><line stroke="black" stroke-opacity="1.0" stroke-width="0.5" x1="338.0896" x2="337.0869" y1="273.2927" y2="283.5609" /><line stroke="black" stroke-opacity="1.0" stroke-width="0.5" x1="337.5883" x2="341.5908" y1="278.4268" y2="287.8237" /><line stroke="black" stroke-opacity="1.0" stroke-width="0.5" x1="339.5895" x2="347.527" y1="283.1253" y2="289.3897" /><line stroke="black" stroke-opacity="1.0" stroke-width="0.5" x1="343.5583" x2="353.4277" y1="286.2575" y2="287.9326" /><line stroke="black" stroke-opacity="1.0" stroke-width="0.5" x1="348.493" x2="357.8627" y1="287.0951" y2="283.8661" /><line stroke="black" stroke-opacity="1.0" stroke-width="0.5" x1="353.1778" x2="359.7858" y1="285.4806" y2="278.2281" /><line stroke="black" stroke-opacity="1.0" stroke-width="0.5" x1="356.4818" x2="358.7805" y1="281.8543" y2="272.417" /><line stroke="black" stroke-opacity="1.0" stroke-width="0.5" x1="357.6312" x2="355.1491" y1="277.1357" y2="267.8454" /><line stroke="black" stroke-opacity="1.0" stroke-width="0.5" x1="356.3901" x2="349.8242" y1="272.4905" y2="265.5972" /><line stroke="black" stroke-opacity="1.0" stroke-width="0.5" x1="353.1072" x2="344.1309" y1="269.0439" y2="266.1712" /><line stroke="black" stroke-opacity="1.0" stroke-width="0.5" x1="348.619" x2="339.4569" y1="267.6075" y2="269.3722" /><line stroke="black" stroke-opacity="1.0" stroke-width="0.5" x1="344.038" x2="336.9154" y1="268.4899" y2="274.3717" /><line stroke="black" stroke-opacity="1.0" stroke-width="0.5" x1="340.4767" x2="337.0803" y1="271.4308" y2="279.9215" /><line stroke="black" stroke-opacity="1.0" stroke-width="0.5" x1="338.7785" x2="339.8576" y1="275.6761" y2="284.665" /><line stroke="black" stroke-opacity="1.0" stroke-width="0.5" x1="339.318" x2="344.522" y1="280.1706" y2="287.468" /><line stroke="black" stroke-opacity="1.0" stroke-width="0.5" x1="341.92" x2="349.9048" y1="283.8193" y2="287.6893" /><line stroke="black" stroke-opacity="1.0" stroke-width="0.5" x1="345.9124" x2="354.6865" y1="285.7543" y2="285.3268" /><line stroke="black" stroke-opacity="1.0" stroke-width="0.5" x1="350.2994" x2="357.7195" y1="285.5406" y2="281.0047" /><line stroke="black" stroke-opacity="1.0" stroke-width="0.5" x1="354.0095" x2="358.3032" y1="283.2726" y2="275.81" /><line stroke="black" stroke-opacity="1.0" stroke-width="0.5" x1="356.1564" x2="356.3448" y1="279.5413" y2="271.0198" /><line stroke="black" stroke-opacity="1.0" stroke-width="0.5" x1="356.2506" x2="352.3698" y1="275.2806" y2="267.7876" /><line stroke="black" stroke-opacity="1.0" stroke-width="0.5" x1="354.3102" x2="347.3821" y1="271.5341" y2="266.8661" /><line stroke="black" stroke-opacity="1.0" stroke-width="0.5" x1="350.8461" x2="342.6114" y1="269.2001" y2="268.4328" /><line stroke="black" stroke-opacity="1.0" stroke-width="0.5" x1="346.7288" x2="339.2102" y1="268.8164" y2="272.0583" /><line stroke="black" stroke-opacity="1.0" stroke-width="0.5" x1="342.9695" x2="337.9759" y1="270.4373" y2="276.8224" /><line stroke="black" stroke-opacity="1.0" stroke-width="0.5" x1="340.4727" x2="339.1648" y1="273.6299" y2="281.5474" /><line stroke="black" stroke-opacity="1.0" stroke-width="0.5" x1="339.8188" x2="342.4404" y1="277.5886" y2="285.0882" /><line stroke="black" stroke-opacity="1.0" stroke-width="0.5" x1="341.1296" x2="346.9668" y1="281.3384" y2="286.6097" /><line stroke="black" stroke-opacity="1.0" stroke-width="0.5" x1="344.0482" x2="351.6215" y1="283.9741" y2="285.7833" /><line stroke="black" stroke-opacity="1.0" stroke-width="0.5" x1="347.8348" x2="355.2733" y1="284.8787" y2="282.856" /><line stroke="black" stroke-opacity="1.0" stroke-width="0.5" x1="351.5541" x2="357.0567" y1="283.8674" y2="278.5795" /><line stroke="black" stroke-opacity="1.0" stroke-width="0.5" x1="354.3054" x2="356.5763" y1="281.2234" y2="274.0176" /><line stroke="black" stroke-opacity="1.0" stroke-width="0.5" x1="355.4408" x2="353.9937" y1="277.6205" y2="270.2822" /><line stroke="black" stroke-opacity="1.0" stroke-width="0.5" x1="354.7173" x2="349.977" y1="273.9514" y2="268.2627" /><line stroke="black" stroke-opacity="1.0" stroke-width="0.5" x1="352.3472" x2="345.5288" y1="271.107" y2="268.4145" /><line stroke="black" stroke-opacity="1.0" stroke-width="0.5" x1="348.938" x2="341.7361" y1="269.7608" y2="270.6577" /><line stroke="black" stroke-opacity="1.0" stroke-width="0.5" x1="345.337" x2="339.5058" y1="270.2092" y2="274.4067" /><line stroke="black" stroke-opacity="1.0" stroke-width="0.5" x1="342.4214" x2="339.3474" y1="272.308" y2="278.7225" /><line stroke="black" stroke-opacity="1.0" stroke-width="0.5" x1="340.8844" x2="341.2582" y1="275.5152" y2="282.5472" /><line stroke="black" stroke-opacity="1.0" stroke-width="0.5" x1="341.0713" x2="344.7337" y1="279.0312" y2="284.9632" /><line stroke="black" stroke-opacity="1.0" stroke-width="0.5" x1="342.9025" x2="348.8999" y1="281.9972" y2="285.4127" /><line stroke="black" stroke-opacity="1.0" stroke-width="0.5" x1="345.9012" x2="352.7329" y1="283.705" y2="283.8258" /><line stroke="black" stroke-opacity="1.0" stroke-width="0.5" x1="349.317" x2="355.3098" y1="283.7654" y2="280.6279" /><line stroke="black" stroke-opacity="1.0" stroke-width="0.5" x1="352.3134" x2="356.0308" y1="282.1966" y2="276.6264" /><line stroke="black" stroke-opacity="1.0" stroke-width="0.5" x1="354.1721" x2="354.758" y1="279.4115" y2="272.8076" /><line stroke="black" stroke-opacity="1.0" stroke-width="0.5" x1="354.4651" x2="351.8397" y1="276.1096" y2="270.094" /><line stroke="black" stroke-opacity="1.0" stroke-width="0.5" x1="353.1524" x2="348.0162" y1="273.1018" y2="269.1215" /><line stroke="black" stroke-opacity="1.0" stroke-width="0.5" x1="350.5843" x2="344.2328" y1="271.1116" y2="270.0913" /><line stroke="black" stroke-opacity="1.0" stroke-width="0.5" x1="347.4085" x2="341.4061" y1="270.6015" y2="272.7296" /><line stroke="black" stroke-opacity="1.0" stroke-width="0.5" x1="344.4073" x2="340.2024" y1="271.6655" y2="276.3635" /><line stroke="black" stroke-opacity="1.0" stroke-width="0.5" x1="342.3049" x2="340.8814" y1="274.0145" y2="280.0919" /><line stroke="black" stroke-opacity="1.0" stroke-width="0.5" x1="341.5931" x2="343.2409" y1="277.0532" y2="283.0089" /><line stroke="black" stroke-opacity="1.0" stroke-width="0.5" x1="342.417" x2="346.6754" y1="280.031" y2="284.4233" /><line stroke="black" stroke-opacity="1.0" stroke-width="0.5" x1="344.5462" x2="350.3306" y1="282.2272" y2="284.022" /><line stroke="black" stroke-opacity="1.0" stroke-width="0.5" x1="347.4384" x2="353.3158" y1="283.1246" y2="281.9385" /><line stroke="black" stroke-opacity="1.0" stroke-width="0.5" x1="350.3771" x2="354.9205" y1="282.5316" y2="278.7115" /><line stroke="black" stroke-opacity="1.0" stroke-width="0.5" x1="352.6488" x2="354.783" y1="280.6215" y2="275.1462" /><line stroke="black" stroke-opacity="1.0" stroke-width="0.5" x1="353.7159" x2="352.9714" y1="277.8839" y2="272.1139" /><line stroke="black" stroke-opacity="1.0" stroke-width="0.5" x1="353.3436" x2="349.9581" y1="274.9989" y2="270.3393" /><line stroke="black" stroke-opacity="1.0" stroke-width="0.5" x1="351.6509" x2="346.498" y1="272.6691" y2="270.2276" /><line stroke="black" stroke-opacity="1.0" stroke-width="0.5" x1="349.0744" x2="343.4387" y1="271.4483" y2="271.7729" /><line stroke="black" stroke-opacity="1.0" stroke-width="0.5" x1="346.2566" x2="341.5143" y1="271.6106" y2="274.5675" /><line stroke="black" stroke-opacity="1.0" stroke-width="0.5" x1="343.8855" x2="341.1688" y1="273.0891" y2="277.9089" /><line stroke="black" stroke-opacity="1.0" stroke-width="0.5" x1="342.5271" x2="342.4545" y1="275.499" y2="280.9759" /><line stroke="black" stroke-opacity="1.0" stroke-width="0.5" x1="342.4908" x2="345.0272" y1="278.2374" y2="283.0302" /><line stroke="black" stroke-opacity="1.0" stroke-width="0.5" x1="343.759" x2="348.2375" y1="280.6338" y2="283.594" /><line stroke="black" stroke-opacity="1.0" stroke-width="0.5" x1="345.9982" x2="351.2941" y1="282.1139" y2="282.5601" /><line stroke="black" stroke-opacity="1.0" stroke-width="0.5" x1="348.6462" x2="353.4591" y1="282.337" y2="280.2111" /><line stroke="black" stroke-opacity="1.0" stroke-width="0.5" x1="351.0526" x2="354.2251" y1="281.2741" y2="277.1427" /><line stroke="black" stroke-opacity="1.0" stroke-width="0.5" x1="352.6389" x2="353.4342" y1="279.2084" y2="274.1133" /><line stroke="black" stroke-opacity="1.0" stroke-width="0.5" x1="353.0365" x2="351.3093" y1="276.6608" y2="271.8566" /><line stroke="black" stroke-opacity="1.0" stroke-width="0.5" x1="352.1729" x2="348.392" y1="274.2587" y2="270.9047" /><line stroke="black" stroke-opacity="1.0" stroke-width="0.5" x1="350.2825" x2="345.4057" y1="272.5817" y2="271.4622" /><line stroke="black" stroke-opacity="1.0" stroke-width="0.5" x1="347.8441" x2="343.0757" y1="272.0219" y2="273.364" /><line stroke="black" stroke-opacity="1.0" stroke-width="0.5" x1="345.4599" x2="341.9541" y1="272.6929" y2="276.1221" /></svg>