<?xml version="1.0" encoding="utf-8" ?>
<svg baseProfile="tiny" height="500" version="1.2" width="500" xmlns="http://www.w3.org/2000/svg" xmlns:ev="http://www.w3.org/2001/xml-events" xmlns:xlink="http://www.w3.org/1999/xlink"><defs /><line stroke="black" stroke-opacity="1.0" stroke-width="0.5" x1="250.0" x2="250.0" y1="250.0" y2="350.0" /><line stroke="black" stroke-opacity="1.0" stroke-width="0.5" x1="250.0" x2="297.4631" y1="300.0" y2="386.8807" /><line stroke="black" stroke-opacity="1.0" stroke-width="0.5" x1="273.7316" x2="356.2041" y1="343.4403" y2="396.3954" /><line stroke="black" stroke-opacity="1.0" stroke-width="0.5" x1="314.9678" x2="411.7547" y1="369.9179" y2="376.7815" /><line stroke="black" stroke-opacity="1.0" stroke-width="0.5" x1="363.3613" x2="450.708" y1="373.3497" y2="333.3748" /><line stroke="black" stroke-opacity="1.0" stroke-width="0.5" x1="407.0346" x2="463.9487" y1="353.3622" y2="277.1743" /><line stroke="black" stroke-opacity="1.0" stroke-width="0.5" x1="435.4917" x2="448.7779" y1="315.2682" y2="222.0624" /><line stroke="black" stroke-opacity="1.0" stroke-width="0.5" x1="442.1348" x2="409.4395" y1="268.6653" y2="181.3814" /><line stroke="black" stroke-opacity="1.0" stroke-width="0.5" x1="425.7871" x2="355.9536" y1="225.0234" y2="164.7088" /><line stroke="black" stroke-opacity="1.0" stroke-width="0.5" x1="390.8704" x2="301.5713" y1="194.8661" y2="175.6095" /><line stroke="black" stroke-opacity="1.0" stroke-width="0.5" x1="346.2208" x2="259.4974" y1="185.2378" y2="210.8917" /><line stroke="black" stroke-opacity="1.0" stroke-width="0.5" x1="302.8591" x2="239.6894" y1="198.0647" y2="261.5147" /><line stroke="black" stroke-opacity="1.0" stroke-width="0.5" x1="271.2743" x2="246.5073" y1="229.7897" y2="314.8977" /><line stroke="black" stroke-opacity="1.0" stroke-width="0.5" x1="258.8908" x2="277.768" y1="272.3437" y2="358.0413" /><line stroke="black" stroke-opacity="1.0" stroke-width="0.5" x1="268.3294" x2="325.4048" y1="315.1925" y2="380.6875" /><line stroke="black" stroke-opacity="1.0" stroke-width="0.5" x1="296.8671" x2="377.5406" y1="347.94" y2="377.7527" /><line stroke="black" stroke-opacity="1.0" stroke-width="0.5" x1="337.2039" x2="421.4435" y1="362.8463" y2="350.4576" /><line stroke="black" stroke-opacity="1.0" stroke-width="0.5" x1="379.3237" x2="446.6316" y1="356.652" y2="305.9058" /><line stroke="black" stroke-opacity="1.0" stroke-width="0.5" x1="412.9777" x2="447.3695" y1="331.2789" y2="255.2438" /><line stroke="black" stroke-opacity="1.0" stroke-width="0.5" x1="430.1736" x2="423.9648" y1="293.2613" y2="210.8781" /><line stroke="black" stroke-opacity="1.0" stroke-width="0.5" x1="427.0692" x2="382.5733" y1="252.0697" y2="183.4415" /><line stroke="black" stroke-opacity="1.0" stroke-width="0.5" x1="404.8213" x2="333.5899" y1="217.7556" y2="179.2501" /><line stroke="black" stroke-opacity="1.0" stroke-width="0.5" x1="369.2056" x2="289.0433" y1="198.5028" y2="198.8576" /><line stroke="black" stroke-opacity="1.0" stroke-width="0.5" x1="329.1244" x2="259.6473" y1="198.6802" y2="237.036" /><line stroke="black" stroke-opacity="1.0" stroke-width="0.5" x1="294.3859" x2="252.2285" y1="217.8581" y2="284.1579" /><line stroke="black" stroke-opacity="1.0" stroke-width="0.5" x1="273.3072" x2="268.1485" y1="251.008" y2="328.6189" /><line stroke="black" stroke-opacity="1.0" stroke-width="0.5" x1="270.7279" x2="303.0825" y1="289.8134" y2="359.6907" /><line stroke="black" stroke-opacity="1.0" stroke-width="0.5" x1="286.9052" x2="348.1811" y1="324.7521" y2="370.1054" /><line stroke="black" stroke-opacity="1.0" stroke-width="0.5" x1="317.5432" x2="392.3062" y1="347.4287" y2="357.7486" /><line stroke="black" stroke-opacity="1.0" stroke-width="0.5" x1="354.9247" x2="424.7774" y1="352.5887" y2="326.0697" /><line stroke="black" stroke-opacity="1.0" stroke-width="0.5" x1="389.8511" x2="437.9529" y1="339.3292" y2="283.135" /><line stroke="black" stroke-opacity="1.0" stroke-width="0.5" x1="413.902" x2="429.0216" y1="311.2321" y2="239.5796" /><line stroke="black" stroke-opacity="1.0" stroke-width="0.5" x1="421.4618" x2="400.5894" y1="275.4059" y2="205.9774" /><line stroke="black" stroke-opacity="1.0" stroke-width="0.5" x1="411.0256" x2="359.9386" y1="240.6917" y2="190.2785" /><line stroke="black" stroke-opacity="1.0" stroke-width="0.5" x1="385.4821" x2="317.1697" y1="215.4851" y2="195.9332" /><line stroke="black" stroke-opacity="1.0" stroke-width="0.5" x1="351.3259" x2="282.6957" y1="205.7092" y2="221.1456" /><line stroke="black" stroke-opacity="1.0" stroke-width="0.5" x1="317.0108" x2="264.711" y1="213.4274" y2="259.4127" /><line stroke="black" stroke-opacity="1.0" stroke-width="0.5" x1="290.8609" x2="267.2486" y1="236.42" y2="301.1955" /><line stroke="black" stroke-opacity="1.0" stroke-width="0.5" x1="279.0548" x2="289.2847" y1="268.8078" y2="336.2923" /><line stroke="black" stroke-opacity="1.0" stroke-width="0.5" x1="284.1697" x2="325.0878" y1="302.55" y2="356.3255" /><line stroke="black" stroke-opacity="1.0" stroke-width="0.5" x1="304.6288" x2="365.7022" y1="329.4378" y2="356.7373" /><line stroke="black" stroke-opacity="1.0" stroke-width="0.5" x1="335.1655" x2="401.1838" y1="343.0876" y2="337.8182" /><line stroke="black" stroke-opacity="1.0" stroke-width="0.5" x1="368.1746" x2="423.0307" y1="340.4529" y2="304.5405" /><line stroke="black" stroke-opacity="1.0" stroke-width="0.5" x1="395.6027" x2="426.2169" y1="322.4967" y2="265.2594" /><line stroke="black" stroke-opacity="1.0" stroke-width="0.5" x1="410.9098" x2="410.341" y1="293.878" y2="229.6194" /><line stroke="black" stroke-opacity="1.0" stroke-width="0.5" x1="410.6254" x2="379.6321" y1="261.7487" y2="206.1903" /><line stroke="black" stroke-opacity="1.0" stroke-width="0.5" x1="395.1287" x2="341.8318" y1="233.9695" y2="200.4104" /><line stroke="black" stroke-opacity="1.0" stroke-width="0.5" x1="368.4802" x2="306.2473" y1="217.19" y2="213.33" /><line stroke="black" stroke-opacity="1.0" stroke-width="0.5" x1="337.3638" x2="281.4633" y1="215.26" y2="241.4442" /><line stroke="black" stroke-opacity="1.0" stroke-width="0.5" x1="309.4135" x2="273.2747" y1="228.3521" y2="277.6331" /><line stroke="black" stroke-opacity="1.0" stroke-width="0.5" x1="291.3441" x2="283.3367" y1="252.9926" y2="312.961" /><line stroke="black" stroke-opacity="1.0" stroke-width="0.5" x1="287.3404" x2="308.8464" y1="282.9768" y2="338.8783" /><line stroke="black" stroke-opacity="1.0" stroke-width="0.5" x1="298.0934" x2="343.3106" y1="310.9275" y2="349.2877" /><line stroke="black" stroke-opacity="1.0" stroke-width="0.5" x1="320.702" x2="378.1939" y1="330.1076" y2="341.9737" /><line stroke="black" stroke-opacity="1.0" stroke-width="0.5" x1="349.448" x2="405.0293" y1="336.0406" y2="319.0625" /><line stroke="black" stroke-opacity="1.0" stroke-width="0.5" x1="377.2386" x2="417.4697" y1="327.5516" y2="286.4202" /><line stroke="black" stroke-opacity="1.0" stroke-width="0.5" x1="397.3542" x2="412.785" y1="306.9859" y2="252.1558" /><line stroke="black" stroke-opacity="1.0" stroke-width="0.5" x1="405.0696" x2="392.4519" y1="279.5708" y2="224.6101" /><line stroke="black" stroke-opacity="1.0" stroke-width="0.5" x1="398.7608" x2="361.7123" y1="252.0904" y2="210.3289" /><line stroke="black" stroke-opacity="1.0" stroke-width="0.5" x1="380.2365" x2="328.2273" y1="231.2097" y2="212.5113" /><line stroke="black" stroke-opacity="1.0" stroke-width="0.5" x1="354.2319" x2="300.1711" y1="221.8605" y2="230.3005" /><line stroke="black" stroke-opacity="1.0" stroke-width="0.5" x1="327.2015" x2="284.239" y1="226.0805" y2="259.0722" /><line stroke="black" stroke-opacity="1.0" stroke-width="0.5" x1="305.7202" x2="284.053" y1="242.5763" y2="291.6311" /><line stroke="black" stroke-opacity="1.0" stroke-width="0.5" x1="294.8866" x2="299.3449" y1="267.1037" y2="320.0067" /><line stroke="black" stroke-opacity="1.0" stroke-width="0.5" x1="297.1157" x2="326.0985" y1="293.5552" y2="337.4017" /><line stroke="black" stroke-opacity="1.0" stroke-width="0.5" x1="311.6071" x2="357.5985" y1="315.4785" y2="339.8164" /><line stroke="black" stroke-opacity="1.0" stroke-width="0.5" x1="334.6028" x2="386.112" y1="327.6474" y2="326.9635" /><line stroke="black" stroke-opacity="1.0" stroke-width="0.5" x1="360.3574" x2="404.7843" y1="327.3055" y2="302.2634" /><line stroke="black" stroke-opacity="1.0" stroke-width="0.5" x1="382.5709" x2="409.2835" y1="314.7844" y2="271.9413" /><line stroke="black" stroke-opacity="1.0" stroke-width="0.5" x1="395.9272" x2="398.8006" y1="293.3629" y2="243.4618" /><line stroke="black" stroke-opacity="1.0" stroke-width="0.5" x1="397.3639" x2="376.1758" y1="268.4124" y2="223.6942" /><line stroke="black" stroke-opacity="1.0" stroke-width="0.5" x1="386.7698" x2="347.1368" y1="246.0533" y2="217.2584" /><line stroke="black" stroke-opacity="1.0" stroke-width="0.5" x1="366.9533" x2="318.8529" y1="231.6558" y2="225.4497" /><line stroke="black" stroke-opacity="1.0" stroke-width="0.5" x1="342.9031" x2="298.1675" y1="228.5528" y2="245.9908" /><line stroke="black" stroke-opacity="1.0" stroke-width="0.5" x1="320.5353" x2="289.9454" y1="237.2718" y2="273.655" /><line stroke="black" stroke-opacity="1.0" stroke-width="0.5" x1="305.2403" x2="295.9322" y1="255.4634" y2="301.5923" /><line stroke="black" stroke-opacity="1.0" stroke-width="0.5" x1="300.5863" x2="314.3935" y1="278.5278" y2="323.0229" /><line stroke="black" stroke-opacity="1.0" stroke-width="0.5" x1="307.4899" x2="340.6044" y1="300.7753" y2="332.8796" /><line stroke="black" stroke-opacity="1.0" stroke-width="0.5" x1="324.0472" x2="368.055" y1="316.8275" y2="329.0026" /><line stroke="black" stroke-opacity="1.0" stroke-width="0.5" x1="346.0511" x2="390.0641" y1="322.9151" y2="312.6054" /><line stroke="black" stroke-opacity="1.0" stroke-width="0.5" x1="368.0576" x2="401.4031" y1="317.7602" y2="287.9132" /><line stroke="black" stroke-opacity="1.0" stroke-width="0.5" x1="384.7304" x2="399.5349" y1="302.8367" y2="261.0786" /><line stroke="black" stroke-opacity="1.0" stroke-width="0.5" x1="392.1326" x2="385.1751" y1="281.9577" y2="238.6512" /><line stroke="black" stroke-opacity="1.0" stroke-width="0.5" x1="388.6539" x2="362.0546" y1="260.3045" y2="225.9818" /><line stroke="black" stroke-opacity="1.0" stroke-width="0.5" x1="375.3542" x2="335.954" y1="243.1431" y2="225.9482" /><line stroke="black" stroke-opacity="1.0" stroke-width="0.5" x1="355.6541" x2="313.2617" y1="234.5456" y2="238.3072" /><line stroke="black" stroke-opacity="1.0" stroke-width="0.5" x1="334.4579" x2="299.4124" y1="236.4264" y2="259.8152" /><line stroke="black" stroke-opacity="1.0" stroke-width="0.5" x1="316.9351" x2="297.5884" y1="248.1208" y2="285.0749" /><line stroke="black" stroke-opacity="1.0" stroke-width="0.5" x1="307.2618" x2="307.9928" y1="266.5978" y2="307.8863" /><line stroke="black" stroke-opacity="1.0" stroke-width="0.5" x1="307.6273" x2="327.8592" y1="287.2421" y2="322.7669" /><line stroke="black" stroke-opacity="1.0" stroke-width="0.5" x1="317.7432" x2="352.182" y1="305.0045" y2="326.2659" /><line stroke="black" stroke-opacity="1.0" stroke-width="0.5" x1="334.9626" x2="374.9746" y1="315.6352" y2="317.7616" /><line stroke="black" stroke-opacity="1.0" stroke-width="0.5" x1="354.9686" x2="390.7406" y1="316.6984" y2="299.5549" /><line stroke="black" stroke-opacity="1.0" stroke-width="0.5" x1="372.8546" x2="395.7966" y1="308.1266" y2="276.2537" /><line stroke="black" stroke-opacity="1.0" stroke-width="0.5" x1="384.3256" x2="389.1299" y1="292.1902" y2="253.6098" /><line stroke="black" stroke-opacity="1.0" stroke-width="0.5" x1="386.7278" x2="372.5903" y1="272.9" y2="237.1008" /><line stroke="black" stroke-opacity="1.0" stroke-width="0.5" x1="379.6591" x2="350.3849" y1="255.0004" y2="230.6079" /><line stroke="black" stroke-opacity="1.0" stroke-width="0.5" x1="365.022" x2="328.011" y1="242.8041" y2="235.5061" /><line stroke="black" stroke-opacity="1.0" stroke-width="0.5" x1="346.5165" x2="310.8972" y1="239.1551" y2="250.3812" /><line stroke="black" stroke-opacity="1.0" stroke-width="0.5" x1="328.7069" x2="303.0889" y1="244.7682" y2="271.4274" /><line stroke="black" stroke-opacity="1.0" stroke-width="0.5" x1="315.8979" x2="306.2941" y1="258.0978" y2="293.4187" /></svg>