<?xml version="1.0" encoding="utf-8" ?>
<svg baseProfile="tiny" height="500" version="1.2" width="500" xmlns="http://www.w3.org/2000/svg" xmlns:ev="http://www.w3.org/2001/xml-events" xmlns:xlink="http://www.w3.org/1999/xlink"><defs /><line stroke="black" stroke-opacity="1.0" stroke-width="0.5" x1="250.0" x2="0.0" y1="250.0" y2="100.0" /><line stroke="black" stroke-opacity="1.0" stroke-width="0.5" x1="0.0" x2="8.985" y1="100.0" y2="89.5504" /><line stroke="black" stroke-opacity="1.0" stroke-width="0.5" x1="8.985" x2="16.0922" y1="89.5504" y2="79.3854" /><line stroke="black" stroke-opacity="1.0" stroke-width="0.5" x1="16.0922" x2="21.5434" y1="79.3854" y2="69.644" /><line stroke="black" stroke-opacity="1.0" stroke-width="0.5" x1="21.5434" x2="25.5497" y1="69.644" y2="60.4308" /><line stroke="black" stroke-opacity="1.0" stroke-width="0.5" x1="25.5497" x2="28.3096" y1="60.4308" y2="51.8204" /><line stroke="black" stroke-opacity="1.0" stroke-width="0.5" x1="28.3096" x2="30.0074" y1="51.8204" y2="43.8617" /><line stroke="black" stroke-opacity="1.0" stroke-width="0.5" x1="30.0074" x2="30.8127" y1="43.8617" y2="36.5822" /><line stroke="black" stroke-opacity="1.0" stroke-width="0.5" x1="30.8127" x2="30.8798" y1="36.5822" y2="29.9909" /><line stroke="black" stroke-opacity="1.0" stroke-width="0.5" x1="30.8798" x2="30.3477" y1="29.9909" y2="24.0824" /><line stroke="black" stroke-opacity="1.0" stroke-width="0.5" x1="30.3477" x2="29.3403" y1="24.0824" y2="18.8392" /><line stroke="black" stroke-opacity="1.0" stroke-width="0.5" x1="29.3403" x2="27.967" y1="18.8392" y2="14.2343" /><line stroke="black" stroke-opacity="1.0" stroke-width="0.5" x1="27.967" x2="26.3235" y1="14.2343" y2="10.2341" /><line stroke="black" stroke-opacity="1.0" stroke-width="0.5" x1="26.3235" x2="24.4924" y1="10.2341" y2="6.7995" /><line stroke="black" stroke-opacity="1.0" stroke-width="0.5" x1="24.4924" x2="22.5439" y1="6.7995" y2="3.8883" /><line stroke="black" stroke-opacity="1.0" stroke-width="0.5" x1="22.5439" x2="20.5375" y1="3.8883" y2="1.4564" /><line stroke="black" stroke-opacity="1.0" stroke-width="0.5" x1="20.5375" x2="18.5223" y1="1.4564" y2="-0.5411" /><line stroke="black" stroke-opacity="1.0" stroke-width="0.5" x1="18.5223" x2="16.5382" y1="-0.5411" y2="-2.1488" /><line stroke="black" stroke-opacity="1.0" stroke-width="0.5" x1="16.5382" x2="14.6169" y1="-2.1488" y2="-3.4102" /><line stroke="black" stroke-opacity="1.0" stroke-width="0.5" x1="14.6169" x2="12.7831" y1="-3.4102" y2="-4.3672" /><line stroke="black" stroke-opacity="1.0" stroke-width="0.5" x1="12.7831" x2="11.0549" y1="-4.3672" y2="-5.0594" /><line stroke="black" stroke-opacity="1.0" stroke-width="0.5" x1="11.0549" x2="9.4451" y1="-5.0594" y2="-5.524" /><line stroke="black" stroke-opacity="1.0" stroke-width="0.5" x1="9.4451" x2="7.9618" y1="-5.524" y2="-5.7954" /><line stroke="black" stroke-opacity="1.0" stroke-width="0.5" x1="7.9618" x2="6.6091" y1="-5.7954" y2="-5.9052" /><line stroke="black" stroke-opacity="1.0" stroke-width="0.5" x1="6.6091" x2="5.3879" y1="-5.9052" y2="-5.8819" /><line stroke="black" stroke-opacity="1.0" stroke-width="0.5" x1="5.3879" x2="4.2964" y1="-5.8819" y2="-5.7514" /><line stroke="black" stroke-opacity="1.0" stroke-width="0.5" x1="4.2964" x2="3.3307" y1="-5.7514" y2="-5.5364" /><line stroke="black" stroke-opacity="1.0" stroke-width="0.5" x1="3.3307" x2="2.4852" y1="-5.5364" y2="-5.2572" /><line stroke="black" stroke-opacity="1.0" stroke-width="0.5" x1="2.4852" x2="1.7532" y1="-5.2572" y2="-4.9311" /><line stroke="black" stroke-opacity="1.0" stroke-width="0.5" x1="1.7532" x2="1.1269" y1="-4.9311" y2="-4.5733" /><line stroke="black" stroke-opacity="1.0" stroke-width="0.5" x1="1.1269" x2="0.5982" y1="-4.5733" y2="-4.1967" /><line stroke="black" stroke-opacity="1.0" stroke-width="0.5" x1="0.5982" x2="0.1586" y1="-4.1967" y2="-3.8119" /><line stroke="black" stroke-opacity="1.0" stroke-width="0.5" x1="0.1586" x2="-0.2004" y1="-3.8119" y2="-3.4278" /><line stroke="black" stroke-opacity="1.0" stroke-width="0.5" x1="-0.2004" x2="-0.4875" y1="-3.4278" y2="-3.0516" /><line stroke="black" stroke-opacity="1.0" stroke-width="0.5" x1="-0.4875" x2="-0.7107" y1="-3.0516" y2="-2.6889" /><line stroke="black" stroke-opacity="1.0" stroke-width="0.5" x1="-0.7107" x2="-0.8781" y1="-2.6889" y2="-2.3441" /><line stroke="black" stroke-opacity="1.0" stroke-width="0.5" x1="-0.8781" x2="-0.9969" y1="-2.3441" y2="-2.0203" /><line stroke="black" stroke-opacity="1.0" stroke-width="0.5" x1="-0.9969" x2="-1.0743" y1="-2.0203" y2="-1.7196" /><line stroke="black" stroke-opacity="1.0" stroke-width="0.5" x1="-1.0743" x2="-1.1165" y1="-1.7196" y2="-1.4434" /><line stroke="black" stroke-opacity="1.0" stroke-width="0.5" x1="-1.1165" x2="-1.1295" y1="-1.4434" y2="-1.1922" /><line stroke="black" stroke-opacity="1.0" stroke-width="0.5" x1="-1.1295" x2="-1.1186" y1="-1.1922" y2="-0.9661" /><line stroke="black" stroke-opacity="1.0" stroke-width="0.5" x1="-1.1186" x2="-1.0885" y1="-0.9661" y2="-0.7647" /><line stroke="black" stroke-opacity="1.0" stroke-width="0.5" x1="-1.0885" x2="-1.0435" y1="-0.7647" y2="-0.587" /><line stroke="black" stroke-opacity="1.0" stroke-width="0.5" x1="-1.0435" x2="-0.9872" y1="-0.587" y2="-0.4319" /><line stroke="black" stroke-opacity="1.0" stroke-width="0.5" x1="-0.9872" x2="-0.9228" y1="-0.4319" y2="-0.298" /><line stroke="black" stroke-opacity="1.0" stroke-width="0.5" x1="-0.9228" x2="-0.8532" y1="-0.298" y2="-0.184" /><line stroke="black" stroke-opacity="1.0" stroke-width="0.5" x1="-0.8532" x2="-0.7806" y1="-0.184" y2="-0.0881" /><line stroke="black" stroke-opacity="1.0" stroke-width="0.5" x1="-0.7806" x2="-0.7069" y1="-0.0881" y2="-0.0088" /><line stroke="black" stroke-opacity="1.0" stroke-width="0.5" x1="-0.7069" x2="-0.6338" y1="-0.0088" y2="0.0557" /><line stroke="black" stroke-opacity="1.0" stroke-width="0.5" x1="-0.6338" x2="-0.5626" y1="0.0557" y2="0.1068" /><line stroke="black" stroke-opacity="1.0" stroke-width="0.5" x1="-0.5626" x2="-0.4942" y1="0.1068" y2="0.1462" /><line stroke="black" stroke-opacity="1.0" stroke-width="0.5" x1="-0.4942" x2="-0.4294" y1="0.1462" y2="0.1753" /><line stroke="black" stroke-opacity="1.0" stroke-width="0.5" x1="-0.4294" x2="-0.3688" y1="0.1753" y2="0.1956" /><line stroke="black" stroke-opacity="1.0" stroke-width="0.5" x1="-0.3688" x2="-0.3127" y1="0.1956" y2="0.2083" /><line stroke="black" stroke-opacity="1.0" stroke-width="0.5" x1="-0.3127" x2="-0.2613" y1="0.2083" y2="0.2146" /><line stroke="black" stroke-opacity="1.0" stroke-width="0.5" x1="-0.2613" x2="-0.2147" y1="0.2146" y2="0.2157" /><line stroke="black" stroke-opacity="1.0" stroke-width="0.5" x1="-0.2147" x2="-0.1729" y1="0.2157" y2="0.2124" /><line stroke="black" stroke-opacity="1.0" stroke-width="0.5" x1="-0.1729" x2="-0.1357" y1="0.2124" y2="0.2058" /><line stroke="black" stroke-opacity="1.0" stroke-width="0.5" x1="-0.1357" x2="-0.1031" y1="0.2058" y2="0.1965" /><line stroke="black" stroke-opacity="1.0" stroke-width="0.5" x1="-0.1031" x2="-0.0747" y1="0.1965" y2="0.1852" /><line stroke="black" stroke-opacity="1.0" stroke-width="0.5" x1="-0.0747" x2="-0.0502" y1="0.1852" y2="0.1725" /><line stroke="black" stroke-opacity="1.0" stroke-width="0.5" x1="-0.0502" x2="-0.0295" y1="0.1725" y2="0.159" /><line stroke="black" stroke-opacity="1.0" stroke-width="0.5" x1="-0.0295" x2="-0.0121" y1="0.159" y2="0.1451" /><line stroke="black" stroke-opacity="1.0" stroke-width="0.5" x1="-0.0121" x2="0.0022" y1="0.1451" y2="0.131" /><line stroke="black" stroke-opacity="1.0" stroke-width="0.5" x1="0.0022" x2="0.0137" y1="0.131" y2="0.1171" /><line stroke="black" stroke-opacity="1.0" stroke-width="0.5" x1="0.0137" x2="0.0228" y1="0.1171" y2="0.1036" /><line stroke="black" stroke-opacity="1.0" stroke-width="0.5" x1="0.0228" x2="0.0298" y1="0.1036" y2="0.0907" /><line stroke="black" stroke-opacity="1.0" stroke-width="0.5" x1="0.0298" x2="0.0348" y1="0.0907" y2="0.0786" /><line stroke="black" stroke-opacity="1.0" stroke-width="0.5" x1="0.0348" x2="0.0382" y1="0.0786" y2="0.0673" /><line stroke="black" stroke-opacity="1.0" stroke-width="0.5" x1="0.0382" x2="0.0403" y1="0.0673" y2="0.0568" /><line stroke="black" stroke-opacity="1.0" stroke-width="0.5" x1="0.0403" x2="0.0412" y1="0.0568" y2="0.0472" /><line stroke="black" stroke-opacity="1.0" stroke-width="0.5" x1="0.0412" x2="0.0411" y1="0.0472" y2="0.0386" /><line stroke="black" stroke-opacity="1.0" stroke-width="0.5" x1="0.0411" x2="0.0403" y1="0.0386" y2="0.0309" /><line stroke="black" stroke-opacity="1.0" stroke-width="0.5" x1="0.0403" x2="0.0388" y1="0.0309" y2="0.024" /><line stroke="black" stroke-opacity="1.0" stroke-width="0.5" x1="0.0388" x2="0.0369" y1="0.024" y2="0.018" /><line stroke="black" stroke-opacity="1.0" stroke-width="0.5" x1="0.0369" x2="0.0347" y1="0.018" y2="0.0128" /><line stroke="black" stroke-opacity="1.0" stroke-width="0.5" x1="0.0347" x2="0.0322" y1="0.0128" y2="0.0084" /><line stroke="black" stroke-opacity="1.0" stroke-width="0.5" x1="0.0322" x2="0.0296" y1="0.0084" y2="0.0046" /><line stroke="black" stroke-opacity="1.0" stroke-width="0.5" x1="0.0296" x2="0.0269" y1="0.0046" y2="0.0015" /><line stroke="black" stroke-opacity="1.0" stroke-width="0.5" x1="0.0269" x2="0.0242" y1="0.0015" y2="-0.0011" /><line stroke="black" stroke-opacity="1.0" stroke-width="0.5" x1="0.0242" x2="0.0216" y1="-0.0011" y2="-0.0032" /><line stroke="black" stroke-opacity="1.0" stroke-width="0.5" x1="0.0216" x2="0.0191" y1="-0.0032" y2="-0.0048" /><line stroke="black" stroke-opacity="1.0" stroke-width="0.5" x1="0.0191" x2="0.0166" y1="-0.0048" y2="-0.006" /><line stroke="black" stroke-opacity="1.0" stroke-width="0.5" x1="0.0166" x2="0.0144" y1="-0.006" y2="-0.0069" /><line stroke="black" stroke-opacity="1.0" stroke-width="0.5" x1="0.0144" x2="0.0122" y1="-0.0069" y2="-0.0074" /><line stroke="black" stroke-opacity="1.0" stroke-width="0.5" x1="0.0122" x2="0.0103" y1="-0.0074" y2="-0.0078" /><line stroke="black" stroke-opacity="1.0" stroke-width="0.5" x1="0.0103" x2="0.0085" y1="-0.0078" y2="-0.0079" /><line stroke="black" stroke-opacity="1.0" stroke-width="0.5" x1="0.0085" x2="0.0069" y1="-0.0079" y2="-0.0078" /><line stroke="black" stroke-opacity="1.0" stroke-width="0.5" x1="0.0069" x2="0.0055" y1="-0.0078" y2="-0.0076" /><line stroke="black" stroke-opacity="1.0" stroke-width="0.5" x1="0.0055" x2="0.0042" y1="-0.0076" y2="-0.0073" /><line stroke="black" stroke-opacity="1.0" stroke-width="0.5" x1="0.0042" x2="0.0031" y1="-0.0073" y2="-0.0069" /><line stroke="black" stroke-opacity="1.0" stroke-width="0.5" x1="0.0031" x2="0.0022" y1="-0.0069" y2="-0.0065" /><line stroke="black" stroke-opacity="1.0" stroke-width="0.5" x1="0.0022" x2="0.0014" y1="-0.0065" y2="-0.006" /><line stroke="black" stroke-opacity="1.0" stroke-width="0.5" x1="0.0014" x2="0.0007" y1="-0.006" y2="-0.0055" /><line stroke="black" stroke-opacity="1.0" stroke-width="0.5" x1="0.0007" x2="0.0001" y1="-0.0055" y2="-0.005" /><line stroke="black" stroke-opacity="1.0" stroke-width="0.5" x1="0.0001" x2="-0.0003" y1="-0.005" y2="-0.0045" /><line stroke="black" stroke-opacity="1.0" stroke-width="0.5" x1="-0.0003" x2="-0.0007" y1="-0.0045" y2="-0.004" /><line stroke="black" stroke-opacity="1.0" stroke-width="0.5" x1="-0.0007" x2="-0.001" y1="-0.004" y2="-0.0035" /><line stroke="black" stroke-opacity="1.0" stroke-width="0.5" x1="-0.001" x2="-0.0012" y1="-0.0035" y2="-0.0031" /><line stroke="black" stroke-opacity="1.0" stroke-width="0.5" x1="-0.0012" x2="-0.0014" y1="-0.0031" y2="-0.0026" /><line stroke="black" stroke-opacity="1.0" stroke-width="0.5" x1="-0.0014" x2="-0.0014" y1="-0.0026" y2="-0.0022" /></svg>