<?xml version="1.0" encoding="utf-8" ?>
<svg baseProfile="tiny" height="500" version="1.2" width="500" xmlns="http://www.w3.org/2000/svg" xmlns:ev="http://www.w3.org/2001/xml-events" xmlns:xlink="http://www.w3.org/1999/xlink"><defs /><line stroke="black" stroke-opacity="1.0" stroke-width="0.5" x1="250.0" x2="250.0" y1="250.0" y2="350.0" /><line stroke="black" stroke-opacity="1.0" stroke-width="0.5" x1="250.0" x2="293.1483" y1="300.0" y2="378.9824" /><line stroke="black" stroke-opacity="1.0" stroke-width="0.5" x1="271.5741" x2="339.7333" y1="339.4912" y2="383.2557" /><line stroke="black" stroke-opacity="1.0" stroke-width="0.5" x1="305.6537" x2="378.3711" y1="361.3735" y2="366.5302" /><line stroke="black" stroke-opacity="1.0" stroke-width="0.5" x1="342.0124" x2="401.6714" y1="363.9518" y2="336.6484" /><line stroke="black" stroke-opacity="1.0" stroke-width="0.5" x1="371.8419" x2="407.1811" y1="350.3001" y2="302.9934" /><line stroke="black" stroke-opacity="1.0" stroke-width="0.5" x1="389.5115" x2="397.0112" y1="326.6468" y2="274.0345" /><line stroke="black" stroke-opacity="1.0" stroke-width="0.5" x1="393.2614" x2="376.4835" y1="300.3406" y2="255.5502" /><line stroke="black" stroke-opacity="1.0" stroke-width="0.5" x1="384.8724" x2="352.2946" y1="277.9454" y2="249.8082" /><line stroke="black" stroke-opacity="1.0" stroke-width="0.5" x1="368.5835" x2="330.712" y1="263.8768" y2="255.7102" /><line stroke="black" stroke-opacity="1.0" stroke-width="0.5" x1="349.6477" x2="316.2121" y1="259.7935" y2="269.6842" /><line stroke="black" stroke-opacity="1.0" stroke-width="0.5" x1="332.9299" x2="310.7893" y1="264.7388" y2="286.9776" /><line stroke="black" stroke-opacity="1.0" stroke-width="0.5" x1="321.8596" x2="313.9681" y1="275.8582" y2="302.9763" /><line stroke="black" stroke-opacity="1.0" stroke-width="0.5" x1="317.9139" x2="323.3819" y1="289.4173" y2="314.2408" /><line stroke="black" stroke-opacity="1.0" stroke-width="0.5" x1="320.6479" x2="335.6776" y1="301.829" y2="319.0759" /><line stroke="black" stroke-opacity="1.0" stroke-width="0.5" x1="328.1628" x2="347.4754" y1="310.4525" y2="317.5894" /><line stroke="black" stroke-opacity="1.0" stroke-width="0.5" x1="337.8191" x2="356.1521" y1="314.0209" y2="311.3248" /><line stroke="black" stroke-opacity="1.0" stroke-width="0.5" x1="346.9856" x2="360.3021" y1="312.6728" y2="302.633" /><line stroke="black" stroke-opacity="1.0" stroke-width="0.5" x1="353.6438" x2="359.8295" y1="307.6529" y2="293.9773" /><line stroke="black" stroke-opacity="1.0" stroke-width="0.5" x1="356.7367" x2="355.7215" y1="300.8151" y2="287.3448" /><line stroke="black" stroke-opacity="1.0" stroke-width="0.5" x1="356.2291" x2="349.615" y1="294.08" y2="283.8788" /><line stroke="black" stroke-opacity="1.0" stroke-width="0.5" x1="352.9221" x2="343.2965" y1="288.9794" y2="283.7761" /><line stroke="black" stroke-opacity="1.0" stroke-width="0.5" x1="348.1093" x2="338.2617" y1="286.3778" y2="286.4213" /><line stroke="black" stroke-opacity="1.0" stroke-width="0.5" x1="343.1855" x2="335.4264" y1="286.3995" y2="290.683" /><line stroke="black" stroke-opacity="1.0" stroke-width="0.5" x1="339.3059" x2="335.0259" y1="288.5413" y2="295.2724" /><line stroke="black" stroke-opacity="1.0" stroke-width="0.5" x1="337.1659" x2="336.6898" y1="291.9069" y2="299.07" /><line stroke="black" stroke-opacity="1.0" stroke-width="0.5" x1="336.9279" x2="339.6426" y1="295.4884" y2="301.3515" /><line stroke="black" stroke-opacity="1.0" stroke-width="0.5" x1="338.2852" x2="342.9592" y1="298.42" y2="301.8794" /><line stroke="black" stroke-opacity="1.0" stroke-width="0.5" x1="340.6222" x2="345.8065" y1="300.1497" y2="300.8653" /><line stroke="black" stroke-opacity="1.0" stroke-width="0.5" x1="343.2144" x2="347.6179" y1="300.5075" y2="298.8358" /><line stroke="black" stroke-opacity="1.0" stroke-width="0.5" x1="345.4161" x2="348.1728" y1="299.6716" y2="296.4512" /><line stroke="black" stroke-opacity="1.0" stroke-width="0.5" x1="346.7944" x2="347.5822" y1="298.0614" y2="294.3284" /><line stroke="black" stroke-opacity="1.0" stroke-width="0.5" x1="347.1883" x2="346.1997" y1="296.1949" y2="292.9066" /><line stroke="black" stroke-opacity="1.0" stroke-width="0.5" x1="346.694" x2="344.4944" y1="294.5508" y2="292.3802" /><line stroke="black" stroke-opacity="1.0" stroke-width="0.5" x1="345.5942" x2="342.9203" y1="293.4655" y2="292.7002" /><line stroke="black" stroke-opacity="1.0" stroke-width="0.5" x1="344.2572" x2="341.8151" y1="293.0828" y2="293.6321" /><line stroke="black" stroke-opacity="1.0" stroke-width="0.5" x1="343.0362" x2="341.3443" y1="293.3575" y2="294.8451" /><line stroke="black" stroke-opacity="1.0" stroke-width="0.5" x1="342.1902" x2="341.4958" y1="294.1013" y2="296.0062" /><line stroke="black" stroke-opacity="1.0" stroke-width="0.5" x1="341.843" x2="342.1165" y1="295.0537" y2="296.8579" /><line stroke="black" stroke-opacity="1.0" stroke-width="0.5" x1="341.9798" x2="342.9743" y1="295.9558" y2="297.2628" /><line stroke="black" stroke-opacity="1.0" stroke-width="0.5" x1="342.477" x2="343.8264" y1="296.6093" y2="297.2125" /><line stroke="black" stroke-opacity="1.0" stroke-width="0.5" x1="343.1517" x2="344.4778" y1="296.9109" y2="296.8051" /><line stroke="black" stroke-opacity="1.0" stroke-width="0.5" x1="343.8148" x2="344.8164" y1="296.858" y2="296.2022" /><line stroke="black" stroke-opacity="1.0" stroke-width="0.5" x1="344.3156" x2="344.8238" y1="296.5301" y2="295.58" /><line stroke="black" stroke-opacity="1.0" stroke-width="0.5" x1="344.5697" x2="344.5611" y1="296.055" y2="295.0853" /><line stroke="black" stroke-opacity="1.0" stroke-width="0.5" x1="344.5654" x2="344.1402" y1="295.5702" y2="294.8079" /><line stroke="black" stroke-opacity="1.0" stroke-width="0.5" x1="344.3528" x2="343.6881" y1="295.1891" y2="294.7705" /><line stroke="black" stroke-opacity="1.0" stroke-width="0.5" x1="344.0205" x2="343.3148" y1="294.9798" y2="294.936" /><line stroke="black" stroke-opacity="1.0" stroke-width="0.5" x1="343.6676" x2="343.0915" y1="294.9579" y2="295.2278" /><line stroke="black" stroke-opacity="1.0" stroke-width="0.5" x1="343.3796" x2="343.0409" y1="295.0928" y2="295.5546" /><line stroke="black" stroke-opacity="1.0" stroke-width="0.5" x1="343.2102" x2="343.142" y1="295.3237" y2="295.8346" /><line stroke="black" stroke-opacity="1.0" stroke-width="0.5" x1="343.1761" x2="343.3427" y1="295.5792" y2="296.0121" /><line stroke="black" stroke-opacity="1.0" stroke-width="0.5" x1="343.2594" x2="343.5777" y1="295.7956" y2="296.0657" /><line stroke="black" stroke-opacity="1.0" stroke-width="0.5" x1="343.4186" x2="343.7865" y1="295.9306" y2="296.0066" /><line stroke="black" stroke-opacity="1.0" stroke-width="0.5" x1="343.6025" x2="343.9259" y1="295.9686" y2="295.8698" /><line stroke="black" stroke-opacity="1.0" stroke-width="0.5" x1="343.7642" x2="343.977" y1="295.9192" y2="295.7017" /><line stroke="black" stroke-opacity="1.0" stroke-width="0.5" x1="343.8706" x2="343.9448" y1="295.8104" y2="295.5468" /><line stroke="black" stroke-opacity="1.0" stroke-width="0.5" x1="343.9077" x2="343.8526" y1="295.6786" y2="295.4384" /><line stroke="black" stroke-opacity="1.0" stroke-width="0.5" x1="343.8802" x2="343.7329" y1="295.5585" y2="295.3925" /><line stroke="black" stroke-opacity="1.0" stroke-width="0.5" x1="343.8065" x2="343.6187" y1="295.4755" y2="295.408" /><line stroke="black" stroke-opacity="1.0" stroke-width="0.5" x1="343.7126" x2="343.535" y1="295.4417" y2="295.4695" /><line stroke="black" stroke-opacity="1.0" stroke-width="0.5" x1="343.6238" x2="343.4956" y1="295.4556" y2="295.5541" /><line stroke="black" stroke-opacity="1.0" stroke-width="0.5" x1="343.5597" x2="343.5009" y1="295.5048" y2="295.638" /><line stroke="black" stroke-opacity="1.0" stroke-width="0.5" x1="343.5303" x2="343.5413" y1="295.5714" y2="295.702" /><line stroke="black" stroke-opacity="1.0" stroke-width="0.5" x1="343.5358" x2="343.6008" y1="295.6367" y2="295.735" /><line stroke="black" stroke-opacity="1.0" stroke-width="0.5" x1="343.5683" x2="343.6621" y1="295.6859" y2="295.7355" /><line stroke="black" stroke-opacity="1.0" stroke-width="0.5" x1="343.6152" x2="343.7107" y1="295.7107" y2="295.7094" /><line stroke="black" stroke-opacity="1.0" stroke-width="0.5" x1="343.6629" x2="343.7378" y1="295.7101" y2="295.6678" /><line stroke="black" stroke-opacity="1.0" stroke-width="0.5" x1="343.7004" x2="343.7413" y1="295.6889" y2="295.6233" /><line stroke="black" stroke-opacity="1.0" stroke-width="0.5" x1="343.7208" x2="343.7248" y1="295.6561" y2="295.5866" /><line stroke="black" stroke-opacity="1.0" stroke-width="0.5" x1="343.7228" x2="343.696" y1="295.6214" y2="295.5648" /><line stroke="black" stroke-opacity="1.0" stroke-width="0.5" x1="343.7094" x2="343.6638" y1="295.5931" y2="295.5599" /><line stroke="black" stroke-opacity="1.0" stroke-width="0.5" x1="343.6866" x2="343.6363" y1="295.5765" y2="295.57" /><line stroke="black" stroke-opacity="1.0" stroke-width="0.5" x1="343.6614" x2="343.6189" y1="295.5732" y2="295.5898" /><line stroke="black" stroke-opacity="1.0" stroke-width="0.5" x1="343.6402" x2="343.6137" y1="295.5815" y2="295.613" /><line stroke="black" stroke-opacity="1.0" stroke-width="0.5" x1="343.6269" x2="343.6196" y1="295.5973" y2="295.6335" /><line stroke="black" stroke-opacity="1.0" stroke-width="0.5" x1="343.6233" x2="343.6331" y1="295.6154" y2="295.6472" /><line stroke="black" stroke-opacity="1.0" stroke-width="0.5" x1="343.6282" x2="343.6497" y1="295.6313" y2="295.6522" /><line stroke="black" stroke-opacity="1.0" stroke-width="0.5" x1="343.639" x2="343.665" y1="295.6417" y2="295.6489" /><line stroke="black" stroke-opacity="1.0" stroke-width="0.5" x1="343.652" x2="343.6756" y1="295.6453" y2="295.6398" /><line stroke="black" stroke-opacity="1.0" stroke-width="0.5" x1="343.6638" x2="343.6801" y1="295.6426" y2="295.628" /><line stroke="black" stroke-opacity="1.0" stroke-width="0.5" x1="343.6719" x2="343.6785" y1="295.6353" y2="295.6167" /><line stroke="black" stroke-opacity="1.0" stroke-width="0.5" x1="343.6752" x2="343.6724" y1="295.626" y2="295.6085" /><line stroke="black" stroke-opacity="1.0" stroke-width="0.5" x1="343.6738" x2="343.664" y1="295.6173" y2="295.6047" /><line stroke="black" stroke-opacity="1.0" stroke-width="0.5" x1="343.6689" x2="343.6558" y1="295.611" y2="295.6052" /><line stroke="black" stroke-opacity="1.0" stroke-width="0.5" x1="343.6624" x2="343.6495" y1="295.6081" y2="295.6093" /><line stroke="black" stroke-opacity="1.0" stroke-width="0.5" x1="343.6559" x2="343.6463" y1="295.6087" y2="295.6151" /><line stroke="black" stroke-opacity="1.0" stroke-width="0.5" x1="343.6511" x2="343.6463" y1="295.6119" y2="295.6212" /><line stroke="black" stroke-opacity="1.0" stroke-width="0.5" x1="343.6487" x2="343.6488" y1="295.6165" y2="295.6259" /><line stroke="black" stroke-opacity="1.0" stroke-width="0.5" x1="343.6488" x2="343.653" y1="295.6212" y2="295.6286" /><line stroke="black" stroke-opacity="1.0" stroke-width="0.5" x1="343.6509" x2="343.6573" y1="295.6249" y2="295.6289" /><line stroke="black" stroke-opacity="1.0" stroke-width="0.5" x1="343.6541" x2="343.6609" y1="295.6269" y2="295.6273" /><line stroke="black" stroke-opacity="1.0" stroke-width="0.5" x1="343.6575" x2="343.6631" y1="295.6271" y2="295.6244" /><line stroke="black" stroke-opacity="1.0" stroke-width="0.5" x1="343.6603" x2="343.6635" y1="295.6258" y2="295.6213" /><line stroke="black" stroke-opacity="1.0" stroke-width="0.5" x1="343.6619" x2="343.6625" y1="295.6235" y2="295.6186" /><line stroke="black" stroke-opacity="1.0" stroke-width="0.5" x1="343.6622" x2="343.6606" y1="295.621" y2="295.6168" /><line stroke="black" stroke-opacity="1.0" stroke-width="0.5" x1="343.6614" x2="343.6583" y1="295.6189" y2="295.6163" /><line stroke="black" stroke-opacity="1.0" stroke-width="0.5" x1="343.6599" x2="343.6563" y1="295.6176" y2="295.6169" /><line stroke="black" stroke-opacity="1.0" stroke-width="0.5" x1="343.6581" x2="343.6549" y1="295.6173" y2="295.6183" /><line stroke="black" stroke-opacity="1.0" stroke-width="0.5" x1="343.6565" x2="343.6545" y1="295.6178" y2="295.6199" /><line stroke="black" stroke-opacity="1.0" stroke-width="0.5" x1="343.6555" x2="343.6548" y1="295.6188" y2="295.6214" /></svg>