<?xml version="1.0" encoding="utf-8" ?>
<svg baseProfile="tiny" height="500" version="1.2" width="500" xmlns="http://www.w3.org/2000/svg" xmlns:ev="http://www.w3.org/2001/xml-events" xmlns:xlink="http://www.w3.org/1999/xlink"><defs /><line stroke="black" stroke-opacity="1.0" stroke-width="0.5" x1="250.0" x2="250.0" y1="250.0" y2="350.0" /><line stroke="black" stroke-opacity="1.0" stroke-width="0.5" x1="250.0" x2="295.5454" y1="300.0" y2="383.3703" /><line stroke="black" stroke-opacity="1.0" stroke-width="0.5" x1="272.7727" x2="348.7155" y1="341.6852" y2="390.4475" /><line stroke="black" stroke-opacity="1.0" stroke-width="0.5" x1="310.7441" x2="396.2668" y1="366.0663" y2="372.1311" /><line stroke="black" stroke-opacity="1.0" stroke-width="0.5" x1="353.5055" x2="427.5683" y1="369.0987" y2="335.2033" /><line stroke="black" stroke-opacity="1.0" stroke-width="0.5" x1="390.5369" x2="436.8455" y1="352.151" y2="290.1601" /><line stroke="black" stroke-opacity="1.0" stroke-width="0.5" x1="413.6912" x2="424.0648" y1="321.1555" y2="248.382" /><line stroke="black" stroke-opacity="1.0" stroke-width="0.5" x1="418.878" x2="394.3815" y1="284.7688" y2="219.3725" /><line stroke="black" stroke-opacity="1.0" stroke-width="0.5" x1="406.6298" x2="356.4219" y1="252.0706" y2="208.7066" /><line stroke="black" stroke-opacity="1.0" stroke-width="0.5" x1="381.5258" x2="319.9171" y1="230.3886" y2="217.1032" /><line stroke="black" stroke-opacity="1.0" stroke-width="0.5" x1="350.7215" x2="293.3071" y1="223.7459" y2="240.7298" /><line stroke="black" stroke-opacity="1.0" stroke-width="0.5" x1="322.0143" x2="281.8831" y1="232.2379" y2="272.547" /><line stroke="black" stroke-opacity="1.0" stroke-width="0.5" x1="301.9487" x2="286.8502" y1="252.3924" y2="304.2762" /><line stroke="black" stroke-opacity="1.0" stroke-width="0.5" x1="294.3995" x2="305.4425" y1="278.3343" y2="328.4667" /><line stroke="black" stroke-opacity="1.0" stroke-width="0.5" x1="299.921" x2="331.9606" y1="303.4005" y2="340.1664" /><line stroke="black" stroke-opacity="1.0" stroke-width="0.5" x1="315.9408" x2="359.3975" y1="321.7835" y2="337.8428" /><line stroke="black" stroke-opacity="1.0" stroke-width="0.5" x1="337.6691" x2="381.2134" y1="329.8131" y2="323.4093" /><line stroke="black" stroke-opacity="1.0" stroke-width="0.5" x1="359.4413" x2="392.8276" y1="326.6112" y2="301.4398" /><line stroke="black" stroke-opacity="1.0" stroke-width="0.5" x1="376.1345" x2="392.5044" y1="314.0255" y2="277.8341" /><line stroke="black" stroke-opacity="1.0" stroke-width="0.5" x1="384.3194" x2="381.4836" y1="295.9298" y2="258.3012" /><line stroke="black" stroke-opacity="1.0" stroke-width="0.5" x1="382.9015" x2="363.3991" y1="277.1155" y2="247.036" /><line stroke="black" stroke-opacity="1.0" stroke-width="0.5" x1="373.1503" x2="343.1912" y1="262.0757" y2="245.8808" /><line stroke="black" stroke-opacity="1.0" stroke-width="0.5" x1="358.1708" x2="325.8177" y1="253.9782" y2="254.1214" /><line stroke="black" stroke-opacity="1.0" stroke-width="0.5" x1="341.9943" x2="315.0866" y1="254.0498" y2="268.9045" /><line stroke="black" stroke-opacity="1.0" stroke-width="0.5" x1="328.5404" x2="312.8731" y1="261.4772" y2="286.1168" /><line stroke="black" stroke-opacity="1.0" stroke-width="0.5" x1="320.7068" x2="318.8671" y1="273.797" y2="301.4749" /><line stroke="black" stroke-opacity="1.0" stroke-width="0.5" x1="319.7869" x2="330.8592" y1="287.6359" y2="311.549" /><line stroke="black" stroke-opacity="1.0" stroke-width="0.5" x1="325.323" x2="345.4453" y1="299.5925" y2="314.4859" /><line stroke="black" stroke-opacity="1.0" stroke-width="0.5" x1="335.3842" x2="358.9435" y1="307.0392" y2="310.2912" /><line stroke="black" stroke-opacity="1.0" stroke-width="0.5" x1="347.1638" x2="368.2864" y1="308.6652" y2="300.6462" /><line stroke="black" stroke-opacity="1.0" stroke-width="0.5" x1="357.7251" x2="371.6828" y1="304.6557" y2="288.3498" /><line stroke="black" stroke-opacity="1.0" stroke-width="0.5" x1="364.704" x2="368.914" y1="296.5028" y2="276.5514" /><line stroke="black" stroke-opacity="1.0" stroke-width="0.5" x1="366.809" x2="361.232" y1="286.5271" y2="267.9761" /><line stroke="black" stroke-opacity="1.0" stroke-width="0.5" x1="364.0205" x2="350.9218" y1="277.2516" y2="264.3257" /><line stroke="black" stroke-opacity="1.0" stroke-width="0.5" x1="357.4711" x2="340.6635" y1="270.7887" y2="265.9781" /><line stroke="black" stroke-opacity="1.0" stroke-width="0.5" x1="349.0673" x2="332.8638" y1="268.3834" y2="272.0279" /><line stroke="black" stroke-opacity="1.0" stroke-width="0.5" x1="340.9656" x2="329.1166" y1="270.2057" y2="280.6241" /><line stroke="black" stroke-opacity="1.0" stroke-width="0.5" x1="335.0411" x2="329.9076" y1="275.4149" y2="289.4974" /><line stroke="black" stroke-opacity="1.0" stroke-width="0.5" x1="332.4743" x2="334.6085" y1="282.4562" y2="296.5349" /><line stroke="black" stroke-opacity="1.0" stroke-width="0.5" x1="333.5414" x2="341.7329" y1="289.4955" y2="300.261" /><line stroke="black" stroke-opacity="1.0" stroke-width="0.5" x1="337.6372" x2="349.3696" y1="294.8782" y2="300.1226" /><line stroke="black" stroke-opacity="1.0" stroke-width="0.5" x1="343.5034" x2="355.6734" y1="297.5004" y2="296.5291" /><line stroke="black" stroke-opacity="1.0" stroke-width="0.5" x1="349.5884" x2="359.2921" y1="297.0147" y2="290.6621" /><line stroke="black" stroke-opacity="1.0" stroke-width="0.5" x1="354.4402" x2="359.6369" y1="293.8384" y2="284.1225" /><line stroke="black" stroke-opacity="1.0" stroke-width="0.5" x1="357.0386" x2="356.9459" y1="288.9805" y2="278.5135" /><line stroke="black" stroke-opacity="1.0" stroke-width="0.5" x1="356.9922" x2="352.1478" y1="283.747" y2="275.0628" /><line stroke="black" stroke-opacity="1.0" stroke-width="0.5" x1="354.57" x2="346.5759" y1="279.4049" y2="274.3713" /><line stroke="black" stroke-opacity="1.0" stroke-width="0.5" x1="350.573" x2="341.6157" y1="276.8881" y2="276.3325" /><line stroke="black" stroke-opacity="1.0" stroke-width="0.5" x1="346.0943" x2="338.3736" y1="276.6103" y2="280.2268" /><line stroke="black" stroke-opacity="1.0" stroke-width="0.5" x1="342.234" x2="337.4443" y1="278.4185" y2="284.95" /><line stroke="black" stroke-opacity="1.0" stroke-width="0.5" x1="339.8391" x2="338.8207" y1="281.6843" y2="289.3111" /><line stroke="black" stroke-opacity="1.0" stroke-width="0.5" x1="339.3299" x2="341.9546" y1="285.4977" y2="292.32" /><line stroke="black" stroke-opacity="1.0" stroke-width="0.5" x1="340.6422" x2="345.9377" y1="288.9089" y2="293.4012" /><line stroke="black" stroke-opacity="1.0" stroke-width="0.5" x1="343.29" x2="349.7508" y1="291.1551" y2="292.4886" /><line stroke="black" stroke-opacity="1.0" stroke-width="0.5" x1="346.5204" x2="352.5142" y1="291.8218" y2="289.9909" /><line stroke="black" stroke-opacity="1.0" stroke-width="0.5" x1="349.5173" x2="353.6805" y1="290.9064" y2="286.65" /><line stroke="black" stroke-opacity="1.0" stroke-width="0.5" x1="351.5989" x2="353.1312" y1="288.7782" y2="283.3335" /><line stroke="black" stroke-opacity="1.0" stroke-width="0.5" x1="352.365" x2="351.1627" y1="286.0559" y2="280.8187" /><line stroke="black" stroke-opacity="1.0" stroke-width="0.5" x1="351.7639" x2="348.3762" y1="283.4373" y2="279.6187" /><line stroke="black" stroke-opacity="1.0" stroke-width="0.5" x1="350.0701" x2="345.5066" y1="281.528" y2="279.8873" /><line stroke="black" stroke-opacity="1.0" stroke-width="0.5" x1="347.7883" x2="343.2365" y1="280.7077" y2="281.4183" /><line stroke="black" stroke-opacity="1.0" stroke-width="0.5" x1="345.5124" x2="342.0412" y1="281.063" y2="283.7286" /><line stroke="black" stroke-opacity="1.0" stroke-width="0.5" x1="343.7768" x2="342.0969" y1="282.3958" y2="286.1991" /><line stroke="black" stroke-opacity="1.0" stroke-width="0.5" x1="342.9368" x2="343.2685" y1="284.2975" y2="288.2334" /><line stroke="black" stroke-opacity="1.0" stroke-width="0.5" x1="343.1027" x2="345.1719" y1="286.2654" y2="289.3958" /><line stroke="black" stroke-opacity="1.0" stroke-width="0.5" x1="344.1373" x2="347.2881" y1="287.8306" y2="289.498" /><line stroke="black" stroke-opacity="1.0" stroke-width="0.5" x1="345.7127" x2="349.0989" y1="288.6643" y2="288.6193" /><line stroke="black" stroke-opacity="1.0" stroke-width="0.5" x1="347.4058" x2="350.2084" y1="288.6418" y2="287.062" /><line stroke="black" stroke-opacity="1.0" stroke-width="0.5" x1="348.8071" x2="350.4242" y1="287.8519" y2="285.2584" /><line stroke="black" stroke-opacity="1.0" stroke-width="0.5" x1="349.6157" x2="349.7826" y1="286.5552" y2="283.6564" /><line stroke="black" stroke-opacity="1.0" stroke-width="0.5" x1="349.6991" x2="348.518" y1="285.1058" y2="282.6131" /><line stroke="black" stroke-opacity="1.0" stroke-width="0.5" x1="349.1086" x2="346.9886" y1="283.8594" y2="282.3192" /><line stroke="black" stroke-opacity="1.0" stroke-width="0.5" x1="348.0486" x2="345.5796" y1="283.0893" y2="282.7707" /><line stroke="black" stroke-opacity="1.0" stroke-width="0.5" x1="346.8141" x2="344.6106" y1="282.93" y2="283.7889" /><line stroke="black" stroke-opacity="1.0" stroke-width="0.5" x1="345.7124" x2="344.2665" y1="283.3595" y2="285.0791" /><line stroke="black" stroke-opacity="1.0" stroke-width="0.5" x1="344.9894" x2="344.5673" y1="284.2193" y2="286.3115" /><line stroke="black" stroke-opacity="1.0" stroke-width="0.5" x1="344.7784" x2="345.3793" y1="285.2654" y2="287.202" /><line stroke="black" stroke-opacity="1.0" stroke-width="0.5" x1="345.0788" x2="346.4618" y1="286.2337" y2="287.5745" /><line stroke="black" stroke-opacity="1.0" stroke-width="0.5" x1="345.7703" x2="347.534" y1="286.9041" y2="287.392" /><line stroke="black" stroke-opacity="1.0" stroke-width="0.5" x1="346.6522" x2="348.3448" y1="287.1481" y2="286.7516" /><line stroke="black" stroke-opacity="1.0" stroke-width="0.5" x1="347.4985" x2="348.7291" y1="286.9498" y2="285.8484" /><line stroke="black" stroke-opacity="1.0" stroke-width="0.5" x1="348.1138" x2="348.6381" y1="286.3991" y2="284.9203" /><line stroke="black" stroke-opacity="1.0" stroke-width="0.5" x1="348.3759" x2="348.1395" y1="285.6597" y2="284.1881" /><line stroke="black" stroke-opacity="1.0" stroke-width="0.5" x1="348.2577" x2="347.3903" y1="284.9239" y2="283.8047" /><line stroke="black" stroke-opacity="1.0" stroke-width="0.5" x1="347.824" x2="346.5911" y1="284.3643" y2="283.8262" /><line stroke="black" stroke-opacity="1.0" stroke-width="0.5" x1="347.2076" x2="345.9346" y1="284.0952" y2="284.2082" /><line stroke="black" stroke-opacity="1.0" stroke-width="0.5" x1="346.5711" x2="345.5613" y1="284.1517" y2="284.8256" /><line stroke="black" stroke-opacity="1.0" stroke-width="0.5" x1="346.0662" x2="345.5313" y1="284.4887" y2="285.5104" /><line stroke="black" stroke-opacity="1.0" stroke-width="0.5" x1="345.7987" x2="345.8181" y1="284.9996" y2="286.0951" /><line stroke="black" stroke-opacity="1.0" stroke-width="0.5" x1="345.8084" x2="346.3236" y1="285.5473" y2="286.4518" /><line stroke="black" stroke-opacity="1.0" stroke-width="0.5" x1="346.066" x2="346.9074" y1="285.9995" y2="286.519" /><line stroke="black" stroke-opacity="1.0" stroke-width="0.5" x1="346.4867" x2="347.4248" y1="286.2593" y2="286.3091" /><line stroke="black" stroke-opacity="1.0" stroke-width="0.5" x1="346.9557" x2="347.7605" y1="286.2842" y2="285.8985" /><line stroke="black" stroke-opacity="1.0" stroke-width="0.5" x1="347.3581" x2="347.8534" y1="286.0914" y2="285.4033" /><line stroke="black" stroke-opacity="1.0" stroke-width="0.5" x1="347.6058" x2="347.7053" y1="285.7473" y2="284.9481" /><line stroke="black" stroke-opacity="1.0" stroke-width="0.5" x1="347.6555" x2="347.3745" y1="285.3477" y2="284.636" /><line stroke="black" stroke-opacity="1.0" stroke-width="0.5" x1="347.515" x2="346.9566" y1="284.9919" y2="284.5266" /><line stroke="black" stroke-opacity="1.0" stroke-width="0.5" x1="347.2358" x2="346.5583" y1="284.7592" y2="284.6256" /><line stroke="black" stroke-opacity="1.0" stroke-width="0.5" x1="346.897" x2="346.2714" y1="284.6924" y2="284.8896" /><line stroke="black" stroke-opacity="1.0" stroke-width="0.5" x1="346.5842" x2="346.1524" y1="284.791" y2="285.2404" /><line stroke="black" stroke-opacity="1.0" stroke-width="0.5" x1="346.3683" x2="346.213" y1="285.0157" y2="285.587" /></svg>