<?xml version="1.0" encoding="utf-8" ?>
<svg baseProfile="tiny" height="500" version="1.2" width="500" xmlns="http://www.w3.org/2000/svg" xmlns:ev="http://www.w3.org/2001/xml-events" xmlns:xlink="http://www.w3.org/1999/xlink"><defs /><circle cx="2" cy="2" r="0.1987" /><circle cx="2" cy="3" r="0.1987" /><circle cx="2" cy="4" r="0.1987" /><circle cx="2" cy="5" r="0.1987" /><circle cx="2" cy="6" r="0.1987" /><circle cx="2" cy="7" r="0.1987" /><circle cx="2" cy="8" r="0.1987" /><circle cx="2" cy="9" r="0.1987" /><circle cx="3" cy="2" r="0.2955" /><circle cx="3" cy="3" r="0.2955" /><circle cx="3" cy="4" r="0.2955" /><circle cx="3" cy="5" r="0.2955" /><circle cx="3" cy="6" r="0.2955" /><circle cx="3" cy="7" r="0.2955" /><circle cx="3" cy="8" r="0.2955" /><circle cx="3" cy="9" r="0.2955" /><circle cx="4" cy="2" r="0.3894" /><circle cx="4" cy="3" r="0.3894" /><circle cx="4" cy="4" r="0.3894" /><circle cx="4" cy="5" r="0.3894" /><circle cx="4" cy="6" r="0.3894" /><circle cx="4" cy="7" r="0.3894" /><circle cx="4" cy="8" r="0.3894" /><circle cx="4" cy="9" r="0.3894" /><circle cx="5" cy="2" r="0.4794" /><circle cx="5" cy="3" r="0.4794" /><circle cx="5" cy="4" r="0.4794" /><circle cx="5" cy="5" r="0.4794" /><circle cx="5" cy="6" r="0.4794" /><circle cx="5" cy="7" r="0.4794" /><circle cx="5" cy="8" r="0.4794" /><circle cx="5" cy="9" r="0.4794" /><circle cx="6" cy="2" r="0.5646" /><circle cx="6" cy="3" r="0.5646" /><circle cx="6" cy="4" r="0.5646" /><circle cx="6" cy="5" r="0.5646" /><circle cx="6" cy="6" r="0.5646" /><circle cx="6" cy="7" r="0.5646" /><circle cx="6" cy="8" r="0.5646" /><circle cx="6" cy="9" r="0.5646" /><circle cx="7" cy="2" r="0.6442" /><circle cx="7" cy="3" r="0.6442" /><circle cx="7" cy="4" r="0.6442" /><circle cx="7" cy="5" r="0.6442" /><circle cx="7" cy="6" r="0.6442" /><circle cx="7" cy="7" r="0.6442" /><circle cx="7" cy="8" r="0.6442" /><circle cx="7" cy="9" r="0.6442" /><circle cx="8" cy="2" r="0.7174" /><circle cx="8" cy="3" r="0.7174" /><circle cx="8" cy="4" r="0.7174" /><circle cx="8" cy="5" r="0.7174" /><circle cx="8" cy="6" r="0.7174" /><circle cx="8" cy="7" r="0.7174" /><circle cx="8" cy="8" r="0.7174" /><circle cx="8" cy="9" r="0.7174" /><circle cx="9" cy="2" r="0.7833" /><circle cx="9" cy="3" r="0.7833" /><circle cx="9" cy="4" r="0.7833" /><circle cx="9" cy="5" r="0.7833" /><circle cx="9" cy="6" r="0.7833" /><circle cx="9" cy="7" r="0.7833" /><circle cx="9" cy="8" r="0.7833" /><circle cx="9" cy="9" r="0.7833" /><circle cx="10" cy="2" r="0.8415" /><circle cx="10" cy="3" r="0.8415" /><circle cx="10" cy="4" r="0.8415" /><circle cx="10" cy="5" r="0.8415" /><circle cx="10" cy="6" r="0.8415" /><circle cx="10" cy="7" r="0.8415" /><circle cx="10" cy="8" r="0.8415" /><circle cx="10" cy="9" r="0.8415" /><circle cx="11" cy="2" r="0.8912" /><circle cx="11" cy="3" r="0.8912" /><circle cx="11" cy="4" r="0.8912" /><circle cx="11" cy="5" r="0.8912" /><circle cx="11" cy="6" r="0.8912" /><circle cx="11" cy="7" r="0.8912" /><circle cx="11" cy="8" r="0.8912" /><circle cx="11" cy="9" r="0.8912" /><circle cx="12" cy="2" r="0.932" /><circle cx="12" cy="3" r="0.932" /><circle cx="12" cy="4" r="0.932" /><circle cx="12" cy="5" r="0.932" /><circle cx="12" cy="6" r="0.932" /><circle cx="12" cy="7" r="0.932" /><circle cx="12" cy="8" r="0.932" /><circle cx="12" cy="9" r="0.932" /><circle cx="13" cy="2" r="0.9636" /><circle cx="13" cy="3" r="0.9636" /><circle cx="13" cy="4" r="0.9636" /><circle cx="13" cy="5" r="0.9636" /><circle cx="13" cy="6" r="0.9636" /><circle cx="13" cy="7" r="0.9636" /><circle cx="13" cy="8" r="0.9636" /><circle cx="13" cy="9" r="0.9636" /><circle cx="14" cy="2" r="0.9854" /><circle cx="14" cy="3" r="0.9854" /><circle cx="14" cy="4" r="0.9854" /><circle cx="14" cy="5" r="0.9854" /><circle cx="14" cy="6" r="0.9854" /><circle cx="14" cy="7" r="0.9854" /><circle cx="14" cy="8" r="0.9854" /><circle cx="14" cy="9" r="0.9854" /><circle cx="15" cy="2" r="0.9975" /><circle cx="15" cy="3" r="0.9975" /><circle cx="15" cy="4" r="0.9975" /><circle cx="15" cy="5" r="0.9975" /><circle cx="15" cy="6" r="0.9975" /><circle cx="15" cy="7" r="0.9975" /><circle cx="15" cy="8" r="0.9975" /><circle cx="15" cy="9" r="0.9975" /><circle cx="16" cy="2" r="0.9996" /><circle cx="16" cy="3" r="0.9996" /><circle cx="16" cy="4" r="0.9996" /><circle cx="16" cy="5" r="0.9996" /><circle cx="16" cy="6" r="0.9996" /><circle cx="16" cy="7" r="0.9996" /><circle cx="16" cy="8" r="0.9996" /><circle cx="16" cy="9" r="0.9996" /><circle cx="17" cy="2" r="0.9917" /><circle cx="17" cy="3" r="0.9917" /><circle cx="17" cy="4" r="0.9917" /><circle cx="17" cy="5" r="0.9917" /><circle cx="17" cy="6" r="0.9917" /><circle cx="17" cy="7" r="0.9917" /><circle cx="17" cy="8" r="0.9917" /><circle cx="17" cy="9" r="0.9917" /><circle cx="18" cy="2" r="0.9738" /><circle cx="18" cy="3" r="0.9738" /><circle cx="18" cy="4" r="0.9738" /><circle cx="18" cy="5" r="0.9738" /><circle cx="18" cy="6" r="0.9738" /><circle cx="18" cy="7" r="0.9738" /><circle cx="18" cy="8" r="0.9738" /><circle cx="18" cy="9" r="0.9738" /><circle cx="19" cy="2" r="0.9463" /><circle cx="19" cy="3" r="0.9463" /><circle cx="19" cy="4" r="0.9463" /><circle cx="19" cy="5" r="0.9463" /><circle cx="19" cy="6" r="0.9463" /><circle cx="19" cy="7" r="0.9463" /><circle cx="19" cy="8" r="0.9463" /><circle cx="19" cy="9" r="0.9463" /><circle cx="20" cy="2" r="0.9093" /><circle cx="20" cy="3" r="0.9093" /><circle cx="20" cy="4" r="0.9093" /><circle cx="20" cy="5" r="0.9093" /><circle cx="20" cy="6" r="0.9093" /><circle cx="20" cy="7" r="0.9093" /><circle cx="20" cy="8" r="0.9093" /><circle cx="20" cy="9" r="0.9093" /><circle cx="21" cy="2" r="0.8632" /><circle cx="21" cy="3" r="0.8632" /><circle cx="21" cy="4" r="0.8632" /><circle cx="21" cy="5" r="0.8632" /><circle cx="21" cy="6" r="0.8632" /><circle cx="21" cy="7" r="0.8632" /><circle cx="21" cy="8" r="0.8632" /><circle cx="21" cy="9" r="0.8632" /><circle cx="22" cy="2" r="0.8085" /><circle cx="22" cy="3" r="0.8085" /><circle cx="22" cy="4" r="0.8085" /><circle cx="22" cy="5" r="0.8085" /><circle cx="22" cy="6" r="0.8085" /><circle cx="22" cy="7" r="0.8085" /><circle cx="22" cy="8" r="0.8085" /><circle cx="22" cy="9" r="0.8085" /><circle cx="23" cy="2" r="0.7457" /><circle cx="23" cy="3" r="0.7457" /><circle cx="23" cy="4" r="0.7457" /><circle cx="23" cy="5" r="0.7457" /><circle cx="23" cy="6" r="0.7457" /><circle cx="23" cy="7" r="0.7457" /><circle cx="23" cy="8" r="0.7457" /><circle cx="23" cy="9" r="0.7457" /><circle cx="24" cy="2" r="0.6755" /><circle cx="24" cy="3" r="0.6755" /><circle cx="24" cy="4" r="0.6755" /><circle cx="24" cy="5" r="0.6755" /><circle cx="24" cy="6" r="0.6755" /><circle cx="24" cy="7" r="0.6755" /><circle cx="24" cy="8" r="0.6755" /><circle cx="24" cy="9" r="0.6755" /><circle cx="25" cy="2" r="0.5985" /><circle cx="25" cy="3" r="0.5985" /><circle cx="25" cy="4" r="0.5985" /><circle cx="25" cy="5" r="0.5985" /><circle cx="25" cy="6" r="0.5985" /><circle cx="25" cy="7" r="0.5985" /><circle cx="25" cy="8" r="0.5985" /><circle cx="25" cy="9" r="0.5985" /><circle cx="26" cy="2" r="0.5155" /><circle cx="26" cy="3" r="0.5155" /><circle cx="26" cy="4" r="0.5155" /><circle cx="26" cy="5" r="0.5155" /><circle cx="26" cy="6" r="0.5155" /><circle cx="26" cy="7" r="0.5155" /><circle cx="26" cy="8" r="0.5155" /><circle cx="26" cy="9" r="0.5155" /><circle cx="27" cy="2" r="0.4274" /><circle cx="27" cy="3" r="0.4274" /><circle cx="27" cy="4" r="0.4274" /><circle cx="27" cy="5" r="0.4274" /><circle cx="27" cy="6" r="0.4274" /><circle cx="27" cy="7" r="0.4274" /><circle cx="27" cy="8" r="0.4274" /><circle cx="27" cy="9" r="0.4274" /><circle cx="28" cy="2" r="0.335" /><circle cx="28" cy="3" r="0.335" /><circle cx="28" cy="4" r="0.335" /><circle cx="28" cy="5" r="0.335" /><circle cx="28" cy="6" r="0.335" /><circle cx="28" cy="7" r="0.335" /><circle cx="28" cy="8" r="0.335" /><circle cx="28" cy="9" r="0.335" /><circle cx="29" cy="2" r="0.2392" /><circle cx="29" cy="3" r="0.2392" /><circle cx="29" cy="4" r="0.2392" /><circle cx="29" cy="5" r="0.2392" /><circle cx="29" cy="6" r="0.2392" /><circle cx="29" cy="7" r="0.2392" /><circle cx="29" cy="8" r="0.2392" /><circle cx="29" cy="9" r="0.2392" /><circle cx="30" cy="2" r="0.1411" /><circle cx="30" cy="3" r="0.1411" /><circle cx="30" cy="4" r="0.1411" /><circle cx="30" cy="5" r="0.1411" /><circle cx="30" cy="6" r="0.1411" /><circle cx="30" cy="7" r="0.1411" /><circle cx="30" cy="8" r="0.1411" /><circle cx="30" cy="9" r="0.1411" /><circle cx="31" cy="2" r="0.0416" /><circle cx="31" cy="3" r="0.0416" /><circle cx="31" cy="4" r="0.0416" /><circle cx="31" cy="5" r="0.0416" /><circle cx="31" cy="6" r="0.0416" /><circle cx="31" cy="7" r="0.0416" /><circle cx="31" cy="8" r="0.0416" /><circle cx="31" cy="9" r="0.0416" /><circle cx="32" cy="2" r="-0.0584" /><circle cx="32" cy="3" r="-0.0584" /><circle cx="32" cy="4" r="-0.0584" /><circle cx="32" cy="5" r="-0.0584" /><circle cx="32" cy="6" r="-0.0584" /><circle cx="32" cy="7" r="-0.0584" /><circle cx="32" cy="8" r="-0.0584" /><circle cx="32" cy="9" r="-0.0584" /><circle cx="33" cy="2" r="-0.1577" /><circle cx="33" cy="3" r="-0.1577" /><circle cx="33" cy="4" r="-0.1577" /><circle cx="33" cy="5" r="-0.1577" /><circle cx="33" cy="6" r="-0.1577" /><circle cx="33" cy="7" r="-0.1577" /><circle cx="33" cy="8" r="-0.1577" /><circle cx="33" cy="9" r="-0.1577" /><circle cx="34" cy="2" r="-0.2555" /><circle cx="34" cy="3" r="-0.2555" /><circle cx="34" cy="4" r="-0.2555" /><circle cx="34" cy="5" r="-0.2555" /><circle cx="34" cy="6" r="-0.2555" /><circle cx="34" cy="7" r="-0.2555" /><circle cx="34" cy="8" r="-0.2555" /><circle cx="34" cy="9" r="-0.2555" /><circle cx="35" cy="2" r="-0.3508" /><circle cx="35" cy="3" r="-0.3508" /><circle cx="35" cy="4" r="-0.3508" /><circle cx="35" cy="5" r="-0.3508" /><circle cx="35" cy="6" r="-0.3508" /><circle cx="35" cy="7" r="-0.3508" /><circle cx="35" cy="8" r="-0.3508" /><circle cx="35" cy="9" r="-0.3508" /><circle cx="36" cy="2" r="-0.4425" /><circle cx="36" cy="3" r="-0.4425" /><circle cx="36" cy="4" r="-0.4425" /><circle cx="36" cy="5" r="-0.4425" /><circle cx="36" cy="6" r="-0.4425" /><circle cx="36" cy="7" r="-0.4425" /><circle cx="36" cy="8" r="-0.4425" /><circle cx="36" cy="9" r="-0.4425" /><circle cx="37" cy="2" r="-0.5298" /><circle cx="37" cy="3" r="-0.5298" /><circle cx="37" cy="4" r="-0.5298" /><circle cx="37" cy="5" r="-0.5298" /><circle cx="37" cy="6" r="-0.5298" /><circle cx="37" cy="7" r="-0.5298" /><circle cx="37" cy="8" r="-0.5298" /><circle cx="37" cy="9" r="-0.5298" /><circle cx="38" cy="2" r="-0.6119" /><circle cx="38" cy="3" r="-0.6119" /><circle cx="38" cy="4" r="-0.6119" /><circle cx="38" cy="5" r="-0.6119" /><circle cx="38" cy="6" r="-0.6119" /><circle cx="38" cy="7" r="-0.6119" /><circle cx="38" cy="8" r="-0.6119" /><circle cx="38" cy="9" r="-0.6119" /><circle cx="39" cy="2" r="-0.6878" /><circle cx="39" cy="3" r="-0.6878" /><circle cx="39" cy="4" r="-0.6878" /><circle cx="39" cy="5" r="-0.6878" /><circle cx="39" cy="6" r="-0.6878" /><circle cx="39" cy="7" r="-0.6878" /><circle cx="39" cy="8" r="-0.6878" /><circle cx="39" cy="9" r="-0.6878" /><circle cx="40" cy="2" r="-0.7568" /><circle cx="40" cy="3" r="-0.7568" /><circle cx="40" cy="4" r="-0.7568" /><circle cx="40" cy="5" r="-0.7568" /><circle cx="40" cy="6" r="-0.7568" /><circle cx="40" cy="7" r="-0.7568" /><circle cx="40" cy="8" r="-0.7568" /><circle cx="40" cy="9" r="-0.7568" /><circle cx="41" cy="2" r="-0.8183" /><circle cx="41" cy="3" r="-0.8183" /><circle cx="41" cy="4" r="-0.8183" /><circle cx="41" cy="5" r="-0.8183" /><circle cx="41" cy="6" r="-0.8183" /><circle cx="41" cy="7" r="-0.8183" /><circle cx="41" cy="8" r="-0.8183" /><circle cx="41" cy="9" r="-0.8183" /><circle cx="42" cy="2" r="-0.8716" /><circle cx="42" cy="3" r="-0.8716" /><circle cx="42" cy="4" r="-0.8716" /><circle cx="42" cy="5" r="-0.8716" /><circle cx="42" cy="6" r="-0.8716" /><circle cx="42" cy="7" r="-0.8716" /><circle cx="42" cy="8" r="-0.8716" /><circle cx="42" cy="9" r="-0.8716" /><circle cx="43" cy="2" r="-0.9162" /><circle cx="43" cy="3" r="-0.9162" /><circle cx="43" cy="4" r="-0.9162" /><circle cx="43" cy="5" r="-0.9162" /><circle cx="43" cy="6" r="-0.9162" /><circle cx="43" cy="7" r="-0.9162" /><circle cx="43" cy="8" r="-0.9162" /><circle cx="43" cy="9" r="-0.9162" /><circle cx="44" cy="2" r="-0.9516" /><circle cx="44" cy="3" r="-0.9516" /><circle cx="44" cy="4" r="-0.9516" /><circle cx="44" cy="5" r="-0.9516" /><circle cx="44" cy="6" r="-0.9516" /><circle cx="44" cy="7" r="-0.9516" /><circle cx="44" cy="8" r="-0.9516" /><circle cx="44" cy="9" r="-0.9516" /><circle cx="45" cy="2" r="-0.9775" /><circle cx="45" cy="3" r="-0.9775" /><circle cx="45" cy="4" r="-0.9775" /><circle cx="45" cy="5" r="-0.9775" /><circle cx="45" cy="6" r="-0.9775" /><circle cx="45" cy="7" r="-0.9775" /><circle cx="45" cy="8" r="-0.9775" /><circle cx="45" cy="9" r="-0.9775" /><circle cx="46" cy="2" r="-0.9937" /><circle cx="46" cy="3" r="-0.9937" /><circle cx="46" cy="4" r="-0.9937" /><circle cx="46" cy="5" r="-0.9937" /><circle cx="46" cy="6" r="-0.9937" /><circle cx="46" cy="7" r="-0.9937" /><circle cx="46" cy="8" r="-0.9937" /><circle cx="46" cy="9" r="-0.9937" /><circle cx="47" cy="2" r="-0.9999" /><circle cx="47" cy="3" r="-0.9999" /><circle cx="47" cy="4" r="-0.9999" /><circle cx="47" cy="5" r="-0.9999" /><circle cx="47" cy="6" r="-0.9999" /><circle cx="47" cy="7" r="-0.9999" /><circle cx="47" cy="8" r="-0.9999" /><circle cx="47" cy="9" r="-0.9999" /><circle cx="48" cy="2" r="-0.9962" /><circle cx="48" cy="3" r="-0.9962" /><circle cx="48" cy="4" r="-0.9962" /><circle cx="48" cy="5" r="-0.9962" /><circle cx="48" cy="6" r="-0.9962" /><circle cx="48" cy="7" r="-0.9962" /><circle cx="48" cy="8" r="-0.9962" /><circle cx="48" cy="9" r="-0.9962" /><circle cx="49" cy="2" r="-0.9825" /><circle cx="49" cy="3" r="-0.9825" /><circle cx="49" cy="4" r="-0.9825" /><circle cx="49" cy="5" r="-0.9825" /><circle cx="49" cy="6" r="-0.9825" /><circle cx="49" cy="7" r="-0.9825" /><circle cx="49" cy="8" r="-0.9825" /><circle cx="49" cy="9" r="-0.9825" /><circle cx="50" cy="2" r="-0.9589" /><circle cx="50" cy="3" r="-0.9589" /><circle cx="50" cy="4" r="-0.9589" /><circle cx="50" cy="5" r="-0.9589" /><circle cx="50" cy="6" r="-0.9589" /><circle cx="50" cy="7" r="-0.9589" /><circle cx="50" cy="8" r="-0.9589" /><circle cx="50" cy="9" r="-0.9589" /><circle cx="51" cy="2" r="-0.9258" /><circle cx="51" cy="3" r="-0.9258" /><circle cx="51" cy="4" r="-0.9258" /><circle cx="51" cy="5" r="-0.9258" /><circle cx="51" cy="6" r="-0.9258" /><circle cx="51" cy="7" r="-0.9258" /><circle cx="51" cy="8" r="-0.9258" /><circle cx="51" cy="9" r="-0.9258" /><circle cx="52" cy="2" r="-0.8835" /><circle cx="52" cy="3" r="-0.8835" /><circle cx="52" cy="4" r="-0.8835" /><circle cx="52" cy="5" r="-0.8835" /><circle cx="52" cy="6" r="-0.8835" /><circle cx="52" cy="7" r="-0.8835" /><circle cx="52" cy="8" r="-0.8835" /><circle cx="52" cy="9" r="-0.8835" /><circle cx="53" cy="2" r="-0.8323" /><circle cx="53" cy="3" r="-0.8323" /><circle cx="53" cy="4" r="-0.8323" /><circle cx="53" cy="5" r="-0.8323" /><circle cx="53" cy="6" r="-0.8323" /><circle cx="53" cy="7" r="-0.8323" /><circle cx="53" cy="8" r="-0.8323" /><circle cx="53" cy="9" r="-0.8323" /><circle cx="54" cy="2" r="-0.7728" /><circle cx="54" cy="3" r="-0.7728" /><circle cx="54" cy="4" r="-0.7728" /><circle cx="54" cy="5" r="-0.7728" /><circle cx="54" cy="6" r="-0.7728" /><circle cx="54" cy="7" r="-0.7728" /><circle cx="54" cy="8" r="-0.7728" /><circle cx="54" cy="9" r="-0.7728" /><circle cx="55" cy="2" r="-0.7055" /><circle cx="55" cy="3" r="-0.7055" /><circle cx="55" cy="4" r="-0.7055" /><circle cx="55" cy="5" r="-0.7055" /><circle cx="55" cy="6" r="-0.7055" /><circle cx="55" cy="7" r="-0.7055" /><circle cx="55" cy="8" r="-0.7055" /><circle cx="55" cy="9" r="-0.7055" /><circle cx="56" cy="2" r="-0.6313" /><circle cx="56" cy="3" r="-0.6313" /><circle cx="56" cy="4" r="-0.6313" /><circle cx="56" cy="5" r="-0.6313" /><circle cx="56" cy="6" r="-0.6313" /><circle cx="56" cy="7" r="-0.6313" /><circle cx="56" cy="8" r="-0.6313" /><circle cx="56" cy="9" r="-0.6313" /><circle cx="57" cy="2" r="-0.5507" /><circle cx="57" cy="3" r="-0.5507" /><circle cx="57" cy="4" r="-0.5507" /><circle cx="57" cy="5" r="-0.5507" /><circle cx="57" cy="6" r="-0.5507" /><circle cx="57" cy="7" r="-0.5507" /><circle cx="57" cy="8" r="-0.5507" /><circle cx="57" cy="9" r="-0.5507" /><circle cx="58" cy="2" r="-0.4646" /><circle cx="58" cy="3" r="-0.4646" /><circle cx="58" cy="4" r="-0.4646" /><circle cx="58" cy="5" r="-0.4646" /><circle cx="58" cy="6" r="-0.4646" /><circle cx="58" cy="7" r="-0.4646" /><circle cx="58" cy="8" r="-0.4646" /><circle cx="58" cy="9" r="-0.4646" /><circle cx="59" cy="2" r="-0.3739" /><circle cx="59" cy="3" r="-0.3739" /><circle cx="59" cy="4" r="-0.3739" /><circle cx="59" cy="5" r="-0.3739" /><circle cx="59" cy="6" r="-0.3739" /><circle cx="59" cy="7" r="-0.3739" /><circle cx="59" cy="8" r="-0.3739" /><circle cx="59" cy="9" r="-0.3739" /><circle cx="60" cy="2" r="-0.2794" /><circle cx="60" cy="3" r="-0.2794" /><circle cx="60" cy="4" r="-0.2794" /><circle cx="60" cy="5" r="-0.2794" /><circle cx="60" cy="6" r="-0.2794" /><circle cx="60" cy="7" r="-0.2794" /><circle cx="60" cy="8" r="-0.2794" /><circle cx="60" cy="9" r="-0.2794" /><circle cx="61" cy="2" r="-0.1822" /><circle cx="61" cy="3" r="-0.1822" /><circle cx="61" cy="4" r="-0.1822" /><circle cx="61" cy="5" r="-0.1822" /><circle cx="61" cy="6" r="-0.1822" /><circle cx="61" cy="7" r="-0.1822" /><circle cx="61" cy="8" r="-0.1822" /><circle cx="61" cy="9" r="-0.1822" /><circle cx="62" cy="2" r="-0.0831" /><circle cx="62" cy="3" r="-0.0831" /><circle cx="62" cy="4" r="-0.0831" /><circle cx="62" cy="5" r="-0.0831" /><circle cx="62" cy="6" r="-0.0831" /><circle cx="62" cy="7" r="-0.0831" /><circle cx="62" cy="8" r="-0.0831" /><circle cx="62" cy="9" r="-0.0831" /><circle cx="63" cy="2" r="0.0168" /><circle cx="63" cy="3" r="0.0168" /><circle cx="63" cy="4" r="0.0168" /><circle cx="63" cy="5" r="0.0168" /><circle cx="63" cy="6" r="0.0168" /><circle cx="63" cy="7" r="0.0168" /><circle cx="63" cy="8" r="0.0168" /><circle cx="63" cy="9" r="0.0168" /><circle cx="64" cy="2" r="0.1165" /><circle cx="64" cy="3" r="0.1165" /><circle cx="64" cy="4" r="0.1165" /><circle cx="64" cy="5" r="0.1165" /><circle cx="64" cy="6" r="0.1165" /><circle cx="64" cy="7" r="0.1165" /><circle cx="64" cy="8" r="0.1165" /><circle cx="64" cy="9" r="0.1165" /><circle cx="65" cy="2" r="0.2151" /><circle cx="65" cy="3" r="0.2151" /><circle cx="65" cy="4" r="0.2151" /><circle cx="65" cy="5" r="0.2151" /><circle cx="65" cy="6" r="0.2151" /><circle cx="65" cy="7" r="0.2151" /><circle cx="65" cy="8" r="0.2151" /><circle cx="65" cy="9" r="0.2151" /><circle cx="66" cy="2" r="0.3115" /><circle cx="66" cy="3" r="0.3115" /><circle cx="66" cy="4" r="0.3115" /><circle cx="66" cy="5" r="0.3115" /><circle cx="66" cy="6" r="0.3115" /><circle cx="66" cy="7" r="0.3115" /><circle cx="66" cy="8" r="0.3115" /><circle cx="66" cy="9" r="0.3115" /><circle cx="67" cy="2" r="0.4048" /><circle cx="67" cy="3" r="0.4048" /><circle cx="67" cy="4" r="0.4048" /><circle cx="67" cy="5" r="0.4048" /><circle cx="67" cy="6" r="0.4048" /><circle cx="67" cy="7" r="0.4048" /><circle cx="67" cy="8" r="0.4048" /><circle cx="67" cy="9" r="0.4048" /><circle cx="68" cy="2" r="0.4941" /><circle cx="68" cy="3" r="0.4941" /><circle cx="68" cy="4" r="0.4941" /><circle cx="68" cy="5" r="0.4941" /><circle cx="68" cy="6" r="0.4941" /><circle cx="68" cy="7" r="0.4941" /><circle cx="68" cy="8" r="0.4941" /><circle cx="68" cy="9" r="0.4941" /><circle cx="69" cy="2" r="0.5784" /><circle cx="69" cy="3" r="0.5784" /><circle cx="69" cy="4" r="0.5784" /><circle cx="69" cy="5" r="0.5784" /><circle cx="69" cy="6" r="0.5784" /><circle cx="69" cy="7" r="0.5784" /><circle cx="69" cy="8" r="0.5784" /><circle cx="69" cy="9" r="0.5784" /><circle cx="70" cy="2" r="0.657" /><circle cx="70" cy="3" r="0.657" /><circle cx="70" cy="4" r="0.657" /><circle cx="70" cy="5" r="0.657" /><circle cx="70" cy="6" r="0.657" /><circle cx="70" cy="7" r="0.657" /><circle cx="70" cy="8" r="0.657" /><circle cx="70" cy="9" r="0.657" /><circle cx="71" cy="2" r="0.729" /><circle cx="71" cy="3" r="0.729" /><circle cx="71" cy="4" r="0.729" /><circle cx="71" cy="5" r="0.729" /><circle cx="71" cy="6" r="0.729" /><circle cx="71" cy="7" r="0.729" /><circle cx="71" cy="8" r="0.729" /><circle cx="71" cy="9" r="0.729" /><circle cx="72" cy="2" r="0.7937" /><circle cx="72" cy="3" r="0.7937" /><circle cx="72" cy="4" r="0.7937" /><circle cx="72" cy="5" r="0.7937" /><circle cx="72" cy="6" r="0.7937" /><circle cx="72" cy="7" r="0.7937" /><circle cx="72" cy="8" r="0.7937" /><circle cx="72" cy="9" r="0.7937" /><circle cx="73" cy="2" r="0.8504" /><circle cx="73" cy="3" r="0.8504" /><circle cx="73" cy="4" r="0.8504" /><circle cx="73" cy="5" r="0.8504" /><circle cx="73" cy="6" r="0.8504" /><circle cx="73" cy="7" r="0.8504" /><circle cx="73" cy="8" r="0.8504" /><circle cx="73" cy="9" r="0.8504" /><circle cx="74" cy="2" r="0.8987" /><circle cx="74" cy="3" r="0.8987" /><circle cx="74" cy="4" r="0.8987" /><circle cx="74" cy="5" r="0.8987" /><circle cx="74" cy="6" r="0.8987" /><circle cx="74" cy="7" r="0.8987" /><circle cx="74" cy="8" r="0.8987" /><circle cx="74" cy="9" r="0.8987" /><circle cx="75" cy="2" r="0.938" /><circle cx="75" cy="3" r="0.938" /><circle cx="75" cy="4" r="0.938" /><circle cx="75" cy="5" r="0.938" /><circle cx="75" cy="6" r="0.938" /><circle cx="75" cy="7" r="0.938" /><circle cx="75" cy="8" r="0.938" /><circle cx="75" cy="9" r="0.938" /><circle cx="76" cy="2" r="0.9679" /><circle cx="76" cy="3" r="0.9679" /><circle cx="76" cy="4" r="0.9679" /><circle cx="76" cy="5" r="0.9679" /><circle cx="76" cy="6" r="0.9679" /><circle cx="76" cy="7" r="0.9679" /><circle cx="76" cy="8" r="0.9679" /><circle cx="76" cy="9" r="0.9679" /><circle cx="77" cy="2" r="0.9882" /><circle cx="77" cy="3" r="0.9882" /><circle cx="77" cy="4" r="0.9882" /><circle cx="77" cy="5" r="0.9882" /><circle cx="77" cy="6" r="0.9882" /><circle cx="77" cy="7" r="0.9882" /><circle cx="77" cy="8" r="0.9882" /><circle cx="77" cy="9" r="0.9882" /><circle cx="78" cy="2" r="0.9985" /><circle cx="78" cy="3" r="0.9985" /><circle cx="78" cy="4" r="0.9985" /><circle cx="78" cy="5" r="0.9985" /><circle cx="78" cy="6" r="0.9985" /><circle cx="78" cy="7" r="0.9985" /><circle cx="78" cy="8" r="0.9985" /><circle cx="78" cy="9" r="0.9985" /><circle cx="79" cy="2" r="0.9989" /><circle cx="79" cy="3" r="0.9989" /><circle cx="79" cy="4" r="0.9989" /><circle cx="79" cy="5" r="0.9989" /><circle cx="79" cy="6" r="0.9989" /><circle cx="79" cy="7" r="0.9989" /><circle cx="79" cy="8" r="0.9989" /><circle cx="79" cy="9" r="0.9989" /><circle cx="80" cy="2" r="0.9894" /><circle cx="80" cy="3" r="0.9894" /><circle cx="80" cy="4" r="0.9894" /><circle cx="80" cy="5" r="0.9894" /><circle cx="80" cy="6" r="0.9894" /><circle cx="80" cy="7" r="0.9894" /><circle cx="80" cy="8" r="0.9894" /><circle cx="80" cy="9" r="0.9894" /><circle cx="81" cy="2" r="0.9699" /><circle cx="81" cy="3" r="0.9699" /><circle cx="81" cy="4" r="0.9699" /><circle cx="81" cy="5" r="0.9699" /><circle cx="81" cy="6" r="0.9699" /><circle cx="81" cy="7" r="0.9699" /><circle cx="81" cy="8" r="0.9699" /><circle cx="81" cy="9" r="0.9699" /><circle cx="82" cy="2" r="0.9407" /><circle cx="82" cy="3" r="0.9407" /><circle cx="82" cy="4" r="0.9407" /><circle cx="82" cy="5" r="0.9407" /><circle cx="82" cy="6" r="0.9407" /><circle cx="82" cy="7" r="0.9407" /><circle cx="82" cy="8" r="0.9407" /><circle cx="82" cy="9" r="0.9407" /><circle cx="83" cy="2" r="0.9022" /><circle cx="83" cy="3" r="0.9022" /><circle cx="83" cy="4" r="0.9022" /><circle cx="83" cy="5" r="0.9022" /><circle cx="83" cy="6" r="0.9022" /><circle cx="83" cy="7" r="0.9022" /><circle cx="83" cy="8" r="0.9022" /><circle cx="83" cy="9" r="0.9022" /><circle cx="84" cy="2" r="0.8546" /><circle cx="84" cy="3" r="0.8546" /><circle cx="84" cy="4" r="0.8546" /><circle cx="84" cy="5" r="0.8546" /><circle cx="84" cy="6" r="0.8546" /><circle cx="84" cy="7" r="0.8546" /><circle cx="84" cy="8" r="0.8546" /><circle cx="84" cy="9" r="0.8546" /><circle cx="85" cy="2" r="0.7985" /><circle cx="85" cy="3" r="0.7985" /><circle cx="85" cy="4" r="0.7985" /><circle cx="85" cy="5" r="0.7985" /><circle cx="85" cy="6" r="0.7985" /><circle cx="85" cy="7" r="0.7985" /><circle cx="85" cy="8" r="0.7985" /><circle cx="85" cy="9" r="0.7985" /><circle cx="86" cy="2" r="0.7344" /><circle cx="86" cy="3" r="0.7344" /><circle cx="86" cy="4" r="0.7344" /><circle cx="86" cy="5" r="0.7344" /><circle cx="86" cy="6" r="0.7344" /><circle cx="86" cy="7" r="0.7344" /><circle cx="86" cy="8" r="0.7344" /><circle cx="86" cy="9" r="0.7344" /><circle cx="87" cy="2" r="0.663" /><circle cx="87" cy="3" r="0.663" /><circle cx="87" cy="4" r="0.663" /><circle cx="87" cy="5" r="0.663" /><circle cx="87" cy="6" r="0.663" /><circle cx="87" cy="7" r="0.663" /><circle cx="87" cy="8" r="0.663" /><circle cx="87" cy="9" r="0.663" /><circle cx="88" cy="2" r="0.5849" /><circle cx="88" cy="3" r="0.5849" /><circle cx="88" cy="4" r="0.5849" /><circle cx="88" cy="5" r="0.5849" /><circle cx="88" cy="6" r="0.5849" /><circle cx="88" cy="7" r="0.5849" /><circle cx="88" cy="8" r="0.5849" /><circle cx="88" cy="9" r="0.5849" /><circle cx="89" cy="2" r="0.501" /><circle cx="89" cy="3" r="0.501" /><circle cx="89" cy="4" r="0.501" /><circle cx="89" cy="5" r="0.501" /><circle cx="89" cy="6" r="0.501" /><circle cx="89" cy="7" r="0.501" /><circle cx="89" cy="8" r="0.501" /><circle cx="89" cy="9" r="0.501" /><circle cx="90" cy="2" r="0.4121" /><circle cx="90" cy="3" r="0.4121" /><circle cx="90" cy="4" r="0.4121" /><circle cx="90" cy="5" r="0.4121" /><circle cx="90" cy="6" r="0.4121" /><circle cx="90" cy="7" r="0.4121" /><circle cx="90" cy="8" r="0.4121" /><circle cx="90" cy="9" r="0.4121" /><circle cx="91" cy="2" r="0.3191" /><circle cx="91" cy="3" r="0.3191" /><circle cx="91" cy="4" r="0.3191" /><circle cx="91" cy="5" r="0.3191" /><circle cx="91" cy="6" r="0.3191" /><circle cx="91" cy="7" r="0.3191" /><circle cx="91" cy="8" r="0.3191" /><circle cx="91" cy="9" r="0.3191" /><circle cx="92" cy="2" r="0.2229" /><circle cx="92" cy="3" r="0.2229" /><circle cx="92" cy="4" r="0.2229" /><circle cx="92" cy="5" r="0.2229" /><circle cx="92" cy="6" r="0.2229" /><circle cx="92" cy="7" r="0.2229" /><circle cx="92" cy="8" r="0.2229" /><circle cx="92" cy="9" r="0.2229" /><circle cx="93" cy="2" r="0.1245" /><circle cx="93" cy="3" r="0.1245" /><circle cx="93" cy="4" r="0.1245" /><circle cx="93" cy="5" r="0.1245" /><circle cx="93" cy="6" r="0.1245" /><circle cx="93" cy="7" r="0.1245" /><circle cx="93" cy="8" r="0.1245" /><circle cx="93" cy="9" r="0.1245" /><circle cx="94" cy="2" r="0.0248" /><circle cx="94" cy="3" r="0.0248" /><circle cx="94" cy="4" r="0.0248" /><circle cx="94" cy="5" r="0.0248" /><circle cx="94" cy="6" r="0.0248" /><circle cx="94" cy="7" r="0.0248" /><circle cx="94" cy="8" r="0.0248" /><circle cx="94" cy="9" r="0.0248" /><circle cx="95" cy="2" r="-0.0752" /><circle cx="95" cy="3" r="-0.0752" /><circle cx="95" cy="4" r="-0.0752" /><circle cx="95" cy="5" r="-0.0752" /><circle cx="95" cy="6" r="-0.0752" /><circle cx="95" cy="7" r="-0.0752" /><circle cx="95" cy="8" r="-0.0752" /><circle cx="95" cy="9" r="-0.0752" /><circle cx="96" cy="2" r="-0.1743" /><circle cx="96" cy="3" r="-0.1743" /><circle cx="96" cy="4" r="-0.1743" /><circle cx="96" cy="5" r="-0.1743" /><circle cx="96" cy="6" r="-0.1743" /><circle cx="96" cy="7" r="-0.1743" /><circle cx="96" cy="8" r="-0.1743" /><circle cx="96" cy="9" r="-0.1743" /><circle cx="97" cy="2" r="-0.2718" /><circle cx="97" cy="3" r="-0.2718" /><circle cx="97" cy="4" r="-0.2718" /><circle cx="97" cy="5" r="-0.2718" /><circle cx="97" cy="6" r="-0.2718" /><circle cx="97" cy="7" r="-0.2718" /><circle cx="97" cy="8" r="-0.2718" /><circle cx="97" cy="9" r="-0.2718" /><circle cx="98" cy="2" r="-0.3665" /><circle cx="98" cy="3" r="-0.3665" /><circle cx="98" cy="4" r="-0.3665" /><circle cx="98" cy="5" r="-0.3665" /><circle cx="98" cy="6" r="-0.3665" /><circle cx="98" cy="7" r="-0.3665" /><circle cx="98" cy="8" r="-0.3665" /><circle cx="98" cy="9" r="-0.3665" /><circle cx="99" cy="2" r="-0.4575" /><circle cx="99" cy="3" r="-0.4575" /><circle cx="99" cy="4" r="-0.4575" /><circle cx="99" cy="5" r="-0.4575" /><circle cx="99" cy="6" r="-0.4575" /><circle cx="99" cy="7" r="-0.4575" /><circle cx="99" cy="8" r="-0.4575" /><circle cx="99" cy="9" r="-0.4575" /></svg>