<?xml version="1.0" encoding="utf-8" ?>
<svg baseProfile="tiny" height="500" version="1.2" width="500" xmlns="http://www.w3.org/2000/svg" xmlns:ev="http://www.w3.org/2001/xml-events" xmlns:xlink="http://www.w3.org/1999/xlink"><defs /><rect fill="none" height="20" stroke="black" stroke-width="1" width="20" x="0" y="0" /><rect fill="none" height="40" stroke="black" stroke-width="1" width="40" x="0" y="0" /><rect fill="none" height="60" stroke="black" stroke-width="1" width="60" x="0" y="0" /><rect fill="none" height="80" stroke="black" stroke-width="1" width="80" x="0" y="0" /><rect fill="none" height="100" stroke="black" stroke-width="1" width="100" x="0" y="0" /><rect fill="none" height="120" stroke="black" stroke-width="1" width="120" x="0" y="0" /><rect fill="none" height="140" stroke="black" stroke-width="1" width="140" x="0" y="0" /><rect fill="none" height="160" stroke="black" stroke-width="1" width="160" x="0" y="0" /><rect fill="none" height="180" stroke="black" stroke-width="1" width="180" x="0" y="0" /><rect fill="none" height="200" stroke="black" stroke-width="1" width="200" x="0" y="0" /><rect fill="none" height="220" stroke="black" stroke-width="1" width="220" x="0" y="0" /><rect fill="none" height="240" stroke="black" stroke-width="1" width="240" x="0" y="0" /><rect fill="none" height="260" stroke="black" stroke-width="1" width="260" x="0" y="0" /><rect fill="none" height="280" stroke="black" stroke-width="1" width="280" x="0" y="0" /><rect fill="none" height="300" stroke="black" stroke-width="1" width="300" x="0" y="0" /><rect fill="none" height="320" stroke="black" stroke-width="1" width="320" x="0" y="0" /><rect fill="none" height="340" stroke="black" stroke-width="1" width="340" x="0" y="0" /><rect fill="none" height="360" stroke="black" stroke-width="1" width="360" x="0" y="0" /><rect fill="none" height="380" stroke="black" stroke-width="1" width="380" x="0" y="0" /><rect fill="none" height="400" stroke="black" stroke-width="1" width="400" x="0" y="0" /><rect fill="none" height="420" stroke="black" stroke-width="1" width="420" x="0" y="0" /><rect fill="none" height="440" stroke="black" stroke-width="1" width="440" x="0" y="0" /><rect fill="none" height="460" stroke="black" stroke-width="1" width="460" x="0" y="0" /><rect fill="none" height="480" stroke="black" stroke-width="1" width="480" x="0" y="0" /></svg>