<?xml version="1.0" encoding="utf-8" ?>
<svg baseProfile="tiny" height="500" version="1.2" width="500" xmlns="http://www.w3.org/2000/svg" xmlns:ev="http://www.w3.org/2001/xml-events" xmlns:xlink="http://www.w3.org/1999/xlink"><defs /><rect fill="none" height="10" stroke="black" stroke-width="0.5" transform="rotate(-0.0 0 0)" width="10" x="0.0" y="0.0" /><rect fill="none" height="10" stroke="black" stroke-width="0.5" transform="rotate(-0.026943612739246413 0 10)" width="10" x="0.0049" y="10.0049" /><rect fill="none" height="10" stroke="black" stroke-width="0.5" transform="rotate(-0.1403493915879261 0 20)" width="10" x="0.0104" y="20.0104" /><rect fill="none" height="10" stroke="black" stroke-width="0.5" transform="rotate(0.1879186305119926 0 30)" width="10" x="0.022" y="30.022" /><rect fill="none" height="10" stroke="black" stroke-width="0.5" transform="rotate(0.4536456230339807 0 40)" width="10" x="-0.0261" y="39.9739" /><rect fill="none" height="10" stroke="black" stroke-width="0.5" transform="rotate(-0.21998098176531422 0 50)" width="10" x="0.0395" y="50.0395" /><rect fill="none" height="10" stroke="black" stroke-width="0.5" transform="rotate(-1.4931183750659183 0 60)" width="10" x="0.0143" y="60.0143" /><rect fill="none" height="10" stroke="black" stroke-width="0.5" transform="rotate(-1.549854142829249 0 70)" width="10" x="-0.0484" y="69.9516" /><rect fill="none" height="10" stroke="black" stroke-width="0.5" transform="rotate(-2.2966839081991424 0 80)" width="10" x="-0.0112" y="79.9888" /><rect fill="none" height="10" stroke="black" stroke-width="0.5" transform="rotate(-0.8228653848457895 0 90)" width="10" x="0.124" y="90.124" /><rect fill="none" height="10" stroke="black" stroke-width="0.5" transform="rotate(2.5667230518157655 0 100)" width="10" x="-0.1171" y="99.8829" /><rect fill="none" height="10" stroke="black" stroke-width="0.5" transform="rotate(-2.460737045181485 0 110)" width="10" x="0.148" y="110.148" /><rect fill="none" height="10" stroke="black" stroke-width="0.5" transform="rotate(4.842481912353551 0 120)" width="10" x="-0.0271" y="119.9729" /><rect fill="none" height="10" stroke="black" stroke-width="0.5" transform="rotate(-2.7582722965363056 0 130)" width="10" x="-0.7374" y="129.2626" /><rect fill="none" height="10" stroke="black" stroke-width="0.5" transform="rotate(-0.03391675536310945 0 140)" width="10" x="-0.1434" y="139.8566" /><rect fill="none" height="10" stroke="black" stroke-width="0.5" transform="rotate(11.064130688987301 0 150)" width="10" x="0.4496" y="150.4496" /><rect fill="none" height="10" stroke="black" stroke-width="0.5" transform="rotate(-3.7671489518928043 0 160)" width="10" x="0.9619" y="160.9619" /><rect fill="none" height="10" stroke="black" stroke-width="0.5" transform="rotate(-11.99180758538837 0 170)" width="10" x="0.9817" y="170.9817" /><rect fill="none" height="10" stroke="black" stroke-width="0.5" transform="rotate(-8.87770664437111 0 180)" width="10" x="-0.4292" y="179.5708" /><rect fill="none" height="10" stroke="black" stroke-width="0.5" transform="rotate(12.587079951080131 0 190)" width="10" x="-0.8225" y="189.1775" /><rect fill="none" height="10" stroke="black" stroke-width="0.5" transform="rotate(1.1365595991437427 0 200)" width="10" x="-0.0637" y="199.9363" /><rect fill="none" height="10" stroke="black" stroke-width="0.5" transform="rotate(17.55056237987552 0 210)" width="10" x="-0.0337" y="209.9663" /><rect fill="none" height="10" stroke="black" stroke-width="0.5" transform="rotate(-6.318977967084675 0 220)" width="10" x="-0.4146" y="219.5854" /><rect fill="none" height="10" stroke="black" stroke-width="0.5" transform="rotate(-9.411998334110104 0 230)" width="10" x="1.3345" y="231.3345" /><rect fill="none" height="10" stroke="black" stroke-width="0.5" transform="rotate(7.476432978657405 0 240)" width="10" x="0.4007" y="240.4007" /><rect fill="none" height="10" stroke="black" stroke-width="0.5" transform="rotate(1.980207751818598 0 250)" width="10" x="0.1666" y="250.1666" /><rect fill="none" height="10" stroke="black" stroke-width="0.5" transform="rotate(0.19405054527328686 0 260)" width="10" x="2.1684" y="262.1684" /><rect fill="none" height="10" stroke="black" stroke-width="0.5" transform="rotate(-20.476384952731134 0 270)" width="10" x="0.7342" y="270.7342" /><rect fill="none" height="10" stroke="black" stroke-width="0.5" transform="rotate(11.293494266241126 0 280)" width="10" x="-0.7909" y="279.2091" /><rect fill="none" height="10" stroke="black" stroke-width="0.5" transform="rotate(14.91479302453088 0 290)" width="10" x="-3.655" y="286.345" /><rect fill="none" height="10" stroke="black" stroke-width="0.5" transform="rotate(-0.0 10 0)" width="10" x="10.0" y="0.0" /><rect fill="none" height="10" stroke="black" stroke-width="0.5" transform="rotate(-0.023155874570774927 10 10)" width="10" x="9.9999" y="9.9999" /><rect fill="none" height="10" stroke="black" stroke-width="0.5" transform="rotate(-0.12067745131671134 10 20)" width="10" x="9.9976" y="19.9976" /><rect fill="none" height="10" stroke="black" stroke-width="0.5" transform="rotate(0.17439076312762086 10 30)" width="10" x="10.019" y="30.019" /><rect fill="none" height="10" stroke="black" stroke-width="0.5" transform="rotate(-0.5031827840392304 10 40)" width="10" x="9.9427" y="39.9427" /><rect fill="none" height="10" stroke="black" stroke-width="0.5" transform="rotate(-1.199432354700902 10 50)" width="10" x="10.0448" y="50.0448" /><rect fill="none" height="10" stroke="black" stroke-width="0.5" transform="rotate(0.2964194256123348 10 60)" width="10" x="10.0878" y="60.0878" /><rect fill="none" height="10" stroke="black" stroke-width="0.5" transform="rotate(1.6712007666552444 10 70)" width="10" x="9.9154" y="69.9154" /><rect fill="none" height="10" stroke="black" stroke-width="0.5" transform="rotate(0.8202309578196314 10 80)" width="10" x="10.0624" y="80.0624" /><rect fill="none" height="10" stroke="black" stroke-width="0.5" transform="rotate(-0.23649618188456797 10 90)" width="10" x="10.2515" y="90.2515" /><rect fill="none" height="10" stroke="black" stroke-width="0.5" transform="rotate(-3.176160680030724 10 100)" width="10" x="10.4704" y="100.4704" /><rect fill="none" height="10" stroke="black" stroke-width="0.5" transform="rotate(1.6456435021228295 10 110)" width="10" x="10.519" y="110.519" /><rect fill="none" height="10" stroke="black" stroke-width="0.5" transform="rotate(-6.4730851332646635 10 120)" width="10" x="10.4676" y="120.4676" /><rect fill="none" height="10" stroke="black" stroke-width="0.5" transform="rotate(-7.68886663369995 10 130)" width="10" x="9.7905" y="129.7905" /><rect fill="none" height="10" stroke="black" stroke-width="0.5" transform="rotate(5.704438027686958 10 140)" width="10" x="10.1872" y="140.1872" /><rect fill="none" height="10" stroke="black" stroke-width="0.5" transform="rotate(-7.0506643101423405 10 150)" width="10" x="10.4922" y="150.4922" /><rect fill="none" height="10" stroke="black" stroke-width="0.5" transform="rotate(-6.641586806014177 10 160)" width="10" x="8.8647" y="158.8647" /><rect fill="none" height="10" stroke="black" stroke-width="0.5" transform="rotate(-14.115047381909747 10 170)" width="10" x="10.1383" y="170.1383" /><rect fill="none" height="10" stroke="black" stroke-width="0.5" transform="rotate(-6.73416686925402 10 180)" width="10" x="9.2729" y="179.2729" /><rect fill="none" height="10" stroke="black" stroke-width="0.5" transform="rotate(-13.229547677861461 10 190)" width="10" x="10.2573" y="190.2573" /><rect fill="none" height="10" stroke="black" stroke-width="0.5" transform="rotate(16.421612528504838 10 200)" width="10" x="11.0566" y="201.0566" /><rect fill="none" height="10" stroke="black" stroke-width="0.5" transform="rotate(-15.244957159400249 10 210)" width="10" x="8.4274" y="208.4274" /><rect fill="none" height="10" stroke="black" stroke-width="0.5" transform="rotate(6.885663744481358 10 220)" width="10" x="9.629" y="219.629" /><rect fill="none" height="10" stroke="black" stroke-width="0.5" transform="rotate(-7.642314836111703 10 230)" width="10" x="7.5378" y="227.5378" /><rect fill="none" height="10" stroke="black" stroke-width="0.5" transform="rotate(0.345280737861124 10 240)" width="10" x="8.7994" y="238.7994" /><rect fill="none" height="10" stroke="black" stroke-width="0.5" transform="rotate(13.145038898866375 10 250)" width="10" x="12.6139" y="252.6139" /><rect fill="none" height="10" stroke="black" stroke-width="0.5" transform="rotate(-1.59747256890368 10 260)" width="10" x="11.7545" y="261.7545" /><rect fill="none" height="10" stroke="black" stroke-width="0.5" transform="rotate(17.93261066925527 10 270)" width="10" x="9.8577" y="269.8577" /><rect fill="none" height="10" stroke="black" stroke-width="0.5" transform="rotate(-12.861127259962064 10 280)" width="10" x="12.5627" y="282.5627" /><rect fill="none" height="10" stroke="black" stroke-width="0.5" transform="rotate(40.146901936682276 10 290)" width="10" x="7.0715" y="287.0715" /><rect fill="none" height="10" stroke="black" stroke-width="0.5" transform="rotate(-0.0 20 0)" width="10" x="20.0" y="0.0" /><rect fill="none" height="10" stroke="black" stroke-width="0.5" transform="rotate(-0.004834539727289089 20 10)" width="10" x="20.0001" y="10.0001" /><rect fill="none" height="10" stroke="black" stroke-width="0.5" transform="rotate(-0.07386828526952405 20 20)" width="10" x="20.0029" y="20.0029" /><rect fill="none" height="10" stroke="black" stroke-width="0.5" transform="rotate(-0.19175562691290393 20 30)" width="10" x="19.959" y="29.959" /><rect fill="none" height="10" stroke="black" stroke-width="0.5" transform="rotate(0.057651554607647704 20 40)" width="10" x="20.0717" y="40.0717" /><rect fill="none" height="10" stroke="black" stroke-width="0.5" transform="rotate(-0.36690334435966004 20 50)" width="10" x="19.9925" y="49.9925" /><rect fill="none" height="10" stroke="black" stroke-width="0.5" transform="rotate(1.6631544492476777 20 60)" width="10" x="19.8438" y="59.8438" /><rect fill="none" height="10" stroke="black" stroke-width="0.5" transform="rotate(1.4205719631742426 20 70)" width="10" x="19.7565" y="69.7565" /><rect fill="none" height="10" stroke="black" stroke-width="0.5" transform="rotate(-3.1116170406930146 20 80)" width="10" x="20.2846" y="80.2846" /><rect fill="none" height="10" stroke="black" stroke-width="0.5" transform="rotate(-3.10762895265334 20 90)" width="10" x="20.2046" y="90.2046" /><rect fill="none" height="10" stroke="black" stroke-width="0.5" transform="rotate(1.3493273932927297 20 100)" width="10" x="19.6844" y="99.6844" /><rect fill="none" height="10" stroke="black" stroke-width="0.5" transform="rotate(-1.8838479702749216 20 110)" width="10" x="19.7778" y="109.7778" /><rect fill="none" height="10" stroke="black" stroke-width="0.5" transform="rotate(3.089052255075843 20 120)" width="10" x="20.289" y="120.289" /><rect fill="none" height="10" stroke="black" stroke-width="0.5" transform="rotate(-4.334502960508726 20 130)" width="10" x="19.3202" y="129.3202" /><rect fill="none" height="10" stroke="black" stroke-width="0.5" transform="rotate(0.6468462703127734 20 140)" width="10" x="19.9716" y="139.9716" /><rect fill="none" height="10" stroke="black" stroke-width="0.5" transform="rotate(-8.275443503991877 20 150)" width="10" x="20.399" y="150.399" /><rect fill="none" height="10" stroke="black" stroke-width="0.5" transform="rotate(11.387615622549692 20 160)" width="10" x="18.7968" y="158.7968" /><rect fill="none" height="10" stroke="black" stroke-width="0.5" transform="rotate(-13.077209261994316 20 170)" width="10" x="18.777" y="168.777" /><rect fill="none" height="10" stroke="black" stroke-width="0.5" transform="rotate(-6.535559010895244 20 180)" width="10" x="19.8391" y="179.8391" /><rect fill="none" height="10" stroke="black" stroke-width="0.5" transform="rotate(10.24276556752975 20 190)" width="10" x="19.0987" y="189.0987" /><rect fill="none" height="10" stroke="black" stroke-width="0.5" transform="rotate(-19.051614783571264 20 200)" width="10" x="18.0937" y="198.0937" /><rect fill="none" height="10" stroke="black" stroke-width="0.5" transform="rotate(0.5230971753028199 20 210)" width="10" x="21.1075" y="211.1075" /><rect fill="none" height="10" stroke="black" stroke-width="0.5" transform="rotate(-2.6378947816166596 20 220)" width="10" x="18.7079" y="218.7079" /><rect fill="none" height="10" stroke="black" stroke-width="0.5" transform="rotate(18.80784961586755 20 230)" width="10" x="22.5933" y="232.5933" /><rect fill="none" height="10" stroke="black" stroke-width="0.5" transform="rotate(-17.713562509071505 20 240)" width="10" x="21.4284" y="241.4284" /><rect fill="none" height="10" stroke="black" stroke-width="0.5" transform="rotate(11.333578633002181 20 250)" width="10" x="21.8569" y="251.8569" /><rect fill="none" height="10" stroke="black" stroke-width="0.5" transform="rotate(28.45467120667406 20 260)" width="10" x="20.3221" y="260.3221" /><rect fill="none" height="10" stroke="black" stroke-width="0.5" transform="rotate(20.60939371979439 20 270)" width="10" x="17.2233" y="267.2233" /><rect fill="none" height="10" stroke="black" stroke-width="0.5" transform="rotate(-30.236121583520532 20 280)" width="10" x="22.3017" y="282.3017" /><rect fill="none" height="10" stroke="black" stroke-width="0.5" transform="rotate(-41.19522946237107 20 290)" width="10" x="18.9463" y="288.9463" /><rect fill="none" height="10" stroke="black" stroke-width="0.5" transform="rotate(0.0 30 0)" width="10" x="30.0" y="0.0" /><rect fill="none" height="10" stroke="black" stroke-width="0.5" transform="rotate(0.0398447950963133 30 10)" width="10" x="29.9996" y="9.9996" /><rect fill="none" height="10" stroke="black" stroke-width="0.5" transform="rotate(0.17274540013260825 30 20)" width="10" x="29.9828" y="19.9828" /><rect fill="none" height="10" stroke="black" stroke-width="0.5" transform="rotate(-0.33297426199866137 30 30)" width="10" x="29.9686" y="29.9686" /><rect fill="none" height="10" stroke="black" stroke-width="0.5" transform="rotate(0.6685520189121329 30 40)" width="10" x="29.9585" y="39.9585" /><rect fill="none" height="10" stroke="black" stroke-width="0.5" transform="rotate(0.3257133494631853 30 50)" width="10" x="29.9244" y="49.9244" /><rect fill="none" height="10" stroke="black" stroke-width="0.5" transform="rotate(-1.2723463225169502 30 60)" width="10" x="30.0303" y="60.0303" /><rect fill="none" height="10" stroke="black" stroke-width="0.5" transform="rotate(1.7910402780212948 30 70)" width="10" x="29.9138" y="69.9138" /><rect fill="none" height="10" stroke="black" stroke-width="0.5" transform="rotate(-2.3443964485506337 30 80)" width="10" x="29.9878" y="79.9878" /><rect fill="none" height="10" stroke="black" stroke-width="0.5" transform="rotate(0.6952488620056728 30 90)" width="10" x="30.2084" y="90.2084" /><rect fill="none" height="10" stroke="black" stroke-width="0.5" transform="rotate(-0.18019090754806788 30 100)" width="10" x="29.7699" y="99.7699" /><rect fill="none" height="10" stroke="black" stroke-width="0.5" transform="rotate(0.7843721224566821 30 110)" width="10" x="29.5427" y="109.5427" /><rect fill="none" height="10" stroke="black" stroke-width="0.5" transform="rotate(2.737495028133375 30 120)" width="10" x="30.1808" y="120.1808" /><rect fill="none" height="10" stroke="black" stroke-width="0.5" transform="rotate(-6.612232412306911 30 130)" width="10" x="30.057" y="130.057" /><rect fill="none" height="10" stroke="black" stroke-width="0.5" transform="rotate(8.150628102267072 30 140)" width="10" x="29.8292" y="139.8292" /><rect fill="none" height="10" stroke="black" stroke-width="0.5" transform="rotate(6.164993018927735 30 150)" width="10" x="30.755" y="150.755" /><rect fill="none" height="10" stroke="black" stroke-width="0.5" transform="rotate(-5.8524138036463995 30 160)" width="10" x="29.8255" y="159.8255" /><rect fill="none" height="10" stroke="black" stroke-width="0.5" transform="rotate(9.526462876246017 30 170)" width="10" x="30.8775" y="170.8775" /><rect fill="none" height="10" stroke="black" stroke-width="0.5" transform="rotate(-1.8559359113099174 30 180)" width="10" x="30.9081" y="180.9081" /><rect fill="none" height="10" stroke="black" stroke-width="0.5" transform="rotate(16.31104879825525 30 190)" width="10" x="28.2435" y="188.2435" /><rect fill="none" height="10" stroke="black" stroke-width="0.5" transform="rotate(-4.7166852398827785 30 200)" width="10" x="29.0899" y="199.0899" /><rect fill="none" height="10" stroke="black" stroke-width="0.5" transform="rotate(8.513983101805303 30 210)" width="10" x="30.4634" y="210.4634" /><rect fill="none" height="10" stroke="black" stroke-width="0.5" transform="rotate(-4.785862692954074 30 220)" width="10" x="29.5302" y="219.5302" /><rect fill="none" height="10" stroke="black" stroke-width="0.5" transform="rotate(-22.755151289982233 30 230)" width="10" x="28.4313" y="228.4313" /><rect fill="none" height="10" stroke="black" stroke-width="0.5" transform="rotate(15.706494433718134 30 240)" width="10" x="28.8562" y="238.8562" /><rect fill="none" height="10" stroke="black" stroke-width="0.5" transform="rotate(-27.525250301800913 30 250)" width="10" x="27.9667" y="247.9667" /><rect fill="none" height="10" stroke="black" stroke-width="0.5" transform="rotate(-13.671683556823462 30 260)" width="10" x="29.3327" y="259.3327" /><rect fill="none" height="10" stroke="black" stroke-width="0.5" transform="rotate(-6.617029430363628 30 270)" width="10" x="33.2854" y="273.2854" /><rect fill="none" height="10" stroke="black" stroke-width="0.5" transform="rotate(-21.15947497367141 30 280)" width="10" x="33.4066" y="283.4066" /><rect fill="none" height="10" stroke="black" stroke-width="0.5" transform="rotate(4.756386982397084 30 290)" width="10" x="30.5765" y="290.5765" /><rect fill="none" height="10" stroke="black" stroke-width="0.5" transform="rotate(0.0 40 0)" width="10" x="40.0" y="0.0" /><rect fill="none" height="10" stroke="black" stroke-width="0.5" transform="rotate(-0.0493309927853164 40 10)" width="10" x="40.0001" y="10.0001" /><rect fill="none" height="10" stroke="black" stroke-width="0.5" transform="rotate(0.009693097645129179 40 20)" width="10" x="39.9911" y="19.9911" /><rect fill="none" height="10" stroke="black" stroke-width="0.5" transform="rotate(-0.3434149708355525 40 30)" width="10" x="40.0441" y="30.0441" /><rect fill="none" height="10" stroke="black" stroke-width="0.5" transform="rotate(-0.5659722264290499 40 40)" width="10" x="40.0496" y="40.0496" /><rect fill="none" height="10" stroke="black" stroke-width="0.5" transform="rotate(-0.21324100922026273 40 50)" width="10" x="40.0403" y="50.0403" /><rect fill="none" height="10" stroke="black" stroke-width="0.5" transform="rotate(-1.1536131207894098 40 60)" width="10" x="40.0704" y="60.0704" /><rect fill="none" height="10" stroke="black" stroke-width="0.5" transform="rotate(2.3667033697479107 40 70)" width="10" x="40.0958" y="70.0958" /><rect fill="none" height="10" stroke="black" stroke-width="0.5" transform="rotate(2.071284350406659 40 80)" width="10" x="39.7172" y="79.7172" /><rect fill="none" height="10" stroke="black" stroke-width="0.5" transform="rotate(1.57830884191651 40 90)" width="10" x="40.1273" y="90.1273" /><rect fill="none" height="10" stroke="black" stroke-width="0.5" transform="rotate(0.8832533186107995 40 100)" width="10" x="39.8065" y="99.8065" /><rect fill="none" height="10" stroke="black" stroke-width="0.5" transform="rotate(2.4927127999679954 40 110)" width="10" x="40.5095" y="110.5095" /><rect fill="none" height="10" stroke="black" stroke-width="0.5" transform="rotate(-4.999420615425812 40 120)" width="10" x="40.4211" y="120.4211" /><rect fill="none" height="10" stroke="black" stroke-width="0.5" transform="rotate(-0.4301119363990761 40 130)" width="10" x="39.2429" y="129.2429" /><rect fill="none" height="10" stroke="black" stroke-width="0.5" transform="rotate(-7.832015970810389 40 140)" width="10" x="39.2747" y="139.2747" /><rect fill="none" height="10" stroke="black" stroke-width="0.5" transform="rotate(9.574060440736787 40 150)" width="10" x="39.6344" y="149.6344" /><rect fill="none" height="10" stroke="black" stroke-width="0.5" transform="rotate(-12.359441839863479 40 160)" width="10" x="39.7597" y="159.7597" /><rect fill="none" height="10" stroke="black" stroke-width="0.5" transform="rotate(5.523947581742229 40 170)" width="10" x="39.4535" y="169.4535" /><rect fill="none" height="10" stroke="black" stroke-width="0.5" transform="rotate(9.230271478899166 40 180)" width="10" x="39.8607" y="179.8607" /><rect fill="none" height="10" stroke="black" stroke-width="0.5" transform="rotate(2.1277359601724606 40 190)" width="10" x="39.151" y="189.151" /><rect fill="none" height="10" stroke="black" stroke-width="0.5" transform="rotate(-16.903981568003005 40 200)" width="10" x="39.0428" y="199.0428" /><rect fill="none" height="10" stroke="black" stroke-width="0.5" transform="rotate(8.20254660941157 40 210)" width="10" x="41.473" y="211.473" /><rect fill="none" height="10" stroke="black" stroke-width="0.5" transform="rotate(-16.943080119282598 40 220)" width="10" x="40.9595" y="220.9595" /><rect fill="none" height="10" stroke="black" stroke-width="0.5" transform="rotate(-10.913065685348773 40 230)" width="10" x="39.9478" y="229.9478" /><rect fill="none" height="10" stroke="black" stroke-width="0.5" transform="rotate(16.92269523097612 40 240)" width="10" x="41.7508" y="241.7508" /><rect fill="none" height="10" stroke="black" stroke-width="0.5" transform="rotate(10.497984986712463 40 250)" width="10" x="38.1353" y="248.1353" /><rect fill="none" height="10" stroke="black" stroke-width="0.5" transform="rotate(-6.168023054385381 40 260)" width="10" x="38.8492" y="258.8492" /><rect fill="none" height="10" stroke="black" stroke-width="0.5" transform="rotate(-16.195367695112278 40 270)" width="10" x="40.4746" y="270.4746" /><rect fill="none" height="10" stroke="black" stroke-width="0.5" transform="rotate(-3.418383326920624 40 280)" width="10" x="40.4815" y="280.4815" /><rect fill="none" height="10" stroke="black" stroke-width="0.5" transform="rotate(9.454390147826532 40 290)" width="10" x="43.2227" y="293.2227" /><rect fill="none" height="10" stroke="black" stroke-width="0.5" transform="rotate(0.0 50 0)" width="10" x="50.0" y="0.0" /><rect fill="none" height="10" stroke="black" stroke-width="0.5" transform="rotate(-0.03928121560559182 50 10)" width="10" x="50.0015" y="10.0015" /><rect fill="none" height="10" stroke="black" stroke-width="0.5" transform="rotate(0.15399492710286702 50 20)" width="10" x="50.0157" y="20.0157" /><rect fill="none" height="10" stroke="black" stroke-width="0.5" transform="rotate(0.01828062248143405 50 30)" width="10" x="50.0198" y="30.0198" /><rect fill="none" height="10" stroke="black" stroke-width="0.5" transform="rotate(-0.03832330703662752 50 40)" width="10" x="50.0338" y="40.0338" /><rect fill="none" height="10" stroke="black" stroke-width="0.5" transform="rotate(-0.8317681886325179 50 50)" width="10" x="49.9544" y="49.9544" /><rect fill="none" height="10" stroke="black" stroke-width="0.5" transform="rotate(-1.032825770224246 50 60)" width="10" x="49.8983" y="59.8983" /><rect fill="none" height="10" stroke="black" stroke-width="0.5" transform="rotate(1.9769775813576207 50 70)" width="10" x="49.8017" y="69.8017" /><rect fill="none" height="10" stroke="black" stroke-width="0.5" transform="rotate(1.4267626815254253 50 80)" width="10" x="50.2908" y="80.2908" /><rect fill="none" height="10" stroke="black" stroke-width="0.5" transform="rotate(-4.028316425032182 50 90)" width="10" x="49.8353" y="89.8353" /><rect fill="none" height="10" stroke="black" stroke-width="0.5" transform="rotate(-4.575965553903266 50 100)" width="10" x="49.7573" y="99.7573" /><rect fill="none" height="10" stroke="black" stroke-width="0.5" transform="rotate(3.6658986391545403 50 110)" width="10" x="50.2015" y="110.2015" /><rect fill="none" height="10" stroke="black" stroke-width="0.5" transform="rotate(-1.52077745075219 50 120)" width="10" x="49.7726" y="119.7726" /><rect fill="none" height="10" stroke="black" stroke-width="0.5" transform="rotate(-5.417266759293802 50 130)" width="10" x="49.3876" y="129.3876" /><rect fill="none" height="10" stroke="black" stroke-width="0.5" transform="rotate(4.538222826181844 50 140)" width="10" x="49.6831" y="139.6831" /><rect fill="none" height="10" stroke="black" stroke-width="0.5" transform="rotate(5.083969307896649 50 150)" width="10" x="50.4138" y="150.4138" /><rect fill="none" height="10" stroke="black" stroke-width="0.5" transform="rotate(2.4489583282055376 50 160)" width="10" x="51.1101" y="161.1101" /><rect fill="none" height="10" stroke="black" stroke-width="0.5" transform="rotate(-7.853783195990125 50 170)" width="10" x="51.1143" y="171.1143" /><rect fill="none" height="10" stroke="black" stroke-width="0.5" transform="rotate(7.422730883395557 50 180)" width="10" x="50.9364" y="180.9364" /><rect fill="none" height="10" stroke="black" stroke-width="0.5" transform="rotate(5.140049249676071 50 190)" width="10" x="51.1437" y="191.1437" /><rect fill="none" height="10" stroke="black" stroke-width="0.5" transform="rotate(-16.71030199150725 50 200)" width="10" x="48.4074" y="198.4074" /><rect fill="none" height="10" stroke="black" stroke-width="0.5" transform="rotate(4.093528387873066 50 210)" width="10" x="49.0507" y="209.0507" /><rect fill="none" height="10" stroke="black" stroke-width="0.5" transform="rotate(-5.185129230572331 50 220)" width="10" x="50.9449" y="220.9449" /><rect fill="none" height="10" stroke="black" stroke-width="0.5" transform="rotate(-5.450888387373651 50 230)" width="10" x="50.3121" y="230.3121" /><rect fill="none" height="10" stroke="black" stroke-width="0.5" transform="rotate(-6.731804636044174 50 240)" width="10" x="48.3553" y="238.3553" /><rect fill="none" height="10" stroke="black" stroke-width="0.5" transform="rotate(-12.366632371154047 50 250)" width="10" x="52.3323" y="252.3323" /><rect fill="none" height="10" stroke="black" stroke-width="0.5" transform="rotate(4.44649152849543 50 260)" width="10" x="48.1469" y="258.1469" /><rect fill="none" height="10" stroke="black" stroke-width="0.5" transform="rotate(35.62318338793696 50 270)" width="10" x="51.9333" y="271.9333" /><rect fill="none" height="10" stroke="black" stroke-width="0.5" transform="rotate(-36.685018322470725 50 280)" width="10" x="48.4657" y="278.4657" /><rect fill="none" height="10" stroke="black" stroke-width="0.5" transform="rotate(4.531592796204333 50 290)" width="10" x="51.9907" y="291.9907" /><rect fill="none" height="10" stroke="black" stroke-width="0.5" transform="rotate(-0.0 60 0)" width="10" x="60.0" y="0.0" /><rect fill="none" height="10" stroke="black" stroke-width="0.5" transform="rotate(-0.0176164729865942 60 10)" width="10" x="60.0019" y="10.0019" /><rect fill="none" height="10" stroke="black" stroke-width="0.5" transform="rotate(0.10589897368923573 60 20)" width="10" x="59.9978" y="19.9978" /><rect fill="none" height="10" stroke="black" stroke-width="0.5" transform="rotate(0.2721341366633157 60 30)" width="10" x="59.968" y="29.968" /><rect fill="none" height="10" stroke="black" stroke-width="0.5" transform="rotate(0.013007930310908833 60 40)" width="10" x="60.0031" y="40.0031" /><rect fill="none" height="10" stroke="black" stroke-width="0.5" transform="rotate(-0.11923945420543118 60 50)" width="10" x="59.8773" y="49.8773" /><rect fill="none" height="10" stroke="black" stroke-width="0.5" transform="rotate(-1.3896600194586222 60 60)" width="10" x="60.0989" y="60.0989" /><rect fill="none" height="10" stroke="black" stroke-width="0.5" transform="rotate(1.710536012459143 60 70)" width="10" x="59.9269" y="69.9269" /><rect fill="none" height="10" stroke="black" stroke-width="0.5" transform="rotate(1.2608080042727985 60 80)" width="10" x="59.9764" y="79.9764" /><rect fill="none" height="10" stroke="black" stroke-width="0.5" transform="rotate(3.85033482720088 60 90)" width="10" x="60.1678" y="90.1678" /><rect fill="none" height="10" stroke="black" stroke-width="0.5" transform="rotate(-2.8935908416951097 60 100)" width="10" x="60.2038" y="100.2038" /><rect fill="none" height="10" stroke="black" stroke-width="0.5" transform="rotate(-0.6785749203851165 60 110)" width="10" x="60.297" y="110.297" /><rect fill="none" height="10" stroke="black" stroke-width="0.5" transform="rotate(-4.099650872481917 60 120)" width="10" x="59.6211" y="119.6211" /><rect fill="none" height="10" stroke="black" stroke-width="0.5" transform="rotate(6.448079871261851 60 130)" width="10" x="60.5206" y="130.5206" /><rect fill="none" height="10" stroke="black" stroke-width="0.5" transform="rotate(6.005141760808575 60 140)" width="10" x="60.5181" y="140.5181" /><rect fill="none" height="10" stroke="black" stroke-width="0.5" transform="rotate(-2.9344586371458528 60 150)" width="10" x="59.1822" y="149.1822" /><rect fill="none" height="10" stroke="black" stroke-width="0.5" transform="rotate(2.2748861477702205 60 160)" width="10" x="60.8084" y="160.8084" /><rect fill="none" height="10" stroke="black" stroke-width="0.5" transform="rotate(-6.204783075579276 60 170)" width="10" x="61.1003" y="171.1003" /><rect fill="none" height="10" stroke="black" stroke-width="0.5" transform="rotate(-12.406807310467183 60 180)" width="10" x="61.0956" y="181.0956" /><rect fill="none" height="10" stroke="black" stroke-width="0.5" transform="rotate(-4.598481773556673 60 190)" width="10" x="58.2475" y="188.2475" /><rect fill="none" height="10" stroke="black" stroke-width="0.5" transform="rotate(18.982964659727287 60 200)" width="10" x="59.3886" y="199.3886" /><rect fill="none" height="10" stroke="black" stroke-width="0.5" transform="rotate(18.331848559894176 60 210)" width="10" x="61.0607" y="211.0607" /><rect fill="none" height="10" stroke="black" stroke-width="0.5" transform="rotate(-19.123466107853858 60 220)" width="10" x="59.961" y="219.961" /><rect fill="none" height="10" stroke="black" stroke-width="0.5" transform="rotate(-2.2312075647672764 60 230)" width="10" x="58.077" y="228.077" /><rect fill="none" height="10" stroke="black" stroke-width="0.5" transform="rotate(-15.320728633653243 60 240)" width="10" x="59.027" y="239.027" /><rect fill="none" height="10" stroke="black" stroke-width="0.5" transform="rotate(-24.792310577583887 60 250)" width="10" x="60.2132" y="250.2132" /><rect fill="none" height="10" stroke="black" stroke-width="0.5" transform="rotate(11.716562049864034 60 260)" width="10" x="58.9028" y="258.9028" /><rect fill="none" height="10" stroke="black" stroke-width="0.5" transform="rotate(-30.730552816613738 60 270)" width="10" x="57.005" y="267.005" /><rect fill="none" height="10" stroke="black" stroke-width="0.5" transform="rotate(38.02138615677032 60 280)" width="10" x="59.0896" y="279.0896" /><rect fill="none" height="10" stroke="black" stroke-width="0.5" transform="rotate(-8.955436006888402 60 290)" width="10" x="61.2497" y="291.2497" /><rect fill="none" height="10" stroke="black" stroke-width="0.5" transform="rotate(-0.0 70 0)" width="10" x="70.0" y="0.0" /><rect fill="none" height="10" stroke="black" stroke-width="0.5" transform="rotate(-0.02202671503419621 70 10)" width="10" x="70.0008" y="10.0008" /><rect fill="none" height="10" stroke="black" stroke-width="0.5" transform="rotate(-0.1436536138535222 70 20)" width="10" x="70.0002" y="20.0002" /><rect fill="none" height="10" stroke="black" stroke-width="0.5" transform="rotate(0.3499119160455706 70 30)" width="10" x="69.9636" y="29.9636" /><rect fill="none" height="10" stroke="black" stroke-width="0.5" transform="rotate(0.31234693586985574 70 40)" width="10" x="70.0183" y="40.0183" /><rect fill="none" height="10" stroke="black" stroke-width="0.5" transform="rotate(-0.33561086098841675 70 50)" width="10" x="69.9511" y="49.9511" /><rect fill="none" height="10" stroke="black" stroke-width="0.5" transform="rotate(-0.6453424009274317 70 60)" width="10" x="69.9313" y="59.9313" /><rect fill="none" height="10" stroke="black" stroke-width="0.5" transform="rotate(0.5382999000568697 70 70)" width="10" x="70.0428" y="70.0428" /><rect fill="none" height="10" stroke="black" stroke-width="0.5" transform="rotate(3.113762243388755 70 80)" width="10" x="69.9466" y="79.9466" /><rect fill="none" height="10" stroke="black" stroke-width="0.5" transform="rotate(-1.662574577337266 70 90)" width="10" x="69.7263" y="89.7263" /><rect fill="none" height="10" stroke="black" stroke-width="0.5" transform="rotate(-0.8508127220191974 70 100)" width="10" x="69.7048" y="99.7048" /><rect fill="none" height="10" stroke="black" stroke-width="0.5" transform="rotate(5.70308949681863 70 110)" width="10" x="69.6877" y="109.6877" /><rect fill="none" height="10" stroke="black" stroke-width="0.5" transform="rotate(0.08332908334770828 70 120)" width="10" x="70.6917" y="120.6917" /><rect fill="none" height="10" stroke="black" stroke-width="0.5" transform="rotate(3.2712188609529362 70 130)" width="10" x="70.4308" y="130.4308" /><rect fill="none" height="10" stroke="black" stroke-width="0.5" transform="rotate(8.228659884098638 70 140)" width="10" x="69.8317" y="139.8317" /><rect fill="none" height="10" stroke="black" stroke-width="0.5" transform="rotate(10.259121426107722 70 150)" width="10" x="69.0285" y="149.0285" /><rect fill="none" height="10" stroke="black" stroke-width="0.5" transform="rotate(1.7934899417033905 70 160)" width="10" x="69.4471" y="159.4471" /><rect fill="none" height="10" stroke="black" stroke-width="0.5" transform="rotate(-0.40853864988099353 70 170)" width="10" x="70.3562" y="170.3562" /><rect fill="none" height="10" stroke="black" stroke-width="0.5" transform="rotate(-13.327908328116163 70 180)" width="10" x="70.1237" y="180.1237" /><rect fill="none" height="10" stroke="black" stroke-width="0.5" transform="rotate(3.453884439528371 70 190)" width="10" x="70.495" y="190.495" /><rect fill="none" height="10" stroke="black" stroke-width="0.5" transform="rotate(-17.87128207385853 70 200)" width="10" x="70.7698" y="200.7698" /><rect fill="none" height="10" stroke="black" stroke-width="0.5" transform="rotate(21.861632111905642 70 210)" width="10" x="68.3085" y="208.3085" /><rect fill="none" height="10" stroke="black" stroke-width="0.5" transform="rotate(23.385344848149835 70 220)" width="10" x="69.2013" y="219.2013" /><rect fill="none" height="10" stroke="black" stroke-width="0.5" transform="rotate(-22.530853876961004 70 230)" width="10" x="72.2357" y="232.2357" /><rect fill="none" height="10" stroke="black" stroke-width="0.5" transform="rotate(-24.00427303004084 70 240)" width="10" x="68.6256" y="238.6256" /><rect fill="none" height="10" stroke="black" stroke-width="0.5" transform="rotate(19.1384327742392 70 250)" width="10" x="67.0736" y="247.0736" /><rect fill="none" height="10" stroke="black" stroke-width="0.5" transform="rotate(8.653120094142508 70 260)" width="10" x="66.9698" y="256.9698" /><rect fill="none" height="10" stroke="black" stroke-width="0.5" transform="rotate(-16.77335860111163 70 270)" width="10" x="69.78" y="269.78" /><rect fill="none" height="10" stroke="black" stroke-width="0.5" transform="rotate(-33.4188788706171 70 280)" width="10" x="72.6195" y="282.6195" /><rect fill="none" height="10" stroke="black" stroke-width="0.5" transform="rotate(27.958590005967427 70 290)" width="10" x="74.0027" y="294.0027" /><rect fill="none" height="10" stroke="black" stroke-width="0.5" transform="rotate(0.0 80 0)" width="10" x="80.0" y="0.0" /><rect fill="none" height="10" stroke="black" stroke-width="0.5" transform="rotate(0.017643310329156413 80 10)" width="10" x="80.0029" y="10.0029" /><rect fill="none" height="10" stroke="black" stroke-width="0.5" transform="rotate(0.13135710028244446 80 20)" width="10" x="79.9981" y="19.9981" /><rect fill="none" height="10" stroke="black" stroke-width="0.5" transform="rotate(-0.38479357922640667 80 30)" width="10" x="79.9976" y="29.9976" /><rect fill="none" height="10" stroke="black" stroke-width="0.5" transform="rotate(0.517114048668027 80 40)" width="10" x="79.9974" y="39.9974" /><rect fill="none" height="10" stroke="black" stroke-width="0.5" transform="rotate(0.36225394175027903 80 50)" width="10" x="80.0666" y="50.0666" /><rect fill="none" height="10" stroke="black" stroke-width="0.5" transform="rotate(1.0772806974847942 80 60)" width="10" x="79.8776" y="59.8776" /><rect fill="none" height="10" stroke="black" stroke-width="0.5" transform="rotate(1.7342416385801656 80 70)" width="10" x="79.9656" y="69.9656" /><rect fill="none" height="10" stroke="black" stroke-width="0.5" transform="rotate(-2.359140110085992 80 80)" width="10" x="79.8392" y="79.8392" /><rect fill="none" height="10" stroke="black" stroke-width="0.5" transform="rotate(1.3622162697252307 80 90)" width="10" x="79.9924" y="89.9924" /><rect fill="none" height="10" stroke="black" stroke-width="0.5" transform="rotate(-4.217844842507006 80 100)" width="10" x="80.1214" y="100.1214" /><rect fill="none" height="10" stroke="black" stroke-width="0.5" transform="rotate(2.9823169156272162 80 110)" width="10" x="80.2172" y="110.2172" /><rect fill="none" height="10" stroke="black" stroke-width="0.5" transform="rotate(-6.809755271060678 80 120)" width="10" x="80.3097" y="120.3097" /><rect fill="none" height="10" stroke="black" stroke-width="0.5" transform="rotate(-0.5101469873816007 80 130)" width="10" x="80.1832" y="130.1832" /><rect fill="none" height="10" stroke="black" stroke-width="0.5" transform="rotate(-8.837348353393242 80 140)" width="10" x="80.1332" y="140.1332" /><rect fill="none" height="10" stroke="black" stroke-width="0.5" transform="rotate(-5.828961776345406 80 150)" width="10" x="79.6933" y="149.6933" /><rect fill="none" height="10" stroke="black" stroke-width="0.5" transform="rotate(-10.402752542246663 80 160)" width="10" x="80.8312" y="160.8312" /><rect fill="none" height="10" stroke="black" stroke-width="0.5" transform="rotate(14.055849452883255 80 170)" width="10" x="80.8511" y="170.8511" /><rect fill="none" height="10" stroke="black" stroke-width="0.5" transform="rotate(12.008448381847098 80 180)" width="10" x="79.6851" y="179.6851" /><rect fill="none" height="10" stroke="black" stroke-width="0.5" transform="rotate(-6.392285329457186 80 190)" width="10" x="80.7167" y="190.7167" /><rect fill="none" height="10" stroke="black" stroke-width="0.5" transform="rotate(3.54491140453447 80 200)" width="10" x="80.9777" y="200.9777" /><rect fill="none" height="10" stroke="black" stroke-width="0.5" transform="rotate(12.275109198341912 80 210)" width="10" x="82.0867" y="212.0867" /><rect fill="none" height="10" stroke="black" stroke-width="0.5" transform="rotate(-4.330091029031128 80 220)" width="10" x="78.0005" y="218.0005" /><rect fill="none" height="10" stroke="black" stroke-width="0.5" transform="rotate(20.815373566665194 80 230)" width="10" x="80.4353" y="230.4353" /><rect fill="none" height="10" stroke="black" stroke-width="0.5" transform="rotate(-28.582719466714064 80 240)" width="10" x="77.4235" y="237.4235" /><rect fill="none" height="10" stroke="black" stroke-width="0.5" transform="rotate(15.6806913902382 80 250)" width="10" x="82.7813" y="252.7813" /><rect fill="none" height="10" stroke="black" stroke-width="0.5" transform="rotate(-22.755109203873598 80 260)" width="10" x="80.8685" y="260.8685" /><rect fill="none" height="10" stroke="black" stroke-width="0.5" transform="rotate(12.51305890256095 80 270)" width="10" x="77.693" y="267.693" /><rect fill="none" height="10" stroke="black" stroke-width="0.5" transform="rotate(17.553585355233885 80 280)" width="10" x="76.9206" y="276.9206" /><rect fill="none" height="10" stroke="black" stroke-width="0.5" transform="rotate(-2.0000136374965636 80 290)" width="10" x="83.3844" y="293.3844" /><rect fill="none" height="10" stroke="black" stroke-width="0.5" transform="rotate(0.0 90 0)" width="10" x="90.0" y="0.0" /><rect fill="none" height="10" stroke="black" stroke-width="0.5" transform="rotate(0.011677655958087873 90 10)" width="10" x="89.9956" y="9.9956" /><rect fill="none" height="10" stroke="black" stroke-width="0.5" transform="rotate(0.199602992615756 90 20)" width="10" x="90.0173" y="20.0173" /><rect fill="none" height="10" stroke="black" stroke-width="0.5" transform="rotate(-0.08009891680923459 90 30)" width="10" x="89.9573" y="29.9573" /><rect fill="none" height="10" stroke="black" stroke-width="0.5" transform="rotate(0.3022063452642419 90 40)" width="10" x="89.9865" y="39.9865" /><rect fill="none" height="10" stroke="black" stroke-width="0.5" transform="rotate(-0.11165478696227278 90 50)" width="10" x="89.888" y="49.888" /><rect fill="none" height="10" stroke="black" stroke-width="0.5" transform="rotate(-1.7511658490577857 90 60)" width="10" x="89.8918" y="59.8918" /><rect fill="none" height="10" stroke="black" stroke-width="0.5" transform="rotate(0.09408643254354261 90 70)" width="10" x="89.8054" y="69.8054" /><rect fill="none" height="10" stroke="black" stroke-width="0.5" transform="rotate(0.40786406916048035 90 80)" width="10" x="89.9038" y="79.9038" /><rect fill="none" height="10" stroke="black" stroke-width="0.5" transform="rotate(3.758600644201246 90 90)" width="10" x="89.7317" y="89.7317" /><rect fill="none" height="10" stroke="black" stroke-width="0.5" transform="rotate(-1.3864398232179853 90 100)" width="10" x="89.6464" y="99.6464" /><rect fill="none" height="10" stroke="black" stroke-width="0.5" transform="rotate(-2.5367541324056058 90 110)" width="10" x="89.6438" y="109.6438" /><rect fill="none" height="10" stroke="black" stroke-width="0.5" transform="rotate(3.1021379624617706 90 120)" width="10" x="89.7778" y="119.7778" /><rect fill="none" height="10" stroke="black" stroke-width="0.5" transform="rotate(3.8181424350013815 90 130)" width="10" x="89.9453" y="129.9453" /><rect fill="none" height="10" stroke="black" stroke-width="0.5" transform="rotate(1.1844430367714525 90 140)" width="10" x="89.7949" y="139.7949" /><rect fill="none" height="10" stroke="black" stroke-width="0.5" transform="rotate(-3.3022599757253914 90 150)" width="10" x="89.1111" y="149.1111" /><rect fill="none" height="10" stroke="black" stroke-width="0.5" transform="rotate(-11.454881175219587 90 160)" width="10" x="90.074" y="160.074" /><rect fill="none" height="10" stroke="black" stroke-width="0.5" transform="rotate(-11.910891165361601 90 170)" width="10" x="89.8146" y="169.8146" /><rect fill="none" height="10" stroke="black" stroke-width="0.5" transform="rotate(13.996037467147307 90 180)" width="10" x="89.2886" y="179.2886" /><rect fill="none" height="10" stroke="black" stroke-width="0.5" transform="rotate(12.962551816131239 90 190)" width="10" x="91.282" y="191.282" /><rect fill="none" height="10" stroke="black" stroke-width="0.5" transform="rotate(6.152234199351256 90 200)" width="10" x="91.4648" y="201.4648" /><rect fill="none" height="10" stroke="black" stroke-width="0.5" transform="rotate(8.807966761242785 90 210)" width="10" x="88.5013" y="208.5013" /><rect fill="none" height="10" stroke="black" stroke-width="0.5" transform="rotate(-15.00393233780492 90 220)" width="10" x="90.4693" y="220.4693" /><rect fill="none" height="10" stroke="black" stroke-width="0.5" transform="rotate(1.265888743860368 90 230)" width="10" x="88.8529" y="228.8529" /><rect fill="none" height="10" stroke="black" stroke-width="0.5" transform="rotate(-8.067736519734197 90 240)" width="10" x="92.4188" y="242.4188" /><rect fill="none" height="10" stroke="black" stroke-width="0.5" transform="rotate(6.245127663888606 90 250)" width="10" x="87.9161" y="247.9161" /><rect fill="none" height="10" stroke="black" stroke-width="0.5" transform="rotate(30.225393782127718 90 260)" width="10" x="88.8408" y="258.8408" /><rect fill="none" height="10" stroke="black" stroke-width="0.5" transform="rotate(22.21651588223054 90 270)" width="10" x="86.7941" y="266.7941" /><rect fill="none" height="10" stroke="black" stroke-width="0.5" transform="rotate(31.803945901775712 90 280)" width="10" x="90.3728" y="280.3728" /><rect fill="none" height="10" stroke="black" stroke-width="0.5" transform="rotate(-2.285614732005178 90 290)" width="10" x="89.0027" y="289.0027" /></svg>