<?xml version="1.0" encoding="utf-8" ?>
<svg baseProfile="tiny" height="500" version="1.2" width="500" xmlns="http://www.w3.org/2000/svg" xmlns:ev="http://www.w3.org/2001/xml-events" xmlns:xlink="http://www.w3.org/1999/xlink"><defs /><rect fill="none" height="50" stroke="black" stroke-width="1" width="50" x="0" y="0.0" /><rect fill="none" height="50" stroke="black" stroke-width="1" width="50" x="0" y="150.0" /><rect fill="none" height="50" stroke="black" stroke-width="1" width="50" x="0" y="300.0" /><rect fill="none" height="50" stroke="black" stroke-width="1" width="50" x="0" y="450.0" /><rect fill="none" height="50" stroke="black" stroke-width="1" width="50" x="0" y="600.0" /><rect fill="none" height="50" stroke="black" stroke-width="1" width="50" x="10" y="4.9917" /><rect fill="none" height="50" stroke="black" stroke-width="1" width="50" x="10" y="154.5392" /><rect fill="none" height="50" stroke="black" stroke-width="1" width="50" x="10" y="304.1618" /><rect fill="none" height="50" stroke="black" stroke-width="1" width="50" x="10" y="453.8424" /><rect fill="none" height="50" stroke="black" stroke-width="1" width="50" x="10" y="603.5684" /><rect fill="none" height="50" stroke="black" stroke-width="1" width="50" x="20" y="9.9335" /><rect fill="none" height="50" stroke="black" stroke-width="1" width="50" x="20" y="159.0409" /><rect fill="none" height="50" stroke="black" stroke-width="1" width="50" x="20" y="308.2948" /><rect fill="none" height="50" stroke="black" stroke-width="1" width="50" x="20" y="457.662" /><rect fill="none" height="50" stroke="black" stroke-width="1" width="50" x="20" y="607.1186" /><rect fill="none" height="50" stroke="black" stroke-width="1" width="50" x="30" y="14.776" /><rect fill="none" height="50" stroke="black" stroke-width="1" width="50" x="30" y="163.4679" /><rect fill="none" height="50" stroke="black" stroke-width="1" width="50" x="30" y="312.3702" /><rect fill="none" height="50" stroke="black" stroke-width="1" width="50" x="30" y="461.4363" /><rect fill="none" height="50" stroke="black" stroke-width="1" width="50" x="30" y="610.6325" /><rect fill="none" height="50" stroke="black" stroke-width="1" width="50" x="40" y="19.4709" /><rect fill="none" height="50" stroke="black" stroke-width="1" width="50" x="40" y="167.7838" /><rect fill="none" height="50" stroke="black" stroke-width="1" width="50" x="40" y="316.3597" /><rect fill="none" height="50" stroke="black" stroke-width="1" width="50" x="40" y="465.143" /><rect fill="none" height="50" stroke="black" stroke-width="1" width="50" x="40" y="614.0921" /><rect fill="none" height="50" stroke="black" stroke-width="1" width="50" x="50" y="23.9713" /><rect fill="none" height="50" stroke="black" stroke-width="1" width="50" x="50" y="171.9527" /><rect fill="none" height="50" stroke="black" stroke-width="1" width="50" x="50" y="320.2357" /><rect fill="none" height="50" stroke="black" stroke-width="1" width="50" x="50" y="468.7601" /><rect fill="none" height="50" stroke="black" stroke-width="1" width="50" x="50" y="617.4799" /><rect fill="none" height="50" stroke="black" stroke-width="1" width="50" x="60" y="28.2321" /><rect fill="none" height="50" stroke="black" stroke-width="1" width="50" x="60" y="175.9403" /><rect fill="none" height="50" stroke="black" stroke-width="1" width="50" x="60" y="323.9713" /><rect fill="none" height="50" stroke="black" stroke-width="1" width="50" x="60" y="472.2663" /><rect fill="none" height="50" stroke="black" stroke-width="1" width="50" x="60" y="620.7786" /><rect fill="none" height="50" stroke="black" stroke-width="1" width="50" x="70" y="32.2109" /><rect fill="none" height="50" stroke="black" stroke-width="1" width="50" x="70" y="179.7137" /><rect fill="none" height="50" stroke="black" stroke-width="1" width="50" x="70" y="327.5405" /><rect fill="none" height="50" stroke="black" stroke-width="1" width="50" x="70" y="475.6408" /><rect fill="none" height="50" stroke="black" stroke-width="1" width="50" x="70" y="623.9713" /><rect fill="none" height="50" stroke="black" stroke-width="1" width="50" x="80" y="35.8678" /><rect fill="none" height="50" stroke="black" stroke-width="1" width="50" x="80" y="183.2417" /><rect fill="none" height="50" stroke="black" stroke-width="1" width="50" x="80" y="330.9185" /><rect fill="none" height="50" stroke="black" stroke-width="1" width="50" x="80" y="478.8636" /><rect fill="none" height="50" stroke="black" stroke-width="1" width="50" x="80" y="627.0417" /><rect fill="none" height="50" stroke="black" stroke-width="1" width="50" x="90" y="39.1663" /><rect fill="none" height="50" stroke="black" stroke-width="1" width="50" x="90" y="186.4952" /><rect fill="none" height="50" stroke="black" stroke-width="1" width="50" x="90" y="334.0819" /><rect fill="none" height="50" stroke="black" stroke-width="1" width="50" x="90" y="481.9158" /><rect fill="none" height="50" stroke="black" stroke-width="1" width="50" x="90" y="629.9742" /><rect fill="none" height="50" stroke="black" stroke-width="1" width="50" x="100" y="42.0735" /><rect fill="none" height="50" stroke="black" stroke-width="1" width="50" x="100" y="189.4473" /><rect fill="none" height="50" stroke="black" stroke-width="1" width="50" x="100" y="337.0088" /><rect fill="none" height="50" stroke="black" stroke-width="1" width="50" x="100" y="484.7791" /><rect fill="none" height="50" stroke="black" stroke-width="1" width="50" x="100" y="632.7539" /><rect fill="none" height="50" stroke="black" stroke-width="1" width="50" x="110" y="44.5604" /><rect fill="none" height="50" stroke="black" stroke-width="1" width="50" x="110" y="192.0735" /><rect fill="none" height="50" stroke="black" stroke-width="1" width="50" x="110" y="339.6789" /><rect fill="none" height="50" stroke="black" stroke-width="1" width="50" x="110" y="487.4368" /><rect fill="none" height="50" stroke="black" stroke-width="1" width="50" x="110" y="635.3665" /><rect fill="none" height="50" stroke="black" stroke-width="1" width="50" x="120" y="46.602" /><rect fill="none" height="50" stroke="black" stroke-width="1" width="50" x="120" y="194.3523" /><rect fill="none" height="50" stroke="black" stroke-width="1" width="50" x="120" y="342.0735" /><rect fill="none" height="50" stroke="black" stroke-width="1" width="50" x="120" y="489.8731" /><rect fill="none" height="50" stroke="black" stroke-width="1" width="50" x="120" y="637.7988" /><rect fill="none" height="50" stroke="black" stroke-width="1" width="50" x="130" y="48.1779" /><rect fill="none" height="50" stroke="black" stroke-width="1" width="50" x="130" y="196.2649" /><rect fill="none" height="50" stroke="black" stroke-width="1" width="50" x="130" y="344.1762" /><rect fill="none" height="50" stroke="black" stroke-width="1" width="50" x="130" y="492.0735" /><rect fill="none" height="50" stroke="black" stroke-width="1" width="50" x="130" y="640.0383" /><rect fill="none" height="50" stroke="black" stroke-width="1" width="50" x="140" y="49.2725" /><rect fill="none" height="50" stroke="black" stroke-width="1" width="50" x="140" y="197.7953" /><rect fill="none" height="50" stroke="black" stroke-width="1" width="50" x="140" y="345.9722" /><rect fill="none" height="50" stroke="black" stroke-width="1" width="50" x="140" y="494.0252" /><rect fill="none" height="50" stroke="black" stroke-width="1" width="50" x="140" y="642.0735" /><rect fill="none" height="50" stroke="black" stroke-width="1" width="50" x="150" y="49.8747" /><rect fill="none" height="50" stroke="black" stroke-width="1" width="50" x="150" y="198.931" /><rect fill="none" height="50" stroke="black" stroke-width="1" width="50" x="150" y="347.4492" /><rect fill="none" height="50" stroke="black" stroke-width="1" width="50" x="150" y="495.7164" /><rect fill="none" height="50" stroke="black" stroke-width="1" width="50" x="150" y="643.8943" /><rect fill="none" height="50" stroke="black" stroke-width="1" width="50" x="160" y="49.9787" /><rect fill="none" height="50" stroke="black" stroke-width="1" width="50" x="160" y="199.6625" /><rect fill="none" height="50" stroke="black" stroke-width="1" width="50" x="160" y="348.5969" /><rect fill="none" height="50" stroke="black" stroke-width="1" width="50" x="160" y="497.1373" /><rect fill="none" height="50" stroke="black" stroke-width="1" width="50" x="160" y="645.4911" /><rect fill="none" height="50" stroke="black" stroke-width="1" width="50" x="170" y="49.5832" /><rect fill="none" height="50" stroke="black" stroke-width="1" width="50" x="170" y="199.9839" /><rect fill="none" height="50" stroke="black" stroke-width="1" width="50" x="170" y="349.4073" /><rect fill="none" height="50" stroke="black" stroke-width="1" width="50" x="170" y="498.2794" /><rect fill="none" height="50" stroke="black" stroke-width="1" width="50" x="170" y="646.856" /><rect fill="none" height="50" stroke="black" stroke-width="1" width="50" x="180" y="48.6924" /><rect fill="none" height="50" stroke="black" stroke-width="1" width="50" x="180" y="199.8926" /><rect fill="none" height="50" stroke="black" stroke-width="1" width="50" x="180" y="349.8747" /><rect fill="none" height="50" stroke="black" stroke-width="1" width="50" x="180" y="499.1359" /><rect fill="none" height="50" stroke="black" stroke-width="1" width="50" x="180" y="647.9819" /><rect fill="none" height="50" stroke="black" stroke-width="1" width="50" x="190" y="47.315" /><rect fill="none" height="50" stroke="black" stroke-width="1" width="50" x="190" y="199.3891" /><rect fill="none" height="50" stroke="black" stroke-width="1" width="50" x="190" y="349.9961" /><rect fill="none" height="50" stroke="black" stroke-width="1" width="50" x="190" y="499.7019" /><rect fill="none" height="50" stroke="black" stroke-width="1" width="50" x="190" y="648.8631" /><rect fill="none" height="50" stroke="black" stroke-width="1" width="50" x="200" y="45.4649" /><rect fill="none" height="50" stroke="black" stroke-width="1" width="50" x="200" y="198.4778" /><rect fill="none" height="50" stroke="black" stroke-width="1" width="50" x="200" y="349.7704" /><rect fill="none" height="50" stroke="black" stroke-width="1" width="50" x="200" y="499.9739" /><rect fill="none" height="50" stroke="black" stroke-width="1" width="50" x="200" y="649.4952" /><rect fill="none" height="50" stroke="black" stroke-width="1" width="50" x="210" y="43.1605" /><rect fill="none" height="50" stroke="black" stroke-width="1" width="50" x="210" y="197.1661" /><rect fill="none" height="50" stroke="black" stroke-width="1" width="50" x="210" y="349.1993" /><rect fill="none" height="50" stroke="black" stroke-width="1" width="50" x="210" y="499.9503" /><rect fill="none" height="50" stroke="black" stroke-width="1" width="50" x="210" y="649.8747" /><rect fill="none" height="50" stroke="black" stroke-width="1" width="50" x="220" y="40.4248" /><rect fill="none" height="50" stroke="black" stroke-width="1" width="50" x="220" y="195.4649" /><rect fill="none" height="50" stroke="black" stroke-width="1" width="50" x="220" y="348.2867" /><rect fill="none" height="50" stroke="black" stroke-width="1" width="50" x="220" y="499.6313" /><rect fill="none" height="50" stroke="black" stroke-width="1" width="50" x="220" y="650.0" /><rect fill="none" height="50" stroke="black" stroke-width="1" width="50" x="230" y="37.2853" /><rect fill="none" height="50" stroke="black" stroke-width="1" width="50" x="230" y="193.3882" /><rect fill="none" height="50" stroke="black" stroke-width="1" width="50" x="230" y="347.039" /><rect fill="none" height="50" stroke="black" stroke-width="1" width="50" x="230" y="499.0188" /><rect fill="none" height="50" stroke="black" stroke-width="1" width="50" x="230" y="649.8702" /><rect fill="none" height="50" stroke="black" stroke-width="1" width="50" x="240" y="33.7732" /><rect fill="none" height="50" stroke="black" stroke-width="1" width="50" x="240" y="190.9531" /><rect fill="none" height="50" stroke="black" stroke-width="1" width="50" x="240" y="345.4649" /><rect fill="none" height="50" stroke="black" stroke-width="1" width="50" x="240" y="498.1164" /><rect fill="none" height="50" stroke="black" stroke-width="1" width="50" x="240" y="649.4862" /><rect fill="none" height="50" stroke="black" stroke-width="1" width="50" x="250" y="29.9236" /><rect fill="none" height="50" stroke="black" stroke-width="1" width="50" x="250" y="188.1798" /><rect fill="none" height="50" stroke="black" stroke-width="1" width="50" x="250" y="343.5752" /><rect fill="none" height="50" stroke="black" stroke-width="1" width="50" x="250" y="496.9294" /><rect fill="none" height="50" stroke="black" stroke-width="1" width="50" x="250" y="648.8497" /><rect fill="none" height="50" stroke="black" stroke-width="1" width="50" x="260" y="25.7751" /><rect fill="none" height="50" stroke="black" stroke-width="1" width="50" x="260" y="185.0913" /><rect fill="none" height="50" stroke="black" stroke-width="1" width="50" x="260" y="341.383" /><rect fill="none" height="50" stroke="black" stroke-width="1" width="50" x="260" y="495.4649" /><rect fill="none" height="50" stroke="black" stroke-width="1" width="50" x="260" y="647.9641" /><rect fill="none" height="50" stroke="black" stroke-width="1" width="50" x="270" y="21.369" /><rect fill="none" height="50" stroke="black" stroke-width="1" width="50" x="270" y="181.7129" /><rect fill="none" height="50" stroke="black" stroke-width="1" width="50" x="270" y="338.9037" /><rect fill="none" height="50" stroke="black" stroke-width="1" width="50" x="270" y="493.7314" /><rect fill="none" height="50" stroke="black" stroke-width="1" width="50" x="270" y="646.8339" /><rect fill="none" height="50" stroke="black" stroke-width="1" width="50" x="280" y="16.7494" /><rect fill="none" height="50" stroke="black" stroke-width="1" width="50" x="280" y="178.0725" /><rect fill="none" height="50" stroke="black" stroke-width="1" width="50" x="280" y="336.1543" /><rect fill="none" height="50" stroke="black" stroke-width="1" width="50" x="280" y="491.7394" /><rect fill="none" height="50" stroke="black" stroke-width="1" width="50" x="280" y="645.4649" /><rect fill="none" height="50" stroke="black" stroke-width="1" width="50" x="290" y="11.9625" /><rect fill="none" height="50" stroke="black" stroke-width="1" width="50" x="290" y="174.2004" /><rect fill="none" height="50" stroke="black" stroke-width="1" width="50" x="290" y="333.154" /><rect fill="none" height="50" stroke="black" stroke-width="1" width="50" x="290" y="489.5004" /><rect fill="none" height="50" stroke="black" stroke-width="1" width="50" x="290" y="643.864" /><rect fill="none" height="50" stroke="black" stroke-width="1" width="50" x="300" y="7.056" /><rect fill="none" height="50" stroke="black" stroke-width="1" width="50" x="300" y="170.1284" /><rect fill="none" height="50" stroke="black" stroke-width="1" width="50" x="300" y="329.9236" /><rect fill="none" height="50" stroke="black" stroke-width="1" width="50" x="300" y="487.0279" /><rect fill="none" height="50" stroke="black" stroke-width="1" width="50" x="300" y="642.0394" /><rect fill="none" height="50" stroke="black" stroke-width="1" width="50" x="310" y="2.079" /><rect fill="none" height="50" stroke="black" stroke-width="1" width="50" x="310" y="165.8901" /><rect fill="none" height="50" stroke="black" stroke-width="1" width="50" x="310" y="326.4855" /><rect fill="none" height="50" stroke="black" stroke-width="1" width="50" x="310" y="484.3364" /><rect fill="none" height="50" stroke="black" stroke-width="1" width="50" x="310" y="640.0004" /><rect fill="none" height="50" stroke="black" stroke-width="1" width="50" x="320" y="-2.9187" /><rect fill="none" height="50" stroke="black" stroke-width="1" width="50" x="320" y="161.5206" /><rect fill="none" height="50" stroke="black" stroke-width="1" width="50" x="320" y="322.8636" /><rect fill="none" height="50" stroke="black" stroke-width="1" width="50" x="320" y="481.4418" /><rect fill="none" height="50" stroke="black" stroke-width="1" width="50" x="320" y="637.7574" /><rect fill="none" height="50" stroke="black" stroke-width="1" width="50" x="330" y="-7.8873" /><rect fill="none" height="50" stroke="black" stroke-width="1" width="50" x="330" y="157.056" /><rect fill="none" height="50" stroke="black" stroke-width="1" width="50" x="330" y="319.083" /><rect fill="none" height="50" stroke="black" stroke-width="1" width="50" x="330" y="478.3612" /><rect fill="none" height="50" stroke="black" stroke-width="1" width="50" x="330" y="635.3218" /><rect fill="none" height="50" stroke="black" stroke-width="1" width="50" x="340" y="-12.7771" /><rect fill="none" height="50" stroke="black" stroke-width="1" width="50" x="340" y="152.5331" /><rect fill="none" height="50" stroke="black" stroke-width="1" width="50" x="340" y="315.17" /><rect fill="none" height="50" stroke="black" stroke-width="1" width="50" x="340" y="475.1129" /><rect fill="none" height="50" stroke="black" stroke-width="1" width="50" x="340" y="632.7061" /><rect fill="none" height="50" stroke="black" stroke-width="1" width="50" x="350" y="-17.5392" /><rect fill="none" height="50" stroke="black" stroke-width="1" width="50" x="350" y="147.9893" /><rect fill="none" height="50" stroke="black" stroke-width="1" width="50" x="350" y="311.1517" /><rect fill="none" height="50" stroke="black" stroke-width="1" width="50" x="350" y="471.7161" /><rect fill="none" height="50" stroke="black" stroke-width="1" width="50" x="350" y="629.9236" /><rect fill="none" height="50" stroke="black" stroke-width="1" width="50" x="360" y="-22.126" /><rect fill="none" height="50" stroke="black" stroke-width="1" width="50" x="360" y="143.462" /><rect fill="none" height="50" stroke="black" stroke-width="1" width="50" x="360" y="307.056" /><rect fill="none" height="50" stroke="black" stroke-width="1" width="50" x="360" y="468.1908" /><rect fill="none" height="50" stroke="black" stroke-width="1" width="50" x="360" y="626.9885" /><rect fill="none" height="50" stroke="black" stroke-width="1" width="50" x="370" y="-26.4918" /><rect fill="none" height="50" stroke="black" stroke-width="1" width="50" x="370" y="138.9888" /><rect fill="none" height="50" stroke="black" stroke-width="1" width="50" x="370" y="302.9113" /><rect fill="none" height="50" stroke="black" stroke-width="1" width="50" x="370" y="464.558" /><rect fill="none" height="50" stroke="black" stroke-width="1" width="50" x="370" y="623.9158" /><rect fill="none" height="50" stroke="black" stroke-width="1" width="50" x="380" y="-30.5929" /><rect fill="none" height="50" stroke="black" stroke-width="1" width="50" x="380" y="134.6065" /><rect fill="none" height="50" stroke="black" stroke-width="1" width="50" x="380" y="298.7464" /><rect fill="none" height="50" stroke="black" stroke-width="1" width="50" x="380" y="460.839" /><rect fill="none" height="50" stroke="black" stroke-width="1" width="50" x="380" y="620.7211" /><rect fill="none" height="50" stroke="black" stroke-width="1" width="50" x="390" y="-34.3883" /><rect fill="none" height="50" stroke="black" stroke-width="1" width="50" x="390" y="130.3514" /><rect fill="none" height="50" stroke="black" stroke-width="1" width="50" x="390" y="294.5902" /><rect fill="none" height="50" stroke="black" stroke-width="1" width="50" x="390" y="457.056" /><rect fill="none" height="50" stroke="black" stroke-width="1" width="50" x="390" y="617.4207" /><rect fill="none" height="50" stroke="black" stroke-width="1" width="50" x="400" y="-37.8401" /><rect fill="none" height="50" stroke="black" stroke-width="1" width="50" x="400" y="126.2585" /><rect fill="none" height="50" stroke="black" stroke-width="1" width="50" x="400" y="290.4716" /><rect fill="none" height="50" stroke="black" stroke-width="1" width="50" x="400" y="453.2312" /><rect fill="none" height="50" stroke="black" stroke-width="1" width="50" x="400" y="614.0315" /><rect fill="none" height="50" stroke="black" stroke-width="1" width="50" x="410" y="-40.9139" /><rect fill="none" height="50" stroke="black" stroke-width="1" width="50" x="410" y="122.3617" /><rect fill="none" height="50" stroke="black" stroke-width="1" width="50" x="410" y="286.4191" /><rect fill="none" height="50" stroke="black" stroke-width="1" width="50" x="410" y="449.3873" /><rect fill="none" height="50" stroke="black" stroke-width="1" width="50" x="410" y="610.5707" /><rect fill="none" height="50" stroke="black" stroke-width="1" width="50" x="420" y="-43.5788" /><rect fill="none" height="50" stroke="black" stroke-width="1" width="50" x="420" y="118.6931" /><rect fill="none" height="50" stroke="black" stroke-width="1" width="50" x="420" y="282.4608" /><rect fill="none" height="50" stroke="black" stroke-width="1" width="50" x="420" y="445.5471" /><rect fill="none" height="50" stroke="black" stroke-width="1" width="50" x="420" y="607.056" /><rect fill="none" height="50" stroke="black" stroke-width="1" width="50" x="430" y="-45.8083" /><rect fill="none" height="50" stroke="black" stroke-width="1" width="50" x="430" y="115.2831" /><rect fill="none" height="50" stroke="black" stroke-width="1" width="50" x="430" y="278.6243" /><rect fill="none" height="50" stroke="black" stroke-width="1" width="50" x="430" y="441.7332" /><rect fill="none" height="50" stroke="black" stroke-width="1" width="50" x="430" y="603.5053" /><rect fill="none" height="50" stroke="black" stroke-width="1" width="50" x="440" y="-47.5801" /><rect fill="none" height="50" stroke="black" stroke-width="1" width="50" x="440" y="112.1599" /><rect fill="none" height="50" stroke="black" stroke-width="1" width="50" x="440" y="274.9361" /><rect fill="none" height="50" stroke="black" stroke-width="1" width="50" x="440" y="437.9681" /><rect fill="none" height="50" stroke="black" stroke-width="1" width="50" x="440" y="599.9368" /><rect fill="none" height="50" stroke="black" stroke-width="1" width="50" x="450" y="-48.8765" /><rect fill="none" height="50" stroke="black" stroke-width="1" width="50" x="450" y="109.3491" /><rect fill="none" height="50" stroke="black" stroke-width="1" width="50" x="450" y="271.4219" /><rect fill="none" height="50" stroke="black" stroke-width="1" width="50" x="450" y="434.2742" /><rect fill="none" height="50" stroke="black" stroke-width="1" width="50" x="450" y="596.3685" /><rect fill="none" height="50" stroke="black" stroke-width="1" width="50" x="460" y="-49.6846" /><rect fill="none" height="50" stroke="black" stroke-width="1" width="50" x="460" y="106.8741" /><rect fill="none" height="50" stroke="black" stroke-width="1" width="50" x="460" y="268.1061" /><rect fill="none" height="50" stroke="black" stroke-width="1" width="50" x="460" y="430.6734" /><rect fill="none" height="50" stroke="black" stroke-width="1" width="50" x="460" y="592.8188" /><rect fill="none" height="50" stroke="black" stroke-width="1" width="50" x="470" y="-49.9962" /><rect fill="none" height="50" stroke="black" stroke-width="1" width="50" x="470" y="104.7552" /><rect fill="none" height="50" stroke="black" stroke-width="1" width="50" x="470" y="265.0116" /><rect fill="none" height="50" stroke="black" stroke-width="1" width="50" x="470" y="427.1868" /><rect fill="none" height="50" stroke="black" stroke-width="1" width="50" x="470" y="589.3058" /><rect fill="none" height="50" stroke="black" stroke-width="1" width="50" x="480" y="-49.8082" /><rect fill="none" height="50" stroke="black" stroke-width="1" width="50" x="480" y="103.01" /><rect fill="none" height="50" stroke="black" stroke-width="1" width="50" x="480" y="262.1599" /><rect fill="none" height="50" stroke="black" stroke-width="1" width="50" x="480" y="423.8352" /><rect fill="none" height="50" stroke="black" stroke-width="1" width="50" x="480" y="585.8472" /><rect fill="none" height="50" stroke="black" stroke-width="1" width="50" x="490" y="-49.1226" /><rect fill="none" height="50" stroke="black" stroke-width="1" width="50" x="490" y="101.6529" /><rect fill="none" height="50" stroke="black" stroke-width="1" width="50" x="490" y="259.5708" /><rect fill="none" height="50" stroke="black" stroke-width="1" width="50" x="490" y="420.6383" /><rect fill="none" height="50" stroke="black" stroke-width="1" width="50" x="490" y="582.4608" /><rect fill="none" height="50" stroke="black" stroke-width="1" width="50" x="500" y="-47.9462" /><rect fill="none" height="50" stroke="black" stroke-width="1" width="50" x="500" y="100.6951" /><rect fill="none" height="50" stroke="black" stroke-width="1" width="50" x="500" y="257.2624" /><rect fill="none" height="50" stroke="black" stroke-width="1" width="50" x="500" y="417.615" /><rect fill="none" height="50" stroke="black" stroke-width="1" width="50" x="500" y="579.1639" /><rect fill="none" height="50" stroke="black" stroke-width="1" width="50" x="510" y="-46.2907" /><rect fill="none" height="50" stroke="black" stroke-width="1" width="50" x="510" y="100.1444" /><rect fill="none" height="50" stroke="black" stroke-width="1" width="50" x="510" y="255.2505" /><rect fill="none" height="50" stroke="black" stroke-width="1" width="50" x="510" y="414.7833" /><rect fill="none" height="50" stroke="black" stroke-width="1" width="50" x="510" y="575.9733" /><rect fill="none" height="50" stroke="black" stroke-width="1" width="50" x="520" y="-44.1727" /><rect fill="none" height="50" stroke="black" stroke-width="1" width="50" x="520" y="100.0055" /><rect fill="none" height="50" stroke="black" stroke-width="1" width="50" x="520" y="253.5493" /><rect fill="none" height="50" stroke="black" stroke-width="1" width="50" x="520" y="412.1599" /><rect fill="none" height="50" stroke="black" stroke-width="1" width="50" x="520" y="572.9051" /><rect fill="none" height="50" stroke="black" stroke-width="1" width="50" x="530" y="-41.6134" /><rect fill="none" height="50" stroke="black" stroke-width="1" width="50" x="530" y="100.2795" /><rect fill="none" height="50" stroke="black" stroke-width="1" width="50" x="530" y="252.1704" /><rect fill="none" height="50" stroke="black" stroke-width="1" width="50" x="530" y="409.7602" /><rect fill="none" height="50" stroke="black" stroke-width="1" width="50" x="530" y="569.9752" /><rect fill="none" height="50" stroke="black" stroke-width="1" width="50" x="540" y="-38.6382" /><rect fill="none" height="50" stroke="black" stroke-width="1" width="50" x="540" y="100.9642" /><rect fill="none" height="50" stroke="black" stroke-width="1" width="50" x="540" y="251.1235" /><rect fill="none" height="50" stroke="black" stroke-width="1" width="50" x="540" y="407.5986" /><rect fill="none" height="50" stroke="black" stroke-width="1" width="50" x="540" y="567.1984" /><rect fill="none" height="50" stroke="black" stroke-width="1" width="50" x="550" y="-35.277" /><rect fill="none" height="50" stroke="black" stroke-width="1" width="50" x="550" y="102.0538" /><rect fill="none" height="50" stroke="black" stroke-width="1" width="50" x="550" y="250.4158" /><rect fill="none" height="50" stroke="black" stroke-width="1" width="50" x="550" y="405.6877" /><rect fill="none" height="50" stroke="black" stroke-width="1" width="50" x="550" y="564.5888" /><rect fill="none" height="50" stroke="black" stroke-width="1" width="50" x="560" y="-31.5633" /><rect fill="none" height="50" stroke="black" stroke-width="1" width="50" x="560" y="103.5394" /><rect fill="none" height="50" stroke="black" stroke-width="1" width="50" x="560" y="250.0523" /><rect fill="none" height="50" stroke="black" stroke-width="1" width="50" x="560" y="404.0389" /><rect fill="none" height="50" stroke="black" stroke-width="1" width="50" x="560" y="562.1599" /><rect fill="none" height="50" stroke="black" stroke-width="1" width="50" x="570" y="-27.5343" /><rect fill="none" height="50" stroke="black" stroke-width="1" width="50" x="570" y="105.4087" /><rect fill="none" height="50" stroke="black" stroke-width="1" width="50" x="570" y="250.0354" /><rect fill="none" height="50" stroke="black" stroke-width="1" width="50" x="570" y="402.6619" /><rect fill="none" height="50" stroke="black" stroke-width="1" width="50" x="570" y="559.9239" /><rect fill="none" height="50" stroke="black" stroke-width="1" width="50" x="580" y="-23.2301" /><rect fill="none" height="50" stroke="black" stroke-width="1" width="50" x="580" y="107.6462" /><rect fill="none" height="50" stroke="black" stroke-width="1" width="50" x="580" y="250.3652" /><rect fill="none" height="50" stroke="black" stroke-width="1" width="50" x="580" y="401.5649" /><rect fill="none" height="50" stroke="black" stroke-width="1" width="50" x="580" y="557.8923" /><rect fill="none" height="50" stroke="black" stroke-width="1" width="50" x="590" y="-18.6938" /><rect fill="none" height="50" stroke="black" stroke-width="1" width="50" x="590" y="110.2336" /><rect fill="none" height="50" stroke="black" stroke-width="1" width="50" x="590" y="251.0396" /><rect fill="none" height="50" stroke="black" stroke-width="1" width="50" x="590" y="400.7544" /><rect fill="none" height="50" stroke="black" stroke-width="1" width="50" x="590" y="556.0755" /><rect fill="none" height="50" stroke="black" stroke-width="1" width="50" x="600" y="-13.9708" /><rect fill="none" height="50" stroke="black" stroke-width="1" width="50" x="600" y="113.1494" /><rect fill="none" height="50" stroke="black" stroke-width="1" width="50" x="600" y="252.0538" /><rect fill="none" height="50" stroke="black" stroke-width="1" width="50" x="600" y="400.2351" /><rect fill="none" height="50" stroke="black" stroke-width="1" width="50" x="600" y="554.4827" /><rect fill="none" height="50" stroke="black" stroke-width="1" width="50" x="610" y="-9.1081" /><rect fill="none" height="50" stroke="black" stroke-width="1" width="50" x="610" y="116.3695" /><rect fill="none" height="50" stroke="black" stroke-width="1" width="50" x="610" y="253.4007" /><rect fill="none" height="50" stroke="black" stroke-width="1" width="50" x="610" y="400.0101" /><rect fill="none" height="50" stroke="black" stroke-width="1" width="50" x="610" y="553.122" /><rect fill="none" height="50" stroke="black" stroke-width="1" width="50" x="620" y="-4.1545" /><rect fill="none" height="50" stroke="black" stroke-width="1" width="50" x="620" y="119.8673" /><rect fill="none" height="50" stroke="black" stroke-width="1" width="50" x="620" y="255.0711" /><rect fill="none" height="50" stroke="black" stroke-width="1" width="50" x="620" y="400.0808" /><rect fill="none" height="50" stroke="black" stroke-width="1" width="50" x="620" y="552.0003" /><rect fill="none" height="50" stroke="black" stroke-width="1" width="50" x="630" y="0.8407" /><rect fill="none" height="50" stroke="black" stroke-width="1" width="50" x="630" y="123.6141" /><rect fill="none" height="50" stroke="black" stroke-width="1" width="50" x="630" y="257.0533" /><rect fill="none" height="50" stroke="black" stroke-width="1" width="50" x="630" y="400.4467" /><rect fill="none" height="50" stroke="black" stroke-width="1" width="50" x="630" y="551.1235" /><rect fill="none" height="50" stroke="black" stroke-width="1" width="50" x="640" y="5.8275" /><rect fill="none" height="50" stroke="black" stroke-width="1" width="50" x="640" y="127.5787" /><rect fill="none" height="50" stroke="black" stroke-width="1" width="50" x="640" y="259.3335" /><rect fill="none" height="50" stroke="black" stroke-width="1" width="50" x="640" y="401.1056" /><rect fill="none" height="50" stroke="black" stroke-width="1" width="50" x="640" y="550.4959" /></svg>