<?xml version="1.0" encoding="utf-8" ?>
<svg baseProfile="tiny" height="500" version="1.2" width="500" xmlns="http://www.w3.org/2000/svg" xmlns:ev="http://www.w3.org/2001/xml-events" xmlns:xlink="http://www.w3.org/1999/xlink"><defs /><rect fill="none" height="10.0" stroke="black" stroke-width="0.5" transform="rotate(-0.0 0 0)" width="10.0" x="0.0" y="0.0" /><rect fill="none" height="10.0" stroke="black" stroke-width="0.5" transform="rotate(0.006272009092371134 0 10)" width="10.0" x="0.0" y="10.0" /><rect fill="none" height="10.0" stroke="black" stroke-width="0.5" transform="rotate(-0.1739499563018223 0 20)" width="10.0" x="0.0" y="20.0" /><rect fill="none" height="10.0" stroke="black" stroke-width="0.5" transform="rotate(0.29820364840388597 0 30)" width="10.0" x="0.0" y="30.0" /><rect fill="none" height="10.0" stroke="black" stroke-width="0.5" transform="rotate(-0.7650207471574596 0 40)" width="10.0" x="0.0" y="40.0" /><rect fill="none" height="10.0" stroke="black" stroke-width="0.5" transform="rotate(-0.7920758539560282 0 50)" width="10.0" x="0.0" y="50.0" /><rect fill="none" height="10.0" stroke="black" stroke-width="0.5" transform="rotate(-0.005593705126796422 0 60)" width="10.0" x="0.0" y="60.0" /><rect fill="none" height="10.0" stroke="black" stroke-width="0.5" transform="rotate(2.106641054659099 0 70)" width="10.0" x="0.0" y="70.0" /><rect fill="none" height="10.0" stroke="black" stroke-width="0.5" transform="rotate(-2.9776899198233986 0 80)" width="10.0" x="0.0" y="80.0" /><rect fill="none" height="10.0" stroke="black" stroke-width="0.5" transform="rotate(3.6949708591950783 0 90)" width="10.0" x="0.0" y="90.0" /><rect fill="none" height="10.0" stroke="black" stroke-width="0.5" transform="rotate(-2.454295038942007 0 100)" width="10.0" x="0.0" y="100.0" /><rect fill="none" height="10.0" stroke="black" stroke-width="0.5" transform="rotate(1.2988728030515233 0 110)" width="10.0" x="0.0" y="110.0" /><rect fill="none" height="10.0" stroke="black" stroke-width="0.5" transform="rotate(-2.378437455377929 0 120)" width="10.0" x="0.0" y="120.0" /><rect fill="none" height="10.0" stroke="black" stroke-width="0.5" transform="rotate(-5.824410972606762 0 130)" width="10.0" x="0.0" y="130.0" /><rect fill="none" height="10.0" stroke="black" stroke-width="0.5" transform="rotate(-7.7149421762578525 0 140)" width="10.0" x="0.0" y="140.0" /><rect fill="none" height="10.0" stroke="black" stroke-width="0.5" transform="rotate(-1.820997652629604 0 150)" width="10.0" x="0.0" y="150.0" /><rect fill="none" height="10.0" stroke="black" stroke-width="0.5" transform="rotate(-2.92320035524871 0 160)" width="10.0" x="0.0" y="160.0" /><rect fill="none" height="10.0" stroke="black" stroke-width="0.5" transform="rotate(0.7315202733192614 0 170)" width="10.0" x="0.0" y="170.0" /><rect fill="none" height="10.0" stroke="black" stroke-width="0.5" transform="rotate(14.879749276246283 0 180)" width="10.0" x="0.0" y="180.0" /><rect fill="none" height="10.0" stroke="black" stroke-width="0.5" transform="rotate(-1.176900514570995 0 190)" width="10.0" x="0.0" y="190.0" /><rect fill="none" height="10.0" stroke="black" stroke-width="0.5" transform="rotate(0.0 10 0)" width="10.0" x="10.0" y="0.0" /><rect fill="none" height="9.9404" stroke="black" stroke-width="0.5" transform="rotate(0.0020960152394081666 10 10)" width="9.9713" x="10.0045" y="10.0045" /><rect fill="none" height="10.0763" stroke="black" stroke-width="0.5" transform="rotate(-0.021606925559221547 10 20)" width="9.9131" x="9.9689" y="19.9689" /><rect fill="none" height="10.0771" stroke="black" stroke-width="0.5" transform="rotate(0.1607168795939601 10 30)" width="9.9167" x="10.0748" y="30.0748" /><rect fill="none" height="9.9856" stroke="black" stroke-width="0.5" transform="rotate(0.5348352329673958 10 40)" width="9.9178" x="9.9484" y="39.9484" /><rect fill="none" height="9.8055" stroke="black" stroke-width="0.5" transform="rotate(1.1793992586987354 10 50)" width="10.0234" x="10.0928" y="50.0928" /><rect fill="none" height="9.669" stroke="black" stroke-width="0.5" transform="rotate(0.1354269571289816 10 60)" width="10.3269" x="10.0171" y="60.0171" /><rect fill="none" height="10.162" stroke="black" stroke-width="0.5" transform="rotate(0.7786629971339479 10 70)" width="10.4016" x="10.1211" y="70.1211" /><rect fill="none" height="10.4336" stroke="black" stroke-width="0.5" transform="rotate(0.5123830960052622 10 80)" width="9.8251" x="9.8053" y="79.8053" /><rect fill="none" height="10.1397" stroke="black" stroke-width="0.5" transform="rotate(-1.3716844651877593 10 90)" width="10.249" x="9.8665" y="89.8665" /><rect fill="none" height="9.6256" stroke="black" stroke-width="0.5" transform="rotate(4.812256021973828 10 100)" width="10.1616" x="10.2121" y="100.2121" /><rect fill="none" height="10.5948" stroke="black" stroke-width="0.5" transform="rotate(-5.787574260507453 10 110)" width="9.6111" x="9.9748" y="109.9748" /><rect fill="none" height="9.5624" stroke="black" stroke-width="0.5" transform="rotate(1.357981036352098 10 120)" width="10.1885" x="9.757" y="119.757" /><rect fill="none" height="10.2446" stroke="black" stroke-width="0.5" transform="rotate(-3.1447785701232087 10 130)" width="10.2975" x="10.0492" y="130.0492" /><rect fill="none" height="10.4415" stroke="black" stroke-width="0.5" transform="rotate(-0.13324824395408533 10 140)" width="10.7247" x="10.1198" y="140.1198" /><rect fill="none" height="9.7439" stroke="black" stroke-width="0.5" transform="rotate(-3.0980824041828763 10 150)" width="10.3986" x="9.9178" y="149.9178" /><rect fill="none" height="10.4711" stroke="black" stroke-width="0.5" transform="rotate(0.5614309774407673 10 160)" width="9.4118" x="10.0484" y="160.0484" /><rect fill="none" height="10.3248" stroke="black" stroke-width="0.5" transform="rotate(0.5001254681974521 10 170)" width="10.5006" x="10.2199" y="170.2199" /><rect fill="none" height="10.9291" stroke="black" stroke-width="0.5" transform="rotate(10.8573874983725 10 180)" width="9.0273" x="9.9316" y="179.9316" /><rect fill="none" height="10.0163" stroke="black" stroke-width="0.5" transform="rotate(-0.4869985053079039 10 190)" width="9.1299" x="10.3166" y="190.3166" /><rect fill="none" height="10.0" stroke="black" stroke-width="0.5" transform="rotate(-0.0 20 0)" width="10.0" x="20.0" y="0.0" /><rect fill="none" height="10.0796" stroke="black" stroke-width="0.5" transform="rotate(-0.024800621532664692 20 10)" width="9.8967" x="20.0443" y="10.0443" /><rect fill="none" height="9.9506" stroke="black" stroke-width="0.5" transform="rotate(-0.15550590309980486 20 20)" width="9.7642" x="19.9852" y="19.9852" /><rect fill="none" height="9.6268" stroke="black" stroke-width="0.5" transform="rotate(-0.05264201163753428 20 30)" width="10.2963" x="20.1286" y="30.1286" /><rect fill="none" height="9.7669" stroke="black" stroke-width="0.5" transform="rotate(-0.1474450551543308 20 40)" width="10.2649" x="19.8066" y="39.8066" /><rect fill="none" height="9.6445" stroke="black" stroke-width="0.5" transform="rotate(1.0967992829341768 20 50)" width="10.4903" x="20.2404" y="50.2404" /><rect fill="none" height="10.4094" stroke="black" stroke-width="0.5" transform="rotate(-0.9815538839185434 20 60)" width="9.2825" x="20.2547" y="60.2547" /><rect fill="none" height="10.469" stroke="black" stroke-width="0.5" transform="rotate(0.2145546699899806 20 70)" width="10.056" x="20.25" y="70.25" /><rect fill="none" height="10.4212" stroke="black" stroke-width="0.5" transform="rotate(-0.32058357310140406 20 80)" width="10.4423" x="20.0905" y="80.0905" /><rect fill="none" height="10.7312" stroke="black" stroke-width="0.5" transform="rotate(-0.7023263919003034 20 90)" width="10.5905" x="20.1484" y="90.1484" /><rect fill="none" height="10.8069" stroke="black" stroke-width="0.5" transform="rotate(4.331053321154059 20 100)" width="10.8476" x="19.7078" y="99.7078" /><rect fill="none" height="10.6149" stroke="black" stroke-width="0.5" transform="rotate(1.7187092383867042 20 110)" width="8.9083" x="19.806" y="109.806" /><rect fill="none" height="10.9703" stroke="black" stroke-width="0.5" transform="rotate(-6.624321656954665 20 120)" width="9.0318" x="20.2949" y="120.2949" /><rect fill="none" height="11.2412" stroke="black" stroke-width="0.5" transform="rotate(0.49581389516579055 20 130)" width="10.2517" x="19.8351" y="129.8351" /><rect fill="none" height="9.6624" stroke="black" stroke-width="0.5" transform="rotate(-1.0652508223968926 20 140)" width="9.6379" x="20.2309" y="140.2309" /><rect fill="none" height="10.6544" stroke="black" stroke-width="0.5" transform="rotate(-10.235000152435635 20 150)" width="11.1548" x="19.3501" y="149.3501" /><rect fill="none" height="9.9745" stroke="black" stroke-width="0.5" transform="rotate(2.6387833509382004 20 160)" width="11.5534" x="19.3032" y="159.3032" /><rect fill="none" height="8.3283" stroke="black" stroke-width="0.5" transform="rotate(9.797643775792823 20 170)" width="10.0745" x="19.5472" y="169.5472" /><rect fill="none" height="8.6421" stroke="black" stroke-width="0.5" transform="rotate(8.428046735768275 20 180)" width="8.8999" x="19.7765" y="179.7765" /><rect fill="none" height="8.5941" stroke="black" stroke-width="0.5" transform="rotate(15.772583249268354 20 190)" width="11.6244" x="20.4872" y="190.4872" /><rect fill="none" height="10.0" stroke="black" stroke-width="0.5" transform="rotate(-0.0 30 0)" width="10.0" x="30.0" y="0.0" /><rect fill="none" height="9.9041" stroke="black" stroke-width="0.5" transform="rotate(0.025769833659081497 30 10)" width="10.0092" x="30.041" y="10.041" /><rect fill="none" height="9.8432" stroke="black" stroke-width="0.5" transform="rotate(-0.025739478716269783 30 20)" width="10.0147" x="29.9217" y="19.9217" /><rect fill="none" height="10.4486" stroke="black" stroke-width="0.5" transform="rotate(-0.26797276793498426 30 30)" width="10.496" x="30.0565" y="30.0565" /><rect fill="none" height="9.8266" stroke="black" stroke-width="0.5" transform="rotate(-0.08624850191525439 30 40)" width="10.4575" x="30.2874" y="40.2874" /><rect fill="none" height="10.6247" stroke="black" stroke-width="0.5" transform="rotate(0.9488140142067699 30 50)" width="10.3645" x="30.2722" y="50.2722" /><rect fill="none" height="10.4736" stroke="black" stroke-width="0.5" transform="rotate(1.6885385958928594 30 60)" width="8.968" x="30.3238" y="60.3238" /><rect fill="none" height="10.8056" stroke="black" stroke-width="0.5" transform="rotate(2.246310991283709 30 70)" width="11.0807" x="30.0572" y="70.0572" /><rect fill="none" height="9.5616" stroke="black" stroke-width="0.5" transform="rotate(1.961444306375472 30 80)" width="10.0067" x="29.9899" y="79.9899" /><rect fill="none" height="10.9852" stroke="black" stroke-width="0.5" transform="rotate(-3.6330648701923165 30 90)" width="8.4723" x="29.6859" y="89.6859" /><rect fill="none" height="10.3855" stroke="black" stroke-width="0.5" transform="rotate(-1.8673921002331717 30 100)" width="11.5504" x="30.0207" y="100.0207" /><rect fill="none" height="9.182" stroke="black" stroke-width="0.5" transform="rotate(-3.4202025010878607 30 110)" width="8.4859" x="30.0837" y="110.0837" /><rect fill="none" height="12.1092" stroke="black" stroke-width="0.5" transform="rotate(-2.0207202724324405 30 120)" width="10.8789" x="29.8519" y="119.8519" /><rect fill="none" height="9.6357" stroke="black" stroke-width="0.5" transform="rotate(-6.902718931211946 30 130)" width="10.6821" x="29.2385" y="129.2385" /><rect fill="none" height="11.6785" stroke="black" stroke-width="0.5" transform="rotate(8.655194194277957 30 140)" width="10.3679" x="29.7419" y="139.7419" /><rect fill="none" height="12.1916" stroke="black" stroke-width="0.5" transform="rotate(-9.133421784258413 30 150)" width="9.5744" x="30.0047" y="150.0047" /><rect fill="none" height="8.6373" stroke="black" stroke-width="0.5" transform="rotate(-7.987683296760548 30 160)" width="9.4703" x="29.5643" y="159.5643" /><rect fill="none" height="8.057" stroke="black" stroke-width="0.5" transform="rotate(8.630510145770325 30 170)" width="9.8603" x="30.4714" y="170.4714" /><rect fill="none" height="11.8519" stroke="black" stroke-width="0.5" transform="rotate(6.299817738164681 30 180)" width="10.214" x="28.8302" y="178.8302" /><rect fill="none" height="6.9801" stroke="black" stroke-width="0.5" transform="rotate(0.8831252016376115 30 190)" width="13.2089" x="29.7435" y="189.7435" /><rect fill="none" height="10.0" stroke="black" stroke-width="0.5" transform="rotate(0.0 40 0)" width="10.0" x="40.0" y="0.0" /><rect fill="none" height="9.9528" stroke="black" stroke-width="0.5" transform="rotate(-0.021018293405557786 40 10)" width="9.984" x="39.984" y="9.984" /><rect fill="none" height="9.7882" stroke="black" stroke-width="0.5" transform="rotate(0.14885637960745218 40 20)" width="9.5754" x="39.9105" y="19.9105" /><rect fill="none" height="10.0807" stroke="black" stroke-width="0.5" transform="rotate(0.38117472301859096 40 30)" width="9.7768" x="40.2065" y="30.2065" /><rect fill="none" height="9.4715" stroke="black" stroke-width="0.5" transform="rotate(-0.5729888537860643 40 40)" width="10.4323" x="39.8695" y="39.8695" /><rect fill="none" height="9.1004" stroke="black" stroke-width="0.5" transform="rotate(0.9584172895323062 40 50)" width="9.551" x="40.3998" y="50.3998" /><rect fill="none" height="10.4658" stroke="black" stroke-width="0.5" transform="rotate(-0.30120782788164246 40 60)" width="11.4419" x="40.2697" y="60.2697" /><rect fill="none" height="8.9139" stroke="black" stroke-width="0.5" transform="rotate(1.152656708271691 40 70)" width="11.0624" x="40.6246" y="70.6246" /><rect fill="none" height="9.988" stroke="black" stroke-width="0.5" transform="rotate(-2.9718239862969433 40 80)" width="10.7825" x="40.4021" y="80.4021" /><rect fill="none" height="10.1706" stroke="black" stroke-width="0.5" transform="rotate(-1.4809497107599954 40 90)" width="11.9758" x="40.7785" y="90.7785" /><rect fill="none" height="11.5791" stroke="black" stroke-width="0.5" transform="rotate(-2.164083214763557 40 100)" width="9.6532" x="39.833" y="99.833" /><rect fill="none" height="11.4404" stroke="black" stroke-width="0.5" transform="rotate(-2.449727977612261 40 110)" width="7.5977" x="39.1414" y="109.1414" /><rect fill="none" height="11.6968" stroke="black" stroke-width="0.5" transform="rotate(6.077441396068244 40 120)" width="7.3049" x="40.4958" y="120.4958" /><rect fill="none" height="13.0299" stroke="black" stroke-width="0.5" transform="rotate(-8.439372687814323 40 130)" width="11.0864" x="39.8948" y="129.8948" /><rect fill="none" height="8.6077" stroke="black" stroke-width="0.5" transform="rotate(9.144928445573232 40 140)" width="10.2435" x="41.0616" y="141.0616" /><rect fill="none" height="12.3033" stroke="black" stroke-width="0.5" transform="rotate(-0.9395535175244769 40 150)" width="8.9813" x="40.9609" y="150.9609" /><rect fill="none" height="13.9006" stroke="black" stroke-width="0.5" transform="rotate(-8.127698866551151 40 160)" width="12.1097" x="39.8773" y="159.8773" /><rect fill="none" height="7.2661" stroke="black" stroke-width="0.5" transform="rotate(-7.455811972562797 40 170)" width="7.4784" x="40.3021" y="170.3021" /><rect fill="none" height="11.4723" stroke="black" stroke-width="0.5" transform="rotate(-15.814156542590197 40 180)" width="9.0237" x="41.3868" y="181.3868" /><rect fill="none" height="10.0687" stroke="black" stroke-width="0.5" transform="rotate(3.1799079317482795 40 190)" width="12.0917" x="38.7863" y="188.7863" /><rect fill="none" height="10.0" stroke="black" stroke-width="0.5" transform="rotate(0.0 50 0)" width="10.0" x="50.0" y="0.0" /><rect fill="none" height="9.8185" stroke="black" stroke-width="0.5" transform="rotate(-0.02470610571872851 50 10)" width="9.707" x="49.9765" y="9.9765" /><rect fill="none" height="10.4952" stroke="black" stroke-width="0.5" transform="rotate(-0.011546517492862974 50 20)" width="9.5428" x="49.7646" y="19.7646" /><rect fill="none" height="10.1638" stroke="black" stroke-width="0.5" transform="rotate(0.2417089185883874 50 30)" width="10.489" x="50.3556" y="30.3556" /><rect fill="none" height="10.255" stroke="black" stroke-width="0.5" transform="rotate(0.020709551654398695 50 40)" width="8.8227" x="49.5239" y="39.5239" /><rect fill="none" height="11.3614" stroke="black" stroke-width="0.5" transform="rotate(0.009080761145756067 50 50)" width="9.2142" x="50.486" y="50.486" /><rect fill="none" height="10.0956" stroke="black" stroke-width="0.5" transform="rotate(-1.5210677990600932 50 60)" width="10.5064" x="50.4025" y="60.4025" /><rect fill="none" height="8.2218" stroke="black" stroke-width="0.5" transform="rotate(2.359546610128112 50 70)" width="10.0007" x="49.4131" y="69.4131" /><rect fill="none" height="12.3365" stroke="black" stroke-width="0.5" transform="rotate(2.819151597051466 50 80)" width="7.7691" x="50.55" y="80.55" /><rect fill="none" height="12.4412" stroke="black" stroke-width="0.5" transform="rotate(1.2974754814609284 50 90)" width="9.7576" x="49.4753" y="89.4753" /><rect fill="none" height="8.2382" stroke="black" stroke-width="0.5" transform="rotate(-2.3944579220094075 50 100)" width="10.3104" x="49.393" y="99.393" /><rect fill="none" height="6.5965" stroke="black" stroke-width="0.5" transform="rotate(4.719052064664609 50 110)" width="7.2951" x="50.4057" y="110.4057" /><rect fill="none" height="8.6793" stroke="black" stroke-width="0.5" transform="rotate(-1.0634934564665186 50 120)" width="13.0706" x="49.8964" y="119.8964" /><rect fill="none" height="13.381" stroke="black" stroke-width="0.5" transform="rotate(1.8962519396168016 50 130)" width="7.1304" x="49.9109" y="129.9109" /><rect fill="none" height="11.7524" stroke="black" stroke-width="0.5" transform="rotate(-2.7299872358972577 50 140)" width="14.2834" x="51.3898" y="141.3898" /><rect fill="none" height="12.5835" stroke="black" stroke-width="0.5" transform="rotate(5.304784987520032 50 150)" width="7.0957" x="51.4484" y="151.4484" /><rect fill="none" height="10.1222" stroke="black" stroke-width="0.5" transform="rotate(10.926076305334359 50 160)" width="13.8166" x="49.3915" y="159.3915" /><rect fill="none" height="8.2901" stroke="black" stroke-width="0.5" transform="rotate(-3.3646533337153186 50 170)" width="14.3409" x="50.3128" y="170.3128" /><rect fill="none" height="14.5154" stroke="black" stroke-width="0.5" transform="rotate(-5.932443815409608 50 180)" width="10.1676" x="48.553" y="178.553" /><rect fill="none" height="5.5062" stroke="black" stroke-width="0.5" transform="rotate(0.4479924851626354 50 190)" width="13.0747" x="49.4648" y="189.4648" /><rect fill="none" height="10.0" stroke="black" stroke-width="0.5" transform="rotate(0.0 60 0)" width="10.0" x="60.0" y="0.0" /><rect fill="none" height="10.1101" stroke="black" stroke-width="0.5" transform="rotate(-0.03195529780388919 60 10)" width="9.948" x="60.038" y="10.038" /><rect fill="none" height="9.87" stroke="black" stroke-width="0.5" transform="rotate(-0.08611471100196826 60 20)" width="9.5469" x="59.9329" y="19.9329" /><rect fill="none" height="10.8971" stroke="black" stroke-width="0.5" transform="rotate(0.09853392456019563 60 30)" width="9.2668" x="60.3721" y="30.3721" /><rect fill="none" height="9.6973" stroke="black" stroke-width="0.5" transform="rotate(-0.4692808799966757 60 40)" width="11.0575" x="59.6753" y="39.6753" /><rect fill="none" height="11.7008" stroke="black" stroke-width="0.5" transform="rotate(-0.0034689543596794215 60 50)" width="9.6578" x="59.8675" y="49.8675" /><rect fill="none" height="10.9031" stroke="black" stroke-width="0.5" transform="rotate(-1.184204843227239 60 60)" width="11.6851" x="60.7389" y="60.7389" /><rect fill="none" height="11.0712" stroke="black" stroke-width="0.5" transform="rotate(-0.963003720072755 60 70)" width="10.0124" x="59.1601" y="69.1601" /><rect fill="none" height="8.833" stroke="black" stroke-width="0.5" transform="rotate(-0.9634505852056747 60 80)" width="7.7417" x="59.772" y="79.772" /><rect fill="none" height="9.9459" stroke="black" stroke-width="0.5" transform="rotate(3.84757153181163 60 90)" width="9.2905" x="61.2372" y="91.2372" /><rect fill="none" height="6.9283" stroke="black" stroke-width="0.5" transform="rotate(-1.190367269992173 60 100)" width="11.8316" x="60.0518" y="100.0518" /><rect fill="none" height="9.4824" stroke="black" stroke-width="0.5" transform="rotate(4.143019823795811 60 110)" width="7.039" x="58.4836" y="108.4836" /><rect fill="none" height="14.2072" stroke="black" stroke-width="0.5" transform="rotate(-4.0842795957427365 60 120)" width="8.8238" x="60.1053" y="120.1053" /><rect fill="none" height="7.9967" stroke="black" stroke-width="0.5" transform="rotate(8.238343460541925 60 130)" width="13.8931" x="61.2015" y="131.2015" /><rect fill="none" height="8.8586" stroke="black" stroke-width="0.5" transform="rotate(5.5298691860853 60 140)" width="10.6816" x="59.2408" y="139.2408" /><rect fill="none" height="11.129" stroke="black" stroke-width="0.5" transform="rotate(-0.9670077142646596 60 150)" width="13.1462" x="61.5053" y="151.5053" /><rect fill="none" height="5.3426" stroke="black" stroke-width="0.5" transform="rotate(1.1437154292938942 60 160)" width="12.8984" x="57.6966" y="157.6966" /><rect fill="none" height="7.8643" stroke="black" stroke-width="0.5" transform="rotate(-10.208713459317433 60 170)" width="9.8286" x="61.8478" y="171.8478" /><rect fill="none" height="3.7783" stroke="black" stroke-width="0.5" transform="rotate(-10.69409380698595 60 180)" width="10.3156" x="60.1878" y="180.1878" /><rect fill="none" height="12.4967" stroke="black" stroke-width="0.5" transform="rotate(13.358428223395682 60 190)" width="4.7025" x="61.4043" y="191.4043" /><rect fill="none" height="10.0" stroke="black" stroke-width="0.5" transform="rotate(0.0 70 0)" width="10.0" x="70.0" y="0.0" /><rect fill="none" height="10.2684" stroke="black" stroke-width="0.5" transform="rotate(0.03988847807274416 70 10)" width="10.1757" x="70.1029" y="10.1029" /><rect fill="none" height="9.6001" stroke="black" stroke-width="0.5" transform="rotate(0.08182619920071277 70 20)" width="10.7138" x="70.137" y="20.137" /><rect fill="none" height="10.3229" stroke="black" stroke-width="0.5" transform="rotate(0.28281899897810603 70 30)" width="11.1085" x="69.9672" y="29.9672" /><rect fill="none" height="11.3136" stroke="black" stroke-width="0.5" transform="rotate(0.44755320335722537 70 40)" width="9.0885" x="70.3783" y="40.3783" /><rect fill="none" height="8.9998" stroke="black" stroke-width="0.5" transform="rotate(-0.7657589421042474 70 50)" width="9.2932" x="69.8076" y="49.8076" /><rect fill="none" height="12.5954" stroke="black" stroke-width="0.5" transform="rotate(-0.06334609988309832 70 60)" width="12.5765" x="69.8165" y="59.8165" /><rect fill="none" height="9.1209" stroke="black" stroke-width="0.5" transform="rotate(0.3206954670261045 70 70)" width="8.121" x="70.6162" y="70.6162" /><rect fill="none" height="13.3559" stroke="black" stroke-width="0.5" transform="rotate(2.9039764935104175 70 80)" width="12.4547" x="70.9418" y="80.9418" /><rect fill="none" height="10.944" stroke="black" stroke-width="0.5" transform="rotate(0.6761183801691046 70 90)" width="12.4801" x="70.0863" y="90.0863" /><rect fill="none" height="6.7094" stroke="black" stroke-width="0.5" transform="rotate(-3.933781858761808 70 100)" width="7.8421" x="70.5315" y="100.5315" /><rect fill="none" height="9.5161" stroke="black" stroke-width="0.5" transform="rotate(-4.787880379238393 70 110)" width="8.2857" x="71.8531" y="111.8531" /><rect fill="none" height="9.0937" stroke="black" stroke-width="0.5" transform="rotate(5.688484107042477 70 120)" width="7.068" x="71.1782" y="121.1782" /><rect fill="none" height="6.9278" stroke="black" stroke-width="0.5" transform="rotate(-4.157324136803428 70 130)" width="12.1817" x="71.0003" y="131.0003" /><rect fill="none" height="4.6081" stroke="black" stroke-width="0.5" transform="rotate(8.06629642220768 70 140)" width="12.2268" x="69.817" y="139.817" /><rect fill="none" height="12.4088" stroke="black" stroke-width="0.5" transform="rotate(-1.743086551190665 70 150)" width="11.9233" x="67.5229" y="147.5229" /><rect fill="none" height="16.8149" stroke="black" stroke-width="0.5" transform="rotate(-6.770207810063982 70 160)" width="14.7588" x="72.2821" y="162.2821" /><rect fill="none" height="8.8039" stroke="black" stroke-width="0.5" transform="rotate(1.3177188144748697 70 170)" width="8.2997" x="67.7208" y="167.7208" /><rect fill="none" height="12.6458" stroke="black" stroke-width="0.5" transform="rotate(3.0321328735755766 70 180)" width="3.7136" x="67.5301" y="177.5301" /><rect fill="none" height="15.3819" stroke="black" stroke-width="0.5" transform="rotate(-13.735239521899363 70 190)" width="9.3638" x="68.7635" y="188.7635" /><rect fill="none" height="10.0" stroke="black" stroke-width="0.5" transform="rotate(-0.0 80 0)" width="10.0" x="80.0" y="0.0" /><rect fill="none" height="10.127" stroke="black" stroke-width="0.5" transform="rotate(0.043668973096518994 80 10)" width="9.8104" x="80.1704" y="10.1704" /><rect fill="none" height="9.9544" stroke="black" stroke-width="0.5" transform="rotate(-0.0508072671047858 80 20)" width="9.7525" x="79.8566" y="19.8566" /><rect fill="none" height="9.9185" stroke="black" stroke-width="0.5" transform="rotate(0.2999353217942329 80 30)" width="11.1068" x="80.0476" y="30.0476" /><rect fill="none" height="9.2575" stroke="black" stroke-width="0.5" transform="rotate(-0.3812440894281302 80 40)" width="9.6232" x="80.4455" y="40.4455" /><rect fill="none" height="11.9034" stroke="black" stroke-width="0.5" transform="rotate(0.6870755510936538 80 50)" width="8.0676" x="79.5932" y="49.5932" /><rect fill="none" height="7.7017" stroke="black" stroke-width="0.5" transform="rotate(-0.7766988731330156 80 60)" width="9.6961" x="79.6356" y="59.6356" /><rect fill="none" height="7.9362" stroke="black" stroke-width="0.5" transform="rotate(2.1878322040522056 80 70)" width="9.5956" x="80.726" y="70.726" /><rect fill="none" height="13.5292" stroke="black" stroke-width="0.5" transform="rotate(0.963460307554773 80 80)" width="11.2111" x="79.846" y="79.846" /><rect fill="none" height="6.9014" stroke="black" stroke-width="0.5" transform="rotate(-3.8709655746805844 80 90)" width="8.9087" x="78.6309" y="88.6309" /><rect fill="none" height="8.1306" stroke="black" stroke-width="0.5" transform="rotate(0.4530850554787847 80 100)" width="10.9263" x="79.3214" y="99.3214" /><rect fill="none" height="13.9997" stroke="black" stroke-width="0.5" transform="rotate(2.5667603778372565 80 110)" width="13.2527" x="78.8241" y="108.8241" /><rect fill="none" height="11.4295" stroke="black" stroke-width="0.5" transform="rotate(1.3762932025981343 80 120)" width="8.5389" x="80.8755" y="120.8755" /><rect fill="none" height="6.1849" stroke="black" stroke-width="0.5" transform="rotate(-3.5226577465217686 80 130)" width="8.5348" x="78.9449" y="128.9449" /><rect fill="none" height="7.1522" stroke="black" stroke-width="0.5" transform="rotate(7.676661320534166 80 140)" width="15.1362" x="78.1693" y="138.1693" /><rect fill="none" height="12.861" stroke="black" stroke-width="0.5" transform="rotate(9.474998680081622 80 150)" width="4.2458" x="79.7521" y="149.7521" /><rect fill="none" height="11.6779" stroke="black" stroke-width="0.5" transform="rotate(-1.076307558944538 80 160)" width="12.4083" x="78.2167" y="158.2167" /><rect fill="none" height="11.3976" stroke="black" stroke-width="0.5" transform="rotate(-12.727430587615236 80 170)" width="3.8309" x="76.6732" y="166.6732" /><rect fill="none" height="10.3859" stroke="black" stroke-width="0.5" transform="rotate(3.2012340605125558 80 180)" width="3.6667" x="83.2535" y="183.2535" /><rect fill="none" height="5.986" stroke="black" stroke-width="0.5" transform="rotate(16.39055578690338 80 190)" width="2.5492" x="83.1087" y="193.1087" /><rect fill="none" height="10.0" stroke="black" stroke-width="0.5" transform="rotate(-0.0 90 0)" width="10.0" x="90.0" y="0.0" /><rect fill="none" height="10.1696" stroke="black" stroke-width="0.5" transform="rotate(-0.04419199665945932 90 10)" width="10.0615" x="90.0745" y="10.0745" /><rect fill="none" height="10.1445" stroke="black" stroke-width="0.5" transform="rotate(-0.16208504660204337 90 20)" width="10.5991" x="89.9676" y="19.9676" /><rect fill="none" height="8.5732" stroke="black" stroke-width="0.5" transform="rotate(0.012769411724788881 90 30)" width="9.9236" x="90.1714" y="30.1714" /><rect fill="none" height="8.3743" stroke="black" stroke-width="0.5" transform="rotate(-0.1448607458186313 90 40)" width="10.0215" x="90.7936" y="40.7936" /><rect fill="none" height="7.8861" stroke="black" stroke-width="0.5" transform="rotate(-0.7780163881715296 90 50)" width="8.3816" x="89.1214" y="49.1214" /><rect fill="none" height="8.4306" stroke="black" stroke-width="0.5" transform="rotate(0.39090560317966355 90 60)" width="9.281" x="89.4002" y="59.4002" /><rect fill="none" height="11.4617" stroke="black" stroke-width="0.5" transform="rotate(0.13200625150931472 90 70)" width="11.3227" x="91.1985" y="71.1985" /><rect fill="none" height="7.8202" stroke="black" stroke-width="0.5" transform="rotate(-2.3499374403011934 90 80)" width="8.6724" x="90.6868" y="80.6868" /><rect fill="none" height="7.8364" stroke="black" stroke-width="0.5" transform="rotate(-0.9697905387698871 90 90)" width="6.7698" x="88.1092" y="88.1092" /><rect fill="none" height="9.9371" stroke="black" stroke-width="0.5" transform="rotate(-3.1829377927886124 90 100)" width="7.1971" x="92.1863" y="102.1863" /><rect fill="none" height="8.8092" stroke="black" stroke-width="0.5" transform="rotate(-5.881080321138528 90 110)" width="5.0359" x="87.5483" y="107.5483" /><rect fill="none" height="8.3956" stroke="black" stroke-width="0.5" transform="rotate(-3.20079881039006 90 120)" width="12.0184" x="92.4251" y="122.4251" /><rect fill="none" height="10.3852" stroke="black" stroke-width="0.5" transform="rotate(-4.382703620703034 90 130)" width="10.9926" x="88.4261" y="128.4261" /><rect fill="none" height="10.303" stroke="black" stroke-width="0.5" transform="rotate(3.1894947429178107 90 140)" width="11.4235" x="90.2504" y="140.2504" /><rect fill="none" height="14.2943" stroke="black" stroke-width="0.5" transform="rotate(2.8422705329867983 90 150)" width="5.903" x="89.9246" y="149.9246" /><rect fill="none" height="16.1283" stroke="black" stroke-width="0.5" transform="rotate(10.057837979029722 90 160)" width="8.4463" x="89.491" y="159.491" /><rect fill="none" height="12.6649" stroke="black" stroke-width="0.5" transform="rotate(5.094677821153397 90 170)" width="18.4564" x="90.7867" y="170.7867" /><rect fill="none" height="16.2602" stroke="black" stroke-width="0.5" transform="rotate(-7.842918333693531 90 180)" width="5.1355" x="88.2267" y="178.2267" /><rect fill="none" height="13.7258" stroke="black" stroke-width="0.5" transform="rotate(-5.316223131863595 90 190)" width="12.0604" x="89.5135" y="189.5135" /><rect fill="none" height="10.0" stroke="black" stroke-width="0.5" transform="rotate(-0.0 100 0)" width="10.0" x="100.0" y="0.0" /><rect fill="none" height="9.5317" stroke="black" stroke-width="0.5" transform="rotate(-0.02822703545447196 100 10)" width="9.8742" x="100.2248" y="10.2248" /><rect fill="none" height="9.9314" stroke="black" stroke-width="0.5" transform="rotate(-0.14795629707044294 100 20)" width="8.7928" x="99.7202" y="19.7202" /><rect fill="none" height="11.7175" stroke="black" stroke-width="0.5" transform="rotate(-0.2213493160089266 100 30)" width="9.644" x="100.1299" y="30.1299" /><rect fill="none" height="8.3614" stroke="black" stroke-width="0.5" transform="rotate(0.32253162977276356 100 40)" width="11.2501" x="99.5144" y="39.5144" /><rect fill="none" height="7.6561" stroke="black" stroke-width="0.5" transform="rotate(0.11018958621668822 100 50)" width="8.0104" x="99.59" y="49.59" /><rect fill="none" height="8.7311" stroke="black" stroke-width="0.5" transform="rotate(1.5143609200228396 100 60)" width="10.734" x="98.5708" y="58.5708" /><rect fill="none" height="5.882" stroke="black" stroke-width="0.5" transform="rotate(-1.1983846404777427 100 70)" width="10.3779" x="98.4805" y="68.4805" /><rect fill="none" height="5.9005" stroke="black" stroke-width="0.5" transform="rotate(2.7854199573631924 100 80)" width="14.8121" x="98.8994" y="78.8994" /><rect fill="none" height="5.4263" stroke="black" stroke-width="0.5" transform="rotate(2.590550177934039 100 90)" width="7.3687" x="101.0617" y="91.0617" /><rect fill="none" height="7.9035" stroke="black" stroke-width="0.5" transform="rotate(-3.632074548533313 100 100)" width="4.4591" x="100.3073" y="100.3073" /><rect fill="none" height="8.7197" stroke="black" stroke-width="0.5" transform="rotate(5.664707623337992 100 110)" width="12.8275" x="102.5744" y="112.5744" /><rect fill="none" height="13.7675" stroke="black" stroke-width="0.5" transform="rotate(2.1211855426962654 100 120)" width="3.5646" x="98.32" y="118.32" /><rect fill="none" height="13.6651" stroke="black" stroke-width="0.5" transform="rotate(1.4746851074961238 100 130)" width="7.6477" x="99.5034" y="129.5034" /><rect fill="none" height="9.8502" stroke="black" stroke-width="0.5" transform="rotate(1.373194689948805 100 140)" width="14.7507" x="96.6092" y="136.6092" /><rect fill="none" height="17.3707" stroke="black" stroke-width="0.5" transform="rotate(-3.9217017972807064 100 150)" width="14.7658" x="97.8747" y="147.8747" /><rect fill="none" height="18.2911" stroke="black" stroke-width="0.5" transform="rotate(7.313535904267889 100 160)" width="2.3518" x="98.0278" y="158.0278" /><rect fill="none" height="19.1505" stroke="black" stroke-width="0.5" transform="rotate(-4.279372805177057 100 170)" width="11.6393" x="96.3077" y="166.3077" /><rect fill="none" height="0.9376" stroke="black" stroke-width="0.5" transform="rotate(-9.84135127998229 100 180)" width="6.3363" x="99.8051" y="179.8051" /><rect fill="none" height="17.9619" stroke="black" stroke-width="0.5" transform="rotate(-8.602147823587 100 190)" width="7.3009" x="101.6532" y="191.6532" /><rect fill="none" height="10.0" stroke="black" stroke-width="0.5" transform="rotate(-0.0 110 0)" width="10.0" x="110.0" y="0.0" /><rect fill="none" height="9.9138" stroke="black" stroke-width="0.5" transform="rotate(-0.0009962147729507763 110 10)" width="9.5669" x="109.9132" y="9.9132" /><rect fill="none" height="8.9653" stroke="black" stroke-width="0.5" transform="rotate(0.11883413660145617 110 20)" width="10.7099" x="109.9314" y="19.9314" /><rect fill="none" height="9.9545" stroke="black" stroke-width="0.5" transform="rotate(0.13501972381636002 110 30)" width="10.333" x="109.5615" y="29.5615" /><rect fill="none" height="8.451" stroke="black" stroke-width="0.5" transform="rotate(0.08024931981418337 110 40)" width="11.1908" x="109.4512" y="39.4512" /><rect fill="none" height="7.3901" stroke="black" stroke-width="0.5" transform="rotate(-0.2755891405963076 110 50)" width="12.1726" x="110.2119" y="50.2119" /><rect fill="none" height="9.9368" stroke="black" stroke-width="0.5" transform="rotate(1.517993764547337 110 60)" width="13.8142" x="111.1249" y="61.1249" /><rect fill="none" height="9.9892" stroke="black" stroke-width="0.5" transform="rotate(1.0048596450039178 110 70)" width="6.7893" x="111.0955" y="71.0955" /><rect fill="none" height="5.7857" stroke="black" stroke-width="0.5" transform="rotate(0.9179775309330829 110 80)" width="12.581" x="108.8284" y="78.8284" /><rect fill="none" height="13.5457" stroke="black" stroke-width="0.5" transform="rotate(2.2472990289972534 110 90)" width="14.9747" x="110.4923" y="90.4923" /><rect fill="none" height="5.8538" stroke="black" stroke-width="0.5" transform="rotate(3.981131879388856 110 100)" width="15.6955" x="108.3501" y="98.3501" /><rect fill="none" height="14.3035" stroke="black" stroke-width="0.5" transform="rotate(5.967518839947418 110 110)" width="11.5246" x="110.8562" y="110.8562" /><rect fill="none" height="9.7011" stroke="black" stroke-width="0.5" transform="rotate(-6.510309429238825 110 120)" width="7.238" x="108.7753" y="118.7753" /><rect fill="none" height="3.1107" stroke="black" stroke-width="0.5" transform="rotate(3.9505835783414014 110 130)" width="13.2168" x="107.3059" y="127.3059" /><rect fill="none" height="16.1012" stroke="black" stroke-width="0.5" transform="rotate(-9.159565396115761 110 140)" width="15.9486" x="113.7798" y="143.7798" /><rect fill="none" height="10.7508" stroke="black" stroke-width="0.5" transform="rotate(7.464152013921177 110 150)" width="10.6594" x="113.9527" y="153.9527" /><rect fill="none" height="11.3261" stroke="black" stroke-width="0.5" transform="rotate(3.932087859147856 110 160)" width="0.7094" x="111.3943" y="161.3943" /><rect fill="none" height="8.6274" stroke="black" stroke-width="0.5" transform="rotate(8.543607959012984 110 170)" width="18.3974" x="105.5194" y="165.5194" /><rect fill="none" height="2.6842" stroke="black" stroke-width="0.5" transform="rotate(4.297040087032122 110 180)" width="10.9378" x="107.2018" y="177.2018" /><rect fill="none" height="14.9163" stroke="black" stroke-width="0.5" transform="rotate(-16.614019253021986 110 190)" width="7.6836" x="114.561" y="194.561" /><rect fill="none" height="10.0" stroke="black" stroke-width="0.5" transform="rotate(0.0 120 0)" width="10.0" x="120.0" y="0.0" /><rect fill="none" height="10.4711" stroke="black" stroke-width="0.5" transform="rotate(-0.016969828806925946 120 10)" width="10.4631" x="119.7107" y="9.7107" /><rect fill="none" height="8.8172" stroke="black" stroke-width="0.5" transform="rotate(0.14318478684360972 120 20)" width="8.9551" x="119.6492" y="19.6492" /><rect fill="none" height="8.1767" stroke="black" stroke-width="0.5" transform="rotate(0.38745029998464237 120 30)" width="9.2227" x="119.5766" y="29.5766" /><rect fill="none" height="10.8636" stroke="black" stroke-width="0.5" transform="rotate(0.7430596353939096 120 40)" width="7.6546" x="118.8146" y="38.8146" /><rect fill="none" height="6.8154" stroke="black" stroke-width="0.5" transform="rotate(-0.6274167640664347 120 50)" width="13.063" x="118.7961" y="48.7961" /><rect fill="none" height="9.6441" stroke="black" stroke-width="0.5" transform="rotate(-1.5096454142518823 120 60)" width="10.3367" x="118.6108" y="58.6108" /><rect fill="none" height="10.4899" stroke="black" stroke-width="0.5" transform="rotate(0.7868861508730964 120 70)" width="12.036" x="120.274" y="70.274" /><rect fill="none" height="5.5449" stroke="black" stroke-width="0.5" transform="rotate(3.112383022634595 120 80)" width="11.6496" x="120.3497" y="80.3497" /><rect fill="none" height="6.8869" stroke="black" stroke-width="0.5" transform="rotate(2.243880542347084 120 90)" width="4.988" x="121.3839" y="91.3839" /><rect fill="none" height="8.2496" stroke="black" stroke-width="0.5" transform="rotate(-3.0581275048733483 120 100)" width="3.3485" x="119.0312" y="99.0312" /><rect fill="none" height="2.3237" stroke="black" stroke-width="0.5" transform="rotate(3.8599913545922133 120 110)" width="5.7372" x="119.912" y="109.912" /><rect fill="none" height="13.4215" stroke="black" stroke-width="0.5" transform="rotate(2.5315856907437113 120 120)" width="16.6524" x="121.8243" y="121.8243" /><rect fill="none" height="10.8952" stroke="black" stroke-width="0.5" transform="rotate(0.6707944708058116 120 130)" width="18.4773" x="123.4066" y="133.4066" /><rect fill="none" height="2.2001" stroke="black" stroke-width="0.5" transform="rotate(0.31393017978810694 120 140)" width="7.0934" x="123.6469" y="143.6469" /><rect fill="none" height="14.4908" stroke="black" stroke-width="0.5" transform="rotate(-6.845880987499034 120 150)" width="5.2329" x="120.9121" y="150.9121" /><rect fill="none" height="-0.584" stroke="black" stroke-width="0.5" transform="rotate(-0.45729824878139597 120 160)" width="-0.1429" x="124.6422" y="164.6422" /><rect fill="none" height="-1.0683" stroke="black" stroke-width="0.5" transform="rotate(11.688775594030947 120 170)" width="19.8431" x="119.2306" y="169.2306" /><rect fill="none" height="5.9517" stroke="black" stroke-width="0.5" transform="rotate(7.9354700243154666 120 180)" width="-1.7213" x="117.0269" y="177.0269" /><rect fill="none" height="7.7644" stroke="black" stroke-width="0.5" transform="rotate(-6.683083913515072 120 190)" width="22.4926" x="123.212" y="193.212" /><rect fill="none" height="10.0" stroke="black" stroke-width="0.5" transform="rotate(0.0 130 0)" width="10.0" x="130.0" y="0.0" /><rect fill="none" height="10.4554" stroke="black" stroke-width="0.5" transform="rotate(-0.00014639331872676742 130 10)" width="9.388" x="129.7495" y="9.7495" /><rect fill="none" height="8.8632" stroke="black" stroke-width="0.5" transform="rotate(-0.03394752376248862 130 20)" width="10.6552" x="130.0983" y="20.0983" /><rect fill="none" height="11.0639" stroke="black" stroke-width="0.5" transform="rotate(-0.4485571686873828 130 30)" width="9.3023" x="130.0469" y="30.0469" /><rect fill="none" height="12.7912" stroke="black" stroke-width="0.5" transform="rotate(-0.6083837638598023 130 40)" width="7.6937" x="130.4813" y="40.4813" /><rect fill="none" height="11.62" stroke="black" stroke-width="0.5" transform="rotate(-0.1865428495703153 130 50)" width="12.4627" x="131.207" y="51.207" /><rect fill="none" height="10.3118" stroke="black" stroke-width="0.5" transform="rotate(1.3195098670842653 130 60)" width="10.343" x="128.8735" y="58.8735" /><rect fill="none" height="5.8262" stroke="black" stroke-width="0.5" transform="rotate(-1.5653663770551813 130 70)" width="9.768" x="129.6493" y="69.6493" /><rect fill="none" height="11.8111" stroke="black" stroke-width="0.5" transform="rotate(-1.2721645730988798 130 80)" width="9.5056" x="130.7259" y="80.7259" /><rect fill="none" height="17.1898" stroke="black" stroke-width="0.5" transform="rotate(-2.6283286467789884 130 90)" width="9.9254" x="127.4366" y="87.4366" /><rect fill="none" height="5.6104" stroke="black" stroke-width="0.5" transform="rotate(2.187854381028301 130 100)" width="12.9844" x="127.7104" y="97.7104" /><rect fill="none" height="10.0566" stroke="black" stroke-width="0.5" transform="rotate(-2.3875937465104755 130 110)" width="15.6872" x="128.9392" y="108.9392" /><rect fill="none" height="14.9058" stroke="black" stroke-width="0.5" transform="rotate(6.572351359545766 130 120)" width="19.5943" x="132.5961" y="122.5961" /><rect fill="none" height="1.9962" stroke="black" stroke-width="0.5" transform="rotate(-5.211383027126345 130 130)" width="6.5728" x="133.7973" y="133.7973" /><rect fill="none" height="12.3054" stroke="black" stroke-width="0.5" transform="rotate(-1.6790482423377882 130 140)" width="6.1115" x="127.5556" y="137.5556" /><rect fill="none" height="15.9494" stroke="black" stroke-width="0.5" transform="rotate(5.428650601221283 130 150)" width="7.6162" x="127.3663" y="147.3663" /><rect fill="none" height="11.5641" stroke="black" stroke-width="0.5" transform="rotate(-10.424474751781924 130 160)" width="4.1063" x="126.9686" y="156.9686" /><rect fill="none" height="9.1017" stroke="black" stroke-width="0.5" transform="rotate(11.695517759601165 130 170)" width="16.4662" x="130.7101" y="170.7101" /><rect fill="none" height="14.341" stroke="black" stroke-width="0.5" transform="rotate(-12.089981003416955 130 180)" width="-1.1137" x="130.9144" y="180.9144" /><rect fill="none" height="22.868" stroke="black" stroke-width="0.5" transform="rotate(-5.213914812117894 130 190)" width="21.6474" x="133.1175" y="193.1175" /><rect fill="none" height="10.0" stroke="black" stroke-width="0.5" transform="rotate(0.0 140 0)" width="10.0" x="140.0" y="0.0" /><rect fill="none" height="9.9582" stroke="black" stroke-width="0.5" transform="rotate(0.02596594162244794 140 10)" width="9.7713" x="140.1617" y="10.1617" /><rect fill="none" height="9.777" stroke="black" stroke-width="0.5" transform="rotate(0.14453098141401535 140 20)" width="10.9949" x="139.7429" y="19.7429" /><rect fill="none" height="9.4484" stroke="black" stroke-width="0.5" transform="rotate(0.4235464343273798 140 30)" width="8.5466" x="140.0861" y="30.0861" /><rect fill="none" height="8.0653" stroke="black" stroke-width="0.5" transform="rotate(-0.22947268714931662 140 40)" width="7.293" x="139.3733" y="39.3733" /><rect fill="none" height="12.3932" stroke="black" stroke-width="0.5" transform="rotate(-0.7190745153158246 140 50)" width="13.4332" x="141.0188" y="51.0188" /><rect fill="none" height="7.6392" stroke="black" stroke-width="0.5" transform="rotate(-0.3511486477649911 140 60)" width="12.0611" x="141.0315" y="61.0315" /><rect fill="none" height="8.0301" stroke="black" stroke-width="0.5" transform="rotate(-1.0540447848990655 140 70)" width="13.6636" x="141.418" y="71.418" /><rect fill="none" height="8.4006" stroke="black" stroke-width="0.5" transform="rotate(-1.5090554781144554 140 80)" width="3.9607" x="140.8535" y="80.8535" /><rect fill="none" height="3.8191" stroke="black" stroke-width="0.5" transform="rotate(-1.7181341403428518 140 90)" width="11.4029" x="141.6472" y="91.6472" /><rect fill="none" height="6.7536" stroke="black" stroke-width="0.5" transform="rotate(-2.2370311558136446 140 100)" width="15.8883" x="138.3314" y="98.3314" /><rect fill="none" height="12.3386" stroke="black" stroke-width="0.5" transform="rotate(-4.884445679936837 140 110)" width="10.1369" x="142.3806" y="112.3806" /><rect fill="none" height="0.5536" stroke="black" stroke-width="0.5" transform="rotate(-6.920957729455603 140 120)" width="5.886" x="135.9174" y="115.9174" /><rect fill="none" height="5.4802" stroke="black" stroke-width="0.5" transform="rotate(-2.7556677207232565 140 130)" width="16.8696" x="144.08" y="134.08" /><rect fill="none" height="8.7462" stroke="black" stroke-width="0.5" transform="rotate(-3.410271924198266 140 140)" width="12.4723" x="135.247" y="135.247" /><rect fill="none" height="7.7943" stroke="black" stroke-width="0.5" transform="rotate(-7.158708405345824 140 150)" width="6.0498" x="138.0381" y="148.0381" /><rect fill="none" height="4.1296" stroke="black" stroke-width="0.5" transform="rotate(-5.5233682771256385 140 160)" width="5.2197" x="140.8053" y="160.8053" /><rect fill="none" height="13.5807" stroke="black" stroke-width="0.5" transform="rotate(-13.892242583759645 140 170)" width="-4.5271" x="141.5209" y="171.5209" /><rect fill="none" height="15.725" stroke="black" stroke-width="0.5" transform="rotate(1.0714245853619848 140 180)" width="21.3075" x="134.4459" y="174.4459" /><rect fill="none" height="21.5891" stroke="black" stroke-width="0.5" transform="rotate(-8.715225161967997 140 190)" width="25.2358" x="140.297" y="190.297" /><rect fill="none" height="10.0" stroke="black" stroke-width="0.5" transform="rotate(0.0 150 0)" width="10.0" x="150.0" y="0.0" /><rect fill="none" height="10.0771" stroke="black" stroke-width="0.5" transform="rotate(0.015659219039950035 150 10)" width="9.1992" x="149.9366" y="9.9366" /><rect fill="none" height="9.7393" stroke="black" stroke-width="0.5" transform="rotate(-0.0815364571544754 150 20)" width="10.5144" x="150.7466" y="20.7466" /><rect fill="none" height="10.2881" stroke="black" stroke-width="0.5" transform="rotate(0.27478111529086335 150 30)" width="8.6429" x="149.3818" y="29.3818" /><rect fill="none" height="13.234" stroke="black" stroke-width="0.5" transform="rotate(0.5139147316862582 150 40)" width="6.7291" x="148.5226" y="38.5226" /><rect fill="none" height="7.3577" stroke="black" stroke-width="0.5" transform="rotate(-0.6783199385596295 150 50)" width="7.2013" x="148.2088" y="48.2088" /><rect fill="none" height="9.6974" stroke="black" stroke-width="0.5" transform="rotate(-1.2714181428779838 150 60)" width="6.6396" x="148.4792" y="58.4792" /><rect fill="none" height="15.8498" stroke="black" stroke-width="0.5" transform="rotate(-0.7635159328297633 150 70)" width="10.6254" x="149.3186" y="69.3186" /><rect fill="none" height="10.0556" stroke="black" stroke-width="0.5" transform="rotate(3.1742308041716543 150 80)" width="12.9166" x="148.5466" y="78.5466" /><rect fill="none" height="17.896" stroke="black" stroke-width="0.5" transform="rotate(-0.1118848884784351 150 90)" width="9.83" x="151.6607" y="91.6607" /><rect fill="none" height="18.156" stroke="black" stroke-width="0.5" transform="rotate(0.2579816691864656 150 100)" width="14.8574" x="150.232" y="100.232" /><rect fill="none" height="9.6915" stroke="black" stroke-width="0.5" transform="rotate(-4.2886274627643735 150 110)" width="0.2304" x="152.1072" y="112.1072" /><rect fill="none" height="21.0545" stroke="black" stroke-width="0.5" transform="rotate(4.1318226433430265 150 120)" width="-0.2343" x="153.0439" y="123.0439" /><rect fill="none" height="21.9162" stroke="black" stroke-width="0.5" transform="rotate(0.0847827018500783 150 130)" width="-1.5836" x="147.6641" y="127.6641" /><rect fill="none" height="19.7009" stroke="black" stroke-width="0.5" transform="rotate(0.6655064384204538 150 140)" width="12.3001" x="150.7774" y="140.7774" /><rect fill="none" height="-0.1213" stroke="black" stroke-width="0.5" transform="rotate(-6.693767334009058 150 150)" width="-3.0221" x="151.5934" y="151.5934" /><rect fill="none" height="7.7342" stroke="black" stroke-width="0.5" transform="rotate(-4.026128170896638 150 160)" width="4.7549" x="146.4812" y="156.4812" /><rect fill="none" height="2.8544" stroke="black" stroke-width="0.5" transform="rotate(0.23177558139018664 150 170)" width="4.5168" x="148.7752" y="168.7752" /><rect fill="none" height="-1.9105" stroke="black" stroke-width="0.5" transform="rotate(-7.529197485404197 150 180)" width="-1.7978" x="156.6858" y="186.6858" /><rect fill="none" height="18.788" stroke="black" stroke-width="0.5" transform="rotate(17.655021561770997 150 190)" width="15.4277" x="151.1242" y="191.1242" /><rect fill="none" height="10.0" stroke="black" stroke-width="0.5" transform="rotate(-0.0 160 0)" width="10.0" x="160.0" y="0.0" /><rect fill="none" height="10.9145" stroke="black" stroke-width="0.5" transform="rotate(0.03688080116573285 160 10)" width="10.8649" x="160.3967" y="10.3967" /><rect fill="none" height="11.3098" stroke="black" stroke-width="0.5" transform="rotate(-0.19985814047286882 160 20)" width="8.5847" x="160.4443" y="20.4443" /><rect fill="none" height="9.9262" stroke="black" stroke-width="0.5" transform="rotate(0.115690675607935 160 30)" width="11.785" x="160.2034" y="30.2034" /><rect fill="none" height="8.5963" stroke="black" stroke-width="0.5" transform="rotate(-0.09296183048582432 160 40)" width="9.5126" x="159.19" y="39.19" /><rect fill="none" height="7.1402" stroke="black" stroke-width="0.5" transform="rotate(-0.012374505421297588 160 50)" width="10.6456" x="161.1583" y="51.1583" /><rect fill="none" height="13.4669" stroke="black" stroke-width="0.5" transform="rotate(1.2514045036079238 160 60)" width="5.3619" x="160.6923" y="60.6923" /><rect fill="none" height="15.1591" stroke="black" stroke-width="0.5" transform="rotate(1.4568704565210688 160 70)" width="8.6285" x="160.8959" y="70.8959" /><rect fill="none" height="16.4286" stroke="black" stroke-width="0.5" transform="rotate(-0.7640516806469208 160 80)" width="12.6323" x="161.4526" y="81.4526" /><rect fill="none" height="6.7185" stroke="black" stroke-width="0.5" transform="rotate(3.8461168229510805 160 90)" width="9.4622" x="159.3133" y="89.3133" /><rect fill="none" height="18.3607" stroke="black" stroke-width="0.5" transform="rotate(2.4160925343130257 160 100)" width="1.7543" x="161.4612" y="101.4612" /><rect fill="none" height="2.5932" stroke="black" stroke-width="0.5" transform="rotate(-2.638491034977966 160 110)" width="1.9963" x="162.8763" y="112.8763" /><rect fill="none" height="14.7442" stroke="black" stroke-width="0.5" transform="rotate(0.5445046184859269 160 120)" width="1.591" x="161.6169" y="121.6169" /><rect fill="none" height="3.7156" stroke="black" stroke-width="0.5" transform="rotate(6.418012182397663 160 130)" width="19.0599" x="158.7543" y="128.7543" /><rect fill="none" height="4.3152" stroke="black" stroke-width="0.5" transform="rotate(1.5596113245015633 160 140)" width="10.1184" x="159.8006" y="139.8006" /><rect fill="none" height="11.4542" stroke="black" stroke-width="0.5" transform="rotate(5.928717929583856 160 150)" width="16.0686" x="155.609" y="145.609" /><rect fill="none" height="1.9564" stroke="black" stroke-width="0.5" transform="rotate(7.868964239305177 160 160)" width="5.5446" x="157.0353" y="157.0353" /><rect fill="none" height="-1.9772" stroke="black" stroke-width="0.5" transform="rotate(-8.129037654471755 160 170)" width="18.8551" x="156.4941" y="166.4941" /><rect fill="none" height="0.5964" stroke="black" stroke-width="0.5" transform="rotate(11.048416762216059 160 180)" width="-5.2225" x="153.5996" y="173.5996" /><rect fill="none" height="-7.5064" stroke="black" stroke-width="0.5" transform="rotate(-6.564998021225923 160 190)" width="23.8404" x="161.3927" y="191.3927" /><rect fill="none" height="10.0" stroke="black" stroke-width="0.5" transform="rotate(0.0 170 0)" width="10.0" x="170.0" y="0.0" /><rect fill="none" height="9.8164" stroke="black" stroke-width="0.5" transform="rotate(-0.010915462783972185 170 10)" width="9.0499" x="169.7452" y="9.7452" /><rect fill="none" height="11.5252" stroke="black" stroke-width="0.5" transform="rotate(-0.14099496384365723 170 20)" width="10.6407" x="170.4355" y="20.4355" /><rect fill="none" height="10.974" stroke="black" stroke-width="0.5" transform="rotate(-0.4136206678772309 170 30)" width="7.2652" x="170.2213" y="30.2213" /><rect fill="none" height="8.7112" stroke="black" stroke-width="0.5" transform="rotate(-0.07653956860968628 170 40)" width="10.2432" x="171.3693" y="41.3693" /><rect fill="none" height="9.7796" stroke="black" stroke-width="0.5" transform="rotate(-0.7832588781213099 170 50)" width="10.2074" x="170.074" y="50.074" /><rect fill="none" height="6.9102" stroke="black" stroke-width="0.5" transform="rotate(-1.5701429769963382 170 60)" width="5.6142" x="167.5202" y="57.5202" /><rect fill="none" height="9.3362" stroke="black" stroke-width="0.5" transform="rotate(1.3686556352029573 170 70)" width="13.6546" x="170.1204" y="70.1204" /><rect fill="none" height="15.2198" stroke="black" stroke-width="0.5" transform="rotate(-1.3737098135711556 170 80)" width="10.59" x="171.475" y="81.475" /><rect fill="none" height="14.9853" stroke="black" stroke-width="0.5" transform="rotate(-1.1566678836879636 170 90)" width="15.912" x="170.9531" y="90.9531" /><rect fill="none" height="13.3906" stroke="black" stroke-width="0.5" transform="rotate(0.22278501809545714 170 100)" width="10.4628" x="171.0792" y="101.0792" /><rect fill="none" height="19.6039" stroke="black" stroke-width="0.5" transform="rotate(2.411115092943549 170 110)" width="3.1029" x="166.4305" y="106.4305" /><rect fill="none" height="0.4511" stroke="black" stroke-width="0.5" transform="rotate(-2.714273824805931 170 120)" width="5.5877" x="169.5476" y="119.5476" /><rect fill="none" height="16.8942" stroke="black" stroke-width="0.5" transform="rotate(4.706451221612664 170 130)" width="15.3668" x="172.2941" y="132.2941" /><rect fill="none" height="-3.4057" stroke="black" stroke-width="0.5" transform="rotate(7.729915744744884 170 140)" width="-0.0872" x="168.1361" y="138.1361" /><rect fill="none" height="4.2263" stroke="black" stroke-width="0.5" transform="rotate(8.928739698405158 170 150)" width="-3.2178" x="172.8168" y="152.8168" /><rect fill="none" height="1.6975" stroke="black" stroke-width="0.5" transform="rotate(-5.571490005793589 170 160)" width="16.413" x="172.9184" y="162.9184" /><rect fill="none" height="12.0862" stroke="black" stroke-width="0.5" transform="rotate(-9.328458818587603 170 170)" width="5.9639" x="163.3565" y="163.3565" /><rect fill="none" height="-3.9462" stroke="black" stroke-width="0.5" transform="rotate(-12.074828428412328 170 180)" width="24.5522" x="164.2252" y="174.2252" /><rect fill="none" height="-0.1883" stroke="black" stroke-width="0.5" transform="rotate(13.03401629348034 170 190)" width="21.3134" x="165.0952" y="185.0952" /><rect fill="none" height="10.0" stroke="black" stroke-width="0.5" transform="rotate(0.0 180 0)" width="10.0" x="180.0" y="0.0" /><rect fill="none" height="10.4648" stroke="black" stroke-width="0.5" transform="rotate(-0.005508101771361329 180 10)" width="8.929" x="179.7337" y="9.7337" /><rect fill="none" height="11.5527" stroke="black" stroke-width="0.5" transform="rotate(0.18899437661471138 180 20)" width="10.3711" x="180.7355" y="20.7355" /><rect fill="none" height="12.7282" stroke="black" stroke-width="0.5" transform="rotate(0.4107160465281595 180 30)" width="12.2772" x="180.7106" y="30.7106" /><rect fill="none" height="13.7071" stroke="black" stroke-width="0.5" transform="rotate(-0.6220309002231877 180 40)" width="10.095" x="180.5217" y="40.5217" /><rect fill="none" height="15.0827" stroke="black" stroke-width="0.5" transform="rotate(0.24919295059552704 180 50)" width="9.3829" x="177.8327" y="47.8327" /><rect fill="none" height="14.3949" stroke="black" stroke-width="0.5" transform="rotate(-0.14305717911398158 180 60)" width="13.2645" x="180.849" y="60.849" /><rect fill="none" height="3.4929" stroke="black" stroke-width="0.5" transform="rotate(2.264991231776301 180 70)" width="11.2021" x="177.1421" y="67.1421" /><rect fill="none" height="2.0793" stroke="black" stroke-width="0.5" transform="rotate(0.2752233236497574 180 80)" width="12.2088" x="180.0852" y="80.0852" /><rect fill="none" height="0.7763" stroke="black" stroke-width="0.5" transform="rotate(-3.2543452125421153 180 90)" width="18.3353" x="183.0827" y="93.0827" /><rect fill="none" height="-0.0759" stroke="black" stroke-width="0.5" transform="rotate(-1.5910759115515283 180 100)" width="14.3955" x="183.4623" y="103.4623" /><rect fill="none" height="4.8495" stroke="black" stroke-width="0.5" transform="rotate(-2.354641054872564 180 110)" width="11.1706" x="177.4381" y="107.4381" /><rect fill="none" height="8.5362" stroke="black" stroke-width="0.5" transform="rotate(7.109217016397805 180 120)" width="19.7398" x="175.8203" y="115.8203" /><rect fill="none" height="16.6401" stroke="black" stroke-width="0.5" transform="rotate(4.745122111454743 180 130)" width="-4.5243" x="176.8165" y="126.8165" /><rect fill="none" height="7.4141" stroke="black" stroke-width="0.5" transform="rotate(-8.610701061658293 180 140)" width="15.3385" x="181.0274" y="141.0274" /><rect fill="none" height="7.1201" stroke="black" stroke-width="0.5" transform="rotate(2.455421348468499 180 150)" width="21.0384" x="184.0962" y="154.0962" /><rect fill="none" height="9.1106" stroke="black" stroke-width="0.5" transform="rotate(-4.270999692057498 180 160)" width="0.1447" x="177.8479" y="157.8479" /><rect fill="none" height="-4.8074" stroke="black" stroke-width="0.5" transform="rotate(-0.6931965385353639 180 170)" width="-2.9581" x="184.9247" y="174.9247" /><rect fill="none" height="8.7565" stroke="black" stroke-width="0.5" transform="rotate(-14.360878772750606 180 180)" width="9.4432" x="181.3841" y="181.3841" /><rect fill="none" height="11.6137" stroke="black" stroke-width="0.5" transform="rotate(-11.23262659014521 180 190)" width="15.4917" x="184.4697" y="194.4697" /><rect fill="none" height="10.0" stroke="black" stroke-width="0.5" transform="rotate(-0.0 190 0)" width="10.0" x="190.0" y="0.0" /><rect fill="none" height="9.8135" stroke="black" stroke-width="0.5" transform="rotate(-0.036519765038838324 190 10)" width="10.181" x="190.2478" y="10.2478" /><rect fill="none" height="9.497" stroke="black" stroke-width="0.5" transform="rotate(0.0602671279523483 190 20)" width="8.3156" x="189.4682" y="19.4682" /><rect fill="none" height="12.6943" stroke="black" stroke-width="0.5" transform="rotate(0.4279246652702824 190 30)" width="8.313" x="190.5967" y="30.5967" /><rect fill="none" height="7.3878" stroke="black" stroke-width="0.5" transform="rotate(-0.5160720513102524 190 40)" width="5.4866" x="190.7021" y="40.7021" /><rect fill="none" height="14.6097" stroke="black" stroke-width="0.5" transform="rotate(-0.5599734667668088 190 50)" width="4.4116" x="189.0458" y="49.0458" /><rect fill="none" height="5.7133" stroke="black" stroke-width="0.5" transform="rotate(0.5737786502422149 190 60)" width="11.4539" x="191.6938" y="61.6938" /><rect fill="none" height="13.7799" stroke="black" stroke-width="0.5" transform="rotate(-0.8399905091198512 190 70)" width="4.3807" x="188.9327" y="68.9327" /><rect fill="none" height="13.1514" stroke="black" stroke-width="0.5" transform="rotate(2.4526321886068025 190 80)" width="10.9644" x="186.3551" y="76.3551" /><rect fill="none" height="0.8077" stroke="black" stroke-width="0.5" transform="rotate(1.1203212493890409 190 90)" width="18.8115" x="194.0443" y="94.0443" /><rect fill="none" height="-0.2204" stroke="black" stroke-width="0.5" transform="rotate(-0.8915509168256408 190 100)" width="11.1202" x="194.3644" y="104.3644" /><rect fill="none" height="3.0391" stroke="black" stroke-width="0.5" transform="rotate(0.8564904978574337 190 110)" width="20.0567" x="187.7227" y="107.7227" /><rect fill="none" height="2.7357" stroke="black" stroke-width="0.5" transform="rotate(-3.199671590607326 190 120)" width="0.3105" x="190.0136" y="120.0136" /><rect fill="none" height="15.7095" stroke="black" stroke-width="0.5" transform="rotate(5.278675218336594 190 130)" width="-0.8446" x="189.9127" y="129.9127" /><rect fill="none" height="21.1571" stroke="black" stroke-width="0.5" transform="rotate(1.2141318400814285 190 140)" width="25.4045" x="188.5852" y="138.5852" /><rect fill="none" height="-6.5432" stroke="black" stroke-width="0.5" transform="rotate(10.676278454369983 190 150)" width="4.646" x="187.9365" y="147.9365" /><rect fill="none" height="24.0805" stroke="black" stroke-width="0.5" transform="rotate(1.0958129614485301 190 160)" width="16.9222" x="183.2268" y="153.2268" /><rect fill="none" height="5.074" stroke="black" stroke-width="0.5" transform="rotate(-5.70264915199557 190 170)" width="5.3152" x="191.9351" y="171.9351" /><rect fill="none" height="0.2505" stroke="black" stroke-width="0.5" transform="rotate(1.925973158390469 190 180)" width="26.218" x="192.9896" y="182.9896" /><rect fill="none" height="1.4126" stroke="black" stroke-width="0.5" transform="rotate(3.272862241851393 190 190)" width="1.8461" x="188.1904" y="188.1904" /></svg>