<?xml version="1.0" encoding="utf-8" ?>
<svg baseProfile="tiny" height="500" version="1.2" width="500" xmlns="http://www.w3.org/2000/svg" xmlns:ev="http://www.w3.org/2001/xml-events" xmlns:xlink="http://www.w3.org/1999/xlink"><defs /><rect fill="none" height="462.4973" stroke="black" stroke-width="1" width="462.4973" x="2" y="2" /><rect fill="none" height="461.5121" stroke="black" stroke-width="1" width="461.5121" x="3" y="3" /><rect fill="none" height="460.517" stroke="black" stroke-width="1" width="460.517" x="4" y="4" /><rect fill="none" height="459.512" stroke="black" stroke-width="1" width="459.512" x="5" y="5" /><rect fill="none" height="458.4967" stroke="black" stroke-width="1" width="458.4967" x="6" y="6" /><rect fill="none" height="457.4711" stroke="black" stroke-width="1" width="457.4711" x="7" y="7" /><rect fill="none" height="456.4348" stroke="black" stroke-width="1" width="456.4348" x="8" y="8" /><rect fill="none" height="455.3877" stroke="black" stroke-width="1" width="455.3877" x="9" y="9" /><rect fill="none" height="454.3295" stroke="black" stroke-width="1" width="454.3295" x="10" y="10" /><rect fill="none" height="453.2599" stroke="black" stroke-width="1" width="453.2599" x="11" y="11" /><rect fill="none" height="452.1789" stroke="black" stroke-width="1" width="452.1789" x="12" y="12" /><rect fill="none" height="451.086" stroke="black" stroke-width="1" width="451.086" x="13" y="13" /><rect fill="none" height="449.981" stroke="black" stroke-width="1" width="449.981" x="14" y="14" /><rect fill="none" height="448.8636" stroke="black" stroke-width="1" width="448.8636" x="15" y="15" /><rect fill="none" height="447.7337" stroke="black" stroke-width="1" width="447.7337" x="16" y="16" /><rect fill="none" height="446.5908" stroke="black" stroke-width="1" width="446.5908" x="17" y="17" /><rect fill="none" height="445.4347" stroke="black" stroke-width="1" width="445.4347" x="18" y="18" /><rect fill="none" height="444.2651" stroke="black" stroke-width="1" width="444.2651" x="19" y="19" /><rect fill="none" height="443.0817" stroke="black" stroke-width="1" width="443.0817" x="20" y="20" /><rect fill="none" height="441.8841" stroke="black" stroke-width="1" width="441.8841" x="21" y="21" /><rect fill="none" height="440.6719" stroke="black" stroke-width="1" width="440.6719" x="22" y="22" /><rect fill="none" height="439.4449" stroke="black" stroke-width="1" width="439.4449" x="23" y="23" /><rect fill="none" height="438.2027" stroke="black" stroke-width="1" width="438.2027" x="24" y="24" /><rect fill="none" height="436.9448" stroke="black" stroke-width="1" width="436.9448" x="25" y="25" /><rect fill="none" height="435.6709" stroke="black" stroke-width="1" width="435.6709" x="26" y="26" /><rect fill="none" height="434.3805" stroke="black" stroke-width="1" width="434.3805" x="27" y="27" /><rect fill="none" height="433.0733" stroke="black" stroke-width="1" width="433.0733" x="28" y="28" /><rect fill="none" height="431.7488" stroke="black" stroke-width="1" width="431.7488" x="29" y="29" /><rect fill="none" height="430.4065" stroke="black" stroke-width="1" width="430.4065" x="30" y="30" /><rect fill="none" height="429.0459" stroke="black" stroke-width="1" width="429.0459" x="31" y="31" /><rect fill="none" height="427.6666" stroke="black" stroke-width="1" width="427.6666" x="32" y="32" /><rect fill="none" height="426.268" stroke="black" stroke-width="1" width="426.268" x="33" y="33" /><rect fill="none" height="424.8495" stroke="black" stroke-width="1" width="424.8495" x="34" y="34" /><rect fill="none" height="423.4107" stroke="black" stroke-width="1" width="423.4107" x="35" y="35" /><rect fill="none" height="421.9508" stroke="black" stroke-width="1" width="421.9508" x="36" y="36" /><rect fill="none" height="420.4693" stroke="black" stroke-width="1" width="420.4693" x="37" y="37" /><rect fill="none" height="418.9655" stroke="black" stroke-width="1" width="418.9655" x="38" y="38" /><rect fill="none" height="417.4387" stroke="black" stroke-width="1" width="417.4387" x="39" y="39" /><rect fill="none" height="415.8883" stroke="black" stroke-width="1" width="415.8883" x="40" y="40" /><rect fill="none" height="414.3135" stroke="black" stroke-width="1" width="414.3135" x="41" y="41" /><rect fill="none" height="412.7134" stroke="black" stroke-width="1" width="412.7134" x="42" y="42" /><rect fill="none" height="411.0874" stroke="black" stroke-width="1" width="411.0874" x="43" y="43" /><rect fill="none" height="409.4345" stroke="black" stroke-width="1" width="409.4345" x="44" y="44" /><rect fill="none" height="407.7537" stroke="black" stroke-width="1" width="407.7537" x="45" y="45" /><rect fill="none" height="406.0443" stroke="black" stroke-width="1" width="406.0443" x="46" y="46" /><rect fill="none" height="404.3051" stroke="black" stroke-width="1" width="404.3051" x="47" y="47" /><rect fill="none" height="402.5352" stroke="black" stroke-width="1" width="402.5352" x="48" y="48" /><rect fill="none" height="400.7333" stroke="black" stroke-width="1" width="400.7333" x="49" y="49" /><rect fill="none" height="398.8984" stroke="black" stroke-width="1" width="398.8984" x="50" y="50" /><rect fill="none" height="397.0292" stroke="black" stroke-width="1" width="397.0292" x="51" y="51" /><rect fill="none" height="395.1244" stroke="black" stroke-width="1" width="395.1244" x="52" y="52" /><rect fill="none" height="393.1826" stroke="black" stroke-width="1" width="393.1826" x="53" y="53" /><rect fill="none" height="391.2023" stroke="black" stroke-width="1" width="391.2023" x="54" y="54" /><rect fill="none" height="389.182" stroke="black" stroke-width="1" width="389.182" x="55" y="55" /><rect fill="none" height="387.1201" stroke="black" stroke-width="1" width="387.1201" x="56" y="56" /><rect fill="none" height="385.0148" stroke="black" stroke-width="1" width="385.0148" x="57" y="57" /><rect fill="none" height="382.8641" stroke="black" stroke-width="1" width="382.8641" x="58" y="58" /><rect fill="none" height="380.6662" stroke="black" stroke-width="1" width="380.6662" x="59" y="59" /><rect fill="none" height="378.419" stroke="black" stroke-width="1" width="378.419" x="60" y="60" /><rect fill="none" height="376.12" stroke="black" stroke-width="1" width="376.12" x="61" y="61" /><rect fill="none" height="373.767" stroke="black" stroke-width="1" width="373.767" x="62" y="62" /><rect fill="none" height="371.3572" stroke="black" stroke-width="1" width="371.3572" x="63" y="63" /><rect fill="none" height="368.8879" stroke="black" stroke-width="1" width="368.8879" x="64" y="64" /><rect fill="none" height="366.3562" stroke="black" stroke-width="1" width="366.3562" x="65" y="65" /><rect fill="none" height="363.7586" stroke="black" stroke-width="1" width="363.7586" x="66" y="66" /><rect fill="none" height="361.0918" stroke="black" stroke-width="1" width="361.0918" x="67" y="67" /><rect fill="none" height="358.3519" stroke="black" stroke-width="1" width="358.3519" x="68" y="68" /><rect fill="none" height="355.5348" stroke="black" stroke-width="1" width="355.5348" x="69" y="69" /><rect fill="none" height="352.6361" stroke="black" stroke-width="1" width="352.6361" x="70" y="70" /><rect fill="none" height="349.6508" stroke="black" stroke-width="1" width="349.6508" x="71" y="71" /><rect fill="none" height="346.5736" stroke="black" stroke-width="1" width="346.5736" x="72" y="72" /><rect fill="none" height="343.3987" stroke="black" stroke-width="1" width="343.3987" x="73" y="73" /><rect fill="none" height="340.1197" stroke="black" stroke-width="1" width="340.1197" x="74" y="74" /><rect fill="none" height="336.7296" stroke="black" stroke-width="1" width="336.7296" x="75" y="75" /><rect fill="none" height="333.2205" stroke="black" stroke-width="1" width="333.2205" x="76" y="76" /><rect fill="none" height="329.5837" stroke="black" stroke-width="1" width="329.5837" x="77" y="77" /><rect fill="none" height="325.8097" stroke="black" stroke-width="1" width="325.8097" x="78" y="78" /><rect fill="none" height="321.8876" stroke="black" stroke-width="1" width="321.8876" x="79" y="79" /><rect fill="none" height="317.8054" stroke="black" stroke-width="1" width="317.8054" x="80" y="80" /><rect fill="none" height="313.5494" stroke="black" stroke-width="1" width="313.5494" x="81" y="81" /><rect fill="none" height="309.1042" stroke="black" stroke-width="1" width="309.1042" x="82" y="82" /><rect fill="none" height="304.4522" stroke="black" stroke-width="1" width="304.4522" x="83" y="83" /><rect fill="none" height="299.5732" stroke="black" stroke-width="1" width="299.5732" x="84" y="84" /><rect fill="none" height="294.4439" stroke="black" stroke-width="1" width="294.4439" x="85" y="85" /><rect fill="none" height="289.0372" stroke="black" stroke-width="1" width="289.0372" x="86" y="86" /><rect fill="none" height="283.3213" stroke="black" stroke-width="1" width="283.3213" x="87" y="87" /><rect fill="none" height="277.2589" stroke="black" stroke-width="1" width="277.2589" x="88" y="88" /><rect fill="none" height="270.805" stroke="black" stroke-width="1" width="270.805" x="89" y="89" /><rect fill="none" height="263.9057" stroke="black" stroke-width="1" width="263.9057" x="90" y="90" /><rect fill="none" height="256.4949" stroke="black" stroke-width="1" width="256.4949" x="91" y="91" /><rect fill="none" height="248.4907" stroke="black" stroke-width="1" width="248.4907" x="92" y="92" /><rect fill="none" height="239.7895" stroke="black" stroke-width="1" width="239.7895" x="93" y="93" /><rect fill="none" height="230.2585" stroke="black" stroke-width="1" width="230.2585" x="94" y="94" /><rect fill="none" height="219.7225" stroke="black" stroke-width="1" width="219.7225" x="95" y="95" /><rect fill="none" height="207.9442" stroke="black" stroke-width="1" width="207.9442" x="96" y="96" /><rect fill="none" height="194.591" stroke="black" stroke-width="1" width="194.591" x="97" y="97" /><rect fill="none" height="179.1759" stroke="black" stroke-width="1" width="179.1759" x="98" y="98" /><rect fill="none" height="160.9438" stroke="black" stroke-width="1" width="160.9438" x="99" y="99" /></svg>