<?xml version="1.0" encoding="utf-8" ?>
<svg baseProfile="tiny" height="500" version="1.2" width="500" xmlns="http://www.w3.org/2000/svg" xmlns:ev="http://www.w3.org/2001/xml-events" xmlns:xlink="http://www.w3.org/1999/xlink"><defs /><rect fill="none" height="1" stroke="black" stroke-width="1" transform="rotate(0.0 50 100)" width="1" x="0" y="0" /><rect fill="none" height="1" stroke="black" stroke-width="1" transform="rotate(-0.004340734233277427 50 100)" width="1" x="0" y="10" /><rect fill="none" height="1" stroke="black" stroke-width="1" transform="rotate(0.0004270176775282097 50 100)" width="1" x="0" y="20" /><rect fill="none" height="1" stroke="black" stroke-width="1" transform="rotate(-0.004028927104929946 50 100)" width="1" x="0" y="30" /><rect fill="none" height="1" stroke="black" stroke-width="1" transform="rotate(-0.06948715035649286 50 100)" width="1" x="0" y="40" /><rect fill="none" height="1" stroke="black" stroke-width="1" transform="rotate(-0.03883983208076386 50 100)" width="1" x="0" y="50" /><rect fill="none" height="1" stroke="black" stroke-width="1" transform="rotate(-0.17427410625758813 50 100)" width="1" x="0" y="60" /><rect fill="none" height="1" stroke="black" stroke-width="1" transform="rotate(-0.04025612439281476 50 100)" width="1" x="0" y="70" /><rect fill="none" height="1" stroke="black" stroke-width="1" transform="rotate(-0.07635288115908921 50 100)" width="1" x="0" y="80" /><rect fill="none" height="1" stroke="black" stroke-width="1" transform="rotate(-0.11791600303984894 50 100)" width="1" x="0" y="90" /><rect fill="none" height="1" stroke="black" stroke-width="1" transform="rotate(-0.17634894293587045 50 100)" width="1" x="0" y="100" /><rect fill="none" height="1" stroke="black" stroke-width="1" transform="rotate(0.08441071353241486 50 100)" width="1" x="0" y="110" /><rect fill="none" height="1" stroke="black" stroke-width="1" transform="rotate(-0.2823505990404198 50 100)" width="1" x="0" y="120" /><rect fill="none" height="1" stroke="black" stroke-width="1" transform="rotate(-0.0956213581353863 50 100)" width="1" x="0" y="130" /><rect fill="none" height="1" stroke="black" stroke-width="1" transform="rotate(-0.12945348335772044 50 100)" width="1" x="0" y="140" /><rect fill="none" height="1" stroke="black" stroke-width="1" transform="rotate(0.6643269101861773 50 100)" width="1" x="0" y="150" /><rect fill="none" height="1" stroke="black" stroke-width="1" transform="rotate(-0.33922675918335615 50 100)" width="1" x="0" y="160" /><rect fill="none" height="1" stroke="black" stroke-width="1" transform="rotate(0.9910234543083887 50 100)" width="1" x="0" y="170" /><rect fill="none" height="1" stroke="black" stroke-width="1" transform="rotate(-0.7714464659299874 50 100)" width="1" x="0" y="180" /><rect fill="none" height="1" stroke="black" stroke-width="1" transform="rotate(0.909778423740985 50 100)" width="1" x="0" y="190" /><rect fill="none" height="1" stroke="black" stroke-width="1" transform="rotate(1.9015915277400892 50 100)" width="1" x="0" y="200" /><rect fill="none" height="1" stroke="black" stroke-width="1" transform="rotate(1.1401046529092056 50 100)" width="1" x="0" y="210" /><rect fill="none" height="1" stroke="black" stroke-width="1" transform="rotate(-1.3375692146810412 50 100)" width="1" x="0" y="220" /><rect fill="none" height="1" stroke="black" stroke-width="1" transform="rotate(2.3630326954493843 50 100)" width="1" x="0" y="230" /><rect fill="none" height="1" stroke="black" stroke-width="1" transform="rotate(1.7320095988885174 50 100)" width="1" x="0" y="240" /><rect fill="none" height="1" stroke="black" stroke-width="1" transform="rotate(-1.554656726838835 50 100)" width="1" x="0" y="250" /><rect fill="none" height="1" stroke="black" stroke-width="1" transform="rotate(-2.5195459316314803 50 100)" width="1" x="0" y="260" /><rect fill="none" height="1" stroke="black" stroke-width="1" transform="rotate(-0.4424968478570235 50 100)" width="1" x="0" y="270" /><rect fill="none" height="1" stroke="black" stroke-width="1" transform="rotate(1.4402392738899343 50 100)" width="1" x="0" y="280" /><rect fill="none" height="1" stroke="black" stroke-width="1" transform="rotate(-3.0173919327026586 50 100)" width="1" x="0" y="290" /><rect fill="none" height="1" stroke="black" stroke-width="1" transform="rotate(-0.0 50 100)" width="1" x="10" y="0" /><rect fill="none" height="1" stroke="black" stroke-width="1" transform="rotate(0.004900956318337676 50 100)" width="1" x="10" y="10" /><rect fill="none" height="1" stroke="black" stroke-width="1" transform="rotate(0.013532323421205526 50 100)" width="1" x="10" y="20" /><rect fill="none" height="1" stroke="black" stroke-width="1" transform="rotate(-0.028428452638056254 50 100)" width="1" x="10" y="30" /><rect fill="none" height="1" stroke="black" stroke-width="1" transform="rotate(0.029112396159703343 50 100)" width="1" x="10" y="40" /><rect fill="none" height="1" stroke="black" stroke-width="1" transform="rotate(-0.09761127313140791 50 100)" width="1" x="10" y="50" /><rect fill="none" height="1" stroke="black" stroke-width="1" transform="rotate(-0.057882794293803226 50 100)" width="1" x="10" y="60" /><rect fill="none" height="1" stroke="black" stroke-width="1" transform="rotate(0.013229520411703612 50 100)" width="1" x="10" y="70" /><rect fill="none" height="1" stroke="black" stroke-width="1" transform="rotate(0.31005018538239776 50 100)" width="1" x="10" y="80" /><rect fill="none" height="1" stroke="black" stroke-width="1" transform="rotate(-0.031804699117981665 50 100)" width="1" x="10" y="90" /><rect fill="none" height="1" stroke="black" stroke-width="1" transform="rotate(0.20141339438679182 50 100)" width="1" x="10" y="100" /><rect fill="none" height="1" stroke="black" stroke-width="1" transform="rotate(0.3180564200832014 50 100)" width="1" x="10" y="110" /><rect fill="none" height="1" stroke="black" stroke-width="1" transform="rotate(0.6408375272190636 50 100)" width="1" x="10" y="120" /><rect fill="none" height="1" stroke="black" stroke-width="1" transform="rotate(-0.6996808237999161 50 100)" width="1" x="10" y="130" /><rect fill="none" height="1" stroke="black" stroke-width="1" transform="rotate(0.7364173106275941 50 100)" width="1" x="10" y="140" /><rect fill="none" height="1" stroke="black" stroke-width="1" transform="rotate(-1.0127486861950665 50 100)" width="1" x="10" y="150" /><rect fill="none" height="1" stroke="black" stroke-width="1" transform="rotate(0.03839493899818194 50 100)" width="1" x="10" y="160" /><rect fill="none" height="1" stroke="black" stroke-width="1" transform="rotate(-1.248468950120107 50 100)" width="1" x="10" y="170" /><rect fill="none" height="1" stroke="black" stroke-width="1" transform="rotate(0.8227247568764829 50 100)" width="1" x="10" y="180" /><rect fill="none" height="1" stroke="black" stroke-width="1" transform="rotate(-1.1089757728438507 50 100)" width="1" x="10" y="190" /><rect fill="none" height="1" stroke="black" stroke-width="1" transform="rotate(0.28477445105947075 50 100)" width="1" x="10" y="200" /><rect fill="none" height="1" stroke="black" stroke-width="1" transform="rotate(0.9308888537085954 50 100)" width="1" x="10" y="210" /><rect fill="none" height="1" stroke="black" stroke-width="1" transform="rotate(0.5979026914895037 50 100)" width="1" x="10" y="220" /><rect fill="none" height="1" stroke="black" stroke-width="1" transform="rotate(0.1508547178064955 50 100)" width="1" x="10" y="230" /><rect fill="none" height="1" stroke="black" stroke-width="1" transform="rotate(2.350810265806173 50 100)" width="1" x="10" y="240" /><rect fill="none" height="1" stroke="black" stroke-width="1" transform="rotate(-2.772701362635172 50 100)" width="1" x="10" y="250" /><rect fill="none" height="1" stroke="black" stroke-width="1" transform="rotate(-1.4944511167904364 50 100)" width="1" x="10" y="260" /><rect fill="none" height="1" stroke="black" stroke-width="1" transform="rotate(-0.656509866631622 50 100)" width="1" x="10" y="270" /><rect fill="none" height="1" stroke="black" stroke-width="1" transform="rotate(-1.724027906347992 50 100)" width="1" x="10" y="280" /><rect fill="none" height="1" stroke="black" stroke-width="1" transform="rotate(2.243008157361482 50 100)" width="1" x="10" y="290" /><rect fill="none" height="1" stroke="black" stroke-width="1" transform="rotate(-0.0 50 100)" width="1" x="20" y="0" /><rect fill="none" height="1" stroke="black" stroke-width="1" transform="rotate(0.001776325384430323 50 100)" width="1" x="20" y="10" /><rect fill="none" height="1" stroke="black" stroke-width="1" transform="rotate(0.001510857861574264 50 100)" width="1" x="20" y="20" /><rect fill="none" height="1" stroke="black" stroke-width="1" transform="rotate(-0.038513998440905396 50 100)" width="1" x="20" y="30" /><rect fill="none" height="1" stroke="black" stroke-width="1" transform="rotate(-0.06032241843579431 50 100)" width="1" x="20" y="40" /><rect fill="none" height="1" stroke="black" stroke-width="1" transform="rotate(0.08552145950096174 50 100)" width="1" x="20" y="50" /><rect fill="none" height="1" stroke="black" stroke-width="1" transform="rotate(-0.12108984875872919 50 100)" width="1" x="20" y="60" /><rect fill="none" height="1" stroke="black" stroke-width="1" transform="rotate(0.22714128831876773 50 100)" width="1" x="20" y="70" /><rect fill="none" height="1" stroke="black" stroke-width="1" transform="rotate(0.15136376599849455 50 100)" width="1" x="20" y="80" /><rect fill="none" height="1" stroke="black" stroke-width="1" transform="rotate(0.21474555076782686 50 100)" width="1" x="20" y="90" /><rect fill="none" height="1" stroke="black" stroke-width="1" transform="rotate(-0.49590039303859434 50 100)" width="1" x="20" y="100" /><rect fill="none" height="1" stroke="black" stroke-width="1" transform="rotate(0.38417043565042536 50 100)" width="1" x="20" y="110" /><rect fill="none" height="1" stroke="black" stroke-width="1" transform="rotate(0.009588869142350393 50 100)" width="1" x="20" y="120" /><rect fill="none" height="1" stroke="black" stroke-width="1" transform="rotate(0.026750337129508632 50 100)" width="1" x="20" y="130" /><rect fill="none" height="1" stroke="black" stroke-width="1" transform="rotate(-0.8313564205993369 50 100)" width="1" x="20" y="140" /><rect fill="none" height="1" stroke="black" stroke-width="1" transform="rotate(0.34215695189674783 50 100)" width="1" x="20" y="150" /><rect fill="none" height="1" stroke="black" stroke-width="1" transform="rotate(-0.8530585240377229 50 100)" width="1" x="20" y="160" /><rect fill="none" height="1" stroke="black" stroke-width="1" transform="rotate(0.4293535341229234 50 100)" width="1" x="20" y="170" /><rect fill="none" height="1" stroke="black" stroke-width="1" transform="rotate(-1.2862087113569987 50 100)" width="1" x="20" y="180" /><rect fill="none" height="1" stroke="black" stroke-width="1" transform="rotate(1.0386736124611364 50 100)" width="1" x="20" y="190" /><rect fill="none" height="1" stroke="black" stroke-width="1" transform="rotate(0.9699138663981399 50 100)" width="1" x="20" y="200" /><rect fill="none" height="1" stroke="black" stroke-width="1" transform="rotate(-1.2978977613531 50 100)" width="1" x="20" y="210" /><rect fill="none" height="1" stroke="black" stroke-width="1" transform="rotate(0.4588690012564664 50 100)" width="1" x="20" y="220" /><rect fill="none" height="1" stroke="black" stroke-width="1" transform="rotate(-2.0424645346616175 50 100)" width="1" x="20" y="230" /><rect fill="none" height="1" stroke="black" stroke-width="1" transform="rotate(-1.1019529441483824 50 100)" width="1" x="20" y="240" /><rect fill="none" height="1" stroke="black" stroke-width="1" transform="rotate(-1.7241900914816428 50 100)" width="1" x="20" y="250" /><rect fill="none" height="1" stroke="black" stroke-width="1" transform="rotate(-0.6137533413699542 50 100)" width="1" x="20" y="260" /><rect fill="none" height="1" stroke="black" stroke-width="1" transform="rotate(-2.6015285894806164 50 100)" width="1" x="20" y="270" /><rect fill="none" height="1" stroke="black" stroke-width="1" transform="rotate(-1.6791381603719997 50 100)" width="1" x="20" y="280" /><rect fill="none" height="1" stroke="black" stroke-width="1" transform="rotate(-3.8405781045990284 50 100)" width="1" x="20" y="290" /><rect fill="none" height="1" stroke="black" stroke-width="1" transform="rotate(0.0 50 100)" width="1" x="30" y="0" /><rect fill="none" height="1" stroke="black" stroke-width="1" transform="rotate(-0.00034600101337207257 50 100)" width="1" x="30" y="10" /><rect fill="none" height="1" stroke="black" stroke-width="1" transform="rotate(0.01598622036347871 50 100)" width="1" x="30" y="20" /><rect fill="none" height="1" stroke="black" stroke-width="1" transform="rotate(0.0350855119203459 50 100)" width="1" x="30" y="30" /><rect fill="none" height="1" stroke="black" stroke-width="1" transform="rotate(0.07170541260520069 50 100)" width="1" x="30" y="40" /><rect fill="none" height="1" stroke="black" stroke-width="1" transform="rotate(-0.11773414010887506 50 100)" width="1" x="30" y="50" /><rect fill="none" height="1" stroke="black" stroke-width="1" transform="rotate(0.14302868513722705 50 100)" width="1" x="30" y="60" /><rect fill="none" height="1" stroke="black" stroke-width="1" transform="rotate(-0.2182702984145598 50 100)" width="1" x="30" y="70" /><rect fill="none" height="1" stroke="black" stroke-width="1" transform="rotate(0.20428974530649513 50 100)" width="1" x="30" y="80" /><rect fill="none" height="1" stroke="black" stroke-width="1" transform="rotate(-0.13740199281425028 50 100)" width="1" x="30" y="90" /><rect fill="none" height="1" stroke="black" stroke-width="1" transform="rotate(0.021952990387145266 50 100)" width="1" x="30" y="100" /><rect fill="none" height="1" stroke="black" stroke-width="1" transform="rotate(0.23879955950490322 50 100)" width="1" x="30" y="110" /><rect fill="none" height="1" stroke="black" stroke-width="1" transform="rotate(-0.5359419646161602 50 100)" width="1" x="30" y="120" /><rect fill="none" height="1" stroke="black" stroke-width="1" transform="rotate(-0.7877124609364087 50 100)" width="1" x="30" y="130" /><rect fill="none" height="1" stroke="black" stroke-width="1" transform="rotate(-0.08111885338190218 50 100)" width="1" x="30" y="140" /><rect fill="none" height="1" stroke="black" stroke-width="1" transform="rotate(-0.839733038488525 50 100)" width="1" x="30" y="150" /><rect fill="none" height="1" stroke="black" stroke-width="1" transform="rotate(0.4808092651847548 50 100)" width="1" x="30" y="160" /><rect fill="none" height="1" stroke="black" stroke-width="1" transform="rotate(-0.01451949794172229 50 100)" width="1" x="30" y="170" /><rect fill="none" height="1" stroke="black" stroke-width="1" transform="rotate(-1.5501218935171732 50 100)" width="1" x="30" y="180" /><rect fill="none" height="1" stroke="black" stroke-width="1" transform="rotate(0.8168155418217965 50 100)" width="1" x="30" y="190" /><rect fill="none" height="1" stroke="black" stroke-width="1" transform="rotate(0.35711031120538417 50 100)" width="1" x="30" y="200" /><rect fill="none" height="1" stroke="black" stroke-width="1" transform="rotate(-0.024400983736187307 50 100)" width="1" x="30" y="210" /><rect fill="none" height="1" stroke="black" stroke-width="1" transform="rotate(0.3351477887908622 50 100)" width="1" x="30" y="220" /><rect fill="none" height="1" stroke="black" stroke-width="1" transform="rotate(-0.3216954721290534 50 100)" width="1" x="30" y="230" /><rect fill="none" height="1" stroke="black" stroke-width="1" transform="rotate(1.8760064498824658 50 100)" width="1" x="30" y="240" /><rect fill="none" height="1" stroke="black" stroke-width="1" transform="rotate(-1.6129129052070739 50 100)" width="1" x="30" y="250" /><rect fill="none" height="1" stroke="black" stroke-width="1" transform="rotate(1.915066994890909 50 100)" width="1" x="30" y="260" /><rect fill="none" height="1" stroke="black" stroke-width="1" transform="rotate(3.517309045300638 50 100)" width="1" x="30" y="270" /><rect fill="none" height="1" stroke="black" stroke-width="1" transform="rotate(0.274101012858548 50 100)" width="1" x="30" y="280" /><rect fill="none" height="1" stroke="black" stroke-width="1" transform="rotate(-3.1193229228618544 50 100)" width="1" x="30" y="290" /><rect fill="none" height="1" stroke="black" stroke-width="1" transform="rotate(0.0 50 100)" width="1" x="40" y="0" /><rect fill="none" height="1" stroke="black" stroke-width="1" transform="rotate(0.0016352911291144957 50 100)" width="1" x="40" y="10" /><rect fill="none" height="1" stroke="black" stroke-width="1" transform="rotate(-0.012053900165870334 50 100)" width="1" x="40" y="20" /><rect fill="none" height="1" stroke="black" stroke-width="1" transform="rotate(0.021125380986923733 50 100)" width="1" x="40" y="30" /><rect fill="none" height="1" stroke="black" stroke-width="1" transform="rotate(-0.004341827672605661 50 100)" width="1" x="40" y="40" /><rect fill="none" height="1" stroke="black" stroke-width="1" transform="rotate(0.020927474790333328 50 100)" width="1" x="40" y="50" /><rect fill="none" height="1" stroke="black" stroke-width="1" transform="rotate(0.009662918573671915 50 100)" width="1" x="40" y="60" /><rect fill="none" height="1" stroke="black" stroke-width="1" transform="rotate(0.1974969238994602 50 100)" width="1" x="40" y="70" /><rect fill="none" height="1" stroke="black" stroke-width="1" transform="rotate(-0.23733863138970107 50 100)" width="1" x="40" y="80" /><rect fill="none" height="1" stroke="black" stroke-width="1" transform="rotate(0.3400122316927981 50 100)" width="1" x="40" y="90" /><rect fill="none" height="1" stroke="black" stroke-width="1" transform="rotate(0.34288531840650516 50 100)" width="1" x="40" y="100" /><rect fill="none" height="1" stroke="black" stroke-width="1" transform="rotate(-0.27861528815082826 50 100)" width="1" x="40" y="110" /><rect fill="none" height="1" stroke="black" stroke-width="1" transform="rotate(0.016431860350898175 50 100)" width="1" x="40" y="120" /><rect fill="none" height="1" stroke="black" stroke-width="1" transform="rotate(0.5459305343068374 50 100)" width="1" x="40" y="130" /><rect fill="none" height="1" stroke="black" stroke-width="1" transform="rotate(0.05356128417429362 50 100)" width="1" x="40" y="140" /><rect fill="none" height="1" stroke="black" stroke-width="1" transform="rotate(0.4453451272138736 50 100)" width="1" x="40" y="150" /><rect fill="none" height="1" stroke="black" stroke-width="1" transform="rotate(0.5163556295142152 50 100)" width="1" x="40" y="160" /><rect fill="none" height="1" stroke="black" stroke-width="1" transform="rotate(-1.1608892931770647 50 100)" width="1" x="40" y="170" /><rect fill="none" height="1" stroke="black" stroke-width="1" transform="rotate(0.3813958905523871 50 100)" width="1" x="40" y="180" /><rect fill="none" height="1" stroke="black" stroke-width="1" transform="rotate(-0.6166138255823467 50 100)" width="1" x="40" y="190" /><rect fill="none" height="1" stroke="black" stroke-width="1" transform="rotate(1.978081653607917 50 100)" width="1" x="40" y="200" /><rect fill="none" height="1" stroke="black" stroke-width="1" transform="rotate(0.014136991670138288 50 100)" width="1" x="40" y="210" /><rect fill="none" height="1" stroke="black" stroke-width="1" transform="rotate(1.2150528179731284 50 100)" width="1" x="40" y="220" /><rect fill="none" height="1" stroke="black" stroke-width="1" transform="rotate(-2.501544803336075 50 100)" width="1" x="40" y="230" /><rect fill="none" height="1" stroke="black" stroke-width="1" transform="rotate(-1.2553113999191088 50 100)" width="1" x="40" y="240" /><rect fill="none" height="1" stroke="black" stroke-width="1" transform="rotate(0.49114966908768154 50 100)" width="1" x="40" y="250" /><rect fill="none" height="1" stroke="black" stroke-width="1" transform="rotate(-0.22965969284233848 50 100)" width="1" x="40" y="260" /><rect fill="none" height="1" stroke="black" stroke-width="1" transform="rotate(0.6803264624166612 50 100)" width="1" x="40" y="270" /><rect fill="none" height="1" stroke="black" stroke-width="1" transform="rotate(2.189659819650209 50 100)" width="1" x="40" y="280" /><rect fill="none" height="1" stroke="black" stroke-width="1" transform="rotate(3.8820965490074792 50 100)" width="1" x="40" y="290" /><rect fill="none" height="1" stroke="black" stroke-width="1" transform="rotate(0.0 50 100)" width="1" x="50" y="0" /><rect fill="none" height="1" stroke="black" stroke-width="1" transform="rotate(-0.0006057592667460087 50 100)" width="1" x="50" y="10" /><rect fill="none" height="1" stroke="black" stroke-width="1" transform="rotate(-0.00831394527550159 50 100)" width="1" x="50" y="20" /><rect fill="none" height="1" stroke="black" stroke-width="1" transform="rotate(-0.02798226943031266 50 100)" width="1" x="50" y="30" /><rect fill="none" height="1" stroke="black" stroke-width="1" transform="rotate(-0.005872568339068334 50 100)" width="1" x="50" y="40" /><rect fill="none" height="1" stroke="black" stroke-width="1" transform="rotate(0.06797593283508946 50 100)" width="1" x="50" y="50" /><rect fill="none" height="1" stroke="black" stroke-width="1" transform="rotate(-0.15926022647128163 50 100)" width="1" x="50" y="60" /><rect fill="none" height="1" stroke="black" stroke-width="1" transform="rotate(0.022894543439073534 50 100)" width="1" x="50" y="70" /><rect fill="none" height="1" stroke="black" stroke-width="1" transform="rotate(-0.17373953261745229 50 100)" width="1" x="50" y="80" /><rect fill="none" height="1" stroke="black" stroke-width="1" transform="rotate(0.1530856029101158 50 100)" width="1" x="50" y="90" /><rect fill="none" height="1" stroke="black" stroke-width="1" transform="rotate(-0.05328847881875598 50 100)" width="1" x="50" y="100" /><rect fill="none" height="1" stroke="black" stroke-width="1" transform="rotate(0.2577531711278114 50 100)" width="1" x="50" y="110" /><rect fill="none" height="1" stroke="black" stroke-width="1" transform="rotate(-0.18301925174428446 50 100)" width="1" x="50" y="120" /><rect fill="none" height="1" stroke="black" stroke-width="1" transform="rotate(-0.8257110214426459 50 100)" width="1" x="50" y="130" /><rect fill="none" height="1" stroke="black" stroke-width="1" transform="rotate(0.4282930414244936 50 100)" width="1" x="50" y="140" /><rect fill="none" height="1" stroke="black" stroke-width="1" transform="rotate(0.35595474996810916 50 100)" width="1" x="50" y="150" /><rect fill="none" height="1" stroke="black" stroke-width="1" transform="rotate(-0.7159339161140746 50 100)" width="1" x="50" y="160" /><rect fill="none" height="1" stroke="black" stroke-width="1" transform="rotate(0.6092978341337242 50 100)" width="1" x="50" y="170" /><rect fill="none" height="1" stroke="black" stroke-width="1" transform="rotate(0.7368260671702025 50 100)" width="1" x="50" y="180" /><rect fill="none" height="1" stroke="black" stroke-width="1" transform="rotate(-0.4072011064433211 50 100)" width="1" x="50" y="190" /><rect fill="none" height="1" stroke="black" stroke-width="1" transform="rotate(-1.3422979083704876 50 100)" width="1" x="50" y="200" /><rect fill="none" height="1" stroke="black" stroke-width="1" transform="rotate(0.6893919630037101 50 100)" width="1" x="50" y="210" /><rect fill="none" height="1" stroke="black" stroke-width="1" transform="rotate(-1.6423469407000553 50 100)" width="1" x="50" y="220" /><rect fill="none" height="1" stroke="black" stroke-width="1" transform="rotate(2.015693987283392 50 100)" width="1" x="50" y="230" /><rect fill="none" height="1" stroke="black" stroke-width="1" transform="rotate(-0.23522112805371775 50 100)" width="1" x="50" y="240" /><rect fill="none" height="1" stroke="black" stroke-width="1" transform="rotate(-1.365820814998254 50 100)" width="1" x="50" y="250" /><rect fill="none" height="1" stroke="black" stroke-width="1" transform="rotate(1.4334948495244155 50 100)" width="1" x="50" y="260" /><rect fill="none" height="1" stroke="black" stroke-width="1" transform="rotate(-2.1772930234330565 50 100)" width="1" x="50" y="270" /><rect fill="none" height="1" stroke="black" stroke-width="1" transform="rotate(-1.108375397008571 50 100)" width="1" x="50" y="280" /><rect fill="none" height="1" stroke="black" stroke-width="1" transform="rotate(-3.7672009161256006 50 100)" width="1" x="50" y="290" /><rect fill="none" height="1" stroke="black" stroke-width="1" transform="rotate(0.0 50 100)" width="1" x="60" y="0" /><rect fill="none" height="1" stroke="black" stroke-width="1" transform="rotate(0.0025769801115606973 50 100)" width="1" x="60" y="10" /><rect fill="none" height="1" stroke="black" stroke-width="1" transform="rotate(0.019649619610961216 50 100)" width="1" x="60" y="20" /><rect fill="none" height="1" stroke="black" stroke-width="1" transform="rotate(0.01701135605003073 50 100)" width="1" x="60" y="30" /><rect fill="none" height="1" stroke="black" stroke-width="1" transform="rotate(-0.07321118555968745 50 100)" width="1" x="60" y="40" /><rect fill="none" height="1" stroke="black" stroke-width="1" transform="rotate(-0.04687407143417796 50 100)" width="1" x="60" y="50" /><rect fill="none" height="1" stroke="black" stroke-width="1" transform="rotate(0.029795232450228575 50 100)" width="1" x="60" y="60" /><rect fill="none" height="1" stroke="black" stroke-width="1" transform="rotate(0.2125560518011847 50 100)" width="1" x="60" y="70" /><rect fill="none" height="1" stroke="black" stroke-width="1" transform="rotate(0.2658191091010556 50 100)" width="1" x="60" y="80" /><rect fill="none" height="1" stroke="black" stroke-width="1" transform="rotate(-0.050300366025281026 50 100)" width="1" x="60" y="90" /><rect fill="none" height="1" stroke="black" stroke-width="1" transform="rotate(0.28501547639239966 50 100)" width="1" x="60" y="100" /><rect fill="none" height="1" stroke="black" stroke-width="1" transform="rotate(0.31403323508517195 50 100)" width="1" x="60" y="110" /><rect fill="none" height="1" stroke="black" stroke-width="1" transform="rotate(-0.23060668785215901 50 100)" width="1" x="60" y="120" /><rect fill="none" height="1" stroke="black" stroke-width="1" transform="rotate(0.4046281559097912 50 100)" width="1" x="60" y="130" /><rect fill="none" height="1" stroke="black" stroke-width="1" transform="rotate(0.1773253294043516 50 100)" width="1" x="60" y="140" /><rect fill="none" height="1" stroke="black" stroke-width="1" transform="rotate(-0.8368893266065115 50 100)" width="1" x="60" y="150" /><rect fill="none" height="1" stroke="black" stroke-width="1" transform="rotate(-0.11368413617305237 50 100)" width="1" x="60" y="160" /><rect fill="none" height="1" stroke="black" stroke-width="1" transform="rotate(-0.922640778535617 50 100)" width="1" x="60" y="170" /><rect fill="none" height="1" stroke="black" stroke-width="1" transform="rotate(-1.1141180738092444 50 100)" width="1" x="60" y="180" /><rect fill="none" height="1" stroke="black" stroke-width="1" transform="rotate(-1.2119996411571246 50 100)" width="1" x="60" y="190" /><rect fill="none" height="1" stroke="black" stroke-width="1" transform="rotate(-0.5494497453852727 50 100)" width="1" x="60" y="200" /><rect fill="none" height="1" stroke="black" stroke-width="1" transform="rotate(0.8476717829181024 50 100)" width="1" x="60" y="210" /><rect fill="none" height="1" stroke="black" stroke-width="1" transform="rotate(-0.47347636174332736 50 100)" width="1" x="60" y="220" /><rect fill="none" height="1" stroke="black" stroke-width="1" transform="rotate(2.210812994097946 50 100)" width="1" x="60" y="230" /><rect fill="none" height="1" stroke="black" stroke-width="1" transform="rotate(-0.45533248824286704 50 100)" width="1" x="60" y="240" /><rect fill="none" height="1" stroke="black" stroke-width="1" transform="rotate(2.3175571697143518 50 100)" width="1" x="60" y="250" /><rect fill="none" height="1" stroke="black" stroke-width="1" transform="rotate(1.292715127021153 50 100)" width="1" x="60" y="260" /><rect fill="none" height="1" stroke="black" stroke-width="1" transform="rotate(2.038859192786114 50 100)" width="1" x="60" y="270" /><rect fill="none" height="1" stroke="black" stroke-width="1" transform="rotate(0.026003252858053064 50 100)" width="1" x="60" y="280" /><rect fill="none" height="1" stroke="black" stroke-width="1" transform="rotate(-3.8439099513276314 50 100)" width="1" x="60" y="290" /><rect fill="none" height="1" stroke="black" stroke-width="1" transform="rotate(-0.0 50 100)" width="1" x="70" y="0" /><rect fill="none" height="1" stroke="black" stroke-width="1" transform="rotate(-0.0005819405475341 50 100)" width="1" x="70" y="10" /><rect fill="none" height="1" stroke="black" stroke-width="1" transform="rotate(-0.014386592490569608 50 100)" width="1" x="70" y="20" /><rect fill="none" height="1" stroke="black" stroke-width="1" transform="rotate(-0.02625208766628467 50 100)" width="1" x="70" y="30" /><rect fill="none" height="1" stroke="black" stroke-width="1" transform="rotate(-0.06677953035091398 50 100)" width="1" x="70" y="40" /><rect fill="none" height="1" stroke="black" stroke-width="1" transform="rotate(0.005121583790398537 50 100)" width="1" x="70" y="50" /><rect fill="none" height="1" stroke="black" stroke-width="1" transform="rotate(0.01914397562300945 50 100)" width="1" x="70" y="60" /><rect fill="none" height="1" stroke="black" stroke-width="1" transform="rotate(-0.23163320502830267 50 100)" width="1" x="70" y="70" /><rect fill="none" height="1" stroke="black" stroke-width="1" transform="rotate(0.040775724519273165 50 100)" width="1" x="70" y="80" /><rect fill="none" height="1" stroke="black" stroke-width="1" transform="rotate(0.10801745553516062 50 100)" width="1" x="70" y="90" /><rect fill="none" height="1" stroke="black" stroke-width="1" transform="rotate(0.4301089326607962 50 100)" width="1" x="70" y="100" /><rect fill="none" height="1" stroke="black" stroke-width="1" transform="rotate(-0.36193251710298524 50 100)" width="1" x="70" y="110" /><rect fill="none" height="1" stroke="black" stroke-width="1" transform="rotate(0.12333014280515839 50 100)" width="1" x="70" y="120" /><rect fill="none" height="1" stroke="black" stroke-width="1" transform="rotate(0.7685290044370034 50 100)" width="1" x="70" y="130" /><rect fill="none" height="1" stroke="black" stroke-width="1" transform="rotate(0.5115623138151221 50 100)" width="1" x="70" y="140" /><rect fill="none" height="1" stroke="black" stroke-width="1" transform="rotate(0.5738096470337272 50 100)" width="1" x="70" y="150" /><rect fill="none" height="1" stroke="black" stroke-width="1" transform="rotate(-0.9346873789857213 50 100)" width="1" x="70" y="160" /><rect fill="none" height="1" stroke="black" stroke-width="1" transform="rotate(0.41909235758123664 50 100)" width="1" x="70" y="170" /><rect fill="none" height="1" stroke="black" stroke-width="1" transform="rotate(-0.6962054146504079 50 100)" width="1" x="70" y="180" /><rect fill="none" height="1" stroke="black" stroke-width="1" transform="rotate(-1.7789485666660718 50 100)" width="1" x="70" y="190" /><rect fill="none" height="1" stroke="black" stroke-width="1" transform="rotate(1.9544045679844657 50 100)" width="1" x="70" y="200" /><rect fill="none" height="1" stroke="black" stroke-width="1" transform="rotate(1.22323399240151 50 100)" width="1" x="70" y="210" /><rect fill="none" height="1" stroke="black" stroke-width="1" transform="rotate(0.7666661349143692 50 100)" width="1" x="70" y="220" /><rect fill="none" height="1" stroke="black" stroke-width="1" transform="rotate(-1.970277056578822 50 100)" width="1" x="70" y="230" /><rect fill="none" height="1" stroke="black" stroke-width="1" transform="rotate(-0.3625234295400688 50 100)" width="1" x="70" y="240" /><rect fill="none" height="1" stroke="black" stroke-width="1" transform="rotate(2.539089600391552 50 100)" width="1" x="70" y="250" /><rect fill="none" height="1" stroke="black" stroke-width="1" transform="rotate(-1.1987908346090208 50 100)" width="1" x="70" y="260" /><rect fill="none" height="1" stroke="black" stroke-width="1" transform="rotate(3.3650357425289705 50 100)" width="1" x="70" y="270" /><rect fill="none" height="1" stroke="black" stroke-width="1" transform="rotate(-1.2448397623765244 50 100)" width="1" x="70" y="280" /><rect fill="none" height="1" stroke="black" stroke-width="1" transform="rotate(-1.4287971408895797 50 100)" width="1" x="70" y="290" /><rect fill="none" height="1" stroke="black" stroke-width="1" transform="rotate(0.0 50 100)" width="1" x="80" y="0" /><rect fill="none" height="1" stroke="black" stroke-width="1" transform="rotate(0.004495495831441649 50 100)" width="1" x="80" y="10" /><rect fill="none" height="1" stroke="black" stroke-width="1" transform="rotate(-0.015544661249157894 50 100)" width="1" x="80" y="20" /><rect fill="none" height="1" stroke="black" stroke-width="1" transform="rotate(0.025409993155686653 50 100)" width="1" x="80" y="30" /><rect fill="none" height="1" stroke="black" stroke-width="1" transform="rotate(-0.03211883805574429 50 100)" width="1" x="80" y="40" /><rect fill="none" height="1" stroke="black" stroke-width="1" transform="rotate(0.0644064248816783 50 100)" width="1" x="80" y="50" /><rect fill="none" height="1" stroke="black" stroke-width="1" transform="rotate(-0.13623107771139023 50 100)" width="1" x="80" y="60" /><rect fill="none" height="1" stroke="black" stroke-width="1" transform="rotate(0.14585243787908206 50 100)" width="1" x="80" y="70" /><rect fill="none" height="1" stroke="black" stroke-width="1" transform="rotate(-0.17304306510380932 50 100)" width="1" x="80" y="80" /><rect fill="none" height="1" stroke="black" stroke-width="1" transform="rotate(0.2139440595579301 50 100)" width="1" x="80" y="90" /><rect fill="none" height="1" stroke="black" stroke-width="1" transform="rotate(-0.22077257756522584 50 100)" width="1" x="80" y="100" /><rect fill="none" height="1" stroke="black" stroke-width="1" transform="rotate(0.4721538690938755 50 100)" width="1" x="80" y="110" /><rect fill="none" height="1" stroke="black" stroke-width="1" transform="rotate(-0.6189708026086664 50 100)" width="1" x="80" y="120" /><rect fill="none" height="1" stroke="black" stroke-width="1" transform="rotate(-0.41420334794339 50 100)" width="1" x="80" y="130" /><rect fill="none" height="1" stroke="black" stroke-width="1" transform="rotate(-0.5260038648136294 50 100)" width="1" x="80" y="140" /><rect fill="none" height="1" stroke="black" stroke-width="1" transform="rotate(-0.9543342167338426 50 100)" width="1" x="80" y="150" /><rect fill="none" height="1" stroke="black" stroke-width="1" transform="rotate(0.847548493863664 50 100)" width="1" x="80" y="160" /><rect fill="none" height="1" stroke="black" stroke-width="1" transform="rotate(-0.38799989928671197 50 100)" width="1" x="80" y="170" /><rect fill="none" height="1" stroke="black" stroke-width="1" transform="rotate(-1.6038089287549575 50 100)" width="1" x="80" y="180" /><rect fill="none" height="1" stroke="black" stroke-width="1" transform="rotate(-0.9266536039339488 50 100)" width="1" x="80" y="190" /><rect fill="none" height="1" stroke="black" stroke-width="1" transform="rotate(-1.8789167278056167 50 100)" width="1" x="80" y="200" /><rect fill="none" height="1" stroke="black" stroke-width="1" transform="rotate(-1.074319953089929 50 100)" width="1" x="80" y="210" /><rect fill="none" height="1" stroke="black" stroke-width="1" transform="rotate(1.9238956144170505 50 100)" width="1" x="80" y="220" /><rect fill="none" height="1" stroke="black" stroke-width="1" transform="rotate(0.4385164120038742 50 100)" width="1" x="80" y="230" /><rect fill="none" height="1" stroke="black" stroke-width="1" transform="rotate(-1.520141608519751 50 100)" width="1" x="80" y="240" /><rect fill="none" height="1" stroke="black" stroke-width="1" transform="rotate(1.3552544872602423 50 100)" width="1" x="80" y="250" /><rect fill="none" height="1" stroke="black" stroke-width="1" transform="rotate(-1.9296952100828315 50 100)" width="1" x="80" y="260" /><rect fill="none" height="1" stroke="black" stroke-width="1" transform="rotate(-3.040687850059103 50 100)" width="1" x="80" y="270" /><rect fill="none" height="1" stroke="black" stroke-width="1" transform="rotate(1.4366507798561219 50 100)" width="1" x="80" y="280" /><rect fill="none" height="1" stroke="black" stroke-width="1" transform="rotate(-1.1760182551677856 50 100)" width="1" x="80" y="290" /><rect fill="none" height="1" stroke="black" stroke-width="1" transform="rotate(0.0 50 100)" width="1" x="90" y="0" /><rect fill="none" height="1" stroke="black" stroke-width="1" transform="rotate(-0.0015855907195124752 50 100)" width="1" x="90" y="10" /><rect fill="none" height="1" stroke="black" stroke-width="1" transform="rotate(-0.015834781968158032 50 100)" width="1" x="90" y="20" /><rect fill="none" height="1" stroke="black" stroke-width="1" transform="rotate(-0.005696599446750083 50 100)" width="1" x="90" y="30" /><rect fill="none" height="1" stroke="black" stroke-width="1" transform="rotate(-0.044199120820735766 50 100)" width="1" x="90" y="40" /><rect fill="none" height="1" stroke="black" stroke-width="1" transform="rotate(0.09257648737157603 50 100)" width="1" x="90" y="50" /><rect fill="none" height="1" stroke="black" stroke-width="1" transform="rotate(-0.027142620721602194 50 100)" width="1" x="90" y="60" /><rect fill="none" height="1" stroke="black" stroke-width="1" transform="rotate(-0.2369091391538692 50 100)" width="1" x="90" y="70" /><rect fill="none" height="1" stroke="black" stroke-width="1" transform="rotate(-0.1290628211039362 50 100)" width="1" x="90" y="80" /><rect fill="none" height="1" stroke="black" stroke-width="1" transform="rotate(0.35812277577432866 50 100)" width="1" x="90" y="90" /><rect fill="none" height="1" stroke="black" stroke-width="1" transform="rotate(0.4821174146029201 50 100)" width="1" x="90" y="100" /><rect fill="none" height="1" stroke="black" stroke-width="1" transform="rotate(-0.012754617600923314 50 100)" width="1" x="90" y="110" /><rect fill="none" height="1" stroke="black" stroke-width="1" transform="rotate(-0.501143937939584 50 100)" width="1" x="90" y="120" /><rect fill="none" height="1" stroke="black" stroke-width="1" transform="rotate(0.41956388927193544 50 100)" width="1" x="90" y="130" /><rect fill="none" height="1" stroke="black" stroke-width="1" transform="rotate(-0.07759294695356704 50 100)" width="1" x="90" y="140" /><rect fill="none" height="1" stroke="black" stroke-width="1" transform="rotate(0.4771820473125381 50 100)" width="1" x="90" y="150" /><rect fill="none" height="1" stroke="black" stroke-width="1" transform="rotate(1.0195781591411466 50 100)" width="1" x="90" y="160" /><rect fill="none" height="1" stroke="black" stroke-width="1" transform="rotate(-0.41433357613824995 50 100)" width="1" x="90" y="170" /><rect fill="none" height="1" stroke="black" stroke-width="1" transform="rotate(1.087528549994311 50 100)" width="1" x="90" y="180" /><rect fill="none" height="1" stroke="black" stroke-width="1" transform="rotate(-1.3567155407408338 50 100)" width="1" x="90" y="190" /><rect fill="none" height="1" stroke="black" stroke-width="1" transform="rotate(-0.686322705356297 50 100)" width="1" x="90" y="200" /><rect fill="none" height="1" stroke="black" stroke-width="1" transform="rotate(-0.7420374411258518 50 100)" width="1" x="90" y="210" /><rect fill="none" height="1" stroke="black" stroke-width="1" transform="rotate(2.145774091448691 50 100)" width="1" x="90" y="220" /><rect fill="none" height="1" stroke="black" stroke-width="1" transform="rotate(-1.0876592978013835 50 100)" width="1" x="90" y="230" /><rect fill="none" height="1" stroke="black" stroke-width="1" transform="rotate(2.6527039242708645 50 100)" width="1" x="90" y="240" /><rect fill="none" height="1" stroke="black" stroke-width="1" transform="rotate(0.5368171879218162 50 100)" width="1" x="90" y="250" /><rect fill="none" height="1" stroke="black" stroke-width="1" transform="rotate(2.269292544551999 50 100)" width="1" x="90" y="260" /><rect fill="none" height="1" stroke="black" stroke-width="1" transform="rotate(1.8000362804905956 50 100)" width="1" x="90" y="270" /><rect fill="none" height="1" stroke="black" stroke-width="1" transform="rotate(1.3369251647087632 50 100)" width="1" x="90" y="280" /><rect fill="none" height="1" stroke="black" stroke-width="1" transform="rotate(-2.193472967798523 50 100)" width="1" x="90" y="290" /></svg>