<?xml version="1.0" encoding="utf-8" ?>
<svg baseProfile="tiny" height="500" version="1.2" width="500" xmlns="http://www.w3.org/2000/svg" xmlns:ev="http://www.w3.org/2001/xml-events" xmlns:xlink="http://www.w3.org/1999/xlink"><defs /><rect fill="none" height="10.0" stroke="black" stroke-width="0.5" transform="rotate(-0.0 0 0)" width="10.0" x="0" y="0" /><rect fill="none" height="10.0" stroke="black" stroke-width="0.5" transform="rotate(0.025239944631592293 0 10)" width="10.0" x="0" y="10" /><rect fill="none" height="10.0" stroke="black" stroke-width="0.5" transform="rotate(-0.007396819798564857 0 20)" width="10.0" x="0" y="20" /><rect fill="none" height="10.0" stroke="black" stroke-width="0.5" transform="rotate(-0.14124130314101202 0 30)" width="10.0" x="0" y="30" /><rect fill="none" height="10.0" stroke="black" stroke-width="0.5" transform="rotate(0.2597742471833563 0 40)" width="10.0" x="0" y="40" /><rect fill="none" height="10.0" stroke="black" stroke-width="0.5" transform="rotate(0.7158395842624266 0 50)" width="10.0" x="0" y="50" /><rect fill="none" height="10.0" stroke="black" stroke-width="0.5" transform="rotate(-1.724648814028864 0 60)" width="10.0" x="0" y="60" /><rect fill="none" height="10.0" stroke="black" stroke-width="0.5" transform="rotate(-1.7898575272288533 0 70)" width="10.0" x="0" y="70" /><rect fill="none" height="10.0" stroke="black" stroke-width="0.5" transform="rotate(0.9672447533809055 0 80)" width="10.0" x="0" y="80" /><rect fill="none" height="10.0" stroke="black" stroke-width="0.5" transform="rotate(-3.4703739214269262 0 90)" width="10.0" x="0" y="90" /><rect fill="none" height="10.0" stroke="black" stroke-width="0.5" transform="rotate(-2.61636044825033 0 100)" width="10.0" x="0" y="100" /><rect fill="none" height="10.0" stroke="black" stroke-width="0.5" transform="rotate(5.538357323384325 0 110)" width="10.0" x="0" y="110" /><rect fill="none" height="10.0" stroke="black" stroke-width="0.5" transform="rotate(4.63203898441706 0 120)" width="10.0" x="0" y="120" /><rect fill="none" height="10.0" stroke="black" stroke-width="0.5" transform="rotate(-5.700426509320142 0 130)" width="10.0" x="0" y="130" /><rect fill="none" height="10.0" stroke="black" stroke-width="0.5" transform="rotate(7.013566733358171 0 140)" width="10.0" x="0" y="140" /><rect fill="none" height="10.0" stroke="black" stroke-width="0.5" transform="rotate(6.374401043581764 0 150)" width="10.0" x="0" y="150" /><rect fill="none" height="10.0" stroke="black" stroke-width="0.5" transform="rotate(-10.964059213083951 0 160)" width="10.0" x="0" y="160" /><rect fill="none" height="10.0" stroke="black" stroke-width="0.5" transform="rotate(-9.825271774151606 0 170)" width="10.0" x="0" y="170" /><rect fill="none" height="10.0" stroke="black" stroke-width="0.5" transform="rotate(5.335159957271397 0 180)" width="10.0" x="0" y="180" /><rect fill="none" height="10.0" stroke="black" stroke-width="0.5" transform="rotate(6.897390162511206 0 190)" width="10.0" x="0" y="190" /><rect fill="none" height="10.0" stroke="black" stroke-width="0.5" transform="rotate(-6.409677496829671 0 200)" width="10.0" x="0" y="200" /><rect fill="none" height="10.0" stroke="black" stroke-width="0.5" transform="rotate(2.6732974738469246 0 210)" width="10.0" x="0" y="210" /><rect fill="none" height="10.0" stroke="black" stroke-width="0.5" transform="rotate(-19.070732040385998 0 220)" width="10.0" x="0" y="220" /><rect fill="none" height="10.0" stroke="black" stroke-width="0.5" transform="rotate(-22.555340675016765 0 230)" width="10.0" x="0" y="230" /><rect fill="none" height="10.0" stroke="black" stroke-width="0.5" transform="rotate(12.800728405781157 0 240)" width="10.0" x="0" y="240" /><rect fill="none" height="10.0" stroke="black" stroke-width="0.5" transform="rotate(19.340356955389062 0 250)" width="10.0" x="0" y="250" /><rect fill="none" height="10.0" stroke="black" stroke-width="0.5" transform="rotate(29.881619219079578 0 260)" width="10.0" x="0" y="260" /><rect fill="none" height="10.0" stroke="black" stroke-width="0.5" transform="rotate(21.37378688455312 0 270)" width="10.0" x="0" y="270" /><rect fill="none" height="10.0" stroke="black" stroke-width="0.5" transform="rotate(29.738350714983845 0 280)" width="10.0" x="0" y="280" /><rect fill="none" height="10.0" stroke="black" stroke-width="0.5" transform="rotate(23.290603743923093 0 290)" width="10.0" x="0" y="290" /><rect fill="none" height="10.0" stroke="black" stroke-width="0.5" transform="rotate(0.0 10 0)" width="10.0" x="10" y="0" /><rect fill="none" height="10.0042" stroke="black" stroke-width="0.5" transform="rotate(0.006272311345579718 10 10)" width="9.997" x="10" y="10" /><rect fill="none" height="10.0042" stroke="black" stroke-width="0.5" transform="rotate(-0.07576170779744121 10 20)" width="9.992" x="10" y="20" /><rect fill="none" height="10.0065" stroke="black" stroke-width="0.5" transform="rotate(0.13632850333988672 10 30)" width="10.0037" x="10" y="30" /><rect fill="none" height="10.0138" stroke="black" stroke-width="0.5" transform="rotate(0.3792012522494078 10 40)" width="10.0158" x="10" y="40" /><rect fill="none" height="9.993" stroke="black" stroke-width="0.5" transform="rotate(1.0474820739698583 10 50)" width="10.0175" x="10" y="50" /><rect fill="none" height="10.0145" stroke="black" stroke-width="0.5" transform="rotate(1.7391716999579412 10 60)" width="10.0293" x="10" y="60" /><rect fill="none" height="9.9797" stroke="black" stroke-width="0.5" transform="rotate(2.2404037673203514 10 70)" width="10.0034" x="10" y="70" /><rect fill="none" height="9.9711" stroke="black" stroke-width="0.5" transform="rotate(0.5417264371579605 10 80)" width="9.9821" x="10" y="80" /><rect fill="none" height="10.0236" stroke="black" stroke-width="0.5" transform="rotate(0.5060095941125161 10 90)" width="10.0086" x="10" y="90" /><rect fill="none" height="9.9995" stroke="black" stroke-width="0.5" transform="rotate(0.8811980606181002 10 100)" width="10.0322" x="10" y="100" /><rect fill="none" height="9.9834" stroke="black" stroke-width="0.5" transform="rotate(-1.9077608035696563 10 110)" width="9.9617" x="10" y="110" /><rect fill="none" height="9.9477" stroke="black" stroke-width="0.5" transform="rotate(-4.732255860293027 10 120)" width="10.0012" x="10" y="120" /><rect fill="none" height="10.024" stroke="black" stroke-width="0.5" transform="rotate(-5.376894599306735 10 130)" width="9.9817" x="10" y="130" /><rect fill="none" height="9.9388" stroke="black" stroke-width="0.5" transform="rotate(5.664467985345493 10 140)" width="10.0481" x="10" y="140" /><rect fill="none" height="10.0181" stroke="black" stroke-width="0.5" transform="rotate(-3.0835828620535928 10 150)" width="9.9648" x="10" y="150" /><rect fill="none" height="9.9458" stroke="black" stroke-width="0.5" transform="rotate(-2.707445538606598 10 160)" width="9.9603" x="10" y="160" /><rect fill="none" height="9.9294" stroke="black" stroke-width="0.5" transform="rotate(7.603190524416266 10 170)" width="10.0472" x="10" y="170" /><rect fill="none" height="10.0494" stroke="black" stroke-width="0.5" transform="rotate(4.97267744569969 10 180)" width="9.9157" x="10" y="180" /><rect fill="none" height="9.9187" stroke="black" stroke-width="0.5" transform="rotate(1.5811602564845968 10 190)" width="9.9299" x="10" y="190" /><rect fill="none" height="9.9277" stroke="black" stroke-width="0.5" transform="rotate(16.916157730222654 10 200)" width="9.9344" x="10" y="200" /><rect fill="none" height="9.9787" stroke="black" stroke-width="0.5" transform="rotate(-4.806117044189209 10 210)" width="9.9974" x="10" y="210" /><rect fill="none" height="10.0514" stroke="black" stroke-width="0.5" transform="rotate(-2.9522017933644245 10 220)" width="9.935" x="10" y="220" /><rect fill="none" height="9.892" stroke="black" stroke-width="0.5" transform="rotate(3.5034844640395115 10 230)" width="10.1033" x="10" y="230" /><rect fill="none" height="9.9915" stroke="black" stroke-width="0.5" transform="rotate(25.186652098624958 10 240)" width="9.9722" x="10" y="240" /><rect fill="none" height="10.092" stroke="black" stroke-width="0.5" transform="rotate(0.531785441961606 10 250)" width="9.9125" x="10" y="250" /><rect fill="none" height="10.0905" stroke="black" stroke-width="0.5" transform="rotate(20.446790007723347 10 260)" width="9.9379" x="10" y="260" /><rect fill="none" height="9.9961" stroke="black" stroke-width="0.5" transform="rotate(-18.481031382265623 10 270)" width="9.907" x="10" y="270" /><rect fill="none" height="10.114" stroke="black" stroke-width="0.5" transform="rotate(-17.429061407701845 10 280)" width="9.908" x="10" y="280" /><rect fill="none" height="10.1088" stroke="black" stroke-width="0.5" transform="rotate(1.1120838385953014 10 290)" width="10.1385" x="10" y="290" /><rect fill="none" height="10.0" stroke="black" stroke-width="0.5" transform="rotate(0.0 20 0)" width="10.0" x="20" y="0" /><rect fill="none" height="10.0023" stroke="black" stroke-width="0.5" transform="rotate(0.027005153554372607 20 10)" width="9.9904" x="20" y="10" /><rect fill="none" height="10.0135" stroke="black" stroke-width="0.5" transform="rotate(-0.13594537995970396 20 20)" width="9.9819" x="20" y="20" /><rect fill="none" height="9.9934" stroke="black" stroke-width="0.5" transform="rotate(0.3436249545005349 20 30)" width="10.0063" x="20" y="30" /><rect fill="none" height="10.0283" stroke="black" stroke-width="0.5" transform="rotate(-0.6972425695199478 20 40)" width="10.0222" x="20" y="40" /><rect fill="none" height="9.9864" stroke="black" stroke-width="0.5" transform="rotate(-1.193885105356045 20 50)" width="9.9921" x="20" y="50" /><rect fill="none" height="10.0044" stroke="black" stroke-width="0.5" transform="rotate(-0.9362887567458978 20 60)" width="10.0527" x="20" y="60" /><rect fill="none" height="9.9957" stroke="black" stroke-width="0.5" transform="rotate(-0.6211532559212798 20 70)" width="10.0278" x="20" y="70" /><rect fill="none" height="9.9823" stroke="black" stroke-width="0.5" transform="rotate(-1.9435468962329936 20 80)" width="9.9879" x="20" y="80" /><rect fill="none" height="10.0509" stroke="black" stroke-width="0.5" transform="rotate(2.839710526772051 20 90)" width="9.9294" x="20" y="90" /><rect fill="none" height="9.9434" stroke="black" stroke-width="0.5" transform="rotate(-4.917807965100803 20 100)" width="9.9979" x="20" y="100" /><rect fill="none" height="10.0898" stroke="black" stroke-width="0.5" transform="rotate(3.093704228090161 20 110)" width="9.9959" x="20" y="110" /><rect fill="none" height="9.9176" stroke="black" stroke-width="0.5" transform="rotate(-1.936680112238807 20 120)" width="9.8936" x="20" y="120" /><rect fill="none" height="9.9901" stroke="black" stroke-width="0.5" transform="rotate(-8.045946288103197 20 130)" width="9.9635" x="20" y="130" /><rect fill="none" height="9.9156" stroke="black" stroke-width="0.5" transform="rotate(-8.226583254279848 20 140)" width="9.9299" x="20" y="140" /><rect fill="none" height="10.03" stroke="black" stroke-width="0.5" transform="rotate(-5.457008783749972 20 150)" width="10.1309" x="20" y="150" /><rect fill="none" height="10.0312" stroke="black" stroke-width="0.5" transform="rotate(-12.734218326093776 20 160)" width="10.1536" x="20" y="160" /><rect fill="none" height="9.9796" stroke="black" stroke-width="0.5" transform="rotate(8.539245553331364 20 170)" width="9.8858" x="20" y="170" /><rect fill="none" height="10.1355" stroke="black" stroke-width="0.5" transform="rotate(-6.398780573075173 20 180)" width="10.0605" x="20" y="180" /><rect fill="none" height="10.0704" stroke="black" stroke-width="0.5" transform="rotate(-17.24344990168558 20 190)" width="10.1318" x="20" y="190" /><rect fill="none" height="10.0486" stroke="black" stroke-width="0.5" transform="rotate(-7.683051952767239 20 200)" width="10.0647" x="20" y="200" /><rect fill="none" height="10.188" stroke="black" stroke-width="0.5" transform="rotate(-15.593344410233566 20 210)" width="9.8472" x="20" y="210" /><rect fill="none" height="9.9152" stroke="black" stroke-width="0.5" transform="rotate(-14.079474216289398 20 220)" width="9.9012" x="20" y="220" /><rect fill="none" height="10.1088" stroke="black" stroke-width="0.5" transform="rotate(4.761034832349312 20 230)" width="10.1301" x="20" y="230" /><rect fill="none" height="9.858" stroke="black" stroke-width="0.5" transform="rotate(-2.5561031704663044 20 240)" width="10.1243" x="20" y="240" /><rect fill="none" height="10.1115" stroke="black" stroke-width="0.5" transform="rotate(-11.588125869264442 20 250)" width="9.9031" x="20" y="250" /><rect fill="none" height="9.9426" stroke="black" stroke-width="0.5" transform="rotate(9.07687546768196 20 260)" width="9.8325" x="20" y="260" /><rect fill="none" height="9.7841" stroke="black" stroke-width="0.5" transform="rotate(-28.610073815418247 20 270)" width="10.1052" x="20" y="270" /><rect fill="none" height="10.0828" stroke="black" stroke-width="0.5" transform="rotate(6.880074996628908 20 280)" width="9.8054" x="20" y="280" /><rect fill="none" height="9.8058" stroke="black" stroke-width="0.5" transform="rotate(-39.11080811501536 20 290)" width="9.758" x="20" y="290" /><rect fill="none" height="10.0" stroke="black" stroke-width="0.5" transform="rotate(-0.0 30 0)" width="10.0" x="30" y="0" /><rect fill="none" height="10.0045" stroke="black" stroke-width="0.5" transform="rotate(-0.018339289344352538 30 10)" width="9.9957" x="30" y="10" /><rect fill="none" height="9.9906" stroke="black" stroke-width="0.5" transform="rotate(-0.12120434405468598 30 20)" width="10.0146" x="30" y="20" /><rect fill="none" height="10.0339" stroke="black" stroke-width="0.5" transform="rotate(-0.21802132162419424 30 30)" width="10.0204" x="30" y="30" /><rect fill="none" height="9.9819" stroke="black" stroke-width="0.5" transform="rotate(0.24595473166254908 30 40)" width="9.9951" x="30" y="40" /><rect fill="none" height="9.9805" stroke="black" stroke-width="0.5" transform="rotate(-0.8248816665874262 30 50)" width="10.0519" x="30" y="50" /><rect fill="none" height="9.9904" stroke="black" stroke-width="0.5" transform="rotate(-0.06819412777296811 30 60)" width="10.0596" x="30" y="60" /><rect fill="none" height="10.0829" stroke="black" stroke-width="0.5" transform="rotate(1.1829630870607861 30 70)" width="9.9766" x="30" y="70" /><rect fill="none" height="9.91" stroke="black" stroke-width="0.5" transform="rotate(0.2862037474005767 30 80)" width="9.8985" x="30" y="80" /><rect fill="none" height="10.0833" stroke="black" stroke-width="0.5" transform="rotate(1.2097224669562308 30 90)" width="9.9056" x="30" y="90" /><rect fill="none" height="9.9918" stroke="black" stroke-width="0.5" transform="rotate(0.9464004106871137 30 100)" width="9.9247" x="30" y="100" /><rect fill="none" height="10.0557" stroke="black" stroke-width="0.5" transform="rotate(1.404386735355402 30 110)" width="9.8955" x="30" y="110" /><rect fill="none" height="10.151" stroke="black" stroke-width="0.5" transform="rotate(-1.8857742288017456 30 120)" width="10.0677" x="30" y="120" /><rect fill="none" height="9.8725" stroke="black" stroke-width="0.5" transform="rotate(4.672746393339405 30 130)" width="10.1134" x="30" y="130" /><rect fill="none" height="9.9329" stroke="black" stroke-width="0.5" transform="rotate(2.352384289515774 30 140)" width="9.9934" x="30" y="140" /><rect fill="none" height="10.2103" stroke="black" stroke-width="0.5" transform="rotate(7.809062511887893 30 150)" width="10.0095" x="30" y="150" /><rect fill="none" height="10.148" stroke="black" stroke-width="0.5" transform="rotate(2.4578387091317837 30 160)" width="10.0008" x="30" y="160" /><rect fill="none" height="10.0047" stroke="black" stroke-width="0.5" transform="rotate(1.4592336351250295 30 170)" width="9.8507" x="30" y="170" /><rect fill="none" height="9.7824" stroke="black" stroke-width="0.5" transform="rotate(-2.687557823152804 30 180)" width="9.8831" x="30" y="180" /><rect fill="none" height="10.1193" stroke="black" stroke-width="0.5" transform="rotate(6.878523276999838 30 190)" width="10.2336" x="30" y="190" /><rect fill="none" height="10.0824" stroke="black" stroke-width="0.5" transform="rotate(-14.962007375880608 30 200)" width="9.7322" x="30" y="200" /><rect fill="none" height="10.3097" stroke="black" stroke-width="0.5" transform="rotate(-18.051740782656502 30 210)" width="10.2048" x="30" y="210" /><rect fill="none" height="10.1555" stroke="black" stroke-width="0.5" transform="rotate(-1.1348048161034292 30 220)" width="10.0975" x="30" y="220" /><rect fill="none" height="9.6581" stroke="black" stroke-width="0.5" transform="rotate(-1.944059879809009 30 230)" width="10.0528" x="30" y="230" /><rect fill="none" height="10.2899" stroke="black" stroke-width="0.5" transform="rotate(-17.138748619850755 30 240)" width="10.0753" x="30" y="240" /><rect fill="none" height="10.0349" stroke="black" stroke-width="0.5" transform="rotate(-20.13826830956026 30 250)" width="9.9136" x="30" y="250" /><rect fill="none" height="9.6261" stroke="black" stroke-width="0.5" transform="rotate(-20.21427644696917 30 260)" width="10.374" x="30" y="260" /><rect fill="none" height="9.9397" stroke="black" stroke-width="0.5" transform="rotate(25.075269720776728 30 270)" width="10.2189" x="30" y="270" /><rect fill="none" height="10.3344" stroke="black" stroke-width="0.5" transform="rotate(-28.169738565477907 30 280)" width="10.4033" x="30" y="280" /><rect fill="none" height="9.6806" stroke="black" stroke-width="0.5" transform="rotate(22.593334934545975 30 290)" width="10.1824" x="30" y="290" /><rect fill="none" height="10.0" stroke="black" stroke-width="0.5" transform="rotate(0.0 40 0)" width="10.0" x="40" y="0" /><rect fill="none" height="9.9863" stroke="black" stroke-width="0.5" transform="rotate(0.02100308092924359 40 10)" width="9.996" x="40" y="10" /><rect fill="none" height="9.9683" stroke="black" stroke-width="0.5" transform="rotate(-0.07321955051716493 40 20)" width="9.9712" x="40" y="20" /><rect fill="none" height="9.9434" stroke="black" stroke-width="0.5" transform="rotate(0.14981639115229592 40 30)" width="10.0462" x="40" y="30" /><rect fill="none" height="9.9272" stroke="black" stroke-width="0.5" transform="rotate(-0.07331479735486983 40 40)" width="10.0596" x="40" y="40" /><rect fill="none" height="9.9633" stroke="black" stroke-width="0.5" transform="rotate(-0.9019418705625377 40 50)" width="10.0787" x="40" y="50" /><rect fill="none" height="9.9265" stroke="black" stroke-width="0.5" transform="rotate(1.2788286234863293 40 60)" width="9.9854" x="40" y="60" /><rect fill="none" height="9.9146" stroke="black" stroke-width="0.5" transform="rotate(-0.44735379918859436 40 70)" width="9.8806" x="40" y="70" /><rect fill="none" height="10.0994" stroke="black" stroke-width="0.5" transform="rotate(-1.5435591650244205 40 80)" width="9.9542" x="40" y="80" /><rect fill="none" height="9.9698" stroke="black" stroke-width="0.5" transform="rotate(-0.5004342317387123 40 90)" width="10.1748" x="40" y="90" /><rect fill="none" height="10.1998" stroke="black" stroke-width="0.5" transform="rotate(-3.693716030869383 40 100)" width="10.1492" x="40" y="100" /><rect fill="none" height="10.1106" stroke="black" stroke-width="0.5" transform="rotate(-4.588513981643397 40 110)" width="10.0256" x="40" y="110" /><rect fill="none" height="10.174" stroke="black" stroke-width="0.5" transform="rotate(-6.20799162062483 40 120)" width="10.2204" x="40" y="120" /><rect fill="none" height="10.0664" stroke="black" stroke-width="0.5" transform="rotate(-6.663205562962358 40 130)" width="9.9809" x="40" y="130" /><rect fill="none" height="10.1856" stroke="black" stroke-width="0.5" transform="rotate(7.480182022184984 40 140)" width="9.817" x="40" y="140" /><rect fill="none" height="10.1946" stroke="black" stroke-width="0.5" transform="rotate(7.7080638048414185 40 150)" width="9.7924" x="40" y="150" /><rect fill="none" height="9.794" stroke="black" stroke-width="0.5" transform="rotate(11.697357590275113 40 160)" width="9.9974" x="40" y="160" /><rect fill="none" height="10.3218" stroke="black" stroke-width="0.5" transform="rotate(11.183562782656079 40 170)" width="9.9668" x="40" y="170" /><rect fill="none" height="9.9313" stroke="black" stroke-width="0.5" transform="rotate(4.882137922974229 40 180)" width="10.3531" x="40" y="180" /><rect fill="none" height="9.9526" stroke="black" stroke-width="0.5" transform="rotate(-9.458255057001853 40 190)" width="10.3296" x="40" y="190" /><rect fill="none" height="9.6975" stroke="black" stroke-width="0.5" transform="rotate(2.1574673288633672 40 200)" width="10.1528" x="40" y="200" /><rect fill="none" height="10.2994" stroke="black" stroke-width="0.5" transform="rotate(19.259084028216584 40 210)" width="10.097" x="40" y="210" /><rect fill="none" height="10.1239" stroke="black" stroke-width="0.5" transform="rotate(-9.818086084250398 40 220)" width="10.1589" x="40" y="220" /><rect fill="none" height="10.3687" stroke="black" stroke-width="0.5" transform="rotate(-10.115524779997159 40 230)" width="9.6329" x="40" y="230" /><rect fill="none" height="10.0263" stroke="black" stroke-width="0.5" transform="rotate(-6.500042688227697 40 240)" width="10.4487" x="40" y="240" /><rect fill="none" height="10.4941" stroke="black" stroke-width="0.5" transform="rotate(-22.84142637441547 40 250)" width="10.055" x="40" y="250" /><rect fill="none" height="9.9007" stroke="black" stroke-width="0.5" transform="rotate(-28.296378334604885 40 260)" width="10.1752" x="40" y="260" /><rect fill="none" height="9.6469" stroke="black" stroke-width="0.5" transform="rotate(-7.8213847357562925 40 270)" width="9.9174" x="40" y="270" /><rect fill="none" height="10.1096" stroke="black" stroke-width="0.5" transform="rotate(-31.739622079182702 40 280)" width="10.5335" x="40" y="280" /><rect fill="none" height="9.983" stroke="black" stroke-width="0.5" transform="rotate(29.583093514731168 40 290)" width="10.3098" x="40" y="290" /><rect fill="none" height="10.0" stroke="black" stroke-width="0.5" transform="rotate(0.0 50 0)" width="10.0" x="50" y="0" /><rect fill="none" height="9.9918" stroke="black" stroke-width="0.5" transform="rotate(-0.03317571588599264 50 10)" width="10.0184" x="50" y="10" /><rect fill="none" height="9.9503" stroke="black" stroke-width="0.5" transform="rotate(-0.11018335464720419 50 20)" width="9.9829" x="50" y="20" /><rect fill="none" height="9.9695" stroke="black" stroke-width="0.5" transform="rotate(0.09443715632684414 50 30)" width="9.948" x="50" y="30" /><rect fill="none" height="10.0946" stroke="black" stroke-width="0.5" transform="rotate(0.4632009398588265 50 40)" width="9.9062" x="50" y="40" /><rect fill="none" height="10.0854" stroke="black" stroke-width="0.5" transform="rotate(0.08309689129311432 50 50)" width="10.0211" x="50" y="50" /><rect fill="none" height="9.9451" stroke="black" stroke-width="0.5" transform="rotate(1.141636939543274 50 60)" width="9.9923" x="50" y="60" /><rect fill="none" height="10.0758" stroke="black" stroke-width="0.5" transform="rotate(2.1172342691585135 50 70)" width="9.8779" x="50" y="70" /><rect fill="none" height="9.9154" stroke="black" stroke-width="0.5" transform="rotate(0.6933528429438468 50 80)" width="10.0565" x="50" y="80" /><rect fill="none" height="9.797" stroke="black" stroke-width="0.5" transform="rotate(1.2137079470780843 50 90)" width="10.168" x="50" y="90" /><rect fill="none" height="9.8475" stroke="black" stroke-width="0.5" transform="rotate(-0.6784460238527934 50 100)" width="9.8883" x="50" y="100" /><rect fill="none" height="9.7525" stroke="black" stroke-width="0.5" transform="rotate(5.804683498798927 50 110)" width="9.8732" x="50" y="110" /><rect fill="none" height="9.7858" stroke="black" stroke-width="0.5" transform="rotate(-0.6099293874427261 50 120)" width="9.7338" x="50" y="120" /><rect fill="none" height="9.7242" stroke="black" stroke-width="0.5" transform="rotate(5.927508254040821 50 130)" width="9.9454" x="50" y="130" /><rect fill="none" height="9.6986" stroke="black" stroke-width="0.5" transform="rotate(0.4933649010011528 50 140)" width="9.8064" x="50" y="140" /><rect fill="none" height="9.6728" stroke="black" stroke-width="0.5" transform="rotate(-3.021676178105135 50 150)" width="9.7786" x="50" y="150" /><rect fill="none" height="10.1902" stroke="black" stroke-width="0.5" transform="rotate(-9.649108233676861 50 160)" width="10.2448" x="50" y="160" /><rect fill="none" height="10.2206" stroke="black" stroke-width="0.5" transform="rotate(9.434932276194886 50 170)" width="9.939" x="50" y="170" /><rect fill="none" height="10.2267" stroke="black" stroke-width="0.5" transform="rotate(12.962528923999079 50 180)" width="9.9276" x="50" y="180" /><rect fill="none" height="9.8026" stroke="black" stroke-width="0.5" transform="rotate(-6.175236868964128 50 190)" width="10.2417" x="50" y="190" /><rect fill="none" height="10.2575" stroke="black" stroke-width="0.5" transform="rotate(4.017163801481072 50 200)" width="10.1846" x="50" y="200" /><rect fill="none" height="9.6638" stroke="black" stroke-width="0.5" transform="rotate(6.857235571424513 50 210)" width="10.2099" x="50" y="210" /><rect fill="none" height="9.7426" stroke="black" stroke-width="0.5" transform="rotate(-6.361009695286338 50 220)" width="9.5066" x="50" y="220" /><rect fill="none" height="10.4448" stroke="black" stroke-width="0.5" transform="rotate(-3.8368202712141466 50 230)" width="9.7756" x="50" y="230" /><rect fill="none" height="9.8234" stroke="black" stroke-width="0.5" transform="rotate(15.803679110315922 50 240)" width="9.7131" x="50" y="240" /><rect fill="none" height="9.7686" stroke="black" stroke-width="0.5" transform="rotate(25.065699783950226 50 250)" width="10.2053" x="50" y="250" /><rect fill="none" height="9.7226" stroke="black" stroke-width="0.5" transform="rotate(-8.947734058988804 50 260)" width="9.3779" x="50" y="260" /><rect fill="none" height="9.4292" stroke="black" stroke-width="0.5" transform="rotate(-12.952197607151799 50 270)" width="9.3651" x="50" y="270" /><rect fill="none" height="9.8269" stroke="black" stroke-width="0.5" transform="rotate(-4.07204520735015 50 280)" width="9.8063" x="50" y="280" /><rect fill="none" height="9.4417" stroke="black" stroke-width="0.5" transform="rotate(-34.90043191674069 50 290)" width="10.4954" x="50" y="290" /><rect fill="none" height="10.0" stroke="black" stroke-width="0.5" transform="rotate(-0.0 60 0)" width="10.0" x="60" y="0" /><rect fill="none" height="10.0205" stroke="black" stroke-width="0.5" transform="rotate(-0.0025070818362599835 60 10)" width="9.9709" x="60" y="10" /><rect fill="none" height="10.0036" stroke="black" stroke-width="0.5" transform="rotate(-0.12304961771155014 60 20)" width="9.9705" x="60" y="20" /><rect fill="none" height="9.9727" stroke="black" stroke-width="0.5" transform="rotate(0.3511840641563818 60 30)" width="10.0029" x="60" y="30" /><rect fill="none" height="10.0369" stroke="black" stroke-width="0.5" transform="rotate(0.4692179451614965 60 40)" width="9.9445" x="60" y="40" /><rect fill="none" height="10.088" stroke="black" stroke-width="0.5" transform="rotate(-0.6451435598544022 60 50)" width="10.0366" x="60" y="50" /><rect fill="none" height="9.9968" stroke="black" stroke-width="0.5" transform="rotate(1.6427681057804109 60 60)" width="9.8313" x="60" y="60" /><rect fill="none" height="10.1259" stroke="black" stroke-width="0.5" transform="rotate(1.1774604709392915 60 70)" width="10.1377" x="60" y="70" /><rect fill="none" height="10.0759" stroke="black" stroke-width="0.5" transform="rotate(2.748627707168372 60 80)" width="10.1509" x="60" y="80" /><rect fill="none" height="10.1465" stroke="black" stroke-width="0.5" transform="rotate(-2.3713077791610546 60 90)" width="10.2603" x="60" y="90" /><rect fill="none" height="10.1109" stroke="black" stroke-width="0.5" transform="rotate(-3.210147142618916 60 100)" width="10.083" x="60" y="100" /><rect fill="none" height="10.2746" stroke="black" stroke-width="0.5" transform="rotate(2.2377541553355114 60 110)" width="9.9955" x="60" y="110" /><rect fill="none" height="10.0843" stroke="black" stroke-width="0.5" transform="rotate(1.7984410914390587 60 120)" width="10.0022" x="60" y="120" /><rect fill="none" height="10.1705" stroke="black" stroke-width="0.5" transform="rotate(-5.847977805976408 60 130)" width="10.2249" x="60" y="130" /><rect fill="none" height="9.711" stroke="black" stroke-width="0.5" transform="rotate(-0.4372398659404178 60 140)" width="10.1397" x="60" y="140" /><rect fill="none" height="10.4419" stroke="black" stroke-width="0.5" transform="rotate(9.503943737952397 60 150)" width="10.3274" x="60" y="150" /><rect fill="none" height="10.4645" stroke="black" stroke-width="0.5" transform="rotate(1.9533746373961178 60 160)" width="9.6787" x="60" y="160" /><rect fill="none" height="9.6846" stroke="black" stroke-width="0.5" transform="rotate(11.722300720409336 60 170)" width="10.2366" x="60" y="170" /><rect fill="none" height="10.4264" stroke="black" stroke-width="0.5" transform="rotate(4.349061096679679 60 180)" width="10.1502" x="60" y="180" /><rect fill="none" height="9.7322" stroke="black" stroke-width="0.5" transform="rotate(6.944537678829578 60 190)" width="10.3659" x="60" y="190" /><rect fill="none" height="9.9362" stroke="black" stroke-width="0.5" transform="rotate(1.3799657698814238 60 200)" width="9.4583" x="60" y="200" /><rect fill="none" height="9.7277" stroke="black" stroke-width="0.5" transform="rotate(18.466136062419263 60 210)" width="9.5781" x="60" y="210" /><rect fill="none" height="9.4944" stroke="black" stroke-width="0.5" transform="rotate(3.771489629830011 60 220)" width="9.6849" x="60" y="220" /><rect fill="none" height="10.3732" stroke="black" stroke-width="0.5" transform="rotate(-9.498056924008544 60 230)" width="9.7314" x="60" y="230" /><rect fill="none" height="9.9471" stroke="black" stroke-width="0.5" transform="rotate(-13.246384167956032 60 240)" width="10.4202" x="60" y="240" /><rect fill="none" height="10.0332" stroke="black" stroke-width="0.5" transform="rotate(-8.099366078364556 60 250)" width="10.0547" x="60" y="250" /><rect fill="none" height="9.8496" stroke="black" stroke-width="0.5" transform="rotate(6.386667145765622 60 260)" width="10.6722" x="60" y="260" /><rect fill="none" height="9.2619" stroke="black" stroke-width="0.5" transform="rotate(-11.624480380169427 60 270)" width="10.3204" x="60" y="270" /><rect fill="none" height="9.7065" stroke="black" stroke-width="0.5" transform="rotate(-28.967375032678024 60 280)" width="10.1903" x="60" y="280" /><rect fill="none" height="9.5659" stroke="black" stroke-width="0.5" transform="rotate(6.088244776218768 60 290)" width="10.2372" x="60" y="290" /><rect fill="none" height="10.0" stroke="black" stroke-width="0.5" transform="rotate(0.0 70 0)" width="10.0" x="70" y="0" /><rect fill="none" height="9.9878" stroke="black" stroke-width="0.5" transform="rotate(0.0376504872335295 70 10)" width="9.9884" x="70" y="10" /><rect fill="none" height="9.9683" stroke="black" stroke-width="0.5" transform="rotate(0.06868814693396667 70 20)" width="10.04" x="70" y="20" /><rect fill="none" height="10.0677" stroke="black" stroke-width="0.5" transform="rotate(-0.06567039956699425 70 30)" width="9.9677" x="70" y="30" /><rect fill="none" height="10.0501" stroke="black" stroke-width="0.5" transform="rotate(0.425263612786919 70 40)" width="10.0159" x="70" y="40" /><rect fill="none" height="9.8811" stroke="black" stroke-width="0.5" transform="rotate(-0.37202744391993475 70 50)" width="10.025" x="70" y="50" /><rect fill="none" height="10.1372" stroke="black" stroke-width="0.5" transform="rotate(0.9907611976707624 70 60)" width="10.1147" x="70" y="60" /><rect fill="none" height="9.8931" stroke="black" stroke-width="0.5" transform="rotate(-0.27558334351315306 70 70)" width="9.9844" x="70" y="70" /><rect fill="none" height="10.232" stroke="black" stroke-width="0.5" transform="rotate(0.4241896157645712 70 80)" width="10.1652" x="70" y="80" /><rect fill="none" height="9.8825" stroke="black" stroke-width="0.5" transform="rotate(-0.9696405985862453 70 90)" width="10.2313" x="70" y="90" /><rect fill="none" height="10.2684" stroke="black" stroke-width="0.5" transform="rotate(3.3853425927934913 70 100)" width="10.1125" x="70" y="100" /><rect fill="none" height="10.0897" stroke="black" stroke-width="0.5" transform="rotate(-5.303060685413429 70 110)" width="9.6639" x="70" y="110" /><rect fill="none" height="10.3462" stroke="black" stroke-width="0.5" transform="rotate(-6.43701936280821 70 120)" width="10.1949" x="70" y="120" /><rect fill="none" height="10.3645" stroke="black" stroke-width="0.5" transform="rotate(-5.683318354254495 70 130)" width="10.3982" x="70" y="130" /><rect fill="none" height="10.0144" stroke="black" stroke-width="0.5" transform="rotate(6.78677298326148 70 140)" width="9.6142" x="70" y="140" /><rect fill="none" height="10.3527" stroke="black" stroke-width="0.5" transform="rotate(10.833838813043922 70 150)" width="10.2677" x="70" y="150" /><rect fill="none" height="10.1316" stroke="black" stroke-width="0.5" transform="rotate(4.319632952191958 70 160)" width="9.6328" x="70" y="160" /><rect fill="none" height="10.4778" stroke="black" stroke-width="0.5" transform="rotate(-14.061434946309111 70 170)" width="10.1391" x="70" y="170" /><rect fill="none" height="10.1308" stroke="black" stroke-width="0.5" transform="rotate(12.64228765169307 70 180)" width="9.6077" x="70" y="180" /><rect fill="none" height="10.1423" stroke="black" stroke-width="0.5" transform="rotate(-15.967572655181462 70 190)" width="9.7041" x="70" y="190" /><rect fill="none" height="10.017" stroke="black" stroke-width="0.5" transform="rotate(13.722830136092208 70 200)" width="9.6223" x="70" y="200" /><rect fill="none" height="9.5425" stroke="black" stroke-width="0.5" transform="rotate(-1.9359119840717338 70 210)" width="10.315" x="70" y="210" /><rect fill="none" height="9.563" stroke="black" stroke-width="0.5" transform="rotate(-16.646932510472563 70 220)" width="10.5399" x="70" y="220" /><rect fill="none" height="9.8426" stroke="black" stroke-width="0.5" transform="rotate(-4.9759020280686475 70 230)" width="9.3054" x="70" y="230" /><rect fill="none" height="10.6058" stroke="black" stroke-width="0.5" transform="rotate(-8.316587713532863 70 240)" width="10.4483" x="70" y="240" /><rect fill="none" height="9.3935" stroke="black" stroke-width="0.5" transform="rotate(-9.317590584614663 70 250)" width="9.1926" x="70" y="250" /><rect fill="none" height="10.8871" stroke="black" stroke-width="0.5" transform="rotate(33.069936505298 70 260)" width="9.245" x="70" y="260" /><rect fill="none" height="9.8791" stroke="black" stroke-width="0.5" transform="rotate(30.315696407973384 70 270)" width="10.485" x="70" y="270" /><rect fill="none" height="9.7704" stroke="black" stroke-width="0.5" transform="rotate(-27.20695708136725 70 280)" width="10.7181" x="70" y="280" /><rect fill="none" height="9.3444" stroke="black" stroke-width="0.5" transform="rotate(-35.85939773033902 70 290)" width="10.4495" x="70" y="290" /><rect fill="none" height="10.0" stroke="black" stroke-width="0.5" transform="rotate(-0.0 80 0)" width="10.0" x="80" y="0" /><rect fill="none" height="10.029" stroke="black" stroke-width="0.5" transform="rotate(0.014242869108043421 80 10)" width="10.0019" x="80" y="10" /><rect fill="none" height="9.9993" stroke="black" stroke-width="0.5" transform="rotate(-0.05739539447466644 80 20)" width="10.0235" x="80" y="20" /><rect fill="none" height="10.0234" stroke="black" stroke-width="0.5" transform="rotate(0.042953532003534745 80 30)" width="10.0841" x="80" y="30" /><rect fill="none" height="9.8736" stroke="black" stroke-width="0.5" transform="rotate(0.30010914076366524 80 40)" width="9.855" x="80" y="40" /><rect fill="none" height="9.9004" stroke="black" stroke-width="0.5" transform="rotate(1.1568842371957881 80 50)" width="9.9022" x="80" y="50" /><rect fill="none" height="9.9489" stroke="black" stroke-width="0.5" transform="rotate(1.3617082402642677 80 60)" width="9.8644" x="80" y="60" /><rect fill="none" height="9.7982" stroke="black" stroke-width="0.5" transform="rotate(-0.2240294299952647 80 70)" width="9.8746" x="80" y="70" /><rect fill="none" height="9.9035" stroke="black" stroke-width="0.5" transform="rotate(-1.1930754021490322 80 80)" width="10.0882" x="80" y="80" /><rect fill="none" height="10.0864" stroke="black" stroke-width="0.5" transform="rotate(-2.607869737989607 80 90)" width="9.8595" x="80" y="90" /><rect fill="none" height="10.3111" stroke="black" stroke-width="0.5" transform="rotate(1.7956391010800121 80 100)" width="10.3491" x="80" y="100" /><rect fill="none" height="9.6958" stroke="black" stroke-width="0.5" transform="rotate(-1.4293838063850293 80 110)" width="10.112" x="80" y="110" /><rect fill="none" height="9.678" stroke="black" stroke-width="0.5" transform="rotate(-0.31699916705288234 80 120)" width="9.9443" x="80" y="120" /><rect fill="none" height="9.8948" stroke="black" stroke-width="0.5" transform="rotate(1.0912880289098987 80 130)" width="9.9528" x="80" y="130" /><rect fill="none" height="9.8472" stroke="black" stroke-width="0.5" transform="rotate(-8.456844866654409 80 140)" width="10.2446" x="80" y="140" /><rect fill="none" height="9.5981" stroke="black" stroke-width="0.5" transform="rotate(-5.904719234668055 80 150)" width="9.6049" x="80" y="150" /><rect fill="none" height="10.6154" stroke="black" stroke-width="0.5" transform="rotate(0.8462379333072476 80 160)" width="10.5635" x="80" y="160" /><rect fill="none" height="9.4234" stroke="black" stroke-width="0.5" transform="rotate(0.28233989009102495 80 170)" width="9.3387" x="80" y="170" /><rect fill="none" height="9.349" stroke="black" stroke-width="0.5" transform="rotate(-10.301984335991774 80 180)" width="9.8428" x="80" y="180" /><rect fill="none" height="9.4547" stroke="black" stroke-width="0.5" transform="rotate(9.97365445260489 80 190)" width="9.9495" x="80" y="190" /><rect fill="none" height="10.122" stroke="black" stroke-width="0.5" transform="rotate(-6.276780851054511 80 200)" width="9.3597" x="80" y="200" /><rect fill="none" height="10.4036" stroke="black" stroke-width="0.5" transform="rotate(0.10697871411594609 80 210)" width="9.7185" x="80" y="210" /><rect fill="none" height="10.8385" stroke="black" stroke-width="0.5" transform="rotate(-11.884891083328991 80 220)" width="9.3199" x="80" y="220" /><rect fill="none" height="9.1913" stroke="black" stroke-width="0.5" transform="rotate(-18.40415762116204 80 230)" width="9.0807" x="80" y="230" /><rect fill="none" height="10.4773" stroke="black" stroke-width="0.5" transform="rotate(7.854465594382785 80 240)" width="10.3008" x="80" y="240" /><rect fill="none" height="10.2383" stroke="black" stroke-width="0.5" transform="rotate(-11.306660220550242 80 250)" width="9.4816" x="80" y="250" /><rect fill="none" height="9.6947" stroke="black" stroke-width="0.5" transform="rotate(26.311275503665637 80 260)" width="10.6775" x="80" y="260" /><rect fill="none" height="10.7365" stroke="black" stroke-width="0.5" transform="rotate(-28.928656719459234 80 270)" width="9.6343" x="80" y="270" /><rect fill="none" height="8.9185" stroke="black" stroke-width="0.5" transform="rotate(-29.962415456379244 80 280)" width="9.0648" x="80" y="280" /><rect fill="none" height="10.595" stroke="black" stroke-width="0.5" transform="rotate(31.705398116789677 80 290)" width="10.4783" x="80" y="290" /><rect fill="none" height="10.0" stroke="black" stroke-width="0.5" transform="rotate(-0.0 90 0)" width="10.0" x="90" y="0" /><rect fill="none" height="9.9775" stroke="black" stroke-width="0.5" transform="rotate(-0.005256289660826319 90 10)" width="10.027" x="90" y="10" /><rect fill="none" height="10.0817" stroke="black" stroke-width="0.5" transform="rotate(0.025351228781115953 90 20)" width="9.9401" x="90" y="20" /><rect fill="none" height="9.8865" stroke="black" stroke-width="0.5" transform="rotate(0.09275931424992495 90 30)" width="9.8797" x="90" y="30" /><rect fill="none" height="10.1398" stroke="black" stroke-width="0.5" transform="rotate(-0.7850832229113417 90 40)" width="9.9846" x="90" y="40" /><rect fill="none" height="9.9671" stroke="black" stroke-width="0.5" transform="rotate(0.22037993452792062 90 50)" width="9.9846" x="90" y="50" /><rect fill="none" height="9.7445" stroke="black" stroke-width="0.5" transform="rotate(0.25963209356502437 90 60)" width="9.8624" x="90" y="60" /><rect fill="none" height="9.9573" stroke="black" stroke-width="0.5" transform="rotate(-2.1675708621775867 90 70)" width="10.1541" x="90" y="70" /><rect fill="none" height="9.7241" stroke="black" stroke-width="0.5" transform="rotate(0.2801115337000617 90 80)" width="10.2529" x="90" y="80" /><rect fill="none" height="9.598" stroke="black" stroke-width="0.5" transform="rotate(3.3841426149839235 90 90)" width="10.2396" x="90" y="90" /><rect fill="none" height="10.0762" stroke="black" stroke-width="0.5" transform="rotate(-4.278306375934195 90 100)" width="9.7918" x="90" y="100" /><rect fill="none" height="10.381" stroke="black" stroke-width="0.5" transform="rotate(-3.6682513900938005 90 110)" width="9.5887" x="90" y="110" /><rect fill="none" height="10.3132" stroke="black" stroke-width="0.5" transform="rotate(-1.9703134389435912 90 120)" width="10.3133" x="90" y="120" /><rect fill="none" height="9.5645" stroke="black" stroke-width="0.5" transform="rotate(-6.851177576990476 90 130)" width="10.0474" x="90" y="130" /><rect fill="none" height="9.781" stroke="black" stroke-width="0.5" transform="rotate(7.228018059621649 90 140)" width="10.1681" x="90" y="140" /><rect fill="none" height="10.6015" stroke="black" stroke-width="0.5" transform="rotate(2.1486411602941127 90 150)" width="9.5129" x="90" y="150" /><rect fill="none" height="10.5395" stroke="black" stroke-width="0.5" transform="rotate(-11.952646909254053 90 160)" width="10.0653" x="90" y="160" /><rect fill="none" height="10.3744" stroke="black" stroke-width="0.5" transform="rotate(-4.826942073772828 90 170)" width="10.5289" x="90" y="170" /><rect fill="none" height="9.4113" stroke="black" stroke-width="0.5" transform="rotate(-3.0747342062826064 90 180)" width="9.3975" x="90" y="180" /><rect fill="none" height="10.3186" stroke="black" stroke-width="0.5" transform="rotate(11.703743775734646 90 190)" width="10.4829" x="90" y="190" /><rect fill="none" height="9.8091" stroke="black" stroke-width="0.5" transform="rotate(-5.9694473844381335 90 200)" width="10.2282" x="90" y="200" /><rect fill="none" height="9.601" stroke="black" stroke-width="0.5" transform="rotate(-19.699184042160454 90 210)" width="9.7546" x="90" y="210" /><rect fill="none" height="10.5914" stroke="black" stroke-width="0.5" transform="rotate(14.192524504845352 90 220)" width="10.5146" x="90" y="220" /><rect fill="none" height="10.1996" stroke="black" stroke-width="0.5" transform="rotate(22.529749637793874 90 230)" width="10.9917" x="90" y="230" /><rect fill="none" height="10.8054" stroke="black" stroke-width="0.5" transform="rotate(6.204627611056953 90 240)" width="10.9088" x="90" y="240" /><rect fill="none" height="10.4579" stroke="black" stroke-width="0.5" transform="rotate(-29.457975206299643 90 250)" width="10.9153" x="90" y="250" /><rect fill="none" height="10.8725" stroke="black" stroke-width="0.5" transform="rotate(-17.106857090769168 90 260)" width="10.6347" x="90" y="260" /><rect fill="none" height="10.1757" stroke="black" stroke-width="0.5" transform="rotate(-33.42335632584153 90 270)" width="9.1516" x="90" y="270" /><rect fill="none" height="8.9955" stroke="black" stroke-width="0.5" transform="rotate(13.286198029233432 90 280)" width="11.054" x="90" y="280" /><rect fill="none" height="9.2153" stroke="black" stroke-width="0.5" transform="rotate(-14.06607326008914 90 290)" width="10.7107" x="90" y="290" /></svg>