<?xml version="1.0" encoding="utf-8" ?>
<svg baseProfile="tiny" height="500" version="1.2" width="500" xmlns="http://www.w3.org/2000/svg" xmlns:ev="http://www.w3.org/2001/xml-events" xmlns:xlink="http://www.w3.org/1999/xlink"><defs /><rect fill="none" height="391.2023" stroke="black" stroke-width="1" width="391.2023" x="152.8771" y="152.8771" /><rect fill="none" height="389.182" stroke="black" stroke-width="1" width="389.182" x="164.5764" y="164.5764" /><rect fill="none" height="387.1201" stroke="black" stroke-width="1" width="387.1201" x="172.8771" y="172.8771" /><rect fill="none" height="385.0148" stroke="black" stroke-width="1" width="385.0148" x="179.3157" y="179.3157" /><rect fill="none" height="382.8641" stroke="black" stroke-width="1" width="382.8641" x="184.5764" y="184.5764" /><rect fill="none" height="380.6662" stroke="black" stroke-width="1" width="380.6662" x="189.0242" y="189.0242" /><rect fill="none" height="378.419" stroke="black" stroke-width="1" width="378.419" x="192.8771" y="192.8771" /><rect fill="none" height="376.12" stroke="black" stroke-width="1" width="376.12" x="196.2756" y="196.2756" /><rect fill="none" height="373.767" stroke="black" stroke-width="1" width="373.767" x="199.3157" y="199.3157" /><rect fill="none" height="371.3572" stroke="black" stroke-width="1" width="371.3572" x="202.0658" y="202.0658" /><rect fill="none" height="368.8879" stroke="black" stroke-width="1" width="368.8879" x="204.5764" y="204.5764" /><rect fill="none" height="366.3562" stroke="black" stroke-width="1" width="366.3562" x="206.8859" y="206.8859" /><rect fill="none" height="363.7586" stroke="black" stroke-width="1" width="363.7586" x="209.0242" y="209.0242" /><rect fill="none" height="361.0918" stroke="black" stroke-width="1" width="361.0918" x="211.0149" y="211.0149" /><rect fill="none" height="358.3519" stroke="black" stroke-width="1" width="358.3519" x="212.8771" y="212.8771" /><rect fill="none" height="355.5348" stroke="black" stroke-width="1" width="355.5348" x="214.6264" y="214.6264" /><rect fill="none" height="352.6361" stroke="black" stroke-width="1" width="352.6361" x="216.2756" y="216.2756" /><rect fill="none" height="349.6508" stroke="black" stroke-width="1" width="349.6508" x="217.8357" y="217.8357" /><rect fill="none" height="346.5736" stroke="black" stroke-width="1" width="346.5736" x="219.3157" y="219.3157" /><rect fill="none" height="343.3987" stroke="black" stroke-width="1" width="343.3987" x="220.7235" y="220.7235" /><rect fill="none" height="340.1197" stroke="black" stroke-width="1" width="340.1197" x="222.0658" y="222.0658" /><rect fill="none" height="336.7296" stroke="black" stroke-width="1" width="336.7296" x="223.3484" y="223.3484" /><rect fill="none" height="333.2205" stroke="black" stroke-width="1" width="333.2205" x="224.5764" y="224.5764" /><rect fill="none" height="329.5837" stroke="black" stroke-width="1" width="329.5837" x="225.7542" y="225.7542" /><rect fill="none" height="325.8097" stroke="black" stroke-width="1" width="325.8097" x="226.8859" y="226.8859" /><rect fill="none" height="321.8876" stroke="black" stroke-width="1" width="321.8876" x="227.9749" y="227.9749" /><rect fill="none" height="317.8054" stroke="black" stroke-width="1" width="317.8054" x="229.0242" y="229.0242" /><rect fill="none" height="313.5494" stroke="black" stroke-width="1" width="313.5494" x="230.0367" y="230.0367" /><rect fill="none" height="309.1042" stroke="black" stroke-width="1" width="309.1042" x="231.0149" y="231.0149" /><rect fill="none" height="304.4522" stroke="black" stroke-width="1" width="304.4522" x="231.9611" y="231.9611" /><rect fill="none" height="299.5732" stroke="black" stroke-width="1" width="299.5732" x="232.8771" y="232.8771" /><rect fill="none" height="294.4439" stroke="black" stroke-width="1" width="294.4439" x="233.765" y="233.765" /><rect fill="none" height="289.0372" stroke="black" stroke-width="1" width="289.0372" x="234.6264" y="234.6264" /><rect fill="none" height="283.3213" stroke="black" stroke-width="1" width="283.3213" x="235.4628" y="235.4628" /><rect fill="none" height="277.2589" stroke="black" stroke-width="1" width="277.2589" x="236.2756" y="236.2756" /><rect fill="none" height="270.805" stroke="black" stroke-width="1" width="270.805" x="237.0662" y="237.0662" /><rect fill="none" height="263.9057" stroke="black" stroke-width="1" width="263.9057" x="237.8357" y="237.8357" /><rect fill="none" height="256.4949" stroke="black" stroke-width="1" width="256.4949" x="238.5852" y="238.5852" /><rect fill="none" height="248.4907" stroke="black" stroke-width="1" width="248.4907" x="239.3157" y="239.3157" /><rect fill="none" height="239.7895" stroke="black" stroke-width="1" width="239.7895" x="240.0282" y="240.0282" /><rect fill="none" height="230.2585" stroke="black" stroke-width="1" width="230.2585" x="240.7235" y="240.7235" /><rect fill="none" height="219.7225" stroke="black" stroke-width="1" width="219.7225" x="241.4024" y="241.4024" /><rect fill="none" height="207.9442" stroke="black" stroke-width="1" width="207.9442" x="242.0658" y="242.0658" /><rect fill="none" height="194.591" stroke="black" stroke-width="1" width="194.591" x="242.7142" y="242.7142" /><rect fill="none" height="179.1759" stroke="black" stroke-width="1" width="179.1759" x="243.3484" y="243.3484" /><rect fill="none" height="160.9438" stroke="black" stroke-width="1" width="160.9438" x="243.9689" y="243.9689" /><rect fill="none" height="138.6294" stroke="black" stroke-width="1" width="138.6294" x="244.5764" y="244.5764" /><rect fill="none" height="109.8612" stroke="black" stroke-width="1" width="109.8612" x="245.1713" y="245.1713" /></svg>