<?xml version="1.0" encoding="utf-8" ?>
<svg baseProfile="tiny" height="500" version="1.2" width="500" xmlns="http://www.w3.org/2000/svg" xmlns:ev="http://www.w3.org/2001/xml-events" xmlns:xlink="http://www.w3.org/1999/xlink"><defs /><rect fill="none" height="50" stroke="black" stroke-width="1" width="50" x="10" y="0.9983" /><rect fill="none" height="50" stroke="black" stroke-width="1" width="50" x="20" y="1.9867" /><rect fill="none" height="50" stroke="black" stroke-width="1" width="50" x="30" y="2.9552" /><rect fill="none" height="50" stroke="black" stroke-width="1" width="50" x="40" y="3.8942" /><rect fill="none" height="50" stroke="black" stroke-width="1" width="50" x="50" y="4.7943" /><rect fill="none" height="50" stroke="black" stroke-width="1" width="50" x="60" y="5.6464" /><rect fill="none" height="50" stroke="black" stroke-width="1" width="50" x="70" y="6.4422" /><rect fill="none" height="50" stroke="black" stroke-width="1" width="50" x="80" y="7.1736" /><rect fill="none" height="50" stroke="black" stroke-width="1" width="50" x="90" y="7.8333" /><rect fill="none" height="50" stroke="black" stroke-width="1" width="50" x="100" y="8.4147" /><rect fill="none" height="50" stroke="black" stroke-width="1" width="50" x="110" y="8.9121" /><rect fill="none" height="50" stroke="black" stroke-width="1" width="50" x="120" y="9.3204" /><rect fill="none" height="50" stroke="black" stroke-width="1" width="50" x="130" y="9.6356" /><rect fill="none" height="50" stroke="black" stroke-width="1" width="50" x="140" y="9.8545" /><rect fill="none" height="50" stroke="black" stroke-width="1" width="50" x="150" y="9.9749" /><rect fill="none" height="50" stroke="black" stroke-width="1" width="50" x="160" y="9.9957" /><rect fill="none" height="50" stroke="black" stroke-width="1" width="50" x="170" y="9.9166" /><rect fill="none" height="50" stroke="black" stroke-width="1" width="50" x="180" y="9.7385" /><rect fill="none" height="50" stroke="black" stroke-width="1" width="50" x="190" y="9.463" /><rect fill="none" height="50" stroke="black" stroke-width="1" width="50" x="200" y="9.093" /><rect fill="none" height="50" stroke="black" stroke-width="1" width="50" x="210" y="8.6321" /><rect fill="none" height="50" stroke="black" stroke-width="1" width="50" x="220" y="8.085" /><rect fill="none" height="50" stroke="black" stroke-width="1" width="50" x="230" y="7.4571" /><rect fill="none" height="50" stroke="black" stroke-width="1" width="50" x="240" y="6.7546" /><rect fill="none" height="50" stroke="black" stroke-width="1" width="50" x="250" y="5.9847" /><rect fill="none" height="50" stroke="black" stroke-width="1" width="50" x="260" y="5.155" /><rect fill="none" height="50" stroke="black" stroke-width="1" width="50" x="270" y="4.2738" /><rect fill="none" height="50" stroke="black" stroke-width="1" width="50" x="280" y="3.3499" /><rect fill="none" height="50" stroke="black" stroke-width="1" width="50" x="290" y="2.3925" /><rect fill="none" height="50" stroke="black" stroke-width="1" width="50" x="300" y="1.4112" /><rect fill="none" height="50" stroke="black" stroke-width="1" width="50" x="310" y="0.4158" /><rect fill="none" height="50" stroke="black" stroke-width="1" width="50" x="320" y="-0.5837" /><rect fill="none" height="50" stroke="black" stroke-width="1" width="50" x="330" y="-1.5775" /><rect fill="none" height="50" stroke="black" stroke-width="1" width="50" x="340" y="-2.5554" /><rect fill="none" height="50" stroke="black" stroke-width="1" width="50" x="350" y="-3.5078" /><rect fill="none" height="50" stroke="black" stroke-width="1" width="50" x="360" y="-4.4252" /><rect fill="none" height="50" stroke="black" stroke-width="1" width="50" x="370" y="-5.2984" /><rect fill="none" height="50" stroke="black" stroke-width="1" width="50" x="380" y="-6.1186" /><rect fill="none" height="50" stroke="black" stroke-width="1" width="50" x="390" y="-6.8777" /><rect fill="none" height="50" stroke="black" stroke-width="1" width="50" x="400" y="-7.568" /><rect fill="none" height="50" stroke="black" stroke-width="1" width="50" x="410" y="-8.1828" /><rect fill="none" height="50" stroke="black" stroke-width="1" width="50" x="420" y="-8.7158" /><rect fill="none" height="50" stroke="black" stroke-width="1" width="50" x="430" y="-9.1617" /><rect fill="none" height="50" stroke="black" stroke-width="1" width="50" x="440" y="-9.516" /><rect fill="none" height="50" stroke="black" stroke-width="1" width="50" x="450" y="-9.7753" /><rect fill="none" height="50" stroke="black" stroke-width="1" width="50" x="460" y="-9.9369" /><rect fill="none" height="50" stroke="black" stroke-width="1" width="50" x="470" y="-9.9992" /><rect fill="none" height="50" stroke="black" stroke-width="1" width="50" x="480" y="-9.9616" /><rect fill="none" height="50" stroke="black" stroke-width="1" width="50" x="490" y="-9.8245" /></svg>