<?xml version="1.0" encoding="utf-8" ?>
<svg baseProfile="tiny" height="500" version="1.2" width="500" xmlns="http://www.w3.org/2000/svg" xmlns:ev="http://www.w3.org/2001/xml-events" xmlns:xlink="http://www.w3.org/1999/xlink"><defs /><rect fill="none" height="69.3147" stroke="black" stroke-width="1" width="69.3147" x="76.4386" y="76.4386" /><rect fill="none" height="109.8612" stroke="black" stroke-width="1" width="109.8612" x="82.2882" y="82.2882" /><rect fill="none" height="138.6294" stroke="black" stroke-width="1" width="138.6294" x="86.4386" y="86.4386" /><rect fill="none" height="160.9438" stroke="black" stroke-width="1" width="160.9438" x="89.6578" y="89.6578" /><rect fill="none" height="179.1759" stroke="black" stroke-width="1" width="179.1759" x="92.2882" y="92.2882" /><rect fill="none" height="194.591" stroke="black" stroke-width="1" width="194.591" x="94.5121" y="94.5121" /><rect fill="none" height="207.9442" stroke="black" stroke-width="1" width="207.9442" x="96.4386" y="96.4386" /><rect fill="none" height="219.7225" stroke="black" stroke-width="1" width="219.7225" x="98.1378" y="98.1378" /><rect fill="none" height="230.2585" stroke="black" stroke-width="1" width="230.2585" x="99.6578" y="99.6578" /><rect fill="none" height="239.7895" stroke="black" stroke-width="1" width="239.7895" x="101.0329" y="101.0329" /><rect fill="none" height="248.4907" stroke="black" stroke-width="1" width="248.4907" x="102.2882" y="102.2882" /><rect fill="none" height="256.4949" stroke="black" stroke-width="1" width="256.4949" x="103.443" y="103.443" /><rect fill="none" height="263.9057" stroke="black" stroke-width="1" width="263.9057" x="104.5121" y="104.5121" /><rect fill="none" height="270.805" stroke="black" stroke-width="1" width="270.805" x="105.5075" y="105.5075" /><rect fill="none" height="277.2589" stroke="black" stroke-width="1" width="277.2589" x="106.4386" y="106.4386" /><rect fill="none" height="283.3213" stroke="black" stroke-width="1" width="283.3213" x="107.3132" y="107.3132" /><rect fill="none" height="289.0372" stroke="black" stroke-width="1" width="289.0372" x="108.1378" y="108.1378" /><rect fill="none" height="294.4439" stroke="black" stroke-width="1" width="294.4439" x="108.9178" y="108.9178" /><rect fill="none" height="299.5732" stroke="black" stroke-width="1" width="299.5732" x="109.6578" y="109.6578" /><rect fill="none" height="304.4522" stroke="black" stroke-width="1" width="304.4522" x="110.3617" y="110.3617" /><rect fill="none" height="309.1042" stroke="black" stroke-width="1" width="309.1042" x="111.0329" y="111.0329" /><rect fill="none" height="313.5494" stroke="black" stroke-width="1" width="313.5494" x="111.6742" y="111.6742" /><rect fill="none" height="317.8054" stroke="black" stroke-width="1" width="317.8054" x="112.2882" y="112.2882" /></svg>