<?xml version="1.0" encoding="utf-8" ?>
<svg baseProfile="tiny" height="500" version="1.2" width="500" xmlns="http://www.w3.org/2000/svg" xmlns:ev="http://www.w3.org/2001/xml-events" xmlns:xlink="http://www.w3.org/1999/xlink"><defs /><rect fill="none" height="50" stroke="black" stroke-width="1" width="50" x="0" y="0.0" /><rect fill="none" height="50" stroke="black" stroke-width="1" width="50" x="0" y="104.9917" /><rect fill="none" height="50" stroke="black" stroke-width="1" width="50" x="0" y="209.9335" /><rect fill="none" height="50" stroke="black" stroke-width="1" width="50" x="0" y="314.776" /><rect fill="none" height="50" stroke="black" stroke-width="1" width="50" x="0" y="419.4709" /><rect fill="none" height="50" stroke="black" stroke-width="1" width="50" x="10" y="4.9917" /><rect fill="none" height="50" stroke="black" stroke-width="1" width="50" x="10" y="109.9335" /><rect fill="none" height="50" stroke="black" stroke-width="1" width="50" x="10" y="214.776" /><rect fill="none" height="50" stroke="black" stroke-width="1" width="50" x="10" y="319.4709" /><rect fill="none" height="50" stroke="black" stroke-width="1" width="50" x="10" y="423.9713" /><rect fill="none" height="50" stroke="black" stroke-width="1" width="50" x="20" y="9.9335" /><rect fill="none" height="50" stroke="black" stroke-width="1" width="50" x="20" y="114.776" /><rect fill="none" height="50" stroke="black" stroke-width="1" width="50" x="20" y="219.4709" /><rect fill="none" height="50" stroke="black" stroke-width="1" width="50" x="20" y="323.9713" /><rect fill="none" height="50" stroke="black" stroke-width="1" width="50" x="20" y="428.2321" /><rect fill="none" height="50" stroke="black" stroke-width="1" width="50" x="30" y="14.776" /><rect fill="none" height="50" stroke="black" stroke-width="1" width="50" x="30" y="119.4709" /><rect fill="none" height="50" stroke="black" stroke-width="1" width="50" x="30" y="223.9713" /><rect fill="none" height="50" stroke="black" stroke-width="1" width="50" x="30" y="328.2321" /><rect fill="none" height="50" stroke="black" stroke-width="1" width="50" x="30" y="432.2109" /><rect fill="none" height="50" stroke="black" stroke-width="1" width="50" x="40" y="19.4709" /><rect fill="none" height="50" stroke="black" stroke-width="1" width="50" x="40" y="123.9713" /><rect fill="none" height="50" stroke="black" stroke-width="1" width="50" x="40" y="228.2321" /><rect fill="none" height="50" stroke="black" stroke-width="1" width="50" x="40" y="332.2109" /><rect fill="none" height="50" stroke="black" stroke-width="1" width="50" x="40" y="435.8678" /><rect fill="none" height="50" stroke="black" stroke-width="1" width="50" x="50" y="23.9713" /><rect fill="none" height="50" stroke="black" stroke-width="1" width="50" x="50" y="128.2321" /><rect fill="none" height="50" stroke="black" stroke-width="1" width="50" x="50" y="232.2109" /><rect fill="none" height="50" stroke="black" stroke-width="1" width="50" x="50" y="335.8678" /><rect fill="none" height="50" stroke="black" stroke-width="1" width="50" x="50" y="439.1663" /><rect fill="none" height="50" stroke="black" stroke-width="1" width="50" x="60" y="28.2321" /><rect fill="none" height="50" stroke="black" stroke-width="1" width="50" x="60" y="132.2109" /><rect fill="none" height="50" stroke="black" stroke-width="1" width="50" x="60" y="235.8678" /><rect fill="none" height="50" stroke="black" stroke-width="1" width="50" x="60" y="339.1663" /><rect fill="none" height="50" stroke="black" stroke-width="1" width="50" x="60" y="442.0735" /><rect fill="none" height="50" stroke="black" stroke-width="1" width="50" x="70" y="32.2109" /><rect fill="none" height="50" stroke="black" stroke-width="1" width="50" x="70" y="135.8678" /><rect fill="none" height="50" stroke="black" stroke-width="1" width="50" x="70" y="239.1663" /><rect fill="none" height="50" stroke="black" stroke-width="1" width="50" x="70" y="342.0735" /><rect fill="none" height="50" stroke="black" stroke-width="1" width="50" x="70" y="444.5604" /><rect fill="none" height="50" stroke="black" stroke-width="1" width="50" x="80" y="35.8678" /><rect fill="none" height="50" stroke="black" stroke-width="1" width="50" x="80" y="139.1663" /><rect fill="none" height="50" stroke="black" stroke-width="1" width="50" x="80" y="242.0735" /><rect fill="none" height="50" stroke="black" stroke-width="1" width="50" x="80" y="344.5604" /><rect fill="none" height="50" stroke="black" stroke-width="1" width="50" x="80" y="446.602" /><rect fill="none" height="50" stroke="black" stroke-width="1" width="50" x="90" y="39.1663" /><rect fill="none" height="50" stroke="black" stroke-width="1" width="50" x="90" y="142.0735" /><rect fill="none" height="50" stroke="black" stroke-width="1" width="50" x="90" y="244.5604" /><rect fill="none" height="50" stroke="black" stroke-width="1" width="50" x="90" y="346.602" /><rect fill="none" height="50" stroke="black" stroke-width="1" width="50" x="90" y="448.1779" /><rect fill="none" height="50" stroke="black" stroke-width="1" width="50" x="100" y="42.0735" /><rect fill="none" height="50" stroke="black" stroke-width="1" width="50" x="100" y="144.5604" /><rect fill="none" height="50" stroke="black" stroke-width="1" width="50" x="100" y="246.602" /><rect fill="none" height="50" stroke="black" stroke-width="1" width="50" x="100" y="348.1779" /><rect fill="none" height="50" stroke="black" stroke-width="1" width="50" x="100" y="449.2725" /><rect fill="none" height="50" stroke="black" stroke-width="1" width="50" x="110" y="44.5604" /><rect fill="none" height="50" stroke="black" stroke-width="1" width="50" x="110" y="146.602" /><rect fill="none" height="50" stroke="black" stroke-width="1" width="50" x="110" y="248.1779" /><rect fill="none" height="50" stroke="black" stroke-width="1" width="50" x="110" y="349.2725" /><rect fill="none" height="50" stroke="black" stroke-width="1" width="50" x="110" y="449.8747" /><rect fill="none" height="50" stroke="black" stroke-width="1" width="50" x="120" y="46.602" /><rect fill="none" height="50" stroke="black" stroke-width="1" width="50" x="120" y="148.1779" /><rect fill="none" height="50" stroke="black" stroke-width="1" width="50" x="120" y="249.2725" /><rect fill="none" height="50" stroke="black" stroke-width="1" width="50" x="120" y="349.8747" /><rect fill="none" height="50" stroke="black" stroke-width="1" width="50" x="120" y="449.9787" /><rect fill="none" height="50" stroke="black" stroke-width="1" width="50" x="130" y="48.1779" /><rect fill="none" height="50" stroke="black" stroke-width="1" width="50" x="130" y="149.2725" /><rect fill="none" height="50" stroke="black" stroke-width="1" width="50" x="130" y="249.8747" /><rect fill="none" height="50" stroke="black" stroke-width="1" width="50" x="130" y="349.9787" /><rect fill="none" height="50" stroke="black" stroke-width="1" width="50" x="130" y="449.5832" /><rect fill="none" height="50" stroke="black" stroke-width="1" width="50" x="140" y="49.2725" /><rect fill="none" height="50" stroke="black" stroke-width="1" width="50" x="140" y="149.8747" /><rect fill="none" height="50" stroke="black" stroke-width="1" width="50" x="140" y="249.9787" /><rect fill="none" height="50" stroke="black" stroke-width="1" width="50" x="140" y="349.5832" /><rect fill="none" height="50" stroke="black" stroke-width="1" width="50" x="140" y="448.6924" /><rect fill="none" height="50" stroke="black" stroke-width="1" width="50" x="150" y="49.8747" /><rect fill="none" height="50" stroke="black" stroke-width="1" width="50" x="150" y="149.9787" /><rect fill="none" height="50" stroke="black" stroke-width="1" width="50" x="150" y="249.5832" /><rect fill="none" height="50" stroke="black" stroke-width="1" width="50" x="150" y="348.6924" /><rect fill="none" height="50" stroke="black" stroke-width="1" width="50" x="150" y="447.315" /><rect fill="none" height="50" stroke="black" stroke-width="1" width="50" x="160" y="49.9787" /><rect fill="none" height="50" stroke="black" stroke-width="1" width="50" x="160" y="149.5832" /><rect fill="none" height="50" stroke="black" stroke-width="1" width="50" x="160" y="248.6924" /><rect fill="none" height="50" stroke="black" stroke-width="1" width="50" x="160" y="347.315" /><rect fill="none" height="50" stroke="black" stroke-width="1" width="50" x="160" y="445.4649" /><rect fill="none" height="50" stroke="black" stroke-width="1" width="50" x="170" y="49.5832" /><rect fill="none" height="50" stroke="black" stroke-width="1" width="50" x="170" y="148.6924" /><rect fill="none" height="50" stroke="black" stroke-width="1" width="50" x="170" y="247.315" /><rect fill="none" height="50" stroke="black" stroke-width="1" width="50" x="170" y="345.4649" /><rect fill="none" height="50" stroke="black" stroke-width="1" width="50" x="170" y="443.1605" /><rect fill="none" height="50" stroke="black" stroke-width="1" width="50" x="180" y="48.6924" /><rect fill="none" height="50" stroke="black" stroke-width="1" width="50" x="180" y="147.315" /><rect fill="none" height="50" stroke="black" stroke-width="1" width="50" x="180" y="245.4649" /><rect fill="none" height="50" stroke="black" stroke-width="1" width="50" x="180" y="343.1605" /><rect fill="none" height="50" stroke="black" stroke-width="1" width="50" x="180" y="440.4248" /><rect fill="none" height="50" stroke="black" stroke-width="1" width="50" x="190" y="47.315" /><rect fill="none" height="50" stroke="black" stroke-width="1" width="50" x="190" y="145.4649" /><rect fill="none" height="50" stroke="black" stroke-width="1" width="50" x="190" y="243.1605" /><rect fill="none" height="50" stroke="black" stroke-width="1" width="50" x="190" y="340.4248" /><rect fill="none" height="50" stroke="black" stroke-width="1" width="50" x="190" y="437.2853" /><rect fill="none" height="50" stroke="black" stroke-width="1" width="50" x="200" y="45.4649" /><rect fill="none" height="50" stroke="black" stroke-width="1" width="50" x="200" y="143.1605" /><rect fill="none" height="50" stroke="black" stroke-width="1" width="50" x="200" y="240.4248" /><rect fill="none" height="50" stroke="black" stroke-width="1" width="50" x="200" y="337.2853" /><rect fill="none" height="50" stroke="black" stroke-width="1" width="50" x="200" y="433.7732" /><rect fill="none" height="50" stroke="black" stroke-width="1" width="50" x="210" y="43.1605" /><rect fill="none" height="50" stroke="black" stroke-width="1" width="50" x="210" y="140.4248" /><rect fill="none" height="50" stroke="black" stroke-width="1" width="50" x="210" y="237.2853" /><rect fill="none" height="50" stroke="black" stroke-width="1" width="50" x="210" y="333.7732" /><rect fill="none" height="50" stroke="black" stroke-width="1" width="50" x="210" y="429.9236" /><rect fill="none" height="50" stroke="black" stroke-width="1" width="50" x="220" y="40.4248" /><rect fill="none" height="50" stroke="black" stroke-width="1" width="50" x="220" y="137.2853" /><rect fill="none" height="50" stroke="black" stroke-width="1" width="50" x="220" y="233.7732" /><rect fill="none" height="50" stroke="black" stroke-width="1" width="50" x="220" y="329.9236" /><rect fill="none" height="50" stroke="black" stroke-width="1" width="50" x="220" y="425.7751" /><rect fill="none" height="50" stroke="black" stroke-width="1" width="50" x="230" y="37.2853" /><rect fill="none" height="50" stroke="black" stroke-width="1" width="50" x="230" y="133.7732" /><rect fill="none" height="50" stroke="black" stroke-width="1" width="50" x="230" y="229.9236" /><rect fill="none" height="50" stroke="black" stroke-width="1" width="50" x="230" y="325.7751" /><rect fill="none" height="50" stroke="black" stroke-width="1" width="50" x="230" y="421.369" /><rect fill="none" height="50" stroke="black" stroke-width="1" width="50" x="240" y="33.7732" /><rect fill="none" height="50" stroke="black" stroke-width="1" width="50" x="240" y="129.9236" /><rect fill="none" height="50" stroke="black" stroke-width="1" width="50" x="240" y="225.7751" /><rect fill="none" height="50" stroke="black" stroke-width="1" width="50" x="240" y="321.369" /><rect fill="none" height="50" stroke="black" stroke-width="1" width="50" x="240" y="416.7494" /><rect fill="none" height="50" stroke="black" stroke-width="1" width="50" x="250" y="29.9236" /><rect fill="none" height="50" stroke="black" stroke-width="1" width="50" x="250" y="125.7751" /><rect fill="none" height="50" stroke="black" stroke-width="1" width="50" x="250" y="221.369" /><rect fill="none" height="50" stroke="black" stroke-width="1" width="50" x="250" y="316.7494" /><rect fill="none" height="50" stroke="black" stroke-width="1" width="50" x="250" y="411.9625" /><rect fill="none" height="50" stroke="black" stroke-width="1" width="50" x="260" y="25.7751" /><rect fill="none" height="50" stroke="black" stroke-width="1" width="50" x="260" y="121.369" /><rect fill="none" height="50" stroke="black" stroke-width="1" width="50" x="260" y="216.7494" /><rect fill="none" height="50" stroke="black" stroke-width="1" width="50" x="260" y="311.9625" /><rect fill="none" height="50" stroke="black" stroke-width="1" width="50" x="260" y="407.056" /><rect fill="none" height="50" stroke="black" stroke-width="1" width="50" x="270" y="21.369" /><rect fill="none" height="50" stroke="black" stroke-width="1" width="50" x="270" y="116.7494" /><rect fill="none" height="50" stroke="black" stroke-width="1" width="50" x="270" y="211.9625" /><rect fill="none" height="50" stroke="black" stroke-width="1" width="50" x="270" y="307.056" /><rect fill="none" height="50" stroke="black" stroke-width="1" width="50" x="270" y="402.079" /><rect fill="none" height="50" stroke="black" stroke-width="1" width="50" x="280" y="16.7494" /><rect fill="none" height="50" stroke="black" stroke-width="1" width="50" x="280" y="111.9625" /><rect fill="none" height="50" stroke="black" stroke-width="1" width="50" x="280" y="207.056" /><rect fill="none" height="50" stroke="black" stroke-width="1" width="50" x="280" y="302.079" /><rect fill="none" height="50" stroke="black" stroke-width="1" width="50" x="280" y="397.0813" /><rect fill="none" height="50" stroke="black" stroke-width="1" width="50" x="290" y="11.9625" /><rect fill="none" height="50" stroke="black" stroke-width="1" width="50" x="290" y="107.056" /><rect fill="none" height="50" stroke="black" stroke-width="1" width="50" x="290" y="202.079" /><rect fill="none" height="50" stroke="black" stroke-width="1" width="50" x="290" y="297.0813" /><rect fill="none" height="50" stroke="black" stroke-width="1" width="50" x="290" y="392.1127" /><rect fill="none" height="50" stroke="black" stroke-width="1" width="50" x="300" y="7.056" /><rect fill="none" height="50" stroke="black" stroke-width="1" width="50" x="300" y="102.079" /><rect fill="none" height="50" stroke="black" stroke-width="1" width="50" x="300" y="197.0813" /><rect fill="none" height="50" stroke="black" stroke-width="1" width="50" x="300" y="292.1127" /><rect fill="none" height="50" stroke="black" stroke-width="1" width="50" x="300" y="387.2229" /><rect fill="none" height="50" stroke="black" stroke-width="1" width="50" x="310" y="2.079" /><rect fill="none" height="50" stroke="black" stroke-width="1" width="50" x="310" y="97.0813" /><rect fill="none" height="50" stroke="black" stroke-width="1" width="50" x="310" y="192.1127" /><rect fill="none" height="50" stroke="black" stroke-width="1" width="50" x="310" y="287.2229" /><rect fill="none" height="50" stroke="black" stroke-width="1" width="50" x="310" y="382.4608" /><rect fill="none" height="50" stroke="black" stroke-width="1" width="50" x="320" y="-2.9187" /><rect fill="none" height="50" stroke="black" stroke-width="1" width="50" x="320" y="92.1127" /><rect fill="none" height="50" stroke="black" stroke-width="1" width="50" x="320" y="187.2229" /><rect fill="none" height="50" stroke="black" stroke-width="1" width="50" x="320" y="282.4608" /><rect fill="none" height="50" stroke="black" stroke-width="1" width="50" x="320" y="377.874" /><rect fill="none" height="50" stroke="black" stroke-width="1" width="50" x="330" y="-7.8873" /><rect fill="none" height="50" stroke="black" stroke-width="1" width="50" x="330" y="87.2229" /><rect fill="none" height="50" stroke="black" stroke-width="1" width="50" x="330" y="182.4608" /><rect fill="none" height="50" stroke="black" stroke-width="1" width="50" x="330" y="277.874" /><rect fill="none" height="50" stroke="black" stroke-width="1" width="50" x="330" y="373.5082" /><rect fill="none" height="50" stroke="black" stroke-width="1" width="50" x="340" y="-12.7771" /><rect fill="none" height="50" stroke="black" stroke-width="1" width="50" x="340" y="82.4608" /><rect fill="none" height="50" stroke="black" stroke-width="1" width="50" x="340" y="177.874" /><rect fill="none" height="50" stroke="black" stroke-width="1" width="50" x="340" y="273.5082" /><rect fill="none" height="50" stroke="black" stroke-width="1" width="50" x="340" y="369.4071" /><rect fill="none" height="50" stroke="black" stroke-width="1" width="50" x="350" y="-17.5392" /><rect fill="none" height="50" stroke="black" stroke-width="1" width="50" x="350" y="77.874" /><rect fill="none" height="50" stroke="black" stroke-width="1" width="50" x="350" y="173.5082" /><rect fill="none" height="50" stroke="black" stroke-width="1" width="50" x="350" y="269.4071" /><rect fill="none" height="50" stroke="black" stroke-width="1" width="50" x="350" y="365.6117" /><rect fill="none" height="50" stroke="black" stroke-width="1" width="50" x="360" y="-22.126" /><rect fill="none" height="50" stroke="black" stroke-width="1" width="50" x="360" y="73.5082" /><rect fill="none" height="50" stroke="black" stroke-width="1" width="50" x="360" y="169.4071" /><rect fill="none" height="50" stroke="black" stroke-width="1" width="50" x="360" y="265.6117" /><rect fill="none" height="50" stroke="black" stroke-width="1" width="50" x="360" y="362.1599" /><rect fill="none" height="50" stroke="black" stroke-width="1" width="50" x="370" y="-26.4918" /><rect fill="none" height="50" stroke="black" stroke-width="1" width="50" x="370" y="69.4071" /><rect fill="none" height="50" stroke="black" stroke-width="1" width="50" x="370" y="165.6117" /><rect fill="none" height="50" stroke="black" stroke-width="1" width="50" x="370" y="262.1599" /><rect fill="none" height="50" stroke="black" stroke-width="1" width="50" x="370" y="359.0861" /><rect fill="none" height="50" stroke="black" stroke-width="1" width="50" x="380" y="-30.5929" /><rect fill="none" height="50" stroke="black" stroke-width="1" width="50" x="380" y="65.6117" /><rect fill="none" height="50" stroke="black" stroke-width="1" width="50" x="380" y="162.1599" /><rect fill="none" height="50" stroke="black" stroke-width="1" width="50" x="380" y="259.0861" /><rect fill="none" height="50" stroke="black" stroke-width="1" width="50" x="380" y="356.4212" /><rect fill="none" height="50" stroke="black" stroke-width="1" width="50" x="390" y="-34.3883" /><rect fill="none" height="50" stroke="black" stroke-width="1" width="50" x="390" y="62.1599" /><rect fill="none" height="50" stroke="black" stroke-width="1" width="50" x="390" y="159.0861" /><rect fill="none" height="50" stroke="black" stroke-width="1" width="50" x="390" y="256.4212" /><rect fill="none" height="50" stroke="black" stroke-width="1" width="50" x="390" y="354.1917" /><rect fill="none" height="50" stroke="black" stroke-width="1" width="50" x="400" y="-37.8401" /><rect fill="none" height="50" stroke="black" stroke-width="1" width="50" x="400" y="59.0861" /><rect fill="none" height="50" stroke="black" stroke-width="1" width="50" x="400" y="156.4212" /><rect fill="none" height="50" stroke="black" stroke-width="1" width="50" x="400" y="254.1917" /><rect fill="none" height="50" stroke="black" stroke-width="1" width="50" x="400" y="352.4199" /><rect fill="none" height="50" stroke="black" stroke-width="1" width="50" x="410" y="-40.9139" /><rect fill="none" height="50" stroke="black" stroke-width="1" width="50" x="410" y="56.4212" /><rect fill="none" height="50" stroke="black" stroke-width="1" width="50" x="410" y="154.1917" /><rect fill="none" height="50" stroke="black" stroke-width="1" width="50" x="410" y="252.4199" /><rect fill="none" height="50" stroke="black" stroke-width="1" width="50" x="410" y="351.1235" /><rect fill="none" height="50" stroke="black" stroke-width="1" width="50" x="420" y="-43.5788" /><rect fill="none" height="50" stroke="black" stroke-width="1" width="50" x="420" y="54.1917" /><rect fill="none" height="50" stroke="black" stroke-width="1" width="50" x="420" y="152.4199" /><rect fill="none" height="50" stroke="black" stroke-width="1" width="50" x="420" y="251.1235" /><rect fill="none" height="50" stroke="black" stroke-width="1" width="50" x="420" y="350.3154" /><rect fill="none" height="50" stroke="black" stroke-width="1" width="50" x="430" y="-45.8083" /><rect fill="none" height="50" stroke="black" stroke-width="1" width="50" x="430" y="52.4199" /><rect fill="none" height="50" stroke="black" stroke-width="1" width="50" x="430" y="151.1235" /><rect fill="none" height="50" stroke="black" stroke-width="1" width="50" x="430" y="250.3154" /><rect fill="none" height="50" stroke="black" stroke-width="1" width="50" x="430" y="350.0038" /><rect fill="none" height="50" stroke="black" stroke-width="1" width="50" x="440" y="-47.5801" /><rect fill="none" height="50" stroke="black" stroke-width="1" width="50" x="440" y="51.1235" /><rect fill="none" height="50" stroke="black" stroke-width="1" width="50" x="440" y="150.3154" /><rect fill="none" height="50" stroke="black" stroke-width="1" width="50" x="440" y="250.0038" /><rect fill="none" height="50" stroke="black" stroke-width="1" width="50" x="440" y="350.1918" /><rect fill="none" height="50" stroke="black" stroke-width="1" width="50" x="450" y="-48.8765" /><rect fill="none" height="50" stroke="black" stroke-width="1" width="50" x="450" y="50.3154" /><rect fill="none" height="50" stroke="black" stroke-width="1" width="50" x="450" y="150.0038" /><rect fill="none" height="50" stroke="black" stroke-width="1" width="50" x="450" y="250.1918" /><rect fill="none" height="50" stroke="black" stroke-width="1" width="50" x="450" y="350.8774" /><rect fill="none" height="50" stroke="black" stroke-width="1" width="50" x="460" y="-49.6846" /><rect fill="none" height="50" stroke="black" stroke-width="1" width="50" x="460" y="50.0038" /><rect fill="none" height="50" stroke="black" stroke-width="1" width="50" x="460" y="150.1918" /><rect fill="none" height="50" stroke="black" stroke-width="1" width="50" x="460" y="250.8774" /><rect fill="none" height="50" stroke="black" stroke-width="1" width="50" x="460" y="352.0538" /><rect fill="none" height="50" stroke="black" stroke-width="1" width="50" x="470" y="-49.9962" /><rect fill="none" height="50" stroke="black" stroke-width="1" width="50" x="470" y="50.1918" /><rect fill="none" height="50" stroke="black" stroke-width="1" width="50" x="470" y="150.8774" /><rect fill="none" height="50" stroke="black" stroke-width="1" width="50" x="470" y="252.0538" /><rect fill="none" height="50" stroke="black" stroke-width="1" width="50" x="470" y="353.7093" /><rect fill="none" height="50" stroke="black" stroke-width="1" width="50" x="480" y="-49.8082" /><rect fill="none" height="50" stroke="black" stroke-width="1" width="50" x="480" y="50.8774" /><rect fill="none" height="50" stroke="black" stroke-width="1" width="50" x="480" y="152.0538" /><rect fill="none" height="50" stroke="black" stroke-width="1" width="50" x="480" y="253.7093" /><rect fill="none" height="50" stroke="black" stroke-width="1" width="50" x="480" y="355.8273" /><rect fill="none" height="50" stroke="black" stroke-width="1" width="50" x="490" y="-49.1226" /><rect fill="none" height="50" stroke="black" stroke-width="1" width="50" x="490" y="52.0538" /><rect fill="none" height="50" stroke="black" stroke-width="1" width="50" x="490" y="153.7093" /><rect fill="none" height="50" stroke="black" stroke-width="1" width="50" x="490" y="255.8273" /><rect fill="none" height="50" stroke="black" stroke-width="1" width="50" x="490" y="358.3866" /><rect fill="none" height="50" stroke="black" stroke-width="1" width="50" x="500" y="-47.9462" /><rect fill="none" height="50" stroke="black" stroke-width="1" width="50" x="500" y="53.7093" /><rect fill="none" height="50" stroke="black" stroke-width="1" width="50" x="500" y="155.8273" /><rect fill="none" height="50" stroke="black" stroke-width="1" width="50" x="500" y="258.3866" /><rect fill="none" height="50" stroke="black" stroke-width="1" width="50" x="500" y="361.3618" /><rect fill="none" height="50" stroke="black" stroke-width="1" width="50" x="510" y="-46.2907" /><rect fill="none" height="50" stroke="black" stroke-width="1" width="50" x="510" y="55.8273" /><rect fill="none" height="50" stroke="black" stroke-width="1" width="50" x="510" y="158.3866" /><rect fill="none" height="50" stroke="black" stroke-width="1" width="50" x="510" y="261.3618" /><rect fill="none" height="50" stroke="black" stroke-width="1" width="50" x="510" y="364.723" /><rect fill="none" height="50" stroke="black" stroke-width="1" width="50" x="520" y="-44.1727" /><rect fill="none" height="50" stroke="black" stroke-width="1" width="50" x="520" y="58.3866" /><rect fill="none" height="50" stroke="black" stroke-width="1" width="50" x="520" y="161.3618" /><rect fill="none" height="50" stroke="black" stroke-width="1" width="50" x="520" y="264.723" /><rect fill="none" height="50" stroke="black" stroke-width="1" width="50" x="520" y="368.4367" /><rect fill="none" height="50" stroke="black" stroke-width="1" width="50" x="530" y="-41.6134" /><rect fill="none" height="50" stroke="black" stroke-width="1" width="50" x="530" y="61.3618" /><rect fill="none" height="50" stroke="black" stroke-width="1" width="50" x="530" y="164.723" /><rect fill="none" height="50" stroke="black" stroke-width="1" width="50" x="530" y="268.4367" /><rect fill="none" height="50" stroke="black" stroke-width="1" width="50" x="530" y="372.4657" /><rect fill="none" height="50" stroke="black" stroke-width="1" width="50" x="540" y="-38.6382" /><rect fill="none" height="50" stroke="black" stroke-width="1" width="50" x="540" y="64.723" /><rect fill="none" height="50" stroke="black" stroke-width="1" width="50" x="540" y="168.4367" /><rect fill="none" height="50" stroke="black" stroke-width="1" width="50" x="540" y="272.4657" /><rect fill="none" height="50" stroke="black" stroke-width="1" width="50" x="540" y="376.7699" /><rect fill="none" height="50" stroke="black" stroke-width="1" width="50" x="550" y="-35.277" /><rect fill="none" height="50" stroke="black" stroke-width="1" width="50" x="550" y="68.4367" /><rect fill="none" height="50" stroke="black" stroke-width="1" width="50" x="550" y="172.4657" /><rect fill="none" height="50" stroke="black" stroke-width="1" width="50" x="550" y="276.7699" /><rect fill="none" height="50" stroke="black" stroke-width="1" width="50" x="550" y="381.3062" /><rect fill="none" height="50" stroke="black" stroke-width="1" width="50" x="560" y="-31.5633" /><rect fill="none" height="50" stroke="black" stroke-width="1" width="50" x="560" y="72.4657" /><rect fill="none" height="50" stroke="black" stroke-width="1" width="50" x="560" y="176.7699" /><rect fill="none" height="50" stroke="black" stroke-width="1" width="50" x="560" y="281.3062" /><rect fill="none" height="50" stroke="black" stroke-width="1" width="50" x="560" y="386.0292" /><rect fill="none" height="50" stroke="black" stroke-width="1" width="50" x="570" y="-27.5343" /><rect fill="none" height="50" stroke="black" stroke-width="1" width="50" x="570" y="76.7699" /><rect fill="none" height="50" stroke="black" stroke-width="1" width="50" x="570" y="181.3062" /><rect fill="none" height="50" stroke="black" stroke-width="1" width="50" x="570" y="286.0292" /><rect fill="none" height="50" stroke="black" stroke-width="1" width="50" x="570" y="390.8919" /><rect fill="none" height="50" stroke="black" stroke-width="1" width="50" x="580" y="-23.2301" /><rect fill="none" height="50" stroke="black" stroke-width="1" width="50" x="580" y="81.3062" /><rect fill="none" height="50" stroke="black" stroke-width="1" width="50" x="580" y="186.0292" /><rect fill="none" height="50" stroke="black" stroke-width="1" width="50" x="580" y="290.8919" /><rect fill="none" height="50" stroke="black" stroke-width="1" width="50" x="580" y="395.8455" /><rect fill="none" height="50" stroke="black" stroke-width="1" width="50" x="590" y="-18.6938" /><rect fill="none" height="50" stroke="black" stroke-width="1" width="50" x="590" y="86.0292" /><rect fill="none" height="50" stroke="black" stroke-width="1" width="50" x="590" y="190.8919" /><rect fill="none" height="50" stroke="black" stroke-width="1" width="50" x="590" y="295.8455" /><rect fill="none" height="50" stroke="black" stroke-width="1" width="50" x="590" y="400.8407" /><rect fill="none" height="50" stroke="black" stroke-width="1" width="50" x="600" y="-13.9708" /><rect fill="none" height="50" stroke="black" stroke-width="1" width="50" x="600" y="90.8919" /><rect fill="none" height="50" stroke="black" stroke-width="1" width="50" x="600" y="195.8455" /><rect fill="none" height="50" stroke="black" stroke-width="1" width="50" x="600" y="300.8407" /><rect fill="none" height="50" stroke="black" stroke-width="1" width="50" x="600" y="405.8275" /><rect fill="none" height="50" stroke="black" stroke-width="1" width="50" x="610" y="-9.1081" /><rect fill="none" height="50" stroke="black" stroke-width="1" width="50" x="610" y="95.8455" /><rect fill="none" height="50" stroke="black" stroke-width="1" width="50" x="610" y="200.8407" /><rect fill="none" height="50" stroke="black" stroke-width="1" width="50" x="610" y="305.8275" /><rect fill="none" height="50" stroke="black" stroke-width="1" width="50" x="610" y="410.756" /><rect fill="none" height="50" stroke="black" stroke-width="1" width="50" x="620" y="-4.1545" /><rect fill="none" height="50" stroke="black" stroke-width="1" width="50" x="620" y="100.8407" /><rect fill="none" height="50" stroke="black" stroke-width="1" width="50" x="620" y="205.8275" /><rect fill="none" height="50" stroke="black" stroke-width="1" width="50" x="620" y="310.756" /><rect fill="none" height="50" stroke="black" stroke-width="1" width="50" x="620" y="415.5771" /><rect fill="none" height="50" stroke="black" stroke-width="1" width="50" x="630" y="0.8407" /><rect fill="none" height="50" stroke="black" stroke-width="1" width="50" x="630" y="105.8275" /><rect fill="none" height="50" stroke="black" stroke-width="1" width="50" x="630" y="210.756" /><rect fill="none" height="50" stroke="black" stroke-width="1" width="50" x="630" y="315.5771" /><rect fill="none" height="50" stroke="black" stroke-width="1" width="50" x="630" y="420.2425" /><rect fill="none" height="50" stroke="black" stroke-width="1" width="50" x="640" y="5.8275" /><rect fill="none" height="50" stroke="black" stroke-width="1" width="50" x="640" y="110.756" /><rect fill="none" height="50" stroke="black" stroke-width="1" width="50" x="640" y="215.5771" /><rect fill="none" height="50" stroke="black" stroke-width="1" width="50" x="640" y="320.2425" /><rect fill="none" height="50" stroke="black" stroke-width="1" width="50" x="640" y="424.7057" /></svg>