<?xml version="1.0" encoding="utf-8" ?>
<svg baseProfile="tiny" height="500" version="1.2" width="500" xmlns="http://www.w3.org/2000/svg" xmlns:ev="http://www.w3.org/2001/xml-events" xmlns:xlink="http://www.w3.org/1999/xlink"><defs /><rect fill="none" height="10" stroke="black" stroke-width="0.5" transform="rotate(0.0 0 0)" width="10" x="0" y="0" /><rect fill="none" height="10" stroke="black" stroke-width="0.5" transform="rotate(0.008785906719857961 0 10)" width="10" x="0" y="10" /><rect fill="none" height="10" stroke="black" stroke-width="0.5" transform="rotate(-0.09038587103460727 0 20)" width="10" x="0" y="20" /><rect fill="none" height="10" stroke="black" stroke-width="0.5" transform="rotate(0.17186351746099518 0 30)" width="10" x="0" y="30" /><rect fill="none" height="10" stroke="black" stroke-width="0.5" transform="rotate(0.782092125363975 0 40)" width="10" x="0" y="40" /><rect fill="none" height="10" stroke="black" stroke-width="0.5" transform="rotate(-1.2332795066131426 0 50)" width="10" x="0" y="50" /><rect fill="none" height="10" stroke="black" stroke-width="0.5" transform="rotate(1.5522490719088053 0 60)" width="10" x="0" y="60" /><rect fill="none" height="10" stroke="black" stroke-width="0.5" transform="rotate(2.1199406933777842 0 70)" width="10" x="0" y="70" /><rect fill="none" height="10" stroke="black" stroke-width="0.5" transform="rotate(-0.5240373248996342 0 80)" width="10" x="0" y="80" /><rect fill="none" height="10" stroke="black" stroke-width="0.5" transform="rotate(-3.4991974761624496 0 90)" width="10" x="0" y="90" /><rect fill="none" height="10" stroke="black" stroke-width="0.5" transform="rotate(-3.699915184606298 0 100)" width="10" x="0" y="100" /><rect fill="none" height="10" stroke="black" stroke-width="0.5" transform="rotate(3.4886827297754976 0 110)" width="10" x="0" y="110" /><rect fill="none" height="10" stroke="black" stroke-width="0.5" transform="rotate(-6.5569230068576045 0 120)" width="10" x="0" y="120" /><rect fill="none" height="10" stroke="black" stroke-width="0.5" transform="rotate(1.348133227442385 0 130)" width="10" x="0" y="130" /><rect fill="none" height="10" stroke="black" stroke-width="0.5" transform="rotate(4.157133660468467 0 140)" width="10" x="0" y="140" /><rect fill="none" height="10" stroke="black" stroke-width="0.5" transform="rotate(-3.9322515755997225 0 150)" width="10" x="0" y="150" /><rect fill="none" height="10" stroke="black" stroke-width="0.5" transform="rotate(7.175646388777435 0 160)" width="10" x="0" y="160" /><rect fill="none" height="10" stroke="black" stroke-width="0.5" transform="rotate(-3.003111803738065 0 170)" width="10" x="0" y="170" /><rect fill="none" height="10" stroke="black" stroke-width="0.5" transform="rotate(-9.137556093484362 0 180)" width="10" x="0" y="180" /><rect fill="none" height="10" stroke="black" stroke-width="0.5" transform="rotate(-2.974367399461014 0 190)" width="10" x="0" y="190" /><rect fill="none" height="10" stroke="black" stroke-width="0.5" transform="rotate(-15.349088568635334 0 200)" width="10" x="0" y="200" /><rect fill="none" height="10" stroke="black" stroke-width="0.5" transform="rotate(8.45825241311408 0 210)" width="10" x="0" y="210" /><rect fill="none" height="10" stroke="black" stroke-width="0.5" transform="rotate(-4.586339321723249 0 220)" width="10" x="0" y="220" /><rect fill="none" height="10" stroke="black" stroke-width="0.5" transform="rotate(-9.138710980634405 0 230)" width="10" x="0" y="230" /><rect fill="none" height="10" stroke="black" stroke-width="0.5" transform="rotate(-21.861165082534804 0 240)" width="10" x="0" y="240" /><rect fill="none" height="10" stroke="black" stroke-width="0.5" transform="rotate(30.944414711423086 0 250)" width="10" x="0" y="250" /><rect fill="none" height="10" stroke="black" stroke-width="0.5" transform="rotate(-6.4391409004741735 0 260)" width="10" x="0" y="260" /><rect fill="none" height="10" stroke="black" stroke-width="0.5" transform="rotate(35.11089781041876 0 270)" width="10" x="0" y="270" /><rect fill="none" height="10" stroke="black" stroke-width="0.5" transform="rotate(17.926103909152204 0 280)" width="10" x="0" y="280" /><rect fill="none" height="10" stroke="black" stroke-width="0.5" transform="rotate(-39.86142470501541 0 290)" width="10" x="0" y="290" /><rect fill="none" height="10" stroke="black" stroke-width="0.5" transform="rotate(0.0 10 0)" width="10" x="10" y="0" /><rect fill="none" height="10" stroke="black" stroke-width="0.5" transform="rotate(0.03743252337742407 10 10)" width="10" x="10" y="10" /><rect fill="none" height="10" stroke="black" stroke-width="0.5" transform="rotate(-0.17522867786079277 10 20)" width="10" x="10" y="20" /><rect fill="none" height="10" stroke="black" stroke-width="0.5" transform="rotate(-0.09405612726544875 10 30)" width="10" x="10" y="30" /><rect fill="none" height="10" stroke="black" stroke-width="0.5" transform="rotate(0.12139694301477562 10 40)" width="10" x="10" y="40" /><rect fill="none" height="10" stroke="black" stroke-width="0.5" transform="rotate(-0.5960972029204239 10 50)" width="10" x="10" y="50" /><rect fill="none" height="10" stroke="black" stroke-width="0.5" transform="rotate(-0.9949726762333135 10 60)" width="10" x="10" y="60" /><rect fill="none" height="10" stroke="black" stroke-width="0.5" transform="rotate(-1.413108339037986 10 70)" width="10" x="10" y="70" /><rect fill="none" height="10" stroke="black" stroke-width="0.5" transform="rotate(2.9639081098656193 10 80)" width="10" x="10" y="80" /><rect fill="none" height="10" stroke="black" stroke-width="0.5" transform="rotate(-1.1309505550421206 10 90)" width="10" x="10" y="90" /><rect fill="none" height="10" stroke="black" stroke-width="0.5" transform="rotate(1.7675145803773131 10 100)" width="10" x="10" y="100" /><rect fill="none" height="10" stroke="black" stroke-width="0.5" transform="rotate(1.300164361322906 10 110)" width="10" x="10" y="110" /><rect fill="none" height="10" stroke="black" stroke-width="0.5" transform="rotate(4.281185253560532 10 120)" width="10" x="10" y="120" /><rect fill="none" height="10" stroke="black" stroke-width="0.5" transform="rotate(8.134914497118661 10 130)" width="10" x="10" y="130" /><rect fill="none" height="10" stroke="black" stroke-width="0.5" transform="rotate(-2.4401713546395394 10 140)" width="10" x="10" y="140" /><rect fill="none" height="10" stroke="black" stroke-width="0.5" transform="rotate(-8.912018860187676 10 150)" width="10" x="10" y="150" /><rect fill="none" height="10" stroke="black" stroke-width="0.5" transform="rotate(-7.091825178849055 10 160)" width="10" x="10" y="160" /><rect fill="none" height="10" stroke="black" stroke-width="0.5" transform="rotate(1.4078422197295515 10 170)" width="10" x="10" y="170" /><rect fill="none" height="10" stroke="black" stroke-width="0.5" transform="rotate(-1.1062947905756908 10 180)" width="10" x="10" y="180" /><rect fill="none" height="10" stroke="black" stroke-width="0.5" transform="rotate(-13.178353308455797 10 190)" width="10" x="10" y="190" /><rect fill="none" height="10" stroke="black" stroke-width="0.5" transform="rotate(-4.439007918527178 10 200)" width="10" x="10" y="200" /><rect fill="none" height="10" stroke="black" stroke-width="0.5" transform="rotate(-16.260206029108897 10 210)" width="10" x="10" y="210" /><rect fill="none" height="10" stroke="black" stroke-width="0.5" transform="rotate(22.80918450784269 10 220)" width="10" x="10" y="220" /><rect fill="none" height="10" stroke="black" stroke-width="0.5" transform="rotate(8.769049861610501 10 230)" width="10" x="10" y="230" /><rect fill="none" height="10" stroke="black" stroke-width="0.5" transform="rotate(4.770883292621494 10 240)" width="10" x="10" y="240" /><rect fill="none" height="10" stroke="black" stroke-width="0.5" transform="rotate(30.046195909871834 10 250)" width="10" x="10" y="250" /><rect fill="none" height="10" stroke="black" stroke-width="0.5" transform="rotate(-4.7672163517336665 10 260)" width="10" x="10" y="260" /><rect fill="none" height="10" stroke="black" stroke-width="0.5" transform="rotate(26.577167911658137 10 270)" width="10" x="10" y="270" /><rect fill="none" height="10" stroke="black" stroke-width="0.5" transform="rotate(38.18896311210257 10 280)" width="10" x="10" y="280" /><rect fill="none" height="10" stroke="black" stroke-width="0.5" transform="rotate(-33.38684389572021 10 290)" width="10" x="10" y="290" /><rect fill="none" height="10" stroke="black" stroke-width="0.5" transform="rotate(0.0 20 0)" width="10" x="20" y="0" /><rect fill="none" height="10" stroke="black" stroke-width="0.5" transform="rotate(0.03670237302020618 20 10)" width="10" x="20" y="10" /><rect fill="none" height="10" stroke="black" stroke-width="0.5" transform="rotate(-0.054357269549704636 20 20)" width="10" x="20" y="20" /><rect fill="none" height="10" stroke="black" stroke-width="0.5" transform="rotate(-0.4250238190994738 20 30)" width="10" x="20" y="30" /><rect fill="none" height="10" stroke="black" stroke-width="0.5" transform="rotate(-0.1596891605784231 20 40)" width="10" x="20" y="40" /><rect fill="none" height="10" stroke="black" stroke-width="0.5" transform="rotate(0.12786963554399594 20 50)" width="10" x="20" y="50" /><rect fill="none" height="10" stroke="black" stroke-width="0.5" transform="rotate(-1.693704233078843 20 60)" width="10" x="20" y="60" /><rect fill="none" height="10" stroke="black" stroke-width="0.5" transform="rotate(-0.7075256499916595 20 70)" width="10" x="20" y="70" /><rect fill="none" height="10" stroke="black" stroke-width="0.5" transform="rotate(0.4743302941764931 20 80)" width="10" x="20" y="80" /><rect fill="none" height="10" stroke="black" stroke-width="0.5" transform="rotate(1.1242428961618034 20 90)" width="10" x="20" y="90" /><rect fill="none" height="10" stroke="black" stroke-width="0.5" transform="rotate(0.04397095252663963 20 100)" width="10" x="20" y="100" /><rect fill="none" height="10" stroke="black" stroke-width="0.5" transform="rotate(2.624418197847004 20 110)" width="10" x="20" y="110" /><rect fill="none" height="10" stroke="black" stroke-width="0.5" transform="rotate(1.9435606240746037 20 120)" width="10" x="20" y="120" /><rect fill="none" height="10" stroke="black" stroke-width="0.5" transform="rotate(-7.646204910155426 20 130)" width="10" x="20" y="130" /><rect fill="none" height="10" stroke="black" stroke-width="0.5" transform="rotate(-2.729856391541054 20 140)" width="10" x="20" y="140" /><rect fill="none" height="10" stroke="black" stroke-width="0.5" transform="rotate(-7.375438618806884 20 150)" width="10" x="20" y="150" /><rect fill="none" height="10" stroke="black" stroke-width="0.5" transform="rotate(1.0047596887381416 20 160)" width="10" x="20" y="160" /><rect fill="none" height="10" stroke="black" stroke-width="0.5" transform="rotate(-9.84170310065316 20 170)" width="10" x="20" y="170" /><rect fill="none" height="10" stroke="black" stroke-width="0.5" transform="rotate(-14.697287672755028 20 180)" width="10" x="20" y="180" /><rect fill="none" height="10" stroke="black" stroke-width="0.5" transform="rotate(-8.260884197125417 20 190)" width="10" x="20" y="190" /><rect fill="none" height="10" stroke="black" stroke-width="0.5" transform="rotate(-15.172148968176069 20 200)" width="10" x="20" y="200" /><rect fill="none" height="10" stroke="black" stroke-width="0.5" transform="rotate(15.700656737667776 20 210)" width="10" x="20" y="210" /><rect fill="none" height="10" stroke="black" stroke-width="0.5" transform="rotate(-18.46260223597346 20 220)" width="10" x="20" y="220" /><rect fill="none" height="10" stroke="black" stroke-width="0.5" transform="rotate(-7.115007921941308 20 230)" width="10" x="20" y="230" /><rect fill="none" height="10" stroke="black" stroke-width="0.5" transform="rotate(11.595834535105876 20 240)" width="10" x="20" y="240" /><rect fill="none" height="10" stroke="black" stroke-width="0.5" transform="rotate(-17.07483314405847 20 250)" width="10" x="20" y="250" /><rect fill="none" height="10" stroke="black" stroke-width="0.5" transform="rotate(5.501961396777128 20 260)" width="10" x="20" y="260" /><rect fill="none" height="10" stroke="black" stroke-width="0.5" transform="rotate(-20.224943434791722 20 270)" width="10" x="20" y="270" /><rect fill="none" height="10" stroke="black" stroke-width="0.5" transform="rotate(13.306239979504474 20 280)" width="10" x="20" y="280" /><rect fill="none" height="10" stroke="black" stroke-width="0.5" transform="rotate(-35.366209975961496 20 290)" width="10" x="20" y="290" /><rect fill="none" height="10" stroke="black" stroke-width="0.5" transform="rotate(-0.0 30 0)" width="10" x="30" y="0" /><rect fill="none" height="10" stroke="black" stroke-width="0.5" transform="rotate(-0.015714240017591752 30 10)" width="10" x="30" y="10" /><rect fill="none" height="10" stroke="black" stroke-width="0.5" transform="rotate(-0.18587534055511182 30 20)" width="10" x="30" y="20" /><rect fill="none" height="10" stroke="black" stroke-width="0.5" transform="rotate(-0.16886064353092295 30 30)" width="10" x="30" y="30" /><rect fill="none" height="10" stroke="black" stroke-width="0.5" transform="rotate(0.7061898954978864 30 40)" width="10" x="30" y="40" /><rect fill="none" height="10" stroke="black" stroke-width="0.5" transform="rotate(0.8476719312961102 30 50)" width="10" x="30" y="50" /><rect fill="none" height="10" stroke="black" stroke-width="0.5" transform="rotate(-0.5319895324188954 30 60)" width="10" x="30" y="60" /><rect fill="none" height="10" stroke="black" stroke-width="0.5" transform="rotate(1.252830203849078 30 70)" width="10" x="30" y="70" /><rect fill="none" height="10" stroke="black" stroke-width="0.5" transform="rotate(-1.9522638325054615 30 80)" width="10" x="30" y="80" /><rect fill="none" height="10" stroke="black" stroke-width="0.5" transform="rotate(-3.1543660076315705 30 90)" width="10" x="30" y="90" /><rect fill="none" height="10" stroke="black" stroke-width="0.5" transform="rotate(-4.572395694236537 30 100)" width="10" x="30" y="100" /><rect fill="none" height="10" stroke="black" stroke-width="0.5" transform="rotate(-4.34203155095917 30 110)" width="10" x="30" y="110" /><rect fill="none" height="10" stroke="black" stroke-width="0.5" transform="rotate(-2.496723565383667 30 120)" width="10" x="30" y="120" /><rect fill="none" height="10" stroke="black" stroke-width="0.5" transform="rotate(3.869509604241995 30 130)" width="10" x="30" y="130" /><rect fill="none" height="10" stroke="black" stroke-width="0.5" transform="rotate(-1.4837331722176863 30 140)" width="10" x="30" y="140" /><rect fill="none" height="10" stroke="black" stroke-width="0.5" transform="rotate(-6.386774408524981 30 150)" width="10" x="30" y="150" /><rect fill="none" height="10" stroke="black" stroke-width="0.5" transform="rotate(-9.487490785704875 30 160)" width="10" x="30" y="160" /><rect fill="none" height="10" stroke="black" stroke-width="0.5" transform="rotate(8.710969255369074 30 170)" width="10" x="30" y="170" /><rect fill="none" height="10" stroke="black" stroke-width="0.5" transform="rotate(-1.9347553145009386 30 180)" width="10" x="30" y="180" /><rect fill="none" height="10" stroke="black" stroke-width="0.5" transform="rotate(-16.350375878121163 30 190)" width="10" x="30" y="190" /><rect fill="none" height="10" stroke="black" stroke-width="0.5" transform="rotate(6.529653750980925 30 200)" width="10" x="30" y="200" /><rect fill="none" height="10" stroke="black" stroke-width="0.5" transform="rotate(20.23155740230383 30 210)" width="10" x="30" y="210" /><rect fill="none" height="10" stroke="black" stroke-width="0.5" transform="rotate(-9.44280287838002 30 220)" width="10" x="30" y="220" /><rect fill="none" height="10" stroke="black" stroke-width="0.5" transform="rotate(-5.9642393247509595 30 230)" width="10" x="30" y="230" /><rect fill="none" height="10" stroke="black" stroke-width="0.5" transform="rotate(27.077557086091588 30 240)" width="10" x="30" y="240" /><rect fill="none" height="10" stroke="black" stroke-width="0.5" transform="rotate(4.988834937635953 30 250)" width="10" x="30" y="250" /><rect fill="none" height="10" stroke="black" stroke-width="0.5" transform="rotate(30.4376912311574 30 260)" width="10" x="30" y="260" /><rect fill="none" height="10" stroke="black" stroke-width="0.5" transform="rotate(-2.4183380718052905 30 270)" width="10" x="30" y="270" /><rect fill="none" height="10" stroke="black" stroke-width="0.5" transform="rotate(19.26154987956202 30 280)" width="10" x="30" y="280" /><rect fill="none" height="10" stroke="black" stroke-width="0.5" transform="rotate(-31.133885646136655 30 290)" width="10" x="30" y="290" /><rect fill="none" height="10" stroke="black" stroke-width="0.5" transform="rotate(0.0 40 0)" width="10" x="40" y="0" /><rect fill="none" height="10" stroke="black" stroke-width="0.5" transform="rotate(0.007419263442186308 40 10)" width="10" x="40" y="10" /><rect fill="none" height="10" stroke="black" stroke-width="0.5" transform="rotate(-0.12705215018647714 40 20)" width="10" x="40" y="20" /><rect fill="none" height="10" stroke="black" stroke-width="0.5" transform="rotate(0.41955670205313816 40 30)" width="10" x="40" y="30" /><rect fill="none" height="10" stroke="black" stroke-width="0.5" transform="rotate(-0.24022513059692194 40 40)" width="10" x="40" y="40" /><rect fill="none" height="10" stroke="black" stroke-width="0.5" transform="rotate(1.0690987461455652 40 50)" width="10" x="40" y="50" /><rect fill="none" height="10" stroke="black" stroke-width="0.5" transform="rotate(-1.7757916676352345 40 60)" width="10" x="40" y="60" /><rect fill="none" height="10" stroke="black" stroke-width="0.5" transform="rotate(0.9960150402101267 40 70)" width="10" x="40" y="70" /><rect fill="none" height="10" stroke="black" stroke-width="0.5" transform="rotate(0.08472237661004982 40 80)" width="10" x="40" y="80" /><rect fill="none" height="10" stroke="black" stroke-width="0.5" transform="rotate(0.28823618966408926 40 90)" width="10" x="40" y="90" /><rect fill="none" height="10" stroke="black" stroke-width="0.5" transform="rotate(2.7877025855060333 40 100)" width="10" x="40" y="100" /><rect fill="none" height="10" stroke="black" stroke-width="0.5" transform="rotate(-4.859337072180008 40 110)" width="10" x="40" y="110" /><rect fill="none" height="10" stroke="black" stroke-width="0.5" transform="rotate(2.777339853666541 40 120)" width="10" x="40" y="120" /><rect fill="none" height="10" stroke="black" stroke-width="0.5" transform="rotate(4.934468584483907 40 130)" width="10" x="40" y="130" /><rect fill="none" height="10" stroke="black" stroke-width="0.5" transform="rotate(5.434044483921658 40 140)" width="10" x="40" y="140" /><rect fill="none" height="10" stroke="black" stroke-width="0.5" transform="rotate(-5.673936039385624 40 150)" width="10" x="40" y="150" /><rect fill="none" height="10" stroke="black" stroke-width="0.5" transform="rotate(-5.177152932522295 40 160)" width="10" x="40" y="160" /><rect fill="none" height="10" stroke="black" stroke-width="0.5" transform="rotate(-12.829979190311644 40 170)" width="10" x="40" y="170" /><rect fill="none" height="10" stroke="black" stroke-width="0.5" transform="rotate(2.019732562441825 40 180)" width="10" x="40" y="180" /><rect fill="none" height="10" stroke="black" stroke-width="0.5" transform="rotate(-5.064612131181747 40 190)" width="10" x="40" y="190" /><rect fill="none" height="10" stroke="black" stroke-width="0.5" transform="rotate(-16.129336114736116 40 200)" width="10" x="40" y="200" /><rect fill="none" height="10" stroke="black" stroke-width="0.5" transform="rotate(-14.148440377849909 40 210)" width="10" x="40" y="210" /><rect fill="none" height="10" stroke="black" stroke-width="0.5" transform="rotate(21.2989751493645 40 220)" width="10" x="40" y="220" /><rect fill="none" height="10" stroke="black" stroke-width="0.5" transform="rotate(-24.17318940931819 40 230)" width="10" x="40" y="230" /><rect fill="none" height="10" stroke="black" stroke-width="0.5" transform="rotate(-25.482353019420554 40 240)" width="10" x="40" y="240" /><rect fill="none" height="10" stroke="black" stroke-width="0.5" transform="rotate(-0.2630006684431266 40 250)" width="10" x="40" y="250" /><rect fill="none" height="10" stroke="black" stroke-width="0.5" transform="rotate(-21.368839776703528 40 260)" width="10" x="40" y="260" /><rect fill="none" height="10" stroke="black" stroke-width="0.5" transform="rotate(-21.015172299081566 40 270)" width="10" x="40" y="270" /><rect fill="none" height="10" stroke="black" stroke-width="0.5" transform="rotate(33.09829075386038 40 280)" width="10" x="40" y="280" /><rect fill="none" height="10" stroke="black" stroke-width="0.5" transform="rotate(23.615901992279333 40 290)" width="10" x="40" y="290" /><rect fill="none" height="10" stroke="black" stroke-width="0.5" transform="rotate(0.0 50 0)" width="10" x="50" y="0" /><rect fill="none" height="10" stroke="black" stroke-width="0.5" transform="rotate(0.01507970874907828 50 10)" width="10" x="50" y="10" /><rect fill="none" height="10" stroke="black" stroke-width="0.5" transform="rotate(-0.08156858596740361 50 20)" width="10" x="50" y="20" /><rect fill="none" height="10" stroke="black" stroke-width="0.5" transform="rotate(-0.2531769036474556 50 30)" width="10" x="50" y="30" /><rect fill="none" height="10" stroke="black" stroke-width="0.5" transform="rotate(-0.7643751836452101 50 40)" width="10" x="50" y="40" /><rect fill="none" height="10" stroke="black" stroke-width="0.5" transform="rotate(-0.23415698283928726 50 50)" width="10" x="50" y="50" /><rect fill="none" height="10" stroke="black" stroke-width="0.5" transform="rotate(0.19664599591127235 50 60)" width="10" x="50" y="60" /><rect fill="none" height="10" stroke="black" stroke-width="0.5" transform="rotate(0.4424993250141028 50 70)" width="10" x="50" y="70" /><rect fill="none" height="10" stroke="black" stroke-width="0.5" transform="rotate(0.8533763904961432 50 80)" width="10" x="50" y="80" /><rect fill="none" height="10" stroke="black" stroke-width="0.5" transform="rotate(0.6833554928017002 50 90)" width="10" x="50" y="90" /><rect fill="none" height="10" stroke="black" stroke-width="0.5" transform="rotate(-2.1185771190366323 50 100)" width="10" x="50" y="100" /><rect fill="none" height="10" stroke="black" stroke-width="0.5" transform="rotate(-3.5273101587063684 50 110)" width="10" x="50" y="110" /><rect fill="none" height="10" stroke="black" stroke-width="0.5" transform="rotate(4.170146688819734 50 120)" width="10" x="50" y="120" /><rect fill="none" height="10" stroke="black" stroke-width="0.5" transform="rotate(-1.4288721462419036 50 130)" width="10" x="50" y="130" /><rect fill="none" height="10" stroke="black" stroke-width="0.5" transform="rotate(-7.569249789248454 50 140)" width="10" x="50" y="140" /><rect fill="none" height="10" stroke="black" stroke-width="0.5" transform="rotate(0.9147606333913624 50 150)" width="10" x="50" y="150" /><rect fill="none" height="10" stroke="black" stroke-width="0.5" transform="rotate(-3.382978848029734 50 160)" width="10" x="50" y="160" /><rect fill="none" height="10" stroke="black" stroke-width="0.5" transform="rotate(-8.607540031264412 50 170)" width="10" x="50" y="170" /><rect fill="none" height="10" stroke="black" stroke-width="0.5" transform="rotate(-0.07462863412532554 50 180)" width="10" x="50" y="180" /><rect fill="none" height="10" stroke="black" stroke-width="0.5" transform="rotate(-3.6131539859726276 50 190)" width="10" x="50" y="190" /><rect fill="none" height="10" stroke="black" stroke-width="0.5" transform="rotate(-2.2005558903535283 50 200)" width="10" x="50" y="200" /><rect fill="none" height="10" stroke="black" stroke-width="0.5" transform="rotate(-7.989073270061413 50 210)" width="10" x="50" y="210" /><rect fill="none" height="10" stroke="black" stroke-width="0.5" transform="rotate(-3.533036048799727 50 220)" width="10" x="50" y="220" /><rect fill="none" height="10" stroke="black" stroke-width="0.5" transform="rotate(3.1199694394595863 50 230)" width="10" x="50" y="230" /><rect fill="none" height="10" stroke="black" stroke-width="0.5" transform="rotate(26.853891175317255 50 240)" width="10" x="50" y="240" /><rect fill="none" height="10" stroke="black" stroke-width="0.5" transform="rotate(-20.874095829260362 50 250)" width="10" x="50" y="250" /><rect fill="none" height="10" stroke="black" stroke-width="0.5" transform="rotate(-17.68155302403931 50 260)" width="10" x="50" y="260" /><rect fill="none" height="10" stroke="black" stroke-width="0.5" transform="rotate(0.6989917113348054 50 270)" width="10" x="50" y="270" /><rect fill="none" height="10" stroke="black" stroke-width="0.5" transform="rotate(37.36050641987113 50 280)" width="10" x="50" y="280" /><rect fill="none" height="10" stroke="black" stroke-width="0.5" transform="rotate(-38.27136194251891 50 290)" width="10" x="50" y="290" /><rect fill="none" height="10" stroke="black" stroke-width="0.5" transform="rotate(-0.0 60 0)" width="10" x="60" y="0" /><rect fill="none" height="10" stroke="black" stroke-width="0.5" transform="rotate(0.011736554034639935 60 10)" width="10" x="60" y="10" /><rect fill="none" height="10" stroke="black" stroke-width="0.5" transform="rotate(-0.02286605221740352 60 20)" width="10" x="60" y="20" /><rect fill="none" height="10" stroke="black" stroke-width="0.5" transform="rotate(0.18995849395198217 60 30)" width="10" x="60" y="30" /><rect fill="none" height="10" stroke="black" stroke-width="0.5" transform="rotate(-0.73470398347903 60 40)" width="10" x="60" y="40" /><rect fill="none" height="10" stroke="black" stroke-width="0.5" transform="rotate(-1.2435166451026465 60 50)" width="10" x="60" y="50" /><rect fill="none" height="10" stroke="black" stroke-width="0.5" transform="rotate(0.05068453999947824 60 60)" width="10" x="60" y="60" /><rect fill="none" height="10" stroke="black" stroke-width="0.5" transform="rotate(1.0980067963134028 60 70)" width="10" x="60" y="70" /><rect fill="none" height="10" stroke="black" stroke-width="0.5" transform="rotate(2.0395305153181815 60 80)" width="10" x="60" y="80" /><rect fill="none" height="10" stroke="black" stroke-width="0.5" transform="rotate(3.4648986274363254 60 90)" width="10" x="60" y="90" /><rect fill="none" height="10" stroke="black" stroke-width="0.5" transform="rotate(3.915567956391675 60 100)" width="10" x="60" y="100" /><rect fill="none" height="10" stroke="black" stroke-width="0.5" transform="rotate(2.911104221685586 60 110)" width="10" x="60" y="110" /><rect fill="none" height="10" stroke="black" stroke-width="0.5" transform="rotate(1.7106459330512915 60 120)" width="10" x="60" y="120" /><rect fill="none" height="10" stroke="black" stroke-width="0.5" transform="rotate(-0.4197637668074251 60 130)" width="10" x="60" y="130" /><rect fill="none" height="10" stroke="black" stroke-width="0.5" transform="rotate(5.69646942163988 60 140)" width="10" x="60" y="140" /><rect fill="none" height="10" stroke="black" stroke-width="0.5" transform="rotate(0.1596903936869845 60 150)" width="10" x="60" y="150" /><rect fill="none" height="10" stroke="black" stroke-width="0.5" transform="rotate(-9.5034696081325 60 160)" width="10" x="60" y="160" /><rect fill="none" height="10" stroke="black" stroke-width="0.5" transform="rotate(13.582171307712082 60 170)" width="10" x="60" y="170" /><rect fill="none" height="10" stroke="black" stroke-width="0.5" transform="rotate(8.09144508528883 60 180)" width="10" x="60" y="180" /><rect fill="none" height="10" stroke="black" stroke-width="0.5" transform="rotate(-3.3320886844353623 60 190)" width="10" x="60" y="190" /><rect fill="none" height="10" stroke="black" stroke-width="0.5" transform="rotate(19.622913059344814 60 200)" width="10" x="60" y="200" /><rect fill="none" height="10" stroke="black" stroke-width="0.5" transform="rotate(4.868300345291635 60 210)" width="10" x="60" y="210" /><rect fill="none" height="10" stroke="black" stroke-width="0.5" transform="rotate(12.322141270140571 60 220)" width="10" x="60" y="220" /><rect fill="none" height="10" stroke="black" stroke-width="0.5" transform="rotate(20.170362953593212 60 230)" width="10" x="60" y="230" /><rect fill="none" height="10" stroke="black" stroke-width="0.5" transform="rotate(-19.152084729668065 60 240)" width="10" x="60" y="240" /><rect fill="none" height="10" stroke="black" stroke-width="0.5" transform="rotate(25.102023665585165 60 250)" width="10" x="60" y="250" /><rect fill="none" height="10" stroke="black" stroke-width="0.5" transform="rotate(3.2943162842198612 60 260)" width="10" x="60" y="260" /><rect fill="none" height="10" stroke="black" stroke-width="0.5" transform="rotate(32.27708720790558 60 270)" width="10" x="60" y="270" /><rect fill="none" height="10" stroke="black" stroke-width="0.5" transform="rotate(4.026242829931251 60 280)" width="10" x="60" y="280" /><rect fill="none" height="10" stroke="black" stroke-width="0.5" transform="rotate(16.535267413925716 60 290)" width="10" x="60" y="290" /><rect fill="none" height="10" stroke="black" stroke-width="0.5" transform="rotate(-0.0 70 0)" width="10" x="70" y="0" /><rect fill="none" height="10" stroke="black" stroke-width="0.5" transform="rotate(-0.0026751262744578843 70 10)" width="10" x="70" y="10" /><rect fill="none" height="10" stroke="black" stroke-width="0.5" transform="rotate(0.08587604084228913 70 20)" width="10" x="70" y="20" /><rect fill="none" height="10" stroke="black" stroke-width="0.5" transform="rotate(0.014717530330339934 70 30)" width="10" x="70" y="30" /><rect fill="none" height="10" stroke="black" stroke-width="0.5" transform="rotate(0.3360056600463491 70 40)" width="10" x="70" y="40" /><rect fill="none" height="10" stroke="black" stroke-width="0.5" transform="rotate(0.6633528899911258 70 50)" width="10" x="70" y="50" /><rect fill="none" height="10" stroke="black" stroke-width="0.5" transform="rotate(1.0598116712106065 70 60)" width="10" x="70" y="60" /><rect fill="none" height="10" stroke="black" stroke-width="0.5" transform="rotate(-2.1082311928580695 70 70)" width="10" x="70" y="70" /><rect fill="none" height="10" stroke="black" stroke-width="0.5" transform="rotate(1.025185628667689 70 80)" width="10" x="70" y="80" /><rect fill="none" height="10" stroke="black" stroke-width="0.5" transform="rotate(-3.0180551433108485 70 90)" width="10" x="70" y="90" /><rect fill="none" height="10" stroke="black" stroke-width="0.5" transform="rotate(-0.7204184393730861 70 100)" width="10" x="70" y="100" /><rect fill="none" height="10" stroke="black" stroke-width="0.5" transform="rotate(1.486669503040852 70 110)" width="10" x="70" y="110" /><rect fill="none" height="10" stroke="black" stroke-width="0.5" transform="rotate(5.94237166200462 70 120)" width="10" x="70" y="120" /><rect fill="none" height="10" stroke="black" stroke-width="0.5" transform="rotate(-7.120543959773355 70 130)" width="10" x="70" y="130" /><rect fill="none" height="10" stroke="black" stroke-width="0.5" transform="rotate(5.32035084916461 70 140)" width="10" x="70" y="140" /><rect fill="none" height="10" stroke="black" stroke-width="0.5" transform="rotate(-6.5583751084769775 70 150)" width="10" x="70" y="150" /><rect fill="none" height="10" stroke="black" stroke-width="0.5" transform="rotate(9.286111459947307 70 160)" width="10" x="70" y="160" /><rect fill="none" height="10" stroke="black" stroke-width="0.5" transform="rotate(-9.355112194567822 70 170)" width="10" x="70" y="170" /><rect fill="none" height="10" stroke="black" stroke-width="0.5" transform="rotate(14.224244748193527 70 180)" width="10" x="70" y="180" /><rect fill="none" height="10" stroke="black" stroke-width="0.5" transform="rotate(0.9004128439991073 70 190)" width="10" x="70" y="190" /><rect fill="none" height="10" stroke="black" stroke-width="0.5" transform="rotate(-13.915540746390153 70 200)" width="10" x="70" y="200" /><rect fill="none" height="10" stroke="black" stroke-width="0.5" transform="rotate(-16.581982013615434 70 210)" width="10" x="70" y="210" /><rect fill="none" height="10" stroke="black" stroke-width="0.5" transform="rotate(-7.169237515475865 70 220)" width="10" x="70" y="220" /><rect fill="none" height="10" stroke="black" stroke-width="0.5" transform="rotate(6.953725992450453 70 230)" width="10" x="70" y="230" /><rect fill="none" height="10" stroke="black" stroke-width="0.5" transform="rotate(2.911448501441954 70 240)" width="10" x="70" y="240" /><rect fill="none" height="10" stroke="black" stroke-width="0.5" transform="rotate(-20.572853934483895 70 250)" width="10" x="70" y="250" /><rect fill="none" height="10" stroke="black" stroke-width="0.5" transform="rotate(-20.26964253934376 70 260)" width="10" x="70" y="260" /><rect fill="none" height="10" stroke="black" stroke-width="0.5" transform="rotate(-24.681346144069046 70 270)" width="10" x="70" y="270" /><rect fill="none" height="10" stroke="black" stroke-width="0.5" transform="rotate(-4.476812588454882 70 280)" width="10" x="70" y="280" /><rect fill="none" height="10" stroke="black" stroke-width="0.5" transform="rotate(14.136692526469721 70 290)" width="10" x="70" y="290" /><rect fill="none" height="10" stroke="black" stroke-width="0.5" transform="rotate(0.0 80 0)" width="10" x="80" y="0" /><rect fill="none" height="10" stroke="black" stroke-width="0.5" transform="rotate(0.03293779083384117 80 10)" width="10" x="80" y="10" /><rect fill="none" height="10" stroke="black" stroke-width="0.5" transform="rotate(-0.08099740614840915 80 20)" width="10" x="80" y="20" /><rect fill="none" height="10" stroke="black" stroke-width="0.5" transform="rotate(0.2260016199103457 80 30)" width="10" x="80" y="30" /><rect fill="none" height="10" stroke="black" stroke-width="0.5" transform="rotate(-0.3775866231422869 80 40)" width="10" x="80" y="40" /><rect fill="none" height="10" stroke="black" stroke-width="0.5" transform="rotate(1.0524360965810529 80 50)" width="10" x="80" y="50" /><rect fill="none" height="10" stroke="black" stroke-width="0.5" transform="rotate(1.6971927227758699 80 60)" width="10" x="80" y="60" /><rect fill="none" height="10" stroke="black" stroke-width="0.5" transform="rotate(-1.9533003171404304 80 70)" width="10" x="80" y="70" /><rect fill="none" height="10" stroke="black" stroke-width="0.5" transform="rotate(-0.741302991804939 80 80)" width="10" x="80" y="80" /><rect fill="none" height="10" stroke="black" stroke-width="0.5" transform="rotate(-3.3891613102829785 80 90)" width="10" x="80" y="90" /><rect fill="none" height="10" stroke="black" stroke-width="0.5" transform="rotate(-3.9017880751993674 80 100)" width="10" x="80" y="100" /><rect fill="none" height="10" stroke="black" stroke-width="0.5" transform="rotate(-5.826560864520216 80 110)" width="10" x="80" y="110" /><rect fill="none" height="10" stroke="black" stroke-width="0.5" transform="rotate(-6.165183282738161 80 120)" width="10" x="80" y="120" /><rect fill="none" height="10" stroke="black" stroke-width="0.5" transform="rotate(-6.538987663686136 80 130)" width="10" x="80" y="130" /><rect fill="none" height="10" stroke="black" stroke-width="0.5" transform="rotate(-4.285199737890847 80 140)" width="10" x="80" y="140" /><rect fill="none" height="10" stroke="black" stroke-width="0.5" transform="rotate(5.62033788474216 80 150)" width="10" x="80" y="150" /><rect fill="none" height="10" stroke="black" stroke-width="0.5" transform="rotate(-6.661677660394131 80 160)" width="10" x="80" y="160" /><rect fill="none" height="10" stroke="black" stroke-width="0.5" transform="rotate(9.817738441884678 80 170)" width="10" x="80" y="170" /><rect fill="none" height="10" stroke="black" stroke-width="0.5" transform="rotate(-6.317004636410145 80 180)" width="10" x="80" y="180" /><rect fill="none" height="10" stroke="black" stroke-width="0.5" transform="rotate(13.567008224693103 80 190)" width="10" x="80" y="190" /><rect fill="none" height="10" stroke="black" stroke-width="0.5" transform="rotate(17.37140419729571 80 200)" width="10" x="80" y="200" /><rect fill="none" height="10" stroke="black" stroke-width="0.5" transform="rotate(-1.0924057419116013 80 210)" width="10" x="80" y="210" /><rect fill="none" height="10" stroke="black" stroke-width="0.5" transform="rotate(2.252906049260774 80 220)" width="10" x="80" y="220" /><rect fill="none" height="10" stroke="black" stroke-width="0.5" transform="rotate(12.699475999940914 80 230)" width="10" x="80" y="230" /><rect fill="none" height="10" stroke="black" stroke-width="0.5" transform="rotate(20.267417835722302 80 240)" width="10" x="80" y="240" /><rect fill="none" height="10" stroke="black" stroke-width="0.5" transform="rotate(3.915934923774865 80 250)" width="10" x="80" y="250" /><rect fill="none" height="10" stroke="black" stroke-width="0.5" transform="rotate(-32.935655191115686 80 260)" width="10" x="80" y="260" /><rect fill="none" height="10" stroke="black" stroke-width="0.5" transform="rotate(-24.491234553499904 80 270)" width="10" x="80" y="270" /><rect fill="none" height="10" stroke="black" stroke-width="0.5" transform="rotate(-14.888036191831509 80 280)" width="10" x="80" y="280" /><rect fill="none" height="10" stroke="black" stroke-width="0.5" transform="rotate(-38.08719668608852 80 290)" width="10" x="80" y="290" /><rect fill="none" height="10" stroke="black" stroke-width="0.5" transform="rotate(-0.0 90 0)" width="10" x="90" y="0" /><rect fill="none" height="10" stroke="black" stroke-width="0.5" transform="rotate(-0.047393042461328486 90 10)" width="10" x="90" y="10" /><rect fill="none" height="10" stroke="black" stroke-width="0.5" transform="rotate(0.0712978474124697 90 20)" width="10" x="90" y="20" /><rect fill="none" height="10" stroke="black" stroke-width="0.5" transform="rotate(-0.17079147247466628 90 30)" width="10" x="90" y="30" /><rect fill="none" height="10" stroke="black" stroke-width="0.5" transform="rotate(0.5560032138547225 90 40)" width="10" x="90" y="40" /><rect fill="none" height="10" stroke="black" stroke-width="0.5" transform="rotate(0.022446418233045273 90 50)" width="10" x="90" y="50" /><rect fill="none" height="10" stroke="black" stroke-width="0.5" transform="rotate(1.1352891430154732 90 60)" width="10" x="90" y="60" /><rect fill="none" height="10" stroke="black" stroke-width="0.5" transform="rotate(1.6543033377863423 90 70)" width="10" x="90" y="70" /><rect fill="none" height="10" stroke="black" stroke-width="0.5" transform="rotate(-1.4961860435445993 90 80)" width="10" x="90" y="80" /><rect fill="none" height="10" stroke="black" stroke-width="0.5" transform="rotate(2.6169403717950654 90 90)" width="10" x="90" y="90" /><rect fill="none" height="10" stroke="black" stroke-width="0.5" transform="rotate(4.461812811646007 90 100)" width="10" x="90" y="100" /><rect fill="none" height="10" stroke="black" stroke-width="0.5" transform="rotate(-2.28148068211474 90 110)" width="10" x="90" y="110" /><rect fill="none" height="10" stroke="black" stroke-width="0.5" transform="rotate(-6.066571225269557 90 120)" width="10" x="90" y="120" /><rect fill="none" height="10" stroke="black" stroke-width="0.5" transform="rotate(-4.5646310681711295 90 130)" width="10" x="90" y="130" /><rect fill="none" height="10" stroke="black" stroke-width="0.5" transform="rotate(-0.7304648364763578 90 140)" width="10" x="90" y="140" /><rect fill="none" height="10" stroke="black" stroke-width="0.5" transform="rotate(2.5826867671046867 90 150)" width="10" x="90" y="150" /><rect fill="none" height="10" stroke="black" stroke-width="0.5" transform="rotate(-1.716287479328099 90 160)" width="10" x="90" y="160" /><rect fill="none" height="10" stroke="black" stroke-width="0.5" transform="rotate(8.149783142167722 90 170)" width="10" x="90" y="170" /><rect fill="none" height="10" stroke="black" stroke-width="0.5" transform="rotate(-1.1112547388149239 90 180)" width="10" x="90" y="180" /><rect fill="none" height="10" stroke="black" stroke-width="0.5" transform="rotate(6.422429825833445 90 190)" width="10" x="90" y="190" /><rect fill="none" height="10" stroke="black" stroke-width="0.5" transform="rotate(10.127787572642909 90 200)" width="10" x="90" y="200" /><rect fill="none" height="10" stroke="black" stroke-width="0.5" transform="rotate(-10.288888977133047 90 210)" width="10" x="90" y="210" /><rect fill="none" height="10" stroke="black" stroke-width="0.5" transform="rotate(-17.888557302179166 90 220)" width="10" x="90" y="220" /><rect fill="none" height="10" stroke="black" stroke-width="0.5" transform="rotate(-21.211850552408137 90 230)" width="10" x="90" y="230" /><rect fill="none" height="10" stroke="black" stroke-width="0.5" transform="rotate(-13.793193560323441 90 240)" width="10" x="90" y="240" /><rect fill="none" height="10" stroke="black" stroke-width="0.5" transform="rotate(10.737069854315648 90 250)" width="10" x="90" y="250" /><rect fill="none" height="10" stroke="black" stroke-width="0.5" transform="rotate(-30.588279351808648 90 260)" width="10" x="90" y="260" /><rect fill="none" height="10" stroke="black" stroke-width="0.5" transform="rotate(14.375394134927395 90 270)" width="10" x="90" y="270" /><rect fill="none" height="10" stroke="black" stroke-width="0.5" transform="rotate(27.098513545269874 90 280)" width="10" x="90" y="280" /><rect fill="none" height="10" stroke="black" stroke-width="0.5" transform="rotate(-32.072492372545426 90 290)" width="10" x="90" y="290" /></svg>