<?xml version="1.0" encoding="utf-8" ?>
<svg baseProfile="tiny" height="500" version="1.2" width="500" xmlns="http://www.w3.org/2000/svg" xmlns:ev="http://www.w3.org/2001/xml-events" xmlns:xlink="http://www.w3.org/1999/xlink"><defs /><rect fill="none" height="462.4973" stroke="black" stroke-width="1" width="462.4973" x="152.8771" y="152.8771" /><rect fill="none" height="461.5121" stroke="black" stroke-width="1" width="461.5121" x="164.5764" y="164.5764" /><rect fill="none" height="460.517" stroke="black" stroke-width="1" width="460.517" x="172.8771" y="172.8771" /><rect fill="none" height="459.512" stroke="black" stroke-width="1" width="459.512" x="179.3157" y="179.3157" /><rect fill="none" height="458.4967" stroke="black" stroke-width="1" width="458.4967" x="184.5764" y="184.5764" /><rect fill="none" height="457.4711" stroke="black" stroke-width="1" width="457.4711" x="189.0242" y="189.0242" /><rect fill="none" height="456.4348" stroke="black" stroke-width="1" width="456.4348" x="192.8771" y="192.8771" /><rect fill="none" height="455.3877" stroke="black" stroke-width="1" width="455.3877" x="196.2756" y="196.2756" /><rect fill="none" height="454.3295" stroke="black" stroke-width="1" width="454.3295" x="199.3157" y="199.3157" /><rect fill="none" height="453.2599" stroke="black" stroke-width="1" width="453.2599" x="202.0658" y="202.0658" /><rect fill="none" height="452.1789" stroke="black" stroke-width="1" width="452.1789" x="204.5764" y="204.5764" /><rect fill="none" height="451.086" stroke="black" stroke-width="1" width="451.086" x="206.8859" y="206.8859" /><rect fill="none" height="449.981" stroke="black" stroke-width="1" width="449.981" x="209.0242" y="209.0242" /><rect fill="none" height="448.8636" stroke="black" stroke-width="1" width="448.8636" x="211.0149" y="211.0149" /><rect fill="none" height="447.7337" stroke="black" stroke-width="1" width="447.7337" x="212.8771" y="212.8771" /><rect fill="none" height="446.5908" stroke="black" stroke-width="1" width="446.5908" x="214.6264" y="214.6264" /><rect fill="none" height="445.4347" stroke="black" stroke-width="1" width="445.4347" x="216.2756" y="216.2756" /><rect fill="none" height="444.2651" stroke="black" stroke-width="1" width="444.2651" x="217.8357" y="217.8357" /><rect fill="none" height="443.0817" stroke="black" stroke-width="1" width="443.0817" x="219.3157" y="219.3157" /><rect fill="none" height="441.8841" stroke="black" stroke-width="1" width="441.8841" x="220.7235" y="220.7235" /><rect fill="none" height="440.6719" stroke="black" stroke-width="1" width="440.6719" x="222.0658" y="222.0658" /><rect fill="none" height="439.4449" stroke="black" stroke-width="1" width="439.4449" x="223.3484" y="223.3484" /><rect fill="none" height="438.2027" stroke="black" stroke-width="1" width="438.2027" x="224.5764" y="224.5764" /><rect fill="none" height="436.9448" stroke="black" stroke-width="1" width="436.9448" x="225.7542" y="225.7542" /><rect fill="none" height="435.6709" stroke="black" stroke-width="1" width="435.6709" x="226.8859" y="226.8859" /><rect fill="none" height="434.3805" stroke="black" stroke-width="1" width="434.3805" x="227.9749" y="227.9749" /><rect fill="none" height="433.0733" stroke="black" stroke-width="1" width="433.0733" x="229.0242" y="229.0242" /><rect fill="none" height="431.7488" stroke="black" stroke-width="1" width="431.7488" x="230.0367" y="230.0367" /><rect fill="none" height="430.4065" stroke="black" stroke-width="1" width="430.4065" x="231.0149" y="231.0149" /><rect fill="none" height="429.0459" stroke="black" stroke-width="1" width="429.0459" x="231.9611" y="231.9611" /><rect fill="none" height="427.6666" stroke="black" stroke-width="1" width="427.6666" x="232.8771" y="232.8771" /><rect fill="none" height="426.268" stroke="black" stroke-width="1" width="426.268" x="233.765" y="233.765" /><rect fill="none" height="424.8495" stroke="black" stroke-width="1" width="424.8495" x="234.6264" y="234.6264" /><rect fill="none" height="423.4107" stroke="black" stroke-width="1" width="423.4107" x="235.4628" y="235.4628" /><rect fill="none" height="421.9508" stroke="black" stroke-width="1" width="421.9508" x="236.2756" y="236.2756" /><rect fill="none" height="420.4693" stroke="black" stroke-width="1" width="420.4693" x="237.0662" y="237.0662" /><rect fill="none" height="418.9655" stroke="black" stroke-width="1" width="418.9655" x="237.8357" y="237.8357" /><rect fill="none" height="417.4387" stroke="black" stroke-width="1" width="417.4387" x="238.5852" y="238.5852" /><rect fill="none" height="415.8883" stroke="black" stroke-width="1" width="415.8883" x="239.3157" y="239.3157" /><rect fill="none" height="414.3135" stroke="black" stroke-width="1" width="414.3135" x="240.0282" y="240.0282" /><rect fill="none" height="412.7134" stroke="black" stroke-width="1" width="412.7134" x="240.7235" y="240.7235" /><rect fill="none" height="411.0874" stroke="black" stroke-width="1" width="411.0874" x="241.4024" y="241.4024" /><rect fill="none" height="409.4345" stroke="black" stroke-width="1" width="409.4345" x="242.0658" y="242.0658" /><rect fill="none" height="407.7537" stroke="black" stroke-width="1" width="407.7537" x="242.7142" y="242.7142" /><rect fill="none" height="406.0443" stroke="black" stroke-width="1" width="406.0443" x="243.3484" y="243.3484" /><rect fill="none" height="404.3051" stroke="black" stroke-width="1" width="404.3051" x="243.9689" y="243.9689" /><rect fill="none" height="402.5352" stroke="black" stroke-width="1" width="402.5352" x="244.5764" y="244.5764" /><rect fill="none" height="400.7333" stroke="black" stroke-width="1" width="400.7333" x="245.1713" y="245.1713" /><rect fill="none" height="398.8984" stroke="black" stroke-width="1" width="398.8984" x="245.7542" y="245.7542" /><rect fill="none" height="397.0292" stroke="black" stroke-width="1" width="397.0292" x="246.3256" y="246.3256" /><rect fill="none" height="395.1244" stroke="black" stroke-width="1" width="395.1244" x="246.8859" y="246.8859" /><rect fill="none" height="393.1826" stroke="black" stroke-width="1" width="393.1826" x="247.4355" y="247.4355" /><rect fill="none" height="391.2023" stroke="black" stroke-width="1" width="391.2023" x="247.9749" y="247.9749" /><rect fill="none" height="389.182" stroke="black" stroke-width="1" width="389.182" x="248.5043" y="248.5043" /><rect fill="none" height="387.1201" stroke="black" stroke-width="1" width="387.1201" x="249.0242" y="249.0242" /><rect fill="none" height="385.0148" stroke="black" stroke-width="1" width="385.0148" x="249.5349" y="249.5349" /><rect fill="none" height="382.8641" stroke="black" stroke-width="1" width="382.8641" x="250.0367" y="250.0367" /><rect fill="none" height="380.6662" stroke="black" stroke-width="1" width="380.6662" x="250.53" y="250.53" /><rect fill="none" height="378.419" stroke="black" stroke-width="1" width="378.419" x="251.0149" y="251.0149" /><rect fill="none" height="376.12" stroke="black" stroke-width="1" width="376.12" x="251.4919" y="251.4919" /><rect fill="none" height="373.767" stroke="black" stroke-width="1" width="373.767" x="251.9611" y="251.9611" /><rect fill="none" height="371.3572" stroke="black" stroke-width="1" width="371.3572" x="252.4227" y="252.4227" /><rect fill="none" height="368.8879" stroke="black" stroke-width="1" width="368.8879" x="252.8771" y="252.8771" /><rect fill="none" height="366.3562" stroke="black" stroke-width="1" width="366.3562" x="253.3245" y="253.3245" /><rect fill="none" height="363.7586" stroke="black" stroke-width="1" width="363.7586" x="253.765" y="253.765" /><rect fill="none" height="361.0918" stroke="black" stroke-width="1" width="361.0918" x="254.1989" y="254.1989" /><rect fill="none" height="358.3519" stroke="black" stroke-width="1" width="358.3519" x="254.6264" y="254.6264" /><rect fill="none" height="355.5348" stroke="black" stroke-width="1" width="355.5348" x="255.0476" y="255.0476" /><rect fill="none" height="352.6361" stroke="black" stroke-width="1" width="352.6361" x="255.4628" y="255.4628" /><rect fill="none" height="349.6508" stroke="black" stroke-width="1" width="349.6508" x="255.8721" y="255.8721" /><rect fill="none" height="346.5736" stroke="black" stroke-width="1" width="346.5736" x="256.2756" y="256.2756" /><rect fill="none" height="343.3987" stroke="black" stroke-width="1" width="343.3987" x="256.6736" y="256.6736" /><rect fill="none" height="340.1197" stroke="black" stroke-width="1" width="340.1197" x="257.0662" y="257.0662" /><rect fill="none" height="336.7296" stroke="black" stroke-width="1" width="336.7296" x="257.4535" y="257.4535" /><rect fill="none" height="333.2205" stroke="black" stroke-width="1" width="333.2205" x="257.8357" y="257.8357" /><rect fill="none" height="329.5837" stroke="black" stroke-width="1" width="329.5837" x="258.2129" y="258.2129" /><rect fill="none" height="325.8097" stroke="black" stroke-width="1" width="325.8097" x="258.5852" y="258.5852" /><rect fill="none" height="321.8876" stroke="black" stroke-width="1" width="321.8876" x="258.9527" y="258.9527" /><rect fill="none" height="317.8054" stroke="black" stroke-width="1" width="317.8054" x="259.3157" y="259.3157" /><rect fill="none" height="313.5494" stroke="black" stroke-width="1" width="313.5494" x="259.6741" y="259.6741" /><rect fill="none" height="309.1042" stroke="black" stroke-width="1" width="309.1042" x="260.0282" y="260.0282" /><rect fill="none" height="304.4522" stroke="black" stroke-width="1" width="304.4522" x="260.3779" y="260.3779" /><rect fill="none" height="299.5732" stroke="black" stroke-width="1" width="299.5732" x="260.7235" y="260.7235" /><rect fill="none" height="294.4439" stroke="black" stroke-width="1" width="294.4439" x="261.0649" y="261.0649" /><rect fill="none" height="289.0372" stroke="black" stroke-width="1" width="289.0372" x="261.4024" y="261.4024" /><rect fill="none" height="283.3213" stroke="black" stroke-width="1" width="283.3213" x="261.736" y="261.736" /><rect fill="none" height="277.2589" stroke="black" stroke-width="1" width="277.2589" x="262.0658" y="262.0658" /><rect fill="none" height="270.805" stroke="black" stroke-width="1" width="270.805" x="262.3918" y="262.3918" /><rect fill="none" height="263.9057" stroke="black" stroke-width="1" width="263.9057" x="262.7142" y="262.7142" /><rect fill="none" height="256.4949" stroke="black" stroke-width="1" width="256.4949" x="263.033" y="263.033" /><rect fill="none" height="248.4907" stroke="black" stroke-width="1" width="248.4907" x="263.3484" y="263.3484" /><rect fill="none" height="239.7895" stroke="black" stroke-width="1" width="239.7895" x="263.6603" y="263.6603" /><rect fill="none" height="230.2585" stroke="black" stroke-width="1" width="230.2585" x="263.9689" y="263.9689" /><rect fill="none" height="219.7225" stroke="black" stroke-width="1" width="219.7225" x="264.2742" y="264.2742" /><rect fill="none" height="207.9442" stroke="black" stroke-width="1" width="207.9442" x="264.5764" y="264.5764" /><rect fill="none" height="194.591" stroke="black" stroke-width="1" width="194.591" x="264.8754" y="264.8754" /><rect fill="none" height="179.1759" stroke="black" stroke-width="1" width="179.1759" x="265.1713" y="265.1713" /><rect fill="none" height="160.9438" stroke="black" stroke-width="1" width="160.9438" x="265.4643" y="265.4643" /></svg>