<?xml version="1.0" encoding="utf-8" ?>
<svg baseProfile="tiny" height="500" version="1.2" width="500" xmlns="http://www.w3.org/2000/svg" xmlns:ev="http://www.w3.org/2001/xml-events" xmlns:xlink="http://www.w3.org/1999/xlink"><defs /><rect fill="none" height="10" stroke="black" stroke-width="1" width="10" x="10" y="0.8415" /><rect fill="none" height="10" stroke="black" stroke-width="1" width="10" x="20" y="0.9093" /><rect fill="none" height="10" stroke="black" stroke-width="1" width="10" x="30" y="0.1411" /><rect fill="none" height="10" stroke="black" stroke-width="1" width="10" x="40" y="-0.7568" /><rect fill="none" height="10" stroke="black" stroke-width="1" width="10" x="50" y="-0.9589" /><rect fill="none" height="10" stroke="black" stroke-width="1" width="10" x="60" y="-0.2794" /><rect fill="none" height="10" stroke="black" stroke-width="1" width="10" x="70" y="0.657" /><rect fill="none" height="10" stroke="black" stroke-width="1" width="10" x="80" y="0.9894" /><rect fill="none" height="10" stroke="black" stroke-width="1" width="10" x="90" y="0.4121" /><rect fill="none" height="10" stroke="black" stroke-width="1" width="10" x="100" y="-0.544" /><rect fill="none" height="10" stroke="black" stroke-width="1" width="10" x="110" y="-1.0" /><rect fill="none" height="10" stroke="black" stroke-width="1" width="10" x="120" y="-0.5366" /><rect fill="none" height="10" stroke="black" stroke-width="1" width="10" x="130" y="0.4202" /><rect fill="none" height="10" stroke="black" stroke-width="1" width="10" x="140" y="0.9906" /><rect fill="none" height="10" stroke="black" stroke-width="1" width="10" x="150" y="0.6503" /><rect fill="none" height="10" stroke="black" stroke-width="1" width="10" x="160" y="-0.2879" /><rect fill="none" height="10" stroke="black" stroke-width="1" width="10" x="170" y="-0.9614" /><rect fill="none" height="10" stroke="black" stroke-width="1" width="10" x="180" y="-0.751" /><rect fill="none" height="10" stroke="black" stroke-width="1" width="10" x="190" y="0.1499" /><rect fill="none" height="10" stroke="black" stroke-width="1" width="10" x="200" y="0.9129" /><rect fill="none" height="10" stroke="black" stroke-width="1" width="10" x="210" y="0.8367" /><rect fill="none" height="10" stroke="black" stroke-width="1" width="10" x="220" y="-0.0089" /><rect fill="none" height="10" stroke="black" stroke-width="1" width="10" x="230" y="-0.8462" /><rect fill="none" height="10" stroke="black" stroke-width="1" width="10" x="240" y="-0.9056" /><rect fill="none" height="10" stroke="black" stroke-width="1" width="10" x="250" y="-0.1324" /><rect fill="none" height="10" stroke="black" stroke-width="1" width="10" x="260" y="0.7626" /><rect fill="none" height="10" stroke="black" stroke-width="1" width="10" x="270" y="0.9564" /><rect fill="none" height="10" stroke="black" stroke-width="1" width="10" x="280" y="0.2709" /><rect fill="none" height="10" stroke="black" stroke-width="1" width="10" x="290" y="-0.6636" /><rect fill="none" height="10" stroke="black" stroke-width="1" width="10" x="300" y="-0.988" /><rect fill="none" height="10" stroke="black" stroke-width="1" width="10" x="310" y="-0.404" /><rect fill="none" height="10" stroke="black" stroke-width="1" width="10" x="320" y="0.5514" /><rect fill="none" height="10" stroke="black" stroke-width="1" width="10" x="330" y="0.9999" /><rect fill="none" height="10" stroke="black" stroke-width="1" width="10" x="340" y="0.5291" /><rect fill="none" height="10" stroke="black" stroke-width="1" width="10" x="350" y="-0.4282" /><rect fill="none" height="10" stroke="black" stroke-width="1" width="10" x="360" y="-0.9918" /><rect fill="none" height="10" stroke="black" stroke-width="1" width="10" x="370" y="-0.6435" /><rect fill="none" height="10" stroke="black" stroke-width="1" width="10" x="380" y="0.2964" /><rect fill="none" height="10" stroke="black" stroke-width="1" width="10" x="390" y="0.9638" /><rect fill="none" height="10" stroke="black" stroke-width="1" width="10" x="400" y="0.7451" /><rect fill="none" height="10" stroke="black" stroke-width="1" width="10" x="410" y="-0.1586" /><rect fill="none" height="10" stroke="black" stroke-width="1" width="10" x="420" y="-0.9165" /><rect fill="none" height="10" stroke="black" stroke-width="1" width="10" x="430" y="-0.8318" /><rect fill="none" height="10" stroke="black" stroke-width="1" width="10" x="440" y="0.0177" /><rect fill="none" height="10" stroke="black" stroke-width="1" width="10" x="450" y="0.8509" /><rect fill="none" height="10" stroke="black" stroke-width="1" width="10" x="460" y="0.9018" /><rect fill="none" height="10" stroke="black" stroke-width="1" width="10" x="470" y="0.1236" /><rect fill="none" height="10" stroke="black" stroke-width="1" width="10" x="480" y="-0.7683" /><rect fill="none" height="10" stroke="black" stroke-width="1" width="10" x="490" y="-0.9538" /></svg>