<?xml version="1.0" encoding="utf-8" ?>
<svg baseProfile="tiny" height="500" version="1.2" width="500" xmlns="http://www.w3.org/2000/svg" xmlns:ev="http://www.w3.org/2001/xml-events" xmlns:xlink="http://www.w3.org/1999/xlink"><defs /><rect fill="none" height="50" stroke="black" stroke-width="1" width="50" x="0" y="0.0" /><rect fill="none" height="50" stroke="black" stroke-width="1" width="50" x="0" y="150.0" /><rect fill="none" height="50" stroke="black" stroke-width="1" width="50" x="0" y="300.0" /><rect fill="none" height="50" stroke="black" stroke-width="1" width="50" x="0" y="450.0" /><rect fill="none" height="50" stroke="black" stroke-width="1" width="50" x="0" y="600.0" /><rect fill="none" height="50" stroke="black" stroke-width="1" width="50" x="10" y="4.9917" /><rect fill="none" height="50" stroke="black" stroke-width="1" width="50" x="10" y="159.9335" /><rect fill="none" height="50" stroke="black" stroke-width="1" width="50" x="10" y="314.776" /><rect fill="none" height="50" stroke="black" stroke-width="1" width="50" x="10" y="469.4709" /><rect fill="none" height="50" stroke="black" stroke-width="1" width="50" x="10" y="623.9713" /><rect fill="none" height="50" stroke="black" stroke-width="1" width="50" x="20" y="9.9335" /><rect fill="none" height="50" stroke="black" stroke-width="1" width="50" x="20" y="169.4709" /><rect fill="none" height="50" stroke="black" stroke-width="1" width="50" x="20" y="328.2321" /><rect fill="none" height="50" stroke="black" stroke-width="1" width="50" x="20" y="485.8678" /><rect fill="none" height="50" stroke="black" stroke-width="1" width="50" x="20" y="642.0735" /><rect fill="none" height="50" stroke="black" stroke-width="1" width="50" x="30" y="14.776" /><rect fill="none" height="50" stroke="black" stroke-width="1" width="50" x="30" y="178.2321" /><rect fill="none" height="50" stroke="black" stroke-width="1" width="50" x="30" y="339.1663" /><rect fill="none" height="50" stroke="black" stroke-width="1" width="50" x="30" y="496.602" /><rect fill="none" height="50" stroke="black" stroke-width="1" width="50" x="30" y="649.8747" /><rect fill="none" height="50" stroke="black" stroke-width="1" width="50" x="40" y="19.4709" /><rect fill="none" height="50" stroke="black" stroke-width="1" width="50" x="40" y="185.8678" /><rect fill="none" height="50" stroke="black" stroke-width="1" width="50" x="40" y="346.602" /><rect fill="none" height="50" stroke="black" stroke-width="1" width="50" x="40" y="499.9787" /><rect fill="none" height="50" stroke="black" stroke-width="1" width="50" x="40" y="645.4649" /><rect fill="none" height="50" stroke="black" stroke-width="1" width="50" x="50" y="23.9713" /><rect fill="none" height="50" stroke="black" stroke-width="1" width="50" x="50" y="192.0735" /><rect fill="none" height="50" stroke="black" stroke-width="1" width="50" x="50" y="349.8747" /><rect fill="none" height="50" stroke="black" stroke-width="1" width="50" x="50" y="495.4649" /><rect fill="none" height="50" stroke="black" stroke-width="1" width="50" x="50" y="629.9236" /><rect fill="none" height="50" stroke="black" stroke-width="1" width="50" x="60" y="28.2321" /><rect fill="none" height="50" stroke="black" stroke-width="1" width="50" x="60" y="196.602" /><rect fill="none" height="50" stroke="black" stroke-width="1" width="50" x="60" y="348.6924" /><rect fill="none" height="50" stroke="black" stroke-width="1" width="50" x="60" y="483.7732" /><rect fill="none" height="50" stroke="black" stroke-width="1" width="50" x="60" y="607.056" /><rect fill="none" height="50" stroke="black" stroke-width="1" width="50" x="70" y="32.2109" /><rect fill="none" height="50" stroke="black" stroke-width="1" width="50" x="70" y="199.2725" /><rect fill="none" height="50" stroke="black" stroke-width="1" width="50" x="70" y="343.1605" /><rect fill="none" height="50" stroke="black" stroke-width="1" width="50" x="70" y="466.7494" /><rect fill="none" height="50" stroke="black" stroke-width="1" width="50" x="70" y="582.4608" /><rect fill="none" height="50" stroke="black" stroke-width="1" width="50" x="80" y="35.8678" /><rect fill="none" height="50" stroke="black" stroke-width="1" width="50" x="80" y="199.9787" /><rect fill="none" height="50" stroke="black" stroke-width="1" width="50" x="80" y="333.7732" /><rect fill="none" height="50" stroke="black" stroke-width="1" width="50" x="80" y="447.0813" /><rect fill="none" height="50" stroke="black" stroke-width="1" width="50" x="80" y="562.1599" /><rect fill="none" height="50" stroke="black" stroke-width="1" width="50" x="90" y="39.1663" /><rect fill="none" height="50" stroke="black" stroke-width="1" width="50" x="90" y="198.6924" /><rect fill="none" height="50" stroke="black" stroke-width="1" width="50" x="90" y="321.369" /><rect fill="none" height="50" stroke="black" stroke-width="1" width="50" x="90" y="427.874" /><rect fill="none" height="50" stroke="black" stroke-width="1" width="50" x="90" y="551.1235" /><rect fill="none" height="50" stroke="black" stroke-width="1" width="50" x="100" y="42.0735" /><rect fill="none" height="50" stroke="black" stroke-width="1" width="50" x="100" y="195.4649" /><rect fill="none" height="50" stroke="black" stroke-width="1" width="50" x="100" y="307.056" /><rect fill="none" height="50" stroke="black" stroke-width="1" width="50" x="100" y="412.1599" /><rect fill="none" height="50" stroke="black" stroke-width="1" width="50" x="100" y="552.0538" /><rect fill="none" height="50" stroke="black" stroke-width="1" width="50" x="110" y="44.5604" /><rect fill="none" height="50" stroke="black" stroke-width="1" width="50" x="110" y="190.4248" /><rect fill="none" height="50" stroke="black" stroke-width="1" width="50" x="110" y="292.1127" /><rect fill="none" height="50" stroke="black" stroke-width="1" width="50" x="110" y="402.4199" /><rect fill="none" height="50" stroke="black" stroke-width="1" width="50" x="110" y="564.723" /><rect fill="none" height="50" stroke="black" stroke-width="1" width="50" x="120" y="46.602" /><rect fill="none" height="50" stroke="black" stroke-width="1" width="50" x="120" y="183.7732" /><rect fill="none" height="50" stroke="black" stroke-width="1" width="50" x="120" y="277.874" /><rect fill="none" height="50" stroke="black" stroke-width="1" width="50" x="120" y="400.1918" /><rect fill="none" height="50" stroke="black" stroke-width="1" width="50" x="120" y="586.0292" /><rect fill="none" height="50" stroke="black" stroke-width="1" width="50" x="130" y="48.1779" /><rect fill="none" height="50" stroke="black" stroke-width="1" width="50" x="130" y="175.7751" /><rect fill="none" height="50" stroke="black" stroke-width="1" width="50" x="130" y="265.6117" /><rect fill="none" height="50" stroke="black" stroke-width="1" width="50" x="130" y="405.8273" /><rect fill="none" height="50" stroke="black" stroke-width="1" width="50" x="130" y="610.756" /><rect fill="none" height="50" stroke="black" stroke-width="1" width="50" x="140" y="49.2725" /><rect fill="none" height="50" stroke="black" stroke-width="1" width="50" x="140" y="166.7494" /><rect fill="none" height="50" stroke="black" stroke-width="1" width="50" x="140" y="256.4212" /><rect fill="none" height="50" stroke="black" stroke-width="1" width="50" x="140" y="418.4367" /><rect fill="none" height="50" stroke="black" stroke-width="1" width="50" x="140" y="632.8493" /><rect fill="none" height="50" stroke="black" stroke-width="1" width="50" x="150" y="49.8747" /><rect fill="none" height="50" stroke="black" stroke-width="1" width="50" x="150" y="157.056" /><rect fill="none" height="50" stroke="black" stroke-width="1" width="50" x="150" y="251.1235" /><rect fill="none" height="50" stroke="black" stroke-width="1" width="50" x="150" y="436.0292" /><rect fill="none" height="50" stroke="black" stroke-width="1" width="50" x="150" y="646.9" /><rect fill="none" height="50" stroke="black" stroke-width="1" width="50" x="160" y="49.9787" /><rect fill="none" height="50" stroke="black" stroke-width="1" width="50" x="160" y="147.0813" /><rect fill="none" height="50" stroke="black" stroke-width="1" width="50" x="160" y="250.1918" /><rect fill="none" height="50" stroke="black" stroke-width="1" width="50" x="160" y="455.8275" /><rect fill="none" height="50" stroke="black" stroke-width="1" width="50" x="160" y="649.4679" /><rect fill="none" height="50" stroke="black" stroke-width="1" width="50" x="170" y="49.5832" /><rect fill="none" height="50" stroke="black" stroke-width="1" width="50" x="170" y="137.2229" /><rect fill="none" height="50" stroke="black" stroke-width="1" width="50" x="170" y="253.7093" /><rect fill="none" height="50" stroke="black" stroke-width="1" width="50" x="170" y="474.7057" /><rect fill="none" height="50" stroke="black" stroke-width="1" width="50" x="170" y="639.9244" /><rect fill="none" height="50" stroke="black" stroke-width="1" width="50" x="180" y="48.6924" /><rect fill="none" height="50" stroke="black" stroke-width="1" width="50" x="180" y="127.874" /><rect fill="none" height="50" stroke="black" stroke-width="1" width="50" x="180" y="261.3618" /><rect fill="none" height="50" stroke="black" stroke-width="1" width="50" x="180" y="489.6834" /><rect fill="none" height="50" stroke="black" stroke-width="1" width="50" x="180" y="620.6059" /><rect fill="none" height="50" stroke="black" stroke-width="1" width="50" x="190" y="47.315" /><rect fill="none" height="50" stroke="black" stroke-width="1" width="50" x="190" y="119.4071" /><rect fill="none" height="50" stroke="black" stroke-width="1" width="50" x="190" y="272.4657" /><rect fill="none" height="50" stroke="black" stroke-width="1" width="50" x="190" y="498.396" /><rect fill="none" height="50" stroke="black" stroke-width="1" width="50" x="190" y="596.2424" /><rect fill="none" height="50" stroke="black" stroke-width="1" width="50" x="200" y="45.4649" /><rect fill="none" height="50" stroke="black" stroke-width="1" width="50" x="200" y="112.1599" /><rect fill="none" height="50" stroke="black" stroke-width="1" width="50" x="200" y="286.0292" /><rect fill="none" height="50" stroke="black" stroke-width="1" width="50" x="200" y="499.4679" /><rect fill="none" height="50" stroke="black" stroke-width="1" width="50" x="200" y="572.7989" /><rect fill="none" height="50" stroke="black" stroke-width="1" width="50" x="210" y="43.1605" /><rect fill="none" height="50" stroke="black" stroke-width="1" width="50" x="210" y="106.4212" /><rect fill="none" height="50" stroke="black" stroke-width="1" width="50" x="210" y="300.8407" /><rect fill="none" height="50" stroke="black" stroke-width="1" width="50" x="210" y="492.7299" /><rect fill="none" height="50" stroke="black" stroke-width="1" width="50" x="210" y="556.0152" /><rect fill="none" height="50" stroke="black" stroke-width="1" width="50" x="220" y="40.4248" /><rect fill="none" height="50" stroke="black" stroke-width="1" width="50" x="220" y="102.4199" /><rect fill="none" height="50" stroke="black" stroke-width="1" width="50" x="220" y="315.5771" /><rect fill="none" height="50" stroke="black" stroke-width="1" width="50" x="220" y="479.2459" /><rect fill="none" height="50" stroke="black" stroke-width="1" width="50" x="220" y="550.0005" /><rect fill="none" height="50" stroke="black" stroke-width="1" width="50" x="230" y="37.2853" /><rect fill="none" height="50" stroke="black" stroke-width="1" width="50" x="230" y="100.3154" /><rect fill="none" height="50" stroke="black" stroke-width="1" width="50" x="230" y="328.922" /><rect fill="none" height="50" stroke="black" stroke-width="1" width="50" x="230" y="461.1445" /><rect fill="none" height="50" stroke="black" stroke-width="1" width="50" x="230" y="556.2274" /><rect fill="none" height="50" stroke="black" stroke-width="1" width="50" x="240" y="33.7732" /><rect fill="none" height="50" stroke="black" stroke-width="1" width="50" x="240" y="100.1918" /><rect fill="none" height="50" stroke="black" stroke-width="1" width="50" x="240" y="339.6834" /><rect fill="none" height="50" stroke="black" stroke-width="1" width="50" x="240" y="441.2837" /><rect fill="none" height="50" stroke="black" stroke-width="1" width="50" x="240" y="573.1714" /><rect fill="none" height="50" stroke="black" stroke-width="1" width="50" x="250" y="29.9236" /><rect fill="none" height="50" stroke="black" stroke-width="1" width="50" x="250" y="102.0538" /><rect fill="none" height="50" stroke="black" stroke-width="1" width="50" x="250" y="346.9" /><rect fill="none" height="50" stroke="black" stroke-width="1" width="50" x="250" y="422.7989" /><rect fill="none" height="50" stroke="black" stroke-width="1" width="50" x="250" y="596.6839" /><rect fill="none" height="50" stroke="black" stroke-width="1" width="50" x="260" y="25.7751" /><rect fill="none" height="50" stroke="black" stroke-width="1" width="50" x="260" y="105.8273" /><rect fill="none" height="50" stroke="black" stroke-width="1" width="50" x="260" y="349.9272" /><rect fill="none" height="50" stroke="black" stroke-width="1" width="50" x="260" y="408.6087" /><rect fill="none" height="50" stroke="black" stroke-width="1" width="50" x="260" y="621.0084" /><rect fill="none" height="50" stroke="black" stroke-width="1" width="50" x="270" y="21.369" /><rect fill="none" height="50" stroke="black" stroke-width="1" width="50" x="270" y="111.3618" /><rect fill="none" height="50" stroke="black" stroke-width="1" width="50" x="270" y="348.4945" /><rect fill="none" height="50" stroke="black" stroke-width="1" width="50" x="270" y="400.9532" /><rect fill="none" height="50" stroke="black" stroke-width="1" width="50" x="270" y="640.1892" /><rect fill="none" height="50" stroke="black" stroke-width="1" width="50" x="280" y="16.7494" /><rect fill="none" height="50" stroke="black" stroke-width="1" width="50" x="280" y="118.4367" /><rect fill="none" height="50" stroke="black" stroke-width="1" width="50" x="280" y="342.7299" /><rect fill="none" height="50" stroke="black" stroke-width="1" width="50" x="280" y="401.0411" /><rect fill="none" height="50" stroke="black" stroke-width="1" width="50" x="280" y="649.5304" /><rect fill="none" height="50" stroke="black" stroke-width="1" width="50" x="290" y="11.9625" /><rect fill="none" height="50" stroke="black" stroke-width="1" width="50" x="290" y="126.7699" /><rect fill="none" height="50" stroke="black" stroke-width="1" width="50" x="290" y="333.1485" /><rect fill="none" height="50" stroke="black" stroke-width="1" width="50" x="290" y="408.8586" /><rect fill="none" height="50" stroke="black" stroke-width="1" width="50" x="290" y="646.7448" /><rect fill="none" height="50" stroke="black" stroke-width="1" width="50" x="300" y="7.056" /><rect fill="none" height="50" stroke="black" stroke-width="1" width="50" x="300" y="136.0292" /><rect fill="none" height="50" stroke="black" stroke-width="1" width="50" x="300" y="320.6059" /><rect fill="none" height="50" stroke="black" stroke-width="1" width="50" x="300" y="423.1714" /><rect fill="none" height="50" stroke="black" stroke-width="1" width="50" x="300" y="632.5144" /><rect fill="none" height="50" stroke="black" stroke-width="1" width="50" x="310" y="2.079" /><rect fill="none" height="50" stroke="black" stroke-width="1" width="50" x="310" y="145.8455" /><rect fill="none" height="50" stroke="black" stroke-width="1" width="50" x="310" y="306.2227" /><rect fill="none" height="50" stroke="black" stroke-width="1" width="50" x="310" y="441.7198" /><rect fill="none" height="50" stroke="black" stroke-width="1" width="50" x="310" y="610.3234" /><rect fill="none" height="50" stroke="black" stroke-width="1" width="50" x="320" y="-2.9187" /><rect fill="none" height="50" stroke="black" stroke-width="1" width="50" x="320" y="155.8275" /><rect fill="none" height="50" stroke="black" stroke-width="1" width="50" x="320" y="291.2837" /><rect fill="none" height="50" stroke="black" stroke-width="1" width="50" x="320" y="461.5755" /><rect fill="none" height="50" stroke="black" stroke-width="1" width="50" x="320" y="585.6048" /><rect fill="none" height="50" stroke="black" stroke-width="1" width="50" x="330" y="-7.8873" /><rect fill="none" height="50" stroke="black" stroke-width="1" width="50" x="330" y="165.5771" /><rect fill="none" height="50" stroke="black" stroke-width="1" width="50" x="330" y="277.1232" /><rect fill="none" height="50" stroke="black" stroke-width="1" width="50" x="330" y="479.6037" /><rect fill="none" height="50" stroke="black" stroke-width="1" width="50" x="330" y="564.4107" /><rect fill="none" height="50" stroke="black" stroke-width="1" width="50" x="340" y="-12.7771" /><rect fill="none" height="50" stroke="black" stroke-width="1" width="50" x="340" y="174.7057" /><rect fill="none" height="50" stroke="black" stroke-width="1" width="50" x="340" y="265.0063" /><rect fill="none" height="50" stroke="black" stroke-width="1" width="50" x="340" y="492.9581" /><rect fill="none" height="50" stroke="black" stroke-width="1" width="50" x="340" y="551.9301" /><rect fill="none" height="50" stroke="black" stroke-width="1" width="50" x="350" y="-17.5392" /><rect fill="none" height="50" stroke="black" stroke-width="1" width="50" x="350" y="182.8493" /><rect fill="none" height="50" stroke="black" stroke-width="1" width="50" x="350" y="256.0152" /><rect fill="none" height="50" stroke="black" stroke-width="1" width="50" x="350" y="499.5304" /><rect fill="none" height="50" stroke="black" stroke-width="1" width="50" x="350" y="551.2187" /><rect fill="none" height="50" stroke="black" stroke-width="1" width="50" x="360" y="-22.126" /><rect fill="none" height="50" stroke="black" stroke-width="1" width="50" x="360" y="189.6834" /><rect fill="none" height="50" stroke="black" stroke-width="1" width="50" x="360" y="250.9532" /><rect fill="none" height="50" stroke="black" stroke-width="1" width="50" x="360" y="498.2829" /><rect fill="none" height="50" stroke="black" stroke-width="1" width="50" x="360" y="562.4506" /><rect fill="none" height="50" stroke="black" stroke-width="1" width="50" x="370" y="-26.4918" /><rect fill="none" height="50" stroke="black" stroke-width="1" width="50" x="370" y="194.9354" /><rect fill="none" height="50" stroke="black" stroke-width="1" width="50" x="370" y="250.2724" /><rect fill="none" height="50" stroke="black" stroke-width="1" width="50" x="370" y="489.4126" /><rect fill="none" height="50" stroke="black" stroke-width="1" width="50" x="370" y="582.876" /><rect fill="none" height="50" stroke="black" stroke-width="1" width="50" x="380" y="-30.5929" /><rect fill="none" height="50" stroke="black" stroke-width="1" width="50" x="380" y="198.396" /><rect fill="none" height="50" stroke="black" stroke-width="1" width="50" x="380" y="254.0336" /><rect fill="none" height="50" stroke="black" stroke-width="1" width="50" x="380" y="474.3199" /><rect fill="none" height="50" stroke="black" stroke-width="1" width="50" x="380" y="607.4939" /><rect fill="none" height="50" stroke="black" stroke-width="1" width="50" x="390" y="-34.3883" /><rect fill="none" height="50" stroke="black" stroke-width="1" width="50" x="390" y="199.9272" /><rect fill="none" height="50" stroke="black" stroke-width="1" width="50" x="390" y="261.9008" /><rect fill="none" height="50" stroke="black" stroke-width="1" width="50" x="390" y="455.3877" /><rect fill="none" height="50" stroke="black" stroke-width="1" width="50" x="390" y="630.277" /><rect fill="none" height="50" stroke="black" stroke-width="1" width="50" x="400" y="-37.8401" /><rect fill="none" height="50" stroke="black" stroke-width="1" width="50" x="400" y="199.4679" /><rect fill="none" height="50" stroke="black" stroke-width="1" width="50" x="400" y="273.1714" /><rect fill="none" height="50" stroke="black" stroke-width="1" width="50" x="400" y="435.6048" /><rect fill="none" height="50" stroke="black" stroke-width="1" width="50" x="400" y="645.6473" /><rect fill="none" height="50" stroke="black" stroke-width="1" width="50" x="410" y="-40.9139" /><rect fill="none" height="50" stroke="black" stroke-width="1" width="50" x="410" y="197.0365" /><rect fill="none" height="50" stroke="black" stroke-width="1" width="50" x="410" y="286.8384" /><rect fill="none" height="50" stroke="black" stroke-width="1" width="50" x="410" y="418.0947" /><rect fill="none" height="50" stroke="black" stroke-width="1" width="50" x="410" y="649.8415" /><rect fill="none" height="50" stroke="black" stroke-width="1" width="50" x="420" y="-43.5788" /><rect fill="none" height="50" stroke="black" stroke-width="1" width="50" x="420" y="192.7299" /><rect fill="none" height="50" stroke="black" stroke-width="1" width="50" x="420" y="301.6812" /><rect fill="none" height="50" stroke="black" stroke-width="1" width="50" x="420" y="405.6216" /><rect fill="none" height="50" stroke="black" stroke-width="1" width="50" x="420" y="641.8328" /><rect fill="none" height="50" stroke="black" stroke-width="1" width="50" x="430" y="-45.8083" /><rect fill="none" height="50" stroke="black" stroke-width="1" width="50" x="430" y="186.7199" /><rect fill="none" height="50" stroke="black" stroke-width="1" width="50" x="430" y="316.3737" /><rect fill="none" height="50" stroke="black" stroke-width="1" width="50" x="430" y="400.155" /><rect fill="none" height="50" stroke="black" stroke-width="1" width="50" x="430" y="623.582" /><rect fill="none" height="50" stroke="black" stroke-width="1" width="50" x="440" y="-47.5801" /><rect fill="none" height="50" stroke="black" stroke-width="1" width="50" x="440" y="179.2459" /><rect fill="none" height="50" stroke="black" stroke-width="1" width="50" x="440" y="329.6037" /><rect fill="none" height="50" stroke="black" stroke-width="1" width="50" x="440" y="402.5578" /><rect fill="none" height="50" stroke="black" stroke-width="1" width="50" x="440" y="599.5574" /><rect fill="none" height="50" stroke="black" stroke-width="1" width="50" x="450" y="-48.8765" /><rect fill="none" height="50" stroke="black" stroke-width="1" width="50" x="450" y="170.6059" /><rect fill="none" height="50" stroke="black" stroke-width="1" width="50" x="450" y="340.1892" /><rect fill="none" height="50" stroke="black" stroke-width="1" width="50" x="450" y="412.4506" /><rect fill="none" height="50" stroke="black" stroke-width="1" width="50" x="450" y="575.6413" /><rect fill="none" height="50" stroke="black" stroke-width="1" width="50" x="460" y="-49.6846" /><rect fill="none" height="50" stroke="black" stroke-width="1" width="50" x="460" y="161.1445" /><rect fill="none" height="50" stroke="black" stroke-width="1" width="50" x="460" y="347.1848" /><rect fill="none" height="50" stroke="black" stroke-width="1" width="50" x="460" y="428.2717" /><rect fill="none" height="50" stroke="black" stroke-width="1" width="50" x="460" y="557.689" /><rect fill="none" height="50" stroke="black" stroke-width="1" width="50" x="470" y="-49.9962" /><rect fill="none" height="50" stroke="black" stroke-width="1" width="50" x="470" y="151.2388" /><rect fill="none" height="50" stroke="black" stroke-width="1" width="50" x="470" y="349.9655" /><rect fill="none" height="50" stroke="black" stroke-width="1" width="50" x="470" y="447.5232" /><rect fill="none" height="50" stroke="black" stroke-width="1" width="50" x="470" y="550.0959" /><rect fill="none" height="50" stroke="black" stroke-width="1" width="50" x="480" y="-49.8082" /><rect fill="none" height="50" stroke="black" stroke-width="1" width="50" x="480" y="141.2837" /><rect fill="none" height="50" stroke="black" stroke-width="1" width="50" x="480" y="348.2829" /><rect fill="none" height="50" stroke="black" stroke-width="1" width="50" x="480" y="467.1657" /><rect fill="none" height="50" stroke="black" stroke-width="1" width="50" x="480" y="554.7211" /><rect fill="none" height="50" stroke="black" stroke-width="1" width="50" x="490" y="-49.1226" /><rect fill="none" height="50" stroke="black" stroke-width="1" width="50" x="490" y="131.676" /><rect fill="none" height="50" stroke="black" stroke-width="1" width="50" x="490" y="342.2873" /><rect fill="none" height="50" stroke="black" stroke-width="1" width="50" x="490" y="484.0982" /><rect fill="none" height="50" stroke="black" stroke-width="1" width="50" x="490" y="570.4321" /><rect fill="none" height="50" stroke="black" stroke-width="1" width="50" x="500" y="-47.9462" /><rect fill="none" height="50" stroke="black" stroke-width="1" width="50" x="500" y="122.7989" /><rect fill="none" height="50" stroke="black" stroke-width="1" width="50" x="500" y="332.5144" /><rect fill="none" height="50" stroke="black" stroke-width="1" width="50" x="500" y="495.6473" /><rect fill="none" height="50" stroke="black" stroke-width="1" width="50" x="500" y="593.3824" /><rect fill="none" height="50" stroke="black" stroke-width="1" width="50" x="510" y="-46.2907" /><rect fill="none" height="50" stroke="black" stroke-width="1" width="50" x="510" y="115.0063" /><rect fill="none" height="50" stroke="black" stroke-width="1" width="50" x="510" y="319.837" /><rect fill="none" height="50" stroke="black" stroke-width="1" width="50" x="510" y="499.9896" /><rect fill="none" height="50" stroke="black" stroke-width="1" width="50" x="510" y="617.9529" /><rect fill="none" height="50" stroke="black" stroke-width="1" width="50" x="520" y="-44.1727" /><rect fill="none" height="50" stroke="black" stroke-width="1" width="50" x="520" y="108.6087" /><rect fill="none" height="50" stroke="black" stroke-width="1" width="50" x="520" y="305.3877" /><rect fill="none" height="50" stroke="black" stroke-width="1" width="50" x="520" y="496.4398" /><rect fill="none" height="50" stroke="black" stroke-width="1" width="50" x="520" y="638.1279" /><rect fill="none" height="50" stroke="black" stroke-width="1" width="50" x="530" y="-41.6134" /><rect fill="none" height="50" stroke="black" stroke-width="1" width="50" x="530" y="103.8612" /><rect fill="none" height="50" stroke="black" stroke-width="1" width="50" x="530" y="290.4571" /><rect fill="none" height="50" stroke="black" stroke-width="1" width="50" x="530" y="485.5581" /><rect fill="none" height="50" stroke="black" stroke-width="1" width="50" x="530" y="648.9679" /><rect fill="none" height="50" stroke="black" stroke-width="1" width="50" x="540" y="-38.6382" /><rect fill="none" height="50" stroke="black" stroke-width="1" width="50" x="540" y="100.9532" /><rect fill="none" height="50" stroke="black" stroke-width="1" width="50" x="540" y="276.3789" /><rect fill="none" height="50" stroke="black" stroke-width="1" width="50" x="540" y="469.0625" /><rect fill="none" height="50" stroke="black" stroke-width="1" width="50" x="540" y="647.8188" /><rect fill="none" height="50" stroke="black" stroke-width="1" width="50" x="550" y="-35.277" /><rect fill="none" height="50" stroke="black" stroke-width="1" width="50" x="550" y="100.0005" /><rect fill="none" height="50" stroke="black" stroke-width="1" width="50" x="550" y="264.4107" /><rect fill="none" height="50" stroke="black" stroke-width="1" width="50" x="550" y="449.5574" /><rect fill="none" height="50" stroke="black" stroke-width="1" width="50" x="550" y="634.962" /><rect fill="none" height="50" stroke="black" stroke-width="1" width="50" x="560" y="-31.5633" /><rect fill="none" height="50" stroke="black" stroke-width="1" width="50" x="560" y="101.0411" /><rect fill="none" height="50" stroke="black" stroke-width="1" width="50" x="560" y="255.6216" /><rect fill="none" height="50" stroke="black" stroke-width="1" width="50" x="560" y="430.1222" /><rect fill="none" height="50" stroke="black" stroke-width="1" width="50" x="560" y="613.5453" /><rect fill="none" height="50" stroke="black" stroke-width="1" width="50" x="570" y="-27.5343" /><rect fill="none" height="50" stroke="black" stroke-width="1" width="50" x="570" y="104.0336" /><rect fill="none" height="50" stroke="black" stroke-width="1" width="50" x="570" y="250.7967" /><rect fill="none" height="50" stroke="black" stroke-width="1" width="50" x="570" y="413.8253" /><rect fill="none" height="50" stroke="black" stroke-width="1" width="50" x="570" y="588.8122" /><rect fill="none" height="50" stroke="black" stroke-width="1" width="50" x="580" y="-23.2301" /><rect fill="none" height="50" stroke="black" stroke-width="1" width="50" x="580" y="108.8586" /><rect fill="none" height="50" stroke="black" stroke-width="1" width="50" x="580" y="250.367" /><rect fill="none" height="50" stroke="black" stroke-width="1" width="50" x="580" y="403.2395" /><rect fill="none" height="50" stroke="black" stroke-width="1" width="50" x="580" y="566.8183" /><rect fill="none" height="50" stroke="black" stroke-width="1" width="50" x="590" y="-18.6938" /><rect fill="none" height="50" stroke="black" stroke-width="1" width="50" x="590" y="115.3237" /><rect fill="none" height="50" stroke="black" stroke-width="1" width="50" x="590" y="254.3709" /><rect fill="none" height="50" stroke="black" stroke-width="1" width="50" x="590" y="400.0362" /><rect fill="none" height="50" stroke="black" stroke-width="1" width="50" x="590" y="552.9484" /><rect fill="none" height="50" stroke="black" stroke-width="1" width="50" x="600" y="-13.9708" /><rect fill="none" height="50" stroke="black" stroke-width="1" width="50" x="600" y="123.1714" /><rect fill="none" height="50" stroke="black" stroke-width="1" width="50" x="600" y="262.4506" /><rect fill="none" height="50" stroke="black" stroke-width="1" width="50" x="600" y="404.7211" /><rect fill="none" height="50" stroke="black" stroke-width="1" width="50" x="600" y="550.5984" /><rect fill="none" height="50" stroke="black" stroke-width="1" width="50" x="610" y="-9.1081" /><rect fill="none" height="50" stroke="black" stroke-width="1" width="50" x="610" y="132.0885" /><rect fill="none" height="50" stroke="black" stroke-width="1" width="50" x="610" y="273.8846" /><rect fill="none" height="50" stroke="black" stroke-width="1" width="50" x="610" y="416.5545" /><rect fill="none" height="50" stroke="black" stroke-width="1" width="50" x="610" y="560.3436" /><rect fill="none" height="50" stroke="black" stroke-width="1" width="50" x="620" y="-4.1545" /><rect fill="none" height="50" stroke="black" stroke-width="1" width="50" x="620" y="141.7198" /><rect fill="none" height="50" stroke="black" stroke-width="1" width="50" x="620" y="287.6513" /><rect fill="none" height="50" stroke="black" stroke-width="1" width="50" x="620" y="433.6682" /><rect fill="none" height="50" stroke="black" stroke-width="1" width="50" x="620" y="579.7981" /><rect fill="none" height="50" stroke="black" stroke-width="1" width="50" x="630" y="0.8407" /><rect fill="none" height="50" stroke="black" stroke-width="1" width="50" x="630" y="151.6812" /><rect fill="none" height="50" stroke="black" stroke-width="1" width="50" x="630" y="302.5211" /><rect fill="none" height="50" stroke="black" stroke-width="1" width="50" x="630" y="453.3604" /><rect fill="none" height="50" stroke="black" stroke-width="1" width="50" x="630" y="604.1987" /><rect fill="none" height="50" stroke="black" stroke-width="1" width="50" x="640" y="5.8275" /><rect fill="none" height="50" stroke="black" stroke-width="1" width="50" x="640" y="161.5755" /><rect fill="none" height="50" stroke="black" stroke-width="1" width="50" x="640" y="317.1657" /><rect fill="none" height="50" stroke="black" stroke-width="1" width="50" x="640" y="472.522" /><rect fill="none" height="50" stroke="black" stroke-width="1" width="50" x="640" y="627.5713" /></svg>