<?xml version="1.0" encoding="utf-8" ?>
<svg baseProfile="tiny" height="500" version="1.2" width="500" xmlns="http://www.w3.org/2000/svg" xmlns:ev="http://www.w3.org/2001/xml-events" xmlns:xlink="http://www.w3.org/1999/xlink"><defs /><rect fill="none" height="391.2023" stroke="black" stroke-width="1" width="391.2023" x="5" y="5" /><rect fill="none" height="389.182" stroke="black" stroke-width="1" width="389.182" x="10" y="10" /><rect fill="none" height="387.1201" stroke="black" stroke-width="1" width="387.1201" x="15" y="15" /><rect fill="none" height="385.0148" stroke="black" stroke-width="1" width="385.0148" x="20" y="20" /><rect fill="none" height="382.8641" stroke="black" stroke-width="1" width="382.8641" x="25" y="25" /><rect fill="none" height="380.6662" stroke="black" stroke-width="1" width="380.6662" x="30" y="30" /><rect fill="none" height="378.419" stroke="black" stroke-width="1" width="378.419" x="35" y="35" /><rect fill="none" height="376.12" stroke="black" stroke-width="1" width="376.12" x="40" y="40" /><rect fill="none" height="373.767" stroke="black" stroke-width="1" width="373.767" x="45" y="45" /><rect fill="none" height="371.3572" stroke="black" stroke-width="1" width="371.3572" x="50" y="50" /><rect fill="none" height="368.8879" stroke="black" stroke-width="1" width="368.8879" x="55" y="55" /><rect fill="none" height="366.3562" stroke="black" stroke-width="1" width="366.3562" x="60" y="60" /><rect fill="none" height="363.7586" stroke="black" stroke-width="1" width="363.7586" x="65" y="65" /><rect fill="none" height="361.0918" stroke="black" stroke-width="1" width="361.0918" x="70" y="70" /><rect fill="none" height="358.3519" stroke="black" stroke-width="1" width="358.3519" x="75" y="75" /><rect fill="none" height="355.5348" stroke="black" stroke-width="1" width="355.5348" x="80" y="80" /><rect fill="none" height="352.6361" stroke="black" stroke-width="1" width="352.6361" x="85" y="85" /><rect fill="none" height="349.6508" stroke="black" stroke-width="1" width="349.6508" x="90" y="90" /><rect fill="none" height="346.5736" stroke="black" stroke-width="1" width="346.5736" x="95" y="95" /><rect fill="none" height="343.3987" stroke="black" stroke-width="1" width="343.3987" x="100" y="100" /><rect fill="none" height="340.1197" stroke="black" stroke-width="1" width="340.1197" x="105" y="105" /><rect fill="none" height="336.7296" stroke="black" stroke-width="1" width="336.7296" x="110" y="110" /><rect fill="none" height="333.2205" stroke="black" stroke-width="1" width="333.2205" x="115" y="115" /><rect fill="none" height="329.5837" stroke="black" stroke-width="1" width="329.5837" x="120" y="120" /><rect fill="none" height="325.8097" stroke="black" stroke-width="1" width="325.8097" x="125" y="125" /><rect fill="none" height="321.8876" stroke="black" stroke-width="1" width="321.8876" x="130" y="130" /><rect fill="none" height="317.8054" stroke="black" stroke-width="1" width="317.8054" x="135" y="135" /><rect fill="none" height="313.5494" stroke="black" stroke-width="1" width="313.5494" x="140" y="140" /><rect fill="none" height="309.1042" stroke="black" stroke-width="1" width="309.1042" x="145" y="145" /><rect fill="none" height="304.4522" stroke="black" stroke-width="1" width="304.4522" x="150" y="150" /><rect fill="none" height="299.5732" stroke="black" stroke-width="1" width="299.5732" x="155" y="155" /><rect fill="none" height="294.4439" stroke="black" stroke-width="1" width="294.4439" x="160" y="160" /><rect fill="none" height="289.0372" stroke="black" stroke-width="1" width="289.0372" x="165" y="165" /><rect fill="none" height="283.3213" stroke="black" stroke-width="1" width="283.3213" x="170" y="170" /><rect fill="none" height="277.2589" stroke="black" stroke-width="1" width="277.2589" x="175" y="175" /><rect fill="none" height="270.805" stroke="black" stroke-width="1" width="270.805" x="180" y="180" /><rect fill="none" height="263.9057" stroke="black" stroke-width="1" width="263.9057" x="185" y="185" /><rect fill="none" height="256.4949" stroke="black" stroke-width="1" width="256.4949" x="190" y="190" /><rect fill="none" height="248.4907" stroke="black" stroke-width="1" width="248.4907" x="195" y="195" /><rect fill="none" height="239.7895" stroke="black" stroke-width="1" width="239.7895" x="200" y="200" /><rect fill="none" height="230.2585" stroke="black" stroke-width="1" width="230.2585" x="205" y="205" /><rect fill="none" height="219.7225" stroke="black" stroke-width="1" width="219.7225" x="210" y="210" /><rect fill="none" height="207.9442" stroke="black" stroke-width="1" width="207.9442" x="215" y="215" /><rect fill="none" height="194.591" stroke="black" stroke-width="1" width="194.591" x="220" y="220" /><rect fill="none" height="179.1759" stroke="black" stroke-width="1" width="179.1759" x="225" y="225" /><rect fill="none" height="160.9438" stroke="black" stroke-width="1" width="160.9438" x="230" y="230" /><rect fill="none" height="138.6294" stroke="black" stroke-width="1" width="138.6294" x="235" y="235" /><rect fill="none" height="109.8612" stroke="black" stroke-width="1" width="109.8612" x="240" y="240" /><rect fill="none" height="69.3147" stroke="black" stroke-width="1" width="69.3147" x="245" y="245" /></svg>