<?xml version="1.0" encoding="utf-8" ?>
<svg baseProfile="tiny" height="500" version="1.2" width="500" xmlns="http://www.w3.org/2000/svg" xmlns:ev="http://www.w3.org/2001/xml-events" xmlns:xlink="http://www.w3.org/1999/xlink"><defs /><rect fill="none" height="50" stroke="black" stroke-width="1" width="50" x="0" y="0.0" /><rect fill="none" height="50" stroke="black" stroke-width="1" width="50" x="0" y="192.0735" /><rect fill="none" height="50" stroke="black" stroke-width="1" width="50" x="0" y="345.4649" /><rect fill="none" height="50" stroke="black" stroke-width="1" width="50" x="0" y="457.056" /><rect fill="none" height="50" stroke="black" stroke-width="1" width="50" x="0" y="562.1599" /><rect fill="none" height="50" stroke="black" stroke-width="1" width="50" x="10" y="4.9917" /><rect fill="none" height="50" stroke="black" stroke-width="1" width="50" x="10" y="194.5604" /><rect fill="none" height="50" stroke="black" stroke-width="1" width="50" x="10" y="343.1605" /><rect fill="none" height="50" stroke="black" stroke-width="1" width="50" x="10" y="452.079" /><rect fill="none" height="50" stroke="black" stroke-width="1" width="50" x="10" y="559.0861" /><rect fill="none" height="50" stroke="black" stroke-width="1" width="50" x="20" y="9.9335" /><rect fill="none" height="50" stroke="black" stroke-width="1" width="50" x="20" y="196.602" /><rect fill="none" height="50" stroke="black" stroke-width="1" width="50" x="20" y="340.4248" /><rect fill="none" height="50" stroke="black" stroke-width="1" width="50" x="20" y="447.0813" /><rect fill="none" height="50" stroke="black" stroke-width="1" width="50" x="20" y="556.4212" /><rect fill="none" height="50" stroke="black" stroke-width="1" width="50" x="30" y="14.776" /><rect fill="none" height="50" stroke="black" stroke-width="1" width="50" x="30" y="198.1779" /><rect fill="none" height="50" stroke="black" stroke-width="1" width="50" x="30" y="337.2853" /><rect fill="none" height="50" stroke="black" stroke-width="1" width="50" x="30" y="442.1127" /><rect fill="none" height="50" stroke="black" stroke-width="1" width="50" x="30" y="554.1917" /><rect fill="none" height="50" stroke="black" stroke-width="1" width="50" x="40" y="19.4709" /><rect fill="none" height="50" stroke="black" stroke-width="1" width="50" x="40" y="199.2725" /><rect fill="none" height="50" stroke="black" stroke-width="1" width="50" x="40" y="333.7732" /><rect fill="none" height="50" stroke="black" stroke-width="1" width="50" x="40" y="437.2229" /><rect fill="none" height="50" stroke="black" stroke-width="1" width="50" x="40" y="552.4199" /><rect fill="none" height="50" stroke="black" stroke-width="1" width="50" x="50" y="23.9713" /><rect fill="none" height="50" stroke="black" stroke-width="1" width="50" x="50" y="199.8747" /><rect fill="none" height="50" stroke="black" stroke-width="1" width="50" x="50" y="329.9236" /><rect fill="none" height="50" stroke="black" stroke-width="1" width="50" x="50" y="432.4608" /><rect fill="none" height="50" stroke="black" stroke-width="1" width="50" x="50" y="551.1235" /><rect fill="none" height="50" stroke="black" stroke-width="1" width="50" x="60" y="28.2321" /><rect fill="none" height="50" stroke="black" stroke-width="1" width="50" x="60" y="199.9787" /><rect fill="none" height="50" stroke="black" stroke-width="1" width="50" x="60" y="325.7751" /><rect fill="none" height="50" stroke="black" stroke-width="1" width="50" x="60" y="427.874" /><rect fill="none" height="50" stroke="black" stroke-width="1" width="50" x="60" y="550.3154" /><rect fill="none" height="50" stroke="black" stroke-width="1" width="50" x="70" y="32.2109" /><rect fill="none" height="50" stroke="black" stroke-width="1" width="50" x="70" y="199.5832" /><rect fill="none" height="50" stroke="black" stroke-width="1" width="50" x="70" y="321.369" /><rect fill="none" height="50" stroke="black" stroke-width="1" width="50" x="70" y="423.5082" /><rect fill="none" height="50" stroke="black" stroke-width="1" width="50" x="70" y="550.0038" /><rect fill="none" height="50" stroke="black" stroke-width="1" width="50" x="80" y="35.8678" /><rect fill="none" height="50" stroke="black" stroke-width="1" width="50" x="80" y="198.6924" /><rect fill="none" height="50" stroke="black" stroke-width="1" width="50" x="80" y="316.7494" /><rect fill="none" height="50" stroke="black" stroke-width="1" width="50" x="80" y="419.4071" /><rect fill="none" height="50" stroke="black" stroke-width="1" width="50" x="80" y="550.1918" /><rect fill="none" height="50" stroke="black" stroke-width="1" width="50" x="90" y="39.1663" /><rect fill="none" height="50" stroke="black" stroke-width="1" width="50" x="90" y="197.315" /><rect fill="none" height="50" stroke="black" stroke-width="1" width="50" x="90" y="311.9625" /><rect fill="none" height="50" stroke="black" stroke-width="1" width="50" x="90" y="415.6117" /><rect fill="none" height="50" stroke="black" stroke-width="1" width="50" x="90" y="550.8774" /><rect fill="none" height="50" stroke="black" stroke-width="1" width="50" x="100" y="42.0735" /><rect fill="none" height="50" stroke="black" stroke-width="1" width="50" x="100" y="195.4649" /><rect fill="none" height="50" stroke="black" stroke-width="1" width="50" x="100" y="307.056" /><rect fill="none" height="50" stroke="black" stroke-width="1" width="50" x="100" y="412.1599" /><rect fill="none" height="50" stroke="black" stroke-width="1" width="50" x="100" y="552.0538" /><rect fill="none" height="50" stroke="black" stroke-width="1" width="50" x="110" y="44.5604" /><rect fill="none" height="50" stroke="black" stroke-width="1" width="50" x="110" y="193.1605" /><rect fill="none" height="50" stroke="black" stroke-width="1" width="50" x="110" y="302.079" /><rect fill="none" height="50" stroke="black" stroke-width="1" width="50" x="110" y="409.0861" /><rect fill="none" height="50" stroke="black" stroke-width="1" width="50" x="110" y="553.7093" /><rect fill="none" height="50" stroke="black" stroke-width="1" width="50" x="120" y="46.602" /><rect fill="none" height="50" stroke="black" stroke-width="1" width="50" x="120" y="190.4248" /><rect fill="none" height="50" stroke="black" stroke-width="1" width="50" x="120" y="297.0813" /><rect fill="none" height="50" stroke="black" stroke-width="1" width="50" x="120" y="406.4212" /><rect fill="none" height="50" stroke="black" stroke-width="1" width="50" x="120" y="555.8273" /><rect fill="none" height="50" stroke="black" stroke-width="1" width="50" x="130" y="48.1779" /><rect fill="none" height="50" stroke="black" stroke-width="1" width="50" x="130" y="187.2853" /><rect fill="none" height="50" stroke="black" stroke-width="1" width="50" x="130" y="292.1127" /><rect fill="none" height="50" stroke="black" stroke-width="1" width="50" x="130" y="404.1917" /><rect fill="none" height="50" stroke="black" stroke-width="1" width="50" x="130" y="558.3866" /><rect fill="none" height="50" stroke="black" stroke-width="1" width="50" x="140" y="49.2725" /><rect fill="none" height="50" stroke="black" stroke-width="1" width="50" x="140" y="183.7732" /><rect fill="none" height="50" stroke="black" stroke-width="1" width="50" x="140" y="287.2229" /><rect fill="none" height="50" stroke="black" stroke-width="1" width="50" x="140" y="402.4199" /><rect fill="none" height="50" stroke="black" stroke-width="1" width="50" x="140" y="561.3618" /><rect fill="none" height="50" stroke="black" stroke-width="1" width="50" x="150" y="49.8747" /><rect fill="none" height="50" stroke="black" stroke-width="1" width="50" x="150" y="179.9236" /><rect fill="none" height="50" stroke="black" stroke-width="1" width="50" x="150" y="282.4608" /><rect fill="none" height="50" stroke="black" stroke-width="1" width="50" x="150" y="401.1235" /><rect fill="none" height="50" stroke="black" stroke-width="1" width="50" x="150" y="564.723" /><rect fill="none" height="50" stroke="black" stroke-width="1" width="50" x="160" y="49.9787" /><rect fill="none" height="50" stroke="black" stroke-width="1" width="50" x="160" y="175.7751" /><rect fill="none" height="50" stroke="black" stroke-width="1" width="50" x="160" y="277.874" /><rect fill="none" height="50" stroke="black" stroke-width="1" width="50" x="160" y="400.3154" /><rect fill="none" height="50" stroke="black" stroke-width="1" width="50" x="160" y="568.4367" /><rect fill="none" height="50" stroke="black" stroke-width="1" width="50" x="170" y="49.5832" /><rect fill="none" height="50" stroke="black" stroke-width="1" width="50" x="170" y="171.369" /><rect fill="none" height="50" stroke="black" stroke-width="1" width="50" x="170" y="273.5082" /><rect fill="none" height="50" stroke="black" stroke-width="1" width="50" x="170" y="400.0038" /><rect fill="none" height="50" stroke="black" stroke-width="1" width="50" x="170" y="572.4657" /><rect fill="none" height="50" stroke="black" stroke-width="1" width="50" x="180" y="48.6924" /><rect fill="none" height="50" stroke="black" stroke-width="1" width="50" x="180" y="166.7494" /><rect fill="none" height="50" stroke="black" stroke-width="1" width="50" x="180" y="269.4071" /><rect fill="none" height="50" stroke="black" stroke-width="1" width="50" x="180" y="400.1918" /><rect fill="none" height="50" stroke="black" stroke-width="1" width="50" x="180" y="576.7699" /><rect fill="none" height="50" stroke="black" stroke-width="1" width="50" x="190" y="47.315" /><rect fill="none" height="50" stroke="black" stroke-width="1" width="50" x="190" y="161.9625" /><rect fill="none" height="50" stroke="black" stroke-width="1" width="50" x="190" y="265.6117" /><rect fill="none" height="50" stroke="black" stroke-width="1" width="50" x="190" y="400.8774" /><rect fill="none" height="50" stroke="black" stroke-width="1" width="50" x="190" y="581.3062" /><rect fill="none" height="50" stroke="black" stroke-width="1" width="50" x="200" y="45.4649" /><rect fill="none" height="50" stroke="black" stroke-width="1" width="50" x="200" y="157.056" /><rect fill="none" height="50" stroke="black" stroke-width="1" width="50" x="200" y="262.1599" /><rect fill="none" height="50" stroke="black" stroke-width="1" width="50" x="200" y="402.0538" /><rect fill="none" height="50" stroke="black" stroke-width="1" width="50" x="200" y="586.0292" /><rect fill="none" height="50" stroke="black" stroke-width="1" width="50" x="210" y="43.1605" /><rect fill="none" height="50" stroke="black" stroke-width="1" width="50" x="210" y="152.079" /><rect fill="none" height="50" stroke="black" stroke-width="1" width="50" x="210" y="259.0861" /><rect fill="none" height="50" stroke="black" stroke-width="1" width="50" x="210" y="403.7093" /><rect fill="none" height="50" stroke="black" stroke-width="1" width="50" x="210" y="590.8919" /><rect fill="none" height="50" stroke="black" stroke-width="1" width="50" x="220" y="40.4248" /><rect fill="none" height="50" stroke="black" stroke-width="1" width="50" x="220" y="147.0813" /><rect fill="none" height="50" stroke="black" stroke-width="1" width="50" x="220" y="256.4212" /><rect fill="none" height="50" stroke="black" stroke-width="1" width="50" x="220" y="405.8273" /><rect fill="none" height="50" stroke="black" stroke-width="1" width="50" x="220" y="595.8455" /><rect fill="none" height="50" stroke="black" stroke-width="1" width="50" x="230" y="37.2853" /><rect fill="none" height="50" stroke="black" stroke-width="1" width="50" x="230" y="142.1127" /><rect fill="none" height="50" stroke="black" stroke-width="1" width="50" x="230" y="254.1917" /><rect fill="none" height="50" stroke="black" stroke-width="1" width="50" x="230" y="408.3866" /><rect fill="none" height="50" stroke="black" stroke-width="1" width="50" x="230" y="600.8407" /><rect fill="none" height="50" stroke="black" stroke-width="1" width="50" x="240" y="33.7732" /><rect fill="none" height="50" stroke="black" stroke-width="1" width="50" x="240" y="137.2229" /><rect fill="none" height="50" stroke="black" stroke-width="1" width="50" x="240" y="252.4199" /><rect fill="none" height="50" stroke="black" stroke-width="1" width="50" x="240" y="411.3618" /><rect fill="none" height="50" stroke="black" stroke-width="1" width="50" x="240" y="605.8275" /><rect fill="none" height="50" stroke="black" stroke-width="1" width="50" x="250" y="29.9236" /><rect fill="none" height="50" stroke="black" stroke-width="1" width="50" x="250" y="132.4608" /><rect fill="none" height="50" stroke="black" stroke-width="1" width="50" x="250" y="251.1235" /><rect fill="none" height="50" stroke="black" stroke-width="1" width="50" x="250" y="414.723" /><rect fill="none" height="50" stroke="black" stroke-width="1" width="50" x="250" y="610.756" /><rect fill="none" height="50" stroke="black" stroke-width="1" width="50" x="260" y="25.7751" /><rect fill="none" height="50" stroke="black" stroke-width="1" width="50" x="260" y="127.874" /><rect fill="none" height="50" stroke="black" stroke-width="1" width="50" x="260" y="250.3154" /><rect fill="none" height="50" stroke="black" stroke-width="1" width="50" x="260" y="418.4367" /><rect fill="none" height="50" stroke="black" stroke-width="1" width="50" x="260" y="615.5771" /><rect fill="none" height="50" stroke="black" stroke-width="1" width="50" x="270" y="21.369" /><rect fill="none" height="50" stroke="black" stroke-width="1" width="50" x="270" y="123.5082" /><rect fill="none" height="50" stroke="black" stroke-width="1" width="50" x="270" y="250.0038" /><rect fill="none" height="50" stroke="black" stroke-width="1" width="50" x="270" y="422.4657" /><rect fill="none" height="50" stroke="black" stroke-width="1" width="50" x="270" y="620.2425" /><rect fill="none" height="50" stroke="black" stroke-width="1" width="50" x="280" y="16.7494" /><rect fill="none" height="50" stroke="black" stroke-width="1" width="50" x="280" y="119.4071" /><rect fill="none" height="50" stroke="black" stroke-width="1" width="50" x="280" y="250.1918" /><rect fill="none" height="50" stroke="black" stroke-width="1" width="50" x="280" y="426.7699" /><rect fill="none" height="50" stroke="black" stroke-width="1" width="50" x="280" y="624.7057" /><rect fill="none" height="50" stroke="black" stroke-width="1" width="50" x="290" y="11.9625" /><rect fill="none" height="50" stroke="black" stroke-width="1" width="50" x="290" y="115.6117" /><rect fill="none" height="50" stroke="black" stroke-width="1" width="50" x="290" y="250.8774" /><rect fill="none" height="50" stroke="black" stroke-width="1" width="50" x="290" y="431.3062" /><rect fill="none" height="50" stroke="black" stroke-width="1" width="50" x="290" y="628.922" /><rect fill="none" height="50" stroke="black" stroke-width="1" width="50" x="300" y="7.056" /><rect fill="none" height="50" stroke="black" stroke-width="1" width="50" x="300" y="112.1599" /><rect fill="none" height="50" stroke="black" stroke-width="1" width="50" x="300" y="252.0538" /><rect fill="none" height="50" stroke="black" stroke-width="1" width="50" x="300" y="436.0292" /><rect fill="none" height="50" stroke="black" stroke-width="1" width="50" x="300" y="632.8493" /><rect fill="none" height="50" stroke="black" stroke-width="1" width="50" x="310" y="2.079" /><rect fill="none" height="50" stroke="black" stroke-width="1" width="50" x="310" y="109.0861" /><rect fill="none" height="50" stroke="black" stroke-width="1" width="50" x="310" y="253.7093" /><rect fill="none" height="50" stroke="black" stroke-width="1" width="50" x="310" y="440.8919" /><rect fill="none" height="50" stroke="black" stroke-width="1" width="50" x="310" y="636.4485" /><rect fill="none" height="50" stroke="black" stroke-width="1" width="50" x="320" y="-2.9187" /><rect fill="none" height="50" stroke="black" stroke-width="1" width="50" x="320" y="106.4212" /><rect fill="none" height="50" stroke="black" stroke-width="1" width="50" x="320" y="255.8273" /><rect fill="none" height="50" stroke="black" stroke-width="1" width="50" x="320" y="445.8455" /><rect fill="none" height="50" stroke="black" stroke-width="1" width="50" x="320" y="639.6834" /><rect fill="none" height="50" stroke="black" stroke-width="1" width="50" x="330" y="-7.8873" /><rect fill="none" height="50" stroke="black" stroke-width="1" width="50" x="330" y="104.1917" /><rect fill="none" height="50" stroke="black" stroke-width="1" width="50" x="330" y="258.3866" /><rect fill="none" height="50" stroke="black" stroke-width="1" width="50" x="330" y="450.8407" /><rect fill="none" height="50" stroke="black" stroke-width="1" width="50" x="330" y="642.5218" /><rect fill="none" height="50" stroke="black" stroke-width="1" width="50" x="340" y="-12.7771" /><rect fill="none" height="50" stroke="black" stroke-width="1" width="50" x="340" y="102.4199" /><rect fill="none" height="50" stroke="black" stroke-width="1" width="50" x="340" y="261.3618" /><rect fill="none" height="50" stroke="black" stroke-width="1" width="50" x="340" y="455.8275" /><rect fill="none" height="50" stroke="black" stroke-width="1" width="50" x="340" y="644.9354" /><rect fill="none" height="50" stroke="black" stroke-width="1" width="50" x="350" y="-17.5392" /><rect fill="none" height="50" stroke="black" stroke-width="1" width="50" x="350" y="101.1235" /><rect fill="none" height="50" stroke="black" stroke-width="1" width="50" x="350" y="264.723" /><rect fill="none" height="50" stroke="black" stroke-width="1" width="50" x="350" y="460.756" /><rect fill="none" height="50" stroke="black" stroke-width="1" width="50" x="350" y="646.9" /><rect fill="none" height="50" stroke="black" stroke-width="1" width="50" x="360" y="-22.126" /><rect fill="none" height="50" stroke="black" stroke-width="1" width="50" x="360" y="100.3154" /><rect fill="none" height="50" stroke="black" stroke-width="1" width="50" x="360" y="268.4367" /><rect fill="none" height="50" stroke="black" stroke-width="1" width="50" x="360" y="465.5771" /><rect fill="none" height="50" stroke="black" stroke-width="1" width="50" x="360" y="648.396" /><rect fill="none" height="50" stroke="black" stroke-width="1" width="50" x="370" y="-26.4918" /><rect fill="none" height="50" stroke="black" stroke-width="1" width="50" x="370" y="100.0038" /><rect fill="none" height="50" stroke="black" stroke-width="1" width="50" x="370" y="272.4657" /><rect fill="none" height="50" stroke="black" stroke-width="1" width="50" x="370" y="470.2425" /><rect fill="none" height="50" stroke="black" stroke-width="1" width="50" x="370" y="649.4084" /><rect fill="none" height="50" stroke="black" stroke-width="1" width="50" x="380" y="-30.5929" /><rect fill="none" height="50" stroke="black" stroke-width="1" width="50" x="380" y="100.1918" /><rect fill="none" height="50" stroke="black" stroke-width="1" width="50" x="380" y="276.7699" /><rect fill="none" height="50" stroke="black" stroke-width="1" width="50" x="380" y="474.7057" /><rect fill="none" height="50" stroke="black" stroke-width="1" width="50" x="380" y="649.9272" /><rect fill="none" height="50" stroke="black" stroke-width="1" width="50" x="390" y="-34.3883" /><rect fill="none" height="50" stroke="black" stroke-width="1" width="50" x="390" y="100.8774" /><rect fill="none" height="50" stroke="black" stroke-width="1" width="50" x="390" y="281.3062" /><rect fill="none" height="50" stroke="black" stroke-width="1" width="50" x="390" y="478.922" /><rect fill="none" height="50" stroke="black" stroke-width="1" width="50" x="390" y="649.9471" /><rect fill="none" height="50" stroke="black" stroke-width="1" width="50" x="400" y="-37.8401" /><rect fill="none" height="50" stroke="black" stroke-width="1" width="50" x="400" y="102.0538" /><rect fill="none" height="50" stroke="black" stroke-width="1" width="50" x="400" y="286.0292" /><rect fill="none" height="50" stroke="black" stroke-width="1" width="50" x="400" y="482.8493" /><rect fill="none" height="50" stroke="black" stroke-width="1" width="50" x="400" y="649.4679" /><rect fill="none" height="50" stroke="black" stroke-width="1" width="50" x="410" y="-40.9139" /><rect fill="none" height="50" stroke="black" stroke-width="1" width="50" x="410" y="103.7093" /><rect fill="none" height="50" stroke="black" stroke-width="1" width="50" x="410" y="290.8919" /><rect fill="none" height="50" stroke="black" stroke-width="1" width="50" x="410" y="486.4485" /><rect fill="none" height="50" stroke="black" stroke-width="1" width="50" x="410" y="648.4945" /><rect fill="none" height="50" stroke="black" stroke-width="1" width="50" x="420" y="-43.5788" /><rect fill="none" height="50" stroke="black" stroke-width="1" width="50" x="420" y="105.8273" /><rect fill="none" height="50" stroke="black" stroke-width="1" width="50" x="420" y="295.8455" /><rect fill="none" height="50" stroke="black" stroke-width="1" width="50" x="420" y="489.6834" /><rect fill="none" height="50" stroke="black" stroke-width="1" width="50" x="420" y="647.0365" /><rect fill="none" height="50" stroke="black" stroke-width="1" width="50" x="430" y="-45.8083" /><rect fill="none" height="50" stroke="black" stroke-width="1" width="50" x="430" y="108.3866" /><rect fill="none" height="50" stroke="black" stroke-width="1" width="50" x="430" y="300.8407" /><rect fill="none" height="50" stroke="black" stroke-width="1" width="50" x="430" y="492.5218" /><rect fill="none" height="50" stroke="black" stroke-width="1" width="50" x="430" y="645.1086" /><rect fill="none" height="50" stroke="black" stroke-width="1" width="50" x="440" y="-47.5801" /><rect fill="none" height="50" stroke="black" stroke-width="1" width="50" x="440" y="111.3618" /><rect fill="none" height="50" stroke="black" stroke-width="1" width="50" x="440" y="305.8275" /><rect fill="none" height="50" stroke="black" stroke-width="1" width="50" x="440" y="494.9354" /><rect fill="none" height="50" stroke="black" stroke-width="1" width="50" x="440" y="642.7299" /><rect fill="none" height="50" stroke="black" stroke-width="1" width="50" x="450" y="-48.8765" /><rect fill="none" height="50" stroke="black" stroke-width="1" width="50" x="450" y="114.723" /><rect fill="none" height="50" stroke="black" stroke-width="1" width="50" x="450" y="310.756" /><rect fill="none" height="50" stroke="black" stroke-width="1" width="50" x="450" y="496.9" /><rect fill="none" height="50" stroke="black" stroke-width="1" width="50" x="450" y="639.9244" /><rect fill="none" height="50" stroke="black" stroke-width="1" width="50" x="460" y="-49.6846" /><rect fill="none" height="50" stroke="black" stroke-width="1" width="50" x="460" y="118.4367" /><rect fill="none" height="50" stroke="black" stroke-width="1" width="50" x="460" y="315.5771" /><rect fill="none" height="50" stroke="black" stroke-width="1" width="50" x="460" y="498.396" /><rect fill="none" height="50" stroke="black" stroke-width="1" width="50" x="460" y="636.7199" /><rect fill="none" height="50" stroke="black" stroke-width="1" width="50" x="470" y="-49.9962" /><rect fill="none" height="50" stroke="black" stroke-width="1" width="50" x="470" y="122.4657" /><rect fill="none" height="50" stroke="black" stroke-width="1" width="50" x="470" y="320.2425" /><rect fill="none" height="50" stroke="black" stroke-width="1" width="50" x="470" y="499.4084" /><rect fill="none" height="50" stroke="black" stroke-width="1" width="50" x="470" y="633.1485" /><rect fill="none" height="50" stroke="black" stroke-width="1" width="50" x="480" y="-49.8082" /><rect fill="none" height="50" stroke="black" stroke-width="1" width="50" x="480" y="126.7699" /><rect fill="none" height="50" stroke="black" stroke-width="1" width="50" x="480" y="324.7057" /><rect fill="none" height="50" stroke="black" stroke-width="1" width="50" x="480" y="499.9272" /><rect fill="none" height="50" stroke="black" stroke-width="1" width="50" x="480" y="629.2459" /><rect fill="none" height="50" stroke="black" stroke-width="1" width="50" x="490" y="-49.1226" /><rect fill="none" height="50" stroke="black" stroke-width="1" width="50" x="490" y="131.3062" /><rect fill="none" height="50" stroke="black" stroke-width="1" width="50" x="490" y="328.922" /><rect fill="none" height="50" stroke="black" stroke-width="1" width="50" x="490" y="499.9471" /><rect fill="none" height="50" stroke="black" stroke-width="1" width="50" x="490" y="625.051" /><rect fill="none" height="50" stroke="black" stroke-width="1" width="50" x="500" y="-47.9462" /><rect fill="none" height="50" stroke="black" stroke-width="1" width="50" x="500" y="136.0292" /><rect fill="none" height="50" stroke="black" stroke-width="1" width="50" x="500" y="332.8493" /><rect fill="none" height="50" stroke="black" stroke-width="1" width="50" x="500" y="499.4679" /><rect fill="none" height="50" stroke="black" stroke-width="1" width="50" x="500" y="620.6059" /><rect fill="none" height="50" stroke="black" stroke-width="1" width="50" x="510" y="-46.2907" /><rect fill="none" height="50" stroke="black" stroke-width="1" width="50" x="510" y="140.8919" /><rect fill="none" height="50" stroke="black" stroke-width="1" width="50" x="510" y="336.4485" /><rect fill="none" height="50" stroke="black" stroke-width="1" width="50" x="510" y="498.4945" /><rect fill="none" height="50" stroke="black" stroke-width="1" width="50" x="510" y="615.9549" /><rect fill="none" height="50" stroke="black" stroke-width="1" width="50" x="520" y="-44.1727" /><rect fill="none" height="50" stroke="black" stroke-width="1" width="50" x="520" y="145.8455" /><rect fill="none" height="50" stroke="black" stroke-width="1" width="50" x="520" y="339.6834" /><rect fill="none" height="50" stroke="black" stroke-width="1" width="50" x="520" y="497.0365" /><rect fill="none" height="50" stroke="black" stroke-width="1" width="50" x="520" y="611.1445" /><rect fill="none" height="50" stroke="black" stroke-width="1" width="50" x="530" y="-41.6134" /><rect fill="none" height="50" stroke="black" stroke-width="1" width="50" x="530" y="150.8407" /><rect fill="none" height="50" stroke="black" stroke-width="1" width="50" x="530" y="342.5218" /><rect fill="none" height="50" stroke="black" stroke-width="1" width="50" x="530" y="495.1086" /><rect fill="none" height="50" stroke="black" stroke-width="1" width="50" x="530" y="606.2227" /><rect fill="none" height="50" stroke="black" stroke-width="1" width="50" x="540" y="-38.6382" /><rect fill="none" height="50" stroke="black" stroke-width="1" width="50" x="540" y="155.8275" /><rect fill="none" height="50" stroke="black" stroke-width="1" width="50" x="540" y="344.9354" /><rect fill="none" height="50" stroke="black" stroke-width="1" width="50" x="540" y="492.7299" /><rect fill="none" height="50" stroke="black" stroke-width="1" width="50" x="540" y="601.2388" /><rect fill="none" height="50" stroke="black" stroke-width="1" width="50" x="550" y="-35.277" /><rect fill="none" height="50" stroke="black" stroke-width="1" width="50" x="550" y="160.756" /><rect fill="none" height="50" stroke="black" stroke-width="1" width="50" x="550" y="346.9" /><rect fill="none" height="50" stroke="black" stroke-width="1" width="50" x="550" y="489.9244" /><rect fill="none" height="50" stroke="black" stroke-width="1" width="50" x="550" y="596.2424" /><rect fill="none" height="50" stroke="black" stroke-width="1" width="50" x="560" y="-31.5633" /><rect fill="none" height="50" stroke="black" stroke-width="1" width="50" x="560" y="165.5771" /><rect fill="none" height="50" stroke="black" stroke-width="1" width="50" x="560" y="348.396" /><rect fill="none" height="50" stroke="black" stroke-width="1" width="50" x="560" y="486.7199" /><rect fill="none" height="50" stroke="black" stroke-width="1" width="50" x="560" y="591.2837" /><rect fill="none" height="50" stroke="black" stroke-width="1" width="50" x="570" y="-27.5343" /><rect fill="none" height="50" stroke="black" stroke-width="1" width="50" x="570" y="170.2425" /><rect fill="none" height="50" stroke="black" stroke-width="1" width="50" x="570" y="349.4084" /><rect fill="none" height="50" stroke="black" stroke-width="1" width="50" x="570" y="483.1485" /><rect fill="none" height="50" stroke="black" stroke-width="1" width="50" x="570" y="586.412" /><rect fill="none" height="50" stroke="black" stroke-width="1" width="50" x="580" y="-23.2301" /><rect fill="none" height="50" stroke="black" stroke-width="1" width="50" x="580" y="174.7057" /><rect fill="none" height="50" stroke="black" stroke-width="1" width="50" x="580" y="349.9272" /><rect fill="none" height="50" stroke="black" stroke-width="1" width="50" x="580" y="479.2459" /><rect fill="none" height="50" stroke="black" stroke-width="1" width="50" x="580" y="581.676" /><rect fill="none" height="50" stroke="black" stroke-width="1" width="50" x="590" y="-18.6938" /><rect fill="none" height="50" stroke="black" stroke-width="1" width="50" x="590" y="178.922" /><rect fill="none" height="50" stroke="black" stroke-width="1" width="50" x="590" y="349.9471" /><rect fill="none" height="50" stroke="black" stroke-width="1" width="50" x="590" y="475.051" /><rect fill="none" height="50" stroke="black" stroke-width="1" width="50" x="590" y="577.1232" /><rect fill="none" height="50" stroke="black" stroke-width="1" width="50" x="600" y="-13.9708" /><rect fill="none" height="50" stroke="black" stroke-width="1" width="50" x="600" y="182.8493" /><rect fill="none" height="50" stroke="black" stroke-width="1" width="50" x="600" y="349.4679" /><rect fill="none" height="50" stroke="black" stroke-width="1" width="50" x="600" y="470.6059" /><rect fill="none" height="50" stroke="black" stroke-width="1" width="50" x="600" y="572.7989" /><rect fill="none" height="50" stroke="black" stroke-width="1" width="50" x="610" y="-9.1081" /><rect fill="none" height="50" stroke="black" stroke-width="1" width="50" x="610" y="186.4485" /><rect fill="none" height="50" stroke="black" stroke-width="1" width="50" x="610" y="348.4945" /><rect fill="none" height="50" stroke="black" stroke-width="1" width="50" x="610" y="465.9549" /><rect fill="none" height="50" stroke="black" stroke-width="1" width="50" x="610" y="568.7465" /><rect fill="none" height="50" stroke="black" stroke-width="1" width="50" x="620" y="-4.1545" /><rect fill="none" height="50" stroke="black" stroke-width="1" width="50" x="620" y="189.6834" /><rect fill="none" height="50" stroke="black" stroke-width="1" width="50" x="620" y="347.0365" /><rect fill="none" height="50" stroke="black" stroke-width="1" width="50" x="620" y="461.1445" /><rect fill="none" height="50" stroke="black" stroke-width="1" width="50" x="620" y="565.0063" /><rect fill="none" height="50" stroke="black" stroke-width="1" width="50" x="630" y="0.8407" /><rect fill="none" height="50" stroke="black" stroke-width="1" width="50" x="630" y="192.5218" /><rect fill="none" height="50" stroke="black" stroke-width="1" width="50" x="630" y="345.1086" /><rect fill="none" height="50" stroke="black" stroke-width="1" width="50" x="630" y="456.2227" /><rect fill="none" height="50" stroke="black" stroke-width="1" width="50" x="630" y="561.6157" /><rect fill="none" height="50" stroke="black" stroke-width="1" width="50" x="640" y="5.8275" /><rect fill="none" height="50" stroke="black" stroke-width="1" width="50" x="640" y="194.9354" /><rect fill="none" height="50" stroke="black" stroke-width="1" width="50" x="640" y="342.7299" /><rect fill="none" height="50" stroke="black" stroke-width="1" width="50" x="640" y="451.2388" /><rect fill="none" height="50" stroke="black" stroke-width="1" width="50" x="640" y="558.6087" /></svg>