<?xml version="1.0" encoding="utf-8" ?>
<svg baseProfile="tiny" height="500" version="1.2" width="500" xmlns="http://www.w3.org/2000/svg" xmlns:ev="http://www.w3.org/2001/xml-events" xmlns:xlink="http://www.w3.org/1999/xlink"><defs /><rect fill="none" height="10" stroke="black" stroke-width="1" transform="rotate(-0.0 0 0)" width="10" x="0" y="0" /><rect fill="none" height="10" stroke="black" stroke-width="1" transform="rotate(-0.00272398036106722 0 10)" width="10" x="0" y="10" /><rect fill="none" height="10" stroke="black" stroke-width="1" transform="rotate(0.009321513084167555 0 20)" width="10" x="0" y="20" /><rect fill="none" height="10" stroke="black" stroke-width="1" transform="rotate(-0.015112880125428689 0 30)" width="10" x="0" y="30" /><rect fill="none" height="10" stroke="black" stroke-width="1" transform="rotate(0.05674720565820582 0 40)" width="10" x="0" y="40" /><rect fill="none" height="10" stroke="black" stroke-width="1" transform="rotate(-0.10940640079819915 0 50)" width="10" x="0" y="50" /><rect fill="none" height="10" stroke="black" stroke-width="1" transform="rotate(-0.10222136950791468 0 60)" width="10" x="0" y="60" /><rect fill="none" height="10" stroke="black" stroke-width="1" transform="rotate(-0.0015505566622674128 0 70)" width="10" x="0" y="70" /><rect fill="none" height="10" stroke="black" stroke-width="1" transform="rotate(-0.2636978815996621 0 80)" width="10" x="0" y="80" /><rect fill="none" height="10" stroke="black" stroke-width="1" transform="rotate(-0.21010303980241887 0 90)" width="10" x="0" y="90" /><rect fill="none" height="10" stroke="black" stroke-width="1" transform="rotate(0.3515289088733944 0 100)" width="10" x="0" y="100" /><rect fill="none" height="10" stroke="black" stroke-width="1" transform="rotate(-0.04632916572999544 0 110)" width="10" x="0" y="110" /><rect fill="none" height="10" stroke="black" stroke-width="1" transform="rotate(-0.6274619753580147 0 120)" width="10" x="0" y="120" /><rect fill="none" height="10" stroke="black" stroke-width="1" transform="rotate(0.029254723472977976 0 130)" width="10" x="0" y="130" /><rect fill="none" height="10" stroke="black" stroke-width="1" transform="rotate(0.8503078505480063 0 140)" width="10" x="0" y="140" /><rect fill="none" height="10" stroke="black" stroke-width="1" transform="rotate(-0.25763336953028193 0 150)" width="10" x="0" y="150" /><rect fill="none" height="10" stroke="black" stroke-width="1" transform="rotate(0.09207229574710823 0 160)" width="10" x="0" y="160" /><rect fill="none" height="10" stroke="black" stroke-width="1" transform="rotate(-1.2004410014311688 0 170)" width="10" x="0" y="170" /><rect fill="none" height="10" stroke="black" stroke-width="1" transform="rotate(-0.48113570446310566 0 180)" width="10" x="0" y="180" /><rect fill="none" height="10" stroke="black" stroke-width="1" transform="rotate(0.679049080803633 0 190)" width="10" x="0" y="190" /><rect fill="none" height="10" stroke="black" stroke-width="1" transform="rotate(1.6465640076655064 0 200)" width="10" x="0" y="200" /><rect fill="none" height="10" stroke="black" stroke-width="1" transform="rotate(-1.1806717338632466 0 210)" width="10" x="0" y="210" /><rect fill="none" height="10" stroke="black" stroke-width="1" transform="rotate(2.0172473948731406 0 220)" width="10" x="0" y="220" /><rect fill="none" height="10" stroke="black" stroke-width="1" transform="rotate(-1.5864738301703338 0 230)" width="10" x="0" y="230" /><rect fill="none" height="10" stroke="black" stroke-width="1" transform="rotate(0.5258860347723531 0 240)" width="10" x="0" y="240" /><rect fill="none" height="10" stroke="black" stroke-width="1" transform="rotate(-1.2453018089233916 0 250)" width="10" x="0" y="250" /><rect fill="none" height="10" stroke="black" stroke-width="1" transform="rotate(-2.7628455580598104 0 260)" width="10" x="0" y="260" /><rect fill="none" height="10" stroke="black" stroke-width="1" transform="rotate(-0.10654625310454441 0 270)" width="10" x="0" y="270" /><rect fill="none" height="10" stroke="black" stroke-width="1" transform="rotate(0.5345547282393321 0 280)" width="10" x="0" y="280" /><rect fill="none" height="10" stroke="black" stroke-width="1" transform="rotate(2.3984073501798058 0 290)" width="10" x="0" y="290" /><rect fill="none" height="10" stroke="black" stroke-width="1" transform="rotate(0.0 10 0)" width="10" x="10" y="0" /><rect fill="none" height="10" stroke="black" stroke-width="1" transform="rotate(0.0025557681958640246 10 10)" width="10" x="10" y="10" /><rect fill="none" height="10" stroke="black" stroke-width="1" transform="rotate(-0.01495955562479271 10 20)" width="10" x="10" y="20" /><rect fill="none" height="10" stroke="black" stroke-width="1" transform="rotate(0.042903564093660654 10 30)" width="10" x="10" y="30" /><rect fill="none" height="10" stroke="black" stroke-width="1" transform="rotate(0.03880791219987428 10 40)" width="10" x="10" y="40" /><rect fill="none" height="10" stroke="black" stroke-width="1" transform="rotate(0.04618528658337842 10 50)" width="10" x="10" y="50" /><rect fill="none" height="10" stroke="black" stroke-width="1" transform="rotate(-0.05471979575731512 10 60)" width="10" x="10" y="60" /><rect fill="none" height="10" stroke="black" stroke-width="1" transform="rotate(0.0662228433147023 10 70)" width="10" x="10" y="70" /><rect fill="none" height="10" stroke="black" stroke-width="1" transform="rotate(-0.3021163746995641 10 80)" width="10" x="10" y="80" /><rect fill="none" height="10" stroke="black" stroke-width="1" transform="rotate(0.39832700373410235 10 90)" width="10" x="10" y="90" /><rect fill="none" height="10" stroke="black" stroke-width="1" transform="rotate(-0.434417824682781 10 100)" width="10" x="10" y="100" /><rect fill="none" height="10" stroke="black" stroke-width="1" transform="rotate(0.3754551560727721 10 110)" width="10" x="10" y="110" /><rect fill="none" height="10" stroke="black" stroke-width="1" transform="rotate(0.3813178614755461 10 120)" width="10" x="10" y="120" /><rect fill="none" height="10" stroke="black" stroke-width="1" transform="rotate(-0.4428038788570289 10 130)" width="10" x="10" y="130" /><rect fill="none" height="10" stroke="black" stroke-width="1" transform="rotate(0.3719572252687328 10 140)" width="10" x="10" y="140" /><rect fill="none" height="10" stroke="black" stroke-width="1" transform="rotate(0.7776767487880817 10 150)" width="10" x="10" y="150" /><rect fill="none" height="10" stroke="black" stroke-width="1" transform="rotate(-0.4646229076002069 10 160)" width="10" x="10" y="160" /><rect fill="none" height="10" stroke="black" stroke-width="1" transform="rotate(1.1630305036271364 10 170)" width="10" x="10" y="170" /><rect fill="none" height="10" stroke="black" stroke-width="1" transform="rotate(-0.7693661165289599 10 180)" width="10" x="10" y="180" /><rect fill="none" height="10" stroke="black" stroke-width="1" transform="rotate(1.2606103245385858 10 190)" width="10" x="10" y="190" /><rect fill="none" height="10" stroke="black" stroke-width="1" transform="rotate(-0.5383191435208268 10 200)" width="10" x="10" y="200" /><rect fill="none" height="10" stroke="black" stroke-width="1" transform="rotate(0.3445701859605804 10 210)" width="10" x="10" y="210" /><rect fill="none" height="10" stroke="black" stroke-width="1" transform="rotate(1.8012322822510196 10 220)" width="10" x="10" y="220" /><rect fill="none" height="10" stroke="black" stroke-width="1" transform="rotate(0.9075514024715607 10 230)" width="10" x="10" y="230" /><rect fill="none" height="10" stroke="black" stroke-width="1" transform="rotate(-2.4960582197598904 10 240)" width="10" x="10" y="240" /><rect fill="none" height="10" stroke="black" stroke-width="1" transform="rotate(-1.4565902955411867 10 250)" width="10" x="10" y="250" /><rect fill="none" height="10" stroke="black" stroke-width="1" transform="rotate(-2.946067792369925 10 260)" width="10" x="10" y="260" /><rect fill="none" height="10" stroke="black" stroke-width="1" transform="rotate(3.279844343386368 10 270)" width="10" x="10" y="270" /><rect fill="none" height="10" stroke="black" stroke-width="1" transform="rotate(-1.8638256836648983 10 280)" width="10" x="10" y="280" /><rect fill="none" height="10" stroke="black" stroke-width="1" transform="rotate(0.6856132420413598 10 290)" width="10" x="10" y="290" /><rect fill="none" height="10" stroke="black" stroke-width="1" transform="rotate(-0.0 20 0)" width="10" x="20" y="0" /><rect fill="none" height="10" stroke="black" stroke-width="1" transform="rotate(-0.000428153041981576 20 10)" width="10" x="20" y="10" /><rect fill="none" height="10" stroke="black" stroke-width="1" transform="rotate(0.0019114208913381826 20 20)" width="10" x="20" y="20" /><rect fill="none" height="10" stroke="black" stroke-width="1" transform="rotate(0.020924712619125475 20 30)" width="10" x="20" y="30" /><rect fill="none" height="10" stroke="black" stroke-width="1" transform="rotate(-0.04406445697463621 20 40)" width="10" x="20" y="40" /><rect fill="none" height="10" stroke="black" stroke-width="1" transform="rotate(0.09789341494651527 20 50)" width="10" x="20" y="50" /><rect fill="none" height="10" stroke="black" stroke-width="1" transform="rotate(-0.0696113230542055 20 60)" width="10" x="20" y="60" /><rect fill="none" height="10" stroke="black" stroke-width="1" transform="rotate(-0.00999905896828911 20 70)" width="10" x="20" y="70" /><rect fill="none" height="10" stroke="black" stroke-width="1" transform="rotate(-0.13117216157423073 20 80)" width="10" x="20" y="80" /><rect fill="none" height="10" stroke="black" stroke-width="1" transform="rotate(0.013721584981761402 20 90)" width="10" x="20" y="90" /><rect fill="none" height="10" stroke="black" stroke-width="1" transform="rotate(0.36393327729980307 20 100)" width="10" x="20" y="100" /><rect fill="none" height="10" stroke="black" stroke-width="1" transform="rotate(-0.10872472393041242 20 110)" width="10" x="20" y="110" /><rect fill="none" height="10" stroke="black" stroke-width="1" transform="rotate(-0.6788897633586152 20 120)" width="10" x="20" y="120" /><rect fill="none" height="10" stroke="black" stroke-width="1" transform="rotate(0.34172487786475597 20 130)" width="10" x="20" y="130" /><rect fill="none" height="10" stroke="black" stroke-width="1" transform="rotate(-0.36727699402543107 20 140)" width="10" x="20" y="140" /><rect fill="none" height="10" stroke="black" stroke-width="1" transform="rotate(0.08015713593514255 20 150)" width="10" x="20" y="150" /><rect fill="none" height="10" stroke="black" stroke-width="1" transform="rotate(0.5134402577250051 20 160)" width="10" x="20" y="160" /><rect fill="none" height="10" stroke="black" stroke-width="1" transform="rotate(-1.2388118330061293 20 170)" width="10" x="20" y="170" /><rect fill="none" height="10" stroke="black" stroke-width="1" transform="rotate(1.3586407802532414 20 180)" width="10" x="20" y="180" /><rect fill="none" height="10" stroke="black" stroke-width="1" transform="rotate(-0.5150634868157024 20 190)" width="10" x="20" y="190" /><rect fill="none" height="10" stroke="black" stroke-width="1" transform="rotate(0.8894424875813982 20 200)" width="10" x="20" y="200" /><rect fill="none" height="10" stroke="black" stroke-width="1" transform="rotate(0.0846693289817205 20 210)" width="10" x="20" y="210" /><rect fill="none" height="10" stroke="black" stroke-width="1" transform="rotate(0.271798820353284 20 220)" width="10" x="20" y="220" /><rect fill="none" height="10" stroke="black" stroke-width="1" transform="rotate(-1.297124918034353 20 230)" width="10" x="20" y="230" /><rect fill="none" height="10" stroke="black" stroke-width="1" transform="rotate(-1.3152462608545312 20 240)" width="10" x="20" y="240" /><rect fill="none" height="10" stroke="black" stroke-width="1" transform="rotate(1.3177267579385754 20 250)" width="10" x="20" y="250" /><rect fill="none" height="10" stroke="black" stroke-width="1" transform="rotate(2.121135023496751 20 260)" width="10" x="20" y="260" /><rect fill="none" height="10" stroke="black" stroke-width="1" transform="rotate(2.0719906486691606 20 270)" width="10" x="20" y="270" /><rect fill="none" height="10" stroke="black" stroke-width="1" transform="rotate(2.5759965621367713 20 280)" width="10" x="20" y="280" /><rect fill="none" height="10" stroke="black" stroke-width="1" transform="rotate(-2.163712907701277 20 290)" width="10" x="20" y="290" /><rect fill="none" height="10" stroke="black" stroke-width="1" transform="rotate(0.0 30 0)" width="10" x="30" y="0" /><rect fill="none" height="10" stroke="black" stroke-width="1" transform="rotate(0.003794619998943588 30 10)" width="10" x="30" y="10" /><rect fill="none" height="10" stroke="black" stroke-width="1" transform="rotate(0.011144169741865278 30 20)" width="10" x="30" y="20" /><rect fill="none" height="10" stroke="black" stroke-width="1" transform="rotate(-0.038776357676932924 30 30)" width="10" x="30" y="30" /><rect fill="none" height="10" stroke="black" stroke-width="1" transform="rotate(-0.006767575183463865 30 40)" width="10" x="30" y="40" /><rect fill="none" height="10" stroke="black" stroke-width="1" transform="rotate(0.08428761760330258 30 50)" width="10" x="30" y="50" /><rect fill="none" height="10" stroke="black" stroke-width="1" transform="rotate(0.018602491967096183 30 60)" width="10" x="30" y="60" /><rect fill="none" height="10" stroke="black" stroke-width="1" transform="rotate(-0.09443464872105542 30 70)" width="10" x="30" y="70" /><rect fill="none" height="10" stroke="black" stroke-width="1" transform="rotate(0.14853028501502222 30 80)" width="10" x="30" y="80" /><rect fill="none" height="10" stroke="black" stroke-width="1" transform="rotate(-0.15864545849562384 30 90)" width="10" x="30" y="90" /><rect fill="none" height="10" stroke="black" stroke-width="1" transform="rotate(-0.48721900416607966 30 100)" width="10" x="30" y="100" /><rect fill="none" height="10" stroke="black" stroke-width="1" transform="rotate(-0.29838464245599366 30 110)" width="10" x="30" y="110" /><rect fill="none" height="10" stroke="black" stroke-width="1" transform="rotate(0.7086562910382521 30 120)" width="10" x="30" y="120" /><rect fill="none" height="10" stroke="black" stroke-width="1" transform="rotate(0.30893573830389687 30 130)" width="10" x="30" y="130" /><rect fill="none" height="10" stroke="black" stroke-width="1" transform="rotate(0.14952973946410988 30 140)" width="10" x="30" y="140" /><rect fill="none" height="10" stroke="black" stroke-width="1" transform="rotate(0.26605491706470646 30 150)" width="10" x="30" y="150" /><rect fill="none" height="10" stroke="black" stroke-width="1" transform="rotate(1.1890852549035733 30 160)" width="10" x="30" y="160" /><rect fill="none" height="10" stroke="black" stroke-width="1" transform="rotate(-0.24172424085296998 30 170)" width="10" x="30" y="170" /><rect fill="none" height="10" stroke="black" stroke-width="1" transform="rotate(-0.38938276418218254 30 180)" width="10" x="30" y="180" /><rect fill="none" height="10" stroke="black" stroke-width="1" transform="rotate(-0.8874635045243867 30 190)" width="10" x="30" y="190" /><rect fill="none" height="10" stroke="black" stroke-width="1" transform="rotate(-1.2337669143596697 30 200)" width="10" x="30" y="200" /><rect fill="none" height="10" stroke="black" stroke-width="1" transform="rotate(1.6406899383926652 30 210)" width="10" x="30" y="210" /><rect fill="none" height="10" stroke="black" stroke-width="1" transform="rotate(-0.2514992867309383 30 220)" width="10" x="30" y="220" /><rect fill="none" height="10" stroke="black" stroke-width="1" transform="rotate(-1.1869309506590846 30 230)" width="10" x="30" y="230" /><rect fill="none" height="10" stroke="black" stroke-width="1" transform="rotate(-1.6916490252774847 30 240)" width="10" x="30" y="240" /><rect fill="none" height="10" stroke="black" stroke-width="1" transform="rotate(0.6213745147606177 30 250)" width="10" x="30" y="250" /><rect fill="none" height="10" stroke="black" stroke-width="1" transform="rotate(-0.36439197315602767 30 260)" width="10" x="30" y="260" /><rect fill="none" height="10" stroke="black" stroke-width="1" transform="rotate(3.484735493267988 30 270)" width="10" x="30" y="270" /><rect fill="none" height="10" stroke="black" stroke-width="1" transform="rotate(0.10703278257766867 30 280)" width="10" x="30" y="280" /><rect fill="none" height="10" stroke="black" stroke-width="1" transform="rotate(1.9448783149915712 30 290)" width="10" x="30" y="290" /><rect fill="none" height="10" stroke="black" stroke-width="1" transform="rotate(-0.0 40 0)" width="10" x="40" y="0" /><rect fill="none" height="10" stroke="black" stroke-width="1" transform="rotate(-0.0013970486750609279 40 10)" width="10" x="40" y="10" /><rect fill="none" height="10" stroke="black" stroke-width="1" transform="rotate(0.0027276358483619132 40 20)" width="10" x="40" y="20" /><rect fill="none" height="10" stroke="black" stroke-width="1" transform="rotate(-0.02630324160466735 40 30)" width="10" x="40" y="30" /><rect fill="none" height="10" stroke="black" stroke-width="1" transform="rotate(0.019378144204978066 40 40)" width="10" x="40" y="40" /><rect fill="none" height="10" stroke="black" stroke-width="1" transform="rotate(-0.08720586967534602 40 50)" width="10" x="40" y="50" /><rect fill="none" height="10" stroke="black" stroke-width="1" transform="rotate(-0.16375093804551447 40 60)" width="10" x="40" y="60" /><rect fill="none" height="10" stroke="black" stroke-width="1" transform="rotate(-0.23074525340721028 40 70)" width="10" x="40" y="70" /><rect fill="none" height="10" stroke="black" stroke-width="1" transform="rotate(-0.09596438299222519 40 80)" width="10" x="40" y="80" /><rect fill="none" height="10" stroke="black" stroke-width="1" transform="rotate(-0.266562231945057 40 90)" width="10" x="40" y="90" /><rect fill="none" height="10" stroke="black" stroke-width="1" transform="rotate(-0.490594467366158 40 100)" width="10" x="40" y="100" /><rect fill="none" height="10" stroke="black" stroke-width="1" transform="rotate(0.32882082873474844 40 110)" width="10" x="40" y="110" /><rect fill="none" height="10" stroke="black" stroke-width="1" transform="rotate(-0.6630717559036554 40 120)" width="10" x="40" y="120" /><rect fill="none" height="10" stroke="black" stroke-width="1" transform="rotate(0.047084397600933976 40 130)" width="10" x="40" y="130" /><rect fill="none" height="10" stroke="black" stroke-width="1" transform="rotate(0.4161041390654317 40 140)" width="10" x="40" y="140" /><rect fill="none" height="10" stroke="black" stroke-width="1" transform="rotate(0.5521181923354505 40 150)" width="10" x="40" y="150" /><rect fill="none" height="10" stroke="black" stroke-width="1" transform="rotate(-0.4808191316480543 40 160)" width="10" x="40" y="160" /><rect fill="none" height="10" stroke="black" stroke-width="1" transform="rotate(0.1261384096306095 40 170)" width="10" x="40" y="170" /><rect fill="none" height="10" stroke="black" stroke-width="1" transform="rotate(-0.19207219649469973 40 180)" width="10" x="40" y="180" /><rect fill="none" height="10" stroke="black" stroke-width="1" transform="rotate(-0.5918160679130483 40 190)" width="10" x="40" y="190" /><rect fill="none" height="10" stroke="black" stroke-width="1" transform="rotate(1.263201333672734 40 200)" width="10" x="40" y="200" /><rect fill="none" height="10" stroke="black" stroke-width="1" transform="rotate(1.7545535078386154 40 210)" width="10" x="40" y="210" /><rect fill="none" height="10" stroke="black" stroke-width="1" transform="rotate(-1.959027574099681 40 220)" width="10" x="40" y="220" /><rect fill="none" height="10" stroke="black" stroke-width="1" transform="rotate(-1.0170315645490193 40 230)" width="10" x="40" y="230" /><rect fill="none" height="10" stroke="black" stroke-width="1" transform="rotate(2.7909523471337874 40 240)" width="10" x="40" y="240" /><rect fill="none" height="10" stroke="black" stroke-width="1" transform="rotate(-0.14527793854113916 40 250)" width="10" x="40" y="250" /><rect fill="none" height="10" stroke="black" stroke-width="1" transform="rotate(-1.8467965152074168 40 260)" width="10" x="40" y="260" /><rect fill="none" height="10" stroke="black" stroke-width="1" transform="rotate(-3.55633757083744 40 270)" width="10" x="40" y="270" /><rect fill="none" height="10" stroke="black" stroke-width="1" transform="rotate(3.9151940499533437 40 280)" width="10" x="40" y="280" /><rect fill="none" height="10" stroke="black" stroke-width="1" transform="rotate(-1.8621878918294084 40 290)" width="10" x="40" y="290" /><rect fill="none" height="10" stroke="black" stroke-width="1" transform="rotate(0.0 50 0)" width="10" x="50" y="0" /><rect fill="none" height="10" stroke="black" stroke-width="1" transform="rotate(0.0030311324600244094 50 10)" width="10" x="50" y="10" /><rect fill="none" height="10" stroke="black" stroke-width="1" transform="rotate(0.011341679893737381 50 20)" width="10" x="50" y="20" /><rect fill="none" height="10" stroke="black" stroke-width="1" transform="rotate(-0.006574691573104975 50 30)" width="10" x="50" y="30" /><rect fill="none" height="10" stroke="black" stroke-width="1" transform="rotate(-0.02846377531694676 50 40)" width="10" x="50" y="40" /><rect fill="none" height="10" stroke="black" stroke-width="1" transform="rotate(0.10858521942804213 50 50)" width="10" x="50" y="50" /><rect fill="none" height="10" stroke="black" stroke-width="1" transform="rotate(0.16149694337852208 50 60)" width="10" x="50" y="60" /><rect fill="none" height="10" stroke="black" stroke-width="1" transform="rotate(-0.1510339092205932 50 70)" width="10" x="50" y="70" /><rect fill="none" height="10" stroke="black" stroke-width="1" transform="rotate(0.23255987808635695 50 80)" width="10" x="50" y="80" /><rect fill="none" height="10" stroke="black" stroke-width="1" transform="rotate(0.1263320481127559 50 90)" width="10" x="50" y="90" /><rect fill="none" height="10" stroke="black" stroke-width="1" transform="rotate(0.4840024695005235 50 100)" width="10" x="50" y="100" /><rect fill="none" height="10" stroke="black" stroke-width="1" transform="rotate(-0.4034269169189397 50 110)" width="10" x="50" y="110" /><rect fill="none" height="10" stroke="black" stroke-width="1" transform="rotate(-0.6361373240655839 50 120)" width="10" x="50" y="120" /><rect fill="none" height="10" stroke="black" stroke-width="1" transform="rotate(-0.4151068471585419 50 130)" width="10" x="50" y="130" /><rect fill="none" height="10" stroke="black" stroke-width="1" transform="rotate(-0.7663324353839895 50 140)" width="10" x="50" y="140" /><rect fill="none" height="10" stroke="black" stroke-width="1" transform="rotate(0.30526956099810937 50 150)" width="10" x="50" y="150" /><rect fill="none" height="10" stroke="black" stroke-width="1" transform="rotate(-0.4774153763051874 50 160)" width="10" x="50" y="160" /><rect fill="none" height="10" stroke="black" stroke-width="1" transform="rotate(0.42509628691952694 50 170)" width="10" x="50" y="170" /><rect fill="none" height="10" stroke="black" stroke-width="1" transform="rotate(-0.941010491800663 50 180)" width="10" x="50" y="180" /><rect fill="none" height="10" stroke="black" stroke-width="1" transform="rotate(-1.2795664577151626 50 190)" width="10" x="50" y="190" /><rect fill="none" height="10" stroke="black" stroke-width="1" transform="rotate(-1.400539416282709 50 200)" width="10" x="50" y="200" /><rect fill="none" height="10" stroke="black" stroke-width="1" transform="rotate(-1.2644408380024748 50 210)" width="10" x="50" y="210" /><rect fill="none" height="10" stroke="black" stroke-width="1" transform="rotate(0.6834841854949414 50 220)" width="10" x="50" y="220" /><rect fill="none" height="10" stroke="black" stroke-width="1" transform="rotate(-1.938600474438089 50 230)" width="10" x="50" y="230" /><rect fill="none" height="10" stroke="black" stroke-width="1" transform="rotate(0.05117836145344768 50 240)" width="10" x="50" y="240" /><rect fill="none" height="10" stroke="black" stroke-width="1" transform="rotate(-1.9421727618208902 50 250)" width="10" x="50" y="250" /><rect fill="none" height="10" stroke="black" stroke-width="1" transform="rotate(-3.1393727448089073 50 260)" width="10" x="50" y="260" /><rect fill="none" height="10" stroke="black" stroke-width="1" transform="rotate(2.6163623103079257 50 270)" width="10" x="50" y="270" /><rect fill="none" height="10" stroke="black" stroke-width="1" transform="rotate(-2.135421140623544 50 280)" width="10" x="50" y="280" /><rect fill="none" height="10" stroke="black" stroke-width="1" transform="rotate(1.636145017804196 50 290)" width="10" x="50" y="290" /><rect fill="none" height="10" stroke="black" stroke-width="1" transform="rotate(0.0 60 0)" width="10" x="60" y="0" /><rect fill="none" height="10" stroke="black" stroke-width="1" transform="rotate(-0.002347930439706306 60 10)" width="10" x="60" y="10" /><rect fill="none" height="10" stroke="black" stroke-width="1" transform="rotate(-0.010833458334484626 60 20)" width="10" x="60" y="20" /><rect fill="none" height="10" stroke="black" stroke-width="1" transform="rotate(-0.0028081012761107184 60 30)" width="10" x="60" y="30" /><rect fill="none" height="10" stroke="black" stroke-width="1" transform="rotate(0.01974030092074452 60 40)" width="10" x="60" y="40" /><rect fill="none" height="10" stroke="black" stroke-width="1" transform="rotate(-0.026178953669037722 60 50)" width="10" x="60" y="50" /><rect fill="none" height="10" stroke="black" stroke-width="1" transform="rotate(0.05552447713222769 60 60)" width="10" x="60" y="60" /><rect fill="none" height="10" stroke="black" stroke-width="1" transform="rotate(-0.11590651156569474 60 70)" width="10" x="60" y="70" /><rect fill="none" height="10" stroke="black" stroke-width="1" transform="rotate(0.08761973053316559 60 80)" width="10" x="60" y="80" /><rect fill="none" height="10" stroke="black" stroke-width="1" transform="rotate(-0.23540600364920092 60 90)" width="10" x="60" y="90" /><rect fill="none" height="10" stroke="black" stroke-width="1" transform="rotate(-0.42707148877107143 60 100)" width="10" x="60" y="100" /><rect fill="none" height="10" stroke="black" stroke-width="1" transform="rotate(-0.14719483643196127 60 110)" width="10" x="60" y="110" /><rect fill="none" height="10" stroke="black" stroke-width="1" transform="rotate(-0.423286661806527 60 120)" width="10" x="60" y="120" /><rect fill="none" height="10" stroke="black" stroke-width="1" transform="rotate(0.05102560362587902 60 130)" width="10" x="60" y="130" /><rect fill="none" height="10" stroke="black" stroke-width="1" transform="rotate(-0.1557633756944841 60 140)" width="10" x="60" y="140" /><rect fill="none" height="10" stroke="black" stroke-width="1" transform="rotate(-0.9083382329129318 60 150)" width="10" x="60" y="150" /><rect fill="none" height="10" stroke="black" stroke-width="1" transform="rotate(0.8740597261388442 60 160)" width="10" x="60" y="160" /><rect fill="none" height="10" stroke="black" stroke-width="1" transform="rotate(0.8656223200108235 60 170)" width="10" x="60" y="170" /><rect fill="none" height="10" stroke="black" stroke-width="1" transform="rotate(1.5393287032583247 60 180)" width="10" x="60" y="180" /><rect fill="none" height="10" stroke="black" stroke-width="1" transform="rotate(1.2691103743650425 60 190)" width="10" x="60" y="190" /><rect fill="none" height="10" stroke="black" stroke-width="1" transform="rotate(1.2531220798213099 60 200)" width="10" x="60" y="200" /><rect fill="none" height="10" stroke="black" stroke-width="1" transform="rotate(0.06753642687549062 60 210)" width="10" x="60" y="210" /><rect fill="none" height="10" stroke="black" stroke-width="1" transform="rotate(1.8567732152441232 60 220)" width="10" x="60" y="220" /><rect fill="none" height="10" stroke="black" stroke-width="1" transform="rotate(1.484472347514813 60 230)" width="10" x="60" y="230" /><rect fill="none" height="10" stroke="black" stroke-width="1" transform="rotate(0.4521467397305557 60 240)" width="10" x="60" y="240" /><rect fill="none" height="10" stroke="black" stroke-width="1" transform="rotate(1.7742640910515584 60 250)" width="10" x="60" y="250" /><rect fill="none" height="10" stroke="black" stroke-width="1" transform="rotate(-1.0707865148964828 60 260)" width="10" x="60" y="260" /><rect fill="none" height="10" stroke="black" stroke-width="1" transform="rotate(-1.2035981862547727 60 270)" width="10" x="60" y="270" /><rect fill="none" height="10" stroke="black" stroke-width="1" transform="rotate(-0.11172833081220995 60 280)" width="10" x="60" y="280" /><rect fill="none" height="10" stroke="black" stroke-width="1" transform="rotate(-2.9636530691194323 60 290)" width="10" x="60" y="290" /><rect fill="none" height="10" stroke="black" stroke-width="1" transform="rotate(0.0 70 0)" width="10" x="70" y="0" /><rect fill="none" height="10" stroke="black" stroke-width="1" transform="rotate(-0.002589777316150944 70 10)" width="10" x="70" y="10" /><rect fill="none" height="10" stroke="black" stroke-width="1" transform="rotate(0.011798443378333192 70 20)" width="10" x="70" y="20" /><rect fill="none" height="10" stroke="black" stroke-width="1" transform="rotate(-0.01924502670726681 70 30)" width="10" x="70" y="30" /><rect fill="none" height="10" stroke="black" stroke-width="1" transform="rotate(0.0014403048863347223 70 40)" width="10" x="70" y="40" /><rect fill="none" height="10" stroke="black" stroke-width="1" transform="rotate(0.04047323716278142 70 50)" width="10" x="70" y="50" /><rect fill="none" height="10" stroke="black" stroke-width="1" transform="rotate(0.16097628587221788 70 60)" width="10" x="70" y="60" /><rect fill="none" height="10" stroke="black" stroke-width="1" transform="rotate(0.12365326766930686 70 70)" width="10" x="70" y="70" /><rect fill="none" height="10" stroke="black" stroke-width="1" transform="rotate(0.15248423684818546 70 80)" width="10" x="70" y="80" /><rect fill="none" height="10" stroke="black" stroke-width="1" transform="rotate(-0.10329515495531093 70 90)" width="10" x="70" y="90" /><rect fill="none" height="10" stroke="black" stroke-width="1" transform="rotate(-0.34373959696326745 70 100)" width="10" x="70" y="100" /><rect fill="none" height="10" stroke="black" stroke-width="1" transform="rotate(-0.45171340204965277 70 110)" width="10" x="70" y="110" /><rect fill="none" height="10" stroke="black" stroke-width="1" transform="rotate(0.27540617833100767 70 120)" width="10" x="70" y="120" /><rect fill="none" height="10" stroke="black" stroke-width="1" transform="rotate(-0.2528603187474726 70 130)" width="10" x="70" y="130" /><rect fill="none" height="10" stroke="black" stroke-width="1" transform="rotate(-0.7041768012772807 70 140)" width="10" x="70" y="140" /><rect fill="none" height="10" stroke="black" stroke-width="1" transform="rotate(0.7934449970856166 70 150)" width="10" x="70" y="150" /><rect fill="none" height="10" stroke="black" stroke-width="1" transform="rotate(-0.8081885925429557 70 160)" width="10" x="70" y="160" /><rect fill="none" height="10" stroke="black" stroke-width="1" transform="rotate(-1.1632595469003781 70 170)" width="10" x="70" y="170" /><rect fill="none" height="10" stroke="black" stroke-width="1" transform="rotate(-0.9862522148349772 70 180)" width="10" x="70" y="180" /><rect fill="none" height="10" stroke="black" stroke-width="1" transform="rotate(1.0722832524980548 70 190)" width="10" x="70" y="190" /><rect fill="none" height="10" stroke="black" stroke-width="1" transform="rotate(-0.6476726531697152 70 200)" width="10" x="70" y="200" /><rect fill="none" height="10" stroke="black" stroke-width="1" transform="rotate(0.7900056932747581 70 210)" width="10" x="70" y="210" /><rect fill="none" height="10" stroke="black" stroke-width="1" transform="rotate(0.9328931610842076 70 220)" width="10" x="70" y="220" /><rect fill="none" height="10" stroke="black" stroke-width="1" transform="rotate(-0.2002820577000715 70 230)" width="10" x="70" y="230" /><rect fill="none" height="10" stroke="black" stroke-width="1" transform="rotate(1.1387090652747285 70 240)" width="10" x="70" y="240" /><rect fill="none" height="10" stroke="black" stroke-width="1" transform="rotate(-1.9956822405824832 70 250)" width="10" x="70" y="250" /><rect fill="none" height="10" stroke="black" stroke-width="1" transform="rotate(-1.9193485312509773 70 260)" width="10" x="70" y="260" /><rect fill="none" height="10" stroke="black" stroke-width="1" transform="rotate(-1.4796905460970728 70 270)" width="10" x="70" y="270" /><rect fill="none" height="10" stroke="black" stroke-width="1" transform="rotate(-3.150879363210409 70 280)" width="10" x="70" y="280" /><rect fill="none" height="10" stroke="black" stroke-width="1" transform="rotate(-0.17333427493754514 70 290)" width="10" x="70" y="290" /><rect fill="none" height="10" stroke="black" stroke-width="1" transform="rotate(-0.0 80 0)" width="10" x="80" y="0" /><rect fill="none" height="10" stroke="black" stroke-width="1" transform="rotate(-0.00014844790089818316 80 10)" width="10" x="80" y="10" /><rect fill="none" height="10" stroke="black" stroke-width="1" transform="rotate(-0.0007968047057145356 80 20)" width="10" x="80" y="20" /><rect fill="none" height="10" stroke="black" stroke-width="1" transform="rotate(-0.020118003024041542 80 30)" width="10" x="80" y="30" /><rect fill="none" height="10" stroke="black" stroke-width="1" transform="rotate(0.07429522359916328 80 40)" width="10" x="80" y="40" /><rect fill="none" height="10" stroke="black" stroke-width="1" transform="rotate(0.11179191276435674 80 50)" width="10" x="80" y="50" /><rect fill="none" height="10" stroke="black" stroke-width="1" transform="rotate(0.06449107330805377 80 60)" width="10" x="80" y="60" /><rect fill="none" height="10" stroke="black" stroke-width="1" transform="rotate(-0.009565772993155624 80 70)" width="10" x="80" y="70" /><rect fill="none" height="10" stroke="black" stroke-width="1" transform="rotate(0.14367143304279523 80 80)" width="10" x="80" y="80" /><rect fill="none" height="10" stroke="black" stroke-width="1" transform="rotate(0.05329579169295359 80 90)" width="10" x="80" y="90" /><rect fill="none" height="10" stroke="black" stroke-width="1" transform="rotate(0.3153066863651429 80 100)" width="10" x="80" y="100" /><rect fill="none" height="10" stroke="black" stroke-width="1" transform="rotate(-0.4336419190486612 80 110)" width="10" x="80" y="110" /><rect fill="none" height="10" stroke="black" stroke-width="1" transform="rotate(-0.33408245052583874 80 120)" width="10" x="80" y="120" /><rect fill="none" height="10" stroke="black" stroke-width="1" transform="rotate(-0.42555880951026337 80 130)" width="10" x="80" y="130" /><rect fill="none" height="10" stroke="black" stroke-width="1" transform="rotate(0.2029580064727511 80 140)" width="10" x="80" y="140" /><rect fill="none" height="10" stroke="black" stroke-width="1" transform="rotate(-0.49651602781150983 80 150)" width="10" x="80" y="150" /><rect fill="none" height="10" stroke="black" stroke-width="1" transform="rotate(0.1546681765199915 80 160)" width="10" x="80" y="160" /><rect fill="none" height="10" stroke="black" stroke-width="1" transform="rotate(0.4595644788077349 80 170)" width="10" x="80" y="170" /><rect fill="none" height="10" stroke="black" stroke-width="1" transform="rotate(-0.19170138051606433 80 180)" width="10" x="80" y="180" /><rect fill="none" height="10" stroke="black" stroke-width="1" transform="rotate(1.5781510469542144 80 190)" width="10" x="80" y="190" /><rect fill="none" height="10" stroke="black" stroke-width="1" transform="rotate(-1.6981282900122099 80 200)" width="10" x="80" y="200" /><rect fill="none" height="10" stroke="black" stroke-width="1" transform="rotate(1.1532159909684145 80 210)" width="10" x="80" y="210" /><rect fill="none" height="10" stroke="black" stroke-width="1" transform="rotate(0.5614878429126672 80 220)" width="10" x="80" y="220" /><rect fill="none" height="10" stroke="black" stroke-width="1" transform="rotate(-2.277675787342931 80 230)" width="10" x="80" y="230" /><rect fill="none" height="10" stroke="black" stroke-width="1" transform="rotate(-1.9430047437903637 80 240)" width="10" x="80" y="240" /><rect fill="none" height="10" stroke="black" stroke-width="1" transform="rotate(0.39366236058316284 80 250)" width="10" x="80" y="250" /><rect fill="none" height="10" stroke="black" stroke-width="1" transform="rotate(1.4429794659924 80 260)" width="10" x="80" y="260" /><rect fill="none" height="10" stroke="black" stroke-width="1" transform="rotate(0.8223193709267929 80 270)" width="10" x="80" y="270" /><rect fill="none" height="10" stroke="black" stroke-width="1" transform="rotate(1.2106734526675669 80 280)" width="10" x="80" y="280" /><rect fill="none" height="10" stroke="black" stroke-width="1" transform="rotate(-0.0035859633007027437 80 290)" width="10" x="80" y="290" /><rect fill="none" height="10" stroke="black" stroke-width="1" transform="rotate(-0.0 90 0)" width="10" x="90" y="0" /><rect fill="none" height="10" stroke="black" stroke-width="1" transform="rotate(-0.0028882143872417444 90 10)" width="10" x="90" y="10" /><rect fill="none" height="10" stroke="black" stroke-width="1" transform="rotate(0.010379448121543322 90 20)" width="10" x="90" y="20" /><rect fill="none" height="10" stroke="black" stroke-width="1" transform="rotate(0.01853073107634645 90 30)" width="10" x="90" y="30" /><rect fill="none" height="10" stroke="black" stroke-width="1" transform="rotate(0.06178679888439355 90 40)" width="10" x="90" y="40" /><rect fill="none" height="10" stroke="black" stroke-width="1" transform="rotate(-0.04561838439869015 90 50)" width="10" x="90" y="50" /><rect fill="none" height="10" stroke="black" stroke-width="1" transform="rotate(-0.17610280664769057 90 60)" width="10" x="90" y="60" /><rect fill="none" height="10" stroke="black" stroke-width="1" transform="rotate(-0.20113617520347699 90 70)" width="10" x="90" y="70" /><rect fill="none" height="10" stroke="black" stroke-width="1" transform="rotate(0.1372448272627203 90 80)" width="10" x="90" y="80" /><rect fill="none" height="10" stroke="black" stroke-width="1" transform="rotate(0.338860466285226 90 90)" width="10" x="90" y="90" /><rect fill="none" height="10" stroke="black" stroke-width="1" transform="rotate(-0.40061148530858814 90 100)" width="10" x="90" y="100" /><rect fill="none" height="10" stroke="black" stroke-width="1" transform="rotate(0.00022126828332116988 90 110)" width="10" x="90" y="110" /><rect fill="none" height="10" stroke="black" stroke-width="1" transform="rotate(0.261197275853884 90 120)" width="10" x="90" y="120" /><rect fill="none" height="10" stroke="black" stroke-width="1" transform="rotate(-0.673155477655836 90 130)" width="10" x="90" y="130" /><rect fill="none" height="10" stroke="black" stroke-width="1" transform="rotate(0.38086083502952756 90 140)" width="10" x="90" y="140" /><rect fill="none" height="10" stroke="black" stroke-width="1" transform="rotate(0.15132777446581175 90 150)" width="10" x="90" y="150" /><rect fill="none" height="10" stroke="black" stroke-width="1" transform="rotate(-0.6697192852550324 90 160)" width="10" x="90" y="160" /><rect fill="none" height="10" stroke="black" stroke-width="1" transform="rotate(0.9828040154607309 90 170)" width="10" x="90" y="170" /><rect fill="none" height="10" stroke="black" stroke-width="1" transform="rotate(-1.0881335107062027 90 180)" width="10" x="90" y="180" /><rect fill="none" height="10" stroke="black" stroke-width="1" transform="rotate(1.4694850314985877 90 190)" width="10" x="90" y="190" /><rect fill="none" height="10" stroke="black" stroke-width="1" transform="rotate(-1.1137755912256337 90 200)" width="10" x="90" y="200" /><rect fill="none" height="10" stroke="black" stroke-width="1" transform="rotate(-1.4800993866396863 90 210)" width="10" x="90" y="210" /><rect fill="none" height="10" stroke="black" stroke-width="1" transform="rotate(-0.4131977997243145 90 220)" width="10" x="90" y="220" /><rect fill="none" height="10" stroke="black" stroke-width="1" transform="rotate(2.607873069731401 90 230)" width="10" x="90" y="230" /><rect fill="none" height="10" stroke="black" stroke-width="1" transform="rotate(0.14947679922342524 90 240)" width="10" x="90" y="240" /><rect fill="none" height="10" stroke="black" stroke-width="1" transform="rotate(-0.9904628530539348 90 250)" width="10" x="90" y="250" /><rect fill="none" height="10" stroke="black" stroke-width="1" transform="rotate(-1.243053927158731 90 260)" width="10" x="90" y="260" /><rect fill="none" height="10" stroke="black" stroke-width="1" transform="rotate(1.1481418280670934 90 270)" width="10" x="90" y="270" /><rect fill="none" height="10" stroke="black" stroke-width="1" transform="rotate(-2.0008507029069245 90 280)" width="10" x="90" y="280" /><rect fill="none" height="10" stroke="black" stroke-width="1" transform="rotate(1.019774846086748 90 290)" width="10" x="90" y="290" /></svg>