<?xml version="1.0" encoding="utf-8" ?>
<svg baseProfile="tiny" height="500" version="1.2" width="500" xmlns="http://www.w3.org/2000/svg" xmlns:ev="http://www.w3.org/2001/xml-events" xmlns:xlink="http://www.w3.org/1999/xlink"><defs /><rect fill="none" height="50" stroke="black" stroke-width="1" width="50" x="0" y="0.0" /><rect fill="none" height="50" stroke="black" stroke-width="1" width="50" x="10" y="4.9917" /><rect fill="none" height="50" stroke="black" stroke-width="1" width="50" x="20" y="9.9335" /><rect fill="none" height="50" stroke="black" stroke-width="1" width="50" x="30" y="14.776" /><rect fill="none" height="50" stroke="black" stroke-width="1" width="50" x="40" y="19.4709" /><rect fill="none" height="50" stroke="black" stroke-width="1" width="50" x="50" y="23.9713" /><rect fill="none" height="50" stroke="black" stroke-width="1" width="50" x="60" y="28.2321" /><rect fill="none" height="50" stroke="black" stroke-width="1" width="50" x="70" y="32.2109" /><rect fill="none" height="50" stroke="black" stroke-width="1" width="50" x="80" y="35.8678" /><rect fill="none" height="50" stroke="black" stroke-width="1" width="50" x="90" y="39.1663" /><rect fill="none" height="50" stroke="black" stroke-width="1" width="50" x="100" y="42.0735" /><rect fill="none" height="50" stroke="black" stroke-width="1" width="50" x="110" y="44.5604" /><rect fill="none" height="50" stroke="black" stroke-width="1" width="50" x="120" y="46.602" /><rect fill="none" height="50" stroke="black" stroke-width="1" width="50" x="130" y="48.1779" /><rect fill="none" height="50" stroke="black" stroke-width="1" width="50" x="140" y="49.2725" /><rect fill="none" height="50" stroke="black" stroke-width="1" width="50" x="150" y="49.8747" /><rect fill="none" height="50" stroke="black" stroke-width="1" width="50" x="160" y="49.9787" /><rect fill="none" height="50" stroke="black" stroke-width="1" width="50" x="170" y="49.5832" /><rect fill="none" height="50" stroke="black" stroke-width="1" width="50" x="180" y="48.6924" /><rect fill="none" height="50" stroke="black" stroke-width="1" width="50" x="190" y="47.315" /><rect fill="none" height="50" stroke="black" stroke-width="1" width="50" x="200" y="45.4649" /><rect fill="none" height="50" stroke="black" stroke-width="1" width="50" x="210" y="43.1605" /><rect fill="none" height="50" stroke="black" stroke-width="1" width="50" x="220" y="40.4248" /><rect fill="none" height="50" stroke="black" stroke-width="1" width="50" x="230" y="37.2853" /><rect fill="none" height="50" stroke="black" stroke-width="1" width="50" x="240" y="33.7732" /><rect fill="none" height="50" stroke="black" stroke-width="1" width="50" x="250" y="29.9236" /><rect fill="none" height="50" stroke="black" stroke-width="1" width="50" x="260" y="25.7751" /><rect fill="none" height="50" stroke="black" stroke-width="1" width="50" x="270" y="21.369" /><rect fill="none" height="50" stroke="black" stroke-width="1" width="50" x="280" y="16.7494" /><rect fill="none" height="50" stroke="black" stroke-width="1" width="50" x="290" y="11.9625" /><rect fill="none" height="50" stroke="black" stroke-width="1" width="50" x="300" y="7.056" /><rect fill="none" height="50" stroke="black" stroke-width="1" width="50" x="310" y="2.079" /><rect fill="none" height="50" stroke="black" stroke-width="1" width="50" x="320" y="-2.9187" /><rect fill="none" height="50" stroke="black" stroke-width="1" width="50" x="330" y="-7.8873" /><rect fill="none" height="50" stroke="black" stroke-width="1" width="50" x="340" y="-12.7771" /><rect fill="none" height="50" stroke="black" stroke-width="1" width="50" x="350" y="-17.5392" /><rect fill="none" height="50" stroke="black" stroke-width="1" width="50" x="360" y="-22.126" /><rect fill="none" height="50" stroke="black" stroke-width="1" width="50" x="370" y="-26.4918" /><rect fill="none" height="50" stroke="black" stroke-width="1" width="50" x="380" y="-30.5929" /><rect fill="none" height="50" stroke="black" stroke-width="1" width="50" x="390" y="-34.3883" /><rect fill="none" height="50" stroke="black" stroke-width="1" width="50" x="400" y="-37.8401" /><rect fill="none" height="50" stroke="black" stroke-width="1" width="50" x="410" y="-40.9139" /><rect fill="none" height="50" stroke="black" stroke-width="1" width="50" x="420" y="-43.5788" /><rect fill="none" height="50" stroke="black" stroke-width="1" width="50" x="430" y="-45.8083" /><rect fill="none" height="50" stroke="black" stroke-width="1" width="50" x="440" y="-47.5801" /><rect fill="none" height="50" stroke="black" stroke-width="1" width="50" x="450" y="-48.8765" /><rect fill="none" height="50" stroke="black" stroke-width="1" width="50" x="460" y="-49.6846" /><rect fill="none" height="50" stroke="black" stroke-width="1" width="50" x="470" y="-49.9962" /><rect fill="none" height="50" stroke="black" stroke-width="1" width="50" x="480" y="-49.8082" /><rect fill="none" height="50" stroke="black" stroke-width="1" width="50" x="490" y="-49.1226" /><rect fill="none" height="50" stroke="black" stroke-width="1" width="50" x="500" y="-47.9462" /><rect fill="none" height="50" stroke="black" stroke-width="1" width="50" x="510" y="-46.2907" /><rect fill="none" height="50" stroke="black" stroke-width="1" width="50" x="520" y="-44.1727" /><rect fill="none" height="50" stroke="black" stroke-width="1" width="50" x="530" y="-41.6134" /><rect fill="none" height="50" stroke="black" stroke-width="1" width="50" x="540" y="-38.6382" /><rect fill="none" height="50" stroke="black" stroke-width="1" width="50" x="550" y="-35.277" /><rect fill="none" height="50" stroke="black" stroke-width="1" width="50" x="560" y="-31.5633" /><rect fill="none" height="50" stroke="black" stroke-width="1" width="50" x="570" y="-27.5343" /><rect fill="none" height="50" stroke="black" stroke-width="1" width="50" x="580" y="-23.2301" /><rect fill="none" height="50" stroke="black" stroke-width="1" width="50" x="590" y="-18.6938" /><rect fill="none" height="50" stroke="black" stroke-width="1" width="50" x="600" y="-13.9708" /><rect fill="none" height="50" stroke="black" stroke-width="1" width="50" x="610" y="-9.1081" /><rect fill="none" height="50" stroke="black" stroke-width="1" width="50" x="620" y="-4.1545" /><rect fill="none" height="50" stroke="black" stroke-width="1" width="50" x="630" y="0.8407" /><rect fill="none" height="50" stroke="black" stroke-width="1" width="50" x="640" y="5.8275" /></svg>