<?xml version="1.0" encoding="utf-8" ?>
<svg baseProfile="tiny" height="500" version="1.2" width="500" xmlns="http://www.w3.org/2000/svg" xmlns:ev="http://www.w3.org/2001/xml-events" xmlns:xlink="http://www.w3.org/1999/xlink"><defs /><rect fill="none" height="10.0" stroke="black" stroke-width="0.5" transform="rotate(0.0 0 0)" width="10.0" x="0.0" y="0.0" /><rect fill="none" height="10.0" stroke="black" stroke-width="0.5" transform="rotate(0.008568271249433601 0 10)" width="10.0" x="0.0" y="10.0" /><rect fill="none" height="10.0" stroke="black" stroke-width="0.5" transform="rotate(0.15362873487038042 0 20)" width="10.0" x="0.0" y="20.0" /><rect fill="none" height="10.0" stroke="black" stroke-width="0.5" transform="rotate(-0.05359184060392973 0 30)" width="10.0" x="0.0" y="30.0" /><rect fill="none" height="10.0" stroke="black" stroke-width="0.5" transform="rotate(-0.10662708292717352 0 40)" width="10.0" x="0.0" y="40.0" /><rect fill="none" height="10.0" stroke="black" stroke-width="0.5" transform="rotate(1.0305107748235984 0 50)" width="10.0" x="0.0" y="50.0" /><rect fill="none" height="10.0" stroke="black" stroke-width="0.5" transform="rotate(-0.13920577380253912 0 60)" width="10.0" x="0.0" y="60.0" /><rect fill="none" height="10.0" stroke="black" stroke-width="0.5" transform="rotate(2.3217650613959266 0 70)" width="10.0" x="0.0" y="70.0" /><rect fill="none" height="10.0" stroke="black" stroke-width="0.5" transform="rotate(1.5072230390172472 0 80)" width="10.0" x="0.0" y="80.0" /><rect fill="none" height="10.0" stroke="black" stroke-width="0.5" transform="rotate(2.871026890894322 0 90)" width="10.0" x="0.0" y="90.0" /><rect fill="none" height="10.0" stroke="black" stroke-width="0.5" transform="rotate(-1.1779888363149138 0 100)" width="10.0" x="0.0" y="100.0" /><rect fill="none" height="10.0" stroke="black" stroke-width="0.5" transform="rotate(3.15645260712541 0 110)" width="10.0" x="0.0" y="110.0" /><rect fill="none" height="10.0" stroke="black" stroke-width="0.5" transform="rotate(-1.5217297843099233 0 120)" width="10.0" x="0.0" y="120.0" /><rect fill="none" height="10.0" stroke="black" stroke-width="0.5" transform="rotate(6.707442102782911 0 130)" width="10.0" x="0.0" y="130.0" /><rect fill="none" height="10.0" stroke="black" stroke-width="0.5" transform="rotate(-8.304984384712458 0 140)" width="10.0" x="0.0" y="140.0" /><rect fill="none" height="10.0" stroke="black" stroke-width="0.5" transform="rotate(9.928105962624779 0 150)" width="10.0" x="0.0" y="150.0" /><rect fill="none" height="10.0" stroke="black" stroke-width="0.5" transform="rotate(10.910942055914736 0 160)" width="10.0" x="0.0" y="160.0" /><rect fill="none" height="10.0" stroke="black" stroke-width="0.5" transform="rotate(2.2641726197220695 0 170)" width="10.0" x="0.0" y="170.0" /><rect fill="none" height="10.0" stroke="black" stroke-width="0.5" transform="rotate(-10.87731632073707 0 180)" width="10.0" x="0.0" y="180.0" /><rect fill="none" height="10.0" stroke="black" stroke-width="0.5" transform="rotate(-10.546236749561968 0 190)" width="10.0" x="0.0" y="190.0" /><rect fill="none" height="10.0" stroke="black" stroke-width="0.5" transform="rotate(-0.0 10 0)" width="10.0" x="10.0" y="0.0" /><rect fill="none" height="9.9436" stroke="black" stroke-width="0.5" transform="rotate(0.012213976468915333 10 10)" width="10.0235" x="10.0096" y="10.0096" /><rect fill="none" height="10.0713" stroke="black" stroke-width="0.5" transform="rotate(-0.019485983287721796 10 20)" width="10.0296" x="10.0196" y="20.0196" /><rect fill="none" height="9.8475" stroke="black" stroke-width="0.5" transform="rotate(-0.021613328676958855 10 30)" width="9.9583" x="9.9544" y="29.9544" /><rect fill="none" height="9.8778" stroke="black" stroke-width="0.5" transform="rotate(0.513810197627885 10 40)" width="9.8283" x="10.0426" y="40.0426" /><rect fill="none" height="9.9231" stroke="black" stroke-width="0.5" transform="rotate(0.4247556656697443 10 50)" width="9.7449" x="9.9219" y="49.9219" /><rect fill="none" height="10.1071" stroke="black" stroke-width="0.5" transform="rotate(1.51992968928803 10 60)" width="10.0155" x="9.9066" y="59.9066" /><rect fill="none" height="10.3772" stroke="black" stroke-width="0.5" transform="rotate(-0.24416098290544594 10 70)" width="9.7293" x="10.0334" y="70.0334" /><rect fill="none" height="10.3262" stroke="black" stroke-width="0.5" transform="rotate(-3.0241522599446666 10 80)" width="10.3045" x="9.9065" y="79.9065" /><rect fill="none" height="9.4677" stroke="black" stroke-width="0.5" transform="rotate(0.3891218144488711 10 90)" width="9.7365" x="10.0685" y="90.0685" /><rect fill="none" height="10.2117" stroke="black" stroke-width="0.5" transform="rotate(0.5823528668505762 10 100)" width="9.762" x="10.1472" y="100.1472" /><rect fill="none" height="9.4175" stroke="black" stroke-width="0.5" transform="rotate(2.2875616365068536 10 110)" width="9.323" x="9.8508" y="109.8508" /><rect fill="none" height="9.4955" stroke="black" stroke-width="0.5" transform="rotate(-3.9932564780799664 10 120)" width="9.264" x="9.9649" y="119.9649" /><rect fill="none" height="9.2887" stroke="black" stroke-width="0.5" transform="rotate(-6.788742211702361 10 130)" width="10.6641" x="10.2386" y="130.2386" /><rect fill="none" height="9.7421" stroke="black" stroke-width="0.5" transform="rotate(-6.754953112468392 10 140)" width="9.9271" x="9.9335" y="139.9335" /><rect fill="none" height="9.9911" stroke="black" stroke-width="0.5" transform="rotate(3.898721619142563 10 150)" width="9.7395" x="10.175" y="150.175" /><rect fill="none" height="10.3379" stroke="black" stroke-width="0.5" transform="rotate(-6.003806073873721 10 160)" width="9.1264" x="10.201" y="160.201" /><rect fill="none" height="10.3432" stroke="black" stroke-width="0.5" transform="rotate(3.7829550604938333 10 170)" width="9.3429" x="9.5822" y="169.5822" /><rect fill="none" height="10.6976" stroke="black" stroke-width="0.5" transform="rotate(-14.319776090411892 10 180)" width="10.9035" x="10.1229" y="180.1229" /><rect fill="none" height="9.4271" stroke="black" stroke-width="0.5" transform="rotate(16.431822110532476 10 190)" width="9.7343" x="9.8513" y="189.8513" /><rect fill="none" height="10.0" stroke="black" stroke-width="0.5" transform="rotate(-0.0 20 0)" width="10.0" x="20.0" y="0.0" /><rect fill="none" height="9.9785" stroke="black" stroke-width="0.5" transform="rotate(-0.03889292330177243 20 10)" width="9.9151" x="19.9691" y="9.9691" /><rect fill="none" height="10.154" stroke="black" stroke-width="0.5" transform="rotate(0.17045206818839534 20 20)" width="10.1684" x="19.9782" y="19.9782" /><rect fill="none" height="9.7612" stroke="black" stroke-width="0.5" transform="rotate(0.11205385038578626 20 30)" width="10.0407" x="19.9472" y="29.9472" /><rect fill="none" height="10.4804" stroke="black" stroke-width="0.5" transform="rotate(-0.4815860560949673 20 40)" width="10.1018" x="20.1471" y="40.1471" /><rect fill="none" height="10.0569" stroke="black" stroke-width="0.5" transform="rotate(-0.8375296850142039 20 50)" width="10.5073" x="19.9097" y="49.9097" /><rect fill="none" height="10.0397" stroke="black" stroke-width="0.5" transform="rotate(-1.3727369892710632 20 60)" width="10.4114" x="20.1263" y="60.1263" /><rect fill="none" height="9.3687" stroke="black" stroke-width="0.5" transform="rotate(-1.2237301448072988 20 70)" width="10.503" x="20.2846" y="70.2846" /><rect fill="none" height="9.4343" stroke="black" stroke-width="0.5" transform="rotate(-2.5946307981491636 20 80)" width="9.7077" x="19.9177" y="79.9177" /><rect fill="none" height="9.0077" stroke="black" stroke-width="0.5" transform="rotate(2.9075757294221654 20 90)" width="10.7383" x="19.7765" y="89.7765" /><rect fill="none" height="10.8339" stroke="black" stroke-width="0.5" transform="rotate(-0.9846073189663651 20 100)" width="9.6975" x="20.1125" y="100.1125" /><rect fill="none" height="9.2753" stroke="black" stroke-width="0.5" transform="rotate(1.0098024072806666 20 110)" width="9.028" x="19.7787" y="109.7787" /><rect fill="none" height="11.4845" stroke="black" stroke-width="0.5" transform="rotate(5.0278413885640365 20 120)" width="9.7443" x="19.809" y="119.809" /><rect fill="none" height="11.0879" stroke="black" stroke-width="0.5" transform="rotate(2.0278573129258852 20 130)" width="10.2877" x="20.3951" y="130.3951" /><rect fill="none" height="11.2599" stroke="black" stroke-width="0.5" transform="rotate(-2.4925398499860436 20 140)" width="8.7655" x="20.2321" y="140.2321" /><rect fill="none" height="10.0354" stroke="black" stroke-width="0.5" transform="rotate(-7.511500527490978 20 150)" width="10.9899" x="20.6793" y="150.6793" /><rect fill="none" height="10.2118" stroke="black" stroke-width="0.5" transform="rotate(-3.8911539928670464 20 160)" width="9.9093" x="20.5183" y="160.5183" /><rect fill="none" height="9.8983" stroke="black" stroke-width="0.5" transform="rotate(-2.53918471332043 20 170)" width="11.2098" x="19.3319" y="169.3319" /><rect fill="none" height="12.1908" stroke="black" stroke-width="0.5" transform="rotate(-5.205895728341528 20 180)" width="8.9932" x="19.9165" y="179.9165" /><rect fill="none" height="11.0136" stroke="black" stroke-width="0.5" transform="rotate(11.209620885483258 20 190)" width="8.3361" x="20.8666" y="190.8666" /><rect fill="none" height="10.0" stroke="black" stroke-width="0.5" transform="rotate(-0.0 30 0)" width="10.0" x="30.0" y="0.0" /><rect fill="none" height="9.828" stroke="black" stroke-width="0.5" transform="rotate(-0.0121515828827787 30 10)" width="9.828" x="30.0008" y="10.0008" /><rect fill="none" height="9.9661" stroke="black" stroke-width="0.5" transform="rotate(-0.013073963088782215 30 20)" width="9.7386" x="30.0005" y="20.0005" /><rect fill="none" height="9.9889" stroke="black" stroke-width="0.5" transform="rotate(-0.36589247022253785 30 30)" width="9.5011" x="29.8609" y="29.8609" /><rect fill="none" height="10.5552" stroke="black" stroke-width="0.5" transform="rotate(-0.3434112732295464 30 40)" width="10.2142" x="29.9582" y="39.9582" /><rect fill="none" height="9.4661" stroke="black" stroke-width="0.5" transform="rotate(0.86604879969488 30 50)" width="10.8414" x="30.0877" y="50.0877" /><rect fill="none" height="10.1773" stroke="black" stroke-width="0.5" transform="rotate(1.16473900593227 30 60)" width="9.7247" x="30.0186" y="60.0186" /><rect fill="none" height="10.2944" stroke="black" stroke-width="0.5" transform="rotate(-1.3790759929612753 30 70)" width="8.9565" x="30.0287" y="70.0287" /><rect fill="none" height="9.1376" stroke="black" stroke-width="0.5" transform="rotate(-0.8255563419238066 30 80)" width="10.8586" x="29.9678" y="79.9678" /><rect fill="none" height="11.5132" stroke="black" stroke-width="0.5" transform="rotate(3.8086385824926907 30 90)" width="10.6296" x="29.4765" y="89.4765" /><rect fill="none" height="9.6562" stroke="black" stroke-width="0.5" transform="rotate(-3.9806469930483637 30 100)" width="8.3638" x="29.7568" y="99.7568" /><rect fill="none" height="11.668" stroke="black" stroke-width="0.5" transform="rotate(5.290379803789639 30 110)" width="11.1386" x="29.2787" y="109.2787" /><rect fill="none" height="9.0495" stroke="black" stroke-width="0.5" transform="rotate(-2.5765705702841446 30 120)" width="8.1726" x="29.4391" y="119.4391" /><rect fill="none" height="10.65" stroke="black" stroke-width="0.5" transform="rotate(-0.45691404121926504 30 130)" width="12.2567" x="30.5962" y="130.5962" /><rect fill="none" height="12.6217" stroke="black" stroke-width="0.5" transform="rotate(-5.6941350053691036 30 140)" width="9.3493" x="29.9974" y="139.9974" /><rect fill="none" height="11.9583" stroke="black" stroke-width="0.5" transform="rotate(8.99042402666479 30 150)" width="12.1415" x="29.719" y="149.719" /><rect fill="none" height="9.4417" stroke="black" stroke-width="0.5" transform="rotate(0.7233878584080458 30 160)" width="12.5484" x="29.8356" y="159.8356" /><rect fill="none" height="11.4248" stroke="black" stroke-width="0.5" transform="rotate(4.249432024432595 30 170)" width="12.549" x="30.7581" y="170.7581" /><rect fill="none" height="8.8445" stroke="black" stroke-width="0.5" transform="rotate(5.95947763399204 30 180)" width="9.6974" x="29.8126" y="179.8126" /><rect fill="none" height="9.7293" stroke="black" stroke-width="0.5" transform="rotate(4.122240822337643 30 190)" width="12.2793" x="29.3605" y="189.3605" /><rect fill="none" height="10.0" stroke="black" stroke-width="0.5" transform="rotate(-0.0 40 0)" width="10.0" x="40.0" y="0.0" /><rect fill="none" height="10.2188" stroke="black" stroke-width="0.5" transform="rotate(-0.0459063016342918 40 10)" width="9.9024" x="40.0552" y="10.0552" /><rect fill="none" height="10.0363" stroke="black" stroke-width="0.5" transform="rotate(-0.008880512643722582 40 20)" width="10.137" x="40.0886" y="20.0886" /><rect fill="none" height="9.6082" stroke="black" stroke-width="0.5" transform="rotate(-0.28112710965242865 40 30)" width="10.242" x="40.1838" y="30.1838" /><rect fill="none" height="10.5228" stroke="black" stroke-width="0.5" transform="rotate(-0.6507913231413471 40 40)" width="9.8246" x="40.1816" y="40.1816" /><rect fill="none" height="10.3635" stroke="black" stroke-width="0.5" transform="rotate(1.1261949598641297 40 50)" width="10.4985" x="40.0123" y="50.0123" /><rect fill="none" height="11.0835" stroke="black" stroke-width="0.5" transform="rotate(-1.5441924622255416 40 60)" width="9.921" x="40.5383" y="60.5383" /><rect fill="none" height="10.1084" stroke="black" stroke-width="0.5" transform="rotate(-0.6518393563432977 40 70)" width="11.3937" x="40.3516" y="70.3516" /><rect fill="none" height="11.5024" stroke="black" stroke-width="0.5" transform="rotate(-1.2649211712689834 40 80)" width="9.8453" x="40.5534" y="80.5534" /><rect fill="none" height="10.1268" stroke="black" stroke-width="0.5" transform="rotate(-0.8858284985528714 40 90)" width="8.7936" x="39.2808" y="89.2808" /><rect fill="none" height="10.3833" stroke="black" stroke-width="0.5" transform="rotate(4.520402341790241 40 100)" width="10.4263" x="40.2491" y="100.2491" /><rect fill="none" height="7.6008" stroke="black" stroke-width="0.5" transform="rotate(-1.6764243072522749 40 110)" width="10.3899" x="39.4053" y="109.4053" /><rect fill="none" height="12.9208" stroke="black" stroke-width="0.5" transform="rotate(-1.2508035196679514 40 120)" width="12.0769" x="39.7452" y="119.7452" /><rect fill="none" height="10.8394" stroke="black" stroke-width="0.5" transform="rotate(-4.243534543986146 40 130)" width="6.7645" x="40.5271" y="130.5271" /><rect fill="none" height="12.4147" stroke="black" stroke-width="0.5" transform="rotate(-8.200563597515538 40 140)" width="10.0638" x="39.8114" y="139.8114" /><rect fill="none" height="10.7428" stroke="black" stroke-width="0.5" transform="rotate(-5.867419101831564 40 150)" width="10.7378" x="38.6521" y="148.6521" /><rect fill="none" height="6.9356" stroke="black" stroke-width="0.5" transform="rotate(-1.5884184666345675 40 160)" width="9.9556" x="41.1015" y="161.1015" /><rect fill="none" height="6.1948" stroke="black" stroke-width="0.5" transform="rotate(-10.911725251511589 40 170)" width="6.7077" x="40.7279" y="170.7279" /><rect fill="none" height="13.9069" stroke="black" stroke-width="0.5" transform="rotate(-9.300903130788184 40 180)" width="13.2853" x="38.3812" y="178.3812" /><rect fill="none" height="6.2662" stroke="black" stroke-width="0.5" transform="rotate(0.5130595376795997 40 190)" width="5.7766" x="39.1592" y="189.1592" /><rect fill="none" height="10.0" stroke="black" stroke-width="0.5" transform="rotate(-0.0 50 0)" width="10.0" x="50.0" y="0.0" /><rect fill="none" height="10.0192" stroke="black" stroke-width="0.5" transform="rotate(-0.018397972873358148 50 10)" width="10.1874" x="50.0971" y="10.0971" /><rect fill="none" height="10.4721" stroke="black" stroke-width="0.5" transform="rotate(0.011954057511829541 50 20)" width="10.029" x="50.2027" y="20.2027" /><rect fill="none" height="9.7348" stroke="black" stroke-width="0.5" transform="rotate(-0.4323890743365001 50 30)" width="9.8338" x="50.0284" y="30.0284" /><rect fill="none" height="10.7545" stroke="black" stroke-width="0.5" transform="rotate(0.15239294259038266 50 40)" width="9.8666" x="50.3927" y="40.3927" /><rect fill="none" height="10.5952" stroke="black" stroke-width="0.5" transform="rotate(-0.7666742722151532 50 50)" width="10.6621" x="49.79" y="49.79" /><rect fill="none" height="11.2015" stroke="black" stroke-width="0.5" transform="rotate(-1.5257019635725029 50 60)" width="10.9299" x="50.469" y="60.469" /><rect fill="none" height="8.4284" stroke="black" stroke-width="0.5" transform="rotate(2.169410370505949 50 70)" width="9.1721" x="50.2115" y="70.2115" /><rect fill="none" height="7.6232" stroke="black" stroke-width="0.5" transform="rotate(-2.120567760739058 50 80)" width="8.7709" x="50.4142" y="80.4142" /><rect fill="none" height="11.8953" stroke="black" stroke-width="0.5" transform="rotate(-0.40533243648875894 50 90)" width="7.4391" x="49.5387" y="89.5387" /><rect fill="none" height="6.9982" stroke="black" stroke-width="0.5" transform="rotate(-2.9633249811154383 50 100)" width="10.36" x="49.369" y="99.369" /><rect fill="none" height="8.8806" stroke="black" stroke-width="0.5" transform="rotate(1.8851076075692732 50 110)" width="11.5172" x="50.2567" y="110.2567" /><rect fill="none" height="10.3359" stroke="black" stroke-width="0.5" transform="rotate(3.1848756678216477 50 120)" width="12.6993" x="51.092" y="121.092" /><rect fill="none" height="12.7213" stroke="black" stroke-width="0.5" transform="rotate(-6.621591922781411 50 130)" width="11.6831" x="50.4365" y="130.4365" /><rect fill="none" height="12.8611" stroke="black" stroke-width="0.5" transform="rotate(7.62178764189255 50 140)" width="8.6823" x="50.0323" y="140.0323" /><rect fill="none" height="6.8284" stroke="black" stroke-width="0.5" transform="rotate(6.7470705966082605 50 150)" width="6.7964" x="48.9992" y="148.9992" /><rect fill="none" height="11.4794" stroke="black" stroke-width="0.5" transform="rotate(5.886276805699344 50 160)" width="6.6888" x="50.0548" y="160.0548" /><rect fill="none" height="13.3952" stroke="black" stroke-width="0.5" transform="rotate(9.243740341004296 50 170)" width="4.798" x="49.1641" y="169.1641" /><rect fill="none" height="6.2417" stroke="black" stroke-width="0.5" transform="rotate(9.674270671465477 50 180)" width="7.8709" x="49.6365" y="179.6365" /><rect fill="none" height="14.3041" stroke="black" stroke-width="0.5" transform="rotate(6.070510830065389 50 190)" width="12.0314" x="50.4333" y="190.4333" /><rect fill="none" height="10.0" stroke="black" stroke-width="0.5" transform="rotate(0.0 60 0)" width="10.0" x="60.0" y="0.0" /><rect fill="none" height="10.0053" stroke="black" stroke-width="0.5" transform="rotate(-0.03642144811249435 60 10)" width="9.6471" x="59.9623" y="9.9623" /><rect fill="none" height="10.2799" stroke="black" stroke-width="0.5" transform="rotate(-0.0750675673104055 60 20)" width="9.5624" x="60.0927" y="20.0927" /><rect fill="none" height="10.0496" stroke="black" stroke-width="0.5" transform="rotate(0.33484968234147433 60 30)" width="10.8208" x="60.4475" y="30.4475" /><rect fill="none" height="11.3324" stroke="black" stroke-width="0.5" transform="rotate(-0.3753709896699885 60 40)" width="9.0511" x="60.1728" y="40.1728" /><rect fill="none" height="8.61" stroke="black" stroke-width="0.5" transform="rotate(-1.235017092510626 60 50)" width="8.9883" x="60.3679" y="50.3679" /><rect fill="none" height="10.3346" stroke="black" stroke-width="0.5" transform="rotate(-0.21727843146289957 60 60)" width="8.5572" x="59.6456" y="59.6456" /><rect fill="none" height="9.4265" stroke="black" stroke-width="0.5" transform="rotate(-2.3779564219908114 60 70)" width="8.1883" x="60.0009" y="70.0009" /><rect fill="none" height="9.1721" stroke="black" stroke-width="0.5" transform="rotate(0.07934025353224143 60 80)" width="9.0349" x="60.0183" y="80.0183" /><rect fill="none" height="9.9817" stroke="black" stroke-width="0.5" transform="rotate(-2.6692818868482724 60 90)" width="6.8868" x="58.6833" y="88.6833" /><rect fill="none" height="8.9374" stroke="black" stroke-width="0.5" transform="rotate(-4.729535701798722 60 100)" width="9.3958" x="59.8582" y="99.8582" /><rect fill="none" height="6.4235" stroke="black" stroke-width="0.5" transform="rotate(5.859292282163297 60 110)" width="9.3647" x="60.8068" y="110.8068" /><rect fill="none" height="9.3767" stroke="black" stroke-width="0.5" transform="rotate(0.5693525775362189 60 120)" width="12.5242" x="60.5892" y="120.5892" /><rect fill="none" height="7.298" stroke="black" stroke-width="0.5" transform="rotate(2.695060441059163 60 130)" width="13.9269" x="58.7311" y="128.7311" /><rect fill="none" height="10.1575" stroke="black" stroke-width="0.5" transform="rotate(8.13969599685934 60 140)" width="13.7593" x="59.3928" y="139.3928" /><rect fill="none" height="9.3842" stroke="black" stroke-width="0.5" transform="rotate(6.968664192073104 60 150)" width="10.0846" x="57.9535" y="147.9535" /><rect fill="none" height="14.4753" stroke="black" stroke-width="0.5" transform="rotate(4.041319634610872 60 160)" width="4.0611" x="61.8998" y="161.8998" /><rect fill="none" height="16.2446" stroke="black" stroke-width="0.5" transform="rotate(4.766393339361512 60 170)" width="9.5518" x="59.015" y="169.015" /><rect fill="none" height="15.5976" stroke="black" stroke-width="0.5" transform="rotate(-2.6308078828020274 60 180)" width="5.0342" x="57.7127" y="177.7127" /><rect fill="none" height="10.6411" stroke="black" stroke-width="0.5" transform="rotate(0.9484946148171073 60 190)" width="11.1834" x="61.4152" y="191.4152" /><rect fill="none" height="10.0" stroke="black" stroke-width="0.5" transform="rotate(0.0 70 0)" width="10.0" x="70.0" y="0.0" /><rect fill="none" height="9.8891" stroke="black" stroke-width="0.5" transform="rotate(0.022069805858697132 70 10)" width="9.6242" x="70.0243" y="10.0243" /><rect fill="none" height="9.4813" stroke="black" stroke-width="0.5" transform="rotate(0.14373238644911143 70 20)" width="9.2634" x="69.9044" y="19.9044" /><rect fill="none" height="9.8556" stroke="black" stroke-width="0.5" transform="rotate(-0.14642423762728196 70 30)" width="9.415" x="70.2048" y="30.2048" /><rect fill="none" height="8.6393" stroke="black" stroke-width="0.5" transform="rotate(-0.5012160384012964 70 40)" width="11.1502" x="69.8082" y="39.8082" /><rect fill="none" height="10.0325" stroke="black" stroke-width="0.5" transform="rotate(0.6646408020328121 70 50)" width="11.5771" x="70.3476" y="50.3476" /><rect fill="none" height="7.5358" stroke="black" stroke-width="0.5" transform="rotate(1.6004973246091552 70 60)" width="11.3521" x="71.0315" y="61.0315" /><rect fill="none" height="7.9959" stroke="black" stroke-width="0.5" transform="rotate(1.2659571518434847 70 70)" width="11.9336" x="69.9713" y="69.9713" /><rect fill="none" height="9.164" stroke="black" stroke-width="0.5" transform="rotate(1.2827481783700072 70 80)" width="10.2848" x="70.7586" y="80.7586" /><rect fill="none" height="11.0102" stroke="black" stroke-width="0.5" transform="rotate(-0.8633398250190893 70 90)" width="8.394" x="70.7145" y="90.7145" /><rect fill="none" height="6.5205" stroke="black" stroke-width="0.5" transform="rotate(-3.7874015317158354 70 100)" width="7.4878" x="69.795" y="99.795" /><rect fill="none" height="14.3489" stroke="black" stroke-width="0.5" transform="rotate(1.6274031539566973 70 110)" width="13.9476" x="68.3607" y="108.3607" /><rect fill="none" height="5.9992" stroke="black" stroke-width="0.5" transform="rotate(5.084688540167069 70 120)" width="7.1638" x="68.2029" y="118.2029" /><rect fill="none" height="15.4468" stroke="black" stroke-width="0.5" transform="rotate(4.390482379879034 70 130)" width="10.7696" x="71.4026" y="131.4026" /><rect fill="none" height="15.7202" stroke="black" stroke-width="0.5" transform="rotate(4.8064676312943995 70 140)" width="10.4347" x="70.0062" y="140.0062" /><rect fill="none" height="5.2206" stroke="black" stroke-width="0.5" transform="rotate(-5.655704168573375 70 150)" width="5.9662" x="70.1868" y="150.1868" /><rect fill="none" height="11.4881" stroke="black" stroke-width="0.5" transform="rotate(-2.4912844345916283 70 160)" width="6.269" x="69.4089" y="159.4089" /><rect fill="none" height="4.48" stroke="black" stroke-width="0.5" transform="rotate(-9.815799922360172 70 170)" width="3.8302" x="67.7049" y="167.7049" /><rect fill="none" height="5.2984" stroke="black" stroke-width="0.5" transform="rotate(-5.983820178908353 70 180)" width="17.0249" x="68.4435" y="178.4435" /><rect fill="none" height="4.946" stroke="black" stroke-width="0.5" transform="rotate(13.321058643915809 70 190)" width="17.853" x="69.9786" y="189.9786" /><rect fill="none" height="10.0" stroke="black" stroke-width="0.5" transform="rotate(0.0 80 0)" width="10.0" x="80.0" y="0.0" /><rect fill="none" height="10.2346" stroke="black" stroke-width="0.5" transform="rotate(-0.019665528482044826 80 10)" width="9.5258" x="79.9985" y="9.9985" /><rect fill="none" height="10.7485" stroke="black" stroke-width="0.5" transform="rotate(0.002580126537085059 80 20)" width="10.0079" x="80.3494" y="20.3494" /><rect fill="none" height="11.1263" stroke="black" stroke-width="0.5" transform="rotate(-0.37856133086645727 80 30)" width="9.0898" x="80.4698" y="30.4698" /><rect fill="none" height="8.4514" stroke="black" stroke-width="0.5" transform="rotate(0.3014757797342176 80 40)" width="10.988" x="80.4027" y="40.4027" /><rect fill="none" height="9.2372" stroke="black" stroke-width="0.5" transform="rotate(0.5602417421132955 80 50)" width="11.8583" x="80.8231" y="50.8231" /><rect fill="none" height="9.9027" stroke="black" stroke-width="0.5" transform="rotate(0.35680566550932863 80 60)" width="8.8652" x="79.7064" y="59.7064" /><rect fill="none" height="11.3681" stroke="black" stroke-width="0.5" transform="rotate(-1.0695797456743044 80 70)" width="8.8989" x="80.65" y="70.65" /><rect fill="none" height="9.1431" stroke="black" stroke-width="0.5" transform="rotate(2.16004638598425 80 80)" width="11.8004" x="81.4443" y="81.4443" /><rect fill="none" height="8.4161" stroke="black" stroke-width="0.5" transform="rotate(-3.400359419466055 80 90)" width="6.0049" x="80.0784" y="90.0784" /><rect fill="none" height="13.1765" stroke="black" stroke-width="0.5" transform="rotate(1.9475947253797798 80 100)" width="8.2009" x="80.2998" y="100.2998" /><rect fill="none" height="8.8025" stroke="black" stroke-width="0.5" transform="rotate(-5.1800199618524285 80 110)" width="12.6495" x="80.0776" y="110.0776" /><rect fill="none" height="6.7364" stroke="black" stroke-width="0.5" transform="rotate(1.8655605071322874 80 120)" width="4.7351" x="80.5345" y="120.5345" /><rect fill="none" height="7.801" stroke="black" stroke-width="0.5" transform="rotate(7.147231411240708 80 130)" width="5.6354" x="77.4852" y="127.4852" /><rect fill="none" height="9.4474" stroke="black" stroke-width="0.5" transform="rotate(7.353544009259432 80 140)" width="15.0903" x="82.1402" y="142.1402" /><rect fill="none" height="8.1564" stroke="black" stroke-width="0.5" transform="rotate(11.045330626020549 80 150)" width="13.0071" x="82.6528" y="152.6528" /><rect fill="none" height="16.3495" stroke="black" stroke-width="0.5" transform="rotate(-6.814434117549524 80 160)" width="3.6323" x="81.0969" y="161.0969" /><rect fill="none" height="6.5997" stroke="black" stroke-width="0.5" transform="rotate(6.3798278738260965 80 170)" width="12.3164" x="82.142" y="172.142" /><rect fill="none" height="11.5975" stroke="black" stroke-width="0.5" transform="rotate(3.4789305848231415 80 180)" width="6.865" x="76.6248" y="176.6248" /><rect fill="none" height="11.5841" stroke="black" stroke-width="0.5" transform="rotate(-5.751247225156861 80 190)" width="5.5644" x="78.7601" y="188.7601" /><rect fill="none" height="10.0" stroke="black" stroke-width="0.5" transform="rotate(0.0 90 0)" width="10.0" x="90.0" y="0.0" /><rect fill="none" height="10.1146" stroke="black" stroke-width="0.5" transform="rotate(-0.02634750378681343 90 10)" width="9.6185" x="89.8232" y="9.8232" /><rect fill="none" height="9.1947" stroke="black" stroke-width="0.5" transform="rotate(0.1810101548328653 90 20)" width="10.8951" x="89.5844" y="19.5844" /><rect fill="none" height="11.4938" stroke="black" stroke-width="0.5" transform="rotate(0.09218210062994296 90 30)" width="11.413" x="89.6876" y="29.6876" /><rect fill="none" height="9.9258" stroke="black" stroke-width="0.5" transform="rotate(-0.6382750489504865 90 40)" width="12.2092" x="89.5744" y="39.5744" /><rect fill="none" height="12.7323" stroke="black" stroke-width="0.5" transform="rotate(0.8444569229828576 90 50)" width="7.4936" x="89.1447" y="49.1447" /><rect fill="none" height="11.5778" stroke="black" stroke-width="0.5" transform="rotate(0.14520355586422268 90 60)" width="9.6944" x="88.7715" y="58.7715" /><rect fill="none" height="6.1216" stroke="black" stroke-width="0.5" transform="rotate(0.3229561793429888 90 70)" width="10.8954" x="89.7921" y="69.7921" /><rect fill="none" height="6.2931" stroke="black" stroke-width="0.5" transform="rotate(-1.1440168329029952 90 80)" width="11.4912" x="88.5298" y="78.5298" /><rect fill="none" height="6.0641" stroke="black" stroke-width="0.5" transform="rotate(-2.3774237661692705 90 90)" width="13.0828" x="88.4941" y="88.4941" /><rect fill="none" height="6.8914" stroke="black" stroke-width="0.5" transform="rotate(4.675490627395104 90 100)" width="10.3759" x="91.9918" y="101.9918" /><rect fill="none" height="15.9875" stroke="black" stroke-width="0.5" transform="rotate(3.610376600777001 90 110)" width="6.9132" x="89.2056" y="109.2056" /><rect fill="none" height="8.7416" stroke="black" stroke-width="0.5" transform="rotate(5.477521703048092 90 120)" width="11.0256" x="90.0037" y="120.0037" /><rect fill="none" height="10.4523" stroke="black" stroke-width="0.5" transform="rotate(-5.371445890670351 90 130)" width="14.8202" x="91.1724" y="131.1724" /><rect fill="none" height="9.1622" stroke="black" stroke-width="0.5" transform="rotate(-3.5422621328232724 90 140)" width="14.7441" x="90.3784" y="140.3784" /><rect fill="none" height="7.0779" stroke="black" stroke-width="0.5" transform="rotate(6.147060033775046 90 150)" width="8.2248" x="90.4404" y="150.4404" /><rect fill="none" height="15.9662" stroke="black" stroke-width="0.5" transform="rotate(6.090609579405236 90 160)" width="15.9673" x="92.5839" y="162.5839" /><rect fill="none" height="4.7929" stroke="black" stroke-width="0.5" transform="rotate(4.936655830621571 90 170)" width="14.9305" x="90.8495" y="170.8495" /><rect fill="none" height="8.25" stroke="black" stroke-width="0.5" transform="rotate(-5.794410424676057 90 180)" width="9.6558" x="87.1095" y="177.1095" /><rect fill="none" height="1.0069" stroke="black" stroke-width="0.5" transform="rotate(17.84588901142408 90 190)" width="2.345" x="89.2216" y="189.2216" /><rect fill="none" height="10.0" stroke="black" stroke-width="0.5" transform="rotate(0.0 100 0)" width="10.0" x="100.0" y="0.0" /><rect fill="none" height="9.5452" stroke="black" stroke-width="0.5" transform="rotate(0.04510289761084607 100 10)" width="10.3297" x="100.042" y="10.042" /><rect fill="none" height="10.7079" stroke="black" stroke-width="0.5" transform="rotate(-0.16874834957643378 100 20)" width="9.858" x="100.0533" y="20.0533" /><rect fill="none" height="9.7111" stroke="black" stroke-width="0.5" transform="rotate(0.08207302207728791 100 30)" width="10.7005" x="100.1954" y="30.1954" /><rect fill="none" height="12.4853" stroke="black" stroke-width="0.5" transform="rotate(0.5317739161522812 100 40)" width="10.6858" x="100.6211" y="40.6211" /><rect fill="none" height="12.7734" stroke="black" stroke-width="0.5" transform="rotate(0.7935029033943521 100 50)" width="10.7218" x="100.4028" y="50.4028" /><rect fill="none" height="9.2337" stroke="black" stroke-width="0.5" transform="rotate(-0.2230286995970206 100 60)" width="7.2627" x="98.7932" y="58.7932" /><rect fill="none" height="6.256" stroke="black" stroke-width="0.5" transform="rotate(-1.6006995695836512 100 70)" width="6.8569" x="98.9331" y="68.9331" /><rect fill="none" height="12.8128" stroke="black" stroke-width="0.5" transform="rotate(0.8641545733479156 100 80)" width="7.3823" x="98.0832" y="78.0832" /><rect fill="none" height="12.1954" stroke="black" stroke-width="0.5" transform="rotate(2.3862633421131827 100 90)" width="8.5819" x="101.0029" y="91.0029" /><rect fill="none" height="10.6714" stroke="black" stroke-width="0.5" transform="rotate(-2.9510480204362843 100 100)" width="8.0379" x="102.224" y="102.224" /><rect fill="none" height="6.3086" stroke="black" stroke-width="0.5" transform="rotate(1.403436566905868 100 110)" width="16.3549" x="98.024" y="108.024" /><rect fill="none" height="4.9132" stroke="black" stroke-width="0.5" transform="rotate(4.980737219649898 100 120)" width="17.499" x="102.9648" y="122.9648" /><rect fill="none" height="6.0876" stroke="black" stroke-width="0.5" transform="rotate(-7.665635132498695 100 130)" width="1.9944" x="98.9468" y="128.9468" /><rect fill="none" height="10.0766" stroke="black" stroke-width="0.5" transform="rotate(-1.5241012775866758 100 140)" width="12.4021" x="99.9282" y="139.9282" /><rect fill="none" height="14.9113" stroke="black" stroke-width="0.5" transform="rotate(-4.439557240618467 100 150)" width="9.4578" x="96.525" y="146.525" /><rect fill="none" height="10.3048" stroke="black" stroke-width="0.5" transform="rotate(-7.9474428825513 100 160)" width="0.2057" x="101.653" y="161.653" /><rect fill="none" height="9.3171" stroke="black" stroke-width="0.5" transform="rotate(7.19327117663163 100 170)" width="10.4827" x="103.5513" y="173.5513" /><rect fill="none" height="-0.8424" stroke="black" stroke-width="0.5" transform="rotate(6.185683400244395 100 180)" width="18.611" x="99.0504" y="179.0504" /><rect fill="none" height="20.177" stroke="black" stroke-width="0.5" transform="rotate(3.3474515526975233 100 190)" width="-0.5811" x="103.311" y="193.311" /><rect fill="none" height="10.0" stroke="black" stroke-width="0.5" transform="rotate(0.0 110 0)" width="10.0" x="110.0" y="0.0" /><rect fill="none" height="9.5685" stroke="black" stroke-width="0.5" transform="rotate(-0.0023169655126892173 110 10)" width="9.9466" x="109.8295" y="9.8295" /><rect fill="none" height="9.6705" stroke="black" stroke-width="0.5" transform="rotate(0.19786440767296037 110 20)" width="9.7992" x="109.9968" y="19.9968" /><rect fill="none" height="11.8219" stroke="black" stroke-width="0.5" transform="rotate(-0.20713332375548296 110 30)" width="10.0985" x="110.1821" y="30.1821" /><rect fill="none" height="9.3806" stroke="black" stroke-width="0.5" transform="rotate(0.7562521482417566 110 40)" width="12.3009" x="110.6716" y="40.6716" /><rect fill="none" height="11.1929" stroke="black" stroke-width="0.5" transform="rotate(-0.6912054853352325 110 50)" width="7.3587" x="108.9332" y="48.9332" /><rect fill="none" height="12.5096" stroke="black" stroke-width="0.5" transform="rotate(0.2569711345877438 110 60)" width="12.2336" x="110.6963" y="60.6963" /><rect fill="none" height="7.8906" stroke="black" stroke-width="0.5" transform="rotate(-1.2272773770361312 110 70)" width="10.7097" x="111.4124" y="71.4124" /><rect fill="none" height="4.9077" stroke="black" stroke-width="0.5" transform="rotate(1.0428975275725407 110 80)" width="14.2945" x="110.9672" y="80.9672" /><rect fill="none" height="5.384" stroke="black" stroke-width="0.5" transform="rotate(-3.287297867491712 110 90)" width="8.8829" x="111.0452" y="91.0452" /><rect fill="none" height="12.8306" stroke="black" stroke-width="0.5" transform="rotate(4.539835520127129 110 100)" width="16.6353" x="112.5052" y="102.5052" /><rect fill="none" height="8.1938" stroke="black" stroke-width="0.5" transform="rotate(2.235840446640203 110 110)" width="3.471" x="107.3511" y="107.3511" /><rect fill="none" height="12.2699" stroke="black" stroke-width="0.5" transform="rotate(-5.626497711901981 110 120)" width="5.279" x="111.5913" y="121.5913" /><rect fill="none" height="1.2905" stroke="black" stroke-width="0.5" transform="rotate(7.39568481726211 110 130)" width="15.1461" x="108.8865" y="128.8865" /><rect fill="none" height="10.8805" stroke="black" stroke-width="0.5" transform="rotate(-1.6597355730884389 110 140)" width="3.7139" x="108.1813" y="138.1813" /><rect fill="none" height="13.0305" stroke="black" stroke-width="0.5" transform="rotate(7.990195508679951 110 150)" width="14.1829" x="111.3143" y="151.3143" /><rect fill="none" height="10.7764" stroke="black" stroke-width="0.5" transform="rotate(-2.466274742842458 110 160)" width="4.0427" x="109.3033" y="159.3033" /><rect fill="none" height="17.2573" stroke="black" stroke-width="0.5" transform="rotate(9.469228403872895 110 170)" width="6.1266" x="107.6799" y="167.6799" /><rect fill="none" height="-0.8384" stroke="black" stroke-width="0.5" transform="rotate(6.92107443837436 110 180)" width="5.8403" x="111.7378" y="181.7378" /><rect fill="none" height="22.6933" stroke="black" stroke-width="0.5" transform="rotate(-1.399271915535339 110 190)" width="0.1786" x="109.2167" y="189.2167" /><rect fill="none" height="10.0" stroke="black" stroke-width="0.5" transform="rotate(0.0 120 0)" width="10.0" x="120.0" y="0.0" /><rect fill="none" height="9.4795" stroke="black" stroke-width="0.5" transform="rotate(0.03972910952205435 120 10)" width="9.2681" x="119.7785" y="9.7785" /><rect fill="none" height="10.4667" stroke="black" stroke-width="0.5" transform="rotate(0.19978765154888425 120 20)" width="10.8158" x="120.3296" y="20.3296" /><rect fill="none" height="11.4562" stroke="black" stroke-width="0.5" transform="rotate(0.13146079491011395 120 30)" width="10.0196" x="119.1917" y="29.1917" /><rect fill="none" height="11.3258" stroke="black" stroke-width="0.5" transform="rotate(-0.7413164934375993 120 40)" width="11.8617" x="120.5438" y="40.5438" /><rect fill="none" height="11.3673" stroke="black" stroke-width="0.5" transform="rotate(0.7621236194136525 120 50)" width="6.7682" x="120.8414" y="50.8414" /><rect fill="none" height="6.8171" stroke="black" stroke-width="0.5" transform="rotate(1.0237203746807655 120 60)" width="12.0481" x="120.4654" y="60.4654" /><rect fill="none" height="12.5187" stroke="black" stroke-width="0.5" transform="rotate(-0.9414227996123661 120 70)" width="6.1552" x="118.6164" y="68.6164" /><rect fill="none" height="12.2202" stroke="black" stroke-width="0.5" transform="rotate(-1.9700147976619242 120 80)" width="9.0942" x="118.3813" y="78.3813" /><rect fill="none" height="12.3305" stroke="black" stroke-width="0.5" transform="rotate(-2.119444980248094 120 90)" width="9.6879" x="117.9695" y="87.9695" /><rect fill="none" height="3.1252" stroke="black" stroke-width="0.5" transform="rotate(4.042365099548572 120 100)" width="15.4043" x="118.417" y="98.417" /><rect fill="none" height="13.8948" stroke="black" stroke-width="0.5" transform="rotate(2.8272104439627097 120 110)" width="2.3187" x="118.8118" y="108.8118" /><rect fill="none" height="7.0497" stroke="black" stroke-width="0.5" transform="rotate(-0.3624180758035484 120 120)" width="12.6373" x="120.3464" y="120.3464" /><rect fill="none" height="19.0228" stroke="black" stroke-width="0.5" transform="rotate(2.428127164890406 120 130)" width="14.9064" x="119.1184" y="129.1184" /><rect fill="none" height="19.5032" stroke="black" stroke-width="0.5" transform="rotate(1.0973203188709193 120 140)" width="3.3903" x="119.2735" y="139.2735" /><rect fill="none" height="9.4518" stroke="black" stroke-width="0.5" transform="rotate(9.720976583409948 120 150)" width="9.0912" x="121.5822" y="151.5822" /><rect fill="none" height="21.2239" stroke="black" stroke-width="0.5" transform="rotate(10.774558060147466 120 160)" width="15.5308" x="119.8018" y="159.8018" /><rect fill="none" height="11.3582" stroke="black" stroke-width="0.5" transform="rotate(13.567800917927395 120 170)" width="15.3987" x="122.0906" y="172.0906" /><rect fill="none" height="19.0712" stroke="black" stroke-width="0.5" transform="rotate(16.15756229631927 120 180)" width="23.0198" x="121.0219" y="181.0219" /><rect fill="none" height="19.1636" stroke="black" stroke-width="0.5" transform="rotate(13.539636256767938 120 190)" width="-1.4486" x="124.307" y="194.307" /><rect fill="none" height="10.0" stroke="black" stroke-width="0.5" transform="rotate(-0.0 130 0)" width="10.0" x="130.0" y="0.0" /><rect fill="none" height="9.536" stroke="black" stroke-width="0.5" transform="rotate(0.035570196542207486 130 10)" width="10.5284" x="130.2998" y="10.2998" /><rect fill="none" height="9.6753" stroke="black" stroke-width="0.5" transform="rotate(0.03743083561581897 130 20)" width="8.8308" x="129.7181" y="19.7181" /><rect fill="none" height="8.0772" stroke="black" stroke-width="0.5" transform="rotate(-0.20729270325809557 130 30)" width="11.9405" x="129.0532" y="29.0532" /><rect fill="none" height="10.131" stroke="black" stroke-width="0.5" transform="rotate(0.3505287710551285 130 40)" width="8.4227" x="131.118" y="41.118" /><rect fill="none" height="11.2141" stroke="black" stroke-width="0.5" transform="rotate(0.027606930751747916 130 50)" width="13.2988" x="129.1457" y="49.1457" /><rect fill="none" height="14.8586" stroke="black" stroke-width="0.5" transform="rotate(-0.6131767916951265 130 60)" width="13.9471" x="128.4985" y="58.4985" /><rect fill="none" height="6.8939" stroke="black" stroke-width="0.5" transform="rotate(1.961322929937888 130 70)" width="5.6329" x="131.5273" y="71.5273" /><rect fill="none" height="5.8398" stroke="black" stroke-width="0.5" transform="rotate(1.9738015051843867 130 80)" width="7.9749" x="132.325" y="82.325" /><rect fill="none" height="14.0306" stroke="black" stroke-width="0.5" transform="rotate(-2.4561413759703314 130 90)" width="6.3839" x="132.1133" y="92.1133" /><rect fill="none" height="15.2518" stroke="black" stroke-width="0.5" transform="rotate(2.863545050211834 130 100)" width="4.6568" x="132.109" y="102.109" /><rect fill="none" height="16.14" stroke="black" stroke-width="0.5" transform="rotate(3.4738697626758936 130 110)" width="1.1651" x="131.3311" y="111.3311" /><rect fill="none" height="4.5412" stroke="black" stroke-width="0.5" transform="rotate(5.561105825641496 130 120)" width="8.1912" x="126.1746" y="116.1746" /><rect fill="none" height="15.6142" stroke="black" stroke-width="0.5" transform="rotate(-5.831744320408853 130 130)" width="6.3258" x="133.227" y="133.227" /><rect fill="none" height="10.184" stroke="black" stroke-width="0.5" transform="rotate(-9.64485088727725 130 140)" width="1.3964" x="128.4967" y="138.4967" /><rect fill="none" height="15.2285" stroke="black" stroke-width="0.5" transform="rotate(7.229541313258326 130 150)" width="1.681" x="125.3167" y="145.3167" /><rect fill="none" height="20.5507" stroke="black" stroke-width="0.5" transform="rotate(-1.5521864146755917 130 160)" width="-1.844" x="128.7861" y="158.7861" /><rect fill="none" height="9.3788" stroke="black" stroke-width="0.5" transform="rotate(11.827924289211557 130 170)" width="0.7756" x="126.4187" y="166.4187" /><rect fill="none" height="-1.0903" stroke="black" stroke-width="0.5" transform="rotate(5.538681958082933 130 180)" width="19.6884" x="124.5136" y="174.5136" /><rect fill="none" height="0.5812" stroke="black" stroke-width="0.5" transform="rotate(-7.125087398024471 130 190)" width="1.0064" x="134.0225" y="194.0225" /><rect fill="none" height="10.0" stroke="black" stroke-width="0.5" transform="rotate(0.0 140 0)" width="10.0" x="140.0" y="0.0" /><rect fill="none" height="10.1259" stroke="black" stroke-width="0.5" transform="rotate(-0.0030635173217207433 140 10)" width="10.2843" x="139.812" y="9.812" /><rect fill="none" height="11.5652" stroke="black" stroke-width="0.5" transform="rotate(-0.14516232939633628 140 20)" width="11.3108" x="140.3529" y="20.3529" /><rect fill="none" height="12.5157" stroke="black" stroke-width="0.5" transform="rotate(0.1011479362977491 140 30)" width="8.0181" x="139.7322" y="29.7322" /><rect fill="none" height="9.9103" stroke="black" stroke-width="0.5" transform="rotate(-0.2628732136877794 140 40)" width="10.4601" x="139.4253" y="39.4253" /><rect fill="none" height="11.1269" stroke="black" stroke-width="0.5" transform="rotate(-1.1318902078021815 140 50)" width="11.7354" x="138.3334" y="48.3334" /><rect fill="none" height="14.1863" stroke="black" stroke-width="0.5" transform="rotate(-0.5103293029585082 140 60)" width="11.009" x="140.8526" y="60.8526" /><rect fill="none" height="5.9255" stroke="black" stroke-width="0.5" transform="rotate(-1.563287189829683 140 70)" width="4.3294" x="140.1326" y="70.1326" /><rect fill="none" height="9.0974" stroke="black" stroke-width="0.5" transform="rotate(2.39877744305936 140 80)" width="16.327" x="138.3122" y="78.3122" /><rect fill="none" height="11.5032" stroke="black" stroke-width="0.5" transform="rotate(4.015032164701254 140 90)" width="13.0639" x="141.741" y="91.741" /><rect fill="none" height="1.407" stroke="black" stroke-width="0.5" transform="rotate(2.7139198899226837 140 100)" width="17.8027" x="140.9696" y="100.9696" /><rect fill="none" height="13.8366" stroke="black" stroke-width="0.5" transform="rotate(-2.1901178936791967 140 110)" width="3.655" x="139.0366" y="109.0366" /><rect fill="none" height="2.5368" stroke="black" stroke-width="0.5" transform="rotate(-3.6187208065497685 140 120)" width="13.9246" x="139.4152" y="119.4152" /><rect fill="none" height="4.9676" stroke="black" stroke-width="0.5" transform="rotate(-0.7289660580549007 140 130)" width="9.5236" x="144.1578" y="134.1578" /><rect fill="none" height="4.5529" stroke="black" stroke-width="0.5" transform="rotate(9.693575771170119 140 140)" width="21.9686" x="141.4173" y="141.4173" /><rect fill="none" height="17.8121" stroke="black" stroke-width="0.5" transform="rotate(-3.6777971239980944 140 150)" width="8.2622" x="143.3052" y="153.3052" /><rect fill="none" height="-1.8609" stroke="black" stroke-width="0.5" transform="rotate(10.970414008881274 140 160)" width="21.4171" x="137.9214" y="157.9214" /><rect fill="none" height="14.3056" stroke="black" stroke-width="0.5" transform="rotate(11.921889779877672 140 170)" width="18.4359" x="139.0411" y="169.0411" /><rect fill="none" height="9.9303" stroke="black" stroke-width="0.5" transform="rotate(-1.7611532696725276 140 180)" width="20.73" x="135.2016" y="175.2016" /><rect fill="none" height="3.8707" stroke="black" stroke-width="0.5" transform="rotate(7.612664992693267 140 190)" width="-4.5311" x="139.3921" y="189.3921" /><rect fill="none" height="10.0" stroke="black" stroke-width="0.5" transform="rotate(-0.0 150 0)" width="10.0" x="150.0" y="0.0" /><rect fill="none" height="10.5698" stroke="black" stroke-width="0.5" transform="rotate(0.007811150491327146 150 10)" width="9.5917" x="150.2212" y="10.2212" /><rect fill="none" height="9.4307" stroke="black" stroke-width="0.5" transform="rotate(0.09045836620955003 150 20)" width="9.4593" x="149.9286" y="19.9286" /><rect fill="none" height="11.8119" stroke="black" stroke-width="0.5" transform="rotate(0.021250276841707782 150 30)" width="11.4882" x="149.9735" y="29.9735" /><rect fill="none" height="6.9025" stroke="black" stroke-width="0.5" transform="rotate(0.2240229107619207 150 40)" width="10.0181" x="150.3109" y="40.3109" /><rect fill="none" height="8.8194" stroke="black" stroke-width="0.5" transform="rotate(0.4264833795571635 150 50)" width="8.0036" x="151.5728" y="51.5728" /><rect fill="none" height="9.8034" stroke="black" stroke-width="0.5" transform="rotate(-0.3200816851252643 150 60)" width="12.6088" x="148.7021" y="58.7021" /><rect fill="none" height="4.7228" stroke="black" stroke-width="0.5" transform="rotate(0.33282108452962444 150 70)" width="11.1081" x="152.1362" y="72.1362" /><rect fill="none" height="7.5899" stroke="black" stroke-width="0.5" transform="rotate(0.12240513554287702 150 80)" width="14.9218" x="147.8603" y="77.8603" /><rect fill="none" height="8.6809" stroke="black" stroke-width="0.5" transform="rotate(-1.7063071183318723 150 90)" width="15.6315" x="149.5494" y="89.5494" /><rect fill="none" height="8.4671" stroke="black" stroke-width="0.5" transform="rotate(-1.5658171163378676 150 100)" width="2.9037" x="147.5286" y="97.5286" /><rect fill="none" height="16.2357" stroke="black" stroke-width="0.5" transform="rotate(1.429167924625659 150 110)" width="9.9711" x="146.3338" y="106.3338" /><rect fill="none" height="0.617" stroke="black" stroke-width="0.5" transform="rotate(-6.366025648315754 150 120)" width="3.0532" x="146.6259" y="116.6259" /><rect fill="none" height="-1.0544" stroke="black" stroke-width="0.5" transform="rotate(0.37688212187213643 150 130)" width="17.4922" x="146.555" y="126.555" /><rect fill="none" height="18.2719" stroke="black" stroke-width="0.5" transform="rotate(-5.068551998626985 150 140)" width="0.4967" x="145.2931" y="135.2931" /><rect fill="none" height="-3.4984" stroke="black" stroke-width="0.5" transform="rotate(-3.261153198029308 150 150)" width="18.6743" x="150.6155" y="150.6155" /><rect fill="none" height="9.5163" stroke="black" stroke-width="0.5" transform="rotate(-3.0160527565566326 150 160)" width="-3.223" x="148.0491" y="158.0491" /><rect fill="none" height="4.61" stroke="black" stroke-width="0.5" transform="rotate(12.17302335232833 150 170)" width="-5.8217" x="151.8474" y="171.8474" /><rect fill="none" height="14.7066" stroke="black" stroke-width="0.5" transform="rotate(9.182380325900132 150 180)" width="4.8181" x="150.5241" y="180.5241" /><rect fill="none" height="11.9401" stroke="black" stroke-width="0.5" transform="rotate(4.555169130468597 150 190)" width="4.3687" x="147.998" y="187.998" /><rect fill="none" height="10.0" stroke="black" stroke-width="0.5" transform="rotate(-0.0 160 0)" width="10.0" x="160.0" y="0.0" /><rect fill="none" height="10.5253" stroke="black" stroke-width="0.5" transform="rotate(0.004504156901382806 160 10)" width="9.071" x="160.3457" y="10.3457" /><rect fill="none" height="8.9062" stroke="black" stroke-width="0.5" transform="rotate(0.19217968907874683 160 20)" width="9.3586" x="159.7447" y="19.7447" /><rect fill="none" height="9.6353" stroke="black" stroke-width="0.5" transform="rotate(0.3824709707798387 160 30)" width="7.4456" x="159.6409" y="29.6409" /><rect fill="none" height="7.3722" stroke="black" stroke-width="0.5" transform="rotate(0.17897342100648253 160 40)" width="6.6801" x="158.8149" y="38.8149" /><rect fill="none" height="10.1829" stroke="black" stroke-width="0.5" transform="rotate(-0.0017107664773532982 160 50)" width="6.6351" x="158.0738" y="48.0738" /><rect fill="none" height="11.6938" stroke="black" stroke-width="0.5" transform="rotate(1.1900230821177409 160 60)" width="4.4634" x="159.334" y="59.334" /><rect fill="none" height="15.579" stroke="black" stroke-width="0.5" transform="rotate(-1.6421027986802954 160 70)" width="16.0304" x="158.9803" y="68.9803" /><rect fill="none" height="7.8278" stroke="black" stroke-width="0.5" transform="rotate(0.8812578712542823 160 80)" width="16.9809" x="160.0799" y="80.0799" /><rect fill="none" height="11.3785" stroke="black" stroke-width="0.5" transform="rotate(-0.5219454199363129 160 90)" width="10.8469" x="158.2179" y="88.2179" /><rect fill="none" height="15.806" stroke="black" stroke-width="0.5" transform="rotate(0.3539463993483205 160 100)" width="5.5183" x="158.7582" y="98.7582" /><rect fill="none" height="16.5442" stroke="black" stroke-width="0.5" transform="rotate(3.845879568637571 160 110)" width="1.3712" x="164.1142" y="114.1142" /><rect fill="none" height="4.9414" stroke="black" stroke-width="0.5" transform="rotate(-4.7191964389760175 160 120)" width="-0.1838" x="155.5541" y="115.5541" /><rect fill="none" height="-2.2416" stroke="black" stroke-width="0.5" transform="rotate(3.604576648571256 160 130)" width="3.6402" x="162.7583" y="132.7583" /><rect fill="none" height="3.5216" stroke="black" stroke-width="0.5" transform="rotate(3.1106982504415734 160 140)" width="23.3638" x="159.0409" y="139.0409" /><rect fill="none" height="20.6513" stroke="black" stroke-width="0.5" transform="rotate(5.064979095176109 160 150)" width="-0.1672" x="165.0529" y="155.0529" /><rect fill="none" height="8.2796" stroke="black" stroke-width="0.5" transform="rotate(2.7465765347694058 160 160)" width="9.027" x="155.1147" y="155.1147" /><rect fill="none" height="7.8954" stroke="black" stroke-width="0.5" transform="rotate(6.109766849802202 160 170)" width="26.6041" x="166.466" y="176.466" /><rect fill="none" height="5.5322" stroke="black" stroke-width="0.5" transform="rotate(14.216122993097281 160 180)" width="5.1347" x="157.8216" y="177.8216" /><rect fill="none" height="4.3045" stroke="black" stroke-width="0.5" transform="rotate(13.067664188676531 160 190)" width="-1.7412" x="167.3704" y="197.3704" /><rect fill="none" height="10.0" stroke="black" stroke-width="0.5" transform="rotate(0.0 170 0)" width="10.0" x="170.0" y="0.0" /><rect fill="none" height="10.9597" stroke="black" stroke-width="0.5" transform="rotate(-0.029513935267352374 170 10)" width="9.3626" x="169.7757" y="9.7757" /><rect fill="none" height="8.2137" stroke="black" stroke-width="0.5" transform="rotate(-0.059799370003668265 170 20)" width="8.0724" x="169.8779" y="19.8779" /><rect fill="none" height="11.6688" stroke="black" stroke-width="0.5" transform="rotate(0.2832116478014858 170 30)" width="11.9428" x="170.4998" y="30.4998" /><rect fill="none" height="8.9305" stroke="black" stroke-width="0.5" transform="rotate(0.5816885896425591 170 40)" width="6.0459" x="169.3227" y="39.3227" /><rect fill="none" height="14.0222" stroke="black" stroke-width="0.5" transform="rotate(-0.27472927873431363 170 50)" width="11.1487" x="168.1956" y="48.1956" /><rect fill="none" height="4.0962" stroke="black" stroke-width="0.5" transform="rotate(0.7219080153565908 170 60)" width="11.111" x="169.1244" y="59.1244" /><rect fill="none" height="16.8427" stroke="black" stroke-width="0.5" transform="rotate(0.5116558002628911 170 70)" width="14.0625" x="172.0948" y="72.0948" /><rect fill="none" height="13.7921" stroke="black" stroke-width="0.5" transform="rotate(-0.9457734696673257 170 80)" width="5.643" x="167.3957" y="77.3957" /><rect fill="none" height="3.8334" stroke="black" stroke-width="0.5" transform="rotate(-2.5328619538453996 170 90)" width="18.9212" x="167.0217" y="87.0217" /><rect fill="none" height="15.4183" stroke="black" stroke-width="0.5" transform="rotate(1.0326143405231536 170 100)" width="2.3315" x="170.5818" y="100.5818" /><rect fill="none" height="17.446" stroke="black" stroke-width="0.5" transform="rotate(-1.7889322794767444 170 110)" width="7.0648" x="167.4052" y="107.4052" /><rect fill="none" height="20.8548" stroke="black" stroke-width="0.5" transform="rotate(7.051254441550557 170 120)" width="6.6943" x="168.136" y="118.136" /><rect fill="none" height="10.1325" stroke="black" stroke-width="0.5" transform="rotate(-6.794947339875695 170 130)" width="1.4437" x="166.9886" y="126.9886" /><rect fill="none" height="10.2833" stroke="black" stroke-width="0.5" transform="rotate(6.050056827367426 170 140)" width="-0.9305" x="166.7694" y="136.7694" /><rect fill="none" height="24.4795" stroke="black" stroke-width="0.5" transform="rotate(5.050212619495862 170 150)" width="-2.818" x="169.3561" y="149.3561" /><rect fill="none" height="6.0821" stroke="black" stroke-width="0.5" transform="rotate(5.559406002913155 170 160)" width="4.3728" x="167.9328" y="157.9328" /><rect fill="none" height="7.5429" stroke="black" stroke-width="0.5" transform="rotate(1.75849051839178 170 170)" width="1.7217" x="171.0573" y="171.0573" /><rect fill="none" height="-4.0642" stroke="black" stroke-width="0.5" transform="rotate(-1.5537373735519293 170 180)" width="28.6168" x="166.638" y="176.638" /><rect fill="none" height="-3.3624" stroke="black" stroke-width="0.5" transform="rotate(9.963495274497795 170 190)" width="25.9599" x="165.1666" y="185.1666" /><rect fill="none" height="10.0" stroke="black" stroke-width="0.5" transform="rotate(-0.0 180 0)" width="10.0" x="180.0" y="0.0" /><rect fill="none" height="9.0945" stroke="black" stroke-width="0.5" transform="rotate(0.04287066627744952 180 10)" width="9.5593" x="180.2586" y="10.2586" /><rect fill="none" height="11.5114" stroke="black" stroke-width="0.5" transform="rotate(0.0034411089952575136 180 20)" width="11.8613" x="179.2163" y="19.2163" /><rect fill="none" height="8.316" stroke="black" stroke-width="0.5" transform="rotate(0.25265819842255716 180 30)" width="8.537" x="180.6595" y="30.6595" /><rect fill="none" height="10.191" stroke="black" stroke-width="0.5" transform="rotate(0.45201503941411686 180 40)" width="9.3563" x="180.2663" y="40.2663" /><rect fill="none" height="5.7303" stroke="black" stroke-width="0.5" transform="rotate(-0.21020460477127217 180 50)" width="5.8406" x="180.9959" y="50.9959" /><rect fill="none" height="8.2211" stroke="black" stroke-width="0.5" transform="rotate(0.5871691955058832 180 60)" width="8.2319" x="179.6905" y="59.6905" /><rect fill="none" height="10.702" stroke="black" stroke-width="0.5" transform="rotate(-1.6997212224210756 180 70)" width="4.6504" x="176.9446" y="66.9446" /><rect fill="none" height="11.5648" stroke="black" stroke-width="0.5" transform="rotate(2.6007929098526494 180 80)" width="16.8912" x="181.1403" y="81.1403" /><rect fill="none" height="14.2511" stroke="black" stroke-width="0.5" transform="rotate(-2.812150793718316 180 90)" width="17.4526" x="180.7834" y="90.7834" /><rect fill="none" height="5.4523" stroke="black" stroke-width="0.5" transform="rotate(-0.569431558405955 180 100)" width="12.8779" x="179.2633" y="99.2633" /><rect fill="none" height="15.9272" stroke="black" stroke-width="0.5" transform="rotate(-5.8997407410818505 180 110)" width="9.4469" x="179.8694" y="109.8694" /><rect fill="none" height="10.7219" stroke="black" stroke-width="0.5" transform="rotate(2.203253568739443 180 120)" width="20.4984" x="182.3916" y="122.3916" /><rect fill="none" height="4.4592" stroke="black" stroke-width="0.5" transform="rotate(-5.912790830738744 180 130)" width="15.318" x="184.2413" y="134.2413" /><rect fill="none" height="-4.6806" stroke="black" stroke-width="0.5" transform="rotate(9.635280569289444 180 140)" width="21.6705" x="177.0821" y="137.0821" /><rect fill="none" height="6.7068" stroke="black" stroke-width="0.5" transform="rotate(4.023541012687988 180 150)" width="25.1025" x="181.073" y="151.073" /><rect fill="none" height="-4.0085" stroke="black" stroke-width="0.5" transform="rotate(6.4466947479734955 180 160)" width="24.4299" x="174.6301" y="154.6301" /><rect fill="none" height="-6.2681" stroke="black" stroke-width="0.5" transform="rotate(10.726816510741838 180 170)" width="-8.2524" x="175.8592" y="165.8592" /><rect fill="none" height="-5.0361" stroke="black" stroke-width="0.5" transform="rotate(-10.871181667608864 180 180)" width="30.0747" x="187.2112" y="187.2112" /><rect fill="none" height="4.0147" stroke="black" stroke-width="0.5" transform="rotate(-0.657759452928458 180 190)" width="-8.2016" x="172.4659" y="182.4659" /><rect fill="none" height="10.0" stroke="black" stroke-width="0.5" transform="rotate(-0.0 190 0)" width="10.0" x="190.0" y="0.0" /><rect fill="none" height="10.6173" stroke="black" stroke-width="0.5" transform="rotate(0.04718406476215927 190 10)" width="10.2009" x="190.4421" y="10.4421" /><rect fill="none" height="11.9232" stroke="black" stroke-width="0.5" transform="rotate(-0.16623905330022062 190 20)" width="10.5151" x="190.7273" y="20.7273" /><rect fill="none" height="11.7016" stroke="black" stroke-width="0.5" transform="rotate(-0.3178867881098524 190 30)" width="11.0734" x="191.3459" y="31.3459" /><rect fill="none" height="13.6649" stroke="black" stroke-width="0.5" transform="rotate(-0.007131054385331126 190 40)" width="7.9897" x="190.3449" y="40.3449" /><rect fill="none" height="10.4262" stroke="black" stroke-width="0.5" transform="rotate(-1.0117818293843681 190 50)" width="14.3529" x="190.8474" y="50.8474" /><rect fill="none" height="12.952" stroke="black" stroke-width="0.5" transform="rotate(-1.504534484292693 190 60)" width="11.6384" x="188.4488" y="58.4488" /><rect fill="none" height="16.3519" stroke="black" stroke-width="0.5" transform="rotate(0.13654451344710541 190 70)" width="14.9387" x="189.4168" y="69.4168" /><rect fill="none" height="3.0052" stroke="black" stroke-width="0.5" transform="rotate(-2.7775973185439726 190 80)" width="11.7279" x="192.164" y="82.164" /><rect fill="none" height="1.2012" stroke="black" stroke-width="0.5" transform="rotate(3.485376724649413 190 90)" width="2.5461" x="192.0395" y="92.0395" /><rect fill="none" height="9.2106" stroke="black" stroke-width="0.5" transform="rotate(3.825013413446878 190 100)" width="19.0678" x="190.95" y="100.95" /><rect fill="none" height="9.6659" stroke="black" stroke-width="0.5" transform="rotate(-5.448610154590351 190 110)" width="20.7839" x="186.3491" y="106.3491" /><rect fill="none" height="1.1861" stroke="black" stroke-width="0.5" transform="rotate(-5.747489769835516 190 120)" width="19.4019" x="188.3702" y="118.3702" /><rect fill="none" height="3.4706" stroke="black" stroke-width="0.5" transform="rotate(1.1624157805902795 190 130)" width="19.0798" x="188.2404" y="128.2404" /><rect fill="none" height="25.0344" stroke="black" stroke-width="0.5" transform="rotate(-1.1156024087355365 190 140)" width="21.7288" x="185.7836" y="135.7836" /><rect fill="none" height="1.1136" stroke="black" stroke-width="0.5" transform="rotate(-10.728919911865884 190 150)" width="6.2815" x="192.4848" y="152.4848" /><rect fill="none" height="-4.0773" stroke="black" stroke-width="0.5" transform="rotate(8.325664705158143 190 160)" width="4.1718" x="191.177" y="161.177" /><rect fill="none" height="0.6178" stroke="black" stroke-width="0.5" transform="rotate(-7.308058990512178 190 170)" width="1.8843" x="183.7512" y="163.7512" /><rect fill="none" height="26.6042" stroke="black" stroke-width="0.5" transform="rotate(8.484332487877015 190 180)" width="20.3612" x="192.9149" y="182.9149" /><rect fill="none" height="3.4379" stroke="black" stroke-width="0.5" transform="rotate(13.05105803023055 190 190)" width="32.514" x="190.5416" y="190.5416" /></svg>