<?xml version="1.0" encoding="utf-8" ?>
<svg baseProfile="tiny" height="736" version="1.2" width="843" xmlns="http://www.w3.org/2000/svg" xmlns:ev="http://www.w3.org/2001/xml-events" xmlns:xlink="http://www.w3.org/1999/xlink"><defs /><circle cx="839.0" cy="62.0" r="12.2962" /><circle cx="244.0" cy="62.0" r="8.7767" /><circle cx="439.0" cy="74.0" r="7.7768" /><circle cx="580.0" cy="72.0" r="5.0146" /><circle cx="631.0" cy="73.0" r="5.109" /><circle cx="500.0" cy="78.0" r="6.3831" /><circle cx="543.0" cy="95.0" r="15.4613" /><circle cx="214.0" cy="107.0" r="5.47" /><circle cx="354.0" cy="115.0" r="5.5279" /><circle cx="611.0" cy="115.0" r="4.6524" /><circle cx="734.0" cy="124.0" r="5.0146" /><circle cx="424.0" cy="127.0" r="5.5279" /><circle cx="794.0" cy="145.0" r="5.2321" /><circle cx="429.0" cy="176.0" r="5.8632" /><circle cx="747.0" cy="174.0" r="4.4424" /><circle cx="403.0" cy="195.0" r="3.9894" /><circle cx="208.0" cy="231.0" r="8.612" /><circle cx="408.0" cy="228.0" r="5.0146" /><circle cx="168.0" cy="230.0" r="4.6181" /><circle cx="843.0" cy="235.0" r="8.3302" /><circle cx="174.0" cy="243.0" r="5.1709" /><circle cx="156.0" cy="245.0" r="5.7536" /><circle cx="687.0" cy="302.0" r="4.8533" /><circle cx="225.0" cy="310.0" r="5.499" /><circle cx="448.0" cy="322.0" r="4.8204" /><circle cx="668.0" cy="322.0" r="4.9185" /><circle cx="409.0" cy="346.0" r="4.9828" /><circle cx="388.0" cy="351.0" r="5.698" /><circle cx="188.0" cy="354.0" r="6.6277" /><circle cx="647.0" cy="356.0" r="4.7203" /><circle cx="798.0" cy="388.0" r="5.47" /><circle cx="603.0" cy="395.0" r="4.4781" /><circle cx="588.0" cy="404.0" r="4.9185" /><circle cx="682.0" cy="416.0" r="4.9828" /><circle cx="814.0" cy="417.0" r="5.5852" /><circle cx="794.0" cy="423.0" r="5.3524" /><circle cx="70.0" cy="429.0" r="6.7703" /><circle cx="307.0" cy="437.0" r="5.109" /><circle cx="510.0" cy="453.0" r="5.3524" /><circle cx="86.0" cy="463.0" r="6.1026" /><circle cx="48.0" cy="482.0" r="5.382" /><circle cx="249.0" cy="487.0" r="5.0463" /><circle cx="572.0" cy="494.0" r="4.7539" /><circle cx="589.0" cy="495.0" r="5.0777" /><circle cx="350.0" cy="496.0" r="4.7539" /><circle cx="413.0" cy="517.0" r="11.6584" /><circle cx="378.0" cy="513.0" r="7.0918" /><circle cx="503.0" cy="509.0" r="5.47" /><circle cx="350.0" cy="512.0" r="5.14" /><circle cx="748.0" cy="515.0" r="5.67" /><circle cx="84.0" cy="522.0" r="4.9828" /><circle cx="259.0" cy="534.0" r="12.3221" /><circle cx="113.0" cy="532.0" r="5.9173" /><circle cx="698.0" cy="543.0" r="5.2926" /><circle cx="168.0" cy="547.0" r="6.1026" /><circle cx="317.0" cy="563.0" r="5.4408" /><circle cx="785.0" cy="579.0" r="5.2624" /><circle cx="294.0" cy="586.0" r="6.333" /><circle cx="124.0" cy="613.0" r="6.0503" /><circle cx="633.0" cy="625.0" r="4.9185" /><circle cx="663.0" cy="630.0" r="4.7539" /><circle cx="792.0" cy="637.0" r="5.6136" /><circle cx="553.0" cy="650.0" r="4.7539" /><circle cx="706.0" cy="652.0" r="5.4115" /><circle cx="477.0" cy="657.0" r="5.9441" /><circle cx="611.0" cy="658.0" r="4.1459" /><circle cx="641.0" cy="674.0" r="5.47" /><circle cx="494.0" cy="675.0" r="5.14" /><circle cx="801.0" cy="677.0" r="5.2624" /><circle cx="26.0" cy="685.0" r="7.9389" /><circle cx="659.0" cy="697.0" r="4.9828" /><circle cx="749.0" cy="699.0" r="5.8632" /><circle cx="113.0" cy="709.0" r="5.47" /><circle cx="552.0" cy="721.0" r="4.3336" /><circle cx="570.0" cy="732.0" r="14.5162" /><circle cx="426.0" cy="729.0" r="5.0146" /><circle cx="797.0" cy="736.0" r="5.0146" /></svg>