<?xml version="1.0" encoding="utf-8" ?>
<svg baseProfile="tiny" height="563" version="1.2" width="723" xmlns="http://www.w3.org/2000/svg" xmlns:ev="http://www.w3.org/2001/xml-events" xmlns:xlink="http://www.w3.org/1999/xlink"><defs /><circle cx="164.0" cy="8.0" r="8.3492" /><circle cx="106.0" cy="22.0" r="5.6136" /><circle cx="249.0" cy="27.0" r="6.0503" /><circle cx="64.0" cy="31.0" r="7.838" /><circle cx="328.0" cy="37.0" r="5.2624" /><circle cx="239.0" cy="46.0" r="8.7948" /><circle cx="122.0" cy="45.0" r="6.2061" /><circle cx="313.0" cy="56.0" r="8.5191" /><circle cx="577.0" cy="59.0" r="11.672" /><circle cx="538.0" cy="55.0" r="5.4115" /><circle cx="132.0" cy="60.0" r="6.333" /><circle cx="222.0" cy="63.0" r="5.3226" /><circle cx="697.0" cy="64.0" r="5.698" /><circle cx="405.0" cy="70.0" r="10.2335" /><circle cx="195.0" cy="67.0" r="7.9988" /><circle cx="483.0" cy="75.0" r="10.9981" /><circle cx="511.0" cy="74.0" r="5.9974" /><circle cx="147.0" cy="75.0" r="5.67" /><circle cx="625.0" cy="86.0" r="10.3264" /><circle cx="383.0" cy="87.0" r="5.5279" /><circle cx="646.0" cy="95.0" r="9.5912" /><circle cx="51.0" cy="92.0" r="6.1546" /><circle cx="443.0" cy="99.0" r="4.7539" /><circle cx="537.0" cy="104.0" r="6.1546" /><circle cx="238.0" cy="103.0" r="4.7203" /><circle cx="414.0" cy="105.0" r="5.2926" /><circle cx="210.0" cy="112.0" r="5.382" /><circle cx="572.0" cy="129.0" r="13.4817" /><circle cx="179.0" cy="127.0" r="7.2691" /><circle cx="364.0" cy="127.0" r="4.8204" /><circle cx="56.0" cy="138.0" r="10.66" /><circle cx="628.0" cy="133.0" r="5.8903" /><circle cx="331.0" cy="134.0" r="5.499" /><circle cx="500.0" cy="139.0" r="10.6301" /><circle cx="300.0" cy="142.0" r="10.8963" /><circle cx="697.0" cy="141.0" r="5.836" /><circle cx="670.0" cy="145.0" r="4.6865" /><circle cx="595.0" cy="151.0" r="4.3702" /><circle cx="621.0" cy="157.0" r="6.3078" /><circle cx="697.0" cy="157.0" r="5.7812" /><circle cx="347.0" cy="165.0" r="8.8849" /><circle cx="556.0" cy="181.0" r="20.5368" /><circle cx="18.0" cy="171.0" r="9.7721" /><circle cx="489.0" cy="167.0" r="5.5566" /><circle cx="146.0" cy="168.0" r="3.3378" /><circle cx="472.0" cy="170.0" r="4.5835" /><circle cx="76.0" cy="172.0" r="5.3524" /><circle cx="289.0" cy="173.0" r="7.1588" /><circle cx="508.0" cy="173.0" r="4.4781" /><circle cx="41.0" cy="179.0" r="8.7948" /><circle cx="205.0" cy="181.0" r="7.4208" /><circle cx="701.0" cy="183.0" r="4.9507" /><circle cx="659.0" cy="188.0" r="5.2926" /><circle cx="131.0" cy="211.0" r="16.3615" /><circle cx="165.0" cy="206.0" r="9.5413" /><circle cx="396.0" cy="203.0" r="7.7152" /><circle cx="316.0" cy="202.0" r="5.14" /><circle cx="20.0" cy="206.0" r="5.47" /><circle cx="474.0" cy="208.0" r="5.7812" /><circle cx="639.0" cy="209.0" r="5.0463" /><circle cx="40.0" cy="211.0" r="5.5566" /><circle cx="614.0" cy="216.0" r="4.7539" /><circle cx="330.0" cy="223.0" r="4.7203" /><circle cx="19.0" cy="232.0" r="8.311" /><circle cx="640.0" cy="240.0" r="15.2122" /><circle cx="717.0" cy="238.0" r="15.4921" /><circle cx="439.0" cy="231.0" r="4.7203" /><circle cx="254.0" cy="241.0" r="8.2534" /><circle cx="109.0" cy="247.0" r="9.1496" /><circle cx="398.0" cy="249.0" r="8.0582" /><circle cx="160.0" cy="258.0" r="13.4935" /><circle cx="223.0" cy="259.0" r="8.1564" /><circle cx="572.0" cy="257.0" r="5.9708" /><circle cx="245.0" cy="264.0" r="5.9708" /><circle cx="577.0" cy="273.0" r="10.9836" /><circle cx="528.0" cy="271.0" r="3.7847" /><circle cx="272.0" cy="275.0" r="8.444" /><circle cx="505.0" cy="275.0" r="5.4115" /><circle cx="638.0" cy="279.0" r="8.4816" /><circle cx="313.0" cy="277.0" r="5.109" /><circle cx="714.0" cy="278.0" r="4.9507" /><circle cx="420.0" cy="299.0" r="14.8629" /><circle cx="227.0" cy="291.0" r="7.9988" /><circle cx="542.0" cy="294.0" r="9.5746" /><circle cx="587.0" cy="296.0" r="9.6409" /><circle cx="357.0" cy="310.0" r="9.356" /><circle cx="201.0" cy="321.0" r="14.6037" /><circle cx="134.0" cy="323.0" r="8.849" /><circle cx="523.0" cy="333.0" r="5.8632" /><circle cx="594.0" cy="332.0" r="4.5835" /><circle cx="684.0" cy="337.0" r="4.7873" /><circle cx="74.0" cy="343.0" r="8.974" /><circle cx="304.0" cy="357.0" r="19.6254" /><circle cx="207.0" cy="348.0" r="3.7847" /><circle cx="392.0" cy="362.0" r="13.3034" /><circle cx="722.0" cy="357.0" r="7.9788" /><circle cx="234.0" cy="357.0" r="7.0014" /><circle cx="18.0" cy="368.0" r="12.8407" /><circle cx="75.0" cy="374.0" r="18.1595" /><circle cx="460.0" cy="361.0" r="4.3702" /><circle cx="537.0" cy="366.0" r="5.0777" /><circle cx="41.0" cy="369.0" r="5.5279" /><circle cx="668.0" cy="375.0" r="4.7873" /><circle cx="469.0" cy="378.0" r="6.4328" /><circle cx="334.0" cy="384.0" r="6.8868" /><circle cx="564.0" cy="392.0" r="8.1369" /><circle cx="139.0" cy="393.0" r="8.3683" /><circle cx="683.0" cy="396.0" r="6.6994" /><circle cx="316.0" cy="410.0" r="18.1157" /><circle cx="116.0" cy="410.0" r="9.4238" /><circle cx="77.0" cy="424.0" r="16.3907" /><circle cx="362.0" cy="418.0" r="5.6419" /><circle cx="541.0" cy="437.0" r="15.1808" /><circle cx="26.0" cy="436.0" r="9.0798" /><circle cx="602.0" cy="429.0" r="6.4574" /><circle cx="128.0" cy="430.0" r="5.6136" /><circle cx="630.0" cy="432.0" r="6.9329" /><circle cx="202.0" cy="436.0" r="5.3226" /><circle cx="723.0" cy="451.0" r="13.1711" /><circle cx="502.0" cy="451.0" r="12.4506" /><circle cx="450.0" cy="457.0" r="7.7563" /><circle cx="416.0" cy="462.0" r="5.6419" /><circle cx="561.0" cy="465.0" r="5.67" /><circle cx="207.0" cy="474.0" r="8.2341" /><circle cx="697.0" cy="476.0" r="6.6517" /><circle cx="438.0" cy="505.0" r="23.1111" /><circle cx="397.0" cy="490.0" r="15.9077" /><circle cx="228.0" cy="481.0" r="6.8404" /><circle cx="331.0" cy="487.0" r="8.5377" /><circle cx="574.0" cy="492.0" r="6.333" /><circle cx="705.0" cy="497.0" r="4.9507" /><circle cx="312.0" cy="512.0" r="16.6699" /><circle cx="106.0" cy="505.0" r="7.1365" /><circle cx="723.0" cy="510.0" r="8.4062" /><circle cx="148.0" cy="514.0" r="7.7152" /><circle cx="260.0" cy="515.0" r="8.612" /><circle cx="80.0" cy="521.0" r="7.5483" /><circle cx="697.0" cy="524.0" r="5.4115" /><circle cx="603.0" cy="532.0" r="9.2877" /><circle cx="187.0" cy="534.0" r="5.14" /><circle cx="630.0" cy="540.0" r="7.6113" /><circle cx="309.0" cy="552.0" r="17.7069" /><circle cx="544.0" cy="543.0" r="7.5272" /><circle cx="100.0" cy="549.0" r="7.3777" /><circle cx="239.0" cy="550.0" r="5.9441" /><circle cx="581.0" cy="561.0" r="7.4208" /><circle cx="144.0" cy="563.0" r="5.0146" /></svg>