<?xml version="1.0" encoding="utf-8" ?>
<svg baseProfile="tiny" height="563" version="1.2" width="723" xmlns="http://www.w3.org/2000/svg" xmlns:ev="http://www.w3.org/2001/xml-events" xmlns:xlink="http://www.w3.org/1999/xlink"><defs /><circle cx="163.0" cy="8.0" r="7.5694" /><circle cx="352.0" cy="24.0" r="5.5852" /><circle cx="248.0" cy="27.0" r="6.0765" /><circle cx="63.0" cy="31.0" r="7.3561" /><circle cx="577.0" cy="59.0" r="11.027" /><circle cx="313.0" cy="56.0" r="7.2031" /><circle cx="538.0" cy="55.0" r="5.1709" /><circle cx="405.0" cy="71.0" r="9.8046" /><circle cx="194.0" cy="68.0" r="7.1142" /><circle cx="512.0" cy="74.0" r="5.698" /><circle cx="146.0" cy="75.0" r="5.8087" /><circle cx="624.0" cy="86.0" r="9.2017" /><circle cx="444.0" cy="98.0" r="4.4781" /><circle cx="537.0" cy="104.0" r="6.408" /><circle cx="571.0" cy="129.0" r="13.0253" /><circle cx="628.0" cy="132.0" r="5.6136" /><circle cx="500.0" cy="139.0" r="10.5701" /><circle cx="299.0" cy="141.0" r="10.4337" /><circle cx="698.0" cy="141.0" r="5.47" /><circle cx="596.0" cy="150.0" r="4.7203" /><circle cx="622.0" cy="157.0" r="6.6037" /><circle cx="697.0" cy="157.0" r="5.5279" /><circle cx="556.0" cy="181.0" r="20.6912" /><circle cx="347.0" cy="166.0" r="8.5004" /><circle cx="489.0" cy="167.0" r="5.5279" /><circle cx="472.0" cy="170.0" r="4.6181" /><circle cx="289.0" cy="173.0" r="7.0467" /><circle cx="508.0" cy="173.0" r="4.4781" /><circle cx="42.0" cy="179.0" r="7.5272" /><circle cx="204.0" cy="182.0" r="6.8637" /><circle cx="701.0" cy="183.0" r="4.6524" /><circle cx="165.0" cy="206.0" r="8.5935" /><circle cx="396.0" cy="203.0" r="7.6322" /><circle cx="131.0" cy="214.0" r="15.6047" /><circle cx="474.0" cy="208.0" r="5.7812" /><circle cx="639.0" cy="209.0" r="5.3226" /><circle cx="39.0" cy="211.0" r="5.1709" /><circle cx="614.0" cy="216.0" r="4.7539" /><circle cx="330.0" cy="223.0" r="4.7873" /><circle cx="19.0" cy="232.0" r="7.9988" /><circle cx="717.0" cy="239.0" r="15.6047" /><circle cx="640.0" cy="241.0" r="15.254" /><circle cx="439.0" cy="231.0" r="4.6865" /><circle cx="254.0" cy="241.0" r="8.2341" /><circle cx="109.0" cy="248.0" r="8.7222" /><circle cx="398.0" cy="249.0" r="8.1173" /><circle cx="160.0" cy="258.0" r="13.5052" /><circle cx="223.0" cy="260.0" r="7.8987" /><circle cx="572.0" cy="257.0" r="6.0239" /><circle cx="245.0" cy="265.0" r="5.9708" /><circle cx="577.0" cy="273.0" r="11.2838" /><circle cx="528.0" cy="271.0" r="3.7847" /><circle cx="271.0" cy="275.0" r="8.0385" /><circle cx="505.0" cy="275.0" r="5.4115" /><circle cx="639.0" cy="279.0" r="8.7586" /><circle cx="313.0" cy="277.0" r="5.2016" /><circle cx="714.0" cy="278.0" r="4.7203" /><circle cx="420.0" cy="299.0" r="14.8736" /><circle cx="227.0" cy="291.0" r="7.9188" /><circle cx="542.0" cy="294.0" r="9.6409" /><circle cx="587.0" cy="296.0" r="9.7067" /><circle cx="357.0" cy="310.0" r="9.5246" /><circle cx="201.0" cy="321.0" r="14.6363" /><circle cx="134.0" cy="324.0" r="8.444" /><circle cx="523.0" cy="333.0" r="5.8632" /><circle cx="594.0" cy="332.0" r="4.6181" /><circle cx="685.0" cy="337.0" r="4.9507" /><circle cx="304.0" cy="357.0" r="19.6335" /><circle cx="74.0" cy="344.0" r="8.2726" /><circle cx="392.0" cy="362.0" r="13.3034" /><circle cx="723.0" cy="357.0" r="8.1173" /><circle cx="234.0" cy="357.0" r="7.0014" /><circle cx="19.0" cy="368.0" r="12.7412" /><circle cx="75.0" cy="374.0" r="18.3427" /><circle cx="609.0" cy="368.0" r="9.8208" /><circle cx="460.0" cy="361.0" r="4.3702" /><circle cx="537.0" cy="366.0" r="5.0463" /><circle cx="41.0" cy="368.0" r="5.14" /><circle cx="669.0" cy="374.0" r="4.886" /><circle cx="469.0" cy="378.0" r="6.4328" /><circle cx="334.0" cy="384.0" r="6.8868" /><circle cx="564.0" cy="392.0" r="8.1759" /><circle cx="139.0" cy="394.0" r="8.5004" /><circle cx="685.0" cy="396.0" r="7.4635" /><circle cx="316.0" cy="410.0" r="18.1157" /><circle cx="116.0" cy="410.0" r="9.4407" /><circle cx="77.0" cy="425.0" r="16.2737" /><circle cx="362.0" cy="418.0" r="5.6419" /><circle cx="678.0" cy="417.0" r="3.4318" /><circle cx="502.0" cy="422.0" r="5.4408" /><circle cx="541.0" cy="437.0" r="15.1913" /><circle cx="602.0" cy="428.0" r="6.5795" /><circle cx="128.0" cy="430.0" r="5.67" /><circle cx="630.0" cy="432.0" r="7.2471" /><circle cx="202.0" cy="436.0" r="5.2624" /><circle cx="723.0" cy="451.0" r="13.2675" /><circle cx="502.0" cy="451.0" r="12.4506" /><circle cx="450.0" cy="457.0" r="7.7563" /><circle cx="416.0" cy="462.0" r="5.6419" /><circle cx="693.0" cy="461.0" r="7.4848" /><circle cx="561.0" cy="465.0" r="5.7536" /><circle cx="631.0" cy="472.0" r="7.8785" /><circle cx="207.0" cy="474.0" r="8.2341" /><circle cx="698.0" cy="476.0" r="6.9099" /><circle cx="438.0" cy="505.0" r="23.1111" /><circle cx="397.0" cy="490.0" r="15.9077" /><circle cx="228.0" cy="481.0" r="6.8404" /><circle cx="331.0" cy="487.0" r="8.5377" /><circle cx="574.0" cy="492.0" r="6.2572" /><circle cx="312.0" cy="512.0" r="16.6699" /><circle cx="723.0" cy="510.0" r="8.4062" /><circle cx="683.0" cy="510.0" r="6.0503" /><circle cx="148.0" cy="514.0" r="7.7973" /><circle cx="260.0" cy="515.0" r="8.612" /><circle cx="79.0" cy="521.0" r="7.1365" /><circle cx="697.0" cy="524.0" r="5.2624" /><circle cx="603.0" cy="532.0" r="9.2877" /><circle cx="187.0" cy="534.0" r="5.14" /><circle cx="630.0" cy="539.0" r="7.7152" /><circle cx="309.0" cy="552.0" r="17.7069" /><circle cx="544.0" cy="543.0" r="7.5272" /><circle cx="100.0" cy="549.0" r="7.4422" /><circle cx="239.0" cy="550.0" r="5.9441" /><circle cx="581.0" cy="561.0" r="7.4208" /><circle cx="144.0" cy="563.0" r="4.9185" /></svg>