<?xml version="1.0" encoding="utf-8" ?>
<svg baseProfile="tiny" height="561" version="1.2" width="726" xmlns="http://www.w3.org/2000/svg" xmlns:ev="http://www.w3.org/2001/xml-events" xmlns:xlink="http://www.w3.org/1999/xlink"><defs /><circle cx="164.0" cy="8.0" r="8.3492" /><circle cx="248.0" cy="27.0" r="6.5795" /><circle cx="726.0" cy="34.0" r="7.9589" /><circle cx="64.0" cy="31.0" r="7.5904" /><circle cx="122.0" cy="45.0" r="6.0239" /><circle cx="238.0" cy="46.0" r="7.3777" /><circle cx="609.0" cy="48.0" r="5.109" /><circle cx="577.0" cy="59.0" r="10.8817" /><circle cx="313.0" cy="56.0" r="7.4635" /><circle cx="538.0" cy="55.0" r="5.4115" /><circle cx="405.0" cy="70.0" r="9.8531" /><circle cx="366.0" cy="72.0" r="9.1322" /><circle cx="511.0" cy="75.0" r="5.6419" /><circle cx="624.0" cy="86.0" r="9.3049" /><circle cx="383.0" cy="87.0" r="5.0463" /><circle cx="443.0" cy="98.0" r="4.4781" /><circle cx="537.0" cy="104.0" r="6.0503" /><circle cx="550.0" cy="119.0" r="5.2321" /><circle cx="572.0" cy="129.0" r="12.9026" /><circle cx="179.0" cy="127.0" r="6.7703" /><circle cx="256.0" cy="127.0" r="6.7937" /><circle cx="364.0" cy="127.0" r="4.8533" /><circle cx="344.0" cy="129.0" r="4.7539" /><circle cx="56.0" cy="138.0" r="10.1554" /><circle cx="628.0" cy="132.0" r="5.7536" /><circle cx="500.0" cy="139.0" r="10.4945" /><circle cx="300.0" cy="141.0" r="10.2179" /><circle cx="697.0" cy="141.0" r="5.47" /><circle cx="596.0" cy="151.0" r="4.4424" /><circle cx="622.0" cy="157.0" r="6.1287" /><circle cx="347.0" cy="165.0" r="9.0622" /><circle cx="558.0" cy="182.0" r="19.2818" /><circle cx="18.0" cy="170.0" r="9.9815" /><circle cx="488.0" cy="167.0" r="4.9828" /><circle cx="289.0" cy="172.0" r="6.8637" /><circle cx="509.0" cy="173.0" r="4.1459" /><circle cx="42.0" cy="178.0" r="7.0693" /><circle cx="204.0" cy="181.0" r="6.8868" /><circle cx="701.0" cy="183.0" r="4.4424" /><circle cx="165.0" cy="205.0" r="8.7948" /><circle cx="396.0" cy="203.0" r="7.7768" /><circle cx="130.0" cy="214.0" r="14.7663" /><circle cx="474.0" cy="208.0" r="5.836" /><circle cx="639.0" cy="209.0" r="4.9507" /><circle cx="574.0" cy="215.0" r="4.7873" /><circle cx="614.0" cy="216.0" r="4.7203" /><circle cx="330.0" cy="223.0" r="4.6865" /><circle cx="19.0" cy="232.0" r="8.311" /><circle cx="717.0" cy="238.0" r="15.2436" /><circle cx="640.0" cy="240.0" r="14.8629" /><circle cx="254.0" cy="240.0" r="8.0582" /><circle cx="109.0" cy="247.0" r="9.2017" /><circle cx="399.0" cy="249.0" r="7.6738" /><circle cx="160.0" cy="258.0" r="13.159" /><circle cx="223.0" cy="259.0" r="7.9988" /><circle cx="571.0" cy="257.0" r="5.67" /><circle cx="245.0" cy="264.0" r="5.8087" /><circle cx="699.0" cy="266.0" r="4.4424" /><circle cx="577.0" cy="273.0" r="10.8083" /><circle cx="272.0" cy="275.0" r="8.2534" /><circle cx="639.0" cy="279.0" r="8.444" /><circle cx="313.0" cy="278.0" r="4.8204" /><circle cx="420.0" cy="298.0" r="14.3397" /><circle cx="227.0" cy="290.0" r="7.6113" /><circle cx="542.0" cy="294.0" r="8.8849" /><circle cx="587.0" cy="296.0" r="9.4069" /><circle cx="357.0" cy="310.0" r="9.027" /><circle cx="201.0" cy="321.0" r="14.3397" /><circle cx="134.0" cy="323.0" r="8.5935" /><circle cx="523.0" cy="333.0" r="5.67" /><circle cx="685.0" cy="337.0" r="4.6865" /><circle cx="74.0" cy="344.0" r="8.6489" /><circle cx="304.0" cy="358.0" r="17.7069" /><circle cx="713.0" cy="341.0" r="5.9441" /><circle cx="392.0" cy="362.0" r="13.2073" /><circle cx="234.0" cy="356.0" r="6.9558" /><circle cx="19.0" cy="368.0" r="12.9026" /><circle cx="75.0" cy="374.0" r="17.5716" /><circle cx="41.0" cy="369.0" r="4.9185" /><circle cx="668.0" cy="375.0" r="4.7873" /><circle cx="469.0" cy="378.0" r="6.0503" /><circle cx="334.0" cy="384.0" r="7.0014" /><circle cx="564.0" cy="392.0" r="7.7768" /><circle cx="139.0" cy="393.0" r="8.3683" /><circle cx="684.0" cy="396.0" r="6.9099" /><circle cx="316.0" cy="411.0" r="17.4443" /><circle cx="116.0" cy="409.0" r="8.7948" /><circle cx="77.0" cy="424.0" r="16.2051" /><circle cx="542.0" cy="437.0" r="14.2507" /><circle cx="602.0" cy="429.0" r="6.3581" /><circle cx="630.0" cy="432.0" r="7.3561" /><circle cx="723.0" cy="451.0" r="12.8159" /><circle cx="501.0" cy="452.0" r="9.9496" /><circle cx="207.0" cy="474.0" r="8.1759" /><circle cx="228.0" cy="481.0" r="6.8171" /><circle cx="431.0" cy="506.0" r="17.0101" /><circle cx="396.0" cy="491.0" r="13.8313" /><circle cx="310.0" cy="512.0" r="14.5053" /><circle cx="601.0" cy="503.0" r="5.7536" /><circle cx="106.0" cy="505.0" r="6.9329" /><circle cx="723.0" cy="510.0" r="8.1759" /><circle cx="260.0" cy="515.0" r="8.3873" /><circle cx="148.0" cy="514.0" r="7.5272" /><circle cx="80.0" cy="521.0" r="7.3561" /><circle cx="454.0" cy="525.0" r="6.4328" /><circle cx="714.0" cy="544.0" r="20.6758" /><circle cx="602.0" cy="533.0" r="8.7948" /><circle cx="307.0" cy="551.0" r="20.5368" /><circle cx="187.0" cy="535.0" r="5.0777" /><circle cx="630.0" cy="540.0" r="7.4848" /><circle cx="55.0" cy="554.0" r="11.3401" /><circle cx="100.0" cy="550.0" r="7.0918" /><circle cx="198.0" cy="550.0" r="4.886" /><circle cx="581.0" cy="561.0" r="7.7973" /></svg>