<?xml version="1.0" encoding="utf-8" ?>
<svg baseProfile="tiny" height="564" version="1.2" width="723" xmlns="http://www.w3.org/2000/svg" xmlns:ev="http://www.w3.org/2001/xml-events" xmlns:xlink="http://www.w3.org/1999/xlink"><defs /><circle cx="179.0" cy="10.0" r="13.1227" /><circle cx="106.0" cy="22.0" r="5.5566" /><circle cx="248.0" cy="27.0" r="6.6517" /><circle cx="64.0" cy="31.0" r="7.653" /><circle cx="328.0" cy="38.0" r="5.109" /><circle cx="122.0" cy="45.0" r="6.1546" /><circle cx="609.0" cy="48.0" r="5.5566" /><circle cx="577.0" cy="59.0" r="11.213" /><circle cx="538.0" cy="55.0" r="5.4115" /><circle cx="405.0" cy="70.0" r="9.8854" /><circle cx="195.0" cy="68.0" r="7.3127" /><circle cx="366.0" cy="71.0" r="9.167" /><circle cx="485.0" cy="69.0" r="7.4422" /><circle cx="147.0" cy="76.0" r="6.0503" /><circle cx="511.0" cy="75.0" r="5.6136" /><circle cx="625.0" cy="86.0" r="9.7557" /><circle cx="383.0" cy="87.0" r="5.499" /><circle cx="50.0" cy="93.0" r="6.0503" /><circle cx="443.0" cy="99.0" r="4.6865" /><circle cx="537.0" cy="104.0" r="6.0765" /><circle cx="414.0" cy="105.0" r="5.2321" /><circle cx="572.0" cy="129.0" r="13.1469" /><circle cx="255.0" cy="126.0" r="6.9786" /><circle cx="364.0" cy="127.0" r="4.9185" /><circle cx="344.0" cy="129.0" r="4.5835" /><circle cx="56.0" cy="139.0" r="10.4642" /><circle cx="628.0" cy="132.0" r="5.7536" /><circle cx="500.0" cy="139.0" r="10.4794" /><circle cx="300.0" cy="143.0" r="10.7344" /><circle cx="670.0" cy="145.0" r="4.6524" /><circle cx="596.0" cy="150.0" r="4.7873" /><circle cx="621.0" cy="157.0" r="6.1026" /><circle cx="697.0" cy="158.0" r="5.5852" /><circle cx="557.0" cy="182.0" r="19.9232" /><circle cx="347.0" cy="166.0" r="8.4062" /><circle cx="18.0" cy="170.0" r="10.124" /><circle cx="488.0" cy="167.0" r="5.0463" /><circle cx="508.0" cy="173.0" r="4.4781" /><circle cx="42.0" cy="179.0" r="6.8637" /><circle cx="204.0" cy="182.0" r="7.1142" /><circle cx="33.0" cy="188.0" r="3.0902" /><circle cx="264.0" cy="191.0" r="4.0684" /><circle cx="129.0" cy="214.0" r="14.5491" /><circle cx="165.0" cy="206.0" r="9.0973" /><circle cx="396.0" cy="203.0" r="7.3561" /><circle cx="474.0" cy="208.0" r="5.836" /><circle cx="639.0" cy="209.0" r="5.0463" /><circle cx="574.0" cy="215.0" r="4.8204" /><circle cx="614.0" cy="217.0" r="4.7539" /><circle cx="330.0" cy="223.0" r="4.6865" /><circle cx="19.0" cy="232.0" r="8.444" /><circle cx="717.0" cy="239.0" r="15.4613" /><circle cx="640.0" cy="240.0" r="14.6906" /><circle cx="254.0" cy="240.0" r="7.9389" /><circle cx="109.0" cy="247.0" r="8.7767" /><circle cx="399.0" cy="249.0" r="7.3561" /><circle cx="160.0" cy="258.0" r="13.0741" /><circle cx="223.0" cy="260.0" r="7.5694" /><circle cx="571.0" cy="258.0" r="5.698" /><circle cx="245.0" cy="264.0" r="5.47" /><circle cx="577.0" cy="274.0" r="10.5097" /><circle cx="272.0" cy="275.0" r="8.4628" /><circle cx="528.0" cy="272.0" r="3.241" /><circle cx="638.0" cy="279.0" r="8.0582" /><circle cx="418.0" cy="296.0" r="13.0619" /><circle cx="227.0" cy="290.0" r="7.4635" /><circle cx="542.0" cy="294.0" r="8.7948" /><circle cx="586.0" cy="296.0" r="9.1322" /><circle cx="357.0" cy="310.0" r="8.9562" /><circle cx="432.0" cy="312.0" r="4.8204" /><circle cx="201.0" cy="321.0" r="13.9914" /><circle cx="134.0" cy="323.0" r="8.7039" /><circle cx="684.0" cy="337.0" r="4.8533" /><circle cx="74.0" cy="344.0" r="8.5004" /><circle cx="301.0" cy="359.0" r="15.6047" /><circle cx="233.0" cy="357.0" r="6.7937" /><circle cx="392.0" cy="362.0" r="12.6786" /><circle cx="19.0" cy="367.0" r="13.8313" /><circle cx="75.0" cy="374.0" r="17.2977" /><circle cx="334.0" cy="384.0" r="6.6037" /><circle cx="565.0" cy="392.0" r="7.7152" /><circle cx="139.0" cy="393.0" r="8.1173" /><circle cx="315.0" cy="412.0" r="16.7651" /><circle cx="402.0" cy="403.0" r="5.7536" /><circle cx="116.0" cy="410.0" r="8.612" /><circle cx="78.0" cy="422.0" r="17.1034" /><circle cx="362.0" cy="418.0" r="5.382" /><circle cx="501.0" cy="423.0" r="5.4408" /><circle cx="540.0" cy="440.0" r="13.1469" /><circle cx="602.0" cy="429.0" r="6.408" /><circle cx="630.0" cy="433.0" r="6.8404" /><circle cx="475.0" cy="441.0" r="5.2624" /><circle cx="723.0" cy="451.0" r="12.6283" /><circle cx="501.0" cy="451.0" r="11.326" /><circle cx="207.0" cy="474.0" r="7.7973" /><circle cx="228.0" cy="481.0" r="6.6756" /><circle cx="436.0" cy="509.0" r="19.3394" /><circle cx="331.0" cy="486.0" r="8.1953" /><circle cx="394.0" cy="492.0" r="12.5397" /><circle cx="705.0" cy="497.0" r="5.0777" /><circle cx="601.0" cy="503.0" r="6.0503" /><circle cx="106.0" cy="505.0" r="7.0467" /><circle cx="310.0" cy="513.0" r="13.9459" /><circle cx="723.0" cy="510.0" r="8.3683" /><circle cx="260.0" cy="515.0" r="8.1759" /><circle cx="148.0" cy="514.0" r="7.5061" /><circle cx="80.0" cy="521.0" r="7.5483" /><circle cx="697.0" cy="525.0" r="6.0239" /><circle cx="604.0" cy="533.0" r="8.078" /><circle cx="629.0" cy="540.0" r="7.5061" /><circle cx="544.0" cy="543.0" r="7.5904" /><circle cx="99.0" cy="550.0" r="7.1142" /><circle cx="199.0" cy="550.0" r="5.9173" /><circle cx="274.0" cy="556.0" r="5.8087" /><circle cx="140.0" cy="564.0" r="2.8768" /></svg>