<?xml version="1.0" encoding="utf-8" ?>
<svg baseProfile="tiny" height="549" version="1.2" width="723" xmlns="http://www.w3.org/2000/svg" xmlns:ev="http://www.w3.org/2001/xml-events" xmlns:xlink="http://www.w3.org/1999/xlink"><defs /><circle cx="64.0" cy="31.0" r="7.653" /><circle cx="609.0" cy="31.0" r="5.0777" /><circle cx="576.0" cy="58.0" r="9.9336" /><circle cx="405.0" cy="70.0" r="9.339" /><circle cx="366.0" cy="72.0" r="8.4816" /><circle cx="512.0" cy="75.0" r="5.109" /><circle cx="624.0" cy="85.0" r="8.6672" /><circle cx="537.0" cy="104.0" r="5.67" /><circle cx="570.0" cy="128.0" r="11.6447" /><circle cx="629.0" cy="132.0" r="5.2926" /><circle cx="500.0" cy="139.0" r="9.9336" /><circle cx="299.0" cy="141.0" r="9.4575" /><circle cx="347.0" cy="166.0" r="8.3492" /><circle cx="612.0" cy="178.0" r="6.7467" /><circle cx="640.0" cy="241.0" r="14.82" /><circle cx="109.0" cy="248.0" r="8.3302" /><circle cx="576.0" cy="274.0" r="9.7721" /><circle cx="639.0" cy="279.0" r="8.1369" /><circle cx="418.0" cy="297.0" r="13.1953" /><circle cx="541.0" cy="294.0" r="8.6672" /><circle cx="587.0" cy="296.0" r="8.9917" /><circle cx="433.0" cy="340.0" r="7.9988" /><circle cx="74.0" cy="344.0" r="8.0186" /><circle cx="302.0" cy="358.0" r="16.8692" /><circle cx="392.0" cy="363.0" r="12.6283" /><circle cx="75.0" cy="374.0" r="16.5068" /><circle cx="17.0" cy="369.0" r="12.0478" /><circle cx="140.0" cy="393.0" r="8.0976" /><circle cx="564.0" cy="392.0" r="7.4208" /><circle cx="684.0" cy="396.0" r="6.408" /><circle cx="316.0" cy="410.0" r="17.5444" /><circle cx="77.0" cy="424.0" r="15.7064" /><circle cx="541.0" cy="436.0" r="13.5052" /><circle cx="602.0" cy="429.0" r="5.9708" /><circle cx="10.0" cy="438.0" r="5.67" /><circle cx="723.0" cy="451.0" r="12.8159" /><circle cx="502.0" cy="451.0" r="11.8345" /><circle cx="450.0" cy="457.0" r="5.6419" /><circle cx="396.0" cy="491.0" r="15.3165" /><circle cx="438.0" cy="508.0" r="20.5755" /><circle cx="106.0" cy="505.0" r="6.6277" /><circle cx="684.0" cy="510.0" r="5.3226" /><circle cx="148.0" cy="514.0" r="7.2909" /><circle cx="80.0" cy="520.0" r="6.5553" /><circle cx="630.0" cy="539.0" r="7.2691" /><circle cx="100.0" cy="549.0" r="7.1588" /></svg>