<?xml version="1.0" encoding="utf-8" ?>
<svg baseProfile="tiny" height="732" version="1.2" width="946" xmlns="http://www.w3.org/2000/svg" xmlns:ev="http://www.w3.org/2001/xml-events" xmlns:xlink="http://www.w3.org/1999/xlink"><defs /><circle cx="927.0" cy="19.0" r="27.4256" /><circle cx="457.0" cy="19.0" r="13.9459" /><circle cx="866.0" cy="18.0" r="7.3345" /><circle cx="536.0" cy="22.0" r="5.2321" /><circle cx="772.0" cy="41.0" r="12.1792" /><circle cx="281.0" cy="39.0" r="7.2031" /><circle cx="647.0" cy="42.0" r="5.836" /><circle cx="236.0" cy="43.0" r="7.4208" /><circle cx="848.0" cy="42.0" r="4.9185" /><circle cx="669.0" cy="53.0" r="11.9816" /><circle cx="549.0" cy="47.0" r="3.6126" /><circle cx="594.0" cy="51.0" r="4.6865" /><circle cx="302.0" cy="54.0" r="5.2926" /><circle cx="534.0" cy="71.0" r="8.311" /><circle cx="847.0" cy="74.0" r="4.8533" /><circle cx="159.0" cy="75.0" r="4.7873" /><circle cx="467.0" cy="77.0" r="5.8087" /><circle cx="560.0" cy="77.0" r="3.4318" /><circle cx="797.0" cy="80.0" r="5.5279" /><circle cx="923.0" cy="80.0" r="4.6181" /><circle cx="830.0" cy="82.0" r="5.14" /><circle cx="266.0" cy="86.0" r="4.1074" /><circle cx="513.0" cy="102.0" r="13.564" /><circle cx="350.0" cy="94.0" r="4.9828" /><circle cx="487.0" cy="95.0" r="5.698" /><circle cx="575.0" cy="103.0" r="13.8543" /><circle cx="255.0" cy="99.0" r="5.0463" /><circle cx="277.0" cy="101.0" r="5.109" /><circle cx="806.0" cy="101.0" r="4.5835" /><circle cx="409.0" cy="102.0" r="4.9828" /><circle cx="842.0" cy="102.0" r="5.0463" /><circle cx="649.0" cy="109.0" r="8.6489" /><circle cx="813.0" cy="113.0" r="4.3702" /><circle cx="694.0" cy="118.0" r="4.5486" /><circle cx="298.0" cy="122.0" r="4.6524" /><circle cx="758.0" cy="124.0" r="5.2624" /><circle cx="328.0" cy="127.0" r="5.2321" /><circle cx="199.0" cy="131.0" r="6.2572" /><circle cx="933.0" cy="148.0" r="17.9834" /><circle cx="785.0" cy="151.0" r="14.9484" /><circle cx="537.0" cy="143.0" r="11.424" /><circle cx="567.0" cy="135.0" r="4.1459" /><circle cx="836.0" cy="138.0" r="6.0765" /><circle cx="673.0" cy="144.0" r="4.0684" /><circle cx="258.0" cy="150.0" r="5.109" /><circle cx="131.0" cy="154.0" r="7.7563" /><circle cx="874.0" cy="160.0" r="11.6584" /><circle cx="582.0" cy="169.0" r="9.027" /><circle cx="751.0" cy="175.0" r="5.382" /><circle cx="622.0" cy="179.0" r="6.6756" /><circle cx="879.0" cy="186.0" r="8.3873" /><circle cx="517.0" cy="186.0" r="4.7539" /><circle cx="644.0" cy="188.0" r="5.14" /><circle cx="730.0" cy="190.0" r="3.6996" /><circle cx="309.0" cy="197.0" r="11.1561" /><circle cx="443.0" cy="205.0" r="17.1962" /><circle cx="849.0" cy="195.0" r="2.7058" /><circle cx="178.0" cy="213.0" r="19.0576" /><circle cx="913.0" cy="198.0" r="4.5835" /><circle cx="544.0" cy="206.0" r="9.027" /><circle cx="792.0" cy="205.0" r="5.698" /><circle cx="686.0" cy="209.0" r="7.2031" /><circle cx="264.0" cy="210.0" r="5.2016" /><circle cx="335.0" cy="226.0" r="8.1759" /><circle cx="848.0" cy="220.0" r="5.6419" /><circle cx="931.0" cy="224.0" r="10.9836" /><circle cx="585.0" cy="236.0" r="5.7812" /><circle cx="828.0" cy="237.0" r="5.2016" /><circle cx="611.0" cy="239.0" r="5.0777" /><circle cx="458.0" cy="242.0" r="5.2624" /><circle cx="266.0" cy="243.0" r="5.47" /><circle cx="799.0" cy="247.0" r="5.0146" /><circle cx="143.0" cy="251.0" r="6.9786" /><circle cx="429.0" cy="252.0" r="5.0146" /><circle cx="610.0" cy="255.0" r="4.7539" /><circle cx="492.0" cy="258.0" r="5.7536" /><circle cx="884.0" cy="260.0" r="5.4408" /><circle cx="712.0" cy="265.0" r="4.7203" /><circle cx="799.0" cy="277.0" r="13.9573" /><circle cx="914.0" cy="271.0" r="4.7203" /><circle cx="242.0" cy="273.0" r="5.2926" /><circle cx="946.0" cy="278.0" r="8.9384" /><circle cx="228.0" cy="279.0" r="5.7812" /><circle cx="351.0" cy="283.0" r="4.0291" /><circle cx="167.0" cy="291.0" r="10.7196" /><circle cx="722.0" cy="293.0" r="4.6181" /><circle cx="246.0" cy="305.0" r="9.8531" /><circle cx="407.0" cy="300.0" r="7.6322" /><circle cx="452.0" cy="298.0" r="5.3524" /><circle cx="767.0" cy="302.0" r="4.7539" /><circle cx="800.0" cy="311.0" r="9.0622" /><circle cx="371.0" cy="313.0" r="4.9185" /><circle cx="585.0" cy="321.0" r="14.0142" /><circle cx="654.0" cy="315.0" r="5.9974" /><circle cx="526.0" cy="315.0" r="5.8632" /><circle cx="335.0" cy="334.0" r="16.803" /><circle cx="824.0" cy="325.0" r="8.5749" /><circle cx="629.0" cy="329.0" r="5.6419" /><circle cx="168.0" cy="329.0" r="4.886" /><circle cx="394.0" cy="332.0" r="5.9173" /><circle cx="526.0" cy="335.0" r="8.1173" /><circle cx="279.0" cy="335.0" r="4.4781" /><circle cx="498.0" cy="339.0" r="9.0798" /><circle cx="859.0" cy="359.0" r="17.2424" /><circle cx="731.0" cy="347.0" r="11.0702" /><circle cx="127.0" cy="344.0" r="4.7539" /><circle cx="422.0" cy="355.0" r="14.2395" /><circle cx="374.0" cy="348.0" r="5.5566" /><circle cx="672.0" cy="348.0" r="4.9828" /><circle cx="162.0" cy="364.0" r="5.47" /><circle cx="643.0" cy="366.0" r="6.3078" /><circle cx="500.0" cy="369.0" r="3.9894" /><circle cx="271.0" cy="375.0" r="9.9975" /><circle cx="686.0" cy="370.0" r="4.5835" /><circle cx="121.0" cy="373.0" r="6.0239" /><circle cx="896.0" cy="380.0" r="6.8868" /><circle cx="605.0" cy="388.0" r="14.4943" /><circle cx="216.0" cy="385.0" r="9.5912" /><circle cx="672.0" cy="388.0" r="4.9185" /><circle cx="851.0" cy="395.0" r="5.2016" /><circle cx="315.0" cy="396.0" r="4.9828" /><circle cx="574.0" cy="400.0" r="6.3078" /><circle cx="902.0" cy="405.0" r="6.1026" /><circle cx="552.0" cy="405.0" r="5.109" /><circle cx="350.0" cy="410.0" r="8.5191" /><circle cx="392.0" cy="415.0" r="9.1843" /><circle cx="211.0" cy="418.0" r="10.4642" /><circle cx="853.0" cy="416.0" r="5.0777" /><circle cx="145.0" cy="418.0" r="5.47" /><circle cx="763.0" cy="427.0" r="16.0075" /><circle cx="685.0" cy="425.0" r="5.2321" /><circle cx="485.0" cy="434.0" r="12.7287" /><circle cx="514.0" cy="429.0" r="5.3226" /><circle cx="294.0" cy="430.0" r="5.7536" /><circle cx="213.0" cy="443.0" r="10.6152" /><circle cx="375.0" cy="445.0" r="8.7586" /><circle cx="736.0" cy="442.0" r="4.9828" /><circle cx="808.0" cy="442.0" r="4.4781" /><circle cx="277.0" cy="448.0" r="6.8637" /><circle cx="87.0" cy="450.0" r="4.6181" /><circle cx="396.0" cy="450.0" r="4.2595" /><circle cx="527.0" cy="455.0" r="6.7937" /><circle cx="294.0" cy="457.0" r="4.9185" /><circle cx="564.0" cy="477.0" r="18.873" /><circle cx="895.0" cy="466.0" r="4.4424" /><circle cx="358.0" cy="472.0" r="4.6524" /><circle cx="807.0" cy="476.0" r="8.1953" /><circle cx="932.0" cy="477.0" r="5.0146" /><circle cx="213.0" cy="493.0" r="14.1273" /><circle cx="785.0" cy="486.0" r="7.7973" /><circle cx="943.0" cy="494.0" r="5.3226" /><circle cx="303.0" cy="512.0" r="9.8531" /><circle cx="787.0" cy="509.0" r="5.2016" /><circle cx="125.0" cy="513.0" r="5.0777" /><circle cx="752.0" cy="520.0" r="9.2534" /><circle cx="942.0" cy="521.0" r="12.6911" /><circle cx="724.0" cy="515.0" r="5.0146" /><circle cx="110.0" cy="519.0" r="5.6136" /><circle cx="841.0" cy="520.0" r="4.6865" /><circle cx="347.0" cy="527.0" r="11.1561" /><circle cx="532.0" cy="524.0" r="7.9788" /><circle cx="553.0" cy="523.0" r="4.7203" /><circle cx="792.0" cy="522.0" r="4.222" /><circle cx="477.0" cy="541.0" r="13.6925" /><circle cx="454.0" cy="534.0" r="6.0503" /><circle cx="239.0" cy="539.0" r="4.8533" /><circle cx="872.0" cy="543.0" r="4.4424" /><circle cx="314.0" cy="560.0" r="12.9026" /><circle cx="258.0" cy="555.0" r="5.698" /><circle cx="502.0" cy="557.0" r="5.6136" /><circle cx="558.0" cy="557.0" r="4.3336" /><circle cx="590.0" cy="568.0" r="9.1843" /><circle cx="648.0" cy="565.0" r="4.1459" /><circle cx="259.0" cy="590.0" r="19.9232" /><circle cx="532.0" cy="576.0" r="5.2624" /><circle cx="213.0" cy="578.0" r="4.4424" /><circle cx="141.0" cy="580.0" r="5.0146" /><circle cx="339.0" cy="579.0" r="4.3336" /><circle cx="477.0" cy="585.0" r="6.5066" /><circle cx="647.0" cy="588.0" r="8.0582" /><circle cx="683.0" cy="584.0" r="3.3851" /><circle cx="764.0" cy="592.0" r="4.5835" /><circle cx="676.0" cy="610.0" r="17.3345" /><circle cx="808.0" cy="613.0" r="13.3869" /><circle cx="490.0" cy="610.0" r="5.47" /><circle cx="238.0" cy="610.0" r="4.5486" /><circle cx="727.0" cy="618.0" r="9.2877" /><circle cx="195.0" cy="615.0" r="4.4781" /><circle cx="868.0" cy="619.0" r="5.698" /><circle cx="130.0" cy="622.0" r="5.8632" /><circle cx="537.0" cy="625.0" r="5.6136" /><circle cx="227.0" cy="628.0" r="5.1709" /><circle cx="351.0" cy="638.0" r="4.9507" /><circle cx="608.0" cy="637.0" r="5.2624" /><circle cx="312.0" cy="642.0" r="5.6419" /><circle cx="437.0" cy="642.0" r="4.7203" /><circle cx="747.0" cy="645.0" r="4.7539" /><circle cx="405.0" cy="653.0" r="11.5211" /><circle cx="247.0" cy="652.0" r="5.0777" /><circle cx="434.0" cy="661.0" r="7.2031" /><circle cx="556.0" cy="677.0" r="19.1492" /><circle cx="877.0" cy="664.0" r="6.3581" /><circle cx="283.0" cy="670.0" r="10.0609" /><circle cx="518.0" cy="672.0" r="5.6136" /><circle cx="782.0" cy="675.0" r="5.0146" /><circle cx="185.0" cy="677.0" r="5.6419" /><circle cx="330.0" cy="679.0" r="5.3524" /><circle cx="382.0" cy="679.0" r="4.9507" /><circle cx="528.0" cy="682.0" r="6.9329" /><circle cx="832.0" cy="681.0" r="5.5852" /><circle cx="132.0" cy="693.0" r="12.4378" /><circle cx="653.0" cy="696.0" r="9.0798" /><circle cx="892.0" cy="692.0" r="4.1459" /><circle cx="737.0" cy="694.0" r="5.3226" /><circle cx="870.0" cy="700.0" r="7.2909" /><circle cx="508.0" cy="702.0" r="7.653" /><circle cx="768.0" cy="702.0" r="4.886" /><circle cx="782.0" cy="704.0" r="5.2321" /><circle cx="194.0" cy="719.0" r="12.4889" /><circle cx="343.0" cy="711.0" r="4.6524" /><circle cx="909.0" cy="715.0" r="9.356" /><circle cx="242.0" cy="713.0" r="5.2926" /><circle cx="568.0" cy="715.0" r="4.9507" /><circle cx="544.0" cy="717.0" r="4.9185" /><circle cx="768.0" cy="715.0" r="3.1413" /><circle cx="107.0" cy="724.0" r="8.5935" /><circle cx="553.0" cy="732.0" r="7.7973" /></svg>