<?xml version="1.0" encoding="utf-8" ?>
<svg baseProfile="tiny" height="553" version="1.2" width="723" xmlns="http://www.w3.org/2000/svg" xmlns:ev="http://www.w3.org/2001/xml-events" xmlns:xlink="http://www.w3.org/1999/xlink"><defs /><circle cx="106.0" cy="22.0" r="5.67" /><circle cx="249.0" cy="28.0" r="6.7467" /><circle cx="64.0" cy="31.0" r="7.7563" /><circle cx="328.0" cy="37.0" r="5.3226" /><circle cx="122.0" cy="45.0" r="6.1026" /><circle cx="239.0" cy="47.0" r="7.8987" /><circle cx="609.0" cy="48.0" r="5.8087" /><circle cx="577.0" cy="59.0" r="11.213" /><circle cx="537.0" cy="55.0" r="5.6136" /><circle cx="405.0" cy="70.0" r="9.9815" /><circle cx="195.0" cy="68.0" r="7.3777" /><circle cx="485.0" cy="68.0" r="7.5694" /><circle cx="511.0" cy="75.0" r="5.67" /><circle cx="570.0" cy="79.0" r="4.8204" /><circle cx="625.0" cy="86.0" r="9.837" /><circle cx="50.0" cy="93.0" r="5.9974" /><circle cx="443.0" cy="99.0" r="4.7539" /><circle cx="536.0" cy="104.0" r="5.9441" /><circle cx="572.0" cy="129.0" r="13.2914" /><circle cx="255.0" cy="126.0" r="7.181" /><circle cx="344.0" cy="129.0" r="4.5835" /><circle cx="55.0" cy="139.0" r="10.6301" /><circle cx="628.0" cy="133.0" r="5.7536" /><circle cx="500.0" cy="138.0" r="10.6301" /><circle cx="300.0" cy="143.0" r="10.8963" /><circle cx="596.0" cy="150.0" r="5.0146" /><circle cx="347.0" cy="165.0" r="9.0798" /><circle cx="558.0" cy="182.0" r="19.7949" /><circle cx="18.0" cy="170.0" r="10.124" /><circle cx="158.0" cy="167.0" r="4.7873" /><circle cx="508.0" cy="173.0" r="4.4424" /><circle cx="42.0" cy="178.0" r="7.0467" /><circle cx="204.0" cy="181.0" r="7.4422" /><circle cx="701.0" cy="183.0" r="4.9185" /><circle cx="659.0" cy="187.0" r="5.2016" /><circle cx="165.0" cy="206.0" r="9.2189" /><circle cx="396.0" cy="203.0" r="7.6322" /><circle cx="129.0" cy="215.0" r="13.9459" /><circle cx="639.0" cy="209.0" r="5.109" /><circle cx="614.0" cy="217.0" r="4.7873" /><circle cx="330.0" cy="223.0" r="4.7203" /><circle cx="19.0" cy="232.0" r="8.612" /><circle cx="640.0" cy="240.0" r="14.7231" /><circle cx="717.0" cy="238.0" r="15.4613" /><circle cx="254.0" cy="240.0" r="7.9589" /><circle cx="109.0" cy="247.0" r="9.0094" /><circle cx="398.0" cy="251.0" r="8.2534" /><circle cx="160.0" cy="258.0" r="13.0131" /><circle cx="223.0" cy="259.0" r="7.9188" /><circle cx="571.0" cy="258.0" r="5.7536" /><circle cx="540.0" cy="257.0" r="3.7847" /><circle cx="699.0" cy="266.0" r="4.7539" /><circle cx="272.0" cy="276.0" r="9.0622" /><circle cx="638.0" cy="279.0" r="7.838" /><circle cx="418.0" cy="296.0" r="12.7911" /><circle cx="227.0" cy="290.0" r="7.2252" /><circle cx="543.0" cy="293.0" r="8.9562" /><circle cx="586.0" cy="296.0" r="9.027" /><circle cx="357.0" cy="310.0" r="8.849" /><circle cx="168.0" cy="307.0" r="4.9185" /><circle cx="432.0" cy="311.0" r="4.1074" /><circle cx="201.0" cy="321.0" r="14.0595" /><circle cx="134.0" cy="323.0" r="8.831" /><circle cx="523.0" cy="333.0" r="5.7812" /><circle cx="684.0" cy="337.0" r="4.9185" /><circle cx="74.0" cy="344.0" r="8.6856" /><circle cx="234.0" cy="356.0" r="6.7703" /><circle cx="392.0" cy="362.0" r="12.3993" /><circle cx="75.0" cy="374.0" r="17.499" /><circle cx="334.0" cy="384.0" r="6.9558" /><circle cx="565.0" cy="391.0" r="7.7152" /><circle cx="139.0" cy="393.0" r="8.311" /><circle cx="315.0" cy="411.0" r="16.5837" /><circle cx="116.0" cy="410.0" r="8.9384" /><circle cx="78.0" cy="422.0" r="17.1592" /><circle cx="501.0" cy="424.0" r="5.47" /><circle cx="630.0" cy="432.0" r="6.9329" /><circle cx="723.0" cy="451.0" r="12.8407" /><circle cx="438.0" cy="443.0" r="5.67" /><circle cx="499.0" cy="453.0" r="9.373" /><circle cx="207.0" cy="474.0" r="7.7358" /><circle cx="396.0" cy="491.0" r="14.0028" /><circle cx="434.0" cy="503.0" r="16.6508" /><circle cx="330.0" cy="486.0" r="8.1564" /><circle cx="106.0" cy="505.0" r="7.1142" /><circle cx="92.0" cy="503.0" r="4.3336" /><circle cx="307.0" cy="515.0" r="12.1268" /><circle cx="723.0" cy="510.0" r="8.6489" /><circle cx="148.0" cy="515.0" r="7.4422" /><circle cx="80.0" cy="521.0" r="7.7152" /><circle cx="422.0" cy="522.0" r="7.2252" /><circle cx="714.0" cy="546.0" r="22.7222" /><circle cx="452.0" cy="527.0" r="4.9185" /><circle cx="103.0" cy="546.0" r="9.0622" /><circle cx="629.0" cy="540.0" r="7.6113" /><circle cx="198.0" cy="551.0" r="5.2016" /><circle cx="237.0" cy="553.0" r="5.2624" /></svg>